<?xml version="1.0" encoding="UTF-8" standalone="no"?><!DOCTYPE svg PUBLIC "-//W3C//DTD SVG 1.1//EN" "http://www.w3.org/Graphics/SVG/1.1/DTD/svg11.dtd"><svg width="100%" height="100%" viewBox="0 0 3459 550" version="1.1" xmlns="http://www.w3.org/2000/svg" xmlns:xlink="http://www.w3.org/1999/xlink" xml:space="preserve" xmlns:serif="http://www.serif.com/" style="fill-rule:evenodd;clip-rule:evenodd;stroke-linejoin:round;stroke-miterlimit:2;"><g><g><g><path d="M74.13,236.166l-0,-0.955l-21.007,-49.826c-1.736,-4.102 -3.038,-8.55 -3.907,-13.368c-0.824,-4.796 -1.215,-9.245 -1.215,-13.368c0,-6.814 0.738,-13.564 2.257,-20.226c1.563,-6.64 4.384,-12.109 8.507,-16.406c4.102,-4.275 10.265,-6.424 18.49,-6.424c12.955,0 23.98,4.992 33.073,14.931c9.071,9.896 13.628,21.18 13.628,33.854c0,3.776 -0.087,8.312 -0.26,13.628c-0.174,5.274 -0.261,10.309 -0.261,15.105c0,3.081 0.825,6.315 2.518,9.722c1.736,3.429 4.817,7.53 9.288,12.326c6.467,6.489 11.675,12.565 15.625,18.229c3.928,5.621 5.903,13.065 5.903,22.309c-0,3.082 -0.174,6.077 -0.521,9.028c-0.347,2.908 -0.847,5.708 -1.476,8.42c-1.389,7.531 -2.604,14.974 -3.646,22.309c-1.041,7.357 -1.562,14.974 -1.562,22.83c-0,9.961 1.172,20.313 3.559,31.077c2.43,10.764 7.4,19.77 14.93,26.996c7.856,7.878 17.123,11.806 27.778,11.806c9.201,-0 14.887,-3.494 17.101,-10.504c2.257,-7.053 3.385,-14.344 3.385,-21.875c0,-12.673 -0.521,-25.651 -1.562,-38.975c-0.348,-7.509 -0.782,-15.039 -1.302,-22.57c-0.478,-7.574 -0.695,-15.126 -0.695,-22.656c0,-15.039 0.651,-31.272 1.997,-48.698c1.389,-17.47 5.664,-33.03 12.847,-46.701c9.592,-17.817 22.352,-30.578 38.281,-38.282c15.907,-7.682 33.442,-11.545 52.604,-11.545c25.977,0 50.261,5.816 72.83,17.448c22.613,11.632 41.45,27.734 56.511,48.264c13.303,17.773 22.612,37.283 27.951,58.507c5.317,21.18 7.986,42.925 7.986,65.191c0,17.773 -2.062,36.003 -6.163,54.687c-4.123,18.642 -13.346,34.289 -27.691,46.962c-6.554,5.794 -13.846,10.829 -21.875,15.104c-8.051,4.297 -16.667,6.424 -25.868,6.424c-8.572,-0 -16.884,-2.04 -24.913,-6.163c-8.052,-4.102 -14.128,-9.918 -18.229,-17.448c-2.084,-3.754 -4.84,-8.616 -8.247,-14.583c-3.429,-6.012 -6.142,-10.374 -8.16,-13.108c-4.47,-6.185 -7.639,-11.328 -9.548,-15.451c-1.867,-4.102 -2.778,-6.337 -2.778,-6.685c-0,-2.712 1.866,-5.338 5.642,-7.899c3.755,-2.604 11.806,-5.946 24.132,-10.069c4.796,-1.671 8.724,-5.404 11.806,-11.198c3.06,-5.838 5.425,-12.609 7.118,-20.313c1.736,-7.682 2.951,-15.299 3.646,-22.83c0.694,-7.508 1.041,-13.498 1.041,-17.968c0,-18.164 -3.103,-35.959 -9.288,-53.386c-6.141,-17.469 -15.885,-32.552 -29.253,-45.225c-4.818,-4.731 -10.547,-8.638 -17.188,-11.719c-6.662,-3.125 -13.411,-4.688 -20.226,-4.688c-12.673,0 -21.245,5.99 -25.694,17.969c-3.429,8.919 -5.469,18.099 -6.163,27.517c-0.695,9.375 -1.042,18.707 -1.042,27.952c0,13.672 0.521,27.517 1.563,41.58c1.041,13.324 2.474,25.781 4.34,37.413c1.91,11.632 4.557,23.785 7.986,36.458c2.018,7.531 3.733,15.321 5.122,23.351c1.388,8.051 2.083,16.016 2.083,23.871c-0,19.51 -4.384,35.938 -13.108,49.306c-8.745,13.325 -20.551,23.416 -35.416,30.295c-14.888,6.814 -31.75,10.243 -50.608,10.243c-21.875,0 -42.752,-5.121 -62.587,-15.364c-19.857,-10.287 -35.937,-24.328 -48.264,-42.101c-9.896,-14.757 -17.166,-30.577 -21.788,-47.483c-4.644,-16.948 -6.944,-34.31 -6.944,-52.083c-0,-17.122 2.04,-33.55 6.163,-49.306l10.764,-43.663Z" style="fill:#fff;fill-rule:nonzero;"/></g></g></g><g><g><g><path d="M733.233,130.958c-1.389,-6.12 -3.624,-12.109 -6.684,-17.969c-1.736,-3.754 -3.039,-7.682 -3.907,-11.805c-0.824,-4.102 -1.215,-8.204 -1.215,-12.327c0,-4.449 0.738,-9.397 2.257,-14.844c1.563,-5.49 3.95,-10.373 7.205,-14.67c3.233,-4.275 7.595,-6.423 13.108,-6.423c2.018,-0 4.21,1.128 6.597,3.385c2.43,2.214 4.991,5.013 7.725,8.42c6.533,7.531 13.303,13.607 20.313,18.229c6.988,4.645 15.126,9.354 24.392,14.15c7.509,3.776 15.126,8.311 22.83,13.628c7.682,5.274 14.084,11.61 19.184,19.011c5.143,7.356 7.726,15.798 7.726,25.347c-0,8.225 -1.628,16.363 -4.861,24.392c-3.255,8.051 -7.965,14.735 -14.15,20.052c-6.141,5.274 -13.845,7.9 -23.09,7.9c-8.225,-0 -16.623,-1.52 -25.173,-4.601c-8.507,-3.06 -18.75,-7.335 -30.73,-12.847c-7.183,-3.755 -14.539,-7.162 -22.048,-10.243c-7.531,-3.06 -15.235,-4.601 -23.09,-4.601c-2.084,-0 -4.08,0.434 -5.99,1.302c-1.866,0.825 -2.778,2.431 -2.778,4.861c0,1.693 2.127,4.84 6.424,9.462c4.275,4.644 7.595,7.964 9.982,9.983c3.755,3.428 6.641,7.79 8.681,13.107c2.083,5.339 3.125,10.547 3.125,15.625c0,11.35 -3.863,23.09 -11.545,35.243c-7.704,12.11 -16.71,23.481 -26.997,34.115c-10.243,10.59 -19.488,19.661 -27.691,27.17c-9.201,8.572 -13.802,14.735 -13.802,18.49c0,2.734 1.085,4.861 3.299,6.423c2.257,1.519 4.557,2.257 6.944,2.257c4.102,0 8.29,-1.693 12.587,-5.121c4.275,-3.408 11.372,-11.459 21.268,-24.132c8.203,-10.243 18.315,-21.528 30.295,-33.855c11.979,-12.326 25.13,-24.045 39.496,-35.156c14.41,-11.111 29.471,-20.16 45.226,-27.17c15.733,-6.988 31.293,-10.503 46.701,-10.503c14.692,-0 28.863,2.929 42.535,8.767c13.715,5.794 26.389,13.108 38.021,21.962c14.41,11.002 26.215,24.37 35.416,40.104c9.245,15.755 13.889,32.856 13.889,51.302c0,13.672 -1.974,28.038 -5.902,43.142c-3.95,15.061 -9.354,29.514 -16.233,43.403c-6.836,13.846 -15.017,25.868 -24.566,36.111c-13.021,14.019 -28.364,25.022 -46.007,33.073c-17.6,8.03 -35.981,12.066 -55.121,12.066c-11.632,0 -23.264,-1.193 -34.896,-3.559c-11.632,-2.387 -22.787,-6.315 -33.42,-11.805c-7.531,-3.776 -16.103,-8.724 -25.695,-14.844c-9.549,-6.185 -16.884,-10.981 -21.962,-14.41c-4.123,-2.713 -6.857,-4.861 -8.246,-6.424c-1.389,-1.562 -2.084,-3.168 -2.084,-4.861c0,-2.712 1.172,-4.34 3.559,-4.861c2.431,-0.521 4.862,-0.781 7.292,-0.781l13.802,0c15.039,0 31.207,-2.886 48.524,-8.681c17.297,-5.837 31.771,-13.216 43.403,-22.135c8.16,-6.12 17.036,-14.67 26.65,-25.608c9.592,-10.98 17.816,-22.656 24.652,-34.982c6.815,-12.327 10.243,-23.785 10.243,-34.375c0,-7.856 -2.582,-14.345 -7.725,-19.445c-5.1,-5.143 -11.415,-7.725 -18.924,-7.725c-5.512,-0 -13.628,5.468 -24.392,16.406c-10.764,10.937 -25.239,27.387 -43.403,49.305c-8.572,10.591 -19.01,21.789 -31.337,33.594c-12.283,11.806 -25.521,21.832 -39.757,30.035c-14.192,8.225 -28.798,12.326 -43.837,12.326c-12.673,0 -26.041,-3.494 -40.104,-10.503c-14.019,-7.053 -26.345,-16.233 -36.979,-27.518c-10.59,-11.284 -17.773,-23.263 -21.528,-35.937c-1.345,-5.425 -2.604,-11.393 -3.819,-17.882c-1.215,-6.532 -1.823,-12.717 -1.823,-18.576c-0,-9.202 2.734,-19.792 8.246,-31.771c5.491,-11.979 11.915,-23.698 19.271,-35.156c7.335,-11.459 13.737,-20.617 19.184,-27.518c6.185,-7.508 11.328,-14.431 15.452,-20.746c4.101,-6.294 6.163,-11.849 6.163,-16.667c-0,-3.06 -0.695,-6.641 -2.083,-10.764c-1.693,-4.449 -2.518,-8.377 -2.518,-11.805c0,-9.592 3.668,-17.296 11.025,-23.091c7.335,-5.837 15.885,-10.113 25.607,-12.847c9.766,-2.778 18.251,-4.167 25.434,-4.167c2.713,0 6.966,0.261 12.761,0.782c5.837,0.52 10.46,0.781 13.889,0.781l5.729,-0Z" style="fill:#fff;fill-rule:nonzero;"/></g></g></g><g><g><g><path d="M1183.31,338.336c-9.549,0 -18.794,-1.432 -27.691,-4.34c-8.919,-2.951 -17.144,-7.487 -24.653,-13.628c-5.165,-4.102 -9.787,-9.397 -13.889,-15.886c-4.123,-6.532 -6.163,-13.216 -6.163,-20.052c0,-3.06 0.694,-4.948 2.083,-5.642c1.389,-0.695 3.082,-1.042 5.122,-1.042l5.121,0c3.125,0 8.269,-1.866 15.452,-5.642c7.161,-3.755 12.804,-6.815 16.927,-9.202c19.488,-12.326 37.956,-23.35 55.382,-33.073c17.469,-9.765 35.612,-17.469 54.427,-23.09c18.793,-5.664 40.191,-8.507 64.149,-8.507c20.877,0 40.039,4.037 57.466,12.066c17.469,8.051 33.072,19.597 46.788,34.636c10.937,11.632 19.032,24.717 24.305,39.236c5.317,14.54 7.986,29.839 7.986,45.92c0,20.204 -3.776,39.388 -11.284,57.552c-7.531,18.121 -17.969,34.114 -31.337,48.003c-13.325,13.846 -28.885,24.697 -46.702,32.552c-17.773,7.878 -36.935,11.806 -57.465,11.806c-14.366,0 -27.04,-2.04 -38.021,-6.163c-10.937,-4.102 -21.007,-9.744 -30.208,-16.927c-6.554,-4.796 -13.498,-9.918 -20.833,-15.365c-7.357,-5.49 -14.974,-10.981 -22.83,-16.493l-7.726,-6.163c-3.429,-2.713 -6.575,-5.599 -9.462,-8.681c-2.908,-3.06 -4.34,-5.816 -4.34,-8.246c0,-2.713 1.693,-4.08 5.122,-4.08c1.671,-0 4.21,0.174 7.638,0.521c3.473,0.347 7.249,0.868 11.372,1.562c5.773,0.999 11.914,1.823 18.403,2.518c6.532,0.694 10.807,1.041 12.847,1.041c14.062,0 28.863,-2.387 44.444,-7.205c15.56,-4.796 29.167,-10.785 40.799,-17.968c7.161,-4.449 14.605,-9.744 22.309,-15.886c7.682,-6.185 14.171,-13.216 19.445,-21.093c5.316,-7.856 7.986,-16.233 7.986,-25.087c-0,-9.592 -2.908,-17.296 -8.681,-23.091c-3.776,-3.754 -7.964,-6.814 -12.587,-9.201c-4.644,-2.43 -9.679,-3.646 -15.104,-3.646c-2.778,0 -6.055,0.521 -9.809,1.563c-3.776,0.998 -9.071,3.363 -15.885,7.118c-14.714,7.877 -30.447,15.929 -47.223,24.132c-16.796,8.225 -32.53,14.735 -47.222,19.531c-11.979,3.776 -24.132,5.642 -36.458,5.642Z" style="fill:#fff;fill-rule:nonzero;"/></g></g></g><g><g><g><path d="M1994.32,345.02c-0,20.899 -3.538,40.322 -10.591,58.247c-7.009,17.947 -17.339,34.635 -30.989,50.087c-17.144,19.791 -37.587,34.396 -61.372,43.837c-23.785,9.418 -48.502,14.149 -74.132,14.149c-20.204,-0 -40.755,-3.017 -61.632,-9.028c-20.833,-5.968 -39.995,-14.757 -57.465,-26.389c-17.491,-11.632 -31.597,-26.085 -42.361,-43.403c-10.764,-17.296 -16.146,-37.413 -16.146,-60.329c0,-18.099 2.452,-36.567 7.379,-55.382c4.969,-18.859 11.74,-36.307 20.312,-52.344c2.713,-4.796 4.34,-8.116 4.861,-9.983c0.521,-1.91 0.781,-3.559 0.781,-4.948c0,-1.671 -0.52,-3.298 -1.562,-4.861c-0.998,-1.562 -3.017,-4.036 -6.076,-7.465c-4.124,-4.796 -7.032,-10.091 -8.768,-15.886c-1.736,-5.837 -2.604,-11.827 -2.604,-17.968c-0,-13.021 3.581,-24.653 10.764,-34.896c7.226,-10.287 16.493,-19.032 27.778,-26.215c4.796,-3.06 7.942,-5.426 9.461,-7.118c1.563,-1.737 2.344,-3.646 2.344,-5.73c0,-1.671 -1.367,-5.078 -4.08,-10.243c-2.43,-4.448 -4.166,-9.483 -5.208,-15.104c-0.998,-5.664 -1.476,-10.894 -1.476,-15.712c0,-7.161 2.713,-14.605 8.16,-22.309c5.491,-7.682 12.175,-11.545 20.052,-11.545c9.896,0 17.144,1.628 21.788,4.861c4.623,3.256 9.332,8.811 14.15,16.667c2.712,4.47 6.966,9.7 12.76,15.712c5.838,5.968 10.981,11.176 15.451,15.625c6.12,5.512 11.242,11.675 15.365,18.489c4.102,6.836 6.163,14.714 6.163,23.611c0,10.938 -3.515,19.77 -10.503,26.476c-7.01,6.662 -15.972,9.983 -26.91,9.983c-3.776,-0 -8.312,-0.651 -13.628,-1.997c-5.339,-1.389 -10.895,-2.951 -16.667,-4.687c-3.429,0.694 -6.511,1.041 -9.288,1.041c-2.387,0 -3.559,1.194 -3.559,3.559c-0,2.084 3.928,5.686 11.805,10.764c9.939,6.207 19.097,13.238 27.431,21.094c8.377,7.878 12.587,18.642 12.587,32.292c-0,11.979 -2.67,23.22 -7.987,33.68c-5.273,10.417 -11.154,20.443 -17.621,30.035c-5.165,7.53 -9.787,15.321 -13.889,23.351c-4.123,8.051 -6.163,16.84 -6.163,26.389c-0,19.856 6.423,34.592 19.271,44.184c12.847,9.548 28.494,14.323 46.961,14.323c20.834,-0 38.152,-6.294 51.997,-18.924c13.889,-12.674 24.761,-28.082 32.639,-46.267c6.879,-15.039 11.588,-30.773 14.149,-47.223c2.539,-16.428 3.82,-33.007 3.82,-49.739c-0,-7.856 -0.174,-15.56 -0.521,-23.09c-0.304,-7.509 -0.781,-13.846 -1.476,-19.011c-0.347,-4.796 -0.608,-8.29 -0.781,-10.503c-0.174,-2.257 -0.261,-4.21 -0.261,-5.903c0,-1.736 0.478,-3.342 1.476,-4.861c1.042,-1.563 2.604,-2.344 4.688,-2.344c2.018,-0 4.297,2.062 6.857,6.163c2.604,4.123 5.426,9.766 8.507,16.927c2.778,5.795 8.334,13.412 16.667,22.83c8.377,9.44 16.515,18.099 24.392,25.955c11.632,11.632 20.009,24.045 25.174,37.24c5.143,13.151 7.726,27.756 7.726,43.836Z" style="fill:#fff;fill-rule:nonzero;"/></g></g></g><g><g><g><path d="M2275.56,213.597l2.083,-0.521c-0.347,-3.06 -1.562,-6.641 -3.646,-10.764c-2.039,-4.102 -4.079,-7.509 -6.163,-10.243c-1.345,-1.736 -2.517,-3.689 -3.559,-5.903c-1.041,-2.257 -1.562,-3.689 -1.562,-4.34c-0,-8.898 3.32,-15.408 9.982,-19.531c6.706,-4.102 13.824,-6.164 21.355,-6.164c12.326,0 21.636,3.104 27.951,9.289c6.358,6.141 10.807,13.932 13.368,23.35c2.539,9.375 4.34,19.011 5.382,28.907c11.632,-3.06 21.463,-5.513 29.514,-7.379c8.029,-1.91 15.299,-2.864 21.788,-2.864c18.511,-0 34.852,4.557 49.045,13.628c14.171,9.093 25.282,21.159 33.334,36.198c8.029,15.061 12.065,31.467 12.065,49.219c0,9.266 -1.454,18.099 -4.34,26.475c-2.908,8.399 -7.769,16.016 -14.583,22.83c-6.554,6.489 -14.366,11.372 -23.438,14.67c-9.027,3.256 -18.185,4.862 -27.43,4.862c-18.815,-0 -35.569,-5.469 -50.261,-16.407c-4.817,-3.819 -9.7,-8.181 -14.67,-13.107c-4.991,-4.97 -9.006,-9.506 -12.066,-13.629c-4.817,-6.467 -8.225,-9.722 -10.243,-9.722c-1.389,-0 -3.537,1.128 -6.423,3.385c-2.908,2.214 -5.73,4.666 -8.507,7.379l-5.643,5.642l25.174,44.618c5.838,10.656 11.133,21.788 15.885,33.42c4.796,11.632 7.205,23.785 7.205,36.459c0,10.937 -3.515,19.336 -10.503,25.173c-7.01,5.773 -15.842,8.681 -26.476,8.681c-5.447,-0 -10.829,-0.955 -16.146,-2.865c-5.273,-1.866 -9.787,-4.644 -13.541,-8.42c-2.431,-2.43 -4.948,-5.078 -7.553,-7.986c-2.56,-2.886 -4.492,-5.859 -5.816,-8.941l-18.489,-41.059c-1.389,-3.819 -3.624,-8.876 -6.684,-15.191c-3.082,-6.293 -5.99,-12.109 -8.767,-17.448c-2.735,-5.317 -4.579,-7.986 -5.556,-7.986c-1.736,0 -3.212,0.087 -4.427,0.26c-1.172,0.174 -3.125,0.608 -5.903,1.303c-3.776,1.041 -7.878,1.736 -12.326,2.083c-4.471,0.347 -8.572,0.521 -12.327,0.521c-8.159,-0 -16.449,-2.04 -24.826,-6.163c-8.399,-4.102 -15.43,-9.744 -21.094,-16.928c-5.62,-7.226 -8.42,-15.277 -8.42,-24.132c0,-3.754 1.519,-6.25 4.601,-7.465c3.06,-1.215 8.876,-1.823 17.448,-1.823c1.671,0 5.078,-1.172 10.243,-3.559c5.143,-2.43 10.026,-5.165 14.67,-8.246c4.622,-3.06 6.944,-5.295 6.944,-6.684c0,-2.019 -2.582,-6.706 -7.725,-14.063c-5.165,-7.335 -11.155,-15.646 -17.969,-24.913c-2.431,-3.407 -4.08,-6.988 -4.948,-10.764c-0.825,-3.754 -1.215,-7.509 -1.215,-11.285c-0,-14.691 4.687,-25.976 14.062,-33.854c9.419,-7.856 21.007,-11.805 34.722,-11.805c9.896,-0 19.705,1.106 29.427,3.298c9.766,2.214 18.772,5.708 26.997,10.504Zm72.396,95.486c4.449,1.389 8.962,2.604 13.541,3.646c4.623,0.998 9.158,1.475 13.629,1.475c7.856,0 15.299,-1.953 22.309,-5.902c7.053,-3.928 10.59,-10.352 10.59,-19.271c0,-3.755 -0.868,-7.769 -2.604,-12.066c-1.736,-4.275 -4.818,-6.424 -9.201,-6.424c-3.125,0 -7.422,1.91 -12.848,5.729c-5.859,4.059 -12.63,9.354 -20.312,15.886c-7.704,6.489 -12.739,12.131 -15.104,16.927Zm-98.524,-41.58l16.927,-12.326c-1.389,-4.796 -4.84,-8.377 -10.33,-10.764c-5.447,-2.366 -10.569,-3.559 -15.365,-3.559c-1.736,-0 -4.318,0.173 -7.726,0.521c-3.428,0.303 -5.121,1.649 -5.121,4.079c-0,1.346 1.432,3.559 4.34,6.684c2.952,3.082 6.207,6.055 9.809,8.941c3.581,2.908 6.077,5.035 7.466,6.424Z" style="fill:#fff;fill-rule:nonzero;"/></g></g></g><g><g><g><path d="M2640.48,236.166l-0,-0.955l-21.007,-49.826c-1.736,-4.102 -3.038,-8.55 -3.906,-13.368c-0.825,-4.796 -1.216,-9.245 -1.216,-13.368c0,-6.814 0.738,-13.564 2.257,-20.226c1.563,-6.64 4.384,-12.109 8.507,-16.406c4.102,-4.275 10.265,-6.424 18.49,-6.424c12.956,0 23.98,4.992 33.073,14.931c9.071,9.896 13.628,21.18 13.628,33.854c0,3.776 -0.086,8.312 -0.26,13.628c-0.174,5.274 -0.261,10.309 -0.261,15.105c0,3.081 0.825,6.315 2.518,9.722c1.736,3.429 4.818,7.53 9.288,12.326c6.467,6.489 11.675,12.565 15.625,18.229c3.928,5.621 5.903,13.065 5.903,22.309c-0,3.082 -0.174,6.077 -0.521,9.028c-0.347,2.908 -0.846,5.708 -1.476,8.42c-1.389,7.531 -2.604,14.974 -3.646,22.309c-1.041,7.357 -1.562,14.974 -1.562,22.83c-0,9.961 1.172,20.313 3.559,31.077c2.431,10.764 7.4,19.77 14.931,26.996c7.855,7.878 17.122,11.806 27.777,11.806c9.202,-0 14.887,-3.494 17.101,-10.504c2.257,-7.053 3.385,-14.344 3.385,-21.875c0,-12.673 -0.52,-25.651 -1.562,-38.975c-0.347,-7.509 -0.781,-15.039 -1.302,-22.57c-0.478,-7.574 -0.695,-15.126 -0.695,-22.656c0,-15.039 0.651,-31.272 1.997,-48.698c1.389,-17.47 5.664,-33.03 12.847,-46.701c9.592,-17.817 22.353,-30.578 38.281,-38.282c15.908,-7.682 33.442,-11.545 52.605,-11.545c25.976,0 50.26,5.816 72.829,17.448c22.613,11.632 41.45,27.734 56.511,48.264c13.303,17.773 22.613,37.283 27.951,58.507c5.317,21.18 7.986,42.925 7.986,65.191c0,17.773 -2.061,36.003 -6.163,54.687c-4.123,18.642 -13.346,34.289 -27.691,46.962c-6.554,5.794 -13.845,10.829 -21.875,15.104c-8.051,4.297 -16.666,6.424 -25.868,6.424c-8.572,-0 -16.884,-2.04 -24.913,-6.163c-8.051,-4.102 -14.128,-9.918 -18.229,-17.448c-2.084,-3.754 -4.84,-8.616 -8.247,-14.583c-3.429,-6.012 -6.141,-10.374 -8.159,-13.108c-4.471,-6.185 -7.639,-11.328 -9.549,-15.451c-1.866,-4.102 -2.778,-6.337 -2.778,-6.685c0,-2.712 1.866,-5.338 5.642,-7.899c3.755,-2.604 11.806,-5.946 24.132,-10.069c4.796,-1.671 8.724,-5.404 11.806,-11.198c3.06,-5.838 5.425,-12.609 7.118,-20.313c1.736,-7.682 2.951,-15.299 3.646,-22.83c0.694,-7.508 1.042,-13.498 1.042,-17.968c-0,-18.164 -3.104,-35.959 -9.289,-53.386c-6.141,-17.469 -15.885,-32.552 -29.253,-45.225c-4.818,-4.731 -10.547,-8.638 -17.188,-11.719c-6.662,-3.125 -13.411,-4.688 -20.225,-4.688c-12.674,0 -21.246,5.99 -25.695,17.969c-3.429,8.919 -5.469,18.099 -6.163,27.517c-0.694,9.375 -1.042,18.707 -1.042,27.952c0,13.672 0.521,27.517 1.563,41.58c1.042,13.324 2.474,25.781 4.34,37.413c1.91,11.632 4.557,23.785 7.986,36.458c2.018,7.531 3.733,15.321 5.122,23.351c1.389,8.051 2.083,16.016 2.083,23.871c0,19.51 -4.384,35.938 -13.108,49.306c-8.745,13.325 -20.551,23.416 -35.416,30.295c-14.887,6.814 -31.749,10.243 -50.608,10.243c-21.875,0 -42.752,-5.121 -62.587,-15.364c-19.856,-10.287 -35.937,-24.328 -48.264,-42.101c-9.895,-14.757 -17.165,-30.577 -21.788,-47.483c-4.644,-16.948 -6.944,-34.31 -6.944,-52.083c-0,-17.122 2.04,-33.55 6.163,-49.306l10.764,-43.663Z" style="fill:#fff;fill-rule:nonzero;"/></g></g></g><g><g><g><path d="M3346.72,99.621c11.328,0 21.528,2.756 30.556,8.247c9.071,5.512 16.254,12.803 21.528,21.875c5.317,9.027 7.986,19.184 7.986,30.468c-0,1.736 -0.781,7.249 -2.344,16.493c-1.519,9.202 -3.472,20.573 -5.903,34.115c-2.387,13.498 -4.926,27.778 -7.639,42.882c-2.734,15.061 -5.468,29.427 -8.246,43.142c-2.735,13.672 -5.122,25.478 -7.205,35.417c-2.04,9.896 -3.385,16.211 -4.08,18.924c-1.693,6.141 -4.405,11.523 -8.16,16.145c-3.776,4.645 -9.266,6.945 -16.493,6.945c-7.183,-0 -12.652,-2.3 -16.406,-6.945c-3.776,-4.622 -6.489,-10.004 -8.16,-16.145c-0.694,-2.713 -2.083,-9.028 -4.166,-18.924c-2.04,-9.939 -4.427,-21.745 -7.205,-35.417c-2.735,-13.715 -5.447,-28.081 -8.16,-43.142c-2.734,-15.104 -5.295,-29.384 -7.726,-42.882c-2.387,-13.542 -4.34,-24.913 -5.902,-34.115c-1.519,-9.244 -2.257,-14.757 -2.257,-16.493c-0,-11.284 2.626,-21.441 7.899,-30.468c5.317,-9.072 12.5,-16.363 21.528,-21.875c9.071,-5.491 19.271,-8.247 30.555,-8.247Zm0,292.622c9.245,-0 18.251,1.974 26.997,5.902c8.724,3.95 15.907,9.506 21.528,16.667c5.664,7.183 8.507,15.929 8.507,26.215c-0,9.896 -2.843,18.533 -8.507,25.868c-5.621,7.357 -12.804,13 -21.528,16.927c-8.746,3.928 -17.752,5.903 -26.997,5.903c-8.854,0 -17.751,-1.975 -26.649,-5.903c-8.919,-3.927 -16.211,-9.57 -21.875,-16.927c-5.621,-7.335 -8.42,-15.972 -8.42,-25.868c-0,-10.286 2.799,-19.032 8.42,-26.215c5.664,-7.161 12.956,-12.717 21.875,-16.667c8.898,-3.928 17.795,-5.902 26.649,-5.902Z" style="fill:#fff;fill-rule:nonzero;"/></g></g></g></svg>