<?xml version="1.0" encoding="UTF-8" standalone="no"?><!DOCTYPE svg PUBLIC "-//W3C//DTD SVG 1.1//EN" "http://www.w3.org/Graphics/SVG/1.1/DTD/svg11.dtd"><svg width="100%" height="100%" viewBox="0 0 5692 375" version="1.1" xmlns="http://www.w3.org/2000/svg" xmlns:xlink="http://www.w3.org/1999/xlink" xml:space="preserve" xmlns:serif="http://www.serif.com/" style="fill-rule:evenodd;clip-rule:evenodd;stroke-linejoin:round;stroke-miterlimit:2;"><g><clipPath id="_clip1"><rect x="303.494" y="58.724" width="249.891" height="295.573"/></clipPath><g clip-path="url(#_clip1)"><path d="M780.078,59.223c0,0 -728.125,-0.022 -728.233,-0.022c0.108,7.184 1.974,98.872 1.909,106.793c-0.152,21.897 -1.888,48.589 -2.994,70.486c-0.5,9.831 -8.312,93.229 -15.105,103.668c0.022,-0.022 125.868,15.863 249.067,7.508c2.908,-16.97 9.05,-34.288 11.502,-51.28c2.713,-19.466 6.272,-36.849 6.619,-56.489c0.564,-32.313 -1.129,-58.941 -1.15,-93.077c-0,-1.758 2.56,-1.91 2.756,-0.174c3.928,33.29 4.969,24.87 8.051,85.851c1.801,36.003 -2.843,77.127 -4.687,113.411c121.093,14.454 140.082,12.717 248.546,-3.19c-3.711,-36.154 -3.494,-69.357 -3.473,-105.512c0.109,-50.694 -2.278,-56.597 -0.564,-96.311c0.087,-1.801 1.215,-1.779 1.324,0.022c2.192,35.352 2.018,60.938 6.467,93.468c2.582,19.423 3.602,40.668 6.836,59.983c2.908,16.992 12.022,47.157 12.087,47.157c106.88,-0 112.566,4.492 219.445,4.492c-7.747,-17.122 -14.735,-125.326 -15.126,-134.787c-0.282,-6.294 -3.798,-131.663 -3.277,-151.997" style="fill:#c40000;fill-rule:nonzero;"/></g></g><g><clipPath id="_clip2"><rect x="303.494" y="34.158" width="249.891" height="11.328"/></clipPath><g clip-path="url(#_clip2)"><path d="M836.892,45.182l-841.948,0l-0,-9.722l841.948,0l0,9.722" style="fill:#d4983d;fill-rule:nonzero;"/></g></g><g><clipPath id="_clip3"><rect x="303.494" y="22.808" width="249.891" height="15.126"/></clipPath><g clip-path="url(#_clip3)"><path d="M836.892,37.326l-841.948,0l-0,-13.129l841.948,0l0,13.129" style="fill:#d4983d;fill-rule:nonzero;"/></g></g><g><clipPath id="_clip4"><rect x="303.494" y="16.97" width="24.284" height="52.474"/></clipPath><g clip-path="url(#_clip4)"><path d="M323.155,68.186l-42.838,-0l-0,-51.042l42.838,0l0,51.042" style="fill:#c40000;fill-rule:nonzero;"/></g></g><g><path d="M551.541,68.186l-42.839,-0l0,-51.042l42.839,0l-0,51.042" style="fill:#c40000;fill-rule:nonzero;"/></g><g><path d="M548.893,64.106l-37.695,-0l-0,-46.962l37.695,0l0,46.962" style="fill:#c40000;fill-rule:nonzero;"/></g><g><clipPath id="_clip5"><rect x="303.494" y="16.97" width="18.728" height="52.474"/></clipPath><g clip-path="url(#_clip5)"><path d="M320.486,64.106l-37.695,-0l-0,-46.962l37.695,0l0,46.962" style="fill:#c40000;fill-rule:nonzero;"/></g></g><g><clipPath id="_clip6"><rect x="547.266" y="58.724" width="249.87" height="295.573"/></clipPath><g clip-path="url(#_clip6)"><path d="M1023.85,59.223c-0,0 -728.125,-0.022 -728.234,-0.022c0.109,7.184 1.975,98.872 1.91,106.793c-0.152,21.897 -1.888,48.589 -3.016,70.486c-0.478,9.831 -8.29,93.229 -15.083,103.668c0.022,-0.022 125.846,15.863 249.067,7.508c2.908,-16.97 9.049,-34.288 11.502,-51.28c2.691,-19.466 6.271,-36.849 6.619,-56.489c0.564,-32.313 -1.129,-58.941 -1.151,-93.077c0,-1.758 2.539,-1.91 2.756,-0.174c3.928,33.29 4.97,24.87 8.052,85.851c1.801,36.003 -2.843,77.127 -4.709,113.411c121.115,14.454 140.104,12.717 248.567,-3.19c-3.711,-36.154 -3.494,-69.357 -3.472,-105.512c0.108,-50.694 -2.279,-56.597 -0.564,-96.311c0.065,-1.801 1.215,-1.779 1.324,0.022c2.191,35.352 2.018,60.938 6.467,93.468c2.56,19.423 3.602,40.668 6.835,59.983c2.908,16.992 12.023,47.157 12.088,47.157c106.88,-0 112.565,4.492 219.445,4.492c-7.748,-17.122 -14.736,-125.326 -15.126,-134.787c-0.282,-6.294 -3.798,-131.663 -3.277,-151.997" style="fill:#c40000;fill-rule:nonzero;"/></g></g><g><clipPath id="_clip7"><rect x="547.266" y="34.158" width="249.87" height="11.328"/></clipPath><g clip-path="url(#_clip7)"><path d="M1080.66,45.182l-841.949,0l0,-9.722l841.949,0l0,9.722" style="fill:#d4983d;fill-rule:nonzero;"/></g></g><g><clipPath id="_clip8"><rect x="547.266" y="22.808" width="249.87" height="15.126"/></clipPath><g clip-path="url(#_clip8)"><path d="M1080.66,37.326l-841.949,0l0,-13.129l841.949,0l0,13.129" style="fill:#d4983d;fill-rule:nonzero;"/></g></g><g><clipPath id="_clip9"><rect x="547.266" y="16.97" width="24.957" height="52.474"/></clipPath><g clip-path="url(#_clip9)"><path d="M566.905,68.186l-42.816,-0l-0,-51.042l42.816,0l0,51.042" style="fill:#c40000;fill-rule:nonzero;"/></g></g><g><path d="M795.313,68.186l-42.839,-0l-0,-51.042l42.839,0l-0,51.042" style="fill:#c40000;fill-rule:nonzero;"/></g><g><path d="M792.665,64.106l-37.695,-0l-0,-46.962l37.695,0l-0,46.962" style="fill:#c40000;fill-rule:nonzero;"/></g><g><clipPath id="_clip10"><rect x="547.266" y="16.97" width="19.401" height="52.474"/></clipPath><g clip-path="url(#_clip10)"><path d="M564.258,64.106l-37.696,-0l0,-46.962l37.696,0l-0,46.962" style="fill:#c40000;fill-rule:nonzero;"/></g></g><g><clipPath id="_clip11"><rect x="1281.01" y="58.724" width="246.766" height="295.573"/></clipPath><g clip-path="url(#_clip11)"><path d="M1507.79,59.223c-0,0 -728.147,-0.022 -728.255,-0.022c0.108,7.184 1.974,98.872 1.931,106.793c-0.174,21.897 -1.91,48.589 -3.016,70.486c-0.5,9.831 -8.312,93.229 -15.083,103.668c0,-0.022 125.846,15.863 249.045,7.508c2.908,-16.97 9.071,-34.288 11.502,-51.28c2.713,-19.466 6.272,-36.849 6.619,-56.489c0.564,-32.313 -1.129,-58.941 -1.15,-93.077c-0,-1.758 2.56,-1.91 2.756,-0.174c3.928,33.29 4.991,24.87 8.051,85.851c1.823,36.003 -2.843,77.127 -4.688,113.411c121.094,14.454 140.105,12.717 248.546,-3.19c-3.71,-36.154 -3.493,-69.357 -3.472,-105.512c0.13,-50.694 -2.278,-56.597 -0.564,-96.311c0.087,-1.801 1.215,-1.779 1.346,0.022c2.17,35.352 1.996,60.938 6.467,93.468c2.56,19.423 3.58,40.668 6.814,59.983c2.908,16.992 12.022,47.157 12.087,47.157c106.88,-0 112.566,4.492 219.445,4.492c-7.748,-17.122 -14.714,-125.326 -15.126,-134.787c-0.282,-6.294 -3.798,-131.663 -3.255,-151.997" style="fill:#c40000;fill-rule:nonzero;"/></g></g><g><clipPath id="_clip12"><rect x="1281.01" y="34.158" width="282.899" height="11.328"/></clipPath><g clip-path="url(#_clip12)"><path d="M1564.61,45.182l-841.949,0l0,-9.722l841.949,0l0,9.722" style="fill:#d4983d;fill-rule:nonzero;"/></g></g><g><clipPath id="_clip13"><rect x="1281.01" y="22.808" width="282.899" height="15.126"/></clipPath><g clip-path="url(#_clip13)"><path d="M1564.61,37.326l-841.949,0l0,-13.129l841.949,0l0,13.129" style="fill:#d4983d;fill-rule:nonzero;"/></g></g><g><path d="M1507.64,68.186l-42.839,-0l0,-51.042l42.839,0l-0,51.042" style="fill:#c40000;fill-rule:nonzero;"/></g><g><path d="M1505.01,64.106l-37.695,-0l-0,-46.962l37.695,0l0,46.962" style="fill:#c40000;fill-rule:nonzero;"/></g><g><clipPath id="_clip14"><rect x="39.692" y="58.724" width="268.49" height="295.573"/></clipPath><g clip-path="url(#_clip14)"><path d="M785.135,59.223c-0,0 -728.147,-0.022 -728.256,-0.022c0.109,7.184 1.997,98.872 1.932,106.793c-0.152,21.897 -1.91,48.589 -3.017,70.486c-0.499,9.831 -8.29,93.229 -15.082,103.668c-0,-0.022 125.846,15.863 249.067,7.508c2.886,-16.97 9.049,-34.288 11.501,-51.28c2.691,-19.466 6.25,-36.849 6.598,-56.489c0.586,-32.313 -1.107,-58.941 -1.129,-93.077c0,-1.758 2.539,-1.91 2.756,-0.174c3.928,33.29 4.97,24.87 8.051,85.851c1.802,36.003 -2.842,77.127 -4.709,113.411c121.116,14.454 140.104,12.717 248.546,-3.19c-3.689,-36.154 -3.494,-69.357 -3.45,-105.512c0.108,-50.694 -2.279,-56.597 -0.565,-96.311c0.066,-1.801 1.216,-1.779 1.324,0.022c2.17,35.352 2.018,60.938 6.467,93.468c2.561,19.423 3.581,40.668 6.836,59.983c2.886,16.992 12.001,47.157 12.088,47.157c106.879,-0 112.543,4.492 219.423,4.492c-7.726,-17.122 -14.714,-125.326 -15.126,-134.787c-0.261,-6.294 -3.798,-131.663 -3.255,-151.997" style="fill:#c40000;fill-rule:nonzero;"/></g></g><g><clipPath id="_clip15"><rect x="0" y="34.158" width="308.181" height="11.328"/></clipPath><g clip-path="url(#_clip15)"><path d="M841.949,45.182l-841.949,0l0,-9.722l841.949,0l-0,9.722" style="fill:#d4983d;fill-rule:nonzero;"/></g></g><g><clipPath id="_clip16"><rect x="0" y="22.808" width="308.181" height="15.126"/></clipPath><g clip-path="url(#_clip16)"><path d="M841.949,37.326l-841.949,0l0,-13.129l841.949,0l-0,13.129" style="fill:#d4983d;fill-rule:nonzero;"/></g></g><g><path d="M99.805,68.186l-42.839,-0l0,-51.042l42.839,0l-0,51.042" style="fill:#c40000;fill-rule:nonzero;"/></g><g><clipPath id="_clip17"><rect x="283.333" y="16.97" width="24.848" height="52.474"/></clipPath><g clip-path="url(#_clip17)"><path d="M328.19,68.186l-42.838,-0l-0,-51.042l42.838,0l0,51.042" style="fill:#c40000;fill-rule:nonzero;"/></g></g><g><path d="M97.135,64.106l-37.695,-0l0,-46.962l37.695,0l0,46.962" style="fill:#c40000;fill-rule:nonzero;"/></g><g><clipPath id="_clip18"><rect x="283.333" y="16.97" width="24.848" height="52.474"/></clipPath><g clip-path="url(#_clip18)"><path d="M325.543,64.106l-37.696,-0l0,-46.962l37.696,0l-0,46.962" style="fill:#c40000;fill-rule:nonzero;"/></g></g><g><clipPath id="_clip19"><rect x="791.037" y="58.724" width="249.87" height="295.573"/></clipPath><g clip-path="url(#_clip19)"><path d="M1267.62,59.223c-0,0 -728.147,-0.022 -728.234,-0.022c0.087,7.184 1.975,98.872 1.91,106.793c-0.152,21.897 -1.888,48.589 -3.017,70.486c-0.499,9.831 -8.29,93.229 -15.082,103.668c-0,-0.022 125.846,15.863 249.067,7.508c2.908,-16.97 9.049,-34.288 11.501,-51.28c2.691,-19.466 6.272,-36.849 6.619,-56.489c0.565,-32.313 -1.128,-58.941 -1.15,-93.077c0,-1.758 2.539,-1.91 2.756,-0.174c3.928,33.29 4.97,24.87 8.051,85.851c1.802,36.003 -2.842,77.127 -4.709,113.411c121.116,14.454 140.104,12.717 248.568,-3.19c-3.711,-36.154 -3.516,-69.357 -3.472,-105.512c0.108,-50.694 -2.279,-56.597 -0.565,-96.311c0.066,-1.801 1.216,-1.779 1.324,0.022c2.192,35.352 2.018,60.938 6.467,93.468c2.561,19.423 3.603,40.668 6.836,59.983c2.908,16.992 12.023,47.157 12.088,47.157c106.879,-0 112.565,4.492 219.444,4.492c-7.747,-17.122 -14.735,-125.326 -15.147,-134.787c-0.261,-6.294 -3.776,-131.663 -3.255,-151.997" style="fill:#c40000;fill-rule:nonzero;"/></g></g><g><clipPath id="_clip20"><rect x="791.037" y="34.158" width="249.87" height="11.328"/></clipPath><g clip-path="url(#_clip20)"><path d="M1324.44,45.182l-841.949,0l-0,-9.722l841.949,0l-0,9.722" style="fill:#d4983d;fill-rule:nonzero;"/></g></g><g><clipPath id="_clip21"><rect x="791.037" y="22.808" width="249.87" height="15.126"/></clipPath><g clip-path="url(#_clip21)"><path d="M1324.44,37.326l-841.949,0l-0,-13.129l841.949,0l-0,13.129" style="fill:#d4983d;fill-rule:nonzero;"/></g></g><g><clipPath id="_clip22"><rect x="791.037" y="16.97" width="20.074" height="52.474"/></clipPath><g clip-path="url(#_clip22)"><path d="M810.677,68.186l-42.838,-0l-0,-51.042l42.838,0l0,51.042" style="fill:#c40000;fill-rule:nonzero;"/></g></g><g><path d="M1039.08,68.186l-42.838,-0l-0,-51.042l42.838,0l0,51.042" style="fill:#c40000;fill-rule:nonzero;"/></g><g><path d="M1036.44,64.106l-37.696,-0l0,-46.962l37.696,0l-0,46.962" style="fill:#c40000;fill-rule:nonzero;"/></g><g><clipPath id="_clip23"><rect x="791.037" y="16.97" width="20.074" height="52.474"/></clipPath><g clip-path="url(#_clip23)"><path d="M808.03,64.106l-37.696,-0l0,-46.962l37.696,0l-0,46.962" style="fill:#c40000;fill-rule:nonzero;"/></g></g><g><clipPath id="_clip24"><rect x="1034.74" y="58.724" width="249.87" height="295.573"/></clipPath><g clip-path="url(#_clip24)"><path d="M1511.33,59.223c0,0 -728.147,-0.022 -728.233,-0.022c0.086,7.184 1.974,98.872 1.909,106.793c-0.152,21.897 -1.888,48.589 -3.016,70.486c-0.499,9.831 -8.29,93.229 -15.083,103.668c0,-0.022 125.847,15.863 249.067,7.508c2.908,-16.97 9.05,-34.288 11.502,-51.28c2.691,-19.466 6.272,-36.849 6.619,-56.489c0.564,-32.313 -1.129,-58.941 -1.15,-93.077c-0,-1.758 2.539,-1.91 2.756,-0.174c3.928,33.29 4.969,24.87 8.051,85.851c1.801,36.003 -2.843,77.127 -4.709,113.411c121.115,14.454 140.104,12.717 248.568,-3.19c-3.711,-36.154 -3.516,-69.357 -3.473,-105.512c0.109,-50.694 -2.278,-56.597 -0.564,-96.311c0.065,-1.801 1.215,-1.779 1.324,0.022c2.192,35.352 2.018,60.938 6.467,93.468c2.561,19.423 3.602,40.668 6.836,59.983c2.908,16.992 12.022,47.157 12.087,47.157c106.88,-0 112.566,4.492 219.445,4.492c-7.747,-17.122 -14.735,-125.326 -15.126,-134.787c-0.282,-6.294 -3.798,-131.663 -3.277,-151.997" style="fill:#c40000;fill-rule:nonzero;"/></g></g><g><clipPath id="_clip25"><rect x="1034.74" y="34.158" width="249.87" height="11.328"/></clipPath><g clip-path="url(#_clip25)"><path d="M1568.14,45.182l-841.948,0l-0,-9.722l841.948,0l0,9.722" style="fill:#d4983d;fill-rule:nonzero;"/></g></g><g><clipPath id="_clip26"><rect x="1034.74" y="22.808" width="249.87" height="15.126"/></clipPath><g clip-path="url(#_clip26)"><path d="M1568.14,37.326l-841.948,0l-0,-13.129l841.948,0l0,13.129" style="fill:#d4983d;fill-rule:nonzero;"/></g></g><g><clipPath id="_clip27"><rect x="1034.74" y="16.97" width="20.812" height="52.474"/></clipPath><g clip-path="url(#_clip27)"><path d="M1054.38,68.186l-42.839,-0l0,-51.042l42.839,0l-0,51.042" style="fill:#c40000;fill-rule:nonzero;"/></g></g><g><path d="M1282.79,68.186l-42.839,-0l0,-51.042l42.839,0l-0,51.042" style="fill:#c40000;fill-rule:nonzero;"/><path d="M1280.14,64.106l-37.695,-0l-0,-46.962l37.695,0l0,46.962" style="fill:#c40000;fill-rule:nonzero;"/></g><g><clipPath id="_clip28"><rect x="1034.74" y="16.97" width="20.812" height="52.474"/></clipPath><g clip-path="url(#_clip28)"><path d="M1051.74,64.106l-37.695,-0l-0,-46.962l37.695,0l0,46.962" style="fill:#c40000;fill-rule:nonzero;"/></g></g><g><clipPath id="_clip29"><rect x="95.768" y="16.97" width="20.812" height="66.623"/></clipPath><g clip-path="url(#_clip29)"><rect x="97.244" y="-133.767" width="217.773" height="217.773" style="fill:#c40000;fill-rule:nonzero;"/><path d="M315.017,85.482l-217.773,-0c-0.825,-0 -1.476,-0.651 -1.476,-1.476l0,-217.773c0,-0.825 0.651,-1.476 1.476,-1.476l217.773,-0c0.825,-0 1.476,0.651 1.476,1.476l0,217.773c0,0.825 -0.651,1.476 -1.476,1.476Zm-216.319,-2.952l214.844,0l-0,-214.843l-214.844,-0l-0,214.843Z" style="fill:#c40000;fill-rule:nonzero;"/></g></g><g><clipPath id="_clip30"><rect x="318.012" y="16.97" width="20.812" height="66.623"/></clipPath><g clip-path="url(#_clip30)"><rect x="319.466" y="-133.767" width="217.795" height="217.773" style="fill:#c40000;fill-rule:nonzero;"/><path d="M537.261,85.482l-217.795,-0c-0.825,-0 -1.454,-0.651 -1.454,-1.476l0,-217.773c0,-0.825 0.629,-1.476 1.454,-1.476l217.795,-0c0.825,-0 1.476,0.651 1.476,1.476l-0,217.773c-0,0.825 -0.651,1.476 -1.476,1.476Zm-216.319,-2.952l214.844,0l-0,-214.843l-214.844,-0l-0,214.843Z" style="fill:#c40000;fill-rule:nonzero;"/></g></g><g><clipPath id="_clip31"><rect x="1277.78" y="16.97" width="20.421" height="66.623"/></clipPath><g clip-path="url(#_clip31)"><rect x="1278.84" y="-133.767" width="217.795" height="217.773" style="fill:#c40000;fill-rule:nonzero;"/></g></g><g><clipPath id="_clip32"><rect x="1277.37" y="16.97" width="20.833" height="66.623"/></clipPath><g clip-path="url(#_clip32)"><path d="M1496.64,85.482l-217.795,-0c-0.825,-0 -1.476,-0.651 -1.476,-1.476l0,-217.773c0,-0.825 0.651,-1.476 1.476,-1.476l217.795,-0c0.825,-0 1.454,0.651 1.454,1.476l0,217.773c0,0.825 -0.629,1.476 -1.454,1.476Zm-216.319,-2.952l214.844,0l-0,-214.843l-214.844,-0l-0,214.843Z" style="fill:#c40000;fill-rule:nonzero;"/></g></g><g><clipPath id="_clip33"><rect x="1446.33" y="16.97" width="20.833" height="66.623"/></clipPath><g clip-path="url(#_clip33)"><rect x="1447.81" y="-133.767" width="217.795" height="217.773" style="fill:#c40000;fill-rule:nonzero;"/><path d="M1665.6,85.482l-217.795,-0c-0.824,-0 -1.476,-0.651 -1.476,-1.476l0,-217.773c0,-0.825 0.652,-1.476 1.476,-1.476l217.795,-0c0.825,-0 1.476,0.651 1.476,1.476l-0,217.773c-0,0.825 -0.651,1.476 -1.476,1.476Zm-216.319,-2.952l214.844,0l-0,-214.843l-214.844,-0l-0,214.843Z" style="fill:#c40000;fill-rule:nonzero;"/></g></g><g><path d="M272.331,158.594c-0,-0.022 -0.022,-0.044 -0.044,-0.065c-1.193,-2.322 -2.908,-4.167 -5.165,-5.534c-2.235,-1.346 -4.665,-2.018 -7.291,-2.018l-59.744,-0l-0,-4.688l65.191,0l-5.035,-6.207c-4.861,-5.967 -10.308,-11.349 -16.384,-16.102c-6.055,-4.774 -12.566,-8.811 -19.532,-12.109c-6.966,-3.321 -14.192,-5.816 -21.723,-7.509c-7.53,-1.671 -15.126,-2.517 -22.851,-2.496c-57.249,0 -103.82,46.571 -103.82,103.82c0,9.266 1.215,18.403 3.646,27.344c0.26,1.019 0.868,1.779 1.78,2.3c0.911,0.521 1.866,0.651 2.886,0.369c0.998,-0.282 1.779,-0.868 2.278,-1.78c0.521,-0.911 0.651,-1.866 0.369,-2.886c-2.257,-8.29 -3.385,-16.753 -3.385,-25.347c-0,-53.082 43.186,-96.246 96.246,-96.246c11.979,-0.022 23.546,2.127 34.722,6.445c11.154,4.319 21.18,10.504 30.013,18.577c1.519,1.345 -110.048,8.572 -110.048,8.572l0,3.255l24.631,0l0,4.688l-24.631,-0l0,3.255c0,-0 10.07,-0.13 24.631,0.043l0,19.879c0,30.425 -24.761,55.165 -55.186,55.165c-0.76,-0.022 -1.411,0.238 -1.954,0.781c-0.564,0.521 -0.824,1.172 -0.824,1.931c-0,0.76 0.26,1.411 0.824,1.953c0.543,0.521 1.194,0.782 1.954,0.76c8.116,-0 15.928,-1.563 23.415,-4.709c-0.911,0.846 -1.15,1.823 -0.694,2.973c0.434,1.15 1.28,1.736 2.517,1.736c22.765,-0 41.298,-27.192 41.298,-60.59l0,-19.684l0.499,0.022l0,19.662c0,31.575 -8.746,55.165 -16.58,55.165c-0.738,0.021 -1.345,0.303 -1.866,0.824c-0.521,0.521 -0.76,1.15 -0.76,1.888c0,0.738 0.239,1.367 0.76,1.888c0.521,0.521 1.128,0.803 1.866,0.825c14.301,-0 22.005,-31.228 22.005,-60.59l0,-19.532l0.521,0l0,77.409c0,0.76 0.261,1.389 0.782,1.91c0.542,0.543 1.171,0.803 1.931,0.803c0.738,-0 1.367,-0.26 1.91,-0.803c0.521,-0.521 0.781,-1.15 0.781,-1.91l-0,-77.235l0.521,0l-0,19.358c-0,29.362 7.704,60.59 22.005,60.59c0.738,-0.022 1.345,-0.304 1.866,-0.825c0.521,-0.521 0.76,-1.15 0.76,-1.888c-0,-0.738 -0.239,-1.367 -0.76,-1.888c-0.521,-0.521 -1.128,-0.803 -1.866,-0.824c-7.834,-0 -16.58,-23.59 -16.58,-55.165l0,-19.163l0.499,0.022l0,19.141c0,33.398 18.533,60.59 41.298,60.59c1.237,0.022 2.083,-0.564 2.539,-1.714c0.456,-1.172 0.217,-2.149 -0.694,-2.995c7.487,3.146 15.277,4.709 23.394,4.709c0.759,0.022 1.41,-0.239 1.953,-0.781c0.564,-0.521 0.825,-1.172 0.825,-1.932c-0,-0.759 -0.261,-1.41 -0.825,-1.953c-0.543,-0.521 -1.194,-0.781 -1.953,-0.759c-30.426,-0 -55.187,-24.74 -55.187,-55.165l0,-18.642c26.085,1.346 52.083,4.015 61.415,9.223c12.782,7.162 14.54,26.15 14.54,40.951c-0,4.904 -0.369,9.787 -1.107,14.648c-0.738,4.861 -1.844,9.614 -3.32,14.301c-1.476,4.688 -3.277,9.245 -5.447,13.651c-2.17,4.405 -4.666,8.615 -7.487,12.63c-2.821,4.036 -5.925,7.812 -9.31,11.35c-3.407,3.559 -7.053,6.814 -10.938,9.809c-3.906,2.994 -8.007,5.664 -12.304,8.029c-4.319,2.344 -8.768,4.362 -13.39,6.033l-0.043,0c-1.65,0.608 -2.995,1.649 -4.015,3.103c-1.02,1.454 -1.541,3.06 -1.541,4.84l0,2.018c0,0.89 -0.304,1.649 -0.955,2.3c-0.629,0.63 -1.389,0.934 -2.3,0.934l-48.199,-0c-0.911,-0 -1.671,-0.304 -2.3,-0.934c-0.651,-0.651 -0.955,-1.41 -0.955,-2.3l-0,-2.018c-0,-1.78 -0.521,-3.386 -1.541,-4.84c-1.02,-1.454 -2.365,-2.474 -4.015,-3.081l-0.065,-0.022c-11.285,-4.08 -21.441,-10.091 -30.469,-17.99c-9.027,-7.9 -16.297,-17.166 -21.853,-27.821c-1.128,-2.149 0.478,-4.731 2.908,-4.731l162.565,-0c0.564,-0 1.107,-0.131 1.628,-0.369c0.521,-0.239 0.955,-0.586 1.324,-1.042c0.347,-0.434 0.607,-0.955 0.737,-1.497c0.131,-0.565 0.131,-1.129 0.022,-1.671c-0.369,-1.78 -2.018,-3.017 -3.819,-3.017l-163.737,0c-7.487,0 -12.348,7.878 -8.985,14.583l0.044,0.087c5.816,11.502 13.498,21.571 23.09,30.209c9.592,8.637 20.399,15.234 32.465,19.835c1.389,0.521 2.105,1.519 2.105,3.016l0,1.432c0,1.303 0.261,2.54 0.738,3.733c0.499,1.194 1.215,2.257 2.127,3.168c0.911,0.912 1.953,1.628 3.168,2.127c1.194,0.478 2.431,0.738 3.733,0.738l50.369,0c1.302,0 2.539,-0.26 3.733,-0.738c1.193,-0.499 2.257,-1.215 3.168,-2.127c0.911,-0.911 1.606,-1.974 2.105,-3.168c0.499,-1.193 0.738,-2.43 0.738,-3.711l-0,-1.454c0.022,-1.497 0.716,-2.495 2.127,-3.038c3.385,-1.28 6.705,-2.756 9.939,-4.405c3.233,-1.65 6.38,-3.451 9.418,-5.426c3.06,-1.975 5.99,-4.101 8.811,-6.38c2.821,-2.279 5.534,-4.709 8.095,-7.27c2.56,-2.561 4.991,-5.252 7.291,-8.073c2.279,-2.821 4.406,-5.751 6.402,-8.789c1.975,-3.038 3.798,-6.185 5.447,-9.418c1.65,-3.234 3.125,-6.532 4.427,-9.918c1.302,-3.407 2.431,-6.836 3.364,-10.351c0.955,-3.494 1.714,-7.053 2.279,-10.634c0.586,-3.581 0.955,-7.183 1.15,-10.807c0.195,-3.625 0.195,-7.249 0.022,-10.873c-0.196,-3.624 -0.565,-7.248 -1.129,-10.829c-0.564,-3.581 -1.324,-7.118 -2.257,-10.633c-0.933,-3.516 -2.04,-6.967 -3.342,-10.352c-1.302,-3.385 -2.778,-6.706 -4.405,-9.939Zm-77.67,-7.617l-0.52,-0l-0,-4.688l0.52,0l0,4.688Zm-30.164,-4.688l0.499,0l-0,4.688l-0.499,-0l-0,-4.688Zm0.499,27.865c-0,30.425 -16.081,55.165 -35.873,55.165c-0.065,-0 -0.152,-0 -0.217,0.021c20.964,-9.548 35.591,-30.707 35.591,-55.186l-0,-19.792l0.499,-0l-0,19.792Zm5.425,-23.177l0,-4.688l0.521,0l-0,4.688l-0.521,-0Zm5.924,-0l0,-4.688l0.521,0l0,4.688l-0.521,-0Zm5.947,-0l-0,-4.688l0.499,0l-0,4.688l-0.499,-0Zm5.924,-0l0,-4.688l0.521,0l-0,4.688l-0.521,-0Zm42.036,78.363c-0.087,0 -0.152,-0.021 -0.217,-0.021c-19.792,-0 -35.894,-24.74 -35.894,-55.165l-0,-18.924l0.52,0.022l0,18.902c0,24.479 14.605,45.638 35.591,55.186Z" style="fill-rule:nonzero;"/></g><g><clipPath id="_clip34"><rect x="1507.94" y="23.828" width="4180.95" height="22.461"/></clipPath><g clip-path="url(#_clip34)"><rect x="1507.94" y="23.828" width="4424.07" height="22.461" style="fill:#d4983d;fill-rule:nonzero;"/></g></g><g><g><g><path d="M374.459,145.37c-2.148,-1.042 -3.993,-2.301 -5.555,-3.82c-1.519,-1.497 -2.257,-3.32 -2.257,-5.468c-0,-3.06 1.389,-5.491 4.166,-7.292c2.822,-1.845 5.665,-2.778 8.507,-2.778c3.125,0 6.424,0.673 9.896,1.997c3.516,1.345 6.728,3.125 9.636,5.382c2.886,2.213 5.056,4.73 6.51,7.552c1.736,2.951 2.8,6.076 3.212,9.375c0.391,3.298 0.608,6.64 0.608,9.982c-0,0.521 0.043,1.172 0.173,1.91c0.174,0.76 0.651,1.128 1.476,1.128c0.694,0 1.562,-0.13 2.604,-0.434c5.078,-1.041 10.069,-2.018 14.931,-2.951c4.861,-0.977 9.765,-1.736 14.756,-2.257c1.606,-0.282 2.865,-0.564 3.733,-0.868c0.868,-0.347 1.302,-0.998 1.302,-1.996l0,-7.813c0,-0.803 0.044,-1.693 0.174,-2.691l-0,-1.389c-0,-0.911 -0.391,-1.844 -1.129,-2.778c-0.694,-0.976 -1.389,-1.736 -2.083,-2.257c-1.628,-1.605 -2.431,-3.841 -2.431,-6.684c0,-3.059 1.303,-5.577 3.907,-7.552c2.647,-1.953 5.468,-2.951 8.42,-2.951c4.687,-0 9.158,1.562 13.455,4.687c4.34,3.082 7.986,6.923 10.937,11.546c2.995,4.579 4.709,9.071 5.122,13.454c0.217,2.431 0.455,4.232 0.694,5.382c0.282,1.172 0.89,1.997 1.823,2.518c0.977,0.521 2.691,1.128 5.122,1.823c3.472,0.824 7.291,2.409 11.458,4.774c4.167,2.322 7.335,4.904 9.549,7.726c1.844,2.43 3.168,5.078 3.993,7.899c0.803,2.778 1.215,5.729 1.215,8.854c-0,2.952 -0.673,5.599 -1.997,7.899c-3.645,5.903 -8.897,8.855 -15.711,8.855c-1.91,-0 -3.69,-0.044 -5.296,-0.174c-1.627,-0.174 -3.363,-0.456 -5.208,-0.868c-0.586,-0.109 -1.107,-0.195 -1.562,-0.26c-0.478,-0.044 -0.847,-0.087 -1.129,-0.087c0.174,0.933 0.261,1.801 0.261,2.604l-0,2.604c-0,8.507 -0.586,16.819 -1.737,24.913c-1.171,8.051 -3.385,15.669 -6.684,22.83c-3.298,7.183 -8.116,13.867 -14.409,20.052c-5.274,5.165 -11.155,9.223 -17.622,12.24c-6.423,2.995 -13.346,4.514 -20.746,4.514c-5.1,-0 -10.113,-0.651 -15.018,-1.91c-4.926,-1.28 -9.722,-3.19 -14.409,-5.729c-1.346,-0.825 -3.082,-1.801 -5.209,-2.952c-2.083,-1.15 -4.058,-2.257 -5.903,-3.298l-4.253,-2.431c-1.628,-1.085 -2.865,-1.996 -3.733,-2.691c-0.868,-0.738 -1.302,-1.584 -1.302,-2.517c0,-1.085 0.651,-1.866 1.997,-2.344c1.324,-0.456 3.949,-0.976 7.899,-1.562c6.424,-1.042 12.869,-2.995 19.358,-5.903c6.467,-2.886 12.456,-6.511 17.968,-10.851c5.491,-4.384 10.07,-9.288 13.716,-14.67c3.342,-4.97 5.859,-10.438 7.552,-16.406c1.671,-6.012 2.517,-12.066 2.517,-18.143c0,-0.803 -0.26,-1.475 -0.781,-1.996c-6.207,0.239 -12.37,0.694 -18.49,1.389c-6.076,0.694 -12.152,1.779 -18.229,3.212c-1.627,0.586 -2.43,1.736 -2.43,3.472c-0,3.364 0.108,6.814 0.347,10.33c0.282,3.472 0.434,6.944 0.434,10.416c-0,2.431 -0.261,4.579 -0.781,6.424c-0.521,1.801 -1.606,3.624 -3.212,5.469c-3.364,4.058 -7.813,6.076 -13.368,6.076c-3.993,0 -7.791,-1.085 -11.372,-3.299c-3.602,-2.256 -6.25,-5.251 -7.986,-9.027c-0.933,-1.845 -1.541,-3.863 -1.823,-6.077c-0.238,-2.257 -0.347,-4.448 -0.347,-6.597c-0,-1.215 -0.065,-3.038 -0.174,-5.469c-0.065,-2.43 -0.238,-3.754 -0.52,-3.993c-0.239,-0.282 -1.107,-0.477 -2.605,-0.607c-1.454,-0.174 -2.994,-0.304 -4.6,-0.434c-1.628,-0.109 -2.778,-0.261 -3.473,-0.434c-2.951,-0.63 -5.989,-1.845 -9.114,-3.646c-3.082,-1.845 -5.642,-4.124 -7.726,-6.858c-2.083,-2.778 -3.125,-5.838 -3.125,-9.201c0,-4.861 2.214,-7.292 6.684,-7.292l2.778,0c0.282,0 1.345,-0.26 3.212,-0.781c1.91,-0.564 4.08,-1.259 6.51,-2.084l6.684,-2.17c2.018,-0.694 3.299,-1.085 3.82,-1.215c1.085,-0.391 1.909,-0.868 2.43,-1.389c0.521,-0.564 0.868,-1.476 1.042,-2.691c0.347,-4.383 0.781,-8.811 1.302,-13.281c0.564,-4.449 1.324,-8.811 2.257,-13.108l-0,-1.041c-0,-0.695 -0.217,-1.302 -0.608,-1.823Z" style="fill-rule:nonzero;"/></g></g></g><g><g><g><path d="M665.103,229.137c0,-0.694 -0.086,-1.476 -0.26,-2.344c-0.13,-0.868 -0.694,-1.302 -1.736,-1.302c-0.998,0 -2.083,0.608 -3.299,1.823c-1.866,1.91 -4.774,4.123 -8.767,6.597c-3.95,2.496 -7.422,4.341 -10.417,5.556c-5.62,2.387 -11.458,3.559 -17.535,3.559c-4.296,-0 -7.812,-0.781 -10.59,-2.344c-2.778,-1.606 -5.772,-3.776 -8.941,-6.51c-2.843,-2.431 -5.013,-4.731 -6.51,-6.945c-1.454,-2.191 -3.19,-5.316 -5.209,-9.375c-1.909,-3.754 -2.864,-6.033 -2.864,-6.857c-0,-1.216 0.608,-2.04 1.823,-2.518c1.215,-0.455 3.494,-0.781 6.857,-0.954c2.019,-0.109 4.362,-0.782 7.032,-1.997c2.712,-1.215 5.425,-2.561 8.159,-4.08c2.778,-1.562 5.252,-3.038 7.466,-4.427c8.159,-5.078 16.146,-10.373 23.958,-15.885c7.813,-5.556 15.625,-11.133 23.438,-16.754c5.664,-4.036 11.111,-8.008 16.319,-11.892c5.252,-3.928 10.59,-7.834 15.972,-11.719c0.521,-0.391 1.042,-0.825 1.563,-1.302c0.564,-0.521 0.998,-0.825 1.302,-0.955c0.629,-0.391 1.15,-0.825 1.562,-1.302c0.391,-0.456 0.608,-1.085 0.608,-1.91c-0,-0.282 -0.043,-0.542 -0.087,-0.781c-0.065,-0.282 -0.087,-0.564 -0.087,-0.868c0,-3.863 1.389,-6.988 4.167,-9.375c2.821,-2.365 6.163,-3.559 9.983,-3.559c4.383,-0 8.073,1.172 11.024,3.472c2.995,2.322 5.23,5.295 6.684,8.941c1.497,3.603 2.257,7.422 2.257,11.458c-0,5.795 -1.259,10.721 -3.733,14.757c-2.495,3.993 -5.707,8.03 -9.635,12.066c-1.454,1.628 -3.559,3.798 -6.337,6.511c-2.778,2.669 -5.556,5.252 -8.333,7.726c-2.735,2.495 -5.013,4.405 -6.858,5.729c-0.586,0.412 -1.476,1.128 -2.691,2.17c-1.215,0.998 -1.823,1.736 -1.823,2.257c0,0.412 1.302,2.691 3.906,6.857c0.912,1.389 1.737,3.559 2.431,6.511c0.738,2.951 1.345,6.033 1.823,9.201c0.521,3.125 0.781,5.708 0.781,7.726c0,2.43 -0.13,5.707 -0.347,9.809c-0.174,4.123 -0.26,7.899 -0.26,11.371c-0,3.538 0.13,7.075 0.434,10.591c0.347,3.472 0.52,6.944 0.52,10.416c0,4.862 -0.781,9.462 -2.343,13.802c-1.519,4.276 -3.993,7.748 -7.466,10.417c-3.428,2.713 -7.877,4.08 -13.368,4.08c-3.646,0 -7.335,-0.825 -11.024,-2.431c-3.711,-1.627 -6.38,-4.21 -7.986,-7.725c-1.042,-2.257 -1.953,-4.601 -2.691,-7.031c-0.76,-2.431 -1.129,-4.905 -1.129,-7.466c0,-7.118 0.369,-14.236 1.129,-21.354c0.738,-7.161 1.128,-14.323 1.128,-21.441Z" style="fill-rule:nonzero;"/></g></g></g><g><g><g><path d="M921.806,208.911c0,0.586 0.022,1.194 0.087,1.823c0.044,0.586 0.13,1.194 0.261,1.823c0.39,2.04 0.651,5.187 0.781,9.462c0.174,4.232 0.26,8.811 0.26,13.715c0,4.861 -0.043,9.527 -0.086,13.976c-0.066,4.47 -0.087,7.964 -0.087,10.503l-0,4.254c-0,3.472 -0.174,7.031 -0.521,10.677c-0.347,3.646 -1.389,7.01 -3.125,10.069c-4.058,6.988 -10.048,10.504 -17.969,10.504c-5.555,-0 -9.961,-1.215 -13.194,-3.646c-3.19,-2.387 -5.599,-5.512 -7.205,-9.375c-1.628,-3.928 -2.735,-8.181 -3.299,-12.76c-0.521,-4.558 -0.781,-8.941 -0.781,-13.108c-0,-7.812 0.087,-15.538 0.26,-23.177c0.217,-7.682 0.434,-15.386 0.608,-23.09c0.109,-6.294 0.369,-12.609 0.781,-18.924c0.391,-6.358 0.738,-12.63 1.042,-18.837c0.217,-4.166 0.434,-8.29 0.608,-12.413c0.217,-4.101 0.347,-8.246 0.347,-12.413c-0,-1.606 -0.738,-2.734 -2.17,-3.386c-2.149,-1.085 -4.037,-2.343 -5.643,-3.732c-1.627,-1.432 -2.43,-3.234 -2.43,-5.382c-0,-4.275 1.649,-7.509 4.948,-9.722c3.298,-2.257 6.814,-3.386 10.59,-3.386c5.208,0 10.069,1.389 14.583,4.167c4.514,2.734 8.42,6.25 11.719,10.59c3.299,4.297 5.556,8.854 6.771,13.715c0.391,1.346 0.694,2.843 0.868,4.514c0.217,1.693 0.391,3.386 0.521,5.122c0.282,2.43 0.455,4.601 0.521,6.51c0.043,1.867 0.369,3.19 0.954,3.993c0.217,0.304 0.955,0.565 2.171,0.782c1.215,0.173 2.777,0.412 4.687,0.694c2.257,0.239 4.948,0.738 8.073,1.476c3.168,0.759 6.467,1.866 9.896,3.298c4.384,1.802 9.158,3.993 14.323,6.598c5.208,2.604 10.113,5.707 14.757,9.288c4.687,3.602 8.507,7.682 11.458,12.239c2.951,4.579 4.427,9.614 4.427,15.105c0,5.685 -1.649,10.655 -4.948,14.93c-3.298,4.297 -7.986,6.424 -14.062,6.424c-4.992,-0 -9.267,-1.433 -12.848,-4.341c-3.537,-2.886 -7.443,-6.532 -11.718,-10.937c-3.255,-3.516 -6.641,-6.771 -10.157,-9.722c-3.472,-2.952 -7.248,-5.686 -11.284,-8.247c-1.628,-1.085 -2.821,-1.649 -3.559,-1.649c-0.413,-0 -0.738,0.26 -0.955,0.781c-0.174,0.478 -0.261,0.868 -0.261,1.215Z" style="fill-rule:nonzero;"/></g></g></g><g><g><g><path d="M1430.6,146.278c8.203,4.297 16.276,8.811 24.219,13.542c7.921,4.688 15.321,10.2 22.222,16.493c3.646,3.125 7.053,6.489 10.243,10.07c3.233,3.537 5.903,7.378 7.986,11.545c2.083,4.166 3.125,8.832 3.125,13.975c-0,2.952 -0.586,5.86 -1.736,8.681c-1.107,2.778 -2.561,5.338 -4.34,7.639c-2.561,3.081 -5.968,4.601 -10.244,4.601c-1.345,-0 -2.495,-0.131 -3.472,-0.435c-0.933,-0.347 -1.953,-0.802 -3.038,-1.388c-0.933,-0.63 -1.866,-1.324 -2.778,-2.084c-0.933,-0.738 -1.953,-1.389 -3.038,-1.909l0.174,3.385l-0.174,32.726l0.174,7.899l-0,22.569c-0.13,7.401 -2.257,13.043 -6.424,16.927c-4.167,3.928 -9.896,5.903 -17.187,5.903c-6.033,0 -12.066,-0.781 -18.143,-2.343c-6.076,-1.563 -11.87,-3.625 -17.361,-6.164c-6.423,-3.081 -12.717,-6.467 -18.837,-10.156c-6.141,-3.689 -12.109,-7.574 -17.882,-11.632c-0.694,3.364 -1.54,6.749 -2.517,10.156c-0.998,3.342 -2.648,6.359 -4.948,9.028c-2.734,3.234 -5.621,5.816 -8.68,7.726c-3.082,1.953 -6.836,2.951 -11.285,2.951c-5.556,0 -10.156,-1.041 -13.802,-3.125c-3.603,-2.083 -6.576,-4.991 -8.941,-8.68c-2.322,-3.711 -4.427,-7.9 -6.337,-12.587c1.324,-0.391 2.648,-0.825 3.993,-1.302c1.389,-0.456 2.539,-1.237 3.472,-2.344c2.539,-2.951 4.818,-6.293 6.858,-10.069c1.736,-3.342 3.429,-7.335 5.121,-11.98c1.671,-4.687 2.605,-8.897 2.778,-12.673l0.608,-18.75l-0,-2.431c-2.561,0.13 -5.208,-0.13 -7.986,-0.781c-2.778,-0.694 -5.382,-1.497 -7.813,-2.431c-2.561,-1.085 -5.1,-2.625 -7.639,-4.6c-2.56,-2.018 -4.731,-4.362 -6.51,-7.031c-1.736,-2.713 -2.604,-5.556 -2.604,-8.507c-0,-2.995 0.781,-4.992 2.344,-5.99c1.562,-1.042 3.949,-2.018 7.204,-2.951c0.803,-0.283 1.563,-0.651 2.257,-1.129c0.738,-0.456 1.476,-0.955 2.17,-1.476c4.688,-4.34 9.397,-8.593 14.15,-12.76c4.796,-4.167 9.57,-8.333 14.323,-12.5c4.275,-3.863 8.68,-7.682 13.194,-11.458c4.514,-3.755 9.202,-7.249 14.063,-10.504c-1.389,-1.085 -2.756,-2.365 -4.08,-3.819c-1.346,-1.498 -1.997,-3.255 -1.997,-5.295c0,-2.822 1.042,-5.23 3.125,-7.205c2.084,-2.018 4.688,-3.668 7.813,-4.948c3.168,-1.324 6.337,-2.257 9.462,-2.778c3.168,-0.521 5.859,-0.781 8.072,-0.781c4.167,-0 8.594,0.759 13.282,2.257c4.687,1.454 8.724,3.732 12.152,6.857c3.473,3.082 5.209,7.097 5.209,12.066Zm-64.149,71.441c0.629,0.825 1.388,1.541 2.256,2.17c0.912,0.586 1.758,1.194 2.518,1.823c1.606,1.389 3.081,3.907 4.427,7.552c1.389,3.603 2.083,6.554 2.083,8.855c0,2.843 -0.152,5.707 -0.434,8.593c-0.239,2.908 -0.499,5.73 -0.781,8.507l-1.042,17.188l0,1.823c0,0.694 -0.065,1.367 -0.173,1.996c3.233,0.586 6.445,1.107 9.635,1.563c3.234,0.477 6.467,0.824 9.722,1.041c2.821,0.174 5.686,0.413 8.594,0.695c2.886,0.239 5.816,0.347 8.767,0.347c0.912,0 2.301,-0.022 4.167,-0.087c1.91,-0.043 3.733,-0.26 5.469,-0.607c1.779,-0.348 2.951,-0.825 3.472,-1.476c0.694,-0.694 1.129,-1.476 1.302,-2.344c0.217,-0.868 0.347,-1.779 0.347,-2.778l0,-2.17l0.174,-42.795c-0.13,-2.539 -0.152,-5.056 -0.087,-7.552c0.044,-2.474 0.022,-4.991 -0.087,-7.552c-1.909,-1.497 -3.645,-3.342 -5.208,-5.556c-1.519,-2.256 -2.257,-4.644 -2.257,-7.204c0,-2.952 0.868,-5.209 2.604,-6.771c1.736,-1.563 3.95,-2.387 6.684,-2.518l-4.427,-3.993c-1.519,-1.389 -3.081,-2.691 -4.687,-3.906c-1.736,-1.432 -3.429,-2.799 -5.035,-4.08c-1.628,-1.258 -3.255,-2.604 -4.861,-3.993c-0.521,0.413 -1.02,0.868 -1.476,1.389c-0.477,0.478 -0.998,0.912 -1.562,1.302c-2.952,2.431 -5.816,4.905 -8.594,7.379c-2.734,2.495 -5.447,5.078 -8.16,7.725c-2.561,2.561 -4.991,5.209 -7.291,7.986c-2.257,2.778 -4.514,5.513 -6.771,8.16l-3.038,3.038c-1.107,1.107 -2.127,2.04 -3.039,2.778c-0.521,0.586 -1.128,1.129 -1.823,1.649c-0.694,0.521 -1.171,1.129 -1.388,1.823Z" style="fill-rule:nonzero;"/></g></g></g><g><g><clipPath id="_clip35"><path d="M551.194,280.23l5.013,0.13l-1.758,68.512l-5.035,-0.131l1.78,-68.511Z"/></clipPath><g clip-path="url(#_clip35)"><g><clipPath id="_clip36"><path d="M556.098,281.445c-1.671,51.628 -2.387,64.866 -3.884,66.624c-0.391,0.716 -1.65,-0.391 -1.65,-0.391l1.823,0.391c-0.173,-0 -1.476,0.694 -1.823,-0.391c-1.041,-2.192 2.04,-15.386 2.648,-24.696c0.868,-12.175 -0.651,-38.39 1.063,-41.58c0.391,-1.063 1.823,0.043 1.823,0.043"/></clipPath><g clip-path="url(#_clip36)"><path d="M545.334,266.84l18.62,0.478l-2.452,95.725l-18.62,-0.478l2.452,-95.725Z" style="fill:#fff;fill-rule:nonzero;"/></g></g></g></g></g><g><g><clipPath id="_clip37"><path d="M795.052,274.067l5.382,0.152l-1.888,73.611l-5.382,-0.152l1.888,-73.611Z"/></clipPath><g clip-path="url(#_clip37)"><g><clipPath id="_clip38"><path d="M800.347,275.391c-1.823,55.447 -2.582,69.683 -4.21,71.571c-0.412,0.759 -1.758,-0.434 -1.758,-0.434l1.953,0.434c-0.195,-0 -1.584,0.738 -1.953,-0.434c-1.106,-2.344 2.192,-16.515 2.843,-26.519c0.933,-13.065 -0.694,-41.255 1.15,-44.662c0.434,-1.15 1.975,0.044 1.975,0.044"/></clipPath><g clip-path="url(#_clip38)"><path d="M788.78,259.679l19.987,0.521l-2.626,102.843l-20.008,-0.521l2.647,-102.843Z" style="fill:#fff;fill-rule:nonzero;"/></g></g></g></g></g><g><g><g><path d="M1094.68,131.481c1.432,-2.713 3.038,-5.165 4.774,-7.379c1.78,-2.257 4.015,-4.101 6.684,-5.555c4.275,-2.713 9.05,-4.08 14.323,-4.08c3.928,-0 8.03,1.172 12.326,3.472c4.276,2.257 7.726,4.818 10.33,7.639c4.688,5.165 8.16,11.024 10.417,17.622l2.257,0.173l23.003,-14.323l12.5,-5.902c3.755,-1.845 7.748,-3.256 11.98,-4.254c4.275,-1.042 8.507,-1.562 12.673,-1.562c6.706,-0 12.761,2.039 18.143,6.076c5.382,3.993 9.744,8.767 13.107,14.323c2.713,4.297 4.709,8.897 5.99,13.802c1.258,4.926 1.91,9.939 1.91,15.017c-0,2.843 -0.304,5.686 -0.869,8.507c-0.52,2.843 -1.106,5.686 -1.736,8.507l-4.861,14.67c-0.933,2.952 -2.43,5.599 -4.514,7.9c-2.083,2.257 -4.492,4.296 -7.205,6.076c5.079,3.776 9.224,8.572 12.414,14.41c3.168,5.859 4.774,12.022 4.774,18.489c-0,3.082 -0.391,6.25 -1.128,9.549c-0.76,3.299 -1.889,7.183 -3.386,11.632c-0.759,2.43 -1.128,3.906 -1.128,4.427c-0,0.694 0.564,2.235 1.736,4.601c0.564,0.998 0.911,2.083 1.041,3.298c0.109,1.216 0.174,2.344 0.174,3.386c0,3.928 -1.107,7.487 -3.299,10.677c-2.213,3.233 -5.468,4.861 -9.809,4.861c-2.148,-0 -4.34,-0.261 -6.597,-0.781c-2.213,-0.521 -4.384,-0.999 -6.51,-1.389c-1.736,-0.413 -3.603,-0.695 -5.556,-0.868c-1.91,-0.131 -3.819,-0.174 -5.729,-0.174c-1.215,0 -2.474,-0.043 -3.733,-0.087c-1.28,-0.065 -2.582,0.022 -3.906,0.261l-16.58,2.864c-0.933,0.109 -1.888,0.196 -2.864,0.261c-0.933,0.043 -1.91,0.086 -2.952,0.086c-4.231,0 -8.225,-0.607 -11.979,-1.822c-3.776,-1.172 -7.27,-3.104 -10.503,-5.816c-1.454,-1.346 -2.605,-2.908 -3.473,-4.688c-0.868,-1.736 -1.866,-3.516 -2.951,-5.382c-0.825,0.13 -1.649,0.304 -2.517,0.521c-0.868,0.174 -1.715,0.26 -2.518,0.26c-3.363,0 -6.293,-0.998 -8.767,-3.038c-2.496,-2.018 -4.688,-4.297 -6.597,-6.857c-2.67,-3.863 -4.731,-7.422 -6.163,-10.678c-1.389,-3.233 -2.908,-7.465 -4.514,-12.673c-0.695,-1.215 -1.302,-2.214 -1.823,-3.038c-0.521,-0.803 -1.194,-1.693 -1.997,-2.691c-1.107,1.909 -2.322,3.472 -3.646,4.687l-1.215,1.215c1.736,2.149 3.06,4.145 3.993,5.99c0.977,1.801 1.932,3.906 2.865,6.337c1.324,3.081 2.734,5.816 4.253,8.246c1.606,2.843 3.299,5.686 5.035,8.507c1.736,2.843 2.604,5.99 2.604,9.462c0,2.127 -1.172,3.906 -3.472,5.295c-2.257,1.433 -4.319,2.17 -6.163,2.17c-4.058,0 -7.726,-1.345 -11.025,-3.993c-3.298,-2.604 -6.076,-5.816 -8.333,-9.635c-2.213,-3.819 -3.711,-7.4 -4.514,-10.764l-3.038,-11.979c-0.239,-1.324 -0.673,-2.626 -1.302,-3.906c-0.586,-1.259 -1.085,-2.518 -1.476,-3.733c-3.537,-0.803 -6.554,-1.845 -9.028,-3.125c-2.495,-1.259 -5.273,-2.973 -8.333,-5.122c-1.345,-1.323 -2.778,-2.734 -4.34,-4.253c-1.563,-1.497 -3.017,-2.973 -4.34,-4.427c-1.346,-2.018 -2.388,-4.275 -3.125,-6.771c-0.76,-2.474 -1.129,-4.731 -1.129,-6.771c0,-4.687 1.411,-9.288 4.254,-13.802c2.821,-4.514 5.664,-8.442 8.506,-11.805c-3.125,-2.713 -5.816,-5.556 -8.072,-8.507c-2.214,-2.952 -3.299,-6.511 -3.299,-10.677c-0,-1.606 1.215,-4.102 3.646,-7.466c2.3,-3.125 4.101,-6.076 5.382,-8.854c1.258,-2.821 1.909,-5.056 1.909,-6.684c0,-0.911 -0.347,-1.671 -1.041,-2.257l-1.997,-1.562c-2.43,-1.78 -3.646,-4.167 -3.646,-7.118c0,-2.822 1.259,-5.599 3.82,-8.334c2.604,-2.777 5.772,-4.166 9.548,-4.166c1.845,-0 3.69,0.325 5.556,0.954c1.91,0.586 4.167,1.433 6.771,2.518Zm-22.483,149.913c-0.521,-2.951 -1.041,-5.924 -1.562,-8.941c-0.521,-3.06 -0.933,-6.076 -1.216,-9.028c-0.13,-1.324 -0.868,-2.647 -2.257,-3.993c-1.454,-1.215 -2.17,-2.821 -2.17,-4.861c0,-0.911 0.261,-1.866 0.782,-2.864c2.712,-2.257 5.056,-3.386 7.031,-3.386c1.779,0 3.863,0.608 6.25,1.823c2.43,1.215 4.687,2.734 6.771,4.514c2.083,1.801 3.472,3.602 4.166,5.382l5.643,15.278c0.39,1.215 0.955,2.387 1.649,3.472l1.997,3.212c1.497,1.909 2.799,3.993 3.906,6.25c1.15,2.3 1.736,4.731 1.736,7.291c-0,1.606 -0.673,2.887 -1.997,3.82c-1.345,0.911 -2.908,1.606 -4.687,2.083c-1.736,0.521 -3.212,0.781 -4.427,0.781c-2.952,0 -5.686,-0.607 -8.16,-1.823c-2.496,-1.215 -4.687,-2.842 -6.597,-4.861c-1.736,-1.909 -3.125,-4.145 -4.167,-6.684c-0.998,-2.56 -1.888,-5.034 -2.691,-7.465Zm136.025,-14.931c1.497,-2.256 3.255,-5.208 5.295,-8.854c2.018,-3.646 3.776,-7.4 5.295,-11.284c1.562,-3.928 2.344,-7.162 2.344,-9.723c-0,-1.323 -0.434,-2.712 -1.303,-4.166c-0.868,-1.498 -2.061,-2.257 -3.559,-2.257c-0.759,-0 -3.711,2.344 -8.854,7.031c-3.081,2.843 -6.749,5.621 -11.024,8.333c-4.232,2.67 -8.377,3.993 -12.413,3.993c-1.563,0 -3.212,-0.086 -4.948,-0.26c-1.693,-0.217 -3.386,-0.347 -5.122,-0.347c-0.238,3.776 -0.325,6.814 -0.26,9.114c0.043,2.257 0.369,4.514 0.955,6.771c0.629,2.214 1.562,5.1 2.778,8.681c2.43,-0.521 4.796,-1.085 7.118,-1.736c2.365,-0.695 4.774,-1.302 7.204,-1.823c2.648,-0.695 5.317,-1.302 7.987,-1.823c2.712,-0.564 5.555,-1.129 8.507,-1.65Zm-79.254,-85.937c4.557,1.628 8.203,3.45 10.938,5.469c2.777,1.975 5.425,4.991 7.986,9.028l11.545,-15.539c2.43,-3.233 4.123,-5.599 5.121,-7.118c1.042,-1.562 1.563,-2.864 1.563,-3.906c-0,-1.085 -0.347,-1.823 -1.042,-2.17c-0.694,-0.347 -1.779,-0.564 -3.212,-0.695c-1.519,-0.282 -3.298,-0.803 -5.382,-1.562c-2.083,-0.738 -3.949,-1.997 -5.555,-3.733c-0.825,1.346 -1.693,2.583 -2.604,3.733c-0.933,1.172 -1.953,2.3 -3.039,3.385l-7.291,5.643c-2.387,1.866 -4.774,3.797 -7.205,5.816l-1.823,1.649Zm70.226,-21.788c0.282,3.363 0.282,6.488 -0,9.375c-0.304,2.908 -0.847,5.881 -1.65,8.941c0.977,0.13 1.91,0.238 2.778,0.347c0.868,0.065 1.758,0.087 2.691,0.087l4.688,-0c1.15,-0 2.213,-0.044 3.211,-0.174c1.042,-0.173 1.845,-0.456 2.431,-0.868c0.391,-0.217 0.977,-1.237 1.736,-3.038c0.803,-1.845 1.693,-3.993 2.691,-6.424c1.042,-2.43 1.997,-4.687 2.865,-6.771c0.911,-2.083 1.497,-3.472 1.736,-4.166c0.39,-0.912 0.651,-1.932 0.781,-3.038c0.174,-1.151 0.26,-2.214 0.26,-3.212c0,-0.63 -0.086,-1.563 -0.26,-2.778c-0.13,-1.215 -0.694,-1.823 -1.736,-1.823c-1.519,0 -3.537,0.846 -6.076,2.517c-2.561,1.693 -5.187,3.646 -7.9,5.903c-1.345,0.825 -2.778,1.715 -4.34,2.691c-1.563,0.933 -2.865,1.736 -3.906,2.431Zm-40.799,58.507c3.125,0.521 5.382,1.302 6.771,2.343c1.432,0.999 3.147,2.648 5.121,4.948c2.995,-1.909 5.947,-3.862 8.855,-5.902c2.886,-2.019 5.816,-3.907 8.767,-5.643c2.648,-1.606 5.425,-3.038 8.333,-4.253c2.887,-1.215 5.947,-2.018 9.202,-2.431c-2.952,-1.844 -5.621,-3.559 -7.986,-5.121c-2.388,-1.563 -4.905,-3.559 -7.552,-5.99c-1.107,2.214 -2.323,4.319 -3.646,6.337c-1.346,1.975 -2.908,3.711 -4.688,5.208c-1.736,1.454 -3.798,2.865 -6.163,4.254c-2.322,1.345 -4.753,1.996 -7.292,1.996c-2.322,0 -4.514,-0.455 -6.597,-1.389c-2.083,-0.976 -4.21,-1.866 -6.337,-2.691c0.803,1.389 1.498,2.735 2.084,3.993c0.629,1.281 0.998,2.735 1.128,4.341Zm-37.934,-20.834c-0.412,-2.647 -1.476,-4.948 -3.212,-6.857c-2.322,1.519 -4.839,3.472 -7.552,5.903c-2.669,2.43 -4.926,4.579 -6.771,6.423l-10.069,10.504c-1.628,1.736 -2.951,3.342 -3.993,4.774c-0.998,1.389 -1.476,2.756 -1.476,4.08c0,0.998 0.304,1.91 0.955,2.778c0.694,0.868 1.497,1.302 2.431,1.302c0.564,-0 1.584,-0.695 3.038,-2.084c1.497,-1.432 3.32,-3.32 5.469,-5.642c2.647,-2.778 5.685,-5.946 9.114,-9.549c3.472,-3.58 6.879,-6.857 10.243,-9.809l1.823,-1.823Zm-13.715,-35.069l16.927,-16.146c0.694,-0.564 1.345,-1.215 1.996,-1.91c0.695,-0.737 1.042,-1.519 1.042,-2.343c0,-1.324 -0.521,-2.713 -1.562,-4.167c-0.999,-1.497 -2.214,-2.821 -3.646,-3.993c-1.389,-1.15 -2.67,-1.736 -3.82,-1.736c-1.389,-0 -2.495,0.738 -3.298,2.17c-0.825,1.389 -1.736,3.559 -2.778,6.51c-0.933,2.431 -1.649,4.992 -2.17,7.639c-0.478,2.604 -0.955,5.512 -1.476,8.681c-0.13,0.998 -0.304,1.91 -0.521,2.778c-0.173,0.868 -0.412,1.714 -0.694,2.517Zm43.837,94.01c-0.174,-1.432 -0.261,-2.973 -0.261,-4.6l0,-4.688c0,-0.803 0.022,-1.562 0.087,-2.257c0.109,-0.738 0.217,-1.519 0.347,-2.344c-2.04,1.346 -4.21,1.997 -6.51,1.997c-0.651,0 -1.107,-0.043 -1.389,-0.174c1.497,2.04 2.799,4.059 3.906,6.077c1.15,1.975 2.431,3.971 3.82,5.989Zm-26.042,-19.531c2.257,-0.694 4.08,-0.868 5.469,-0.521c1.432,0.348 3.125,1.042 5.034,2.084l-0.607,-1.216c-0.586,-1.323 -1.194,-2.647 -1.823,-3.993l-2.083,-4.08c-1.216,1.107 -2.301,2.301 -3.212,3.559c-0.933,1.281 -1.867,2.67 -2.778,4.167Z" style="fill-rule:nonzero;"/></g></g></g><g><g><clipPath id="_clip39"><path d="M1038.76,274.067l5.382,0.152l-1.888,73.611l-5.382,-0.152l1.888,-73.611Z"/></clipPath><g clip-path="url(#_clip39)"><g><clipPath id="_clip40"><path d="M1044.05,275.391c-1.823,55.447 -2.583,69.683 -4.21,71.571c-0.413,0.759 -1.758,-0.434 -1.758,-0.434l1.953,0.434c-0.195,-0 -1.584,0.738 -1.953,-0.434c-1.107,-2.344 2.192,-16.515 2.843,-26.519c0.933,-13.065 -0.695,-41.255 1.15,-44.662c0.434,-1.15 1.975,0.044 1.975,0.044"/></clipPath><g clip-path="url(#_clip40)"><path d="M1032.49,259.679l19.987,0.521l-2.626,102.843l-20.009,-0.521l2.648,-102.843Z" style="fill:#fff;fill-rule:nonzero;"/></g></g></g></g></g></svg>