<?xml version="1.0" encoding="UTF-8" standalone="no"?><!DOCTYPE svg PUBLIC "-//W3C//DTD SVG 1.1//EN" "http://www.w3.org/Graphics/SVG/1.1/DTD/svg11.dtd"><svg width="100%" height="100%" viewBox="0 0 5692 380" version="1.1" xmlns="http://www.w3.org/2000/svg" xmlns:xlink="http://www.w3.org/1999/xlink" xml:space="preserve" xmlns:serif="http://www.serif.com/" style="fill-rule:evenodd;clip-rule:evenodd;stroke-linejoin:round;stroke-miterlimit:2;"><g><clipPath id="_clip1"><rect x="303.494" y="58.919" width="249.891" height="295.573"/></clipPath><g clip-path="url(#_clip1)"><path d="M780.078,59.418c0,0 -728.125,-0.021 -728.233,-0.021c0.108,7.183 1.974,98.85 1.909,106.792c-0.152,21.897 -1.888,48.59 -2.994,70.465c-0.5,9.83 -8.312,93.229 -15.105,103.689c0.022,-0.022 125.868,15.864 249.067,7.509c2.908,-16.971 9.05,-34.31 11.502,-51.281c2.713,-19.466 6.272,-36.849 6.619,-56.489c0.564,-32.313 -1.129,-58.941 -1.15,-93.077c-0,-1.758 2.56,-1.91 2.756,-0.173c3.928,33.29 4.969,24.848 8.051,85.829c1.801,36.002 -2.843,77.148 -4.687,113.433c121.093,14.431 140.082,12.717 248.546,-3.19c-3.711,-36.155 -3.494,-69.358 -3.473,-105.513c0.109,-50.716 -2.278,-56.597 -0.564,-96.31c0.087,-1.801 1.215,-1.78 1.324,0.021c2.192,35.352 2.018,60.916 6.467,93.468c2.582,19.423 3.602,40.669 6.836,59.961c2.908,17.014 12.022,47.179 12.087,47.179c106.88,0 112.566,4.492 219.445,4.492c-7.747,-17.144 -14.735,-125.347 -15.126,-134.787c-0.282,-6.315 -3.798,-131.662 -3.277,-151.997" style="fill:#c40000;fill-rule:nonzero;"/></g></g><g><clipPath id="_clip2"><rect x="303.494" y="34.332" width="249.891" height="11.35"/></clipPath><g clip-path="url(#_clip2)"><path d="M836.892,45.356l-841.948,-0l-0,-9.701l841.948,0l0,9.701" style="fill:#d4983d;fill-rule:nonzero;"/></g></g><g><clipPath id="_clip3"><rect x="303.494" y="23.003" width="249.891" height="15.104"/></clipPath><g clip-path="url(#_clip3)"><path d="M836.892,37.522l-841.948,-0l-0,-13.13l841.948,0l0,13.13" style="fill:#d4983d;fill-rule:nonzero;"/></g></g><g><clipPath id="_clip4"><rect x="303.494" y="17.166" width="24.284" height="52.279"/></clipPath><g clip-path="url(#_clip4)"><path d="M323.155,68.381l-42.838,0l-0,-51.063l42.838,-0l0,51.063" style="fill:#c40000;fill-rule:nonzero;"/></g></g><g><path d="M551.541,68.381l-42.839,0l0,-51.063l42.839,-0l-0,51.063" style="fill:#c40000;fill-rule:nonzero;"/></g><g><path d="M548.893,64.28l-37.695,-0l-0,-46.962l37.695,-0l0,46.962" style="fill:#c40000;fill-rule:nonzero;"/></g><g><clipPath id="_clip5"><rect x="303.494" y="17.166" width="18.728" height="52.279"/></clipPath><g clip-path="url(#_clip5)"><path d="M320.486,64.28l-37.695,-0l-0,-46.962l37.695,-0l0,46.962" style="fill:#c40000;fill-rule:nonzero;"/></g></g><g><clipPath id="_clip6"><rect x="547.266" y="58.919" width="249.87" height="295.573"/></clipPath><g clip-path="url(#_clip6)"><path d="M1023.85,59.418c-0,0 -728.125,-0.021 -728.234,-0.021c0.109,7.183 1.975,98.85 1.91,106.792c-0.152,21.897 -1.888,48.59 -3.016,70.465c-0.478,9.83 -8.29,93.229 -15.083,103.689c0.022,-0.022 125.846,15.864 249.067,7.509c2.908,-16.971 9.049,-34.31 11.502,-51.281c2.691,-19.466 6.271,-36.849 6.619,-56.489c0.564,-32.313 -1.129,-58.941 -1.151,-93.077c0,-1.758 2.539,-1.91 2.756,-0.173c3.928,33.29 4.97,24.848 8.052,85.829c1.801,36.002 -2.843,77.148 -4.709,113.433c121.115,14.431 140.104,12.717 248.567,-3.19c-3.711,-36.155 -3.494,-69.358 -3.472,-105.513c0.108,-50.716 -2.279,-56.597 -0.564,-96.31c0.065,-1.801 1.215,-1.78 1.324,0.021c2.191,35.352 2.018,60.916 6.467,93.468c2.56,19.423 3.602,40.669 6.835,59.961c2.908,17.014 12.023,47.179 12.088,47.179c106.88,0 112.565,4.492 219.445,4.492c-7.748,-17.144 -14.736,-125.347 -15.126,-134.787c-0.282,-6.315 -3.798,-131.662 -3.277,-151.997" style="fill:#c40000;fill-rule:nonzero;"/></g></g><g><clipPath id="_clip7"><rect x="547.266" y="34.332" width="249.87" height="11.35"/></clipPath><g clip-path="url(#_clip7)"><path d="M1080.66,45.356l-841.949,-0l0,-9.701l841.949,0l0,9.701" style="fill:#d4983d;fill-rule:nonzero;"/></g></g><g><clipPath id="_clip8"><rect x="547.266" y="23.003" width="249.87" height="15.104"/></clipPath><g clip-path="url(#_clip8)"><path d="M1080.66,37.522l-841.949,-0l0,-13.13l841.949,0l0,13.13" style="fill:#d4983d;fill-rule:nonzero;"/></g></g><g><clipPath id="_clip9"><rect x="547.266" y="17.166" width="24.957" height="52.279"/></clipPath><g clip-path="url(#_clip9)"><path d="M566.905,68.381l-42.816,0l-0,-51.063l42.816,-0l0,51.063" style="fill:#c40000;fill-rule:nonzero;"/></g></g><g><path d="M795.313,68.381l-42.839,0l-0,-51.063l42.839,-0l-0,51.063" style="fill:#c40000;fill-rule:nonzero;"/></g><g><path d="M792.665,64.28l-37.695,-0l-0,-46.962l37.695,-0l-0,46.962" style="fill:#c40000;fill-rule:nonzero;"/></g><g><clipPath id="_clip10"><rect x="547.266" y="17.166" width="19.401" height="52.279"/></clipPath><g clip-path="url(#_clip10)"><path d="M564.258,64.28l-37.696,-0l0,-46.962l37.696,-0l-0,46.962" style="fill:#c40000;fill-rule:nonzero;"/></g></g><g><clipPath id="_clip11"><rect x="1281.01" y="58.919" width="246.766" height="295.573"/></clipPath><g clip-path="url(#_clip11)"><path d="M1507.79,59.418c-0,0 -728.147,-0.021 -728.255,-0.021c0.108,7.183 1.974,98.85 1.931,106.792c-0.174,21.897 -1.91,48.59 -3.016,70.465c-0.5,9.83 -8.312,93.229 -15.083,103.689c0,-0.022 125.846,15.864 249.045,7.509c2.908,-16.971 9.071,-34.31 11.502,-51.281c2.713,-19.466 6.272,-36.849 6.619,-56.489c0.564,-32.313 -1.129,-58.941 -1.15,-93.077c-0,-1.758 2.56,-1.91 2.756,-0.173c3.928,33.29 4.991,24.848 8.051,85.829c1.823,36.002 -2.843,77.148 -4.688,113.433c121.094,14.431 140.105,12.717 248.546,-3.19c-3.71,-36.155 -3.493,-69.358 -3.472,-105.513c0.13,-50.716 -2.278,-56.597 -0.564,-96.31c0.087,-1.801 1.215,-1.78 1.346,0.021c2.17,35.352 1.996,60.916 6.467,93.468c2.56,19.423 3.58,40.669 6.814,59.961c2.908,17.014 12.022,47.179 12.087,47.179c106.88,0 112.566,4.492 219.445,4.492c-7.748,-17.144 -14.714,-125.347 -15.126,-134.787c-0.282,-6.315 -3.798,-131.662 -3.255,-151.997" style="fill:#c40000;fill-rule:nonzero;"/></g></g><g><clipPath id="_clip12"><rect x="1281.01" y="34.332" width="282.899" height="11.35"/></clipPath><g clip-path="url(#_clip12)"><path d="M1564.61,45.356l-841.949,-0l0,-9.701l841.949,0l0,9.701" style="fill:#d4983d;fill-rule:nonzero;"/></g></g><g><clipPath id="_clip13"><rect x="1281.01" y="23.003" width="282.899" height="15.104"/></clipPath><g clip-path="url(#_clip13)"><path d="M1564.61,37.522l-841.949,-0l0,-13.13l841.949,0l0,13.13" style="fill:#d4983d;fill-rule:nonzero;"/></g></g><g><path d="M1507.64,68.381l-42.839,0l0,-51.063l42.839,-0l-0,51.063" style="fill:#c40000;fill-rule:nonzero;"/></g><g><path d="M1505.01,64.28l-37.695,-0l-0,-46.962l37.695,-0l0,46.962" style="fill:#c40000;fill-rule:nonzero;"/></g><g><clipPath id="_clip14"><rect x="39.692" y="58.919" width="268.49" height="295.573"/></clipPath><g clip-path="url(#_clip14)"><path d="M785.135,59.418c-0,0 -728.147,-0.021 -728.256,-0.021c0.109,7.183 1.997,98.85 1.932,106.792c-0.152,21.897 -1.91,48.59 -3.017,70.465c-0.499,9.83 -8.29,93.229 -15.082,103.689c-0,-0.022 125.846,15.864 249.067,7.509c2.886,-16.971 9.049,-34.31 11.501,-51.281c2.691,-19.466 6.25,-36.849 6.598,-56.489c0.586,-32.313 -1.107,-58.941 -1.129,-93.077c0,-1.758 2.539,-1.91 2.756,-0.173c3.928,33.29 4.97,24.848 8.051,85.829c1.802,36.002 -2.842,77.148 -4.709,113.433c121.116,14.431 140.104,12.717 248.546,-3.19c-3.689,-36.155 -3.494,-69.358 -3.45,-105.513c0.108,-50.716 -2.279,-56.597 -0.565,-96.31c0.066,-1.801 1.216,-1.78 1.324,0.021c2.17,35.352 2.018,60.916 6.467,93.468c2.561,19.423 3.581,40.669 6.836,59.961c2.886,17.014 12.001,47.179 12.088,47.179c106.879,0 112.543,4.492 219.423,4.492c-7.726,-17.144 -14.714,-125.347 -15.126,-134.787c-0.261,-6.315 -3.798,-131.662 -3.255,-151.997" style="fill:#c40000;fill-rule:nonzero;"/></g></g><g><clipPath id="_clip15"><rect x="0" y="34.332" width="308.181" height="11.35"/></clipPath><g clip-path="url(#_clip15)"><path d="M841.949,45.356l-841.949,-0l0,-9.701l841.949,0l-0,9.701" style="fill:#d4983d;fill-rule:nonzero;"/></g></g><g><clipPath id="_clip16"><rect x="0" y="23.003" width="308.181" height="15.104"/></clipPath><g clip-path="url(#_clip16)"><path d="M841.949,37.522l-841.949,-0l0,-13.13l841.949,0l-0,13.13" style="fill:#d4983d;fill-rule:nonzero;"/></g></g><g><path d="M99.805,68.381l-42.839,0l0,-51.063l42.839,-0l-0,51.063" style="fill:#c40000;fill-rule:nonzero;"/></g><g><clipPath id="_clip17"><rect x="283.333" y="17.166" width="24.848" height="52.279"/></clipPath><g clip-path="url(#_clip17)"><path d="M328.19,68.381l-42.838,0l-0,-51.063l42.838,-0l0,51.063" style="fill:#c40000;fill-rule:nonzero;"/></g></g><g><path d="M97.135,64.28l-37.695,-0l0,-46.962l37.695,-0l0,46.962" style="fill:#c40000;fill-rule:nonzero;"/></g><g><clipPath id="_clip18"><rect x="283.333" y="17.166" width="24.848" height="52.279"/></clipPath><g clip-path="url(#_clip18)"><path d="M325.543,64.28l-37.696,-0l0,-46.962l37.696,-0l-0,46.962" style="fill:#c40000;fill-rule:nonzero;"/></g></g><g><clipPath id="_clip19"><rect x="791.037" y="58.919" width="249.87" height="295.573"/></clipPath><g clip-path="url(#_clip19)"><path d="M1267.62,59.418c-0,0 -728.147,-0.021 -728.234,-0.021c0.087,7.183 1.975,98.85 1.91,106.792c-0.152,21.897 -1.888,48.59 -3.017,70.465c-0.499,9.83 -8.29,93.229 -15.082,103.689c-0,-0.022 125.846,15.864 249.067,7.509c2.908,-16.971 9.049,-34.31 11.501,-51.281c2.691,-19.466 6.272,-36.849 6.619,-56.489c0.565,-32.313 -1.128,-58.941 -1.15,-93.077c0,-1.758 2.539,-1.91 2.756,-0.173c3.928,33.29 4.97,24.848 8.051,85.829c1.802,36.002 -2.842,77.148 -4.709,113.433c121.116,14.431 140.104,12.717 248.568,-3.19c-3.711,-36.155 -3.516,-69.358 -3.472,-105.513c0.108,-50.716 -2.279,-56.597 -0.565,-96.31c0.066,-1.801 1.216,-1.78 1.324,0.021c2.192,35.352 2.018,60.916 6.467,93.468c2.561,19.423 3.603,40.669 6.836,59.961c2.908,17.014 12.023,47.179 12.088,47.179c106.879,0 112.565,4.492 219.444,4.492c-7.747,-17.144 -14.735,-125.347 -15.147,-134.787c-0.261,-6.315 -3.776,-131.662 -3.255,-151.997" style="fill:#c40000;fill-rule:nonzero;"/></g></g><g><clipPath id="_clip20"><rect x="791.037" y="34.332" width="249.87" height="11.35"/></clipPath><g clip-path="url(#_clip20)"><path d="M1324.44,45.356l-841.949,-0l-0,-9.701l841.949,0l-0,9.701" style="fill:#d4983d;fill-rule:nonzero;"/></g></g><g><clipPath id="_clip21"><rect x="791.037" y="23.003" width="249.87" height="15.104"/></clipPath><g clip-path="url(#_clip21)"><path d="M1324.44,37.522l-841.949,-0l-0,-13.13l841.949,0l-0,13.13" style="fill:#d4983d;fill-rule:nonzero;"/></g></g><g><clipPath id="_clip22"><rect x="791.037" y="17.166" width="20.074" height="52.279"/></clipPath><g clip-path="url(#_clip22)"><path d="M810.677,68.381l-42.838,0l-0,-51.063l42.838,-0l0,51.063" style="fill:#c40000;fill-rule:nonzero;"/></g></g><g><path d="M1039.08,68.381l-42.838,0l-0,-51.063l42.838,-0l0,51.063" style="fill:#c40000;fill-rule:nonzero;"/></g><g><path d="M1036.44,64.28l-37.696,-0l0,-46.962l37.696,-0l-0,46.962" style="fill:#c40000;fill-rule:nonzero;"/></g><g><clipPath id="_clip23"><rect x="791.037" y="17.166" width="20.074" height="52.279"/></clipPath><g clip-path="url(#_clip23)"><path d="M808.03,64.28l-37.696,-0l0,-46.962l37.696,-0l-0,46.962" style="fill:#c40000;fill-rule:nonzero;"/></g></g><g><clipPath id="_clip24"><rect x="1034.74" y="58.919" width="249.87" height="295.573"/></clipPath><g clip-path="url(#_clip24)"><path d="M1511.33,59.418c0,0 -728.147,-0.021 -728.233,-0.021c0.086,7.183 1.974,98.85 1.909,106.792c-0.152,21.897 -1.888,48.59 -3.016,70.465c-0.499,9.83 -8.29,93.229 -15.083,103.689c0,-0.022 125.847,15.864 249.067,7.509c2.908,-16.971 9.05,-34.31 11.502,-51.281c2.691,-19.466 6.272,-36.849 6.619,-56.489c0.564,-32.313 -1.129,-58.941 -1.15,-93.077c-0,-1.758 2.539,-1.91 2.756,-0.173c3.928,33.29 4.969,24.848 8.051,85.829c1.801,36.002 -2.843,77.148 -4.709,113.433c121.115,14.431 140.104,12.717 248.568,-3.19c-3.711,-36.155 -3.516,-69.358 -3.473,-105.513c0.109,-50.716 -2.278,-56.597 -0.564,-96.31c0.065,-1.801 1.215,-1.78 1.324,0.021c2.192,35.352 2.018,60.916 6.467,93.468c2.561,19.423 3.602,40.669 6.836,59.961c2.908,17.014 12.022,47.179 12.087,47.179c106.88,0 112.566,4.492 219.445,4.492c-7.747,-17.144 -14.735,-125.347 -15.126,-134.787c-0.282,-6.315 -3.798,-131.662 -3.277,-151.997" style="fill:#c40000;fill-rule:nonzero;"/></g></g><g><clipPath id="_clip25"><rect x="1034.74" y="34.332" width="249.87" height="11.35"/></clipPath><g clip-path="url(#_clip25)"><path d="M1568.14,45.356l-841.948,-0l-0,-9.701l841.948,0l0,9.701" style="fill:#d4983d;fill-rule:nonzero;"/></g></g><g><clipPath id="_clip26"><rect x="1034.74" y="23.003" width="249.87" height="15.104"/></clipPath><g clip-path="url(#_clip26)"><path d="M1568.14,37.522l-841.948,-0l-0,-13.13l841.948,0l0,13.13" style="fill:#d4983d;fill-rule:nonzero;"/></g></g><g><clipPath id="_clip27"><rect x="1034.74" y="17.166" width="20.812" height="52.279"/></clipPath><g clip-path="url(#_clip27)"><path d="M1054.38,68.381l-42.839,0l0,-51.063l42.839,-0l-0,51.063" style="fill:#c40000;fill-rule:nonzero;"/></g></g><g><path d="M1282.79,68.381l-42.839,0l0,-51.063l42.839,-0l-0,51.063" style="fill:#c40000;fill-rule:nonzero;"/><path d="M1280.14,64.28l-37.695,-0l-0,-46.962l37.695,-0l0,46.962" style="fill:#c40000;fill-rule:nonzero;"/></g><g><clipPath id="_clip28"><rect x="1034.74" y="17.166" width="20.812" height="52.279"/></clipPath><g clip-path="url(#_clip28)"><path d="M1051.74,64.28l-37.695,-0l-0,-46.962l37.695,-0l0,46.962" style="fill:#c40000;fill-rule:nonzero;"/></g></g><g><clipPath id="_clip29"><rect x="95.768" y="17.166" width="20.812" height="66.623"/></clipPath><g clip-path="url(#_clip29)"><rect x="97.244" y="-133.594" width="217.773" height="217.795" style="fill:#c40000;fill-rule:nonzero;"/><path d="M315.017,85.677l-217.773,0c-0.825,0 -1.476,-0.651 -1.476,-1.476l0,-217.795c0,-0.824 0.651,-1.454 1.476,-1.454l217.773,0c0.825,0 1.476,0.63 1.476,1.454l0,217.795c0,0.825 -0.651,1.476 -1.476,1.476Zm-216.319,-2.951l214.844,-0l-0,-214.844l-214.844,-0l-0,214.844Z" style="fill:#c40000;fill-rule:nonzero;"/></g></g><g><clipPath id="_clip30"><rect x="318.012" y="17.166" width="20.812" height="66.623"/></clipPath><g clip-path="url(#_clip30)"><rect x="319.466" y="-133.594" width="217.795" height="217.795" style="fill:#c40000;fill-rule:nonzero;"/><path d="M537.261,85.677l-217.795,0c-0.825,0 -1.454,-0.651 -1.454,-1.476l0,-217.795c0,-0.824 0.629,-1.454 1.454,-1.454l217.795,0c0.825,0 1.476,0.63 1.476,1.454l-0,217.795c-0,0.825 -0.651,1.476 -1.476,1.476Zm-216.319,-2.951l214.844,-0l-0,-214.844l-214.844,-0l-0,214.844Z" style="fill:#c40000;fill-rule:nonzero;"/></g></g><g><clipPath id="_clip31"><rect x="1277.78" y="17.166" width="20.421" height="66.623"/></clipPath><g clip-path="url(#_clip31)"><rect x="1278.84" y="-133.594" width="217.795" height="217.795" style="fill:#c40000;fill-rule:nonzero;"/></g></g><g><clipPath id="_clip32"><rect x="1277.37" y="17.166" width="20.833" height="66.623"/></clipPath><g clip-path="url(#_clip32)"><path d="M1496.64,85.677l-217.795,0c-0.825,0 -1.476,-0.651 -1.476,-1.476l0,-217.795c0,-0.824 0.651,-1.454 1.476,-1.454l217.795,0c0.825,0 1.454,0.63 1.454,1.454l0,217.795c0,0.825 -0.629,1.476 -1.454,1.476Zm-216.319,-2.951l214.844,-0l-0,-214.844l-214.844,-0l-0,214.844Z" style="fill:#c40000;fill-rule:nonzero;"/></g></g><g><clipPath id="_clip33"><rect x="1446.33" y="17.166" width="20.833" height="66.623"/></clipPath><g clip-path="url(#_clip33)"><rect x="1447.81" y="-133.594" width="217.795" height="217.795" style="fill:#c40000;fill-rule:nonzero;"/><path d="M1665.6,85.677l-217.795,0c-0.824,0 -1.476,-0.651 -1.476,-1.476l0,-217.795c0,-0.824 0.652,-1.454 1.476,-1.454l217.795,0c0.825,0 1.476,0.63 1.476,1.454l-0,217.795c-0,0.825 -0.651,1.476 -1.476,1.476Zm-216.319,-2.951l214.844,-0l-0,-214.844l-214.844,-0l-0,214.844Z" style="fill:#c40000;fill-rule:nonzero;"/></g></g><g><path d="M272.331,158.789c-0,-0.022 -0.022,-0.043 -0.044,-0.065c-1.193,-2.322 -2.908,-4.167 -5.165,-5.534c-2.235,-1.367 -4.665,-2.04 -7.291,-2.04l-59.744,0l-0,-4.687l65.191,-0l-5.035,-6.185c-4.861,-5.99 -10.308,-11.35 -16.384,-16.124c-6.055,-4.753 -12.566,-8.789 -19.532,-12.11c-6.966,-3.298 -14.192,-5.794 -21.723,-7.487c-7.53,-1.692 -15.126,-2.517 -22.851,-2.517c-57.249,-0 -103.82,46.593 -103.82,103.841c0,9.267 1.215,18.381 3.646,27.344c0.26,0.998 0.868,1.779 1.78,2.3c0.911,0.521 1.866,0.63 2.886,0.369c0.998,-0.282 1.779,-0.868 2.278,-1.779c0.521,-0.912 0.651,-1.867 0.369,-2.887c-2.257,-8.311 -3.385,-16.753 -3.385,-25.347c-0,-53.082 43.186,-96.246 96.246,-96.246c11.979,-0.021 23.546,2.127 34.722,6.424c11.154,4.319 21.18,10.503 30.013,18.576c1.519,1.368 -110.048,8.594 -110.048,8.594l0,3.234l24.631,-0l0,4.687l-24.631,0l0,3.255c0,0 10.07,-0.108 24.631,0.065l0,19.857c0,30.426 -24.761,55.187 -55.186,55.187c-0.76,-0.022 -1.411,0.239 -1.954,0.759c-0.564,0.543 -0.824,1.194 -0.824,1.954c-0,0.759 0.26,1.41 0.824,1.931c0.543,0.543 1.194,0.803 1.954,0.781c8.116,0 15.928,-1.562 23.415,-4.709c-0.911,0.825 -1.15,1.823 -0.694,2.973c0.434,1.15 1.28,1.715 2.517,1.715c22.765,-0 41.298,-27.171 41.298,-60.591l0,-19.661l0.499,-0l0,19.661c0,31.597 -8.746,55.187 -16.58,55.187c-0.738,0.022 -1.345,0.282 -1.866,0.825c-0.521,0.52 -0.76,1.15 -0.76,1.888c0,0.737 0.239,1.367 0.76,1.888c0.521,0.52 1.128,0.803 1.866,0.824c14.301,0 22.005,-31.228 22.005,-60.612l0,-19.531l0.521,0.022l0,77.409c0,0.737 0.261,1.388 0.782,1.909c0.542,0.521 1.171,0.803 1.931,0.803c0.738,0 1.367,-0.282 1.91,-0.803c0.521,-0.521 0.781,-1.172 0.781,-1.909l-0,-77.257l0.521,0.021l-0,19.336c-0,29.384 7.704,60.612 22.005,60.612c0.738,-0.021 1.345,-0.304 1.866,-0.824c0.521,-0.521 0.76,-1.151 0.76,-1.888c-0,-0.738 -0.239,-1.368 -0.76,-1.888c-0.521,-0.543 -1.128,-0.803 -1.866,-0.825c-7.834,-0 -16.58,-23.59 -16.58,-55.187l0,-19.14l0.499,0.021l0,19.141c0,33.398 18.533,60.59 41.298,60.59c1.237,0 2.083,-0.564 2.539,-1.736c0.456,-1.15 0.217,-2.148 -0.694,-2.973c7.487,3.147 15.277,4.709 23.394,4.688c0.759,0.021 1.41,-0.217 1.953,-0.76c0.564,-0.521 0.825,-1.172 0.825,-1.931c-0,-0.782 -0.261,-1.411 -0.825,-1.954c-0.543,-0.542 -1.194,-0.781 -1.953,-0.759c-30.426,-0 -55.187,-24.761 -55.187,-55.187l0,-18.62c26.085,1.346 52.083,3.994 61.415,9.224c12.782,7.161 14.54,26.15 14.54,40.95c-0,4.905 -0.369,9.787 -1.107,14.649c-0.738,4.839 -1.844,9.613 -3.32,14.301c-1.476,4.687 -3.277,9.223 -5.447,13.628c-2.17,4.406 -4.666,8.616 -7.487,12.652c-2.821,4.015 -5.925,7.813 -9.31,11.35c-3.407,3.559 -7.053,6.814 -10.938,9.809c-3.906,2.973 -8.007,5.664 -12.304,8.008c-4.319,2.365 -8.768,4.383 -13.39,6.054l-0.043,0c-1.65,0.608 -2.995,1.628 -4.015,3.082c-1.02,1.454 -1.541,3.082 -1.541,4.861l0,1.997c0,0.911 -0.304,1.671 -0.955,2.3c-0.629,0.629 -1.389,0.955 -2.3,0.955l-48.199,-0c-0.911,-0 -1.671,-0.326 -2.3,-0.955c-0.651,-0.629 -0.955,-1.389 -0.955,-2.3l-0,-1.997c-0,-1.779 -0.521,-3.407 -1.541,-4.839c-1.02,-1.454 -2.365,-2.496 -4.015,-3.082l-0.065,-0.022c-11.285,-4.101 -21.441,-10.091 -30.469,-17.99c-9.027,-7.899 -16.297,-17.187 -21.853,-27.821c-1.128,-2.149 0.478,-4.731 2.908,-4.731l162.565,-0c0.564,-0 1.107,-0.13 1.628,-0.369c0.521,-0.26 0.955,-0.608 1.324,-1.042c0.347,-0.455 0.607,-0.955 0.737,-1.519c0.131,-0.542 0.131,-1.107 0.022,-1.671c-0.369,-1.758 -2.018,-2.995 -3.819,-2.995l-163.737,0c-7.487,0 -12.348,7.878 -8.985,14.562l0.044,0.109c5.816,11.501 13.498,21.571 23.09,30.208c9.592,8.637 20.399,15.234 32.465,19.813c1.389,0.543 2.105,1.541 2.105,3.038l0,1.433c0,1.302 0.261,2.539 0.738,3.732c0.499,1.194 1.215,2.257 2.127,3.169c0.911,0.911 1.953,1.606 3.168,2.105c1.194,0.499 2.431,0.759 3.733,0.759l50.369,0c1.302,0 2.539,-0.26 3.733,-0.759c1.193,-0.478 2.257,-1.194 3.168,-2.105c0.911,-0.912 1.606,-1.975 2.105,-3.169c0.499,-1.193 0.738,-2.43 0.738,-3.732l-0,-1.433c0.022,-1.497 0.716,-2.517 2.127,-3.038c3.385,-1.302 6.705,-2.777 9.939,-4.405c3.233,-1.649 6.38,-3.451 9.418,-5.425c3.06,-1.975 5.99,-4.102 8.811,-6.402c2.821,-2.279 5.534,-4.688 8.095,-7.249c2.56,-2.582 4.991,-5.273 7.291,-8.073c2.279,-2.821 4.406,-5.75 6.402,-8.81c1.975,-3.038 3.798,-6.163 5.447,-9.397c1.65,-3.234 3.125,-6.554 4.427,-9.939c1.302,-3.386 2.431,-6.836 3.364,-10.33c0.955,-3.516 1.714,-7.053 2.279,-10.634c0.586,-3.581 0.955,-7.205 1.15,-10.829c0.195,-3.624 0.195,-7.248 0.022,-10.872c-0.196,-3.624 -0.565,-7.227 -1.129,-10.807c-0.564,-3.581 -1.324,-7.14 -2.257,-10.634c-0.933,-3.516 -2.04,-6.966 -3.342,-10.352c-1.302,-3.385 -2.778,-6.705 -4.405,-9.939Zm-77.67,-7.639l-0.52,0l-0,-4.687l0.52,-0l0,4.687Zm-30.164,-4.687l0.499,-0l-0,4.687l-0.499,0l-0,-4.687Zm0.499,27.864c-0,30.426 -16.081,55.187 -35.873,55.187l-0.217,-0c20.964,-9.527 35.591,-30.686 35.591,-55.187l-0,-19.77l0.499,0l-0,19.77Zm5.425,-23.177l0,-4.687l0.521,-0l-0,4.687l-0.521,0Zm5.924,0l0,-4.687l0.521,-0l0,4.687l-0.521,0Zm5.947,0l-0,-4.687l0.499,-0l-0,4.687l-0.499,0Zm5.924,0l0,-4.687l0.521,-0l-0,4.687l-0.521,0Zm42.036,78.364l-0.217,-0c-19.792,-0 -35.894,-24.761 -35.894,-55.187l-0,-18.902l0.52,0.022l0,18.88c0,24.501 14.605,45.66 35.591,55.187Z" style="fill-rule:nonzero;"/></g><g><clipPath id="_clip34"><rect x="1507.94" y="24.023" width="4180.95" height="22.461"/></clipPath><g clip-path="url(#_clip34)"><rect x="1507.94" y="24.023" width="4424.07" height="22.461" style="fill:#d4983d;fill-rule:nonzero;"/></g></g><g><g><g><path d="M463.522,240.611c3.472,2.951 6.25,6.467 8.333,10.503c2.083,4.058 3.125,8.42 3.125,13.108c0,3.776 -0.868,7.378 -2.604,10.851c-1.736,3.428 -4.167,6.25 -7.292,8.507c-3.081,2.191 -6.64,3.298 -10.677,3.298c-3.472,0 -6.554,-1.041 -9.201,-3.125c-2.604,-2.083 -5.078,-4.275 -7.379,-6.597c-7.118,-6.988 -15.082,-12.956 -23.871,-17.882c-8.811,-4.904 -17.665,-9.657 -26.563,-14.236l-5.208,-2.778c-1.736,-0.911 -3.364,-2.083 -4.861,-3.472c-4.688,-4.688 -7.031,-10.33 -7.031,-16.927c-0,-2.018 0.195,-4.167 0.607,-6.424c0.391,-2.3 1.172,-4.297 2.344,-5.989c1.215,-1.671 3.125,-2.518 5.729,-2.518c2.366,0 5.491,0.348 9.375,1.042c3.928,0.651 8.117,1.454 12.587,2.431c4.449,0.933 8.637,1.866 12.587,2.777c3.993,0.933 7.248,1.736 9.809,2.431c1.497,-0.695 2.886,-1.324 4.166,-1.91c1.259,-0.629 2.561,-1.259 3.907,-1.91c2.126,-1.388 4.904,-3.038 8.333,-4.948c3.472,-1.953 6.988,-4.014 10.59,-6.163c3.646,-2.126 7.075,-4.188 10.33,-6.163c3.234,-1.953 5.729,-3.559 7.465,-4.774c2.713,-1.845 5.144,-3.82 7.292,-5.903c2.127,-2.083 3.212,-4.427 3.212,-7.031c-0,-2.648 -1.042,-4.601 -3.125,-5.816c-2.083,-1.215 -4.297,-1.823 -6.597,-1.823c-2.387,-0 -5.512,0.608 -9.375,1.823c-3.82,1.215 -7.704,2.604 -11.632,4.166c-3.885,1.52 -7.097,2.757 -9.636,3.733c-4.058,1.454 -8.897,3.082 -14.496,4.861c-5.556,1.736 -11.372,3.386 -17.448,4.948c-6.033,1.519 -11.871,2.778 -17.535,3.82c-5.62,0.998 -10.59,1.475 -14.93,1.475c-4.579,0 -9.462,-1.063 -14.67,-3.212c-5.165,-2.126 -9.549,-5.143 -13.195,-9.027c-3.602,-3.928 -5.382,-8.529 -5.382,-13.802c0,-1.845 0.456,-3.581 1.389,-5.209c0.911,-1.606 2.474,-2.43 4.688,-2.43c1.432,-0 2.973,0.217 4.6,0.607c1.606,0.413 2.887,0.608 3.82,0.608c1.085,-0 3.233,-0.369 6.423,-1.128c3.234,-0.738 7.075,-1.737 11.545,-2.952c4.449,-1.215 9.05,-2.474 13.803,-3.819c4.796,-1.324 9.244,-2.604 13.368,-3.82c4.101,-1.215 7.378,-2.17 9.809,-2.864c11.393,-3.473 21.224,-6.098 29.513,-7.9c8.269,-1.844 13.889,-2.777 16.841,-2.777c7.4,-0 14.496,1.367 21.267,4.079c6.814,2.67 12.934,6.576 18.316,11.719c5.078,4.818 9.31,10.547 12.674,17.188c3.407,6.662 5.121,13.585 5.121,20.746c0,4.579 -1.172,8.833 -3.472,12.761c-2.257,3.884 -5.165,7.204 -8.681,9.982c-6.206,4.861 -12.586,9.505 -19.184,13.889c-6.597,4.34 -12.912,9.006 -18.923,13.976Z" style="fill-rule:nonzero;"/></g></g></g><g><g><g><path d="M665.103,229.326c0,-0.694 -0.086,-1.476 -0.26,-2.344c-0.13,-0.868 -0.694,-1.302 -1.736,-1.302c-0.998,0 -2.083,0.608 -3.299,1.823c-1.866,1.91 -4.774,4.123 -8.767,6.597c-3.95,2.496 -7.422,4.341 -10.417,5.556c-5.62,2.387 -11.458,3.559 -17.535,3.559c-4.296,0 -7.812,-0.781 -10.59,-2.344c-2.778,-1.606 -5.772,-3.776 -8.941,-6.51c-2.843,-2.431 -5.013,-4.731 -6.51,-6.945c-1.454,-2.191 -3.19,-5.316 -5.209,-9.375c-1.909,-3.754 -2.864,-6.033 -2.864,-6.857c-0,-1.216 0.608,-2.04 1.823,-2.518c1.215,-0.455 3.494,-0.781 6.857,-0.954c2.019,-0.109 4.362,-0.782 7.032,-1.997c2.712,-1.215 5.425,-2.561 8.159,-4.08c2.778,-1.562 5.252,-3.038 7.466,-4.427c8.159,-5.078 16.146,-10.373 23.958,-15.885c7.813,-5.556 15.625,-11.133 23.438,-16.754c5.664,-4.036 11.111,-8.008 16.319,-11.892c5.252,-3.928 10.59,-7.834 15.972,-11.719c0.521,-0.391 1.042,-0.825 1.563,-1.302c0.564,-0.521 0.998,-0.825 1.302,-0.955c0.629,-0.391 1.15,-0.825 1.562,-1.302c0.391,-0.456 0.608,-1.085 0.608,-1.91c-0,-0.282 -0.043,-0.542 -0.087,-0.781c-0.065,-0.282 -0.087,-0.564 -0.087,-0.868c0,-3.863 1.389,-6.988 4.167,-9.375c2.821,-2.365 6.163,-3.559 9.983,-3.559c4.383,-0 8.073,1.172 11.024,3.472c2.995,2.322 5.23,5.295 6.684,8.941c1.497,3.603 2.257,7.422 2.257,11.459c-0,5.794 -1.259,10.72 -3.733,14.756c-2.495,3.994 -5.707,8.03 -9.635,12.066c-1.454,1.628 -3.559,3.798 -6.337,6.511c-2.778,2.669 -5.556,5.252 -8.333,7.726c-2.735,2.495 -5.013,4.405 -6.858,5.729c-0.586,0.412 -1.476,1.128 -2.691,2.17c-1.215,0.998 -1.823,1.736 -1.823,2.257c0,0.412 1.302,2.691 3.906,6.857c0.912,1.389 1.737,3.559 2.431,6.511c0.738,2.951 1.345,6.033 1.823,9.201c0.521,3.125 0.781,5.708 0.781,7.726c0,2.43 -0.13,5.707 -0.347,9.809c-0.174,4.123 -0.26,7.899 -0.26,11.371c-0,3.538 0.13,7.075 0.434,10.591c0.347,3.472 0.52,6.944 0.52,10.416c0,4.862 -0.781,9.462 -2.343,13.803c-1.519,4.275 -3.993,7.747 -7.466,10.416c-3.428,2.713 -7.877,4.08 -13.368,4.08c-3.646,0 -7.335,-0.825 -11.024,-2.431c-3.711,-1.627 -6.38,-4.21 -7.986,-7.725c-1.042,-2.257 -1.953,-4.601 -2.691,-7.031c-0.76,-2.431 -1.129,-4.905 -1.129,-7.466c0,-7.118 0.369,-14.236 1.129,-21.354c0.738,-7.161 1.128,-14.323 1.128,-21.441Z" style="fill-rule:nonzero;"/></g></g></g><g><g><g><path d="M852.102,224.725c-3.885,0 -7.9,-0.781 -12.066,-2.343c-4.167,-1.563 -7.683,-3.668 -10.504,-6.337c-2.561,-2.604 -4.579,-5.664 -6.076,-9.202c-1.454,-3.58 -2.17,-7.118 -2.17,-10.59c-0,-2.018 0.434,-4.015 1.302,-5.989c0.868,-1.954 2.43,-2.952 4.687,-2.952l3.646,0c1.215,0 2.626,-0.304 4.254,-0.955c2.539,-1.085 5.208,-2.864 7.986,-5.295c2.777,-2.43 5.468,-5.078 8.073,-7.986c2.604,-2.886 4.861,-5.317 6.77,-7.292c5.491,-5.555 11.719,-10.243 18.664,-14.062c6.944,-3.819 14.366,-5.729 22.309,-5.729c9.548,-0 17.448,2.083 23.698,6.25c6.25,4.166 12.261,9.679 18.055,16.493c3.516,4.058 7.031,8.051 10.504,11.979c3.472,3.885 7.118,7.791 10.937,11.719c5.382,5.382 10.786,10.742 16.233,16.059c5.425,5.273 10.85,10.482 16.232,15.625c4.037,3.776 7.661,7.942 10.851,12.5c3.234,4.579 4.861,9.809 4.861,15.712c0,3.472 -0.825,6.922 -2.43,10.329c-1.628,3.364 -3.885,6.12 -6.771,8.247c-2.908,2.148 -6.294,3.212 -10.157,3.212c-3.884,-0 -7.964,-1.237 -12.239,-3.733c-4.232,-2.474 -8.225,-5.425 -11.979,-8.854c-3.776,-3.407 -7.01,-6.424 -9.722,-9.028c-5.382,-5.382 -10.981,-11.285 -16.754,-17.708c-5.729,-6.467 -11.35,-13.043 -16.84,-19.705c-5.447,-6.641 -10.395,-13.064 -14.844,-19.271c-1.736,-2.43 -3.537,-4.601 -5.382,-6.51c-1.801,-1.953 -4.08,-2.952 -6.858,-2.952c-2.604,0 -4.752,1.042 -6.423,3.125c-1.693,2.084 -3.646,5.209 -5.903,9.375c-3.776,7.118 -8.246,13.238 -13.455,18.316c-5.165,5.035 -11.328,7.552 -18.489,7.552Zm113.02,-56.944c-3.081,-0 -5.382,-0.521 -6.944,-1.563c-1.519,-1.085 -3.429,-3.125 -5.729,-6.076c-0.933,-1.389 -2.561,-2.539 -4.861,-3.472c-0.933,-0.391 -1.736,-1.324 -2.431,-2.778c-0.651,-1.497 -0.955,-2.799 -0.955,-3.906c0,-0.912 0.261,-1.649 0.782,-2.17c0.52,-0.565 1.779,-1.172 3.819,-1.823c1.497,-2.301 2.648,-3.928 3.472,-4.861c0.803,-0.912 1.932,-1.78 3.386,-2.604c2.951,-1.498 6.098,-2.257 9.461,-2.257c2.431,-0 4.818,0.759 7.205,2.257c2.366,1.454 4.297,3.363 5.816,5.729c1.563,2.387 2.344,4.991 2.344,7.812c0,4.167 -1.476,7.856 -4.427,11.024c-2.951,3.125 -6.597,4.688 -10.938,4.688Zm-3.385,-10.069c1.736,-0 3.299,-0.652 4.688,-1.997c1.432,-1.389 2.17,-2.951 2.17,-4.687c-0,-1.324 -0.499,-2.431 -1.476,-3.299c-0.933,-0.912 -2.062,-1.389 -3.385,-1.389c-1.737,0 -3.386,0.933 -4.948,2.778c-1.563,1.801 -2.344,3.646 -2.344,5.555c-0,0.934 0.694,1.693 2.083,2.257c1.433,0.521 2.518,0.782 3.212,0.782Z" style="fill-rule:nonzero;"/></g></g></g><g><g><g><path d="M1468.96,164.002c-2.04,0 -3.798,-0.89 -5.295,-2.691c-1.454,-1.844 -3.19,-5.577 -5.209,-11.198c-0.52,-1.497 -1.692,-3.342 -3.472,-5.555c-1.736,-2.257 -3.342,-4.167 -4.774,-5.729c-0,-0.977 0.716,-1.693 2.17,-2.171c1.497,-0.455 2.713,-0.694 3.646,-0.694c3.646,-0 6.857,0.564 9.635,1.649c2.821,1.042 5.143,2.995 6.945,5.816c1.953,2.952 3.298,5.382 3.993,7.292c0.694,1.866 1.041,3.537 1.041,5.035c0,2.148 -0.954,4.058 -2.864,5.729c-1.866,1.692 -3.798,2.517 -5.816,2.517Zm-43.403,-23.351c0.391,-1.779 1.736,-2.908 3.993,-3.385c2.3,-0.456 4.123,-0.694 5.469,-0.694c3.754,-0 6.706,0.868 8.854,2.604c2.192,1.736 3.95,4.232 5.295,7.465c1.085,2.148 2.17,4.036 3.212,5.642c1.085,1.628 2.365,3.603 3.819,5.903c0.391,0.521 0.608,1.194 0.608,1.997c0,2.148 -0.781,3.624 -2.344,4.427c-1.519,0.824 -3.211,1.215 -5.121,1.215c-1.736,0 -3.451,-0.434 -5.122,-1.302c-1.692,-0.868 -3.19,-1.758 -4.514,-2.691c-1.801,-1.497 -3.298,-3.168 -4.513,-5.035c-1.172,-1.909 -2.084,-3.863 -2.778,-5.903c-1.346,-4.036 -3.624,-7.465 -6.858,-10.243Zm-81.337,9.462c0,-1.909 0.478,-3.559 1.476,-4.948c1.042,-1.432 2.214,-2.691 3.559,-3.732c1.736,-1.498 3.668,-2.453 5.816,-2.865c2.192,-0.391 4.362,-0.608 6.51,-0.608c6.706,0 13.217,1.02 19.532,3.039c6.358,2.04 12.435,4.731 18.229,8.073c5.903,3.363 10.699,7.118 14.41,11.284c3.689,4.167 5.555,9.961 5.555,17.361c0,2.431 -0.347,4.666 -1.042,6.684c-0.651,2.04 -1.866,3.972 -3.645,5.816c-3.473,3.82 -7.553,5.73 -12.24,5.73c-1.519,-0 -3.016,-0.131 -4.514,-0.434c-1.454,-0.283 -2.93,-0.695 -4.427,-1.216c-2.561,-1.085 -4.666,-2.43 -6.337,-3.993c-1.692,-1.606 -3.949,-4.34 -6.771,-8.16c-2.56,-3.472 -5.62,-6.64 -9.201,-9.548c-3.537,-2.886 -7.183,-5.469 -10.938,-7.726c-1.215,-0.803 -2.864,-1.844 -4.947,-3.125c-2.084,-1.324 -4.059,-2.647 -5.903,-3.993c-1.801,-1.324 -3.038,-2.344 -3.733,-3.038c-0.933,-1.042 -1.389,-2.561 -1.389,-4.601Zm33.334,157.639c-5.274,0 -10.591,-0.564 -15.973,-1.649c-5.382,-1.107 -10.46,-2.93 -15.191,-5.469c-3.776,-2.148 -7.161,-4.97 -10.156,-8.507c-3.016,-3.581 -4.514,-7.66 -4.514,-12.239c0,-3.755 0.89,-7.249 2.691,-10.504c1.845,-3.233 4.905,-4.861 9.202,-4.861c1.497,-0 2.973,0.304 4.427,0.868c1.497,0.521 2.908,1.107 4.253,1.736c1.845,0.825 3.733,1.563 5.643,2.257c1.909,0.651 3.928,0.955 6.076,0.955c4.384,-0 9.31,-1.129 14.757,-3.385c5.49,-2.301 10.981,-5.209 16.493,-8.681c5.49,-3.472 10.677,-7.075 15.538,-10.851c4.861,-3.819 8.963,-7.118 12.327,-9.896c7.682,-6.77 14.93,-13.932 21.701,-21.527c6.771,-7.574 12.934,-15.669 18.489,-24.306c0.803,-1.389 1.997,-3.255 3.56,-5.642c1.605,-2.431 3.255,-5.035 4.947,-7.813c1.737,-2.778 3.299,-5.338 4.688,-7.725c1.389,-2.431 2.279,-4.297 2.691,-5.643c0.694,-1.779 1.237,-2.973 1.649,-3.559c0.391,-0.629 0.998,-0.955 1.823,-0.955c1.042,0 1.693,0.521 1.997,1.563c0.282,0.998 0.434,1.888 0.434,2.691l-0,4.253c-0,1.346 0.043,2.735 0.173,4.167c0.109,1.389 0.261,2.843 0.434,4.34c0.217,3.364 0.434,6.749 0.608,10.156c0.217,3.429 0.347,6.901 0.347,10.417c0,8.854 -0.651,16.754 -1.91,23.698c-1.28,6.944 -3.515,13.542 -6.684,19.792c-3.125,6.25 -7.595,12.825 -13.368,19.705c-6.076,7.248 -12.239,13.541 -18.489,18.923c-6.25,5.382 -13.021,9.961 -20.313,13.715c-7.248,3.776 -15.429,7.118 -24.566,10.07c-3.776,1.215 -7.639,2.17 -11.632,2.864c-3.949,0.695 -7.986,1.042 -12.152,1.042Zm3.819,-67.882c-2.322,0 -4.948,-0.521 -7.899,-1.562c-2.952,-1.085 -7.596,-3.733 -13.889,-7.9c-2.604,-1.606 -5.729,-2.864 -9.375,-3.732c-3.603,-0.868 -6.945,-1.563 -10.07,-2.084c-3.472,-0.564 -7.009,-1.345 -10.59,-2.343c-3.537,-0.977 -6.467,-2.344 -8.767,-4.08c-2.257,-1.78 -3.386,-4.167 -3.386,-7.118c0,-4.275 1.671,-7.683 5.035,-10.243c3.342,-2.604 7.899,-4.427 13.629,-5.469c5.729,-1.085 11.935,-1.649 18.663,-1.649c4.166,-0 8.29,0.238 12.413,0.694c4.102,0.478 8.029,1.389 11.805,2.778c2.648,0.933 5.079,2.213 7.292,3.819c2.257,1.628 4.34,3.429 6.25,5.382c1.845,2.214 3.386,4.905 4.601,8.073c1.215,3.125 1.823,6.12 1.823,8.941c-0,2.431 -0.781,4.926 -2.344,7.465c-1.519,2.561 -3.602,4.688 -6.25,6.424c-2.604,1.736 -5.599,2.604 -8.941,2.604Z" style="fill-rule:nonzero;"/></g></g></g><g><g><clipPath id="_clip35"><path d="M551.194,280.425l5.013,0.131l-1.758,68.511l-5.035,-0.13l1.78,-68.512Z"/></clipPath><g clip-path="url(#_clip35)"><g><clipPath id="_clip36"><path d="M556.098,281.641c-1.671,51.606 -2.387,64.865 -3.884,66.623c-0.391,0.694 -1.65,-0.412 -1.65,-0.412l1.823,0.412c-0.173,-0 -1.476,0.673 -1.823,-0.412c-1.041,-2.171 2.04,-15.365 2.648,-24.675c0.868,-12.174 -0.651,-38.39 1.063,-41.58c0.391,-1.063 1.823,0.044 1.823,0.044"/></clipPath><g clip-path="url(#_clip36)"><path d="M545.334,267.014l18.62,0.477l-2.452,95.725l-18.62,-0.477l2.452,-95.725Z" style="fill:#fff;fill-rule:nonzero;"/></g></g></g></g></g><g><g><clipPath id="_clip37"><path d="M795.052,274.262l5.382,0.13l-1.888,73.633l-5.382,-0.152l1.888,-73.611Z"/></clipPath><g clip-path="url(#_clip37)"><g><clipPath id="_clip38"><path d="M800.347,275.586c-1.823,55.447 -2.582,69.683 -4.21,71.571c-0.412,0.76 -1.758,-0.434 -1.758,-0.434l1.953,0.434c-0.195,0 -1.584,0.738 -1.953,-0.434c-1.106,-2.344 2.192,-16.515 2.843,-26.519c0.933,-13.086 -0.694,-41.254 1.15,-44.683c0.434,-1.129 1.975,0.065 1.975,0.065"/></clipPath><g clip-path="url(#_clip38)"><path d="M788.78,259.874l19.987,0.499l-2.626,102.843l-20.008,-0.499l2.647,-102.843Z" style="fill:#fff;fill-rule:nonzero;"/></g></g></g></g></g><g><g><g><path d="M1113.17,225.68c-5.382,0 -11.241,-0.738 -17.534,-2.257c-6.315,-1.562 -11.762,-4.362 -16.32,-8.42c-1.736,-1.497 -3.363,-3.407 -4.861,-5.729c-1.519,-2.365 -2.257,-4.774 -2.257,-7.205c0,-1.736 0.391,-3.385 1.215,-4.948c0.803,-1.562 2.106,-2.343 3.907,-2.343c0.803,-0 2.278,0.217 4.427,0.607c0.521,0.174 1.259,0.326 2.257,0.434c1.041,0.13 1.758,0.174 2.17,0.174c0.803,-0 2.604,-0.109 5.382,-0.347c2.821,-0.283 5.338,-0.478 7.552,-0.608c3.581,-0.282 7.161,-0.695 10.764,-1.215c3.581,-0.565 7.161,-1.129 10.764,-1.65c6.076,-0.911 12.695,-1.757 19.878,-2.517c7.227,-0.738 14.497,-1.389 21.788,-1.91c7.335,-0.521 14.345,-0.911 21.007,-1.215c6.641,-0.282 12.414,-0.434 17.275,-0.434c4.036,-0 8.767,0.174 14.149,0.521c5.382,0.347 10.59,1.258 15.625,2.691c5.035,1.389 9.201,3.711 12.5,6.944c3.299,3.19 4.948,7.682 4.948,13.455c-0,3.82 -1.085,6.836 -3.212,9.028c-2.148,2.213 -4.839,3.798 -8.073,4.774c-3.255,0.933 -6.489,1.389 -9.722,1.389c-3.19,0 -6.38,-0.108 -9.549,-0.347c-3.19,-0.282 -6.38,-0.521 -9.548,-0.695c-4.232,-0.108 -8.399,-0.195 -12.5,-0.26c-4.058,-0.043 -8.16,-0.087 -12.327,-0.087c-6.488,0 -13.151,0.13 -19.965,0.347c-6.771,0.174 -13.368,0.391 -19.792,0.608c-5.968,0.304 -11.501,0.586 -16.58,0.868c-5.099,0.239 -9.548,0.347 -13.368,0.347Z" style="fill-rule:nonzero;"/></g></g></g><g><g><clipPath id="_clip39"><path d="M1038.76,274.262l5.382,0.13l-1.888,73.633l-5.382,-0.152l1.888,-73.611Z"/></clipPath><g clip-path="url(#_clip39)"><g><clipPath id="_clip40"><path d="M1044.05,275.586c-1.823,55.447 -2.583,69.683 -4.21,71.571c-0.413,0.76 -1.758,-0.434 -1.758,-0.434l1.953,0.434c-0.195,0 -1.584,0.738 -1.953,-0.434c-1.107,-2.344 2.192,-16.515 2.843,-26.519c0.933,-13.086 -0.695,-41.254 1.15,-44.683c0.434,-1.129 1.975,0.065 1.975,0.065"/></clipPath><g clip-path="url(#_clip40)"><path d="M1032.49,259.874l19.987,0.499l-2.626,102.843l-20.009,-0.499l2.648,-102.843Z" style="fill:#fff;fill-rule:nonzero;"/></g></g></g></g></g></svg>