<?xml version="1.0" encoding="UTF-8" standalone="no"?><!DOCTYPE svg PUBLIC "-//W3C//DTD SVG 1.1//EN" "http://www.w3.org/Graphics/SVG/1.1/DTD/svg11.dtd"><svg width="100%" height="100%" viewBox="0 0 5692 380" version="1.1" xmlns="http://www.w3.org/2000/svg" xmlns:xlink="http://www.w3.org/1999/xlink" xml:space="preserve" xmlns:serif="http://www.serif.com/" style="fill-rule:evenodd;clip-rule:evenodd;stroke-linejoin:round;stroke-miterlimit:2;"><g><clipPath id="_clip1"><rect x="303.494" y="61.111" width="249.891" height="295.443"/></clipPath><g clip-path="url(#_clip1)"><path d="M780.078,61.48c0,0 -728.125,-0.022 -728.233,-0.022c0.108,7.183 1.974,98.85 1.909,106.793c-0.152,21.897 -1.888,48.589 -2.994,70.464c-0.5,9.831 -8.312,93.229 -15.105,103.668c0.022,-0.022 125.868,15.885 249.067,7.508c2.908,-16.948 9.05,-34.288 11.502,-51.258c2.713,-19.466 6.272,-36.871 6.619,-56.489c0.564,-32.313 -1.129,-58.941 -1.15,-93.077c-0,-1.758 2.56,-1.932 2.756,-0.174c3.928,33.29 4.969,24.848 8.051,85.829c1.801,36.003 -2.843,77.149 -4.687,113.433c121.093,14.432 140.082,12.696 248.546,-3.19c-3.711,-36.154 -3.494,-69.357 -3.473,-105.534c0.109,-50.694 -2.278,-56.575 -0.564,-96.289c0.087,-1.801 1.215,-1.779 1.324,0.022c2.192,35.352 2.018,60.916 6.467,93.468c2.582,19.423 3.602,40.668 6.836,59.961c2.908,17.014 12.022,47.179 12.087,47.179c106.88,-0 112.566,4.492 219.445,4.492c-7.747,-17.144 -14.735,-125.347 -15.126,-134.787c-0.282,-6.316 -3.798,-131.684 -3.277,-151.997" style="fill:#c40000;fill-rule:nonzero;"/></g></g><g><clipPath id="_clip2"><rect x="303.494" y="36.393" width="249.891" height="11.35"/></clipPath><g clip-path="url(#_clip2)"><path d="M836.892,47.418l-841.948,-0l-0,-9.701l841.948,0l0,9.701" style="fill:#d4983d;fill-rule:nonzero;"/></g></g><g><clipPath id="_clip3"><rect x="303.494" y="25.043" width="249.891" height="15.126"/></clipPath><g clip-path="url(#_clip3)"><path d="M836.892,39.583l-841.948,0l-0,-13.151l841.948,0l0,13.151" style="fill:#d4983d;fill-rule:nonzero;"/></g></g><g><clipPath id="_clip4"><rect x="303.494" y="19.227" width="24.284" height="52.995"/></clipPath><g clip-path="url(#_clip4)"><path d="M323.155,70.443l-42.838,-0l-0,-51.064l42.838,0l0,51.064" style="fill:#c40000;fill-rule:nonzero;"/></g></g><g><path d="M551.541,70.443l-42.839,-0l0,-51.064l42.839,0l-0,51.064" style="fill:#c40000;fill-rule:nonzero;"/></g><g><path d="M548.893,66.341l-37.695,0l-0,-46.962l37.695,0l0,46.962" style="fill:#c40000;fill-rule:nonzero;"/></g><g><clipPath id="_clip5"><rect x="303.494" y="19.227" width="18.728" height="47.439"/></clipPath><g clip-path="url(#_clip5)"><path d="M320.486,66.341l-37.695,0l-0,-46.962l37.695,0l0,46.962" style="fill:#c40000;fill-rule:nonzero;"/></g></g><g><clipPath id="_clip6"><rect x="1037.89" y="61.111" width="245.443" height="295.443"/></clipPath><g clip-path="url(#_clip6)"><path d="M1264.65,61.48c0,0 -728.125,-0.022 -728.233,-0.022c0.108,7.183 1.975,98.85 1.91,106.793c-0.152,21.897 -1.888,48.589 -2.995,70.464c-0.499,9.831 -8.312,93.229 -15.104,103.668c0.021,-0.022 125.868,15.885 249.067,7.508c2.908,-16.948 9.071,-34.288 11.501,-51.258c2.713,-19.466 6.272,-36.871 6.619,-56.489c0.564,-32.313 -1.128,-58.941 -1.15,-93.077c0,-1.758 2.561,-1.932 2.756,-0.174c3.928,33.29 4.991,24.848 8.051,85.829c1.802,36.003 -2.843,77.149 -4.687,113.433c121.094,14.432 140.104,12.696 248.546,-3.19c-3.711,-36.154 -3.494,-69.357 -3.472,-105.534c0.13,-50.694 -2.279,-56.575 -0.565,-96.289c0.087,-1.801 1.216,-1.779 1.346,0.022c2.17,35.352 1.996,60.916 6.467,93.468c2.561,19.423 3.581,40.668 6.814,59.961c2.908,17.014 12.023,47.179 12.088,47.179c106.879,-0 112.565,4.492 219.444,4.492c-7.747,-17.144 -14.713,-125.347 -15.126,-134.787c-0.282,-6.316 -3.797,-131.684 -3.277,-151.997" style="fill:#c40000;fill-rule:nonzero;"/></g></g><g><clipPath id="_clip7"><rect x="1037.89" y="36.393" width="282.899" height="11.35"/></clipPath><g clip-path="url(#_clip7)"><path d="M1321.48,47.418l-841.948,-0l-0,-9.701l841.948,0l0,9.701" style="fill:#d4983d;fill-rule:nonzero;"/></g></g><g><clipPath id="_clip8"><rect x="1037.89" y="25.043" width="282.899" height="15.126"/></clipPath><g clip-path="url(#_clip8)"><path d="M1321.48,39.583l-841.948,0l-0,-13.151l841.948,0l0,13.151" style="fill:#d4983d;fill-rule:nonzero;"/></g></g><g><path d="M1264.52,70.443l-42.838,-0l-0,-51.064l42.838,0l0,51.064" style="fill:#c40000;fill-rule:nonzero;"/></g><g><path d="M1261.89,66.341l-37.717,0l0,-46.962l37.717,0l0,46.962" style="fill:#c40000;fill-rule:nonzero;"/></g><g><clipPath id="_clip9"><rect x="39.692" y="61.111" width="268.49" height="295.443"/></clipPath><g clip-path="url(#_clip9)"><path d="M785.135,61.48c-0,0 -728.147,-0.022 -728.256,-0.022c0.109,7.183 1.997,98.85 1.932,106.793c-0.152,21.897 -1.91,48.589 -3.017,70.464c-0.499,9.831 -8.29,93.229 -15.082,103.668c-0,-0.022 125.846,15.885 249.067,7.508c2.886,-16.948 9.049,-34.288 11.501,-51.258c2.691,-19.466 6.25,-36.871 6.598,-56.489c0.586,-32.313 -1.107,-58.941 -1.129,-93.077c0,-1.758 2.539,-1.932 2.756,-0.174c3.928,33.29 4.97,24.848 8.051,85.829c1.802,36.003 -2.842,77.149 -4.709,113.433c121.116,14.432 140.104,12.696 248.546,-3.19c-3.689,-36.154 -3.494,-69.357 -3.45,-105.534c0.108,-50.694 -2.279,-56.575 -0.565,-96.289c0.066,-1.801 1.216,-1.779 1.324,0.022c2.17,35.352 2.018,60.916 6.467,93.468c2.561,19.423 3.581,40.668 6.836,59.961c2.886,17.014 12.001,47.179 12.088,47.179c106.879,-0 112.543,4.492 219.423,4.492c-7.726,-17.144 -14.714,-125.347 -15.126,-134.787c-0.261,-6.316 -3.798,-131.684 -3.255,-151.997" style="fill:#c40000;fill-rule:nonzero;"/></g></g><g><clipPath id="_clip10"><rect x="0" y="36.393" width="308.181" height="11.35"/></clipPath><g clip-path="url(#_clip10)"><path d="M841.949,47.418l-841.949,-0l0,-9.701l841.949,0l-0,9.701" style="fill:#d4983d;fill-rule:nonzero;"/></g></g><g><clipPath id="_clip11"><rect x="0" y="25.043" width="308.181" height="15.126"/></clipPath><g clip-path="url(#_clip11)"><path d="M841.949,39.583l-841.949,0l0,-13.151l841.949,0l-0,13.151" style="fill:#d4983d;fill-rule:nonzero;"/></g></g><g><path d="M99.805,70.443l-42.839,-0l0,-51.064l42.839,0l-0,51.064" style="fill:#c40000;fill-rule:nonzero;"/></g><g><clipPath id="_clip12"><rect x="283.333" y="19.227" width="24.848" height="52.995"/></clipPath><g clip-path="url(#_clip12)"><path d="M328.19,70.443l-42.838,-0l-0,-51.064l42.838,0l0,51.064" style="fill:#c40000;fill-rule:nonzero;"/></g></g><g><path d="M97.135,66.341l-37.695,0l0,-46.962l37.695,0l0,46.962" style="fill:#c40000;fill-rule:nonzero;"/></g><g><clipPath id="_clip13"><rect x="283.333" y="19.227" width="24.848" height="47.439"/></clipPath><g clip-path="url(#_clip13)"><path d="M325.543,66.341l-37.696,0l0,-46.962l37.696,0l-0,46.962" style="fill:#c40000;fill-rule:nonzero;"/></g></g><g><clipPath id="_clip14"><rect x="547.266" y="61.111" width="249.87" height="295.443"/></clipPath><g clip-path="url(#_clip14)"><path d="M1023.85,61.48c-0,0 -728.125,-0.022 -728.234,-0.022c0.109,7.183 1.975,98.85 1.91,106.793c-0.152,21.897 -1.888,48.589 -3.016,70.464c-0.478,9.831 -8.29,93.229 -15.083,103.668c0.022,-0.022 125.846,15.885 249.067,7.508c2.908,-16.948 9.049,-34.288 11.502,-51.258c2.691,-19.466 6.271,-36.871 6.619,-56.489c0.564,-32.313 -1.129,-58.941 -1.151,-93.077c0,-1.758 2.539,-1.932 2.756,-0.174c3.928,33.29 4.97,24.848 8.052,85.829c1.801,36.003 -2.843,77.149 -4.709,113.433c121.115,14.432 140.104,12.696 248.567,-3.19c-3.711,-36.154 -3.494,-69.357 -3.472,-105.534c0.108,-50.694 -2.279,-56.575 -0.564,-96.289c0.065,-1.801 1.215,-1.779 1.324,0.022c2.191,35.352 2.018,60.916 6.467,93.468c2.56,19.423 3.602,40.668 6.835,59.961c2.908,17.014 12.023,47.179 12.088,47.179c106.88,-0 112.565,4.492 219.445,4.492c-7.748,-17.144 -14.736,-125.347 -15.126,-134.787c-0.282,-6.316 -3.798,-131.684 -3.277,-151.997" style="fill:#c40000;fill-rule:nonzero;"/></g></g><g><clipPath id="_clip15"><rect x="547.266" y="36.393" width="249.87" height="11.35"/></clipPath><g clip-path="url(#_clip15)"><path d="M1080.66,47.418l-841.949,-0l0,-9.701l841.949,0l0,9.701" style="fill:#d4983d;fill-rule:nonzero;"/></g></g><g><clipPath id="_clip16"><rect x="547.266" y="25.043" width="249.87" height="15.126"/></clipPath><g clip-path="url(#_clip16)"><path d="M1080.66,39.583l-841.949,0l0,-13.151l841.949,0l0,13.151" style="fill:#d4983d;fill-rule:nonzero;"/></g></g><g><clipPath id="_clip17"><rect x="547.266" y="19.227" width="24.957" height="52.995"/></clipPath><g clip-path="url(#_clip17)"><path d="M566.905,70.443l-42.816,-0l-0,-51.064l42.816,0l0,51.064" style="fill:#c40000;fill-rule:nonzero;"/></g></g><g><path d="M795.313,70.443l-42.839,-0l-0,-51.064l42.839,0l-0,51.064" style="fill:#c40000;fill-rule:nonzero;"/></g><g><path d="M792.665,66.341l-37.695,0l-0,-46.962l37.695,0l-0,46.962" style="fill:#c40000;fill-rule:nonzero;"/></g><g><clipPath id="_clip18"><rect x="547.266" y="19.227" width="19.401" height="47.439"/></clipPath><g clip-path="url(#_clip18)"><path d="M564.258,66.341l-37.696,0l0,-46.962l37.696,0l-0,46.962" style="fill:#c40000;fill-rule:nonzero;"/></g></g><g><clipPath id="_clip19"><rect x="791.037" y="61.111" width="249.87" height="295.443"/></clipPath><g clip-path="url(#_clip19)"><path d="M1267.62,61.48c-0,0 -728.147,-0.022 -728.234,-0.022c0.087,7.183 1.975,98.85 1.91,106.793c-0.152,21.897 -1.888,48.589 -3.017,70.464c-0.499,9.831 -8.29,93.229 -15.082,103.668c-0,-0.022 125.846,15.885 249.067,7.508c2.908,-16.948 9.049,-34.288 11.501,-51.258c2.691,-19.466 6.272,-36.871 6.619,-56.489c0.565,-32.313 -1.128,-58.941 -1.15,-93.077c0,-1.758 2.539,-1.932 2.756,-0.174c3.928,33.29 4.97,24.848 8.051,85.829c1.802,36.003 -2.842,77.149 -4.709,113.433c121.116,14.432 140.104,12.696 248.568,-3.19c-3.711,-36.154 -3.516,-69.357 -3.472,-105.534c0.108,-50.694 -2.279,-56.575 -0.565,-96.289c0.066,-1.801 1.216,-1.779 1.324,0.022c2.192,35.352 2.018,60.916 6.467,93.468c2.561,19.423 3.603,40.668 6.836,59.961c2.908,17.014 12.023,47.179 12.088,47.179c106.879,-0 112.565,4.492 219.444,4.492c-7.747,-17.144 -14.735,-125.347 -15.147,-134.787c-0.261,-6.316 -3.776,-131.684 -3.255,-151.997" style="fill:#c40000;fill-rule:nonzero;"/></g></g><g><clipPath id="_clip20"><rect x="791.037" y="36.393" width="249.87" height="11.35"/></clipPath><g clip-path="url(#_clip20)"><path d="M1324.44,47.418l-841.949,-0l-0,-9.701l841.949,0l-0,9.701" style="fill:#d4983d;fill-rule:nonzero;"/></g></g><g><clipPath id="_clip21"><rect x="791.037" y="25.043" width="249.87" height="15.126"/></clipPath><g clip-path="url(#_clip21)"><path d="M1324.44,39.583l-841.949,0l-0,-13.151l841.949,0l-0,13.151" style="fill:#d4983d;fill-rule:nonzero;"/></g></g><g><clipPath id="_clip22"><rect x="791.037" y="19.227" width="20.074" height="52.995"/></clipPath><g clip-path="url(#_clip22)"><path d="M810.677,70.443l-42.838,-0l-0,-51.064l42.838,0l0,51.064" style="fill:#c40000;fill-rule:nonzero;"/></g></g><g><path d="M1039.08,70.443l-42.838,-0l-0,-51.064l42.838,0l0,51.064" style="fill:#c40000;fill-rule:nonzero;"/></g><g><path d="M1036.44,66.341l-37.696,0l0,-46.962l37.696,0l-0,46.962" style="fill:#c40000;fill-rule:nonzero;"/></g><g><clipPath id="_clip23"><rect x="791.037" y="19.227" width="20.074" height="47.439"/></clipPath><g clip-path="url(#_clip23)"><path d="M808.03,66.341l-37.696,0l0,-46.962l37.696,0l-0,46.962" style="fill:#c40000;fill-rule:nonzero;"/></g></g><g><clipPath id="_clip24"><rect x="95.768" y="19.227" width="20.812" height="66.623"/></clipPath><g clip-path="url(#_clip24)"><rect x="97.244" y="-131.532" width="217.773" height="217.795" style="fill:#c40000;fill-rule:nonzero;"/><path d="M315.017,87.717l-217.773,0c-0.825,0 -1.476,-0.629 -1.476,-1.454l0,-217.795c0,-0.825 0.651,-1.476 1.476,-1.476l217.773,0c0.825,0 1.476,0.651 1.476,1.476l0,217.795c0,0.825 -0.651,1.454 -1.476,1.454Zm-216.319,-2.93l214.844,0l-0,-214.843l-214.844,-0l-0,214.843Z" style="fill:#c40000;fill-rule:nonzero;"/></g></g><g><clipPath id="_clip25"><rect x="318.012" y="19.227" width="20.812" height="66.623"/></clipPath><g clip-path="url(#_clip25)"><rect x="319.466" y="-131.532" width="217.795" height="217.795" style="fill:#c40000;fill-rule:nonzero;"/><path d="M537.261,87.717l-217.795,0c-0.825,0 -1.454,-0.629 -1.454,-1.454l0,-217.795c0,-0.825 0.629,-1.476 1.454,-1.476l217.795,0c0.825,0 1.476,0.651 1.476,1.476l-0,217.795c-0,0.825 -0.651,1.454 -1.476,1.454Zm-216.319,-2.93l214.844,0l-0,-214.843l-214.844,-0l-0,214.843Z" style="fill:#c40000;fill-rule:nonzero;"/></g></g><g><clipPath id="_clip26"><rect x="1034.25" y="19.227" width="20.833" height="66.623"/></clipPath><g clip-path="url(#_clip26)"><rect x="1035.72" y="-131.532" width="217.795" height="217.795" style="fill:#c40000;fill-rule:nonzero;"/><path d="M1253.52,87.717l-217.796,0c-0.824,0 -1.475,-0.629 -1.475,-1.454l-0,-217.795c-0,-0.825 0.651,-1.476 1.475,-1.476l217.796,0c0.824,0 1.454,0.651 1.454,1.476l-0,217.795c-0,0.825 -0.63,1.454 -1.454,1.454Zm-216.32,-2.93l214.844,0l-0,-214.843l-214.844,-0l0,214.843Z" style="fill:#c40000;fill-rule:nonzero;"/></g></g><g><clipPath id="_clip27"><rect x="1203.21" y="19.227" width="20.833" height="66.623"/></clipPath><g clip-path="url(#_clip27)"><rect x="1204.69" y="-131.532" width="217.795" height="217.795" style="fill:#c40000;fill-rule:nonzero;"/><path d="M1422.48,87.717l-217.795,0c-0.825,0 -1.476,-0.629 -1.476,-1.454l-0,-217.795c-0,-0.825 0.651,-1.476 1.476,-1.476l217.795,0c0.824,0 1.454,0.651 1.454,1.476l-0,217.795c-0,0.825 -0.63,1.454 -1.454,1.454Zm-216.32,-2.93l214.844,0l-0,-214.843l-214.844,-0l0,214.843Z" style="fill:#c40000;fill-rule:nonzero;"/></g></g><g><path d="M272.331,160.851c-0,-0.022 -0.022,-0.044 -0.044,-0.065c-1.193,-2.322 -2.908,-4.167 -5.165,-5.534c-2.235,-1.367 -4.665,-2.04 -7.291,-2.04l-59.744,-0l-0,-4.688l65.191,0l-5.035,-6.185c-4.861,-5.989 -10.308,-11.349 -16.384,-16.124c-6.055,-4.752 -12.566,-8.789 -19.532,-12.109c-6.966,-3.299 -14.192,-5.794 -21.723,-7.487c-7.53,-1.693 -15.126,-2.517 -22.851,-2.517c-57.249,-0 -103.82,46.592 -103.82,103.841c0,9.266 1.215,18.381 3.646,27.343c0.26,0.999 0.868,1.78 1.78,2.301c0.911,0.521 1.866,0.629 2.886,0.369c0.998,-0.282 1.779,-0.868 2.278,-1.78c0.521,-0.911 0.651,-1.888 0.369,-2.886c-2.257,-8.312 -3.385,-16.754 -3.385,-25.347c-0,-53.082 43.186,-96.246 96.246,-96.246c11.979,-0.022 23.546,2.105 34.722,6.424c11.154,4.318 21.18,10.503 30.013,18.576c1.519,1.367 -110.048,8.572 -110.048,8.572l0,3.255l24.631,0l0,4.688l-24.631,-0l0,3.255c0,0 10.07,-0.108 24.631,0.065l0,19.857c0,30.425 -24.761,55.187 -55.186,55.187c-0.76,-0.022 -1.411,0.238 -1.954,0.759c-0.564,0.543 -0.824,1.172 -0.824,1.953c-0,0.76 0.26,1.411 0.824,1.932c0.543,0.542 1.194,0.781 1.954,0.759c8.116,0.022 15.928,-1.541 23.415,-4.687c-0.911,0.824 -1.15,1.823 -0.694,2.973c0.434,1.15 1.28,1.714 2.517,1.714c22.765,0 41.298,-27.17 41.298,-60.59l0,-19.662l0.499,0l0,19.662c0,31.575 -8.746,55.187 -16.58,55.187c-0.738,0.021 -1.345,0.282 -1.866,0.824c-0.521,0.521 -0.76,1.15 -0.76,1.888c0,0.716 0.239,1.346 0.76,1.888c0.521,0.521 1.128,0.781 1.866,0.803c14.301,0 22.005,-31.206 22.005,-60.59l0,-19.531l0.521,0.021l0,77.409c0,0.738 0.261,1.389 0.782,1.91c0.542,0.521 1.171,0.781 1.931,0.781c0.738,0 1.367,-0.26 1.91,-0.781c0.521,-0.521 0.781,-1.172 0.781,-1.91l-0,-77.257l0.521,0.022l-0,19.336c-0,29.384 7.704,60.59 22.005,60.59c0.738,-0.022 1.345,-0.282 1.866,-0.803c0.521,-0.542 0.76,-1.172 0.76,-1.888c-0,-0.738 -0.239,-1.367 -0.76,-1.888c-0.521,-0.542 -1.128,-0.803 -1.866,-0.824c-7.834,-0 -16.58,-23.612 -16.58,-55.187l0,-19.141l0.499,0.022l0,19.141c0,33.398 18.533,60.59 41.298,60.59c1.237,-0 2.083,-0.564 2.539,-1.736c0.456,-1.15 0.217,-2.149 -0.694,-2.973c7.487,3.125 15.277,4.709 23.394,4.687c0.759,0.022 1.41,-0.239 1.953,-0.759c0.564,-0.543 0.825,-1.172 0.825,-1.954c-0,-0.759 -0.261,-1.41 -0.825,-1.931c-0.543,-0.542 -1.194,-0.781 -1.953,-0.759c-30.426,-0 -55.187,-24.762 -55.187,-55.187l0,-18.62c26.085,1.346 52.083,3.993 61.415,9.223c12.782,7.14 14.54,26.15 14.54,40.951c-0,4.904 -0.369,9.787 -1.107,14.626c-0.738,4.862 -1.844,9.636 -3.32,14.323c-1.476,4.688 -3.277,9.223 -5.447,13.629c-2.17,4.405 -4.666,8.615 -7.487,12.652c-2.821,4.014 -5.925,7.812 -9.31,11.35c-3.407,3.537 -7.053,6.814 -10.938,9.809c-3.906,2.973 -8.007,5.642 -12.304,8.007c-4.319,2.366 -8.768,4.384 -13.39,6.055l-0.043,0c-1.65,0.608 -2.995,1.628 -4.015,3.082c-1.02,1.454 -1.541,3.081 -1.541,4.839l0,2.018c0,0.89 -0.304,1.671 -0.955,2.301c-0.629,0.629 -1.389,0.955 -2.3,0.955l-48.199,-0c-0.911,-0 -1.671,-0.326 -2.3,-0.955c-0.651,-0.63 -0.955,-1.411 -0.955,-2.301l-0,-2.018c-0,-1.758 -0.521,-3.385 -1.541,-4.839c-1.02,-1.433 -2.365,-2.474 -4.015,-3.082l-0.065,0c-11.285,-4.101 -21.441,-10.091 -30.469,-17.99c-9.027,-7.921 -16.297,-17.188 -21.853,-27.822c-1.128,-2.148 0.478,-4.73 2.908,-4.73l162.565,-0c0.564,-0 1.107,-0.131 1.628,-0.369c0.521,-0.261 0.955,-0.608 1.324,-1.042c0.347,-0.456 0.607,-0.955 0.737,-1.519c0.131,-0.543 0.131,-1.107 0.022,-1.671c-0.369,-1.78 -2.018,-2.995 -3.819,-2.995l-163.737,0c-7.487,0 -12.348,7.878 -8.985,14.562l0.044,0.087c5.816,11.523 13.498,21.592 23.09,30.23c9.592,8.637 20.399,15.234 32.465,19.813c1.389,0.521 2.105,1.541 2.105,3.038l0,1.432c0,1.281 0.261,2.539 0.738,3.733c0.499,1.194 1.215,2.257 2.127,3.168c0.911,0.912 1.953,1.606 3.168,2.105c1.194,0.5 2.431,0.738 3.733,0.738l50.369,0c1.302,0 2.539,-0.238 3.733,-0.738c1.193,-0.499 2.257,-1.193 3.168,-2.105c0.911,-0.911 1.606,-1.974 2.105,-3.168c0.499,-1.194 0.738,-2.431 0.738,-3.733l-0,-1.432c0.022,-1.497 0.716,-2.517 2.127,-3.038c3.385,-1.302 6.705,-2.778 9.939,-4.405c3.233,-1.65 6.38,-3.473 9.418,-5.448c3.06,-1.953 5.99,-4.101 8.811,-6.38c2.821,-2.278 5.534,-4.687 8.095,-7.27c2.56,-2.56 4.991,-5.251 7.291,-8.073c2.279,-2.799 4.406,-5.729 6.402,-8.789c1.975,-3.038 3.798,-6.163 5.447,-9.396c1.65,-3.234 3.125,-6.554 4.427,-9.94c1.302,-3.385 2.431,-6.836 3.364,-10.329c0.955,-3.516 1.714,-7.053 2.279,-10.634c0.586,-3.603 0.955,-7.205 1.15,-10.829c0.195,-3.624 0.195,-7.248 0.022,-10.873c-0.196,-3.624 -0.565,-7.226 -1.129,-10.807c-0.564,-3.581 -1.324,-7.14 -2.257,-10.634c-0.933,-3.515 -2.04,-6.966 -3.342,-10.351c-1.302,-3.385 -2.778,-6.706 -4.405,-9.939Zm-77.67,-7.639l-0.52,-0l-0,-4.688l0.52,0l0,4.688Zm-30.164,-4.688l0.499,0l-0,4.688l-0.499,-0l-0,-4.688Zm0.499,27.865c-0,30.425 -16.081,55.187 -35.873,55.187l-0.217,-0c20.964,-9.527 35.591,-30.686 35.591,-55.187l-0,-19.77l0.499,-0l-0,19.77Zm5.425,-23.177l0,-4.688l0.521,0l-0,4.688l-0.521,-0Zm5.924,-0l0,-4.688l0.521,0l0,4.688l-0.521,-0Zm5.947,-0l-0,-4.688l0.499,0l-0,4.688l-0.499,-0Zm5.924,-0l0,-4.688l0.521,0l-0,4.688l-0.521,-0Zm42.036,78.364l-0.217,-0c-19.792,-0 -35.894,-24.762 -35.894,-55.187l-0,-18.902l0.52,0.022l0,18.88c0,24.501 14.605,45.66 35.591,55.187Z" style="fill-rule:nonzero;"/></g><g><rect x="1264.8" y="26.107" width="4424.09" height="22.439" style="fill:#d4983d;fill-rule:nonzero;"/></g><g><g><g><path d="M381.577,164.805c1.042,-0 3.473,-1.042 7.292,-3.125c3.863,-2.084 8.095,-4.471 12.674,-7.205c4.036,-2.257 8.984,-4.557 14.843,-6.944c5.838,-2.366 11.763,-4.384 17.796,-6.077c6.076,-1.671 11.393,-2.517 15.972,-2.517c3.754,-0 7.508,0.499 11.284,1.475c3.82,0.934 7.401,2.062 10.764,3.386c5.491,2.04 10.526,4.904 15.105,8.594c4.557,3.711 8.68,7.899 12.326,12.586c3.472,4.579 6.207,9.462 8.246,14.671c2.019,5.165 3.039,10.677 3.039,16.579c-0,3.125 -0.239,7.531 -0.695,13.195c-0.477,5.621 -1.107,11.61 -1.91,17.969c-0.824,6.315 -1.627,12.283 -2.43,17.882c-0.825,5.555 -1.628,9.874 -2.431,12.934c-0.694,3.255 -1.736,6.488 -3.125,9.722c-1.389,3.255 -3.298,5.989 -5.729,8.246c-1.345,1.216 -2.734,2.04 -4.166,2.431c-1.389,0.412 -2.995,0.608 -4.775,0.608c-4.579,-0 -9.158,-0.196 -13.715,-0.608c-4.579,-0.391 -9.158,-0.738 -13.715,-1.042c-4.579,-0.39 -9.267,-0.607 -14.063,-0.607c-3.949,-0 -7.899,0.26 -11.892,0.781c-3.95,0.477 -7.878,1.02 -11.806,1.649c-3.472,0.586 -7.031,1.129 -10.677,1.649c-3.646,0.521 -7.27,0.782 -10.851,0.782c-7.291,-0 -13.541,-1.259 -18.75,-3.82c-5.164,-2.539 -10.481,-5.903 -15.972,-10.069c-1.107,-0.803 -2.257,-1.671 -3.472,-2.604c-1.215,-0.977 -2.235,-1.932 -3.038,-2.865c-1.346,-1.736 -2.409,-3.494 -3.212,-5.295c-0.825,-1.845 -1.541,-3.733 -2.17,-5.642c-0.998,-2.648 -1.649,-5.317 -1.997,-7.987c-0.303,-2.712 -0.434,-5.425 -0.434,-8.159c0,-5.491 0.131,-10.981 0.434,-16.493c0.348,-5.491 0.521,-10.938 0.521,-16.32l0,-8.073c0,-2.712 0.022,-5.382 0.087,-7.986c0.109,-2.647 0.174,-5.252 0.174,-7.812c-0,-1.433 -0.261,-2.8 -0.782,-4.08c-0.477,-1.324 -1.02,-2.648 -1.649,-3.993c-0.825,-1.606 -1.606,-3.342 -2.344,-5.209c-0.759,-1.909 -1.128,-3.776 -1.128,-5.642c-0,-2.821 1.063,-5.555 3.212,-8.16c2.191,-2.647 4.774,-3.993 7.725,-3.993c2.539,0 5.317,0.695 8.334,2.084c3.06,1.345 5.859,3.038 8.42,5.121c2.539,2.084 4.427,4.297 5.642,6.597c1.215,2.257 2.214,3.386 3.038,3.386Zm5.035,27.604c-0.13,3.646 -0.239,7.27 -0.347,10.851c-0.065,3.537 -0.087,7.118 -0.087,10.764l0,5.642c0,2.843 0.022,5.946 0.087,9.288c0.108,3.364 0.26,6.467 0.434,9.288c0.217,2.843 0.391,4.861 0.521,6.077c0.108,0.651 0.477,1.345 1.128,2.083c0.695,0.76 1.389,1.129 2.084,1.129c1.085,-0 2.256,-0.196 3.472,-0.608c3.342,-1.085 7.14,-2.105 11.371,-3.038c4.21,-0.912 8.507,-1.823 12.847,-2.691c4.384,-0.868 8.356,-1.65 11.893,-2.344c3.863,-0.694 7.856,-1.237 11.979,-1.649c4.102,-0.391 8.095,-0.868 11.979,-1.389c1.91,-0.282 3.234,-1.932 3.993,-4.948c0.738,-2.995 1.584,-6.272 2.518,-9.809c0.629,-2.257 1.432,-5.339 2.43,-9.288c1.042,-3.993 2.04,-8.247 3.038,-12.761c1.042,-4.514 1.932,-8.68 2.691,-12.5c0.738,-3.863 1.129,-6.792 1.129,-8.767c-0,-1.498 -0.499,-2.886 -1.476,-4.167c-0.933,-1.258 -2.213,-1.91 -3.819,-1.91c-2.149,0 -4.579,0.652 -7.292,1.91c-2.669,1.281 -5.339,2.735 -7.986,4.34c-2.604,1.628 -4.84,2.952 -6.684,3.994c-5.686,3.537 -11.545,6.727 -17.622,9.548c-6.033,2.778 -12.543,4.167 -19.531,4.167c-4.687,-0 -9.071,-0.868 -13.108,-2.604c-1.909,-0.803 -3.276,-1.216 -4.079,-1.216c-0.239,0 -0.5,0.087 -0.782,0.261l-0.781,0.347Z" style="fill-rule:nonzero;"/></g></g></g><g><g><g><path d="M737.152,152.044c-2.322,-1.736 -4.145,-3.667 -5.469,-5.816c-1.345,-2.126 -2.756,-4.969 -4.253,-8.507c-1.454,-3.472 -3.342,-6.271 -5.643,-8.42c-0.52,-0.564 -0.781,-1.172 -0.781,-1.823c0,-1.779 0.825,-2.994 2.518,-3.645c1.671,-0.695 3.168,-1.042 4.513,-1.042c3.125,-0 5.469,0.586 7.032,1.736c1.606,1.172 3.428,3.429 5.468,6.771c1.78,2.843 3.234,5.078 4.341,6.684c1.15,1.562 2.691,3.299 4.6,5.208c1.042,1.107 1.563,2.431 1.563,3.993c-0,2.322 -0.825,4.037 -2.431,5.122c-1.627,1.041 -3.428,1.562 -5.382,1.562c-2.43,0 -4.47,-0.607 -6.076,-1.823Zm20.573,0.261c-0.695,-0.977 -1.302,-2.301 -1.823,-3.993c-0.521,-1.671 -1.085,-3.321 -1.649,-4.948c-0.933,-2.648 -2.214,-5.035 -3.82,-7.118c-1.627,-2.084 -3.45,-4.08 -5.469,-5.99c-0.52,-0.521 -1.019,-1.063 -1.475,-1.649c-0.478,-0.629 -0.695,-1.346 -0.695,-2.17c0,-0.912 0.738,-1.606 2.257,-2.084c1.563,-0.52 3.429,-0.781 5.643,-0.781c3.168,0 6.467,1.085 9.895,3.212c3.473,2.083 6.337,4.666 8.594,7.726c2.301,3.081 3.472,6.163 3.472,9.288c0,2.43 -0.868,4.839 -2.604,7.205c-1.736,2.322 -3.971,3.472 -6.684,3.472c-1.215,-0 -3.103,-0.716 -5.642,-2.17Zm-114.063,-0.608l0.868,0c5.209,-6.597 11.329,-12.174 18.403,-16.753c7.053,-4.558 14.974,-6.858 23.785,-6.858c7.118,0 13.845,1.454 20.226,4.34c6.423,2.908 12.109,6.836 17.1,11.806c4.97,4.991 8.898,10.655 11.806,17.014c2.886,6.38 4.34,13.151 4.34,20.312c0,5.621 -0.955,11.936 -2.864,18.924c-1.867,7.009 -4.319,14.149 -7.379,21.441c-3.016,7.248 -6.206,14.149 -9.548,20.746c-3.364,6.598 -6.467,12.327 -9.289,17.188c-3.255,5.512 -7.031,11.111 -11.371,16.84c-4.297,5.729 -9.245,10.482 -14.844,14.236c-5.556,3.755 -11.957,5.643 -19.184,5.643c-7.01,-0 -13.802,-1.368 -20.399,-4.08c-6.598,-2.669 -13.065,-5.556 -19.358,-8.681c-2.148,-1.041 -4.123,-2.17 -5.903,-3.385c-1.736,-1.215 -2.604,-2.691 -2.604,-4.427c0,-1.085 0.369,-1.845 1.129,-2.257c0.737,-0.391 1.584,-0.716 2.517,-0.955c4.97,-1.497 9.657,-3.472 14.062,-5.903c4.449,-2.43 8.703,-5.121 12.761,-8.073c9.548,-6.705 17.556,-15.039 24.045,-25c4.449,-6.988 8.615,-14.236 12.5,-21.701c3.863,-7.465 7.639,-14.887 11.285,-22.309c1.497,-3.06 2.799,-6.337 3.906,-9.809c1.15,-3.516 1.736,-7.053 1.736,-10.59c0,-4.276 -1.389,-7.466 -4.167,-9.549c-2.734,-2.083 -6.033,-3.125 -9.895,-3.125c-4.992,-0 -9.462,1.28 -13.455,3.819c-3.993,2.561 -7.205,5.903 -9.636,10.07c-3.472,5.903 -6.597,12.131 -9.375,18.663c-2.734,6.554 -5.295,13.108 -7.725,19.705c-1.736,4.687 -3.624,8.984 -5.643,12.847c-2.04,3.82 -4.731,6.901 -8.073,9.201c-3.363,2.257 -7.942,3.386 -13.715,3.386c-4.058,-0 -8.029,-0.868 -11.892,-2.604c-3.82,-1.78 -6.945,-4.275 -9.375,-7.466c-2.387,-3.233 -3.559,-7.074 -3.559,-11.545c-0,-2.126 0.607,-4.08 1.823,-5.816c3.06,-4.34 5.837,-8.68 8.333,-13.021c2.474,-4.383 4.991,-8.875 7.552,-13.454c0.564,-0.912 1.432,-2.561 2.604,-4.948c1.215,-2.366 2.301,-4.709 3.299,-7.032c1.041,-2.365 1.562,-3.949 1.562,-4.774c0,-0.39 -0.13,-0.868 -0.347,-1.389c-0.174,-0.521 -0.781,-1.389 -1.823,-2.604c-1.107,-1.389 -1.649,-2.995 -1.649,-4.861c-0,-3.516 1.497,-6.12 4.514,-7.813c3.06,-1.671 6.076,-2.517 9.028,-2.517c2.647,0 5.164,0.738 7.552,2.17c2.365,1.389 4.47,3.038 6.336,4.948Z" style="fill-rule:nonzero;"/></g></g></g><g><g><g><path d="M908.872,231.385c0,-0.695 -0.086,-1.476 -0.26,-2.344c-0.13,-0.868 -0.694,-1.302 -1.736,-1.302c-0.998,-0 -2.083,0.607 -3.299,1.823c-1.866,1.909 -4.774,4.123 -8.767,6.597c-3.95,2.496 -7.422,4.34 -10.417,5.556c-5.62,2.387 -11.458,3.559 -17.534,3.559c-4.297,-0 -7.813,-0.782 -10.591,-2.344c-2.778,-1.606 -5.772,-3.776 -8.941,-6.511c-2.843,-2.43 -5.013,-4.73 -6.51,-6.944c-1.454,-2.192 -3.19,-5.317 -5.208,-9.375c-1.91,-3.754 -2.865,-6.033 -2.865,-6.858c-0,-1.215 0.608,-2.04 1.823,-2.517c1.215,-0.456 3.494,-0.781 6.858,-0.955c2.018,-0.108 4.361,-0.781 7.031,-1.996c2.712,-1.216 5.425,-2.561 8.159,-4.08c2.778,-1.563 5.252,-3.038 7.466,-4.427c8.159,-5.078 16.146,-10.374 23.958,-15.886c7.813,-5.555 15.625,-11.133 23.438,-16.753c5.664,-4.037 11.111,-8.008 16.319,-11.893c5.252,-3.928 10.59,-7.834 15.972,-11.718c0.521,-0.391 1.042,-0.825 1.563,-1.302c0.564,-0.521 0.998,-0.825 1.302,-0.955c0.629,-0.391 1.15,-0.825 1.562,-1.302c0.391,-0.456 0.608,-1.085 0.608,-1.91c-0,-0.282 -0.043,-0.543 -0.087,-0.781c-0.065,-0.282 -0.087,-0.565 -0.087,-0.868c0,-3.863 1.389,-6.988 4.167,-9.375c2.821,-2.366 6.163,-3.559 9.983,-3.559c4.383,-0 8.073,1.171 11.024,3.472c2.995,2.322 5.23,5.295 6.684,8.941c1.497,3.602 2.257,7.422 2.257,11.458c-0,5.794 -1.259,10.721 -3.733,14.757c-2.495,3.993 -5.707,8.03 -9.635,12.066c-1.454,1.628 -3.559,3.798 -6.337,6.51c-2.778,2.67 -5.555,5.252 -8.333,7.726c-2.735,2.496 -5.013,4.405 -6.858,5.729c-0.586,0.413 -1.476,1.129 -2.691,2.17c-1.215,0.999 -1.823,1.737 -1.823,2.257c0,0.413 1.302,2.691 3.906,6.858c0.912,1.389 1.737,3.559 2.431,6.51c0.738,2.952 1.346,6.033 1.823,9.202c0.521,3.125 0.781,5.707 0.781,7.725c0,2.431 -0.13,5.708 -0.347,9.81c-0.174,4.123 -0.26,7.899 -0.26,11.371c-0,3.537 0.13,7.075 0.434,10.59c0.347,3.473 0.52,6.945 0.52,10.417c0,4.861 -0.781,9.462 -2.343,13.802c-1.519,4.275 -3.993,7.747 -7.466,10.417c-3.428,2.712 -7.877,4.08 -13.368,4.08c-3.645,-0 -7.335,-0.825 -11.024,-2.431c-3.711,-1.628 -6.38,-4.21 -7.986,-7.726c-1.042,-2.257 -1.953,-4.6 -2.691,-7.031c-0.76,-2.43 -1.129,-4.904 -1.129,-7.465c0,-7.118 0.369,-14.236 1.129,-21.354c0.738,-7.162 1.128,-14.323 1.128,-21.441Z" style="fill-rule:nonzero;"/></g></g></g><g><g><g><path d="M1085.39,160.418c-0,-3.06 1.128,-5.577 3.385,-7.552c2.3,-1.953 5.165,-3.559 8.594,-4.774c3.407,-1.215 6.814,-2.04 10.243,-2.517c3.472,-0.456 6.337,-0.695 8.594,-0.695c5.664,0 11.284,0.651 16.84,1.91c5.599,1.28 10.894,3.342 15.885,6.163c4.688,2.734 8.768,6.597 12.24,11.632c3.516,5.035 5.295,10.308 5.295,15.799c0,3.949 -0.955,7.552 -2.865,10.85c-1.866,3.299 -4.383,5.947 -7.552,7.9c-3.125,1.909 -6.662,2.864 -10.59,2.864c-1.345,0 -2.604,-0.043 -3.819,-0.173c-1.216,-0.174 -2.431,-0.521 -3.646,-1.042c-2.387,-0.911 -4.427,-1.845 -6.163,-2.778c-1.693,-0.976 -3.516,-2.452 -5.469,-4.427c-1.91,-2.018 -4.601,-4.991 -8.073,-8.941c-2.322,-2.647 -5.686,-5.165 -10.069,-7.552c-4.341,-2.365 -8.486,-4.427 -12.414,-6.163c-1.736,-0.912 -3.906,-2.279 -6.51,-4.08c-2.604,-1.845 -3.906,-3.993 -3.906,-6.424Zm146.701,-8.507c0.803,0 1.519,1.107 2.17,3.299c0.695,2.148 1.085,3.537 1.215,4.167c0.695,4.34 1.346,8.637 1.997,12.847c0.694,4.232 1.324,8.724 1.91,13.455c0.217,2.561 0.434,5.165 0.607,7.812c0.217,2.604 0.348,5.252 0.348,7.9c-0,10.894 -1.52,20.616 -4.514,29.166c-3.017,8.572 -7.357,16.407 -13.021,23.525c-5.686,7.118 -12.544,14.127 -20.573,21.007c-9.722,8.333 -20.616,15.408 -32.639,21.18c-12.044,5.773 -24.566,8.681 -37.587,8.681c-7.812,-0 -14.323,-1.194 -19.531,-3.559c-5.165,-2.366 -10.764,-5.751 -16.84,-10.157c-2.952,-2.126 -5.382,-4.904 -7.292,-8.333c-1.866,-3.472 -2.778,-7.031 -2.778,-10.677c0,-3.06 1.042,-5.859 3.125,-8.42c2.084,-2.604 4.731,-3.906 7.986,-3.906c1.845,-0 3.755,0.39 5.73,1.128c1.953,0.76 3.754,1.693 5.381,2.778c1.845,1.172 3.646,1.736 5.382,1.736c3.408,-0 6.706,-0.347 9.896,-1.042c3.234,-0.738 6.337,-1.736 9.288,-2.951c10.938,-4.275 20.834,-9.744 29.688,-16.406c8.898,-6.706 17.448,-14.15 25.608,-22.309c9.722,-10.005 17.925,-20.573 24.652,-31.684c6.706,-11.155 12.544,-22.939 17.535,-35.33c0.282,-0.695 0.651,-1.498 1.129,-2.431c0.455,-0.976 0.824,-1.476 1.128,-1.476Z" style="fill-rule:nonzero;"/></g></g></g></svg>