<?xml version="1.0" encoding="UTF-8" standalone="no"?><!DOCTYPE svg PUBLIC "-//W3C//DTD SVG 1.1//EN" "http://www.w3.org/Graphics/SVG/1.1/DTD/svg11.dtd"><svg width="100%" height="100%" viewBox="0 0 5692 380" version="1.1" xmlns="http://www.w3.org/2000/svg" xmlns:xlink="http://www.w3.org/1999/xlink" xml:space="preserve" xmlns:serif="http://www.serif.com/" style="fill-rule:evenodd;clip-rule:evenodd;stroke-linejoin:round;stroke-miterlimit:2;"><g><clipPath id="_clip1"><rect x="303.494" y="61.48" width="249.891" height="295.573"/></clipPath><g clip-path="url(#_clip1)"><path d="M780.078,61.979c0,0 -728.125,-0.022 -728.233,-0.022c0.108,7.184 1.974,98.85 1.909,106.793c-0.152,21.897 -1.888,48.589 -2.994,70.464c-0.5,9.853 -8.312,93.251 -15.105,103.69c0.022,-0.022 125.868,15.863 249.067,7.508c2.908,-16.97 9.05,-34.288 11.502,-51.28c2.713,-19.466 6.272,-36.849 6.619,-56.489c0.564,-32.313 -1.129,-58.941 -1.15,-93.077c-0,-1.758 2.56,-1.91 2.756,-0.174c3.928,33.29 4.969,24.848 8.051,85.851c1.801,35.981 -2.843,77.127 -4.687,113.412c121.093,14.431 140.082,12.717 248.546,-3.191c-3.711,-36.154 -3.494,-69.357 -3.473,-105.512c0.109,-50.716 -2.278,-56.597 -0.564,-96.311c0.087,-1.801 1.215,-1.779 1.324,0.022c2.192,35.352 2.018,60.938 6.467,93.468c2.582,19.423 3.602,40.668 6.836,59.961c2.908,17.014 12.022,47.179 12.087,47.179c106.88,-0 112.566,4.492 219.445,4.492c-7.747,-17.122 -14.735,-125.325 -15.126,-134.787c-0.282,-6.315 -3.798,-131.663 -3.277,-151.997" style="fill:#c40000;fill-rule:nonzero;"/></g></g><g><clipPath id="_clip2"><rect x="303.494" y="37.5" width="249.891" height="10.742"/></clipPath><g clip-path="url(#_clip2)"><path d="M836.892,47.917l-841.948,-0l-0,-9.701l841.948,0l0,9.701" style="fill:#d4983d;fill-rule:nonzero;"/></g></g><g><clipPath id="_clip3"><rect x="303.494" y="26.389" width="249.891" height="14.301"/></clipPath><g clip-path="url(#_clip3)"><path d="M836.892,40.082l-841.948,0l-0,-13.129l841.948,0l0,13.129" style="fill:#d4983d;fill-rule:nonzero;"/></g></g><g><clipPath id="_clip4"><rect x="303.494" y="19.727" width="24.284" height="56.662"/></clipPath><g clip-path="url(#_clip4)"><path d="M323.155,70.942l-42.838,-0l-0,-51.064l42.838,0l0,51.064" style="fill:#c40000;fill-rule:nonzero;"/></g></g><g><path d="M551.541,70.942l-42.839,-0l0,-51.064l42.839,0l-0,51.064" style="fill:#c40000;fill-rule:nonzero;"/></g><g><path d="M548.893,66.862l-37.695,-0l-0,-46.984l37.695,0l0,46.984" style="fill:#c40000;fill-rule:nonzero;"/></g><g><clipPath id="_clip5"><rect x="303.494" y="19.727" width="18.728" height="51.107"/></clipPath><g clip-path="url(#_clip5)"><path d="M320.486,66.862l-37.695,-0l-0,-46.984l37.695,0l0,46.984" style="fill:#c40000;fill-rule:nonzero;"/></g></g><g><clipPath id="_clip6"><rect x="547.266" y="61.48" width="249.87" height="295.573"/></clipPath><g clip-path="url(#_clip6)"><path d="M1023.85,61.979c-0,0 -728.125,-0.022 -728.234,-0.022c0.109,7.184 1.975,98.85 1.91,106.793c-0.152,21.897 -1.888,48.589 -3.016,70.464c-0.478,9.853 -8.29,93.251 -15.083,103.69c0.022,-0.022 125.846,15.863 249.067,7.508c2.908,-16.97 9.049,-34.288 11.502,-51.28c2.691,-19.466 6.271,-36.849 6.619,-56.489c0.564,-32.313 -1.129,-58.941 -1.151,-93.077c0,-1.758 2.539,-1.91 2.756,-0.174c3.928,33.29 4.97,24.848 8.052,85.851c1.801,35.981 -2.843,77.127 -4.709,113.412c121.115,14.431 140.104,12.717 248.567,-3.191c-3.711,-36.154 -3.494,-69.357 -3.472,-105.512c0.108,-50.716 -2.279,-56.597 -0.564,-96.311c0.065,-1.801 1.215,-1.779 1.324,0.022c2.191,35.352 2.018,60.938 6.467,93.468c2.56,19.423 3.602,40.668 6.835,59.961c2.908,17.014 12.023,47.179 12.088,47.179c106.88,-0 112.565,4.492 219.445,4.492c-7.748,-17.122 -14.736,-125.325 -15.126,-134.787c-0.282,-6.315 -3.798,-131.663 -3.277,-151.997" style="fill:#c40000;fill-rule:nonzero;"/></g></g><g><clipPath id="_clip7"><rect x="547.266" y="37.5" width="249.87" height="10.742"/></clipPath><g clip-path="url(#_clip7)"><path d="M1080.66,47.917l-841.949,-0l0,-9.701l841.949,0l0,9.701" style="fill:#d4983d;fill-rule:nonzero;"/></g></g><g><clipPath id="_clip8"><rect x="547.266" y="26.389" width="249.87" height="14.301"/></clipPath><g clip-path="url(#_clip8)"><path d="M1080.66,40.082l-841.949,0l0,-13.129l841.949,0l0,13.129" style="fill:#d4983d;fill-rule:nonzero;"/></g></g><g><clipPath id="_clip9"><rect x="547.266" y="19.727" width="24.957" height="56.662"/></clipPath><g clip-path="url(#_clip9)"><path d="M566.905,70.942l-42.816,-0l-0,-51.064l42.816,0l0,51.064" style="fill:#c40000;fill-rule:nonzero;"/></g></g><g><path d="M795.313,70.942l-42.839,-0l-0,-51.064l42.839,0l-0,51.064" style="fill:#c40000;fill-rule:nonzero;"/></g><g><path d="M792.665,66.862l-37.695,-0l-0,-46.984l37.695,0l-0,46.984" style="fill:#c40000;fill-rule:nonzero;"/></g><g><clipPath id="_clip10"><rect x="547.266" y="19.727" width="19.401" height="51.107"/></clipPath><g clip-path="url(#_clip10)"><path d="M564.258,66.862l-37.696,-0l0,-46.984l37.696,0l-0,46.984" style="fill:#c40000;fill-rule:nonzero;"/></g></g><g><clipPath id="_clip11"><rect x="791.037" y="61.48" width="249.87" height="295.573"/></clipPath><g clip-path="url(#_clip11)"><path d="M1267.62,61.979c-0,0 -728.147,-0.022 -728.234,-0.022c0.087,7.184 1.975,98.85 1.91,106.793c-0.152,21.897 -1.888,48.589 -3.017,70.464c-0.499,9.853 -8.29,93.251 -15.082,103.69c-0,-0.022 125.846,15.863 249.067,7.508c2.908,-16.97 9.049,-34.288 11.501,-51.28c2.691,-19.466 6.272,-36.849 6.619,-56.489c0.565,-32.313 -1.128,-58.941 -1.15,-93.077c0,-1.758 2.539,-1.91 2.756,-0.174c3.928,33.29 4.97,24.848 8.051,85.851c1.802,35.981 -2.842,77.127 -4.709,113.412c121.116,14.431 140.104,12.717 248.568,-3.191c-3.711,-36.154 -3.516,-69.357 -3.472,-105.512c0.108,-50.716 -2.279,-56.597 -0.565,-96.311c0.066,-1.801 1.216,-1.779 1.324,0.022c2.192,35.352 2.018,60.938 6.467,93.468c2.561,19.423 3.603,40.668 6.836,59.961c2.908,17.014 12.023,47.179 12.088,47.179c106.879,-0 112.565,4.492 219.444,4.492c-7.747,-17.122 -14.735,-125.325 -15.147,-134.787c-0.261,-6.315 -3.776,-131.663 -3.255,-151.997" style="fill:#c40000;fill-rule:nonzero;"/></g></g><g><clipPath id="_clip12"><rect x="791.037" y="37.5" width="249.87" height="10.742"/></clipPath><g clip-path="url(#_clip12)"><path d="M1324.44,47.917l-841.949,-0l-0,-9.701l841.949,0l-0,9.701" style="fill:#d4983d;fill-rule:nonzero;"/></g></g><g><clipPath id="_clip13"><rect x="791.037" y="26.389" width="249.87" height="14.301"/></clipPath><g clip-path="url(#_clip13)"><path d="M1324.44,40.082l-841.949,0l-0,-13.129l841.949,0l-0,13.129" style="fill:#d4983d;fill-rule:nonzero;"/></g></g><g><clipPath id="_clip14"><rect x="791.037" y="19.727" width="20.074" height="56.662"/></clipPath><g clip-path="url(#_clip14)"><path d="M810.677,70.942l-42.838,-0l-0,-51.064l42.838,0l0,51.064" style="fill:#c40000;fill-rule:nonzero;"/></g></g><g><path d="M1039.08,70.942l-42.838,-0l-0,-51.064l42.838,0l0,51.064" style="fill:#c40000;fill-rule:nonzero;"/></g><g><path d="M1036.44,66.862l-37.696,-0l0,-46.984l37.696,0l-0,46.984" style="fill:#c40000;fill-rule:nonzero;"/></g><g><clipPath id="_clip15"><rect x="791.037" y="19.727" width="20.074" height="51.107"/></clipPath><g clip-path="url(#_clip15)"><path d="M808.03,66.862l-37.696,-0l0,-46.984l37.696,0l-0,46.984" style="fill:#c40000;fill-rule:nonzero;"/></g></g><g><clipPath id="_clip16"><rect x="1524.39" y="61.48" width="246.94" height="295.573"/></clipPath><g clip-path="url(#_clip16)"><path d="M1751.15,61.979c0,0 -728.125,-0.022 -728.233,-0.022c0.108,7.184 1.974,98.85 1.909,106.793c-0.152,21.897 -1.888,48.589 -3.016,70.464c-0.478,9.853 -8.29,93.251 -15.083,103.69c0.022,-0.022 125.847,15.863 249.067,7.508c2.908,-16.97 9.05,-34.288 11.502,-51.28c2.691,-19.466 6.272,-36.849 6.619,-56.489c0.564,-32.313 -1.129,-58.941 -1.15,-93.077c-0,-1.758 2.539,-1.91 2.756,-0.174c3.928,33.29 4.969,24.848 8.051,85.851c1.801,35.981 -2.843,77.127 -4.709,113.412c121.115,14.431 140.104,12.717 248.568,-3.191c-3.711,-36.154 -3.494,-69.357 -3.473,-105.512c0.109,-50.716 -2.278,-56.597 -0.564,-96.311c0.065,-1.801 1.215,-1.779 1.324,0.022c2.192,35.352 2.018,60.938 6.467,93.468c2.561,19.423 3.602,40.668 6.836,59.961c2.908,17.014 12.022,47.179 12.088,47.179c106.879,-0 112.565,4.492 219.444,4.492c-7.747,-17.122 -14.735,-125.325 -15.126,-134.787c-0.282,-6.315 -3.798,-131.663 -3.277,-151.997" style="fill:#c40000;fill-rule:nonzero;"/></g></g><g><clipPath id="_clip17"><rect x="1524.39" y="37.5" width="282.878" height="10.742"/></clipPath><g clip-path="url(#_clip17)"><path d="M1807.96,47.917l-841.948,-0l-0,-9.701l841.948,0l0,9.701" style="fill:#d4983d;fill-rule:nonzero;"/></g></g><g><clipPath id="_clip18"><rect x="1524.39" y="26.389" width="282.878" height="14.301"/></clipPath><g clip-path="url(#_clip18)"><path d="M1807.96,40.082l-841.948,0l-0,-13.129l841.948,0l0,13.129" style="fill:#d4983d;fill-rule:nonzero;"/></g></g><g><path d="M1751,70.942l-42.817,-0l0,-51.064l42.817,0l0,51.064" style="fill:#c40000;fill-rule:nonzero;"/></g><g><path d="M1748.37,66.862l-37.695,-0l0,-46.984l37.695,0l0,46.984" style="fill:#c40000;fill-rule:nonzero;"/></g><g><clipPath id="_clip19"><rect x="39.692" y="61.48" width="268.49" height="295.573"/></clipPath><g clip-path="url(#_clip19)"><path d="M785.135,61.979c-0,0 -728.147,-0.022 -728.256,-0.022c0.109,7.184 1.997,98.85 1.932,106.793c-0.152,21.897 -1.91,48.589 -3.017,70.464c-0.499,9.853 -8.29,93.251 -15.082,103.69c-0,-0.022 125.846,15.863 249.067,7.508c2.886,-16.97 9.049,-34.288 11.501,-51.28c2.691,-19.466 6.25,-36.849 6.598,-56.489c0.586,-32.313 -1.107,-58.941 -1.129,-93.077c0,-1.758 2.539,-1.91 2.756,-0.174c3.928,33.29 4.97,24.848 8.051,85.851c1.802,35.981 -2.842,77.127 -4.709,113.412c121.116,14.431 140.104,12.717 248.546,-3.191c-3.689,-36.154 -3.494,-69.357 -3.45,-105.512c0.108,-50.716 -2.279,-56.597 -0.565,-96.311c0.066,-1.801 1.216,-1.779 1.324,0.022c2.17,35.352 2.018,60.938 6.467,93.468c2.561,19.423 3.581,40.668 6.836,59.961c2.886,17.014 12.001,47.179 12.088,47.179c106.879,-0 112.543,4.492 219.423,4.492c-7.726,-17.122 -14.714,-125.325 -15.126,-134.787c-0.261,-6.315 -3.798,-131.663 -3.255,-151.997" style="fill:#c40000;fill-rule:nonzero;"/></g></g><g><clipPath id="_clip20"><rect x="0" y="37.5" width="308.181" height="10.742"/></clipPath><g clip-path="url(#_clip20)"><path d="M841.949,47.917l-841.949,-0l0,-9.701l841.949,0l-0,9.701" style="fill:#d4983d;fill-rule:nonzero;"/></g></g><g><clipPath id="_clip21"><rect x="0" y="26.389" width="308.181" height="14.301"/></clipPath><g clip-path="url(#_clip21)"><path d="M841.949,40.082l-841.949,0l0,-13.129l841.949,0l-0,13.129" style="fill:#d4983d;fill-rule:nonzero;"/></g></g><g><path d="M99.805,70.942l-42.839,-0l0,-51.064l42.839,0l-0,51.064" style="fill:#c40000;fill-rule:nonzero;"/></g><g><clipPath id="_clip22"><rect x="283.333" y="19.727" width="24.848" height="56.662"/></clipPath><g clip-path="url(#_clip22)"><path d="M328.19,70.942l-42.838,-0l-0,-51.064l42.838,0l0,51.064" style="fill:#c40000;fill-rule:nonzero;"/></g></g><g><path d="M97.135,66.862l-37.695,-0l0,-46.984l37.695,0l0,46.984" style="fill:#c40000;fill-rule:nonzero;"/></g><g><clipPath id="_clip23"><rect x="283.333" y="19.727" width="24.848" height="51.107"/></clipPath><g clip-path="url(#_clip23)"><path d="M325.543,66.862l-37.696,-0l0,-46.984l37.696,0l-0,46.984" style="fill:#c40000;fill-rule:nonzero;"/></g></g><g><clipPath id="_clip24"><rect x="1034.74" y="61.48" width="249.87" height="295.573"/></clipPath><g clip-path="url(#_clip24)"><path d="M1511.33,61.979c0,0 -728.147,-0.022 -728.233,-0.022c0.086,7.184 1.974,98.85 1.909,106.793c-0.152,21.897 -1.888,48.589 -3.016,70.464c-0.499,9.853 -8.29,93.251 -15.083,103.69c0,-0.022 125.847,15.863 249.067,7.508c2.908,-16.97 9.05,-34.288 11.502,-51.28c2.691,-19.466 6.272,-36.849 6.619,-56.489c0.564,-32.313 -1.129,-58.941 -1.15,-93.077c-0,-1.758 2.539,-1.91 2.756,-0.174c3.928,33.29 4.969,24.848 8.051,85.851c1.801,35.981 -2.843,77.127 -4.709,113.412c121.115,14.431 140.104,12.717 248.568,-3.191c-3.711,-36.154 -3.516,-69.357 -3.473,-105.512c0.109,-50.716 -2.278,-56.597 -0.564,-96.311c0.065,-1.801 1.215,-1.779 1.324,0.022c2.192,35.352 2.018,60.938 6.467,93.468c2.561,19.423 3.602,40.668 6.836,59.961c2.908,17.014 12.022,47.179 12.087,47.179c106.88,-0 112.566,4.492 219.445,4.492c-7.747,-17.122 -14.735,-125.325 -15.126,-134.787c-0.282,-6.315 -3.798,-131.663 -3.277,-151.997" style="fill:#c40000;fill-rule:nonzero;"/></g></g><g><clipPath id="_clip25"><rect x="1034.74" y="37.5" width="249.87" height="10.742"/></clipPath><g clip-path="url(#_clip25)"><path d="M1568.14,47.917l-841.948,-0l-0,-9.701l841.948,0l0,9.701" style="fill:#d4983d;fill-rule:nonzero;"/></g></g><g><clipPath id="_clip26"><rect x="1034.74" y="26.389" width="249.87" height="14.301"/></clipPath><g clip-path="url(#_clip26)"><path d="M1568.14,40.082l-841.948,0l-0,-13.129l841.948,0l0,13.129" style="fill:#d4983d;fill-rule:nonzero;"/></g></g><g><clipPath id="_clip27"><rect x="1034.74" y="19.727" width="20.812" height="56.662"/></clipPath><g clip-path="url(#_clip27)"><path d="M1054.38,70.942l-42.839,-0l0,-51.064l42.839,0l-0,51.064" style="fill:#c40000;fill-rule:nonzero;"/></g></g><g><path d="M1282.79,70.942l-42.839,-0l0,-51.064l42.839,0l-0,51.064" style="fill:#c40000;fill-rule:nonzero;"/></g><g><path d="M1280.14,66.862l-37.695,-0l-0,-46.984l37.695,0l0,46.984" style="fill:#c40000;fill-rule:nonzero;"/></g><g><clipPath id="_clip28"><rect x="1034.74" y="19.727" width="20.812" height="51.107"/></clipPath><g clip-path="url(#_clip28)"><path d="M1051.74,66.862l-37.695,-0l-0,-46.984l37.695,0l0,46.984" style="fill:#c40000;fill-rule:nonzero;"/></g></g><g><clipPath id="_clip29"><rect x="1278.12" y="61.48" width="249.87" height="295.573"/></clipPath><g clip-path="url(#_clip29)"><path d="M1754.71,61.979c0,0 -728.147,-0.022 -728.255,-0.022c0.108,7.184 1.997,98.85 1.931,106.793c-0.151,21.897 -1.909,48.589 -3.016,70.464c-0.499,9.853 -8.29,93.251 -15.083,103.69c0,-0.022 125.847,15.863 249.067,7.508c2.887,-16.97 9.05,-34.288 11.48,-51.28c2.713,-19.466 6.272,-36.849 6.619,-56.489c0.586,-32.313 -1.107,-58.941 -1.128,-93.077c-0,-1.758 2.539,-1.91 2.756,-0.174c3.928,33.29 4.969,24.848 8.029,85.851c1.823,35.981 -2.843,77.127 -4.687,113.412c121.115,14.431 140.104,12.717 248.546,-3.191c-3.689,-36.154 -3.494,-69.357 -3.472,-105.512c0.13,-50.716 -2.257,-56.597 -0.543,-96.311c0.065,-1.801 1.215,-1.779 1.324,0.022c2.17,35.352 2.018,60.938 6.467,93.468c2.561,19.423 3.581,40.668 6.836,59.961c2.886,17.014 12.001,47.179 12.088,47.179c106.879,-0 112.543,4.492 219.422,4.492c-7.747,-17.122 -14.713,-125.325 -15.126,-134.787c-0.26,-6.315 -3.797,-131.663 -3.255,-151.997" style="fill:#c40000;fill-rule:nonzero;"/></g></g><g><clipPath id="_clip30"><rect x="1278.12" y="37.5" width="249.87" height="10.742"/></clipPath><g clip-path="url(#_clip30)"><path d="M1811.52,47.917l-841.948,-0l-0,-9.701l841.948,0l0,9.701" style="fill:#d4983d;fill-rule:nonzero;"/></g></g><g><clipPath id="_clip31"><rect x="1278.12" y="26.389" width="249.87" height="14.301"/></clipPath><g clip-path="url(#_clip31)"><path d="M1811.52,40.082l-841.948,0l-0,-13.129l841.948,0l0,13.129" style="fill:#d4983d;fill-rule:nonzero;"/></g></g><g><clipPath id="_clip32"><rect x="1278.12" y="19.727" width="21.875" height="56.662"/></clipPath><g clip-path="url(#_clip32)"><path d="M1297.77,70.942l-42.839,-0l0,-51.064l42.839,0l-0,51.064" style="fill:#c40000;fill-rule:nonzero;"/></g></g><g><path d="M1526.17,70.942l-42.839,-0l0,-51.064l42.839,0l-0,51.064" style="fill:#c40000;fill-rule:nonzero;"/></g><g><path d="M1523.52,66.862l-37.695,-0l-0,-46.984l37.695,0l0,46.984" style="fill:#c40000;fill-rule:nonzero;"/></g><g><clipPath id="_clip33"><rect x="1278.12" y="19.727" width="21.875" height="51.107"/></clipPath><g clip-path="url(#_clip33)"><path d="M1295.12,66.862l-37.695,-0l-0,-46.984l37.695,0l0,46.984" style="fill:#c40000;fill-rule:nonzero;"/></g></g><g><clipPath id="_clip34"><rect x="95.768" y="19.727" width="20.812" height="66.623"/></clipPath><g clip-path="url(#_clip34)"><rect x="97.244" y="-131.011" width="217.773" height="217.773" style="fill:#c40000;fill-rule:nonzero;"/><path d="M315.017,88.238l-217.773,-0c-0.825,-0 -1.476,-0.651 -1.476,-1.476l0,-217.773c0,-0.825 0.651,-1.476 1.476,-1.476l217.773,0c0.825,0 1.476,0.651 1.476,1.476l0,217.773c0,0.825 -0.651,1.476 -1.476,1.476Zm-216.319,-2.952l214.844,0l-0,-214.843l-214.844,-0l-0,214.843Z" style="fill:#c40000;fill-rule:nonzero;"/></g></g><g><clipPath id="_clip35"><rect x="318.012" y="19.727" width="20.812" height="66.623"/></clipPath><g clip-path="url(#_clip35)"><rect x="319.466" y="-131.011" width="217.795" height="217.773" style="fill:#c40000;fill-rule:nonzero;"/><path d="M537.261,88.238l-217.795,-0c-0.825,-0 -1.454,-0.651 -1.454,-1.476l0,-217.773c0,-0.825 0.629,-1.476 1.454,-1.476l217.795,0c0.825,0 1.476,0.651 1.476,1.476l-0,217.773c-0,0.825 -0.651,1.476 -1.476,1.476Zm-216.319,-2.952l214.844,0l-0,-214.843l-214.844,-0l-0,214.843Z" style="fill:#c40000;fill-rule:nonzero;"/></g></g><g><clipPath id="_clip36"><rect x="1522.22" y="19.727" width="19.358" height="66.623"/></clipPath><g clip-path="url(#_clip36)"><rect x="1522.22" y="-131.011" width="217.773" height="217.773" style="fill:#c40000;fill-rule:nonzero;"/></g></g><g><clipPath id="_clip37"><rect x="1520.75" y="19.727" width="20.833" height="66.623"/></clipPath><g clip-path="url(#_clip37)"><path d="M1740,88.238l-217.774,-0c-0.824,-0 -1.475,-0.651 -1.475,-1.476l-0,-217.773c-0,-0.825 0.651,-1.476 1.475,-1.476l217.774,0c0.824,0 1.475,0.651 1.475,1.476l0,217.773c0,0.825 -0.651,1.476 -1.475,1.476Zm-216.298,-2.952l214.844,0l-0,-214.843l-214.844,-0l-0,214.843Z" style="fill:#c40000;fill-rule:nonzero;"/></g></g><g><clipPath id="_clip38"><rect x="1689.71" y="19.727" width="20.833" height="66.623"/></clipPath><g clip-path="url(#_clip38)"><rect x="1691.19" y="-131.011" width="217.773" height="217.773" style="fill:#c40000;fill-rule:nonzero;"/><path d="M1908.96,88.238l-217.774,-0c-0.824,-0 -1.475,-0.651 -1.475,-1.476l-0,-217.773c-0,-0.825 0.651,-1.476 1.475,-1.476l217.774,0c0.824,0 1.475,0.651 1.475,1.476l0,217.773c0,0.825 -0.651,1.476 -1.475,1.476Zm-216.298,-2.952l214.844,0l-0,-214.843l-214.844,-0l-0,214.843Z" style="fill:#c40000;fill-rule:nonzero;"/></g></g><g><path d="M272.331,161.35c-0,-0.022 -0.022,-0.044 -0.044,-0.065c-1.193,-2.322 -2.908,-4.167 -5.165,-5.534c-2.235,-1.346 -4.665,-2.04 -7.291,-2.018l-59.744,-0l-0,-4.71l65.191,0l-5.035,-6.184c-4.861,-5.968 -10.308,-11.35 -16.384,-16.125c-6.055,-4.752 -12.566,-8.789 -19.532,-12.087c-6.966,-3.321 -14.192,-5.816 -21.723,-7.509c-7.53,-1.693 -15.126,-2.517 -22.851,-2.496c-57.249,0 -103.82,46.572 -103.82,103.82c0,9.266 1.215,18.381 3.646,27.344c0.26,1.02 0.868,1.779 1.78,2.3c0.911,0.521 1.866,0.651 2.886,0.369c0.998,-0.282 1.779,-0.868 2.278,-1.78c0.521,-0.911 0.651,-1.866 0.369,-2.886c-2.257,-8.29 -3.385,-16.753 -3.385,-25.347c-0,-53.082 43.186,-96.246 96.246,-96.246c11.979,-0.022 23.546,2.127 34.722,6.445c11.154,4.297 21.18,10.504 30.013,18.555c1.519,1.367 -110.048,8.594 -110.048,8.594l0,3.233l24.631,0l0,4.71l-24.631,-0l0,3.233c0,0 10.07,-0.108 24.631,0.065l0,19.879c0,30.425 -24.761,55.165 -55.186,55.165c-0.76,-0.022 -1.411,0.238 -1.954,0.759c-0.564,0.543 -0.824,1.194 -0.824,1.953c-0,0.76 0.26,1.411 0.824,1.932c0.543,0.542 1.194,0.803 1.954,0.781c8.116,0 15.928,-1.563 23.415,-4.709c-0.911,0.824 -1.15,1.823 -0.694,2.973c0.434,1.15 1.28,1.736 2.517,1.736c22.765,0 41.298,-27.192 41.298,-60.612l0,-19.661l0.499,-0l0,19.683c0,31.575 -8.746,55.165 -16.58,55.165c-0.738,0.021 -1.345,0.303 -1.866,0.824c-0.521,0.521 -0.76,1.15 -0.76,1.888c0,0.738 0.239,1.368 0.76,1.888c0.521,0.521 1.128,0.803 1.866,0.825c14.301,0 22.005,-31.228 22.005,-60.59l0,-19.553l0.521,0.021l0,77.409c0,0.738 0.261,1.389 0.782,1.91c0.542,0.543 1.171,0.803 1.931,0.803c0.738,0 1.367,-0.26 1.91,-0.803c0.521,-0.521 0.781,-1.172 0.781,-1.91l-0,-77.257l0.521,0.022l-0,19.358c-0,29.362 7.704,60.59 22.005,60.59c0.738,-0.022 1.345,-0.304 1.866,-0.825c0.521,-0.52 0.76,-1.15 0.76,-1.888c-0,-0.738 -0.239,-1.367 -0.76,-1.888c-0.521,-0.521 -1.128,-0.803 -1.866,-0.824c-7.834,-0 -16.58,-23.59 -16.58,-55.165l0,-19.163l0.499,0.022l0,19.141c0,33.398 18.533,60.59 41.298,60.59c1.237,0 2.083,-0.564 2.539,-1.714c0.456,-1.172 0.217,-2.171 -0.694,-2.995c7.487,3.147 15.277,4.709 23.394,4.709c0.759,0.022 1.41,-0.239 1.953,-0.781c0.564,-0.521 0.825,-1.172 0.825,-1.932c-0,-0.759 -0.261,-1.41 -0.825,-1.953c-0.543,-0.521 -1.194,-0.781 -1.953,-0.759c-30.426,-0 -55.187,-24.762 -55.187,-55.187l0,-18.62c26.085,1.346 52.083,4.015 61.415,9.223c12.782,7.162 14.54,26.15 14.54,40.951c-0,4.904 -0.369,9.787 -1.107,14.648c-0.738,4.84 -1.844,9.614 -3.32,14.301c-1.476,4.688 -3.277,9.224 -5.447,13.629c-2.17,4.405 -4.666,8.637 -7.487,12.652c-2.821,4.015 -5.925,7.812 -9.31,11.35c-3.407,3.559 -7.053,6.814 -10.938,9.809c-3.906,2.995 -8.007,5.664 -12.304,8.008c-4.319,2.365 -8.768,4.383 -13.39,6.054l-0.043,0c-1.65,0.608 -2.995,1.628 -4.015,3.082c-1.02,1.476 -1.541,3.081 -1.541,4.861l0,1.996c0,0.912 -0.304,1.671 -0.955,2.301c-0.629,0.651 -1.389,0.955 -2.3,0.955l-48.199,-0c-0.911,-0 -1.671,-0.304 -2.3,-0.955c-0.651,-0.63 -0.955,-1.389 -0.955,-2.301l-0,-1.996c-0,-1.78 -0.521,-3.385 -1.541,-4.839c-1.02,-1.454 -2.365,-2.496 -4.015,-3.082l-0.065,-0.022c-11.285,-4.08 -21.441,-10.091 -30.469,-17.99c-9.027,-7.9 -16.297,-17.188 -21.853,-27.821c-1.128,-2.149 0.478,-4.731 2.908,-4.731l162.565,-0c0.564,-0 1.107,-0.131 1.628,-0.369c0.521,-0.261 0.955,-0.586 1.324,-1.042c0.347,-0.456 0.607,-0.955 0.737,-1.497c0.131,-0.565 0.131,-1.129 0.022,-1.693c-0.369,-1.758 -2.018,-2.995 -3.819,-2.995l-163.737,0c-7.487,0 -12.348,7.878 -8.985,14.562l0.044,0.108c5.816,11.502 13.498,21.572 23.09,30.209c9.592,8.637 20.399,15.234 32.465,19.835c1.389,0.521 2.105,1.519 2.105,3.016l0,1.433c0,1.302 0.261,2.539 0.738,3.732c0.499,1.194 1.215,2.257 2.127,3.169c0.911,0.911 1.953,1.627 3.168,2.105c1.194,0.499 2.431,0.759 3.733,0.759l50.369,0c1.302,0 2.539,-0.26 3.733,-0.738c1.193,-0.499 2.257,-1.215 3.168,-2.126c0.911,-0.912 1.606,-1.975 2.105,-3.169c0.499,-1.193 0.738,-2.43 0.738,-3.732l-0,-1.433c0.022,-1.497 0.716,-2.517 2.127,-3.038c3.385,-1.302 6.705,-2.756 9.939,-4.405c3.233,-1.65 6.38,-3.451 9.418,-5.426c3.06,-1.975 5.99,-4.101 8.811,-6.38c2.821,-2.279 5.534,-4.709 8.095,-7.27c2.56,-2.561 4.991,-5.252 7.291,-8.073c2.279,-2.821 4.406,-5.751 6.402,-8.789c1.975,-3.06 3.798,-6.185 5.447,-9.418c1.65,-3.234 3.125,-6.532 4.427,-9.939c1.302,-3.386 2.431,-6.815 3.364,-10.33c0.955,-3.516 1.714,-7.053 2.279,-10.634c0.586,-3.581 0.955,-7.183 1.15,-10.807c0.195,-3.624 0.195,-7.249 0.022,-10.873c-0.196,-3.646 -0.565,-7.248 -1.129,-10.829c-0.564,-3.58 -1.324,-7.139 -2.257,-10.633c-0.933,-3.516 -2.04,-6.967 -3.342,-10.352c-1.302,-3.385 -2.778,-6.706 -4.405,-9.939Zm-77.67,-7.617l-0.52,-0l-0,-4.71l0.52,0l0,4.71Zm-30.164,-4.71l0.499,0l-0,4.71l-0.499,-0l-0,-4.71Zm0.499,27.887c-0,30.425 -16.081,55.165 -35.873,55.165c-0.065,-0 -0.152,-0 -0.217,0.021c20.964,-9.548 35.591,-30.707 35.591,-55.186l-0,-19.792l0.499,0l-0,19.792Zm5.425,-23.177l0,-4.71l0.521,0l-0,4.71l-0.521,-0Zm5.924,-0l0,-4.71l0.521,0l0,4.71l-0.521,-0Zm5.947,-0l-0,-4.71l0.499,0l-0,4.71l-0.499,-0Zm5.924,-0l0,-4.71l0.521,0l-0,4.71l-0.521,-0Zm42.036,78.363c-0.087,0 -0.152,-0.021 -0.217,-0.021c-19.792,-0 -35.894,-24.74 -35.894,-55.165l-0,-18.924l0.52,0.022l0,18.902c0,24.479 14.605,45.638 35.591,55.186Z" style="fill-rule:nonzero;"/></g><g><clipPath id="_clip39"><rect x="1751.3" y="26.584" width="3937.59" height="22.461"/></clipPath><g clip-path="url(#_clip39)"><rect x="1751.3" y="26.584" width="4424.09" height="22.461" style="fill:#d4983d;fill-rule:nonzero;"/></g></g><g><g><g><path d="M499.459,208.279c-0.412,3.473 -1.801,5.881 -4.166,7.205c-2.388,1.281 -5.187,1.91 -8.421,1.91c-3.602,-0 -7.161,-0.195 -10.677,-0.608c-3.776,-0.39 -7.465,-0.607 -11.111,-0.607c-10.373,-0 -20.725,0.521 -31.076,1.562c-10.373,0.998 -20.573,2.561 -30.642,4.688c-5.274,0.933 -10.504,1.888 -15.712,2.864c-5.165,0.933 -10.417,1.389 -15.799,1.389c-4.167,0 -8.116,-0.607 -11.805,-1.823c-3.711,-1.215 -6.901,-3.429 -9.549,-6.684c-2.148,-2.539 -3.212,-5.23 -3.212,-8.073c0,-1.497 0.478,-2.56 1.476,-3.211c0.976,-0.695 2.279,-1.237 3.906,-1.65l0.261,-0.607c-1.802,-0.912 -3.646,-1.845 -5.556,-2.778c-1.866,-0.977 -3.516,-2.127 -4.948,-3.472c-2.148,-1.91 -4.123,-4.623 -5.903,-8.16c-1.736,-3.581 -2.604,-6.858 -2.604,-9.809c0,-2.648 1.215,-4.254 3.646,-4.774c2.43,-0.565 4.557,-1.129 6.424,-1.65c0.976,-0.282 2.951,-1.258 5.902,-2.951c2.952,-1.671 6.359,-3.776 10.243,-6.337c3.928,-2.539 7.856,-5.143 11.806,-7.812c3.993,-2.713 7.509,-5.144 10.59,-7.292c3.125,-2.192 5.209,-3.754 6.25,-4.688c1.085,-0.694 2.127,-1.432 3.125,-2.257c1.042,-0.803 2.105,-1.519 3.212,-2.17c0.738,-0.564 1.91,-1.389 3.472,-2.43c1.563,-1.085 2.344,-1.91 2.344,-2.431c-0,-0.39 -0.217,-0.998 -0.608,-1.823c-0.412,-0.803 -0.607,-1.606 -0.607,-2.43c-0,-3.646 0.998,-6.619 3.038,-8.941c2.018,-2.366 4.557,-4.167 7.639,-5.382c3.125,-1.216 6.293,-1.867 9.548,-1.997c1.042,-0.173 1.91,-0.26 2.605,-0.26l1.996,-0c0.912,-0 2.018,0.13 3.299,0.347c1.258,0.174 2.864,0.412 4.774,0.694l3.212,0.435c1.085,0.13 2.105,0.325 3.038,0.607c1.215,0.412 2.344,0.781 3.385,1.129c1.086,0.303 2.257,0.781 3.473,1.475c0.911,0.521 1.866,1.194 2.864,1.997c1.042,0.825 1.91,1.562 2.604,2.257c1.606,1.866 2.691,3.515 3.212,4.948c0.521,1.389 1.064,3.298 1.65,5.729c0.108,0.412 0.564,0.825 1.388,1.215l18.143,9.115c4.861,2.387 9.744,5.078 14.67,8.073c4.904,2.951 9.657,6.054 14.236,9.288c2.127,1.345 4.471,3.016 7.031,5.035c2.539,2.04 4.297,3.776 5.295,5.208c1.737,2.561 3.256,5.425 4.601,8.594c1.324,3.19 1.997,6.315 1.997,9.375c-0,4.579 -1.454,8.81 -4.341,12.673c-2.908,3.82 -6.749,5.729 -11.545,5.729c-1.389,0 -2.756,-0.021 -4.08,-0.086c-1.345,-0.109 -2.669,-0.217 -3.993,-0.348Zm-14.757,46.181l-0.173,0.434c2.257,1.736 4.383,3.212 6.423,4.427c2.019,1.215 4.102,2.995 6.25,5.295c2.952,3.082 5.513,6.597 7.726,10.59c2.257,3.95 3.385,8.139 3.385,12.587c0,5.903 -1.475,10.699 -4.427,14.41c-2.951,3.689 -7.617,5.556 -13.975,5.556c-1.867,-0 -3.907,-0.261 -6.163,-0.782c-2.214,-0.521 -4.124,-1.475 -5.73,-2.864c-1.345,-1.042 -2.691,-2.214 -4.08,-3.472c-1.345,-1.281 -2.322,-2.822 -2.951,-4.601c-1.107,-2.952 -2.062,-4.427 -2.864,-4.427c-0.521,-0 -0.999,0.043 -1.389,0.173l-24.393,4.514l-25.26,5.99c-4.167,0.694 -8.203,1.259 -12.066,1.736c-3.82,0.456 -8.073,0.694 -12.761,0.694c-7.421,0 -13.715,-0.607 -18.923,-1.823c-5.165,-1.215 -10.894,-3.776 -17.188,-7.638c-3.255,-2.04 -6.206,-4.731 -8.854,-8.073c-2.604,-3.342 -3.906,-7.053 -3.906,-11.111c-0,-3.06 0.868,-5.665 2.604,-7.813c1.78,-2.192 3.494,-4.427 5.122,-6.684c-0.999,-0.694 -1.975,-1.302 -2.952,-1.823c-0.998,-0.521 -2.04,-1.063 -3.125,-1.649c-2.322,-1.215 -4.297,-3.407 -5.903,-6.597c-1.562,-3.234 -2.343,-6.077 -2.343,-8.507c-0,-1.324 0.434,-2.605 1.302,-3.82c0.868,-1.215 1.953,-1.823 3.298,-1.823c1.498,0 2.973,0.065 4.427,0.174c1.498,0.13 2.974,0.173 4.428,0.173c0.976,0 3.342,-0.282 7.118,-0.868c3.754,-0.629 8.246,-1.41 13.454,-2.343c5.252,-0.912 10.591,-1.867 15.973,-2.865c5.382,-1.042 10.156,-1.953 14.323,-2.778c4.166,-0.803 7.053,-1.323 8.68,-1.562c4.037,-0.695 8.095,-1.237 12.153,-1.649c4.036,-0.391 8.073,-0.738 12.066,-1.042c3.342,-0.217 6.641,-0.478 9.896,-0.781c3.233,-0.283 6.467,-0.478 9.722,-0.608l15.538,-1.042c0.217,0 0.478,0.065 0.781,0.174c0.283,0.065 0.543,0.087 0.782,0.087l0.868,-0c1.844,-0 3.689,-0.044 5.555,-0.174c1.91,-0.174 3.755,-0.26 5.556,-0.26c5.078,-0 10.286,0.738 15.625,2.17c5.317,1.389 9.657,4.123 13.021,8.16c1.606,1.736 2.951,3.732 3.993,5.989c1.085,2.214 1.649,4.492 1.649,6.858c0,3.429 -1.454,6.228 -4.34,8.42c-2.908,2.213 -5.903,3.299 -9.028,3.299c-1.736,-0 -3.537,-0.109 -5.382,-0.348c-1.801,-0.282 -3.624,-0.629 -5.469,-1.041c-0.933,-0.282 -1.953,-0.478 -3.038,-0.608c-1.107,-0.109 -2.127,-0.26 -3.038,-0.434l-1.997,-0Zm-101.562,-57.292c0.976,-0.108 2.387,-0.455 4.253,-1.041c1.91,-0.63 3.386,-1.085 4.427,-1.389c2.431,-0.912 4.536,-1.563 6.337,-1.91c1.845,-0.347 4.254,-0.977 7.205,-1.91c3.125,-1.215 6.771,-2.17 10.938,-2.864c4.166,-0.738 8.376,-1.346 12.673,-1.823c4.34,-0.521 8.095,-0.89 11.285,-1.129c4.34,-0.564 8.637,-0.911 12.934,-1.041l12.934,-0.434l-0.608,-0.608l-14.149,-8.681c-1.345,-0.911 -2.756,-1.822 -4.253,-2.691c-1.454,-0.868 -2.93,-1.605 -4.428,-2.256c-1.454,-0.695 -3.385,-1.65 -5.815,-2.865c-2.431,-1.215 -4.406,-1.823 -5.903,-1.823c-1.346,0 -2.648,0.326 -3.907,0.955c-1.28,0.586 -2.473,1.28 -3.559,2.083l-13.107,9.896l-1.389,1.215l-21.354,14.063c-0.586,0.304 -1.606,0.846 -3.038,1.649c-1.389,0.825 -1.954,1.541 -1.65,2.17l0.174,0.434Zm-8.854,80.295c1.215,0.695 2.691,1.042 4.427,1.042c2.951,0 6.792,-0.651 11.545,-1.996c4.796,-1.324 9.635,-2.822 14.496,-4.514c4.862,-1.736 8.768,-3.06 11.719,-3.993c5.382,-1.736 10.938,-3.212 16.667,-4.427c5.729,-1.216 11.328,-2.171 16.84,-2.865c0.521,-0.109 0.977,-0.434 1.389,-0.955c-1.042,-2.018 -2.04,-3.429 -2.951,-4.253c-0.868,-0.803 -2.127,-1.216 -3.733,-1.216l-1.562,0l-16.754,1.65l-15.972,1.996c-4.167,0.521 -8.485,1.801 -12.934,3.82c-4.406,2.04 -8.377,4.058 -11.893,6.076c-2.148,1.346 -4.21,2.756 -6.163,4.253c-1.909,1.454 -3.624,3.256 -5.121,5.382Z" style="fill-rule:nonzero;"/></g></g></g><g><g><g><path d="M750.694,276.075c1.432,0.933 2.886,1.866 4.34,2.777c1.497,0.868 2.799,1.975 3.906,3.299c1.085,1.215 2.084,2.648 2.952,4.253c0.868,1.606 1.302,3.234 1.302,4.862c-0,2.777 -0.738,5.49 -2.17,8.159c-1.389,2.713 -3.256,5.035 -5.556,6.945c-1.866,1.736 -4.145,2.864 -6.858,3.385c-2.669,0.564 -5.273,0.868 -7.812,0.868c-3.125,0 -7.357,-0.824 -12.674,-2.43c-5.273,-1.628 -10.069,-3.863 -14.41,-6.684l-14.322,-7.466c-1.737,-0.694 -3.733,-1.606 -5.99,-2.691c-2.214,-1.041 -4.232,-1.562 -6.076,-1.562c-2.605,-0 -5.556,0.911 -8.855,2.778c-3.298,1.909 -7.443,4.47 -12.413,7.725c-2.257,1.498 -5.62,2.8 -10.069,3.907c-4.471,1.15 -8.29,1.822 -11.459,1.996l-17.795,0.781l-4.427,-0.607c-3.125,-0.413 -6.684,-0.912 -10.677,-1.476c-3.949,-0.521 -7.617,-1.128 -11.024,-1.823c-3.429,-0.651 -5.946,-1.432 -7.552,-2.344c-3.125,-1.909 -5.86,-3.949 -8.16,-6.076c-2.257,-2.149 -3.385,-4.905 -3.385,-8.247c-0,-3.515 1.302,-6.423 3.906,-8.68c2.647,-2.3 5.859,-4.384 9.635,-6.25c-0.933,-1.91 -1.823,-3.754 -2.691,-5.556c-0.868,-1.844 -1.606,-3.776 -2.17,-5.816c-0.651,-2.647 -1.085,-5.338 -1.302,-8.073c-0.174,-2.777 -0.26,-5.512 -0.26,-8.246c-0,-3.234 0.282,-7.422 0.868,-12.587c0.629,-5.208 1.215,-10.156 1.736,-14.844c0.108,-1.085 0.26,-2.278 0.434,-3.559c0.217,-1.258 0.456,-2.43 0.694,-3.472c0.282,-1.085 0.434,-2.105 0.434,-3.038c0,-0.282 -0.152,-0.695 -0.434,-1.215c-0.238,-0.565 -0.824,-1.519 -1.736,-2.865c-0.824,-1.215 -1.215,-2.539 -1.215,-3.993c-0,-3.646 1.15,-6.185 3.472,-7.639c2.366,-1.497 5.165,-2.257 8.42,-2.257c2.713,0 5.252,0.564 7.639,1.649c2.431,1.042 4.644,2.388 6.684,3.993c0.521,0.413 0.977,0.825 1.389,1.216c0.391,0.412 0.89,0.738 1.476,0.955l0.607,-0.174l19.358,-3.993l19.358,-3.299c2.951,-0.52 5.837,-1.085 8.68,-1.736c2.821,-0.694 5.729,-1.172 8.681,-1.475l15.364,-1.216c4.688,-0.217 9.462,-0.304 14.323,-0.26c4.861,0.065 9.571,0.651 14.15,1.736c2.365,0.412 5.208,1.085 8.507,1.996c3.298,0.934 6.532,2.084 9.722,3.473c3.168,1.345 5.642,2.777 7.378,4.34c2.648,2.322 4.97,4.861 6.945,7.639c1.953,2.734 3.407,5.859 4.34,9.375c0.521,1.454 0.868,2.995 1.042,4.601c0.217,1.627 0.477,3.19 0.781,4.687l0.434,16.32l0.174,18.402c-0,4.167 -0.651,7.683 -1.91,10.504c-1.281,2.778 -3.19,5.794 -5.729,9.028Zm-47.83,-98.872l-15.191,0l-21.962,2.604l-7.465,1.215l-18.577,3.82c-1.736,0.174 -3.537,0.412 -5.382,0.694c-1.801,0.239 -3.645,0.348 -5.555,0.348c-3.776,-0 -7.465,-0.63 -11.111,-1.91c-3.603,-1.259 -7.27,-2.192 -11.025,-2.778c-2.213,-0.217 -4.123,-1.345 -5.729,-3.385c-1.562,-2.019 -2.843,-3.993 -3.819,-5.903c-1.346,-2.648 -2.235,-5.491 -2.691,-8.507c-0.478,-3.06 -0.695,-6.076 -0.695,-9.028c0,-1.215 0.022,-2.43 0.087,-3.646c0.044,-1.215 0.13,-2.343 0.261,-3.385c0.173,-0.912 0.303,-1.758 0.434,-2.517c0.108,-0.738 0.173,-1.52 0.173,-2.344c0,-0.912 -1.02,-2.127 -3.038,-3.646c-0.933,-0.629 -1.606,-1.584 -1.996,-2.865c-0.413,-1.323 -0.608,-2.517 -0.608,-3.559c-0,-3.125 1.128,-5.425 3.385,-6.944c2.301,-1.563 4.883,-2.344 7.726,-2.344c3.516,0 6.467,0.673 8.854,1.997c2.431,1.345 5.729,3.559 9.896,6.684c4.167,-1.498 8.355,-2.908 12.587,-4.254l12.5,-4.08c3.581,-1.15 7.291,-2.17 11.111,-3.038c3.863,-0.911 7.639,-1.693 11.285,-2.344c2.647,-0.564 5.751,-1.063 9.288,-1.475c3.581,-0.391 7.205,-0.738 10.851,-1.042c3.645,-0.347 6.814,-0.564 9.548,-0.694c2.778,-0.174 4.644,-0.261 5.643,-0.261c5.49,0 11.219,0.912 17.187,2.691c6.011,1.736 11.306,3.972 15.885,6.684c4.558,2.669 8.377,6.12 11.459,10.33c3.125,4.232 4.687,9.093 4.687,14.583c0,1.91 -0.26,3.473 -0.781,4.688c-1.215,2.561 -2.04,4.253 -2.431,5.121c-0.412,0.868 -0.607,1.52 -0.607,1.91c-0,0.412 0.13,0.998 0.434,1.736c0.347,0.76 0.998,2.257 1.996,4.514c0.391,0.825 0.63,1.628 0.695,2.431c0.043,0.824 0.087,1.627 0.087,2.43c-0,3.364 -0.999,6.207 -2.952,8.507c-1.909,2.257 -4.644,3.386 -8.159,3.386c-1.867,-0 -3.777,-0.217 -5.73,-0.695c-1.974,-0.456 -3.884,-1.041 -5.729,-1.736c-0.998,-0.391 -2.061,-0.738 -3.212,-1.042c-1.106,-0.347 -2.213,-0.607 -3.298,-0.781l-18.316,-2.17Zm-78.733,-13.715l35.938,-7.292l18.576,-2.17c2.257,-0.282 4.883,-0.608 7.899,-0.955c3.06,-0.347 4.992,-0.521 5.816,-0.521l3.646,0c0.912,-0.521 2.127,-1.389 3.646,-2.604c1.562,-1.215 2.973,-2.517 4.253,-3.906c1.259,-1.432 1.91,-2.691 1.91,-3.733c0,-1.606 -0.304,-2.604 -0.868,-2.951c-0.586,-0.347 -1.627,-0.521 -3.125,-0.521c-3.255,-0 -6.467,0.217 -9.635,0.608c-3.125,0.412 -6.25,0.824 -9.375,1.215l-16.754,4.687l-10.243,2.778l-16.927,2.865c-0.998,0.13 -1.888,0.173 -2.691,0.173l-2.778,0c-1.106,0 -2.322,0.087 -3.645,0.261c-1.346,0.13 -2.344,0.173 -3.039,0.173l-3.819,0c0.108,2.04 0.195,4.059 0.26,6.077c0.109,1.975 0.434,3.906 0.955,5.816Zm-6.51,62.587l8.507,-0.869l17.534,-4.253l2.865,-0.955l17.187,-4.253l12.848,-2.431l17.795,-1.389c0.694,-0.173 1.931,-0.108 3.732,0.174c1.78,0.304 3.668,0.607 5.643,0.955c1.953,0.304 3.472,0.651 4.514,1.041c1.215,0.586 2.387,1.216 3.559,1.91c1.15,0.651 2.344,1.302 3.559,1.997c-0,-0.695 0.022,-1.433 0.087,-2.257c0.043,-0.803 0.086,-1.606 0.086,-2.431c0,-2.018 -0.954,-3.472 -2.864,-4.34c-1.866,-0.868 -3.972,-1.346 -6.337,-1.476c-2.322,-0.173 -4.232,-0.26 -5.729,-0.26l-4.861,-0c-1.736,-0 -3.386,0.065 -4.948,0.173c-1.563,0.065 -3.277,0.217 -5.122,0.434l-19.357,3.039l-27.865,6.076c-3.364,0.825 -6.814,1.215 -10.33,1.215c-3.472,0 -6.64,-0.455 -9.462,-1.389c-0.303,1.454 -0.564,2.93 -0.781,4.427c-0.173,1.454 -0.26,3.082 -0.26,4.862Zm96.093,24.218c-3.645,-1.085 -7.161,-1.649 -10.503,-1.649l-9.635,-0c-3.95,-0 -7.184,0.217 -9.723,0.608l-17.187,2.777l-8.854,1.476l-14.497,3.212c-2.734,0.521 -5.512,0.998 -8.333,1.389c-2.778,0.412 -5.534,0.607 -8.247,0.607c-1.519,0 -2.951,-0.195 -4.34,-0.607c-1.389,-0.391 -2.843,-0.868 -4.34,-1.389c0.108,1.107 0.217,2.235 0.347,3.385c0.174,1.107 0.304,2.214 0.434,3.299c1.78,-0 4.015,-0.022 6.684,-0.087c2.713,-0.108 5.404,-0.217 8.073,-0.347c2.713,-0.109 4.861,-0.304 6.424,-0.608l18.229,-3.646l11.718,-2.43l17.362,-1.997l18.489,-1.041l6.858,-0c0.282,-0.521 0.477,-0.999 0.607,-1.476c0.174,-0.456 0.304,-0.955 0.434,-1.476Zm1.216,-15.191c0.108,-0.803 0.195,-1.562 0.26,-2.257c0.109,-0.737 0.174,-1.519 0.174,-2.343c-1.91,-0.695 -3.863,-1.259 -5.816,-1.736c-1.91,-0.456 -3.885,-0.782 -5.903,-0.955c-0.933,-0.109 -2.648,-0.196 -5.121,-0.261c-2.496,-0.043 -4.927,-0.087 -7.292,-0.087c-2.387,0 -3.885,0.066 -4.514,0.174l-20.052,3.212l-18.142,4.253l-13.542,3.212c-2.149,0.412 -4.254,0.781 -6.337,1.129c-2.083,0.347 -4.21,0.52 -6.337,0.52c-0.933,0 -1.801,-0.086 -2.604,-0.26c-0.825,-0.217 -1.628,-0.391 -2.43,-0.521l-0,4.254c-0,0.52 0.043,0.998 0.173,1.389c1.91,-0 3.841,-0.087 5.816,-0.261c2.018,-0.217 3.993,-0.434 5.903,-0.608c1.606,-0.217 3.233,-0.564 4.861,-1.041c1.606,-0.456 3.234,-0.89 4.861,-1.302c5.078,-0.977 10.113,-1.997 15.104,-3.038l14.931,-3.212c4.687,-1.085 9.462,-1.953 14.323,-2.604c4.861,-0.695 9.57,-1.042 14.149,-1.042c2.648,-0 5.295,0.325 7.899,0.955c2.648,0.586 5.86,1.389 9.636,2.43Zm-69.618,42.361c-0.521,-0.108 -1.042,-0.217 -1.563,-0.347c-0.477,-0.173 -1.02,-0.26 -1.649,-0.26l-1.649,-0c-0.521,-0 -1.194,0.087 -1.997,0.26l-11.285,1.215c-3.125,0.239 -6.38,0.738 -9.722,1.476c-3.364,0.76 -5.035,1.997 -5.035,3.733c0,0.933 0.738,1.693 2.257,2.257c1.563,0.521 3.234,0.868 5.035,1.041c1.845,0.131 3.168,0.174 3.993,0.174c3.234,0 6.988,-0.825 11.285,-2.517c4.34,-1.671 7.769,-4.015 10.33,-7.032Z" style="fill-rule:nonzero;"/></g></g></g><g><g><g><path d="M847.327,172.516l0.782,-32.292c-2.149,-1.563 -4.145,-3.299 -5.99,-5.208c-1.801,-1.91 -2.691,-4.341 -2.691,-7.292c-0,-2.431 1.237,-4.557 3.733,-6.424c2.474,-1.909 4.882,-2.864 7.204,-2.864c2.366,-0 5.035,0.52 7.987,1.562c2.994,0.998 5.902,2.301 8.68,3.906c2.821,1.628 4.991,3.386 6.511,5.296c2.539,2.951 4.448,6.336 5.729,10.156c1.258,3.819 1.909,7.704 1.909,11.632c0,1.866 -0.043,3.732 -0.086,5.642c-0.065,1.866 -0.152,3.733 -0.261,5.642c3.472,0.413 6.294,1.368 8.507,2.865c2.257,1.454 4.297,3.646 6.163,6.597c1.91,3.125 3.407,6.467 4.514,9.983c1.15,3.472 2.018,7.009 2.604,10.59c2.257,-3.581 4.796,-6.38 7.639,-8.42c-1.866,-1.085 -3.884,-2.474 -6.076,-4.167c-2.149,-1.671 -3.212,-3.776 -3.212,-6.336c0,-1.498 0.695,-2.865 2.083,-4.08c1.433,-1.216 2.974,-1.823 4.601,-1.823c0.803,-0 1.91,0.152 3.299,0.434c1.432,0.304 2.43,0.434 2.951,0.434c0.521,-0 1.563,-0.087 3.125,-0.261c1.563,-0.217 3.212,-0.434 4.948,-0.607c1.736,-0.217 2.951,-0.434 3.646,-0.608c0.911,-0.217 1.779,-0.521 2.604,-0.868c0.803,-0.347 1.671,-0.651 2.604,-0.955c-0.13,-0.911 -0.217,-1.823 -0.26,-2.691c-0.065,-0.868 -0.174,-1.692 -0.347,-2.517l-6.25,1.215c-1.454,0.304 -2.67,0.434 -3.646,0.434c-2.431,0 -5.252,-0.477 -8.42,-1.475c-3.125,-1.042 -5.86,-2.561 -8.16,-4.601c-2.257,-2.018 -3.386,-4.514 -3.386,-7.465c0,-1.498 0.652,-2.735 1.997,-3.733c1.389,-1.042 2.734,-1.563 4.08,-1.563l5.208,0c0.282,0 1.259,-0.217 2.952,-0.694c1.671,-0.456 3.559,-0.998 5.642,-1.649c2.083,-0.695 3.993,-1.324 5.729,-1.91c1.78,-0.629 2.952,-0.998 3.472,-1.129c-3.776,-3.407 -5.642,-6.098 -5.642,-8.072c-0,-2.019 0.738,-3.755 2.257,-5.209c1.562,-1.497 3.407,-2.647 5.555,-3.472c2.192,-0.803 4.102,-1.215 5.73,-1.215c2.777,-0 5.685,0.238 8.767,0.694c3.125,0.478 6.033,1.259 8.767,2.344c1.736,0.521 3.256,1.454 4.601,2.778c1.389,1.345 2.734,2.604 4.08,3.819c2.257,-0.521 4.601,-0.868 7.031,-1.042c2.431,-0.217 4.861,-0.347 7.292,-0.347c2.951,0 5.686,0.239 8.246,0.695c2.539,0.477 5.122,1.454 7.726,2.951c2.127,1.215 3.928,2.648 5.382,4.254c1.497,1.627 2.257,3.776 2.257,6.423c-0,2.952 -0.781,5.035 -2.344,6.25c-1.562,1.215 -3.732,1.823 -6.51,1.823c-1.91,0 -3.863,-0.043 -5.816,-0.174c-1.91,-0.173 -3.82,-0.26 -5.729,-0.26c-2.04,0 -4.059,0.174 -6.077,0.521c-1.975,0.347 -3.971,0.673 -5.989,0.955c-0,0.933 -0.065,1.801 -0.174,2.604c-0.065,0.825 -0.087,1.693 -0.087,2.604c1.78,-0.282 3.516,-0.521 5.209,-0.694c1.671,-0.217 3.385,-0.348 5.121,-0.348c2.539,0 5.469,0.478 8.767,1.389c3.299,0.868 6.207,2.301 8.768,4.254c2.539,1.909 3.819,4.492 3.819,7.725c0,3.364 -1.367,5.816 -4.08,7.379c-2.669,1.562 -5.533,2.344 -8.593,2.344c-2.04,-0 -4.037,-0.022 -5.99,-0.087c-1.91,-0.109 -3.819,-0.174 -5.729,-0.174c-1.215,0 -2.431,0.087 -3.646,0.261c-1.215,0.13 -2.43,0.325 -3.646,0.607l0,6.424c2.431,-0.109 4.861,-0.304 7.292,-0.608c2.43,-0.282 4.861,-0.434 7.292,-0.434c3.862,0 7.66,0.608 11.371,1.823c3.689,1.215 6.771,3.19 9.202,5.903c2.43,2.669 3.645,6.293 3.645,10.851c0,2.43 -0.694,4.579 -2.083,6.423c-1.345,1.801 -3.342,2.691 -5.99,2.691c-0.824,0 -1.627,-0.087 -2.43,-0.26c-0.825,-0.217 -1.563,-0.391 -2.257,-0.521c-2.561,-0.694 -5.252,-1.432 -8.073,-2.257c-2.843,-0.803 -5.599,-0.955 -8.247,-0.434c5.252,1.801 9.679,4.753 13.282,8.854c3.646,4.058 6.423,8.572 8.333,13.542c2.018,5.165 3.255,10.829 3.733,17.014c0.455,6.206 0.694,13.715 0.694,22.569c0,2.843 -0.087,6.163 -0.26,9.983c-0.13,3.819 -0.564,7.574 -1.302,11.285c-0.695,3.689 -1.953,6.77 -3.733,9.201c-1.736,2.539 -4.253,4.427 -7.552,5.642c-3.299,1.216 -6.424,1.823 -9.375,1.823c-5.1,0 -9.896,-1.128 -14.41,-3.385c-4.514,-2.214 -8.724,-4.775 -12.587,-7.726c-4.34,-3.364 -7.942,-6.597 -10.763,-9.722c-2.843,-3.169 -6.055,-6.641 -9.636,-10.417c0,2.431 0.022,4.861 0.087,7.292c0.043,2.387 0.087,4.709 0.087,7.031c-0,4.557 -0.651,8.529 -1.91,11.892c-1.28,3.343 -4.405,5.035 -9.375,5.035c-2.561,0 -4.991,-0.564 -7.292,-1.649c-2.257,-1.042 -4.34,-2.387 -6.25,-3.993c-2.148,-2.04 -3.797,-4.254 -4.948,-6.684c-1.171,-2.431 -1.736,-5.122 -1.736,-8.073c0,-1.606 0.174,-4.188 0.521,-7.726c0.347,-3.581 0.738,-7.552 1.215,-11.892c0.456,-4.384 0.955,-8.529 1.476,-12.413c0.564,-3.928 1.063,-7.032 1.476,-9.289c0.108,-0.564 0.173,-1.258 0.173,-2.083c0,-1.844 -1.432,-3.928 -4.253,-6.25c-1.346,-1.042 -2.344,-2.257 -3.038,-3.646c-0.651,-1.432 -0.912,-3.038 -0.782,-4.774c-1.736,1.454 -3.559,2.17 -5.468,2.17c-3.776,0 -6.467,-1.693 -8.073,-5.121c-1.628,-3.408 -2.952,-8.008 -3.993,-13.802c-0.304,-1.498 -0.608,-2.974 -0.955,-4.428c-0.304,-1.497 -0.651,-2.908 -1.042,-4.253c0,9.158 -0.065,18.294 -0.173,27.431c-0.065,9.158 -0,18.294 0.173,27.43c0,3.364 0.087,6.749 0.261,10.156c0.217,3.364 0.347,6.771 0.347,10.243c-0,4.059 -0.412,8.16 -1.215,12.327c-0.825,4.166 -2.908,7.66 -6.25,10.503c-1.802,1.433 -3.863,2.561 -6.164,3.386c-2.257,0.803 -4.513,1.215 -6.77,1.215c-5.686,-0 -10.135,-2.04 -13.368,-6.076c-3.191,-3.994 -4.775,-8.681 -4.775,-14.063c0,-2.951 0.13,-5.859 0.434,-8.767c0.347,-2.887 0.564,-5.838 0.695,-8.854c0.39,-7.639 0.651,-15.278 0.781,-22.917c0.174,-7.682 0.26,-15.452 0.26,-23.264l0,-5.208c0,-1.78 -0.065,-3.559 -0.173,-5.296c-0.999,3.95 -2.04,7.791 -3.125,11.546c-1.042,3.776 -2.648,7.378 -4.775,10.85c-0.933,1.628 -1.974,3.039 -3.125,4.254c-1.171,1.215 -2.756,1.823 -4.774,1.823c-4.579,-0 -7.704,-1.823 -9.375,-5.469c-1.693,-3.646 -2.517,-7.335 -2.517,-11.111c-0,-1.324 0.304,-2.952 0.955,-4.861c0.694,-1.953 1.323,-3.841 1.909,-5.643c1.736,-5.078 3.407,-10.178 5.035,-15.277c1.606,-5.144 3.147,-10.2 4.601,-15.191c-1.628,-1.216 -2.995,-2.735 -4.08,-4.601c-1.042,-1.91 -1.563,-3.928 -1.563,-6.076c0,-2.257 0.782,-4.471 2.344,-6.684c1.563,-2.257 3.559,-3.386 5.99,-3.386c3.06,0 5.859,1.042 8.42,3.125c2.539,2.083 4.709,4.254 6.51,6.511Zm121.094,93.923c-1.215,0.521 -2.474,0.998 -3.733,1.389c-1.28,0.412 -2.669,0.608 -4.166,0.608c-2.952,-0 -5.534,-0.868 -7.726,-2.605c-2.148,-1.779 -4.557,-4.166 -7.205,-7.118c-1.345,-1.432 -2.951,-2.604 -4.861,-3.472c-1.866,-0.911 -3.733,-1.779 -5.642,-2.604c-0.13,2.214 -0.239,4.34 -0.348,6.424c-0.065,2.083 -0.151,4.21 -0.26,6.336c0.695,0.304 2.17,0.934 4.427,1.91c2.301,0.998 4.97,2.17 7.986,3.559c2.995,1.346 5.99,2.648 8.941,3.906c2.995,1.281 5.491,2.344 7.466,3.212c2.018,0.868 3.125,1.302 3.298,1.302c0.803,0 1.346,-0.434 1.649,-1.302c0.348,-0.868 0.521,-1.562 0.521,-2.083l0,-4.861c0,-1.606 -0.13,-3.147 -0.347,-4.601Zm-58.941,-45.052c2.951,-0.694 5.838,-0.108 8.681,1.736c2.821,1.801 5.316,3.646 7.465,5.556c1.432,-1.91 2.995,-3.733 4.687,-5.469c1.671,-1.736 3.473,-3.342 5.382,-4.861l-1.823,-0c-4.579,-0 -8.745,-0.456 -12.5,-1.389c-3.776,-0.911 -7.725,-2.474 -11.892,-4.688l0,9.115Zm19.184,-28.212c0,-1.497 0.022,-2.951 0.087,-4.34c0.043,-1.432 0.13,-2.821 0.26,-4.167c-1.736,0.521 -3.624,1.346 -5.642,2.431c-2.04,1.042 -3.646,1.91 -4.861,2.604c-1.215,0.694 -2.04,1.259 -2.431,1.649c-0.347,0.413 -0.824,1.02 -1.389,1.823c-0.933,1.346 -1.388,2.67 -1.388,3.993c-0,0.413 0.217,0.738 0.694,0.955c0.456,0.174 0.825,0.261 1.128,0.261c0.912,-0 2.648,-0.521 5.209,-1.563c2.539,-1.085 5.317,-2.3 8.333,-3.646Zm27.604,46.181c2.821,0.521 5.122,1.085 6.858,1.649c1.736,0.521 3.494,1.715 5.295,3.559c0.391,-1.844 0.608,-3.733 0.608,-5.642c-0,-2.257 -0.499,-4.449 -1.476,-6.597c-0.933,-2.192 -1.997,-3.299 -3.212,-3.299c-1.041,-0 -2.257,0.955 -3.646,2.865c-0.933,1.345 -1.823,2.734 -2.691,4.166c-0.868,1.389 -1.454,2.496 -1.736,3.299Z" style="fill-rule:nonzero;"/></g></g></g><g><g><g><path d="M1571.63,263.094l0.608,-2.864c-0.651,-0.695 -1.367,-1.519 -2.17,-2.518c-0.825,-0.976 -1.216,-2.018 -1.216,-3.125c0,-0.694 0.196,-1.432 0.608,-2.257c0.391,-0.803 0.608,-1.41 0.608,-1.822c-0,-0.521 -0.304,-1.042 -0.868,-1.563c-0.825,-0.803 -1.454,-1.649 -1.91,-2.517c-0.478,-0.868 -0.955,-1.845 -1.476,-2.952c-0.933,-1.909 -1.519,-3.385 -1.736,-4.427c-0.174,-1.085 -0.217,-2.712 -0.087,-4.861l1.563,-24.219l1.823,-26.389c-0,-1.085 -0.217,-1.844 -0.608,-2.257c-1.346,-1.323 -2.604,-2.69 -3.819,-4.079c-1.216,-1.433 -2.431,-2.822 -3.646,-4.167c-0.521,-0.694 -0.933,-1.563 -1.216,-2.604c-0.238,-1.085 -0.347,-2.04 -0.347,-2.865c0,-2.018 0.456,-3.949 1.389,-5.816c0.912,-1.909 1.997,-3.515 3.212,-4.861c0.976,-1.085 2.018,-2.018 3.125,-2.778c1.15,-0.737 2.387,-1.432 3.733,-2.083c0.802,-0.521 1.584,-1.042 2.343,-1.562c0.738,-0.565 1.584,-1.129 2.518,-1.65c0.282,-0.282 0.434,-0.477 0.434,-0.607c-0,-0.391 -0.087,-0.825 -0.261,-1.303c-0.13,-0.52 -0.651,-1.692 -1.562,-3.559c-0.304,-0.52 -0.434,-1.128 -0.434,-1.822c-0,-2.822 1.41,-5.057 4.253,-6.684c2.821,-1.606 5.99,-2.735 9.462,-3.386c3.516,-0.694 6.293,-1.042 8.333,-1.042c2.539,0 5.686,0.521 9.462,1.563c3.754,0.998 7.118,2.496 10.07,4.514c2.951,2.04 4.427,4.644 4.427,7.812c-0,2.604 -1.216,4.688 -3.646,6.25c-2.387,1.519 -4.579,2.604 -6.597,3.299l-18.577,5.642l-4.427,1.563c-1.389,0.694 -2.778,1.389 -4.167,2.083c-1.388,0.651 -2.43,1.715 -3.125,3.212l1.216,0.781l5.034,1.997l3.646,-1.389l16.32,-6.424l4.427,-1.996l17.621,-6.511c2.257,-0.911 3.386,-2.647 3.386,-5.208c-0,-0.564 -0.13,-1.346 -0.347,-2.344c-0.174,-1.041 -0.869,-2.626 -2.084,-4.774c-0.13,-0.217 -0.173,-0.629 -0.173,-1.215c-0,-1.845 0.651,-3.755 1.996,-5.73c1.324,-1.953 2.8,-3.211 4.427,-3.732c1.91,-0.695 4.362,-1.172 7.379,-1.476c3.06,-0.347 5.664,-0.521 7.812,-0.521c2.821,0 5.729,0.521 8.681,1.563c2.951,0.998 5.686,2.148 8.246,3.472c1.606,0.933 2.952,2.127 3.993,3.559c1.085,1.389 1.997,2.908 2.691,4.514l18.143,-2.604c2.712,-0.174 5.338,-0.304 7.899,-0.434c2.539,-0.109 5.078,-0.174 7.639,-0.174c2.951,0 6.445,0.586 10.503,1.736c4.037,1.107 7.596,2.865 10.677,5.295c3.125,2.431 4.688,5.534 4.688,9.289c-0,1.345 -0.347,2.604 -1.042,3.819c-0.694,1.215 -1.519,2.387 -2.43,3.472c-0.695,0.825 -1.65,1.281 -2.865,1.389c-1.172,0.13 -2.235,0.174 -3.212,0.174c-2.148,-0 -4.34,-0.13 -6.597,-0.434c-2.213,-0.348 -4.427,-0.608 -6.684,-0.782c-0.304,-0.108 -0.694,-0.173 -1.215,-0.173l-19.184,1.215l-3.646,0.434c-1.215,0.13 -2.431,0.326 -3.646,0.608c-1.215,0.13 -2.257,0.26 -3.125,0.434c-0.868,0.13 -1.779,0.304 -2.691,0.521c-0.13,1.519 -0.13,2.994 0,4.427c2.127,-0.217 4.297,-0.478 6.511,-0.782c2.256,-0.282 4.448,-0.542 6.597,-0.781l19.357,-0.607c2.301,0.13 4.558,0.347 6.771,0.694c2.257,0.347 4.362,0.781 6.337,1.302c2.604,0.521 5.056,1.953 7.379,4.254c2.365,2.257 3.559,4.817 3.559,7.638c-0,1.91 -0.738,3.863 -2.171,5.816c-1.388,1.91 -3.363,2.822 -5.902,2.691l-13.716,-0.781c-6.488,-0.173 -12.825,0.044 -19.01,0.608l-14.497,2.17c-0.13,-0 -0.325,0.087 -0.607,0.26c-0.304,0.131 -0.434,0.304 -0.434,0.521l-0,1.042c-0,0.412 0.021,0.825 0.087,1.215c0.108,0.412 0.173,0.825 0.173,1.215l0.781,0l17.969,-2.257l15.972,-0.607c2.648,-0.217 5.686,0.087 9.115,0.955c3.472,0.868 6.185,2.17 8.16,3.906c1.497,1.389 2.474,2.582 2.951,3.559c0.456,0.998 0.695,2.496 0.695,4.514c-0,2.322 -1.129,4.145 -3.386,5.469c-1.345,0.694 -2.864,1.041 -4.601,1.041c-1.692,0 -3.255,0.217 -4.687,0.608l-17.795,0.347l-18.577,1.649c-0.933,0.131 -1.823,0.261 -2.691,0.434c-0.868,0.131 -1.714,0.326 -2.517,0.608c0.109,0.76 0.174,1.541 0.174,2.344c-0,0.825 0.086,1.714 0.26,2.691l1.129,-0l19.618,-2.084c4.275,-0.39 7.747,-0.607 10.416,-0.607c2.713,-0 5.404,0.13 8.073,0.347c2.713,0.174 6.098,0.412 10.156,0.695c2.713,0.13 5.339,1.562 7.9,4.34c2.539,2.778 3.819,5.512 3.819,8.16c0,1.345 -0.304,2.756 -0.868,4.253c-0.521,1.519 -1.302,2.582 -2.344,3.212c-0.933,0.586 -2.061,1.107 -3.385,1.562c-1.28,0.478 -2.17,0.695 -2.691,0.695l-1.215,-0c-0.521,-0 -1.736,-0.087 -3.646,-0.261l-13.108,-0.607l-17.969,-0.174c-7.248,-0.217 -14.496,0.326 -21.788,1.649c0.109,0.131 0.196,0.304 0.261,0.521c0.108,0.174 0.217,0.413 0.347,0.695c0.694,1.345 1.562,2.56 2.604,3.645l1.649,0l19.792,-1.041l6.076,-0l15.539,0.781c6.532,0.174 12.239,2.604 17.1,7.292c1.498,1.345 2.518,2.843 3.039,4.514c0.52,1.692 0.781,3.472 0.781,5.382c-0,2.148 -0.326,3.797 -0.955,4.947c-0.586,1.172 -1.606,2.344 -3.038,3.56c-1.628,1.345 -3.255,1.996 -4.861,1.996l-1.042,0c-0.412,0 -0.933,-0.087 -1.563,-0.26c-0.824,-0.109 -1.562,-0.174 -2.256,-0.174l-2.171,0c-0.694,0 -1.714,0.087 -3.038,0.26c-1.345,0.131 -1.996,0.326 -1.996,0.608c-0,0.239 0.781,1.129 2.343,2.691c1.606,1.563 3.256,3.168 4.948,4.774c1.671,1.563 2.713,2.561 3.125,2.952c2.019,1.909 3.603,4.427 4.775,7.552c1.15,3.081 1.736,5.946 1.736,8.594c-0,1.909 -0.347,4.079 -1.042,6.51c-0.651,2.431 -1.866,4.21 -3.646,5.382c-1.736,1.085 -3.776,1.91 -6.076,2.43c-2.257,0.565 -4.406,0.869 -6.424,0.869c-1.736,-0 -3.776,-0.261 -6.076,-0.782c-2.257,-0.477 -4.21,-1.215 -5.816,-2.257c-1.107,-0.824 -2.344,-2.408 -3.733,-4.774c-1.389,-2.387 -2.3,-4.232 -2.691,-5.556l-4.861,-16.319c-0.825,-1.736 -1.736,-3.733 -2.778,-5.99c-0.998,-2.3 -1.888,-3.949 -2.691,-4.947c-0.824,-1.042 -1.736,-1.563 -2.777,-1.563c-4.753,0 -7.9,0.152 -9.462,0.434c-1.519,0.239 -2.257,1.172 -2.257,2.778c-0,0.412 0.022,0.846 0.087,1.302c0.043,0.477 0.13,1.042 0.26,1.736l0.434,20.573c0,0.521 -0.043,0.998 -0.087,1.476c-0.065,0.52 -0.043,1.041 0.087,1.562c-0.825,2.952 -1.627,5.295 -2.43,7.031c-0.825,1.737 -2.648,3.494 -5.469,5.296c-1.867,1.041 -3.733,1.909 -5.643,2.604c-1.866,0.694 -3.884,1.041 -6.076,1.041c-3.472,0 -7.096,-0.26 -10.851,-0.781c-3.776,-0.477 -7.27,-1.367 -10.503,-2.691l-0.608,0l-23.437,-8.854c-2.257,-0.998 -4.601,-1.823 -7.031,-2.517c-2.431,-0.651 -4.927,-1.216 -7.466,-1.736c-0.412,0.52 -0.824,1.15 -1.215,1.909c-0.412,0.738 -0.825,1.433 -1.215,2.084c-1.736,2.712 -4.167,4.687 -7.292,5.902c-3.082,1.216 -6.163,1.823 -9.288,1.823c-2.387,0 -4.753,-0.607 -7.118,-1.823c-2.387,-1.215 -4.341,-2.777 -5.903,-4.687c-1.519,-1.866 -2.257,-3.733 -2.257,-5.643l0,-3.038c0,-1.432 0.109,-2.474 0.347,-3.125c0.282,-0.694 1.237,-2.257 2.865,-4.687c0.629,-0.977 1.15,-2.04 1.562,-3.212c0.391,-1.215 0.803,-2.517 1.216,-3.906c-2.778,-2.018 -5.426,-4.275 -7.9,-6.771c-2.495,-2.474 -3.732,-5.599 -3.732,-9.375c-0,-1.736 0.542,-2.951 1.649,-3.646c1.15,-0.738 2.474,-1.128 3.993,-1.128l3.212,-0c1.215,-0 2.452,-0.044 3.732,-0.174c1.259,-0.174 2.366,-0.521 3.299,-1.042Zm58.507,18.75l-5.208,0.608l-1.997,0.174l-13.715,1.649c-1.801,0.13 -3.255,0.26 -4.34,0.434c-1.042,0.13 -1.888,0.239 -2.518,0.347c-1.107,0.13 -1.823,0.586 -2.17,1.389c-0.347,0.825 -0.781,2.387 -1.302,4.688c-0.13,0.824 -0.477,1.692 -1.042,2.604l0,0.434c0,0.238 0.348,0.412 1.042,0.521c0.694,0.065 1.346,0.086 1.997,0.086l2.864,0c3.646,0.413 7.314,0.782 11.024,1.129c3.69,0.304 7.422,0.39 11.198,0.26l1.389,0c1.498,0 2.387,-0.803 2.691,-2.43c0.347,-1.606 0.521,-3.494 0.521,-5.643l0,-4.427c0,-0.39 -0.152,-0.998 -0.434,-1.823Zm-36.892,-27.864c0.282,0.521 0.911,1.541 1.909,3.038c1.042,1.454 1.758,2.17 2.171,2.17c1.041,0 2.343,-0.087 3.906,-0.26c1.562,-0.217 2.864,-0.391 3.906,-0.521l22.83,-3.82l0.608,-0.434c-0.131,-0.911 -0.326,-1.844 -0.608,-2.777c-0.304,-0.977 -0.651,-1.932 -1.042,-2.865c-1.215,0.13 -2.409,0.239 -3.559,0.347c-1.107,0.065 -2.257,0.217 -3.472,0.434l-18.576,3.038c-1.346,0.174 -2.691,0.413 -4.08,0.695c-1.346,0.239 -2.67,0.564 -3.993,0.955Zm4.08,-42.969c0.52,0.13 0.998,0.217 1.475,0.26c0.456,0.066 0.955,0.087 1.476,0.087c0.976,0 2.865,-0.26 5.642,-0.781c2.821,-0.521 5.946,-1.172 9.375,-1.997c3.473,-0.803 6.619,-1.519 9.462,-2.17c2.821,-0.694 4.709,-1.237 5.642,-1.649c-0.173,-0.977 -0.26,-1.931 -0.26,-2.865l0,-2.43l-2.778,0.434l-19.01,4.253c-0.933,0.131 -1.866,0.304 -2.778,0.521c-0.933,0.174 -1.953,0.326 -3.038,0.434l-2.865,0.434c-0.933,0.13 -1.801,0.326 -2.604,0.608l0,1.042l0.261,3.819Zm-2.431,-30.295c0.629,1.345 1.15,2.734 1.562,4.167c0.391,1.388 0.803,2.842 1.216,4.34l20.399,-6.511c2.018,-0.629 4.08,-1.15 6.163,-1.562c2.084,-0.391 4.124,-1.085 6.163,-2.083l0,-1.823c0,-0.391 -0.151,-0.868 -0.434,-1.389l-0.173,-0.347c-0.695,0.238 -1.389,0.434 -2.084,0.607c-0.651,0.13 -1.432,0.304 -2.343,0.521l-17.014,3.299l-13.455,0.781Zm3.559,53.906l3.472,0c0.912,0 1.823,-0.022 2.691,-0.087c0.868,-0.108 1.693,-0.217 2.518,-0.347l19.184,-4.427c0.694,-0.109 1.302,-0.195 1.823,-0.26c0.564,-0.109 1.128,-0.283 1.649,-0.521c0.217,-0.695 0.39,-1.411 0.521,-2.17c0.173,-0.738 0.26,-1.433 0.26,-2.084c0,-0.282 -0.087,-0.629 -0.26,-1.041c-0.131,-0.391 -0.239,-0.651 -0.348,-0.782l-2.17,0.608l-15.538,3.819c-2.213,0.521 -4.579,0.868 -7.118,1.042c-2.561,0.13 -4.991,0.239 -7.292,0.347c0,0.586 0.022,1.085 0.087,1.476c0.109,0.412 0.217,0.868 0.347,1.389c0.109,0.521 0.174,0.998 0.174,1.389l0,1.649Z" style="fill-rule:nonzero;"/></g></g></g><g><g><clipPath id="_clip40"><path d="M551.194,282.986l5.013,0.13l-1.758,68.512l-5.035,-0.131l1.78,-68.511Z"/></clipPath><g clip-path="url(#_clip40)"><g><clipPath id="_clip41"><path d="M556.098,284.201c-1.671,51.606 -2.387,64.866 -3.884,66.624c-0.391,0.716 -1.65,-0.391 -1.65,-0.391l1.823,0.391c-0.173,-0 -1.476,0.694 -1.823,-0.391c-1.041,-2.192 2.04,-15.386 2.648,-24.696c0.868,-12.175 -0.651,-38.39 1.063,-41.58c0.391,-1.063 1.823,0.043 1.823,0.043"/></clipPath><g clip-path="url(#_clip41)"><path d="M545.334,269.575l18.62,0.499l-2.452,95.725l-18.62,-0.5l2.452,-95.724Z" style="fill:#fff;fill-rule:nonzero;"/></g></g></g></g></g><g><g><clipPath id="_clip42"><path d="M795.052,276.823l5.382,0.152l-1.888,73.611l-5.382,-0.152l1.888,-73.611Z"/></clipPath><g clip-path="url(#_clip42)"><g><clipPath id="_clip43"><path d="M800.347,278.147c-1.823,55.447 -2.582,69.683 -4.21,71.571c-0.412,0.759 -1.758,-0.434 -1.758,-0.434l1.953,0.434c-0.195,-0 -1.584,0.738 -1.953,-0.434c-1.106,-2.344 2.192,-16.515 2.843,-26.519c0.933,-13.086 -0.694,-41.255 1.15,-44.662c0.434,-1.15 1.975,0.044 1.975,0.044"/></clipPath><g clip-path="url(#_clip43)"><path d="M788.78,262.435l19.987,0.521l-2.626,102.843l-20.008,-0.521l2.647,-102.843Z" style="fill:#fff;fill-rule:nonzero;"/></g></g></g></g></g><g><g><g><path d="M1092.42,133.627c-2.04,-2.019 -3.472,-3.733 -4.34,-5.122c-0.868,-1.432 -1.302,-3.038 -1.302,-4.774c-0,-0.564 0.195,-1.129 0.607,-1.65c0.391,-0.52 0.803,-0.976 1.215,-1.388c1.433,-1.498 3.473,-2.735 6.077,-3.733c2.647,-1.042 5.143,-1.563 7.465,-1.563c5.491,0 10.287,1.303 14.41,3.907c4.101,2.56 7.834,5.772 11.198,9.635c3.472,0 7.031,0.174 10.677,0.521c3.646,0.347 6.988,1.454 10.069,3.299c2.301,1.388 4.362,3.19 6.163,5.382c1.845,2.213 2.778,4.665 2.778,7.378c0,2.561 -0.564,5.252 -1.649,8.073c-1.107,2.843 -3.19,4.253 -6.25,4.253c-2.148,0 -4.384,-0.13 -6.684,-0.434c-2.257,-0.282 -4.557,-0.434 -6.858,-0.434c-1.345,0 -2.691,0.131 -4.08,0.348c-1.345,0.173 -2.669,0.412 -3.993,0.694l0,4.253l6.077,0c3.342,0 6.684,0.391 9.982,1.129c3.299,0.694 6.359,1.801 9.202,3.299c2.821,1.627 5.165,3.645 7.031,6.076l1.823,-25.868c0.108,-1.324 0.195,-2.604 0.26,-3.82c0.109,-1.215 0.174,-1.866 0.174,-1.996c-0,-0.391 -0.304,-0.912 -0.868,-1.563c-0.521,-0.694 -1.649,-1.736 -3.385,-3.125c-0.934,-0.629 -1.693,-1.757 -2.257,-3.385c-0.521,-1.606 -0.782,-2.821 -0.782,-3.646c0,-2.951 1.216,-5.295 3.646,-7.031c2.431,-1.78 4.905,-2.691 7.465,-2.691c4.449,-0 8.182,1.107 11.198,3.299c2.995,2.148 5.86,4.817 8.594,7.986c2.127,-1.953 4.362,-3.95 6.684,-5.99c2.366,-2.018 4.905,-3.646 7.639,-4.861c2.018,-0.911 4.21,-1.606 6.597,-2.083c2.431,-0.521 4.731,-0.782 6.945,-0.782c4.166,0 8.528,1.042 13.107,3.125c4.558,2.084 8.703,4.84 12.414,8.247c3.689,3.364 6.271,6.988 7.725,10.851c1.215,3.125 2.192,6.119 2.952,8.941c0.737,2.777 1.128,5.946 1.128,9.461c0,3.993 -0.174,6.945 -0.521,8.855c-0.347,1.909 -1.085,3.732 -2.17,5.468c-1.975,3.082 -4.492,5.729 -7.552,7.986c-3.016,2.214 -6.207,4.124 -9.549,5.73c4.558,2.842 8.421,6.315 11.546,10.416c3.168,4.124 5.772,8.659 7.812,13.629c1.497,3.363 2.387,6.901 2.691,10.59c0.347,3.711 0.521,7.292 0.521,10.764c-0,3.776 -0.825,8.246 -2.431,13.455c-1.627,5.165 -3.168,9.505 -4.6,13.021c3.472,3.776 6.098,7.79 7.899,12.066c1.845,4.296 2.778,9.114 2.778,14.496c-0,4.97 -1.454,9.484 -4.341,13.542c-2.908,4.036 -7.096,6.076 -12.586,6.076c-4.471,0 -7.552,-1.193 -9.289,-3.559c-1.736,-2.322 -3.363,-5.36 -4.861,-9.114c-2.257,3.168 -5.186,6.033 -8.767,8.593c-3.602,2.604 -7.53,3.907 -11.806,3.907c-8.507,-0 -15.104,-3.516 -19.791,-10.504c-1.216,3.342 -2.995,6.185 -5.295,8.507c-2.257,2.365 -5.339,3.559 -9.202,3.559c-2.734,0 -5.425,-0.846 -8.073,-2.517c-2.604,-1.693 -4.817,-3.798 -6.597,-6.337c-1.801,-2.561 -2.778,-5.187 -2.951,-7.899c-0.131,-1.737 -0.174,-3.321 -0.174,-4.775l0,-4.861c-2.148,-0.173 -4.232,-0.26 -6.25,-0.26l-6.25,-0c-1.628,-0 -3.364,0.087 -5.208,0.26c-1.801,0.13 -3.212,0.326 -4.254,0.608c0.217,6.836 0,11.849 -0.694,15.104c-0.651,3.233 -1.78,5.664 -3.386,7.292c-1.736,1.736 -3.602,3.059 -5.555,3.993c-1.975,0.976 -4.145,1.475 -6.511,1.475c-2.842,0 -5.794,-0.477 -8.854,-1.389c-3.016,-0.868 -5.599,-2.235 -7.725,-4.079c-2.561,-2.322 -4.211,-4.688 -4.948,-7.118c-0.76,-2.388 -1.042,-5.274 -0.868,-8.681c-4.059,-0.217 -8.29,-1.215 -12.674,-2.951c-4.34,-1.78 -8.073,-4.341 -11.198,-7.639c-3.082,-3.299 -4.601,-7.227 -4.601,-11.806c0,-2.778 0.282,-5.121 0.868,-7.031c0.63,-1.91 1.823,-3.928 3.559,-6.076c0.803,-1.042 1.303,-1.823 1.476,-2.344c0.217,-0.564 0.347,-0.912 0.347,-1.042c0,-0.282 -0.607,-1.063 -1.823,-2.344c-1.215,-1.258 -2.17,-2.257 -2.864,-2.951c-1.346,-1.324 -1.997,-2.8 -1.997,-4.427c0,-1.845 1.064,-3.125 3.212,-3.82c1.085,-0.282 2.344,-0.694 3.733,-1.215c1.432,-0.521 3.038,-1.172 4.774,-1.996c-3.537,-3.928 -6.12,-7.292 -7.726,-10.07c-1.562,-2.821 -2.343,-6.423 -2.343,-10.764c-0,-2.951 0.716,-5.555 2.17,-7.812c1.497,-2.301 3.863,-3.472 7.118,-3.472c2.539,-0 4.709,0.586 6.51,1.736c1.845,1.172 3.646,2.517 5.382,4.08c1.042,-0.912 1.932,-1.867 2.691,-2.865c0.738,-1.042 1.476,-2.083 2.17,-3.125l-2.43,-0c-6.38,-0 -12.11,-1.606 -17.188,-4.861c-1.627,-1.085 -3.385,-2.431 -5.295,-3.993c-1.866,-1.606 -2.778,-3.494 -2.778,-5.643c0,-2.191 0.608,-3.58 1.823,-4.166c1.216,-0.63 2.474,-0.998 3.82,-1.129c1.085,-0.108 2.994,-0.716 5.729,-1.823c2.778,-1.085 5.121,-2.04 7.031,-2.864c3.06,-1.324 5.816,-2.713 8.247,-4.167c0.108,-0.803 0.173,-1.693 0.173,-2.691l0,-2.43c-0.651,0.173 -1.302,0.26 -1.996,0.26l-2.257,0c-2.149,0 -4.731,-0.629 -7.726,-1.91c-3.016,-1.258 -5.707,-2.951 -8.073,-5.034c-2.387,-2.084 -3.559,-4.341 -3.559,-6.771c0,-0.977 0.629,-2.018 1.91,-3.125c1.259,-1.15 2.908,-2.192 4.948,-3.125l10.764,-5.295l6.857,-2.778l0,-1.649c0,-0.391 0.044,-0.869 0.174,-1.389Zm97.917,34.461c0.39,-0.108 0.911,-0.217 1.562,-0.347c0.695,-0.173 1.845,-0.304 3.472,-0.434c2.539,-0.282 5.512,-1.215 8.941,-2.778c3.407,-1.605 6.771,-3.602 10.07,-5.989c3.298,-2.366 6.011,-4.688 8.159,-6.945c2.192,-2.3 3.299,-4.275 3.299,-5.902c0,-1.042 -0.651,-2.301 -1.91,-3.82c-1.28,-1.497 -2.474,-2.257 -3.559,-2.257c-1.106,0 -1.909,0.347 -2.43,1.042c-0.695,0.933 -1.888,2.647 -3.559,5.121c-1.693,2.496 -3.038,4.558 -4.08,6.164c-1.107,1.801 -2.821,3.711 -5.122,5.729c-2.257,1.975 -4.926,2.951 -7.986,2.951c-1.107,0 -2.17,-0.022 -3.212,-0.087c-0.998,-0.043 -1.996,-0.13 -3.038,-0.26c-0.412,2.561 -0.607,5.165 -0.607,7.812Zm-98.698,54.948c1.606,-0.39 3.255,-0.868 4.948,-1.389c1.671,-0.564 3.32,-1.323 4.947,-2.256c0.521,-0.283 1.498,-1.064 2.952,-2.344c1.497,-1.259 2.995,-2.778 4.514,-4.514c1.432,-1.91 3.255,-3.82 5.469,-5.729c2.256,-1.953 3.906,-3.407 4.947,-4.341c1.086,-0.803 1.693,-1.475 1.823,-1.996c0.174,-0.564 0.261,-0.912 0.261,-1.042c-0,-1.215 -0.695,-2.278 -2.084,-3.212c-1.345,-0.976 -2.517,-1.475 -3.559,-1.475c-0.694,-0 -1.909,0.651 -3.645,1.909c-1.737,1.281 -3.429,2.691 -5.035,4.254c-1.628,1.562 -2.778,2.669 -3.472,3.299c-1.736,1.801 -3.451,3.797 -5.122,5.989c-1.693,2.214 -3.125,4.471 -4.34,6.771c-0.521,0.933 -0.998,1.91 -1.389,2.951c-0.412,0.999 -0.825,2.04 -1.215,3.125Zm52.864,-30.729c2.127,1.801 3.928,3.885 5.382,6.25c1.498,2.322 2.257,4.948 2.257,7.899c0,1.737 -0.325,3.429 -0.955,5.035c-0.586,1.628 -1.953,3.646 -4.08,6.077c2.431,0.933 4.645,2.343 6.684,4.253c2.019,1.866 3.494,3.993 4.428,6.424l-0,-2.778l0.607,-17.795c0.109,-1.498 0.195,-2.995 0.261,-4.514c0.108,-1.563 0.173,-3.082 0.173,-4.601c0,-1.041 0.022,-2.17 0.087,-3.385c0.043,-1.216 0.13,-2.366 0.26,-3.472c-1.736,0.998 -3.168,1.475 -4.253,1.475c-1.042,0 -2.669,-0.087 -4.861,-0.26c-2.149,-0.217 -4.145,-0.434 -5.99,-0.608Zm43.577,50.521l0.173,26.215l0.261,1.216c2.951,-2.019 5.577,-4.167 7.899,-6.424c2.365,-2.3 4.622,-4.883 6.771,-7.726c-2.387,-2.951 -4.84,-5.859 -7.379,-8.767c-2.495,-2.886 -5.078,-5.686 -7.725,-8.42l-0,3.906Zm-31.25,12.847c0.108,-2.951 0.217,-5.859 0.347,-8.767c0.173,-2.886 0.304,-5.816 0.434,-8.767c-2.04,1.736 -4.08,2.821 -6.163,3.211c-2.084,0.413 -4.492,0.608 -7.205,0.608l-6.25,-0c-1.866,-0 -3.798,0.087 -5.816,0.26c-2.04,0.131 -3.971,0.521 -5.816,1.216c0.911,1.562 2.105,3.255 3.559,5.034l5.903,0c4.166,0 7.834,0.651 11.024,1.91c3.234,1.28 6.554,3.038 9.983,5.295Zm33.073,-58.68c3.233,-2.952 6.814,-5.556 10.763,-7.813c3.993,-2.3 8.269,-3.754 12.848,-4.34c-4.167,-1.736 -7.986,-3.494 -11.459,-5.295c-3.428,-1.845 -7.422,-4.297 -11.979,-7.379l-0.173,4.861l-0.174,17.101l0.174,2.865Zm26.996,33.68c0.695,-0.803 1.693,-2.3 3.038,-4.514c1.389,-2.257 2.604,-4.47 3.646,-6.684c1.085,-2.192 1.649,-3.776 1.649,-4.774c0,-0.521 -0.173,-1.389 -0.52,-2.604c-0.348,-1.215 -0.782,-1.823 -1.303,-1.823c-0.303,-0 -0.846,0.239 -1.649,0.694c-0.824,0.478 -1.823,1.259 -3.038,2.344c-2.148,1.91 -4.731,3.863 -7.726,5.816c-3.016,1.91 -5.338,3.342 -6.944,4.254c2.257,1.215 4.427,2.43 6.51,3.645c2.084,1.216 4.189,2.431 6.337,3.646Zm-122.483,27.865c0.803,-2.018 1.216,-4.102 1.216,-6.25c-0,-0.912 -0.478,-2.192 -1.389,-3.82c-1.91,0.521 -4.145,1.606 -6.684,3.212c-2.561,1.628 -4.753,3.364 -6.597,5.209c-1.802,1.801 -2.691,3.363 -2.691,4.687c-0,0.651 0.303,1.128 0.954,1.476c0.695,0.347 1.324,0.521 1.91,0.521c0.63,-0 1.78,-0.283 3.472,-0.869c1.671,-0.629 3.473,-1.345 5.382,-2.17c1.91,-0.803 3.386,-1.475 4.427,-1.996Z" style="fill-rule:nonzero;"/></g></g></g><g><g><clipPath id="_clip44"><path d="M1038.76,276.823l5.382,0.152l-1.888,73.611l-5.382,-0.152l1.888,-73.611Z"/></clipPath><g clip-path="url(#_clip44)"><g><clipPath id="_clip45"><path d="M1044.05,278.147c-1.823,55.447 -2.583,69.683 -4.21,71.571c-0.413,0.759 -1.758,-0.434 -1.758,-0.434l1.953,0.434c-0.195,-0 -1.584,0.738 -1.953,-0.434c-1.107,-2.344 2.192,-16.515 2.843,-26.519c0.933,-13.086 -0.695,-41.255 1.15,-44.662c0.434,-1.15 1.975,0.044 1.975,0.044"/></clipPath><g clip-path="url(#_clip45)"><path d="M1032.49,262.435l19.987,0.521l-2.626,102.843l-20.009,-0.521l2.648,-102.843Z" style="fill:#fff;fill-rule:nonzero;"/></g></g></g></g></g><g><g><g><path d="M1446.21,271.647c-0.825,0.131 -1.628,0.304 -2.431,0.521c-0.825,0.174 -1.627,0.413 -2.43,0.695c-0,2.257 0.021,4.579 0.086,6.944c0.044,2.387 0.087,4.688 0.087,6.945c0,3.754 -0.26,7.161 -0.781,10.243c-0.521,3.125 -2.669,4.687 -6.424,4.687c-3.125,0 -5.338,-0.868 -6.597,-2.604c-1.28,-1.736 -2.062,-3.885 -2.344,-6.424c-0.238,-2.56 -0.347,-4.969 -0.347,-7.291l0,-5.209c0,-1.605 0.044,-3.233 0.174,-4.861c-0.933,0 -1.91,0.044 -2.952,0.087c-0.998,0.065 -2.04,0.044 -3.125,-0.087l0,10.677c0,4.037 -0.043,6.945 -0.086,8.681c-0.066,1.736 -0.434,3.559 -1.129,5.469c-0.521,1.736 -1.389,3.125 -2.604,4.166c-1.215,1.085 -2.951,1.65 -5.208,1.65c-5.382,-0 -9.158,-1.78 -11.285,-5.295c-2.083,-3.473 -3.125,-7.553 -3.125,-12.24c-0,-2.539 0.173,-5.056 0.521,-7.552c0.347,-2.474 0.651,-4.948 0.955,-7.379c-0.695,0.131 -1.454,0.174 -2.257,0.174c-3.082,-0 -5.708,-1.215 -7.9,-3.646c-0.347,2.843 -1.02,5.469 -1.996,7.899c-0.933,2.431 -3.125,3.646 -6.597,3.646c-3.82,0 -6.858,-1.562 -9.115,-4.687c-6.076,-8.334 -11.198,-17.318 -15.365,-26.997c-0.52,0.304 -0.998,0.608 -1.389,0.955c-0.412,0.304 -0.868,0.586 -1.388,0.868c2.018,3.885 3.928,7.813 5.729,11.806c1.779,3.949 3.949,7.682 6.51,11.198c2.301,2.951 3.906,5.273 4.774,6.944c0.869,1.693 1.303,3.472 1.303,5.382c-0,3.06 -0.76,5.577 -2.257,7.552c-1.454,1.953 -3.863,2.952 -7.205,2.952c-3.646,-0 -6.858,-1.042 -9.636,-3.125c-2.734,-2.084 -5.034,-4.731 -6.944,-7.9c-1.866,-3.168 -3.472,-6.25 -4.861,-9.201c-1.454,-3.342 -2.778,-6.771 -3.993,-10.243c-1.216,-3.516 -2.17,-7.031 -2.865,-10.504c-2.778,-0.282 -5.469,-0.824 -8.073,-1.649c-2.561,-0.803 -4.839,-2.214 -6.857,-4.253c-3.364,-3.342 -5.621,-7.422 -6.771,-12.24c-1.107,-4.861 -1.65,-9.57 -1.65,-14.149c0,-4.341 0.478,-7.9 1.476,-10.677c1.042,-2.822 2.518,-5.469 4.427,-7.9c1.953,-2.43 4.297,-5.056 7.031,-7.899c-3.819,-2.127 -6.749,-4.471 -8.767,-7.031c-1.975,-2.539 -2.951,-6.12 -2.951,-10.764c-0,-1.953 0.455,-3.755 1.389,-5.382c0.911,-1.606 1.996,-3.169 3.211,-4.688c4.341,-5.382 7.379,-11.219 9.115,-17.534c-2.148,-1.216 -4.34,-2.691 -6.597,-4.427c-2.214,-1.737 -3.299,-4.08 -3.299,-7.032c0,-2.994 1.085,-5.143 3.299,-6.423c2.257,-1.259 4.644,-1.91 7.205,-1.91c2.126,-0 4.101,0.304 5.902,0.868c1.845,0.521 3.494,1.519 4.948,2.951c1.606,-1.844 3.516,-3.862 5.73,-6.076c2.256,-2.257 4.687,-4.188 7.291,-5.816c2.648,-1.606 5.317,-2.431 7.986,-2.431c2.821,0 5.773,0.652 8.854,1.91c3.125,1.281 5.751,2.865 7.9,4.775c1.215,0.933 2.3,1.996 3.298,3.211c1.042,1.216 2.084,2.387 3.125,3.473c2.431,2.56 4.449,4.947 6.077,7.204c1.606,2.214 2.691,5.252 3.212,9.115c0.39,2.843 0.607,4.991 0.607,6.424c0,2.213 -0.781,4.6 -2.344,7.204c-1.519,2.605 -3.45,5.209 -5.816,7.813c-2.322,2.561 -4.665,4.926 -7.031,7.118c-2.387,2.214 -4.383,3.993 -5.989,5.382c3.342,2.148 5.924,4.514 7.725,7.118c1.845,2.604 3.646,5.686 5.382,9.201c1.389,2.561 2.713,5.209 3.993,7.987c1.259,2.734 2.518,5.512 3.733,8.333c1.215,-7.921 2.561,-16.45 4.08,-25.608c1.562,-9.136 2.474,-17.621 2.778,-25.434c-0.521,-1.497 -1.042,-2.973 -1.563,-4.427c-0.477,-1.497 -0.694,-3.06 -0.694,-4.687c-0,-3.473 0.998,-6.012 3.038,-7.639c2.018,-1.606 4.709,-2.431 8.073,-2.431c2.3,0 4.383,0.478 6.25,1.389c1.215,-0.629 2.452,-1.324 3.732,-2.083c1.259,-0.738 2.518,-1.433 3.733,-2.084c-1.345,-1.909 -2.604,-3.58 -3.819,-5.034c-1.216,-1.498 -1.823,-3.516 -1.823,-6.077c-0,-4.731 1.909,-8.463 5.729,-11.198c3.863,-2.777 7.943,-4.166 12.239,-4.166c5.079,-0 9.549,1.367 13.369,4.08c3.862,2.669 7.421,5.729 10.677,9.201c4.687,-0.217 9.505,0.087 14.496,0.955c4.97,0.868 9.288,2.929 12.934,6.163c1.736,1.454 3.646,3.537 5.729,6.25c2.084,2.669 3.841,5.447 5.295,8.333c1.498,2.908 2.257,5.556 2.257,7.986c0,3.364 -0.651,6.75 -1.909,10.157c-1.281,3.363 -2.518,6.575 -3.733,9.635c0.977,1.215 1.693,2.431 2.17,3.646c0.456,1.215 0.695,2.561 0.695,3.993c-0,3.429 -0.999,6.228 -2.952,8.42c-1.975,2.214 -4.687,3.299 -8.159,3.299c-2.149,-0 -4.254,-0.109 -6.337,-0.347c-2.084,-0.283 -4.232,-0.478 -6.424,-0.608c-1.454,-0.282 -2.93,-0.478 -4.427,-0.608c-1.454,-0.173 -2.93,-0.26 -4.427,-0.26c-4.058,-0 -8.203,0.499 -12.413,1.476c-4.232,0.933 -9.028,2.126 -14.41,3.559c-1.91,0.585 -3.885,1.041 -5.903,1.388c-1.975,0.304 -4.058,0.434 -6.25,0.434l-1.215,0c-0.239,2.04 -0.521,4.059 -0.868,6.077c-0.347,2.04 -0.651,4.058 -0.868,6.076c7.226,-3.125 14.692,-5.946 22.396,-8.507c7.747,-2.539 15.625,-3.819 23.611,-3.819c4.969,-0 9.592,0.564 13.889,1.649c4.275,1.042 7.834,3.863 10.677,8.42c3.342,5.556 5.425,11.35 6.25,17.361c0.282,2.735 0.455,6.25 0.521,10.591c0.043,4.297 0.086,8.507 0.086,12.673l0,10.851c0,7.422 -0.152,13.585 -0.434,18.49c-0.238,4.904 -1.28,9.114 -3.125,12.586c-1.215,2.431 -2.929,4.102 -5.121,5.035c-2.149,0.977 -4.492,1.476 -7.031,1.476c-3.473,-0 -6.75,-0.695 -9.809,-2.084c-3.017,-1.345 -5.73,-3.211 -8.16,-5.642c-0.825,2.3 -1.997,4.427 -3.559,6.337c-1.519,1.953 -3.689,2.951 -6.511,2.951c-2.56,0 -4.405,-0.846 -5.555,-2.517c-1.172,-1.693 -1.736,-3.646 -1.736,-5.903c-0,-2.04 0.195,-4.08 0.607,-6.163c0.391,-2.083 0.868,-4.08 1.389,-5.99l0.261,-14.323Zm-135.07,-5.816c-1.041,-0.694 -1.975,-1.497 -2.778,-2.43c-0.824,-0.977 -1.215,-2.127 -1.215,-3.472c0,-1.845 0.651,-3.342 1.997,-4.514c1.323,-1.15 2.886,-1.736 4.687,-1.736c2.648,-0 5.404,0.738 8.247,2.17c2.821,1.389 5.056,3.212 6.684,5.469c0.803,1.106 1.389,2.343 1.736,3.732c0.391,1.346 0.803,2.735 1.215,4.167c1.606,6.076 4.037,11.61 7.292,16.58c3.754,5.599 5.642,9.722 5.642,12.326c0,2.366 -0.846,4.362 -2.517,5.99c-1.693,1.606 -3.733,2.43 -6.163,2.43c-5.621,0 -10.222,-2.126 -13.802,-6.337c-3.603,-4.231 -6.055,-8.832 -7.379,-13.802c-0.933,-3.342 -1.693,-6.857 -2.257,-10.503c-0.521,-3.646 -0.998,-6.988 -1.389,-10.07Zm112.413,-84.809c3.646,-2.256 6.88,-4.014 9.723,-5.295c2.821,-1.323 5.772,-2.213 8.854,-2.691c3.125,-0.455 6.771,-0.694 10.937,-0.694c0.803,-2.018 1.65,-3.993 2.518,-5.903c0.868,-1.953 1.909,-3.906 3.125,-5.816c0.521,-0.803 0.781,-1.519 0.781,-2.17c-0,-0.803 -0.608,-1.215 -1.823,-1.215c-1.736,-0 -3.537,0.39 -5.382,1.128c-1.801,0.695 -4.232,1.867 -7.292,3.472c-5.273,2.735 -10.59,4.905 -15.972,6.511c-1.454,0.521 -2.734,0.846 -3.819,0.955l-0,1.041c-0,1.736 -0.174,3.538 -0.521,5.382c-0.347,1.802 -0.738,3.559 -1.129,5.295Zm-72.656,18.75c-2.951,3.125 -5.794,6.381 -8.507,9.723c-2.669,3.363 -5.338,6.771 -7.986,10.243c-1.107,1.519 -2.235,3.255 -3.385,5.208c-1.107,1.91 -1.65,3.885 -1.65,5.903c0,0.412 0.022,0.868 0.087,1.389c0.044,0.477 0.347,0.694 0.868,0.694c0.803,0 2.301,-1.172 4.514,-3.559c2.257,-2.365 4.688,-5.208 7.292,-8.507c2.647,-3.298 5.056,-6.38 7.205,-9.288c2.126,-2.886 3.559,-4.796 4.253,-5.729c-0.412,-1.085 -0.824,-2.127 -1.215,-3.125c-0.412,-0.977 -0.912,-1.953 -1.476,-2.952Zm-8.68,-28.038c1.085,-1.432 2.257,-2.951 3.472,-4.514c1.215,-1.562 2.344,-3.06 3.385,-4.514c0.695,-0.976 1.324,-1.822 1.91,-2.517c0.629,-0.738 1.302,-1.519 1.997,-2.344c1.041,-1.215 2.039,-2.517 3.038,-3.906c1.041,-1.432 1.562,-3.038 1.562,-4.774c0,-1.498 -0.325,-2.886 -0.955,-4.167c-0.586,-1.259 -1.736,-1.91 -3.472,-1.91c-1.627,0 -2.756,0.651 -3.385,1.91c-0.586,1.281 -1.02,2.93 -1.302,4.948c-0.131,0.933 -0.565,2.691 -1.302,5.295c-0.695,2.561 -1.52,5.339 -2.431,8.334c-0.868,3.016 -1.714,5.729 -2.517,8.159Zm42.014,86.372c-0,-4.557 0.195,-9.136 0.607,-13.715c-1.345,0.412 -2.691,0.607 -4.08,0.607c-3.776,0 -6.597,-1.042 -8.507,-3.125c-1.866,-2.083 -3.645,-4.601 -5.382,-7.552l-1.649,2.778c-0.521,0.998 -1.128,1.953 -1.823,2.864c4.449,1.216 8.42,3.625 11.893,7.205c3.515,3.538 6.51,7.183 8.941,10.938Zm40.972,-7.813c0.108,-2.43 0.108,-4.709 -0,-6.857c-0.825,-1.085 -1.281,-2.04 -1.389,-2.865c-2.843,0 -5.339,-0.26 -7.465,-0.781c0.629,1.454 1.15,3.016 1.562,4.687c0.391,1.693 0.803,3.342 1.215,4.948l0,3.472c1.085,-0.564 2.127,-1.041 3.125,-1.388c1.042,-0.391 2.019,-0.803 2.952,-1.216Zm42.795,12.5c-0.695,0.413 -1.389,0.782 -2.083,1.129c-0.651,0.304 -1.303,0.586 -1.997,0.868l0,12.066c0.391,0.173 0.955,0.26 1.649,0.26c1.085,0 1.758,-0.564 1.997,-1.736c0.282,-1.15 0.434,-2.604 0.434,-4.34l-0,-8.247Zm-0.261,-23.611c0.174,-1.085 0.283,-2.192 0.348,-3.298c0.043,-1.151 0.086,-2.279 0.086,-3.386c0,-1.606 -0.52,-2.43 -1.562,-2.43c-0.174,-0 -0.781,0.173 -1.823,0.52c-0.998,0.348 -1.801,0.651 -2.43,0.868l-1.823,0.869c1.432,1.866 2.3,4.145 2.604,6.857l4.6,0Zm-21.354,3.212l0.174,-3.472c-0.412,-0.391 -0.781,-0.803 -1.129,-1.216c-0.303,-0.39 -0.586,-0.802 -0.868,-1.215c-0.824,0.174 -1.606,0.391 -2.343,0.608c-0.695,0.173 -1.454,0.325 -2.257,0.434c0.629,2.04 1.085,4.167 1.389,6.423c0.911,-0.217 1.779,-0.477 2.604,-0.781l2.43,-0.781Z" style="fill-rule:nonzero;"/></g></g></g><g><g><clipPath id="_clip46"><path d="M1282.14,276.823l5.382,0.152l-1.888,73.611l-5.404,-0.152l1.91,-73.611Z"/></clipPath><g clip-path="url(#_clip46)"><g><clipPath id="_clip47"><path d="M1287.41,278.147c-1.801,55.447 -2.561,69.683 -4.188,71.571c-0.412,0.759 -1.758,-0.434 -1.758,-0.434l1.953,0.434c-0.195,-0 -1.584,0.738 -1.953,-0.434c-1.107,-2.344 2.192,-16.515 2.843,-26.519c0.933,-13.086 -0.695,-41.255 1.15,-44.662c0.412,-1.15 1.953,0.044 1.953,0.044"/></clipPath><g clip-path="url(#_clip47)"><path d="M1275.85,262.435l20.009,0.521l-2.648,102.843l-20.008,-0.521l2.647,-102.843Z" style="fill:#fff;fill-rule:nonzero;"/></g></g></g></g></g></svg>