<?xml version="1.0" encoding="UTF-8" standalone="no"?><!DOCTYPE svg PUBLIC "-//W3C//DTD SVG 1.1//EN" "http://www.w3.org/Graphics/SVG/1.1/DTD/svg11.dtd"><svg width="100%" height="100%" viewBox="0 0 5692 380" version="1.1" xmlns="http://www.w3.org/2000/svg" xmlns:xlink="http://www.w3.org/1999/xlink" xml:space="preserve" xmlns:serif="http://www.serif.com/" style="fill-rule:evenodd;clip-rule:evenodd;stroke-linejoin:round;stroke-miterlimit:2;"><g><clipPath id="_clip1"><rect x="303.494" y="58.984" width="249.891" height="295.573"/></clipPath><g clip-path="url(#_clip1)"><path d="M780.078,59.484c0,-0 -728.125,-0.022 -728.233,-0.022c0.108,7.183 1.974,98.85 1.909,106.792c-0.152,21.897 -1.888,48.59 -2.994,70.465c-0.5,9.852 -8.312,93.251 -15.105,103.689c0.022,-0.022 125.868,15.864 249.067,7.509c2.908,-16.971 9.05,-34.289 11.502,-51.281c2.713,-19.466 6.272,-36.849 6.619,-56.488c0.564,-32.314 -1.129,-58.941 -1.15,-93.078c-0,-1.758 2.56,-1.909 2.756,-0.173c3.928,33.29 4.969,24.848 8.051,85.85c1.801,35.981 -2.843,77.127 -4.687,113.412c121.093,14.431 140.082,12.717 248.546,-3.19c-3.711,-36.155 -3.494,-69.358 -3.473,-105.512c0.109,-50.717 -2.278,-56.598 -0.564,-96.311c0.087,-1.801 1.215,-1.78 1.324,0.022c2.192,35.351 2.018,60.915 6.467,93.467c2.582,19.423 3.602,40.669 6.836,59.961c2.908,17.014 12.022,47.179 12.087,47.179c106.88,0 112.566,4.492 219.445,4.492c-7.747,-17.144 -14.735,-125.347 -15.126,-134.787c-0.282,-6.315 -3.798,-131.662 -3.277,-151.996" style="fill:#c40000;fill-rule:nonzero;"/></g></g><g><clipPath id="_clip2"><rect x="303.494" y="34.397" width="249.891" height="11.35"/></clipPath><g clip-path="url(#_clip2)"><path d="M836.892,45.421l-841.948,0l-0,-9.701l841.948,0l0,9.701" style="fill:#d4983d;fill-rule:nonzero;"/></g></g><g><clipPath id="_clip3"><rect x="303.494" y="23.069" width="249.891" height="15.126"/></clipPath><g clip-path="url(#_clip3)"><path d="M836.892,37.587l-841.948,-0l-0,-13.13l841.948,0l0,13.13" style="fill:#d4983d;fill-rule:nonzero;"/></g></g><g><clipPath id="_clip4"><rect x="303.494" y="17.231" width="24.284" height="52.214"/></clipPath><g clip-path="url(#_clip4)"><path d="M323.155,68.446l-42.838,0l-0,-51.063l42.838,-0l0,51.063" style="fill:#c40000;fill-rule:nonzero;"/></g></g><g><path d="M551.541,68.446l-42.839,0l0,-51.063l42.839,-0l-0,51.063" style="fill:#c40000;fill-rule:nonzero;"/></g><g><path d="M548.893,64.345l-37.695,-0l-0,-46.962l37.695,-0l0,46.962" style="fill:#c40000;fill-rule:nonzero;"/></g><g><clipPath id="_clip5"><rect x="303.494" y="17.231" width="18.728" height="52.214"/></clipPath><g clip-path="url(#_clip5)"><path d="M320.486,64.345l-37.695,-0l-0,-46.962l37.695,-0l0,46.962" style="fill:#c40000;fill-rule:nonzero;"/></g></g><g><clipPath id="_clip6"><rect x="547.266" y="58.984" width="249.87" height="295.573"/></clipPath><g clip-path="url(#_clip6)"><path d="M1023.85,59.484c-0,-0 -728.125,-0.022 -728.234,-0.022c0.109,7.183 1.975,98.85 1.91,106.792c-0.152,21.897 -1.888,48.59 -3.016,70.465c-0.478,9.852 -8.29,93.251 -15.083,103.689c0.022,-0.022 125.846,15.864 249.067,7.509c2.908,-16.971 9.049,-34.289 11.502,-51.281c2.691,-19.466 6.271,-36.849 6.619,-56.488c0.564,-32.314 -1.129,-58.941 -1.151,-93.078c0,-1.758 2.539,-1.909 2.756,-0.173c3.928,33.29 4.97,24.848 8.052,85.85c1.801,35.981 -2.843,77.127 -4.709,113.412c121.115,14.431 140.104,12.717 248.567,-3.19c-3.711,-36.155 -3.494,-69.358 -3.472,-105.512c0.108,-50.717 -2.279,-56.598 -0.564,-96.311c0.065,-1.801 1.215,-1.78 1.324,0.022c2.191,35.351 2.018,60.915 6.467,93.467c2.56,19.423 3.602,40.669 6.835,59.961c2.908,17.014 12.023,47.179 12.088,47.179c106.88,0 112.565,4.492 219.445,4.492c-7.748,-17.144 -14.736,-125.347 -15.126,-134.787c-0.282,-6.315 -3.798,-131.662 -3.277,-151.996" style="fill:#c40000;fill-rule:nonzero;"/></g></g><g><clipPath id="_clip7"><rect x="547.266" y="34.397" width="249.87" height="11.35"/></clipPath><g clip-path="url(#_clip7)"><path d="M1080.66,45.421l-841.949,0l0,-9.701l841.949,0l0,9.701" style="fill:#d4983d;fill-rule:nonzero;"/></g></g><g><clipPath id="_clip8"><rect x="547.266" y="23.069" width="249.87" height="15.126"/></clipPath><g clip-path="url(#_clip8)"><path d="M1080.66,37.587l-841.949,-0l0,-13.13l841.949,0l0,13.13" style="fill:#d4983d;fill-rule:nonzero;"/></g></g><g><clipPath id="_clip9"><rect x="547.266" y="17.231" width="24.957" height="52.214"/></clipPath><g clip-path="url(#_clip9)"><path d="M566.905,68.446l-42.816,0l-0,-51.063l42.816,-0l0,51.063" style="fill:#c40000;fill-rule:nonzero;"/></g></g><g><path d="M795.313,68.446l-42.839,0l-0,-51.063l42.839,-0l-0,51.063" style="fill:#c40000;fill-rule:nonzero;"/></g><g><path d="M792.665,64.345l-37.695,-0l-0,-46.962l37.695,-0l-0,46.962" style="fill:#c40000;fill-rule:nonzero;"/></g><g><clipPath id="_clip10"><rect x="547.266" y="17.231" width="19.401" height="52.214"/></clipPath><g clip-path="url(#_clip10)"><path d="M564.258,64.345l-37.696,-0l0,-46.962l37.696,-0l-0,46.962" style="fill:#c40000;fill-rule:nonzero;"/></g></g><g><clipPath id="_clip11"><rect x="791.037" y="58.984" width="249.87" height="295.573"/></clipPath><g clip-path="url(#_clip11)"><path d="M1267.62,59.484c-0,-0 -728.147,-0.022 -728.234,-0.022c0.087,7.183 1.975,98.85 1.91,106.792c-0.152,21.897 -1.888,48.59 -3.017,70.465c-0.499,9.852 -8.29,93.251 -15.082,103.689c-0,-0.022 125.846,15.864 249.067,7.509c2.908,-16.971 9.049,-34.289 11.501,-51.281c2.691,-19.466 6.272,-36.849 6.619,-56.488c0.565,-32.314 -1.128,-58.941 -1.15,-93.078c0,-1.758 2.539,-1.909 2.756,-0.173c3.928,33.29 4.97,24.848 8.051,85.85c1.802,35.981 -2.842,77.127 -4.709,113.412c121.116,14.431 140.104,12.717 248.568,-3.19c-3.711,-36.155 -3.516,-69.358 -3.472,-105.512c0.108,-50.717 -2.279,-56.598 -0.565,-96.311c0.066,-1.801 1.216,-1.78 1.324,0.022c2.192,35.351 2.018,60.915 6.467,93.467c2.561,19.423 3.603,40.669 6.836,59.961c2.908,17.014 12.023,47.179 12.088,47.179c106.879,0 112.565,4.492 219.444,4.492c-7.747,-17.144 -14.735,-125.347 -15.147,-134.787c-0.261,-6.315 -3.776,-131.662 -3.255,-151.996" style="fill:#c40000;fill-rule:nonzero;"/></g></g><g><clipPath id="_clip12"><rect x="791.037" y="34.397" width="249.87" height="11.35"/></clipPath><g clip-path="url(#_clip12)"><path d="M1324.44,45.421l-841.949,0l-0,-9.701l841.949,0l-0,9.701" style="fill:#d4983d;fill-rule:nonzero;"/></g></g><g><clipPath id="_clip13"><rect x="791.037" y="23.069" width="249.87" height="15.126"/></clipPath><g clip-path="url(#_clip13)"><path d="M1324.44,37.587l-841.949,-0l-0,-13.13l841.949,0l-0,13.13" style="fill:#d4983d;fill-rule:nonzero;"/></g></g><g><clipPath id="_clip14"><rect x="791.037" y="17.231" width="20.074" height="52.214"/></clipPath><g clip-path="url(#_clip14)"><path d="M810.677,68.446l-42.838,0l-0,-51.063l42.838,-0l0,51.063" style="fill:#c40000;fill-rule:nonzero;"/></g></g><g><path d="M1039.08,68.446l-42.838,0l-0,-51.063l42.838,-0l0,51.063" style="fill:#c40000;fill-rule:nonzero;"/></g><g><path d="M1036.44,64.345l-37.696,-0l0,-46.962l37.696,-0l-0,46.962" style="fill:#c40000;fill-rule:nonzero;"/></g><g><clipPath id="_clip15"><rect x="791.037" y="17.231" width="20.074" height="52.214"/></clipPath><g clip-path="url(#_clip15)"><path d="M808.03,64.345l-37.696,-0l0,-46.962l37.696,-0l-0,46.962" style="fill:#c40000;fill-rule:nonzero;"/></g></g><g><clipPath id="_clip16"><rect x="1524.39" y="58.984" width="246.94" height="295.573"/></clipPath><g clip-path="url(#_clip16)"><path d="M1751.15,59.484c0,-0 -728.125,-0.022 -728.233,-0.022c0.108,7.183 1.974,98.85 1.909,106.792c-0.152,21.897 -1.888,48.59 -3.016,70.465c-0.478,9.852 -8.29,93.251 -15.083,103.689c0.022,-0.022 125.847,15.864 249.067,7.509c2.908,-16.971 9.05,-34.289 11.502,-51.281c2.691,-19.466 6.272,-36.849 6.619,-56.488c0.564,-32.314 -1.129,-58.941 -1.15,-93.078c-0,-1.758 2.539,-1.909 2.756,-0.173c3.928,33.29 4.969,24.848 8.051,85.85c1.801,35.981 -2.843,77.127 -4.709,113.412c121.115,14.431 140.104,12.717 248.568,-3.19c-3.711,-36.155 -3.494,-69.358 -3.473,-105.512c0.109,-50.717 -2.278,-56.598 -0.564,-96.311c0.065,-1.801 1.215,-1.78 1.324,0.022c2.192,35.351 2.018,60.915 6.467,93.467c2.561,19.423 3.602,40.669 6.836,59.961c2.908,17.014 12.022,47.179 12.088,47.179c106.879,0 112.565,4.492 219.444,4.492c-7.747,-17.144 -14.735,-125.347 -15.126,-134.787c-0.282,-6.315 -3.798,-131.662 -3.277,-151.996" style="fill:#c40000;fill-rule:nonzero;"/></g></g><g><clipPath id="_clip17"><rect x="1524.39" y="34.397" width="282.878" height="11.35"/></clipPath><g clip-path="url(#_clip17)"><path d="M1807.96,45.421l-841.948,0l-0,-9.701l841.948,0l0,9.701" style="fill:#d4983d;fill-rule:nonzero;"/></g></g><g><clipPath id="_clip18"><rect x="1524.39" y="23.069" width="282.878" height="15.126"/></clipPath><g clip-path="url(#_clip18)"><path d="M1807.96,37.587l-841.948,-0l-0,-13.13l841.948,0l0,13.13" style="fill:#d4983d;fill-rule:nonzero;"/></g></g><g><path d="M1751,68.446l-42.817,0l0,-51.063l42.817,-0l0,51.063" style="fill:#c40000;fill-rule:nonzero;"/></g><g><path d="M1748.37,64.345l-37.695,-0l0,-46.962l37.695,-0l0,46.962" style="fill:#c40000;fill-rule:nonzero;"/></g><g><clipPath id="_clip19"><rect x="39.692" y="58.984" width="268.49" height="295.573"/></clipPath><g clip-path="url(#_clip19)"><path d="M785.135,59.484c-0,-0 -728.147,-0.022 -728.256,-0.022c0.109,7.183 1.997,98.85 1.932,106.792c-0.152,21.897 -1.91,48.59 -3.017,70.465c-0.499,9.852 -8.29,93.251 -15.082,103.689c-0,-0.022 125.846,15.864 249.067,7.509c2.886,-16.971 9.049,-34.289 11.501,-51.281c2.691,-19.466 6.25,-36.849 6.598,-56.488c0.586,-32.314 -1.107,-58.941 -1.129,-93.078c0,-1.758 2.539,-1.909 2.756,-0.173c3.928,33.29 4.97,24.848 8.051,85.85c1.802,35.981 -2.842,77.127 -4.709,113.412c121.116,14.431 140.104,12.717 248.546,-3.19c-3.689,-36.155 -3.494,-69.358 -3.45,-105.512c0.108,-50.717 -2.279,-56.598 -0.565,-96.311c0.066,-1.801 1.216,-1.78 1.324,0.022c2.17,35.351 2.018,60.915 6.467,93.467c2.561,19.423 3.581,40.669 6.836,59.961c2.886,17.014 12.001,47.179 12.088,47.179c106.879,0 112.543,4.492 219.423,4.492c-7.726,-17.144 -14.714,-125.347 -15.126,-134.787c-0.261,-6.315 -3.798,-131.662 -3.255,-151.996" style="fill:#c40000;fill-rule:nonzero;"/></g></g><g><clipPath id="_clip20"><rect x="0" y="34.397" width="308.181" height="11.35"/></clipPath><g clip-path="url(#_clip20)"><path d="M841.949,45.421l-841.949,0l0,-9.701l841.949,0l-0,9.701" style="fill:#d4983d;fill-rule:nonzero;"/></g></g><g><clipPath id="_clip21"><rect x="0" y="23.069" width="308.181" height="15.126"/></clipPath><g clip-path="url(#_clip21)"><path d="M841.949,37.587l-841.949,-0l0,-13.13l841.949,0l-0,13.13" style="fill:#d4983d;fill-rule:nonzero;"/></g></g><g><path d="M99.805,68.446l-42.839,0l0,-51.063l42.839,-0l-0,51.063" style="fill:#c40000;fill-rule:nonzero;"/></g><g><clipPath id="_clip22"><rect x="283.333" y="17.231" width="24.848" height="52.214"/></clipPath><g clip-path="url(#_clip22)"><path d="M328.19,68.446l-42.838,0l-0,-51.063l42.838,-0l0,51.063" style="fill:#c40000;fill-rule:nonzero;"/></g></g><g><path d="M97.135,64.345l-37.695,-0l0,-46.962l37.695,-0l0,46.962" style="fill:#c40000;fill-rule:nonzero;"/></g><g><clipPath id="_clip23"><rect x="283.333" y="17.231" width="24.848" height="52.214"/></clipPath><g clip-path="url(#_clip23)"><path d="M325.543,64.345l-37.696,-0l0,-46.962l37.696,-0l-0,46.962" style="fill:#c40000;fill-rule:nonzero;"/></g></g><g><clipPath id="_clip24"><rect x="1034.74" y="58.984" width="249.87" height="295.573"/></clipPath><g clip-path="url(#_clip24)"><path d="M1511.33,59.484c0,-0 -728.147,-0.022 -728.233,-0.022c0.086,7.183 1.974,98.85 1.909,106.792c-0.152,21.897 -1.888,48.59 -3.016,70.465c-0.499,9.852 -8.29,93.251 -15.083,103.689c0,-0.022 125.847,15.864 249.067,7.509c2.908,-16.971 9.05,-34.289 11.502,-51.281c2.691,-19.466 6.272,-36.849 6.619,-56.488c0.564,-32.314 -1.129,-58.941 -1.15,-93.078c-0,-1.758 2.539,-1.909 2.756,-0.173c3.928,33.29 4.969,24.848 8.051,85.85c1.801,35.981 -2.843,77.127 -4.709,113.412c121.115,14.431 140.104,12.717 248.568,-3.19c-3.711,-36.155 -3.516,-69.358 -3.473,-105.512c0.109,-50.717 -2.278,-56.598 -0.564,-96.311c0.065,-1.801 1.215,-1.78 1.324,0.022c2.192,35.351 2.018,60.915 6.467,93.467c2.561,19.423 3.602,40.669 6.836,59.961c2.908,17.014 12.022,47.179 12.087,47.179c106.88,0 112.566,4.492 219.445,4.492c-7.747,-17.144 -14.735,-125.347 -15.126,-134.787c-0.282,-6.315 -3.798,-131.662 -3.277,-151.996" style="fill:#c40000;fill-rule:nonzero;"/></g></g><g><clipPath id="_clip25"><rect x="1034.74" y="34.397" width="249.87" height="11.35"/></clipPath><g clip-path="url(#_clip25)"><path d="M1568.14,45.421l-841.948,0l-0,-9.701l841.948,0l0,9.701" style="fill:#d4983d;fill-rule:nonzero;"/></g></g><g><clipPath id="_clip26"><rect x="1034.74" y="23.069" width="249.87" height="15.126"/></clipPath><g clip-path="url(#_clip26)"><path d="M1568.14,37.587l-841.948,-0l-0,-13.13l841.948,0l0,13.13" style="fill:#d4983d;fill-rule:nonzero;"/></g></g><g><clipPath id="_clip27"><rect x="1034.74" y="17.231" width="20.812" height="52.214"/></clipPath><g clip-path="url(#_clip27)"><path d="M1054.38,68.446l-42.839,0l0,-51.063l42.839,-0l-0,51.063" style="fill:#c40000;fill-rule:nonzero;"/></g></g><g><path d="M1282.79,68.446l-42.839,0l0,-51.063l42.839,-0l-0,51.063" style="fill:#c40000;fill-rule:nonzero;"/><path d="M1280.14,64.345l-37.695,-0l-0,-46.962l37.695,-0l0,46.962" style="fill:#c40000;fill-rule:nonzero;"/></g><g><clipPath id="_clip28"><rect x="1034.74" y="17.231" width="20.812" height="52.214"/></clipPath><g clip-path="url(#_clip28)"><path d="M1051.74,64.345l-37.695,-0l-0,-46.962l37.695,-0l0,46.962" style="fill:#c40000;fill-rule:nonzero;"/></g></g><g><clipPath id="_clip29"><rect x="1278.12" y="58.984" width="249.87" height="295.573"/></clipPath><g clip-path="url(#_clip29)"><path d="M1754.71,59.484c0,-0 -728.147,-0.022 -728.255,-0.022c0.108,7.183 1.997,98.85 1.931,106.792c-0.151,21.897 -1.909,48.59 -3.016,70.465c-0.499,9.852 -8.29,93.251 -15.083,103.689c0,-0.022 125.847,15.864 249.067,7.509c2.887,-16.971 9.05,-34.289 11.48,-51.281c2.713,-19.466 6.272,-36.849 6.619,-56.488c0.586,-32.314 -1.107,-58.941 -1.128,-93.078c-0,-1.758 2.539,-1.909 2.756,-0.173c3.928,33.29 4.969,24.848 8.029,85.85c1.823,35.981 -2.843,77.127 -4.687,113.412c121.115,14.431 140.104,12.717 248.546,-3.19c-3.689,-36.155 -3.494,-69.358 -3.472,-105.512c0.13,-50.717 -2.257,-56.598 -0.543,-96.311c0.065,-1.801 1.215,-1.78 1.324,0.022c2.17,35.351 2.018,60.915 6.467,93.467c2.561,19.423 3.581,40.669 6.836,59.961c2.886,17.014 12.001,47.179 12.088,47.179c106.879,0 112.543,4.492 219.422,4.492c-7.747,-17.144 -14.713,-125.347 -15.126,-134.787c-0.26,-6.315 -3.797,-131.662 -3.255,-151.996" style="fill:#c40000;fill-rule:nonzero;"/></g></g><g><clipPath id="_clip30"><rect x="1278.12" y="34.397" width="249.87" height="11.35"/></clipPath><g clip-path="url(#_clip30)"><path d="M1811.52,45.421l-841.948,0l-0,-9.701l841.948,0l0,9.701" style="fill:#d4983d;fill-rule:nonzero;"/></g></g><g><clipPath id="_clip31"><rect x="1278.12" y="23.069" width="249.87" height="15.126"/></clipPath><g clip-path="url(#_clip31)"><path d="M1811.52,37.587l-841.948,-0l-0,-13.13l841.948,0l0,13.13" style="fill:#d4983d;fill-rule:nonzero;"/></g></g><g><clipPath id="_clip32"><rect x="1278.12" y="17.231" width="21.875" height="52.214"/></clipPath><g clip-path="url(#_clip32)"><path d="M1297.77,68.446l-42.839,0l0,-51.063l42.839,-0l-0,51.063" style="fill:#c40000;fill-rule:nonzero;"/></g></g><g><path d="M1526.17,68.446l-42.839,0l0,-51.063l42.839,-0l-0,51.063" style="fill:#c40000;fill-rule:nonzero;"/><path d="M1523.52,64.345l-37.695,-0l-0,-46.962l37.695,-0l0,46.962" style="fill:#c40000;fill-rule:nonzero;"/></g><g><clipPath id="_clip33"><rect x="1278.12" y="17.231" width="21.875" height="52.214"/></clipPath><g clip-path="url(#_clip33)"><path d="M1295.12,64.345l-37.695,-0l-0,-46.962l37.695,-0l0,46.962" style="fill:#c40000;fill-rule:nonzero;"/></g></g><g><clipPath id="_clip34"><rect x="95.768" y="17.231" width="20.812" height="66.623"/></clipPath><g clip-path="url(#_clip34)"><rect x="97.244" y="-133.529" width="217.773" height="217.795" style="fill:#c40000;fill-rule:nonzero;"/><path d="M315.017,85.742l-217.773,0c-0.825,0 -1.476,-0.651 -1.476,-1.476l0,-217.795c0,-0.803 0.651,-1.454 1.476,-1.454l217.773,0c0.825,0 1.476,0.651 1.476,1.454l0,217.795c0,0.825 -0.651,1.476 -1.476,1.476Zm-216.319,-2.951l214.844,-0l-0,-214.844l-214.844,0l-0,214.844Z" style="fill:#c40000;fill-rule:nonzero;"/></g></g><g><clipPath id="_clip35"><rect x="318.012" y="17.231" width="20.812" height="66.623"/></clipPath><g clip-path="url(#_clip35)"><rect x="319.466" y="-133.529" width="217.795" height="217.795" style="fill:#c40000;fill-rule:nonzero;"/><path d="M537.261,85.742l-217.795,0c-0.825,0 -1.454,-0.651 -1.454,-1.476l0,-217.795c0,-0.803 0.629,-1.454 1.454,-1.454l217.795,0c0.825,0 1.476,0.651 1.476,1.454l-0,217.795c-0,0.825 -0.651,1.476 -1.476,1.476Zm-216.319,-2.951l214.844,-0l-0,-214.844l-214.844,0l-0,214.844Z" style="fill:#c40000;fill-rule:nonzero;"/></g></g><g><clipPath id="_clip36"><rect x="1522.22" y="17.231" width="19.358" height="66.623"/></clipPath><g clip-path="url(#_clip36)"><rect x="1522.22" y="-133.529" width="217.773" height="217.795" style="fill:#c40000;fill-rule:nonzero;"/></g></g><g><clipPath id="_clip37"><rect x="1520.75" y="17.231" width="20.833" height="66.623"/></clipPath><g clip-path="url(#_clip37)"><path d="M1740,85.742l-217.774,0c-0.824,0 -1.475,-0.651 -1.475,-1.476l-0,-217.795c-0,-0.803 0.651,-1.454 1.475,-1.454l217.774,0c0.824,0 1.475,0.651 1.475,1.454l0,217.795c0,0.825 -0.651,1.476 -1.475,1.476Zm-216.298,-2.951l214.844,-0l-0,-214.844l-214.844,0l-0,214.844Z" style="fill:#c40000;fill-rule:nonzero;"/></g></g><g><clipPath id="_clip38"><rect x="1689.71" y="17.231" width="20.833" height="66.623"/></clipPath><g clip-path="url(#_clip38)"><rect x="1691.19" y="-133.529" width="217.773" height="217.795" style="fill:#c40000;fill-rule:nonzero;"/><path d="M1908.96,85.742l-217.774,0c-0.824,0 -1.475,-0.651 -1.475,-1.476l-0,-217.795c-0,-0.803 0.651,-1.454 1.475,-1.454l217.774,0c0.824,0 1.475,0.651 1.475,1.454l0,217.795c0,0.825 -0.651,1.476 -1.475,1.476Zm-216.298,-2.951l214.844,-0l-0,-214.844l-214.844,0l-0,214.844Z" style="fill:#c40000;fill-rule:nonzero;"/></g></g><g><path d="M272.331,158.854c-0,-0.022 -0.022,-0.043 -0.044,-0.065c-1.193,-2.322 -2.908,-4.167 -5.165,-5.534c-2.235,-1.345 -4.665,-2.04 -7.291,-2.018l-59.744,-0l-0,-4.709l65.191,-0l-5.035,-6.185c-4.861,-5.968 -10.308,-11.35 -16.384,-16.124c-6.055,-4.753 -12.566,-8.789 -19.532,-12.088c-6.966,-3.32 -14.192,-5.816 -21.723,-7.509c-7.53,-1.692 -15.126,-2.517 -22.851,-2.517c-57.249,0 -103.82,46.593 -103.82,103.841c0,9.267 1.215,18.381 3.646,27.344c0.26,1.02 0.868,1.779 1.78,2.3c0.911,0.521 1.866,0.651 2.886,0.369c0.998,-0.282 1.779,-0.868 2.278,-1.779c0.521,-0.912 0.651,-1.867 0.369,-2.887c-2.257,-8.29 -3.385,-16.753 -3.385,-25.347c-0,-53.081 43.186,-96.245 96.246,-96.245c11.979,-0.022 23.546,2.126 34.722,6.423c11.154,4.319 21.18,10.525 30.013,18.577c1.519,1.367 -110.048,8.593 -110.048,8.593l0,3.234l24.631,-0l0,4.709l-24.631,-0l0,3.233c0,0 10.07,-0.108 24.631,0.066l0,19.878c0,30.425 -24.761,55.165 -55.186,55.165c-0.76,-0.022 -1.411,0.239 -1.954,0.76c-0.564,0.542 -0.824,1.193 -0.824,1.953c-0,0.759 0.26,1.41 0.824,1.931c0.543,0.543 1.194,0.803 1.954,0.781c8.116,0 15.928,-1.562 23.415,-4.709c-0.911,0.825 -1.15,1.823 -0.694,2.973c0.434,1.15 1.28,1.715 2.517,1.715c22.765,-0 41.298,-27.171 41.298,-60.591l0,-19.661l0.499,-0l0,19.683c0,31.576 -8.746,55.165 -16.58,55.165c-0.738,0.022 -1.345,0.304 -1.866,0.825c-0.521,0.52 -0.76,1.15 -0.76,1.888c0,0.738 0.239,1.367 0.76,1.888c0.521,0.521 1.128,0.803 1.866,0.824c14.301,0 22.005,-31.228 22.005,-60.59l0,-19.553l0.521,0.022l0,77.409c0,0.738 0.261,1.389 0.782,1.909c0.542,0.521 1.171,0.803 1.931,0.803c0.738,0 1.367,-0.282 1.91,-0.803c0.521,-0.52 0.781,-1.171 0.781,-1.909l-0,-77.257l0.521,0.021l-0,19.358c-0,29.362 7.704,60.59 22.005,60.59c0.738,-0.021 1.345,-0.303 1.866,-0.824c0.521,-0.521 0.76,-1.15 0.76,-1.888c-0,-0.738 -0.239,-1.368 -0.76,-1.888c-0.521,-0.521 -1.128,-0.803 -1.866,-0.825c-7.834,-0 -16.58,-23.589 -16.58,-55.165l0,-19.162l0.499,0.021l0,19.141c0,33.399 18.533,60.59 41.298,60.59c1.237,0 2.083,-0.564 2.539,-1.714c0.456,-1.172 0.217,-2.17 -0.694,-2.995c7.487,3.147 15.277,4.709 23.394,4.688c0.759,0.021 1.41,-0.217 1.953,-0.76c0.564,-0.521 0.825,-1.172 0.825,-1.931c-0,-0.782 -0.261,-1.411 -0.825,-1.953c-0.543,-0.521 -1.194,-0.782 -1.953,-0.76c-30.426,-0 -55.187,-24.761 -55.187,-55.187l0,-18.619c26.085,1.345 52.083,4.014 61.415,9.223c12.782,7.161 14.54,26.15 14.54,40.95c-0,4.905 -0.369,9.788 -1.107,14.649c-0.738,4.839 -1.844,9.613 -3.32,14.301c-1.476,4.687 -3.277,9.223 -5.447,13.628c-2.17,4.406 -4.666,8.637 -7.487,12.652c-2.821,4.015 -5.925,7.813 -9.31,11.35c-3.407,3.559 -7.053,6.814 -10.938,9.809c-3.906,2.995 -8.007,5.664 -12.304,8.008c-4.319,2.365 -8.768,4.384 -13.39,6.055l-0.043,-0c-1.65,0.607 -2.995,1.627 -4.015,3.081c-1.02,1.454 -1.541,3.082 -1.541,4.861l0,1.997c0,0.911 -0.304,1.671 -0.955,2.3c-0.629,0.651 -1.389,0.955 -2.3,0.955l-48.199,0c-0.911,0 -1.671,-0.304 -2.3,-0.955c-0.651,-0.629 -0.955,-1.389 -0.955,-2.3l-0,-1.997c-0,-1.779 -0.521,-3.385 -1.541,-4.839c-1.02,-1.454 -2.365,-2.496 -4.015,-3.082l-0.065,-0.021c-11.285,-4.102 -21.441,-10.092 -30.469,-17.991c-9.027,-7.899 -16.297,-17.187 -21.853,-27.821c-1.128,-2.149 0.478,-4.731 2.908,-4.731l162.565,0c0.564,0 1.107,-0.13 1.628,-0.369c0.521,-0.26 0.955,-0.608 1.324,-1.042c0.347,-0.455 0.607,-0.954 0.737,-1.497c0.131,-0.564 0.131,-1.128 0.022,-1.693c-0.369,-1.757 -2.018,-2.994 -3.819,-2.994l-163.737,-0c-7.487,-0 -12.348,7.877 -8.985,14.561l0.044,0.109c5.816,11.501 13.498,21.571 23.09,30.208c9.592,8.637 20.399,15.234 32.465,19.813c1.389,0.543 2.105,1.541 2.105,3.039l0,1.432c0,1.302 0.261,2.539 0.738,3.733c0.499,1.193 1.215,2.256 2.127,3.168c0.911,0.911 1.953,1.628 3.168,2.105c1.194,0.499 2.431,0.759 3.733,0.759l50.369,0c1.302,0 2.539,-0.26 3.733,-0.759c1.193,-0.477 2.257,-1.194 3.168,-2.105c0.911,-0.912 1.606,-1.975 2.105,-3.168c0.499,-1.194 0.738,-2.431 0.738,-3.733l-0,-1.432c0.022,-1.498 0.716,-2.518 2.127,-3.039c3.385,-1.302 6.705,-2.756 9.939,-4.405c3.233,-1.649 6.38,-3.451 9.418,-5.425c3.06,-1.975 5.99,-4.102 8.811,-6.381c2.821,-2.3 5.534,-4.709 8.095,-7.27c2.56,-2.56 4.991,-5.251 7.291,-8.072c2.279,-2.822 4.406,-5.751 6.402,-8.789c1.975,-3.06 3.798,-6.185 5.447,-9.419c1.65,-3.233 3.125,-6.554 4.427,-9.939c1.302,-3.386 2.431,-6.836 3.364,-10.33c0.955,-3.516 1.714,-7.053 2.279,-10.634c0.586,-3.58 0.955,-7.183 1.15,-10.807c0.195,-3.624 0.195,-7.248 0.022,-10.894c-0.196,-3.624 -0.565,-7.227 -1.129,-10.807c-0.564,-3.581 -1.324,-7.14 -2.257,-10.634c-0.933,-3.516 -2.04,-6.966 -3.342,-10.352c-1.302,-3.385 -2.778,-6.705 -4.405,-9.939Zm-77.67,-7.617l-0.52,-0l-0,-4.709l0.52,-0l0,4.709Zm-30.164,-4.709l0.499,-0l-0,4.709l-0.499,-0l-0,-4.709Zm0.499,27.886c-0,30.425 -16.081,55.165 -35.873,55.165c-0.065,-0 -0.152,-0 -0.217,0.022c20.964,-9.549 35.591,-30.708 35.591,-55.187l-0,-19.792l0.499,0l-0,19.792Zm5.425,-23.177l0,-4.709l0.521,-0l-0,4.709l-0.521,-0Zm5.924,-0l0,-4.709l0.521,-0l0,4.709l-0.521,-0Zm5.947,-0l-0,-4.709l0.499,-0l-0,4.709l-0.499,-0Zm5.924,-0l0,-4.709l0.521,-0l-0,4.709l-0.521,-0Zm42.036,78.364c-0.087,-0 -0.152,-0.022 -0.217,-0.022c-19.792,-0 -35.894,-24.74 -35.894,-55.165l-0,-18.924l0.52,0.022l0,18.902c0,24.479 14.605,45.638 35.591,55.187Z" style="fill-rule:nonzero;"/></g><g><clipPath id="_clip39"><rect x="1751.3" y="24.089" width="3937.59" height="22.461"/></clipPath><g clip-path="url(#_clip39)"><rect x="1751.3" y="24.089" width="4424.09" height="22.461" style="fill:#d4983d;fill-rule:nonzero;"/></g></g><g><g><g><path d="M499.459,205.782c-0.412,3.472 -1.801,5.881 -4.166,7.205c-2.388,1.28 -5.187,1.91 -8.421,1.91c-3.602,-0 -7.161,-0.196 -10.677,-0.608c-3.776,-0.391 -7.465,-0.608 -11.111,-0.608c-10.373,0 -20.725,0.521 -31.076,1.563c-10.373,0.998 -20.573,2.561 -30.642,4.687c-5.274,0.933 -10.504,1.888 -15.712,2.865c-5.165,0.933 -10.417,1.389 -15.799,1.389c-4.167,-0 -8.116,-0.608 -11.805,-1.823c-3.711,-1.215 -6.901,-3.429 -9.549,-6.684c-2.148,-2.539 -3.212,-5.23 -3.212,-8.073c0,-1.497 0.478,-2.561 1.476,-3.212c0.976,-0.694 2.279,-1.237 3.906,-1.649l0.261,-0.608c-1.802,-0.911 -3.646,-1.844 -5.556,-2.778c-1.866,-0.976 -3.516,-2.126 -4.948,-3.472c-2.148,-1.91 -4.123,-4.622 -5.903,-8.16c-1.736,-3.58 -2.604,-6.857 -2.604,-9.809c0,-2.647 1.215,-4.253 3.646,-4.774c2.43,-0.564 4.557,-1.128 6.424,-1.649c0.976,-0.282 2.951,-1.259 5.902,-2.952c2.952,-1.671 6.359,-3.776 10.243,-6.336c3.928,-2.539 7.856,-5.144 11.806,-7.813c3.993,-2.713 7.509,-5.143 10.59,-7.292c3.125,-2.191 5.209,-3.754 6.25,-4.687c1.085,-0.695 2.127,-1.432 3.125,-2.257c1.042,-0.803 2.105,-1.519 3.212,-2.17c0.738,-0.564 1.91,-1.389 3.472,-2.431c1.563,-1.085 2.344,-1.909 2.344,-2.43c-0,-0.391 -0.217,-0.999 -0.608,-1.823c-0.412,-0.803 -0.607,-1.606 -0.607,-2.431c-0,-3.646 0.998,-6.619 3.038,-8.941c2.018,-2.365 4.557,-4.166 7.639,-5.382c3.125,-1.215 6.293,-1.866 9.548,-1.996c1.042,-0.174 1.91,-0.261 2.605,-0.261l1.996,0c0.912,0 2.018,0.131 3.299,0.348c1.258,0.173 2.864,0.412 4.774,0.694l3.212,0.434c1.085,0.13 2.105,0.326 3.038,0.608c1.215,0.412 2.344,0.781 3.385,1.128c1.086,0.304 2.257,0.781 3.473,1.476c0.911,0.521 1.866,1.193 2.864,1.996c1.042,0.825 1.91,1.563 2.604,2.257c1.606,1.867 2.691,3.516 3.212,4.948c0.521,1.389 1.064,3.299 1.65,5.729c0.108,0.413 0.564,0.825 1.388,1.216l18.143,9.114c4.861,2.387 9.744,5.078 14.67,8.073c4.904,2.952 9.657,6.055 14.236,9.288c2.127,1.346 4.471,3.017 7.031,5.035c2.539,2.04 4.297,3.776 5.295,5.208c1.737,2.561 3.256,5.426 4.601,8.594c1.324,3.19 1.997,6.315 1.997,9.375c-0,4.579 -1.454,8.811 -4.341,12.674c-2.908,3.819 -6.749,5.729 -11.545,5.729c-1.389,0 -2.756,-0.022 -4.08,-0.087c-1.345,-0.108 -2.669,-0.217 -3.993,-0.347Zm-14.757,46.181l-0.173,0.434c2.257,1.736 4.383,3.211 6.423,4.427c2.019,1.215 4.102,2.994 6.25,5.295c2.952,3.081 5.513,6.597 7.726,10.59c2.257,3.95 3.385,8.138 3.385,12.587c0,5.903 -1.475,10.699 -4.427,14.41c-2.951,3.689 -7.617,5.555 -13.975,5.555c-1.867,0 -3.907,-0.26 -6.163,-0.781c-2.214,-0.521 -4.124,-1.476 -5.73,-2.865c-1.345,-1.041 -2.691,-2.213 -4.08,-3.472c-1.345,-1.28 -2.322,-2.821 -2.951,-4.601c-1.107,-2.951 -2.062,-4.427 -2.864,-4.427c-0.521,0 -0.999,0.044 -1.389,0.174l-24.393,4.514l-25.26,5.989c-4.167,0.695 -8.203,1.259 -12.066,1.737c-3.82,0.455 -8.073,0.694 -12.761,0.694c-7.421,-0 -13.715,-0.608 -18.923,-1.823c-5.165,-1.215 -10.894,-3.776 -17.188,-7.639c-3.255,-2.04 -6.206,-4.731 -8.854,-8.073c-2.604,-3.342 -3.906,-7.053 -3.906,-11.111c-0,-3.06 0.868,-5.664 2.604,-7.812c1.78,-2.192 3.494,-4.427 5.122,-6.684c-0.999,-0.695 -1.975,-1.302 -2.952,-1.823c-0.998,-0.521 -2.04,-1.064 -3.125,-1.65c-2.322,-1.215 -4.297,-3.407 -5.903,-6.597c-1.562,-3.233 -2.343,-6.076 -2.343,-8.507c-0,-1.324 0.434,-2.604 1.302,-3.819c0.868,-1.216 1.953,-1.823 3.298,-1.823c1.498,-0 2.973,0.065 4.427,0.173c1.498,0.131 2.974,0.174 4.428,0.174c0.976,0 3.342,-0.282 7.118,-0.868c3.754,-0.629 8.246,-1.411 13.454,-2.344c5.252,-0.911 10.591,-1.866 15.973,-2.864c5.382,-1.042 10.156,-1.953 14.323,-2.778c4.166,-0.803 7.053,-1.324 8.68,-1.563c4.037,-0.694 8.095,-1.237 12.153,-1.649c4.036,-0.391 8.073,-0.738 12.066,-1.042c3.342,-0.217 6.641,-0.477 9.896,-0.781c3.233,-0.282 6.467,-0.477 9.722,-0.607l15.538,-1.042c0.217,-0 0.478,0.065 0.781,0.173c0.283,0.066 0.543,0.087 0.782,0.087l0.868,0c1.844,0 3.689,-0.043 5.555,-0.173c1.91,-0.174 3.755,-0.261 5.556,-0.261c5.078,0 10.286,0.738 15.625,2.17c5.317,1.389 9.657,4.124 13.021,8.16c1.606,1.736 2.951,3.733 3.993,5.99c1.085,2.213 1.649,4.492 1.649,6.857c0,3.429 -1.454,6.229 -4.34,8.42c-2.908,2.214 -5.903,3.299 -9.028,3.299c-1.736,0 -3.537,-0.108 -5.382,-0.347c-1.801,-0.282 -3.624,-0.629 -5.469,-1.042c-0.933,-0.282 -1.953,-0.477 -3.038,-0.607c-1.107,-0.109 -2.127,-0.261 -3.038,-0.434l-1.997,-0Zm-101.562,-57.292c0.976,-0.109 2.387,-0.456 4.253,-1.042c1.91,-0.629 3.386,-1.085 4.427,-1.389c2.431,-0.911 4.536,-1.562 6.337,-1.909c1.845,-0.348 4.254,-0.977 7.205,-1.91c3.125,-1.215 6.771,-2.17 10.938,-2.865c4.166,-0.738 8.376,-1.345 12.673,-1.823c4.34,-0.52 8.095,-0.889 11.285,-1.128c4.34,-0.564 8.637,-0.912 12.934,-1.042l12.934,-0.434l-0.608,-0.607l-14.149,-8.681c-1.345,-0.911 -2.756,-1.823 -4.253,-2.691c-1.454,-0.868 -2.93,-1.606 -4.428,-2.257c-1.454,-0.694 -3.385,-1.649 -5.815,-2.864c-2.431,-1.216 -4.406,-1.823 -5.903,-1.823c-1.346,-0 -2.648,0.325 -3.907,0.954c-1.28,0.586 -2.473,1.281 -3.559,2.084l-13.107,9.896l-1.389,1.215l-21.354,14.062c-0.586,0.304 -1.606,0.847 -3.038,1.65c-1.389,0.824 -1.954,1.541 -1.65,2.17l0.174,0.434Zm-8.854,80.295c1.215,0.694 2.691,1.042 4.427,1.042c2.951,-0 6.792,-0.651 11.545,-1.997c4.796,-1.324 9.635,-2.821 14.496,-4.514c4.862,-1.736 8.768,-3.06 11.719,-3.993c5.382,-1.736 10.938,-3.212 16.667,-4.427c5.729,-1.215 11.328,-2.17 16.84,-2.864c0.521,-0.109 0.977,-0.434 1.389,-0.955c-1.042,-2.019 -2.04,-3.429 -2.951,-4.254c-0.868,-0.803 -2.127,-1.215 -3.733,-1.215l-1.562,-0l-16.754,1.649l-15.972,1.997c-4.167,0.521 -8.485,1.801 -12.934,3.819c-4.406,2.04 -8.377,4.058 -11.893,6.077c-2.148,1.345 -4.21,2.756 -6.163,4.253c-1.909,1.454 -3.624,3.255 -5.121,5.382Z" style="fill-rule:nonzero;"/></g></g></g><g><g><g><path d="M750.694,273.577c1.432,0.933 2.886,1.866 4.34,2.778c1.497,0.868 2.799,1.975 3.906,3.299c1.085,1.215 2.084,2.647 2.952,4.253c0.868,1.606 1.302,3.234 1.302,4.861c-0,2.778 -0.738,5.491 -2.17,8.16c-1.389,2.713 -3.256,5.035 -5.556,6.944c-1.866,1.736 -4.145,2.865 -6.858,3.386c-2.669,0.564 -5.273,0.868 -7.812,0.868c-3.125,-0 -7.357,-0.825 -12.674,-2.431c-5.273,-1.627 -10.069,-3.863 -14.41,-6.684l-14.322,-7.465c-1.737,-0.695 -3.733,-1.606 -5.99,-2.691c-2.214,-1.042 -4.232,-1.563 -6.076,-1.563c-2.605,0 -5.556,0.912 -8.855,2.778c-3.298,1.91 -7.443,4.471 -12.413,7.726c-2.257,1.497 -5.62,2.799 -10.069,3.906c-4.471,1.15 -8.29,1.823 -11.459,1.997l-17.795,0.781l-4.427,-0.608c-3.125,-0.412 -6.684,-0.911 -10.677,-1.475c-3.949,-0.521 -7.617,-1.129 -11.024,-1.823c-3.429,-0.651 -5.946,-1.433 -7.552,-2.344c-3.125,-1.91 -5.86,-3.95 -8.16,-6.076c-2.257,-2.149 -3.385,-4.905 -3.385,-8.247c-0,-3.516 1.302,-6.424 3.906,-8.681c2.647,-2.3 5.859,-4.383 9.635,-6.25c-0.933,-1.909 -1.823,-3.754 -2.691,-5.555c-0.868,-1.845 -1.606,-3.776 -2.17,-5.816c-0.651,-2.648 -1.085,-5.339 -1.302,-8.073c-0.174,-2.778 -0.26,-5.512 -0.26,-8.247c-0,-3.233 0.282,-7.421 0.868,-12.586c0.629,-5.209 1.215,-10.157 1.736,-14.844c0.108,-1.085 0.26,-2.279 0.434,-3.559c0.217,-1.259 0.456,-2.431 0.694,-3.472c0.282,-1.085 0.434,-2.105 0.434,-3.039c0,-0.282 -0.152,-0.694 -0.434,-1.215c-0.238,-0.564 -0.824,-1.519 -1.736,-2.864c-0.824,-1.216 -1.215,-2.539 -1.215,-3.993c-0,-3.646 1.15,-6.185 3.472,-7.639c2.366,-1.498 5.165,-2.257 8.42,-2.257c2.713,-0 5.252,0.564 7.639,1.649c2.431,1.042 4.644,2.387 6.684,3.993c0.521,0.412 0.977,0.825 1.389,1.215c0.391,0.413 0.89,0.738 1.476,0.955l0.607,-0.173l19.358,-3.993l19.358,-3.299c2.951,-0.521 5.837,-1.085 8.68,-1.736c2.821,-0.695 5.729,-1.172 8.681,-1.476l15.364,-1.215c4.688,-0.217 9.462,-0.304 14.323,-0.261c4.861,0.066 9.571,0.651 14.15,1.737c2.365,0.412 5.208,1.085 8.507,1.996c3.298,0.933 6.532,2.083 9.722,3.472c3.168,1.346 5.642,2.778 7.378,4.341c2.648,2.322 4.97,4.861 6.945,7.638c1.953,2.735 3.407,5.86 4.34,9.375c0.521,1.454 0.868,2.995 1.042,4.601c0.217,1.628 0.477,3.19 0.781,4.688l0.434,16.319l0.174,18.403c-0,4.167 -0.651,7.682 -1.91,10.503c-1.281,2.778 -3.19,5.795 -5.729,9.028Zm-47.83,-98.871l-15.191,-0l-21.962,2.604l-7.465,1.215l-18.577,3.819c-1.736,0.174 -3.537,0.413 -5.382,0.695c-1.801,0.239 -3.645,0.347 -5.555,0.347c-3.776,0 -7.465,-0.629 -11.111,-1.91c-3.603,-1.258 -7.27,-2.191 -11.025,-2.777c-2.213,-0.217 -4.123,-1.346 -5.729,-3.386c-1.562,-2.018 -2.843,-3.993 -3.819,-5.903c-1.346,-2.647 -2.235,-5.49 -2.691,-8.506c-0.478,-3.06 -0.695,-6.077 -0.695,-9.028c0,-1.216 0.022,-2.431 0.087,-3.646c0.044,-1.215 0.13,-2.344 0.261,-3.386c0.173,-0.911 0.303,-1.757 0.434,-2.517c0.108,-0.738 0.173,-1.519 0.173,-2.344c0,-0.911 -1.02,-2.126 -3.038,-3.645c-0.933,-0.63 -1.606,-1.585 -1.996,-2.865c-0.413,-1.324 -0.608,-2.517 -0.608,-3.559c-0,-3.125 1.128,-5.425 3.385,-6.945c2.301,-1.562 4.883,-2.343 7.726,-2.343c3.516,-0 6.467,0.672 8.854,1.996c2.431,1.346 5.729,3.559 9.896,6.684c4.167,-1.497 8.355,-2.908 12.587,-4.253l12.5,-4.08c3.581,-1.15 7.291,-2.17 11.111,-3.038c3.863,-0.912 7.639,-1.693 11.285,-2.344c2.647,-0.564 5.751,-1.063 9.288,-1.476c3.581,-0.39 7.205,-0.738 10.851,-1.041c3.645,-0.348 6.814,-0.565 9.548,-0.695c2.778,-0.173 4.644,-0.26 5.643,-0.26c5.49,-0 11.219,0.911 17.187,2.691c6.011,1.736 11.306,3.971 15.885,6.684c4.558,2.669 8.377,6.12 11.459,10.33c3.125,4.231 4.687,9.093 4.687,14.583c0,1.91 -0.26,3.472 -0.781,4.687c-1.215,2.561 -2.04,4.254 -2.431,5.122c-0.412,0.868 -0.607,1.519 -0.607,1.91c-0,0.412 0.13,0.998 0.434,1.736c0.347,0.759 0.998,2.257 1.996,4.514c0.391,0.824 0.63,1.627 0.695,2.43c0.043,0.825 0.087,1.628 0.087,2.431c-0,3.364 -0.999,6.206 -2.952,8.507c-1.909,2.257 -4.644,3.385 -8.159,3.385c-1.867,0 -3.777,-0.217 -5.73,-0.694c-1.974,-0.456 -3.884,-1.042 -5.729,-1.736c-0.998,-0.391 -2.061,-0.738 -3.212,-1.042c-1.106,-0.347 -2.213,-0.608 -3.298,-0.781l-18.316,-2.17Zm-78.733,-13.716l35.938,-7.291l18.576,-2.17c2.257,-0.283 4.883,-0.608 7.899,-0.955c3.06,-0.348 4.992,-0.521 5.816,-0.521l3.646,-0c0.912,-0.521 2.127,-1.389 3.646,-2.604c1.562,-1.216 2.973,-2.518 4.253,-3.907c1.259,-1.432 1.91,-2.691 1.91,-3.732c0,-1.606 -0.304,-2.604 -0.868,-2.952c-0.586,-0.347 -1.627,-0.52 -3.125,-0.52c-3.255,-0 -6.467,0.217 -9.635,0.607c-3.125,0.413 -6.25,0.825 -9.375,1.215l-16.754,4.688l-10.243,2.778l-16.927,2.864c-0.998,0.131 -1.888,0.174 -2.691,0.174l-2.778,-0c-1.106,-0 -2.322,0.087 -3.645,0.26c-1.346,0.131 -2.344,0.174 -3.039,0.174l-3.819,-0c0.108,2.04 0.195,4.058 0.26,6.076c0.109,1.975 0.434,3.907 0.955,5.816Zm-6.51,62.587l8.507,-0.868l17.534,-4.253l2.865,-0.955l17.187,-4.254l12.848,-2.43l17.795,-1.389c0.694,-0.174 1.931,-0.109 3.732,0.173c1.78,0.304 3.668,0.608 5.643,0.955c1.953,0.304 3.472,0.651 4.514,1.042c1.215,0.586 2.387,1.215 3.559,1.91c1.15,0.651 2.344,1.302 3.559,1.996c-0,-0.694 0.022,-1.432 0.087,-2.257c0.043,-0.803 0.086,-1.606 0.086,-2.43c0,-2.019 -0.954,-3.473 -2.864,-4.341c-1.866,-0.868 -3.972,-1.345 -6.337,-1.475c-2.322,-0.174 -4.232,-0.261 -5.729,-0.261l-4.861,0c-1.736,0 -3.386,0.065 -4.948,0.174c-1.563,0.065 -3.277,0.217 -5.122,0.434l-19.357,3.038l-27.865,6.077c-3.364,0.824 -6.814,1.215 -10.33,1.215c-3.472,-0 -6.64,-0.456 -9.462,-1.389c-0.303,1.454 -0.564,2.93 -0.781,4.427c-0.173,1.454 -0.26,3.082 -0.26,4.861Zm96.093,24.219c-3.645,-1.085 -7.161,-1.649 -10.503,-1.649l-9.635,-0c-3.95,-0 -7.184,0.217 -9.723,0.607l-17.187,2.778l-8.854,1.476l-14.497,3.211c-2.734,0.521 -5.512,0.999 -8.333,1.389c-2.778,0.413 -5.534,0.608 -8.247,0.608c-1.519,0 -2.951,-0.195 -4.34,-0.608c-1.389,-0.39 -2.843,-0.868 -4.34,-1.389c0.108,1.107 0.217,2.236 0.347,3.386c0.174,1.107 0.304,2.213 0.434,3.299c1.78,-0 4.015,-0.022 6.684,-0.087c2.713,-0.109 5.404,-0.217 8.073,-0.348c2.713,-0.108 4.861,-0.303 6.424,-0.607l18.229,-3.646l11.718,-2.431l17.362,-1.996l18.489,-1.042l6.858,0c0.282,-0.521 0.477,-0.998 0.607,-1.475c0.174,-0.456 0.304,-0.955 0.434,-1.476Zm1.216,-15.191c0.108,-0.803 0.195,-1.563 0.26,-2.257c0.109,-0.738 0.174,-1.519 0.174,-2.344c-1.91,-0.694 -3.863,-1.258 -5.816,-1.736c-1.91,-0.456 -3.885,-0.781 -5.903,-0.955c-0.933,-0.108 -2.648,-0.195 -5.121,-0.26c-2.496,-0.044 -4.927,-0.087 -7.292,-0.087c-2.387,0 -3.885,0.065 -4.514,0.174l-20.052,3.211l-18.142,4.254l-13.542,3.212c-2.149,0.412 -4.254,0.781 -6.337,1.128c-2.083,0.347 -4.21,0.521 -6.337,0.521c-0.933,0 -1.801,-0.087 -2.604,-0.26c-0.825,-0.217 -1.628,-0.391 -2.43,-0.521l-0,4.253c-0,0.521 0.043,0.999 0.173,1.389c1.91,0 3.841,-0.087 5.816,-0.26c2.018,-0.217 3.993,-0.434 5.903,-0.608c1.606,-0.217 3.233,-0.564 4.861,-1.042c1.606,-0.455 3.234,-0.889 4.861,-1.302c5.078,-0.976 10.113,-1.996 15.104,-3.038l14.931,-3.212c4.687,-1.085 9.462,-1.953 14.323,-2.604c4.861,-0.694 9.57,-1.042 14.149,-1.042c2.648,0 5.295,0.326 7.899,0.955c2.648,0.586 5.86,1.389 9.636,2.431Zm-69.618,42.361c-0.521,-0.108 -1.042,-0.217 -1.563,-0.347c-0.477,-0.174 -1.02,-0.261 -1.649,-0.261l-1.649,0c-0.521,0 -1.194,0.087 -1.997,0.261l-11.285,1.215c-3.125,0.239 -6.38,0.738 -9.722,1.476c-3.364,0.759 -5.035,1.996 -5.035,3.732c0,0.934 0.738,1.693 2.257,2.257c1.563,0.521 3.234,0.868 5.035,1.042c1.845,0.13 3.168,0.174 3.993,0.174c3.234,-0 6.988,-0.825 11.285,-2.518c4.34,-1.671 7.769,-4.014 10.33,-7.031Z" style="fill-rule:nonzero;"/></g></g></g><g><g><g><path d="M849.324,172.709c-2.322,-0.564 -4.84,-1.15 -7.552,-1.736c-2.67,-0.629 -5.339,-1.215 -7.986,-1.736c-2.561,-0.629 -4.992,-1.78 -7.292,-3.472c-2.257,-1.736 -3.385,-4.08 -3.385,-7.032c-0,-3.862 1.649,-6.879 4.947,-9.027c3.299,-2.192 7.336,-3.299 12.153,-3.299c6.467,-0 12.674,1.302 18.577,3.906c5.902,2.561 11.284,5.903 16.145,10.07c6.988,-3.516 13.803,-7.249 20.4,-11.198c6.597,-3.993 12.977,-8.117 19.184,-12.413l-1.215,-1.389c-0.521,-0.391 -1.129,-0.608 -1.823,-0.608c-0.521,0 -1.389,0.239 -2.605,0.694c-1.215,0.478 -3.211,1.433 -5.989,2.865c-2.735,1.389 -6.728,3.624 -11.979,6.684c-3.538,2.04 -6.402,3.429 -8.594,4.167c-2.214,0.759 -4.319,1.128 -6.337,1.128c-2.148,0 -4.731,-0.347 -7.726,-1.041c-2.951,-0.695 -5.881,-1.737 -8.767,-3.125c-2.908,-1.389 -5.338,-3.082 -7.292,-5.122c-1.909,-2.018 -2.864,-4.384 -2.864,-7.118c-0,-2.539 1.128,-4.253 3.385,-5.122c2.301,-0.868 4.471,-1.302 6.511,-1.302c0.39,0 1.237,0.087 2.517,0.261c1.259,0.13 2.17,0.173 2.691,0.173c0.564,0 1.606,-0.347 3.125,-1.041c1.562,-0.695 4.774,-2.17 9.635,-4.427c2.019,-1.085 3.993,-2.084 5.903,-2.952c1.953,-0.868 3.82,-1.649 5.556,-2.343c5.555,-2.257 10.33,-3.842 14.323,-4.775c4.036,-0.976 7.552,-1.475 10.503,-1.475c3.754,-0 7.921,0.954 12.5,2.864c4.557,1.866 8.507,4.427 11.806,7.726c3.298,3.298 4.948,7.118 4.948,11.458c-0,2.04 -0.326,3.906 -0.955,5.642c-0.586,1.737 -1.736,3.82 -3.472,6.25l7.118,2.431c1.605,-2.3 2.951,-4.34 3.993,-6.076c0.39,-0.695 0.716,-1.302 0.954,-1.823c0.283,-0.521 0.63,-1.129 1.042,-1.823c0.564,-0.912 0.651,-1.78 0.261,-2.604c-2.561,-1.91 -3.82,-4.189 -3.82,-6.858c0,-2.3 0.955,-4.102 2.865,-5.382c1.953,-1.259 4.014,-1.91 6.163,-1.91c3.516,0 6.727,0.934 9.635,2.778c2.887,1.801 5.404,3.971 7.552,6.511c2.127,-0.283 4.015,-0.434 5.643,-0.434c3.06,-0 6.011,0.477 8.854,1.388c2.821,0.868 5.404,2.236 7.726,4.08c2.126,1.736 3.949,3.907 5.468,6.511c1.563,2.56 2.344,5.251 2.344,8.073c0,2.951 -0.759,5.642 -2.257,8.073c-1.454,2.387 -3.255,4.513 -5.382,6.423c3.06,2.04 5.816,4.601 8.247,7.726c2.43,3.081 3.646,6.554 3.646,10.416c-0,3.777 -1.02,6.836 -3.039,9.202c-2.04,2.387 -4.774,3.971 -8.246,4.774c-0,2.561 -0.412,4.601 -1.215,6.163c-0.825,1.519 -2.778,2.257 -5.903,2.257c-1.454,0 -3.125,-0.086 -5.035,-0.26c-1.866,-0.217 -3.342,-0.391 -4.427,-0.521c-3.776,-0.694 -7.704,-1.15 -11.806,-1.389c-4.123,-0.282 -8.203,-0.434 -12.239,-0.434c-9.158,0 -19.249,0.781 -30.295,2.344c-11.003,1.562 -21.919,3.624 -32.726,6.163c-10.829,2.561 -20.703,5.295 -29.601,8.247c-2.56,1.736 -4.231,4.079 -5.034,7.031c1.736,0.173 3.602,0.087 5.642,-0.261c2.018,-0.347 4.709,-0.976 8.073,-1.909c1.085,-0.282 2.452,-0.651 4.08,-1.129c1.606,-0.455 3.689,-0.955 6.25,-1.475c13.585,-3.342 26.671,-6.207 39.236,-8.594c12.543,-2.366 25.369,-3.559 38.455,-3.559c4.557,-0 8.789,0.325 12.673,0.955c3.928,0.586 7.639,2.148 11.111,4.687c3.516,2.431 6.424,5.643 8.681,9.636c2.3,3.949 3.472,8.072 3.472,12.413c0,7.639 -2.908,13.845 -8.68,18.576c1.432,2.561 2.17,5.035 2.17,7.465c-0,2.149 -0.413,4.232 -1.215,6.25c3.927,1.042 7.508,3.169 10.763,6.337c3.234,3.19 4.862,6.923 4.862,11.198c-0,2.952 -1.303,5.99 -3.907,9.115c-2.56,3.168 -6.575,4.774 -12.066,4.774c-1.627,0 -3.711,-0.26 -6.25,-0.781c-2.56,-0.521 -4.579,-0.998 -6.076,-1.389c-4.579,-1.107 -9.852,-1.975 -15.799,-2.604c-5.902,-0.586 -12.825,-0.868 -20.746,-0.868c-3.364,-0 -7.531,0.086 -12.5,0.26c-4.992,0.217 -10.048,0.543 -15.191,0.955c-5.1,0.391 -9.527,0.803 -13.281,1.215c-2.257,0.282 -5.209,0.63 -8.855,1.042c-3.645,0.391 -6.987,0.716 -9.982,0.955c-3.017,0.282 -4.861,0.477 -5.556,0.607c-2.843,0.283 -5.382,0.521 -7.639,0.695c-2.213,0.217 -4.427,0.347 -6.684,0.347c-3.537,0 -7.161,-0.347 -10.85,-1.042c-3.711,-0.651 -6.945,-1.714 -9.723,-3.211c-3.537,-1.867 -5.968,-3.907 -7.291,-6.164c-1.346,-2.213 -1.997,-3.971 -1.997,-5.295c0,-2.712 1.411,-4.08 4.254,-4.08l3.559,0c1.909,0 3.667,-0.195 5.295,-0.607c-3.95,-4.275 -5.903,-8.594 -5.903,-12.934c0,-2.539 0.564,-4.471 1.736,-5.816c1.15,-1.324 2.604,-2.344 4.34,-3.038c-2.56,-3.342 -4.687,-6.945 -6.423,-10.764c-1.736,-3.863 -2.604,-7.9 -2.604,-12.066c-0,-7.639 2.734,-14.41 8.246,-20.313c-2.951,-1.779 -5.273,-3.407 -6.944,-4.861c-1.693,-1.497 -2.518,-3.385 -2.518,-5.642c0,-1.606 0.391,-2.821 1.216,-3.646c-2.431,-0.695 -4.688,-1.649 -6.771,-2.865c-2.084,-1.215 -3.95,-2.691 -5.556,-4.427c-1.215,-1.432 -2.322,-3.146 -3.298,-5.121c-0.934,-1.953 -1.389,-3.82 -1.389,-5.556c-0,-1.085 0.521,-1.866 1.562,-2.344c1.085,-0.455 3.82,-0.824 8.16,-1.128c2.648,-0.217 6.207,-0.955 10.677,-2.17c4.449,-1.215 8.355,-2.886 11.719,-5.035Zm9.462,64.323c-0,2.734 0.455,4.926 1.389,6.597c0.976,1.693 2.473,3.19 4.513,4.514c4.384,-0.629 8.811,-1.345 13.282,-2.17c7.508,-1.497 13.802,-2.734 18.836,-3.733c5.079,-1.041 9.592,-1.953 13.542,-2.777c3.993,-0.803 8.116,-1.606 12.413,-2.431c4.731,-0.911 9.592,-1.606 14.584,-2.083c4.969,-0.456 9.939,-0.782 14.93,-0.955c1.736,-1.042 2.865,-1.867 3.386,-2.518c0.52,-0.694 0.781,-1.323 0.781,-1.909c-0,-1.324 -1.953,-1.997 -5.816,-1.997c-7.01,0 -14.019,0.586 -21.007,1.736c-7.01,1.172 -14.019,2.474 -21.007,3.907c-2.951,0.694 -5.946,1.432 -8.941,2.17c-3.016,0.694 -6.033,1.389 -9.028,2.083c-2.951,0.694 -5.599,1.194 -7.899,1.476c-2.257,0.238 -4.991,0.347 -8.16,0.347c-2.734,-0 -5.165,-0.109 -7.291,-0.347c-2.149,-0.282 -4.992,-0.912 -8.507,-1.91Zm94.097,-58.333c-4.991,-2.257 -10.07,-4.297 -15.278,-6.164c-5.165,-1.909 -10.373,-3.732 -15.625,-5.468c-3.95,3.884 -8.16,7.508 -12.674,10.85c-4.47,3.364 -9.114,6.402 -13.975,9.115c5.252,-1.085 10.243,-2.083 14.93,-2.951c4.688,-0.868 9.31,-1.65 13.889,-2.344c4.731,-0.629 9.571,-1.215 14.497,-1.736c4.904,-0.564 9.657,-0.999 14.236,-1.302Zm-2.865,81.597c-1.736,-2.127 -3.819,-3.212 -6.25,-3.212c-2.56,0 -5.599,0.304 -9.114,0.868c-3.473,0.586 -6.901,1.346 -10.243,2.257c-3.364,0.868 -6.315,1.78 -8.855,2.691c-3.537,1.215 -6.987,2.583 -10.329,4.08c-3.364,1.454 -6.598,3.255 -9.723,5.382l14.931,-1.997c4.97,-0.694 9.939,-1.497 14.93,-2.43c3.928,-1.845 7.987,-3.386 12.153,-4.601c4.167,-1.215 8.334,-2.213 12.5,-3.038Zm-87.76,3.385c0.629,0.999 1.758,2.496 3.385,4.514c1.606,1.975 3.082,2.952 4.427,2.952c2.301,-0 4.796,-0.608 7.466,-1.823c2.712,-1.216 5.316,-2.648 7.812,-4.341c2.474,-1.671 4.536,-3.233 6.163,-4.687c-4.991,0.651 -9.896,1.302 -14.757,1.996c-4.861,0.695 -9.7,1.172 -14.496,1.389Zm103.472,-111.371c1.497,0.521 3.472,1.128 5.903,1.823c0.803,-0.695 1.736,-1.433 2.778,-2.257c1.085,-0.803 2.105,-1.476 3.038,-1.997c1.91,-1.324 2.995,-2.213 3.298,-2.691c0.348,-0.521 0.456,-1.302 0.348,-2.344c-1.042,-0.39 -2.062,-0.976 -3.039,-1.736c-0.933,-0.737 -1.801,-1.584 -2.604,-2.517c-2.148,3.364 -3.797,5.773 -4.948,7.205c-1.171,1.389 -2.756,2.908 -4.774,4.514Z" style="fill-rule:nonzero;"/></g></g></g><g><g><g><path d="M1636.21,224.659c-5.512,0 -10.026,-0.217 -13.541,-0.694c-3.472,-0.521 -6.684,-1.649 -9.636,-3.385c-2.843,-1.737 -5.62,-4.08 -8.333,-7.032c-2.669,-2.951 -3.993,-6.163 -3.993,-9.635c-0,-3.516 1.736,-5.925 5.208,-7.205c3.516,-1.259 7.986,-2.04 13.368,-2.344c5.078,-2.126 9.484,-4.08 13.195,-5.816c3.689,-1.779 7.074,-3.58 10.156,-5.382c3.125,-1.779 6.38,-3.841 9.809,-6.163c3.472,-2.3 7.487,-4.948 12.066,-7.899c3.342,-2.127 6.793,-4.167 10.33,-6.077c3.581,-1.953 7.14,-3.906 10.677,-5.815c0.217,-2.019 -0.412,-3.473 -1.91,-4.341c-1.454,-0.868 -3.385,-1.302 -5.816,-1.302c-2.56,0 -4.948,0.434 -7.205,1.302c-2.213,0.868 -4.318,1.91 -6.336,3.125l-17.969,10.504l-15.104,9.722c-3.473,2.148 -7.444,3.884 -11.893,5.208c-4.47,1.346 -8.767,1.997 -12.934,1.997c-4.47,-0 -8.984,-0.651 -13.541,-1.997c-4.579,-1.324 -8.659,-3.255 -12.24,-5.816c-2.04,-1.497 -3.863,-3.298 -5.469,-5.382c-1.627,-2.083 -2.43,-4.383 -2.43,-6.944c-0,-2.127 0.716,-3.993 2.17,-5.556c1.497,-1.562 3.32,-2.343 5.469,-2.343c0.694,-0 1.562,0.13 2.604,0.347c1.085,0.173 2.105,0.412 3.038,0.694l1.823,0.434c1.606,-0.694 3.906,-1.758 6.858,-3.212c2.951,-1.497 6.119,-3.125 9.548,-4.861c3.472,-1.779 6.728,-3.494 9.809,-5.121l7.552,-3.559c6.706,-3.516 14.193,-6.728 22.483,-9.636c8.268,-2.886 16.167,-4.34 23.698,-4.34c5.49,0 11.285,1.02 17.361,3.038c6.076,2.04 11.719,4.905 16.927,8.594c5.252,3.711 9.549,8.073 12.847,13.108c3.299,5.034 4.948,10.655 4.948,16.84c0,7.943 -3.168,14.193 -9.462,18.75c-3.645,2.561 -7.443,4.948 -11.371,7.205c-3.885,2.213 -7.791,4.47 -11.719,6.771c-3.19,1.866 -6.424,3.776 -9.722,5.729c-3.299,1.975 -6.641,3.884 -9.983,5.729c4.796,4.058 8.898,9.093 12.327,15.104c3.472,5.968 6.098,12.24 7.899,18.837c1.845,6.597 2.778,12.999 2.778,19.184c-0,6.597 -1.302,13.021 -3.907,19.271c-2.56,6.25 -5.967,11.936 -10.243,17.014c-4.861,5.772 -10.047,9.852 -15.538,12.239c-5.512,2.366 -11.957,3.559 -19.357,3.559c-8.334,0 -16.125,-1.801 -23.351,-5.382c-7.183,-3.602 -13.195,-8.897 -18.056,-15.885c-0.933,-1.432 -1.909,-2.886 -2.951,-4.34c-0.998,-1.498 -2.04,-2.952 -3.125,-4.341l-9.896,-11.892c-0.933,-1.215 -2.235,-2.886 -3.906,-5.035c-1.693,-2.126 -3.212,-4.34 -4.601,-6.597c-1.345,-2.3 -1.996,-4.21 -1.996,-5.729c-0,-1.042 0.455,-1.563 1.389,-1.563c0.976,0 2.343,0.521 4.079,1.563c1.736,0.998 4.514,2.821 8.334,5.469c5.078,3.776 11.024,6.488 17.795,8.159c6.814,1.693 13.542,2.518 20.139,2.518c7.508,-0 12.695,-2.018 15.538,-6.077c2.821,-4.101 4.253,-9.809 4.253,-17.1c0,-4.688 -0.52,-9.484 -1.562,-14.41c-0.998,-4.905 -3.451,-8.854 -7.379,-11.806Z" style="fill-rule:nonzero;"/></g></g></g><g><g><clipPath id="_clip40"><path d="M551.194,280.49l5.013,0.131l-1.758,68.511l-5.035,-0.13l1.78,-68.512Z"/></clipPath><g clip-path="url(#_clip40)"><g><clipPath id="_clip41"><path d="M556.098,281.706c-1.671,51.606 -2.387,64.865 -3.884,66.623c-0.391,0.716 -1.65,-0.391 -1.65,-0.391l1.823,0.391c-0.173,-0 -1.476,0.694 -1.823,-0.391c-1.041,-2.191 2.04,-15.386 2.648,-24.696c0.868,-12.174 -0.651,-38.39 1.063,-41.58c0.391,-1.063 1.823,0.044 1.823,0.044"/></clipPath><g clip-path="url(#_clip41)"><path d="M545.334,267.079l18.62,0.477l-2.452,95.725l-18.62,-0.477l2.452,-95.725Z" style="fill:#fff;fill-rule:nonzero;"/></g></g></g></g></g><g><g><clipPath id="_clip42"><path d="M795.052,274.327l5.382,0.152l-1.888,73.611l-5.382,-0.152l1.888,-73.611Z"/></clipPath><g clip-path="url(#_clip42)"><g><clipPath id="_clip43"><path d="M800.347,275.651c-1.823,55.447 -2.582,69.683 -4.21,71.571c-0.412,0.76 -1.758,-0.434 -1.758,-0.434l1.953,0.434c-0.195,0 -1.584,0.738 -1.953,-0.434c-1.106,-2.344 2.192,-16.515 2.843,-26.519c0.933,-13.086 -0.694,-41.254 1.15,-44.661c0.434,-1.151 1.975,0.043 1.975,0.043"/></clipPath><g clip-path="url(#_clip43)"><path d="M788.78,259.939l19.987,0.521l-2.626,102.843l-20.008,-0.521l2.647,-102.843Z" style="fill:#fff;fill-rule:nonzero;"/></g></g></g></g></g><g><g><g><path d="M1092.6,134.341l0.434,-0.781c-0,-0.282 -0.348,-0.89 -1.042,-1.823c-1.346,-1.78 -1.997,-3.603 -1.997,-5.469c0,-2.951 1.151,-5.143 3.473,-6.597c2.365,-1.498 5.056,-2.517 8.072,-3.038c3.06,-0.565 5.665,-0.868 7.813,-0.868c2.3,-0 4.861,0.564 7.639,1.649c2.821,1.042 5.295,2.582 7.378,4.601c2.084,2.04 3.125,4.383 3.125,7.031c0,0.586 0.022,1.107 0.087,1.562c0.109,0.478 0.217,0.955 0.347,1.476c2.822,1.107 6.098,2.93 9.809,5.469c3.69,2.561 6.988,5.425 9.896,8.594c2.887,3.19 4.341,6.315 4.341,9.375l-0,2.257c-0,0.824 -0.087,1.692 -0.261,2.604c1.085,-0.521 2.517,-0.782 4.254,-0.782l2.257,0c0.911,0 1.649,-0.086 2.17,-0.26l24.045,-6.858l18.142,-3.993c2.821,-0.564 4.688,-0.889 5.556,-0.955c0.868,-0.043 1.497,-0.086 1.909,-0.086c0.803,-0 1.758,0.152 2.865,0.434l0.434,-0.434c0,-0.282 0.022,-0.716 0.087,-1.302c0.043,-0.63 0.087,-1.216 0.087,-1.737c-0,-1.844 -0.825,-2.777 -2.431,-2.777c-1.345,-0 -2.496,0.043 -3.472,0.086c-0.933,0.066 -2.127,0.304 -3.559,0.695l-15.365,4.253l-17.187,4.862c-0.521,0.13 -1.107,0.217 -1.736,0.26c-0.586,0.065 -1.216,0.087 -1.91,0.087c-9.267,-0 -13.889,-4.427 -13.889,-13.282c0,-1.215 0.347,-2.625 1.042,-4.253l19.184,-8.854c5.49,-2.604 11.328,-5.035 17.534,-7.292c6.185,-2.3 12.435,-3.472 18.75,-3.472c5.252,-0 10.461,0.911 15.625,2.691c5.209,1.736 9.896,4.297 14.063,7.639c1.845,1.345 3.429,3.19 4.774,5.555c1.389,2.388 2.431,4.644 3.125,6.771c0.738,2.149 1.129,3.776 1.129,4.861l-0,21.789c-0,3.602 -0.391,7.161 -1.129,10.677c2.648,2.148 5.035,4.21 7.118,6.163c2.084,1.975 3.125,5.252 3.125,9.809c0,2.148 -0.564,4.47 -1.649,6.944c-1.042,2.496 -2.648,4.145 -4.774,4.948c-1.628,0.651 -3.993,1.042 -7.118,1.215c1.606,1.867 3.06,3.711 4.34,5.556c1.259,1.801 2.387,3.906 3.385,6.337c1.042,2.43 1.736,4.948 2.084,7.552c0.347,2.604 0.521,5.273 0.521,7.986c-0,4.471 -1.368,8.485 -4.08,12.066c-1.216,1.519 -2.843,3.016 -4.861,4.514c-1.975,1.454 -3.863,2.778 -5.643,3.993c3.82,3.776 6.814,7.943 9.028,12.5c2.192,4.579 3.299,9.635 3.299,15.191c-0,2.148 -0.217,4.47 -0.608,6.944c-0.412,2.474 -1.432,4.536 -3.038,6.164c-3.082,2.821 -6.641,4.253 -10.677,4.253c-2.149,0 -4.341,-0.738 -6.598,-2.17c-2.213,-1.389 -3.711,-3.19 -4.513,-5.382l-5.99,-16.493l-1.042,-2.257l-1.215,17.795c-0.13,2.951 -0.521,5.295 -1.215,7.031c-0.695,1.736 -2.387,3.342 -5.035,4.861c-1.736,0.912 -3.559,1.606 -5.469,2.084c-1.866,0.521 -3.732,0.781 -5.642,0.781c-4.167,0 -8.03,-1.042 -11.545,-3.125c-3.472,-2.083 -5.209,-5.556 -5.209,-10.417c0,-2.734 0.196,-5.382 0.608,-7.986c0.391,-2.604 0.651,-5.208 0.781,-7.812c-1.345,2.843 -2.777,6.054 -4.34,9.635c-1.519,3.581 -3.45,6.641 -5.816,9.202c-2.387,2.539 -5.512,3.819 -9.375,3.819c-4.991,-0 -9.158,-1.975 -12.5,-5.903c-3.364,-3.884 -5.99,-7.899 -7.899,-12.066l-0.434,0.434c-1.867,1.454 -3.776,2.995 -5.729,4.601c-1.975,1.628 -4.08,3.038 -6.337,4.253l-13.716,7.032c-0.933,0.564 -2.517,1.215 -4.774,1.909c-2.213,0.738 -4.427,1.411 -6.684,1.997c-2.213,0.629 -3.971,1.085 -5.295,1.389c-1.91,0.39 -3.863,0.738 -5.816,1.041c-1.91,0.348 -3.885,0.521 -5.903,0.521c-3.646,0 -7.443,-0.651 -11.371,-1.909c-3.885,-1.281 -7.183,-3.277 -9.896,-5.99c-2.669,-2.669 -3.993,-6.228 -3.993,-10.677c-0,-2.127 0.607,-3.494 1.823,-4.08c1.215,-0.629 4.188,-1.411 8.941,-2.344c-1.389,-0.694 -2.67,-1.497 -3.82,-2.43c-1.106,-0.912 -1.996,-2.127 -2.691,-3.646c-1.041,-2.821 -1.953,-5.599 -2.691,-8.333c-0.759,-2.778 -1.128,-5.643 -1.128,-8.594c-0,-3.754 0.456,-7.661 1.389,-11.719c0.976,-4.036 3.342,-6.944 7.118,-8.68l-0.868,-0.174c-3.364,-1.497 -5.99,-3.754 -7.9,-6.771c-1.866,-2.995 -2.777,-6.337 -2.777,-9.983c-0,-1.323 0.217,-2.56 0.694,-3.732c0.456,-1.15 1.432,-1.736 2.952,-1.736c0.694,-0 1.323,0.043 1.909,0.087c0.63,0.065 1.216,0.086 1.736,0.086c1.433,0 3.386,-0.195 5.816,-0.607c2.431,-0.391 4.883,-0.868 7.379,-1.389c2.474,-0.521 4.383,-1.042 5.729,-1.563c-0,-0.564 -0.043,-1.063 -0.087,-1.475c-0.065,-0.391 -0.239,-0.868 -0.521,-1.389c-3.363,-0 -6.922,-0.651 -10.677,-1.997c-3.776,-1.324 -6.923,-3.385 -9.462,-6.163c-2.56,-2.778 -3.819,-6.098 -3.819,-9.983c-0,-1.909 0.521,-3.146 1.562,-3.732c1.086,-0.63 2.908,-1.216 5.469,-1.736l1.823,-0.608c0.803,-0.282 1.476,-0.477 1.997,-0.608c-3.473,-1.497 -6.815,-3.428 -9.983,-5.816c-3.125,-2.43 -4.687,-5.816 -4.687,-10.156c-0,-3.581 0.889,-6.206 2.691,-7.899c1.779,-1.736 4.513,-3.581 8.159,-5.556c3.928,-2.192 7.422,-4.687 10.504,-7.465c3.06,-2.821 6.206,-5.664 9.462,-8.507Zm47.656,36.892c3.754,1.802 6.011,3.711 6.771,5.73c0.737,1.974 1.519,4.774 2.343,8.42l2.344,-0c0.803,-0 1.346,0.065 1.649,0.173c0.695,0.174 1.563,0.478 2.605,0.868c1.085,0.413 1.692,0.608 1.822,0.608c0.695,0 1.845,-0.195 3.473,-0.608l17.708,-5.034l2.257,-0.608l18.142,-5.035c1.736,-0.39 3.429,-0.803 5.122,-1.215c1.736,-0.391 3.472,-0.89 5.208,-1.476c0.217,-0.629 0.347,-1.302 0.347,-1.996l0,-1.997l-0.781,-0.607l-3.038,0.173l-16.753,4.254c-1.346,0.412 -3.56,1.106 -6.685,2.083c-3.081,0.933 -6.032,1.78 -8.854,2.517c-2.843,0.695 -4.731,1.042 -5.642,1.042c-1.346,0 -2.691,-0.174 -4.08,-0.521c-1.345,-0.347 -2.669,-0.564 -3.993,-0.694c-1.454,-0.282 -2.93,-0.781 -4.427,-1.476c-1.519,-0.738 -2.778,-1.584 -3.819,-2.517c-2.149,-1.78 -3.299,-3.95 -3.473,-6.511c-1.627,0.999 -2.929,1.823 -3.906,2.518c-0.998,0.651 -2.431,1.28 -4.34,1.909Zm-19.358,27.865l0.347,3.646l0.261,0.607c2.257,-0.694 4.861,-1.171 7.812,-1.475c2.995,-0.347 5.382,-0.521 7.118,-0.521c3.646,-0 6.901,0.868 9.809,2.604c2.887,1.736 5.404,3.971 7.552,6.684c2.257,-0.564 3.776,-0.89 4.601,-0.955c0.803,-0.043 1.476,-0.087 1.997,-0.087c2.994,0 6.033,0.413 9.114,1.216c3.125,0.824 5.86,1.779 8.247,2.864c1.606,0.651 3.125,1.519 4.514,2.604c1.432,1.042 2.908,2.127 4.427,3.212l0.347,-0.173l0.608,-7.9l-2.778,-1.996c-0.586,-0.803 -1.129,-1.476 -1.649,-1.997c-0.131,-0.282 -0.348,-0.542 -0.695,-0.781c-0.347,-0.282 -0.673,-0.434 -0.955,-0.434c-0.239,0 -0.564,0.043 -0.955,0.087c-0.412,0.065 -0.868,0.152 -1.389,0.26c-0.998,0.174 -2.3,0.326 -3.906,0.434c-1.562,0.13 -3.038,0.174 -4.427,0.174c-2.561,-0 -5.121,-0.282 -7.726,-0.868c-2.604,-0.63 -5.078,-1.671 -7.378,-3.125c-1.91,-1.215 -3.689,-2.648 -5.295,-4.34c-1.563,-1.671 -3.103,-3.408 -4.601,-5.209c-0.933,0.586 -1.823,1.085 -2.691,1.476c-0.868,0.412 -1.866,0.673 -2.951,0.781l-19.358,1.215l0,1.997Zm50.261,62.153l11.892,-14.063c1.432,-1.606 2.365,-2.821 2.778,-3.646c0.39,-0.803 0.607,-1.671 0.607,-2.604l0,-2.864l-2.17,0.781l-12.934,9.288c-0.824,0.586 -1.866,1.454 -3.125,2.604c-1.28,1.107 -1.91,2.214 -1.91,3.299c0,1.345 0.478,2.734 1.476,4.167c1.042,1.388 2.17,2.408 3.386,3.038Zm-70.834,-88.195l17.101,-3.819l9.288,-0.955l1.042,0.174l-12.327,-10.677l-0.607,-0.608l-14.497,15.885Zm111.806,29.254c2.539,2.213 4.253,3.971 5.121,5.295c0.868,1.345 2.04,3.364 3.559,6.076c0.391,-0.39 0.738,-0.803 1.042,-1.215c0.347,-0.391 0.651,-0.803 0.955,-1.215c3.233,-4.449 7.248,-7.748 12.066,-9.896c-1.215,-0.521 -2.431,-0.825 -3.646,-0.955c-1.172,-0.174 -2.431,-0.26 -3.819,-0.26c-2.67,-0 -5.274,0.173 -7.813,0.52c-2.561,0.304 -5.187,0.738 -7.899,1.303l0.434,0.347Zm9.288,33.941l0.347,2.257l0.261,0.955c1.844,-1.606 4.079,-3.668 6.684,-6.164c2.647,-2.474 4.861,-4.948 6.597,-7.378c0.694,-0.738 1.085,-1.498 1.215,-2.257c0.109,-0.738 0.174,-1.519 0.174,-2.344c-0,-0.694 -0.13,-1.497 -0.347,-2.43c-0.174,-0.912 -0.586,-1.389 -1.216,-1.389c-1.107,-0 -2.734,1.692 -4.861,5.034l-5.295,6.424c-1.345,1.801 -2.517,4.232 -3.559,7.292Zm-70.052,13.541c0.803,-1.085 1.562,-2.278 2.257,-3.559c0.738,-1.258 1.519,-2.56 2.344,-3.906c1.085,-1.91 3.125,-4.384 6.076,-7.465c-0.933,-0.282 -2.148,-0.608 -3.646,-0.955c-1.454,-0.347 -2.734,-0.629 -3.819,-0.868c-1.107,-0.391 -1.975,-0.456 -2.604,-0.174c0.108,0.521 0.173,1.042 0.173,1.563l0,1.649c0,0.825 -0.152,1.997 -0.434,3.559c-0.239,1.519 -0.694,2.821 -1.389,3.906c-0.933,1.737 -1.975,3.451 -3.125,5.122c-1.172,1.693 -2.344,3.277 -3.559,4.774c1.389,-0.39 2.735,-0.976 4.08,-1.736c1.324,-0.738 2.539,-1.389 3.646,-1.91Zm-64.757,0l4.427,-5.902l0,-3.386c0,-1.085 0.022,-2.105 0.087,-3.038c0.043,-0.911 0.087,-1.866 0.087,-2.865c-1.346,0.174 -2.605,0.261 -3.82,0.261c-1.215,-0 -2.495,0.065 -3.819,0.173l-0.434,0c0.694,2.561 1.302,5.035 1.823,7.466l1.649,7.291Zm34.896,3.82c0.911,-0.912 2.105,-2.366 3.559,-4.34c1.497,-1.954 2.864,-3.993 4.08,-6.077c1.215,-2.083 1.823,-3.646 1.823,-4.687c-0,-0.565 -0.348,-1.172 -1.042,-1.823c-0.933,0.521 -2.322,1.519 -4.167,2.951c-1.801,1.389 -3.103,2.604 -3.906,3.646c-0.13,0.304 -0.26,1.454 -0.434,3.472c-0.13,2.04 -0.304,4.058 -0.521,6.077l0.608,0.781Zm-37.587,21.007c1.606,-0.564 2.973,-1.129 4.08,-1.65c1.324,-0.629 2.105,-1.128 2.344,-1.475c0.282,-0.347 0.434,-0.868 0.434,-1.563l-0,-8.42c-1.628,1.346 -2.648,2.387 -3.039,3.125c-0.412,0.695 -0.933,1.997 -1.562,3.906c-0.695,2.149 -1.454,4.167 -2.257,6.077Zm38.194,-43.229l0.348,-0.348c0.976,-0.694 1.909,-1.432 2.777,-2.257c0.868,-0.802 1.693,-1.475 2.518,-1.996c0.803,-0.695 1.649,-1.302 2.517,-1.823c0.868,-0.521 1.693,-1.063 2.517,-1.649c-1.106,-0 -2.517,0.087 -4.253,0.26c-1.736,0.13 -3.364,0.434 -4.861,0.955c-1.042,0.412 -1.563,1.085 -1.563,1.997l0,4.861Z" style="fill-rule:nonzero;"/></g></g></g><g><g><clipPath id="_clip44"><path d="M1038.76,274.327l5.382,0.152l-1.888,73.611l-5.382,-0.152l1.888,-73.611Z"/></clipPath><g clip-path="url(#_clip44)"><g><clipPath id="_clip45"><path d="M1044.05,275.651c-1.823,55.447 -2.583,69.683 -4.21,71.571c-0.413,0.76 -1.758,-0.434 -1.758,-0.434l1.953,0.434c-0.195,0 -1.584,0.738 -1.953,-0.434c-1.107,-2.344 2.192,-16.515 2.843,-26.519c0.933,-13.086 -0.695,-41.254 1.15,-44.661c0.434,-1.151 1.975,0.043 1.975,0.043"/></clipPath><g clip-path="url(#_clip45)"><path d="M1032.49,259.939l19.987,0.521l-2.626,102.843l-20.009,-0.521l2.648,-102.843Z" style="fill:#fff;fill-rule:nonzero;"/></g></g></g></g></g><g><g><g><path d="M1341.87,258.473c-0.998,-1.215 -1.736,-2.474 -2.257,-3.819c-0.52,-1.389 -0.998,-2.8 -1.388,-4.254c-3.646,-0.803 -7.097,-1.823 -10.33,-3.038c-3.255,-1.215 -5.903,-3.038 -7.986,-5.469c-2.084,-2.43 -3.125,-5.729 -3.125,-9.896c-0,-3.342 0.976,-6.358 2.951,-9.028c1.953,-2.712 4.167,-5.143 6.597,-7.291c-1.801,-1.085 -3.602,-2.366 -5.382,-3.82c-1.801,-1.497 -2.691,-3.255 -2.691,-5.295c0,-2.257 1.259,-4.188 3.82,-5.816c-2.843,-3.125 -4.905,-5.772 -6.163,-7.986c-1.281,-2.192 -1.91,-4.861 -1.91,-7.986c-0,-3.863 0.694,-8.55 2.083,-14.062c1.432,-5.556 2.778,-10.808 3.993,-15.799c-1.215,-1.606 -2.235,-3.06 -3.038,-4.34c-0.825,-1.259 -1.215,-2.453 -1.215,-3.559c-0,-2.648 0.911,-4.71 2.778,-6.164c1.909,-1.497 4.188,-2.257 6.857,-2.257c4.449,0 8.377,1.281 11.806,3.82c3.472,2.561 6.076,5.794 7.812,9.722c3.472,-0.694 7.075,-1.649 10.851,-2.864c3.819,-1.216 7.205,-2.691 10.156,-4.428c-0.586,-0.802 -1.259,-1.519 -1.996,-2.17c-0.695,-0.694 -1.389,-1.323 -2.084,-1.909c-1.041,-1.042 -1.823,-2.279 -2.343,-3.733c-0.478,-1.497 -0.695,-2.995 -0.695,-4.514c0,-4.167 1.389,-7.509 4.167,-10.069c2.778,-2.539 6.098,-4.384 9.982,-5.556c3.863,-1.15 7.574,-1.736 11.112,-1.736c11.154,-0 20.572,3.776 28.211,11.285c4.341,-1.216 8.616,-2.301 12.848,-3.299c4.21,-1.042 8.55,-1.562 13.02,-1.562c5.382,-0 11.242,0.998 17.622,2.951c6.424,1.975 12.522,4.774 18.316,8.42c5.772,3.603 10.525,7.943 14.236,13.021c3.689,5.035 5.556,10.72 5.556,17.014c-0,3.364 -0.782,6.38 -2.344,9.028c-1.563,2.604 -3.472,5.034 -5.729,7.291c0.911,1.216 1.671,2.431 2.257,3.646c0.629,1.215 0.954,2.583 0.954,4.08c0,3.082 -0.911,5.382 -2.691,6.944c-1.736,1.563 -4.079,2.344 -7.031,2.344c-2.778,0 -5.62,-0.13 -8.507,-0.434c-2.908,-0.282 -5.859,-0.434 -8.854,-0.434c-8.051,0 -16.102,0.217 -24.132,0.608c-7.986,0.412 -15.95,1.172 -23.871,2.257c-9.679,1.519 -19.315,3.45 -28.907,5.816c-9.548,2.322 -18.902,5.1 -28.038,8.333c-2.778,0.933 -5.881,2.04 -9.288,3.299c-3.364,1.28 -6.293,2.734 -8.767,4.34c-2.496,1.628 -3.733,3.299 -3.733,5.035c-0,0.933 0.369,1.54 1.128,1.823c0.738,0.303 1.433,0.434 2.084,0.434c0.564,-0 2.344,-0.391 5.295,-1.216c2.951,-0.803 6.293,-1.736 10.069,-2.777c3.755,-1.086 7.335,-2.127 10.764,-3.125c3.472,-1.042 5.925,-1.758 7.379,-2.171c13.997,-4.166 28.342,-7.725 43.055,-10.677c14.757,-2.994 29.08,-4.514 42.969,-4.514c3.472,0 7.335,0.304 11.632,0.868c4.34,0.521 8.464,1.563 12.413,3.125c3.993,1.52 7.292,3.69 9.896,6.511c2.648,2.843 3.993,6.554 3.993,11.111c0,3.255 -0.738,5.816 -2.17,7.726c-1.389,1.866 -3.82,2.777 -7.292,2.777c-1.107,0 -3.038,-0.282 -5.816,-0.868c-2.734,-0.629 -5.165,-1.215 -7.291,-1.736c1.432,2.843 2.994,5.621 4.687,8.334c1.671,2.669 3.472,5.273 5.382,7.812c2.648,3.472 5.035,7.183 7.118,11.111c2.083,3.885 3.125,8.203 3.125,12.934c0,6.315 -1.736,11.372 -5.208,15.191c-3.472,3.82 -7.9,6.706 -13.281,8.681c-5.382,1.953 -11.068,3.233 -17.014,3.819c-5.903,0.63 -11.198,0.955 -15.886,0.955c-3.819,0 -7.639,-0.304 -11.458,-0.868c-3.82,-0.521 -7.509,-1.128 -11.024,-1.823c-2.561,-0.521 -4.927,-1.259 -7.118,-2.17c-2.214,-0.933 -4.406,-2.083 -6.598,-3.472c-2.257,-1.454 -4.405,-3.19 -6.423,-5.209c-2.04,-2.039 -3.863,-4.101 -5.469,-6.25c-3.255,-4.036 -4.861,-8.615 -4.861,-13.715c-0,-3.515 0.282,-6.944 0.868,-10.243c0.629,-3.299 1.345,-6.619 2.17,-9.983c-0.933,-1.041 -1.693,-2.018 -2.257,-2.951c-0.521,-0.976 -1.042,-2.018 -1.562,-3.125c-6.598,2.431 -13.412,4.254 -20.4,5.469c4.731,4.991 7.118,10.655 7.118,17.014c0,4.991 -0.607,9.548 -1.823,13.715c-1.215,4.167 -3.45,8.181 -6.684,12.066c-3.255,3.754 -7.118,6.51 -11.632,8.246c-4.513,1.78 -9.179,2.691 -13.975,2.691c-2.735,0 -5.795,-0.477 -9.202,-1.388c-3.428,-0.868 -6.749,-2.171 -9.982,-3.907c-3.255,-1.736 -5.946,-3.863 -8.073,-6.336c-2.149,-2.496 -3.212,-5.339 -3.212,-8.594c0,-1.845 0.564,-3.147 1.736,-3.906c1.215,-0.738 3.516,-1.324 6.945,-1.737c0.803,-0.108 2.257,-0.824 4.34,-2.17c2.083,-1.389 4.362,-2.973 6.857,-4.774c2.474,-1.78 4.775,-3.559 6.858,-5.295c2.083,-1.78 3.516,-3.147 4.34,-4.08Zm101.65,-92.448c1.085,-0.694 2.626,-1.562 4.6,-2.604c1.954,-1.085 3.69,-2.344 5.209,-3.733c1.562,-1.432 2.343,-2.821 2.343,-4.166c0,-1.91 -0.846,-3.212 -2.517,-3.907c-1.693,-0.738 -3.277,-1.128 -4.774,-1.128c-2.431,-0 -5.643,0.564 -9.636,1.649c-3.949,1.042 -8.116,2.344 -12.5,3.906c-4.34,1.563 -8.507,3.104 -12.5,4.601c-3.949,1.454 -7.183,2.648 -9.722,3.559c-4.47,1.628 -9.765,3.429 -15.885,5.382c-6.142,1.91 -12.196,3.603 -18.143,5.035c-5.967,1.389 -11.111,2.083 -15.451,2.083c-2.04,0 -4.253,-0.304 -6.684,-0.955c0.174,0.76 0.26,1.541 0.26,2.344l0,2.431c0,1.388 -0.086,2.756 -0.26,4.079c-0.13,1.346 -0.239,2.757 -0.347,4.254c4.687,-1.78 9.548,-3.255 14.583,-4.427c5.078,-1.215 10.113,-2.518 15.104,-3.906c10.981,-2.648 22.005,-5.23 33.073,-7.726c11.046,-2.474 22.136,-4.731 33.247,-6.771Zm-15.538,67.361c2.604,2.735 3.906,5.816 3.906,9.288c-0,1.802 -0.304,4.341 -0.868,7.639c-0.521,3.299 -0.999,6.294 -1.389,8.941c-0.13,0.413 -0.174,1.085 -0.174,1.997c0,1.389 0.63,2.474 1.91,3.212c1.259,0.694 2.561,1.041 3.906,1.041c1.498,0 3.407,-0.217 5.729,-0.694c2.366,-0.456 4.71,-0.998 7.032,-1.65c2.365,-0.694 4.166,-1.388 5.382,-2.083c1.909,-1.085 3.059,-2.474 3.472,-4.167c0.39,-1.671 0.607,-3.428 0.607,-5.295l0,-3.646c0,-3.233 -0.238,-6.38 -0.694,-9.461c-0.477,-3.125 -1.389,-6.164 -2.778,-9.115c-4.405,-0.108 -8.767,0.261 -13.107,1.129c-4.297,0.868 -8.594,1.822 -12.934,2.864Z" style="fill-rule:nonzero;"/></g></g></g><g><g><clipPath id="_clip46"><path d="M1282.14,274.327l5.382,0.152l-1.888,73.611l-5.404,-0.152l1.91,-73.611Z"/></clipPath><g clip-path="url(#_clip46)"><g><clipPath id="_clip47"><path d="M1287.41,275.651c-1.801,55.447 -2.561,69.683 -4.188,71.571c-0.412,0.76 -1.758,-0.434 -1.758,-0.434l1.953,0.434c-0.195,0 -1.584,0.738 -1.953,-0.434c-1.107,-2.344 2.192,-16.515 2.843,-26.519c0.933,-13.086 -0.695,-41.254 1.15,-44.661c0.412,-1.151 1.953,0.043 1.953,0.043"/></clipPath><g clip-path="url(#_clip47)"><path d="M1275.85,259.939l20.009,0.521l-2.648,102.843l-20.008,-0.521l2.647,-102.843Z" style="fill:#fff;fill-rule:nonzero;"/></g></g></g></g></g></svg>