<?xml version="1.0" encoding="UTF-8" standalone="no"?><!DOCTYPE svg PUBLIC "-//W3C//DTD SVG 1.1//EN" "http://www.w3.org/Graphics/SVG/1.1/DTD/svg11.dtd"><svg width="100%" height="100%" viewBox="0 0 5692 384" version="1.1" xmlns="http://www.w3.org/2000/svg" xmlns:xlink="http://www.w3.org/1999/xlink" xml:space="preserve" xmlns:serif="http://www.serif.com/" style="fill-rule:evenodd;clip-rule:evenodd;stroke-linejoin:round;stroke-miterlimit:2;"><g><clipPath id="_clip1"><rect x="303.494" y="58.55" width="249.891" height="295.595"/></clipPath><g clip-path="url(#_clip1)"><path d="M780.078,59.071c0,0 -728.125,-0.022 -728.233,-0.022c0.108,7.184 1.974,98.85 1.909,106.793c-0.152,21.897 -1.888,48.589 -2.994,70.464c-0.5,9.831 -8.312,93.23 -15.105,103.668c0.022,-0.022 125.868,15.885 249.067,7.509c2.908,-16.949 9.05,-34.289 11.502,-51.259c2.713,-19.466 6.272,-36.871 6.619,-56.489c0.564,-32.313 -1.129,-58.941 -1.15,-93.099c-0,-1.758 2.56,-1.909 2.756,-0.152c3.928,33.29 4.969,24.848 8.051,85.829c1.801,36.003 -2.843,77.149 -4.687,113.412c121.093,14.453 140.082,12.717 248.546,-3.19c-3.711,-36.155 -3.494,-69.336 -3.473,-105.512c0.109,-50.695 -2.278,-56.576 -0.564,-96.289c0.087,-1.802 1.215,-1.78 1.324,0.021c2.192,35.33 2.018,60.916 6.467,93.468c2.582,19.423 3.602,40.668 6.836,59.961c2.908,17.014 12.022,47.179 12.087,47.179c106.88,-0 112.566,4.492 219.445,4.492c-7.747,-17.144 -14.735,-125.347 -15.126,-134.787c-0.282,-6.315 -3.798,-131.684 -3.277,-151.997" style="fill:#c40000;fill-rule:nonzero;"/></g></g><g><clipPath id="_clip2"><rect x="303.494" y="33.984" width="249.891" height="11.35"/></clipPath><g clip-path="url(#_clip2)"><path d="M836.892,45.009l-841.948,-0l-0,-9.701l841.948,0l0,9.701" style="fill:#d4983d;fill-rule:nonzero;"/></g></g><g><clipPath id="_clip3"><rect x="303.494" y="22.635" width="249.891" height="15.126"/></clipPath><g clip-path="url(#_clip3)"><path d="M836.892,37.174l-841.948,0l-0,-13.151l841.948,0l0,13.151" style="fill:#d4983d;fill-rule:nonzero;"/></g></g><g><clipPath id="_clip4"><rect x="303.494" y="16.797" width="24.284" height="55.425"/></clipPath><g clip-path="url(#_clip4)"><path d="M323.155,68.034l-42.838,-0l-0,-51.064l42.838,0l0,51.064" style="fill:#c40000;fill-rule:nonzero;"/></g></g><g><path d="M551.541,68.034l-42.839,-0l0,-51.064l42.839,0l-0,51.064" style="fill:#c40000;fill-rule:nonzero;"/></g><g><path d="M548.893,63.932l-37.695,0l-0,-46.962l37.695,0l0,46.962" style="fill:#c40000;fill-rule:nonzero;"/></g><g><clipPath id="_clip5"><rect x="303.494" y="16.797" width="18.728" height="49.87"/></clipPath><g clip-path="url(#_clip5)"><path d="M320.486,63.932l-37.695,0l-0,-46.962l37.695,0l0,46.962" style="fill:#c40000;fill-rule:nonzero;"/></g></g><g><clipPath id="_clip6"><rect x="1037.89" y="58.55" width="245.443" height="295.595"/></clipPath><g clip-path="url(#_clip6)"><path d="M1264.65,59.071c0,0 -728.125,-0.022 -728.233,-0.022c0.108,7.184 1.975,98.85 1.91,106.793c-0.152,21.897 -1.888,48.589 -2.995,70.464c-0.499,9.831 -8.312,93.23 -15.104,103.668c0.021,-0.022 125.868,15.885 249.067,7.509c2.908,-16.949 9.071,-34.289 11.501,-51.259c2.713,-19.466 6.272,-36.871 6.619,-56.489c0.564,-32.313 -1.128,-58.941 -1.15,-93.099c0,-1.758 2.561,-1.909 2.756,-0.152c3.928,33.29 4.991,24.848 8.051,85.829c1.802,36.003 -2.843,77.149 -4.687,113.412c121.094,14.453 140.104,12.717 248.546,-3.19c-3.711,-36.155 -3.494,-69.336 -3.472,-105.512c0.13,-50.695 -2.279,-56.576 -0.565,-96.289c0.087,-1.802 1.216,-1.78 1.346,0.021c2.17,35.33 1.996,60.916 6.467,93.468c2.561,19.423 3.581,40.668 6.814,59.961c2.908,17.014 12.023,47.179 12.088,47.179c106.879,-0 112.565,4.492 219.444,4.492c-7.747,-17.144 -14.713,-125.347 -15.126,-134.787c-0.282,-6.315 -3.797,-131.684 -3.277,-151.997" style="fill:#c40000;fill-rule:nonzero;"/></g></g><g><clipPath id="_clip7"><rect x="1037.89" y="33.984" width="282.899" height="11.35"/></clipPath><g clip-path="url(#_clip7)"><path d="M1321.48,45.009l-841.948,-0l-0,-9.701l841.948,0l0,9.701" style="fill:#d4983d;fill-rule:nonzero;"/></g></g><g><clipPath id="_clip8"><rect x="1037.89" y="22.635" width="282.899" height="15.126"/></clipPath><g clip-path="url(#_clip8)"><path d="M1321.48,37.174l-841.948,0l-0,-13.151l841.948,0l0,13.151" style="fill:#d4983d;fill-rule:nonzero;"/></g></g><g><path d="M1264.52,68.034l-42.838,-0l-0,-51.064l42.838,0l0,51.064" style="fill:#c40000;fill-rule:nonzero;"/></g><g><path d="M1261.89,63.932l-37.717,0l0,-46.962l37.717,0l0,46.962" style="fill:#c40000;fill-rule:nonzero;"/></g><g><clipPath id="_clip9"><rect x="39.692" y="58.55" width="268.49" height="295.595"/></clipPath><g clip-path="url(#_clip9)"><path d="M785.135,59.071c-0,0 -728.147,-0.022 -728.256,-0.022c0.109,7.184 1.997,98.85 1.932,106.793c-0.152,21.897 -1.91,48.589 -3.017,70.464c-0.499,9.831 -8.29,93.23 -15.082,103.668c-0,-0.022 125.846,15.885 249.067,7.509c2.886,-16.949 9.049,-34.289 11.501,-51.259c2.691,-19.466 6.25,-36.871 6.598,-56.489c0.586,-32.313 -1.107,-58.941 -1.129,-93.099c0,-1.758 2.539,-1.909 2.756,-0.152c3.928,33.29 4.97,24.848 8.051,85.829c1.802,36.003 -2.842,77.149 -4.709,113.412c121.116,14.453 140.104,12.717 248.546,-3.19c-3.689,-36.155 -3.494,-69.336 -3.45,-105.512c0.108,-50.695 -2.279,-56.576 -0.565,-96.289c0.066,-1.802 1.216,-1.78 1.324,0.021c2.17,35.33 2.018,60.916 6.467,93.468c2.561,19.423 3.581,40.668 6.836,59.961c2.886,17.014 12.001,47.179 12.088,47.179c106.879,-0 112.543,4.492 219.423,4.492c-7.726,-17.144 -14.714,-125.347 -15.126,-134.787c-0.261,-6.315 -3.798,-131.684 -3.255,-151.997" style="fill:#c40000;fill-rule:nonzero;"/></g></g><g><clipPath id="_clip10"><rect x="0" y="33.984" width="308.181" height="11.35"/></clipPath><g clip-path="url(#_clip10)"><path d="M841.949,45.009l-841.949,-0l0,-9.701l841.949,0l-0,9.701" style="fill:#d4983d;fill-rule:nonzero;"/></g></g><g><clipPath id="_clip11"><rect x="0" y="22.635" width="308.181" height="15.126"/></clipPath><g clip-path="url(#_clip11)"><path d="M841.949,37.174l-841.949,0l0,-13.151l841.949,0l-0,13.151" style="fill:#d4983d;fill-rule:nonzero;"/></g></g><g><path d="M99.805,68.034l-42.839,-0l0,-51.064l42.839,0l-0,51.064" style="fill:#c40000;fill-rule:nonzero;"/></g><g><clipPath id="_clip12"><rect x="283.333" y="16.797" width="24.848" height="55.425"/></clipPath><g clip-path="url(#_clip12)"><path d="M328.19,68.034l-42.838,-0l-0,-51.064l42.838,0l0,51.064" style="fill:#c40000;fill-rule:nonzero;"/></g></g><g><path d="M97.135,63.932l-37.695,0l0,-46.962l37.695,0l0,46.962" style="fill:#c40000;fill-rule:nonzero;"/></g><g><clipPath id="_clip13"><rect x="283.333" y="16.797" width="24.848" height="49.87"/></clipPath><g clip-path="url(#_clip13)"><path d="M325.543,63.932l-37.696,0l0,-46.962l37.696,0l-0,46.962" style="fill:#c40000;fill-rule:nonzero;"/></g></g><g><clipPath id="_clip14"><rect x="547.266" y="58.55" width="249.87" height="295.595"/></clipPath><g clip-path="url(#_clip14)"><path d="M1023.85,59.071c-0,0 -728.125,-0.022 -728.234,-0.022c0.109,7.184 1.975,98.85 1.91,106.793c-0.152,21.897 -1.888,48.589 -3.016,70.464c-0.478,9.831 -8.29,93.23 -15.083,103.668c0.022,-0.022 125.846,15.885 249.067,7.509c2.908,-16.949 9.049,-34.289 11.502,-51.259c2.691,-19.466 6.271,-36.871 6.619,-56.489c0.564,-32.313 -1.129,-58.941 -1.151,-93.099c0,-1.758 2.539,-1.909 2.756,-0.152c3.928,33.29 4.97,24.848 8.052,85.829c1.801,36.003 -2.843,77.149 -4.709,113.412c121.115,14.453 140.104,12.717 248.567,-3.19c-3.711,-36.155 -3.494,-69.336 -3.472,-105.512c0.108,-50.695 -2.279,-56.576 -0.564,-96.289c0.065,-1.802 1.215,-1.78 1.324,0.021c2.191,35.33 2.018,60.916 6.467,93.468c2.56,19.423 3.602,40.668 6.835,59.961c2.908,17.014 12.023,47.179 12.088,47.179c106.88,-0 112.565,4.492 219.445,4.492c-7.748,-17.144 -14.736,-125.347 -15.126,-134.787c-0.282,-6.315 -3.798,-131.684 -3.277,-151.997" style="fill:#c40000;fill-rule:nonzero;"/></g></g><g><clipPath id="_clip15"><rect x="547.266" y="33.984" width="249.87" height="11.35"/></clipPath><g clip-path="url(#_clip15)"><path d="M1080.66,45.009l-841.949,-0l0,-9.701l841.949,0l0,9.701" style="fill:#d4983d;fill-rule:nonzero;"/></g></g><g><clipPath id="_clip16"><rect x="547.266" y="22.635" width="249.87" height="15.126"/></clipPath><g clip-path="url(#_clip16)"><path d="M1080.66,37.174l-841.949,0l0,-13.151l841.949,0l0,13.151" style="fill:#d4983d;fill-rule:nonzero;"/></g></g><g><clipPath id="_clip17"><rect x="547.266" y="16.797" width="24.957" height="55.425"/></clipPath><g clip-path="url(#_clip17)"><path d="M566.905,68.034l-42.816,-0l-0,-51.064l42.816,0l0,51.064" style="fill:#c40000;fill-rule:nonzero;"/></g></g><g><path d="M795.313,68.034l-42.839,-0l-0,-51.064l42.839,0l-0,51.064" style="fill:#c40000;fill-rule:nonzero;"/></g><g><path d="M792.665,63.932l-37.695,0l-0,-46.962l37.695,0l-0,46.962" style="fill:#c40000;fill-rule:nonzero;"/></g><g><clipPath id="_clip18"><rect x="547.266" y="16.797" width="19.401" height="49.87"/></clipPath><g clip-path="url(#_clip18)"><path d="M564.258,63.932l-37.696,0l0,-46.962l37.696,0l-0,46.962" style="fill:#c40000;fill-rule:nonzero;"/></g></g><g><clipPath id="_clip19"><rect x="791.037" y="58.55" width="249.87" height="295.595"/></clipPath><g clip-path="url(#_clip19)"><path d="M1267.62,59.071c-0,0 -728.147,-0.022 -728.234,-0.022c0.087,7.184 1.975,98.85 1.91,106.793c-0.152,21.897 -1.888,48.589 -3.017,70.464c-0.499,9.831 -8.29,93.23 -15.082,103.668c-0,-0.022 125.846,15.885 249.067,7.509c2.908,-16.949 9.049,-34.289 11.501,-51.259c2.691,-19.466 6.272,-36.871 6.619,-56.489c0.565,-32.313 -1.128,-58.941 -1.15,-93.099c0,-1.758 2.539,-1.909 2.756,-0.152c3.928,33.29 4.97,24.848 8.051,85.829c1.802,36.003 -2.842,77.149 -4.709,113.412c121.116,14.453 140.104,12.717 248.568,-3.19c-3.711,-36.155 -3.516,-69.336 -3.472,-105.512c0.108,-50.695 -2.279,-56.576 -0.565,-96.289c0.066,-1.802 1.216,-1.78 1.324,0.021c2.192,35.33 2.018,60.916 6.467,93.468c2.561,19.423 3.603,40.668 6.836,59.961c2.908,17.014 12.023,47.179 12.088,47.179c106.879,-0 112.565,4.492 219.444,4.492c-7.747,-17.144 -14.735,-125.347 -15.147,-134.787c-0.261,-6.315 -3.776,-131.684 -3.255,-151.997" style="fill:#c40000;fill-rule:nonzero;"/></g></g><g><clipPath id="_clip20"><rect x="791.037" y="33.984" width="249.87" height="11.35"/></clipPath><g clip-path="url(#_clip20)"><path d="M1324.44,45.009l-841.949,-0l-0,-9.701l841.949,0l-0,9.701" style="fill:#d4983d;fill-rule:nonzero;"/></g></g><g><clipPath id="_clip21"><rect x="791.037" y="22.635" width="249.87" height="15.126"/></clipPath><g clip-path="url(#_clip21)"><path d="M1324.44,37.174l-841.949,0l-0,-13.151l841.949,0l-0,13.151" style="fill:#d4983d;fill-rule:nonzero;"/></g></g><g><clipPath id="_clip22"><rect x="791.037" y="16.797" width="20.074" height="55.425"/></clipPath><g clip-path="url(#_clip22)"><path d="M810.677,68.034l-42.838,-0l-0,-51.064l42.838,0l0,51.064" style="fill:#c40000;fill-rule:nonzero;"/></g></g><g><path d="M1039.08,68.034l-42.838,-0l-0,-51.064l42.838,0l0,51.064" style="fill:#c40000;fill-rule:nonzero;"/></g><g><path d="M1036.44,63.932l-37.696,0l0,-46.962l37.696,0l-0,46.962" style="fill:#c40000;fill-rule:nonzero;"/></g><g><clipPath id="_clip23"><rect x="791.037" y="16.797" width="20.074" height="49.87"/></clipPath><g clip-path="url(#_clip23)"><path d="M808.03,63.932l-37.696,0l0,-46.962l37.696,0l-0,46.962" style="fill:#c40000;fill-rule:nonzero;"/></g></g><g><clipPath id="_clip24"><rect x="95.768" y="16.797" width="20.812" height="66.645"/></clipPath><g clip-path="url(#_clip24)"><rect x="97.244" y="-133.941" width="217.773" height="217.795" style="fill:#c40000;fill-rule:nonzero;"/><path d="M315.017,85.308l-217.773,0c-0.825,0 -1.476,-0.629 -1.476,-1.454l0,-217.795c0,-0.825 0.651,-1.476 1.476,-1.476l217.773,0c0.825,0 1.476,0.651 1.476,1.476l0,217.795c0,0.825 -0.651,1.454 -1.476,1.454Zm-216.319,-2.93l214.844,0l-0,-214.843l-214.844,-0l-0,214.843Z" style="fill:#c40000;fill-rule:nonzero;"/></g></g><g><clipPath id="_clip25"><rect x="318.012" y="16.797" width="20.812" height="66.645"/></clipPath><g clip-path="url(#_clip25)"><rect x="319.466" y="-133.941" width="217.795" height="217.795" style="fill:#c40000;fill-rule:nonzero;"/><path d="M537.261,85.308l-217.795,0c-0.825,0 -1.454,-0.629 -1.454,-1.454l0,-217.795c0,-0.825 0.629,-1.476 1.454,-1.476l217.795,0c0.825,0 1.476,0.651 1.476,1.476l-0,217.795c-0,0.825 -0.651,1.454 -1.476,1.454Zm-216.319,-2.93l214.844,0l-0,-214.843l-214.844,-0l-0,214.843Z" style="fill:#c40000;fill-rule:nonzero;"/></g></g><g><clipPath id="_clip26"><rect x="1034.25" y="16.797" width="20.833" height="66.645"/></clipPath><g clip-path="url(#_clip26)"><rect x="1035.72" y="-133.941" width="217.795" height="217.795" style="fill:#c40000;fill-rule:nonzero;"/><path d="M1253.52,85.308l-217.796,0c-0.824,0 -1.475,-0.629 -1.475,-1.454l-0,-217.795c-0,-0.825 0.651,-1.476 1.475,-1.476l217.796,0c0.824,0 1.454,0.651 1.454,1.476l-0,217.795c-0,0.825 -0.63,1.454 -1.454,1.454Zm-216.32,-2.93l214.844,0l-0,-214.843l-214.844,-0l0,214.843Z" style="fill:#c40000;fill-rule:nonzero;"/></g></g><g><clipPath id="_clip27"><rect x="1203.21" y="16.797" width="20.833" height="66.645"/></clipPath><g clip-path="url(#_clip27)"><rect x="1204.69" y="-133.941" width="217.795" height="217.795" style="fill:#c40000;fill-rule:nonzero;"/><path d="M1422.48,85.308l-217.795,0c-0.825,0 -1.476,-0.629 -1.476,-1.454l-0,-217.795c-0,-0.825 0.651,-1.476 1.476,-1.476l217.795,0c0.824,0 1.454,0.651 1.454,1.476l-0,217.795c-0,0.825 -0.63,1.454 -1.454,1.454Zm-216.32,-2.93l214.844,0l-0,-214.843l-214.844,-0l0,214.843Z" style="fill:#c40000;fill-rule:nonzero;"/></g></g><g><path d="M272.331,158.442c-0,-0.022 -0.022,-0.044 -0.044,-0.065c-1.193,-2.322 -2.908,-4.167 -5.165,-5.534c-2.235,-1.367 -4.665,-2.04 -7.291,-2.04l-59.744,-0l-0,-4.688l65.191,0l-5.035,-6.184c-4.861,-5.99 -10.308,-11.35 -16.384,-16.125c-6.055,-4.752 -12.566,-8.789 -19.532,-12.109c-6.966,-3.299 -14.192,-5.794 -21.723,-7.487c-7.53,-1.693 -15.126,-2.539 -22.851,-2.517c-57.249,-0 -103.82,46.571 -103.82,103.819c0,9.288 1.215,18.403 3.646,27.366c0.26,0.998 0.868,1.757 1.78,2.278c0.911,0.521 1.866,0.651 2.886,0.369c0.998,-0.26 1.779,-0.868 2.278,-1.758c0.521,-0.911 0.651,-1.888 0.369,-2.886c-2.257,-8.312 -3.385,-16.753 -3.385,-25.369c-0,-53.06 43.186,-96.224 96.246,-96.224c11.979,-0.043 23.546,2.105 34.722,6.424c11.154,4.318 21.18,10.503 30.013,18.576c1.519,1.367 -110.048,8.572 -110.048,8.572l0,3.255l24.631,0l0,4.688l-24.631,-0l0,3.255c0,0 10.07,-0.13 24.631,0.065l0,19.857c0,30.425 -24.761,55.187 -55.186,55.187c-0.76,-0.022 -1.411,0.217 -1.954,0.759c-0.564,0.521 -0.824,1.172 -0.824,1.932c-0,0.781 0.26,1.41 0.824,1.953c0.543,0.542 1.194,0.781 1.954,0.759c8.116,0.022 15.928,-1.562 23.415,-4.687c-0.911,0.824 -1.15,1.823 -0.694,2.973c0.434,1.15 1.28,1.714 2.517,1.714c22.765,0 41.298,-27.17 41.298,-60.59l0,-19.661l0.499,-0l0,19.661c0,31.576 -8.746,55.187 -16.58,55.187c-0.738,0.021 -1.345,0.282 -1.866,0.803c-0.521,0.542 -0.76,1.171 -0.76,1.888c0,0.737 0.239,1.367 0.76,1.909c0.521,0.521 1.128,0.782 1.866,0.803c14.301,0 22.005,-31.206 22.005,-60.59l0,-19.531l0.521,0.021l0,77.409c0,0.738 0.261,1.368 0.782,1.91c0.542,0.521 1.171,0.781 1.931,0.781c0.738,0 1.367,-0.26 1.91,-0.781c0.521,-0.542 0.781,-1.172 0.781,-1.91l-0,-77.257l0.521,0.022l-0,19.336c-0,29.384 7.704,60.59 22.005,60.59c0.738,-0.021 1.345,-0.282 1.866,-0.803c0.521,-0.542 0.76,-1.172 0.76,-1.909c-0,-0.717 -0.239,-1.346 -0.76,-1.888c-0.521,-0.521 -1.128,-0.782 -1.866,-0.803c-7.834,-0 -16.58,-23.611 -16.58,-55.187l0,-19.162l0.499,0.021l0,19.141c0,33.42 18.533,60.59 41.298,60.59c1.237,0.022 2.083,-0.542 2.539,-1.714c0.456,-1.15 0.217,-2.149 -0.694,-2.973c7.487,3.125 15.277,4.687 23.394,4.687c0.759,0.022 1.41,-0.238 1.953,-0.759c0.564,-0.543 0.825,-1.194 0.825,-1.953c-0,-0.76 -0.261,-1.411 -0.825,-1.932c-0.543,-0.542 -1.194,-0.803 -1.953,-0.781c-30.426,-0 -55.187,-24.74 -55.187,-55.165l0,-18.62c26.085,1.346 52.083,3.993 61.415,9.223c12.782,7.14 14.54,26.151 14.54,40.929c-0,4.926 -0.369,9.809 -1.107,14.649c-0.738,4.861 -1.844,9.635 -3.32,14.323c-1.476,4.687 -3.277,9.223 -5.447,13.628c-2.17,4.405 -4.666,8.615 -7.487,12.652c-2.821,4.015 -5.925,7.791 -9.31,11.35c-3.407,3.537 -7.053,6.814 -10.938,9.809c-3.906,2.973 -8.007,5.642 -12.304,8.008c-4.319,2.365 -8.768,4.383 -13.39,6.054l-0.043,0c-1.65,0.608 -2.995,1.628 -4.015,3.082c-1.02,1.454 -1.541,3.06 -1.541,4.839l0,2.018c0,0.89 -0.304,1.671 -0.955,2.301c-0.629,0.629 -1.389,0.955 -2.3,0.955l-48.199,-0c-0.911,-0 -1.671,-0.326 -2.3,-0.955c-0.651,-0.63 -0.955,-1.411 -0.955,-2.301l-0,-2.018c-0,-1.758 -0.521,-3.385 -1.541,-4.839c-1.02,-1.454 -2.365,-2.474 -4.015,-3.082l-0.065,-0.021c-11.285,-4.08 -21.441,-10.07 -30.469,-17.969c-9.027,-7.921 -16.297,-17.188 -21.853,-27.821c-1.128,-2.171 0.478,-4.731 2.908,-4.731l162.565,-0c0.564,-0 1.107,-0.13 1.628,-0.391c0.521,-0.239 0.955,-0.586 1.324,-1.02c0.347,-0.456 0.607,-0.955 0.737,-1.519c0.131,-0.543 0.131,-1.107 0.022,-1.671c-0.369,-1.779 -2.018,-2.995 -3.819,-2.995l-163.737,0c-7.487,0 -12.348,7.878 -8.985,14.562l0.044,0.087c5.816,11.523 13.498,21.593 23.09,30.23c9.592,8.615 20.399,15.234 32.465,19.813c1.389,0.521 2.105,1.541 2.105,3.038l0,1.433c0,1.28 0.261,2.539 0.738,3.732c0.499,1.194 1.215,2.235 2.127,3.169c0.911,0.911 1.953,1.605 3.168,2.105c1.194,0.499 2.431,0.737 3.733,0.737l50.369,0c1.302,0 2.539,-0.238 3.733,-0.737c1.193,-0.5 2.257,-1.194 3.168,-2.105c0.911,-0.912 1.606,-1.975 2.105,-3.169c0.499,-1.193 0.738,-2.43 0.738,-3.732l-0,-1.433c0.022,-1.497 0.716,-2.517 2.127,-3.038c3.385,-1.302 6.705,-2.778 9.939,-4.427c3.233,-1.628 6.38,-3.451 9.418,-5.425c3.06,-1.975 5.99,-4.102 8.811,-6.381c2.821,-2.278 5.534,-4.709 8.095,-7.27c2.56,-2.56 4.991,-5.251 7.291,-8.072c2.279,-2.822 4.406,-5.751 6.402,-8.79c1.975,-3.038 3.798,-6.184 5.447,-9.396c1.65,-3.234 3.125,-6.554 4.427,-9.939c1.302,-3.386 2.431,-6.836 3.364,-10.33c0.955,-3.516 1.714,-7.053 2.279,-10.634c0.586,-3.602 0.955,-7.205 1.15,-10.829c0.195,-3.624 0.195,-7.248 0.022,-10.872c-0.196,-3.625 -0.565,-7.227 -1.129,-10.808c-0.564,-3.602 -1.324,-7.139 -2.257,-10.655c-0.933,-3.494 -2.04,-6.945 -3.342,-10.33c-1.302,-3.407 -2.778,-6.706 -4.405,-9.939Zm-77.67,-7.639l-0.52,-0l-0,-4.688l0.52,0l0,4.688Zm-30.164,-4.688l0.499,0l-0,4.688l-0.499,-0l-0,-4.688Zm0.499,27.865c-0,30.425 -16.081,55.187 -35.873,55.187l-0.217,-0c20.964,-9.527 35.591,-30.686 35.591,-55.187l-0,-19.792l0.499,0l-0,19.792Zm5.425,-23.177l0,-4.688l0.521,0l-0,4.688l-0.521,-0Zm5.924,-0l0,-4.688l0.521,0l0,4.688l-0.521,-0Zm5.947,-0l-0,-4.688l0.499,0l-0,4.688l-0.499,-0Zm5.924,-0l0,-4.688l0.521,0l-0,4.688l-0.521,-0Zm42.036,78.364l-0.217,-0c-19.792,-0 -35.894,-24.762 -35.894,-55.187l-0,-18.902l0.52,0.022l0,18.88c0,24.501 14.605,45.66 35.591,55.187Z" style="fill-rule:nonzero;"/></g><g><rect x="1264.8" y="23.676" width="4424.09" height="22.439" style="fill:#d4983d;fill-rule:nonzero;"/></g><g><g><g><path d="M499.459,205.362c-0.412,3.472 -1.801,5.881 -4.166,7.205c-2.388,1.28 -5.187,1.91 -8.421,1.91c-3.602,-0 -7.161,-0.195 -10.677,-0.608c-3.776,-0.39 -7.465,-0.607 -11.111,-0.607c-10.373,-0 -20.725,0.52 -31.076,1.562c-10.373,0.998 -20.573,2.561 -30.642,4.688c-5.274,0.933 -10.504,1.888 -15.712,2.864c-5.165,0.933 -10.417,1.389 -15.799,1.389c-4.167,0 -8.116,-0.608 -11.805,-1.823c-3.711,-1.215 -6.901,-3.429 -9.549,-6.684c-2.148,-2.539 -3.212,-5.23 -3.212,-8.073c0,-1.497 0.478,-2.561 1.476,-3.212c0.976,-0.694 2.279,-1.237 3.906,-1.649l0.261,-0.608c-1.802,-0.911 -3.646,-1.844 -5.556,-2.777c-1.866,-0.977 -3.516,-2.127 -4.948,-3.473c-2.148,-1.909 -4.123,-4.622 -5.903,-8.159c-1.736,-3.581 -2.604,-6.858 -2.604,-9.809c0,-2.648 1.215,-4.254 3.646,-4.775c2.43,-0.564 4.557,-1.128 6.424,-1.649c0.976,-0.282 2.951,-1.259 5.902,-2.951c2.952,-1.671 6.359,-3.776 10.243,-6.337c3.928,-2.539 7.856,-5.143 11.806,-7.813c3.993,-2.712 7.509,-5.143 10.59,-7.291c3.125,-2.192 5.209,-3.755 6.25,-4.688c1.085,-0.694 2.127,-1.432 3.125,-2.257c1.042,-0.803 2.105,-1.519 3.212,-2.17c0.738,-0.564 1.91,-1.389 3.472,-2.43c1.563,-1.086 2.344,-1.91 2.344,-2.431c-0,-0.391 -0.217,-0.998 -0.608,-1.823c-0.412,-0.803 -0.607,-1.606 -0.607,-2.43c-0,-3.646 0.998,-6.619 3.038,-8.941c2.018,-2.366 4.557,-4.167 7.639,-5.382c3.125,-1.216 6.293,-1.867 9.548,-1.997c1.042,-0.174 1.91,-0.26 2.605,-0.26l1.996,-0c0.912,-0 2.018,0.13 3.299,0.347c1.258,0.173 2.864,0.412 4.774,0.694l3.212,0.434c1.085,0.131 2.105,0.326 3.038,0.608c1.215,0.412 2.344,0.781 3.385,1.128c1.086,0.304 2.257,0.782 3.473,1.476c0.911,0.521 1.866,1.194 2.864,1.997c1.042,0.824 1.91,1.562 2.604,2.257c1.606,1.866 2.691,3.515 3.212,4.948c0.521,1.388 1.064,3.298 1.65,5.729c0.108,0.412 0.564,0.824 1.388,1.215l18.143,9.115c4.861,2.387 9.744,5.078 14.67,8.072c4.904,2.952 9.657,6.055 14.236,9.289c2.127,1.345 4.471,3.016 7.031,5.034c2.539,2.04 4.297,3.776 5.295,5.209c1.737,2.56 3.256,5.425 4.601,8.593c1.324,3.191 1.997,6.316 1.997,9.375c-0,4.579 -1.454,8.811 -4.341,12.674c-2.908,3.82 -6.749,5.729 -11.545,5.729c-1.389,0 -2.756,-0.021 -4.08,-0.087c-1.345,-0.108 -2.669,-0.217 -3.993,-0.347Zm-14.757,46.181l-0.173,0.434c2.257,1.736 4.383,3.212 6.423,4.427c2.019,1.215 4.102,2.995 6.25,5.295c2.952,3.082 5.513,6.597 7.726,10.59c2.257,3.95 3.385,8.138 3.385,12.587c0,5.903 -1.475,10.699 -4.427,14.41c-2.951,3.689 -7.617,5.555 -13.975,5.555c-1.867,0 -3.907,-0.26 -6.163,-0.781c-2.214,-0.521 -4.124,-1.476 -5.73,-2.864c-1.345,-1.042 -2.691,-2.214 -4.08,-3.473c-1.345,-1.28 -2.322,-2.821 -2.951,-4.6c-1.107,-2.952 -2.062,-4.427 -2.864,-4.427c-0.521,-0 -0.999,0.043 -1.389,0.173l-24.393,4.514l-25.26,5.99c-4.167,0.694 -8.203,1.258 -12.066,1.736c-3.82,0.455 -8.073,0.694 -12.761,0.694c-7.421,0 -13.715,-0.607 -18.923,-1.823c-5.165,-1.215 -10.894,-3.776 -17.188,-7.639c-3.255,-2.04 -6.206,-4.731 -8.854,-8.073c-2.604,-3.342 -3.906,-7.052 -3.906,-11.111c-0,-3.06 0.868,-5.664 2.604,-7.812c1.78,-2.192 3.494,-4.427 5.122,-6.684c-0.999,-0.695 -1.975,-1.302 -2.952,-1.823c-0.998,-0.521 -2.04,-1.063 -3.125,-1.649c-2.322,-1.216 -4.297,-3.407 -5.903,-6.598c-1.562,-3.233 -2.343,-6.076 -2.343,-8.507c-0,-1.323 0.434,-2.604 1.302,-3.819c0.868,-1.215 1.953,-1.823 3.298,-1.823c1.498,0 2.973,0.065 4.427,0.174c1.498,0.13 2.974,0.173 4.428,0.173c0.976,0 3.342,-0.282 7.118,-0.868c3.754,-0.629 8.246,-1.41 13.454,-2.343c5.252,-0.912 10.591,-1.867 15.973,-2.865c5.382,-1.042 10.156,-1.953 14.323,-2.778c4.166,-0.803 7.053,-1.324 8.68,-1.562c4.037,-0.695 8.095,-1.237 12.153,-1.65c4.036,-0.39 8.073,-0.738 12.066,-1.041c3.342,-0.217 6.641,-0.478 9.896,-0.782c3.233,-0.282 6.467,-0.477 9.722,-0.607l15.538,-1.042c0.217,0 0.478,0.065 0.781,0.174c0.283,0.065 0.543,0.087 0.782,0.087l0.868,-0c1.844,-0 3.689,-0.044 5.555,-0.174c1.91,-0.174 3.755,-0.26 5.556,-0.26c5.078,-0 10.286,0.737 15.625,2.17c5.317,1.389 9.657,4.123 13.021,8.159c1.606,1.736 2.951,3.733 3.993,5.99c1.085,2.213 1.649,4.492 1.649,6.858c0,3.428 -1.454,6.228 -4.34,8.42c-2.908,2.213 -5.903,3.298 -9.028,3.298c-1.736,0 -3.537,-0.108 -5.382,-0.347c-1.801,-0.282 -3.624,-0.629 -5.469,-1.042c-0.933,-0.282 -1.953,-0.477 -3.038,-0.607c-1.107,-0.109 -2.127,-0.261 -3.038,-0.434l-1.997,-0Zm-101.562,-57.292c0.976,-0.108 2.387,-0.456 4.253,-1.042c1.91,-0.629 3.386,-1.085 4.427,-1.388c2.431,-0.912 4.536,-1.563 6.337,-1.91c1.845,-0.347 4.254,-0.977 7.205,-1.91c3.125,-1.215 6.771,-2.17 10.938,-2.864c4.166,-0.738 8.376,-1.346 12.673,-1.823c4.34,-0.521 8.095,-0.89 11.285,-1.129c4.34,-0.564 8.637,-0.911 12.934,-1.042l12.934,-0.434l-0.608,-0.607l-14.149,-8.681c-1.345,-0.911 -2.756,-1.823 -4.253,-2.691c-1.454,-0.868 -2.93,-1.606 -4.428,-2.257c-1.454,-0.694 -3.385,-1.649 -5.815,-2.864c-2.431,-1.216 -4.406,-1.823 -5.903,-1.823c-1.346,-0 -2.648,0.325 -3.907,0.955c-1.28,0.586 -2.473,1.28 -3.559,2.083l-13.107,9.896l-1.389,1.215l-21.354,14.063c-0.586,0.303 -1.606,0.846 -3.038,1.649c-1.389,0.825 -1.954,1.541 -1.65,2.17l0.174,0.434Zm-8.854,80.295c1.215,0.695 2.691,1.042 4.427,1.042c2.951,-0 6.792,-0.651 11.545,-1.997c4.796,-1.323 9.635,-2.821 14.496,-4.513c4.862,-1.737 8.768,-3.06 11.719,-3.994c5.382,-1.736 10.938,-3.211 16.667,-4.427c5.729,-1.215 11.328,-2.17 16.84,-2.864c0.521,-0.109 0.977,-0.434 1.389,-0.955c-1.042,-2.018 -2.04,-3.429 -2.951,-4.254c-0.868,-0.802 -2.127,-1.215 -3.733,-1.215l-1.562,0l-16.754,1.649l-15.972,1.997c-4.167,0.521 -8.485,1.801 -12.934,3.819c-4.406,2.04 -8.377,4.059 -11.893,6.077c-2.148,1.345 -4.21,2.756 -6.163,4.253c-1.909,1.454 -3.624,3.256 -5.121,5.382Z" style="fill-rule:nonzero;"/></g></g></g><g><g><g><path d="M750.694,273.157c1.432,0.934 2.886,1.867 4.34,2.778c1.497,0.868 2.799,1.975 3.906,3.299c1.085,1.215 2.084,2.647 2.952,4.253c0.868,1.606 1.302,3.234 1.302,4.861c-0,2.778 -0.738,5.491 -2.17,8.16c-1.389,2.713 -3.256,5.035 -5.556,6.945c-1.866,1.736 -4.145,2.864 -6.858,3.385c-2.669,0.564 -5.273,0.868 -7.812,0.868c-3.125,-0 -7.357,-0.825 -12.674,-2.431c-5.273,-1.627 -10.069,-3.862 -14.41,-6.684l-14.322,-7.465c-1.737,-0.694 -3.733,-1.606 -5.99,-2.691c-2.214,-1.042 -4.232,-1.562 -6.076,-1.562c-2.605,-0 -5.556,0.911 -8.855,2.777c-3.298,1.91 -7.443,4.471 -12.413,7.726c-2.257,1.498 -5.62,2.8 -10.069,3.906c-4.471,1.151 -8.29,1.823 -11.459,1.997l-17.795,0.781l-4.427,-0.607c-3.125,-0.413 -6.684,-0.912 -10.677,-1.476c-3.949,-0.521 -7.617,-1.129 -11.024,-1.823c-3.429,-0.651 -5.946,-1.432 -7.552,-2.344c-3.125,-1.91 -5.86,-3.95 -8.16,-6.076c-2.257,-2.149 -3.385,-4.905 -3.385,-8.247c-0,-3.515 1.302,-6.423 3.906,-8.68c2.647,-2.301 5.859,-4.384 9.635,-6.25c-0.933,-1.91 -1.823,-3.755 -2.691,-5.556c-0.868,-1.844 -1.606,-3.776 -2.17,-5.816c-0.651,-2.647 -1.085,-5.338 -1.302,-8.073c-0.174,-2.778 -0.26,-5.512 -0.26,-8.246c-0,-3.234 0.282,-7.422 0.868,-12.587c0.629,-5.208 1.215,-10.156 1.736,-14.844c0.108,-1.085 0.26,-2.278 0.434,-3.559c0.217,-1.259 0.456,-2.43 0.694,-3.472c0.282,-1.085 0.434,-2.105 0.434,-3.038c0,-0.282 -0.152,-0.695 -0.434,-1.216c-0.238,-0.564 -0.824,-1.519 -1.736,-2.864c-0.824,-1.215 -1.215,-2.539 -1.215,-3.993c-0,-3.646 1.15,-6.185 3.472,-7.639c2.366,-1.497 5.165,-2.257 8.42,-2.257c2.713,-0 5.252,0.564 7.639,1.649c2.431,1.042 4.644,2.387 6.684,3.993c0.521,0.413 0.977,0.825 1.389,1.216c0.391,0.412 0.89,0.737 1.476,0.954l0.607,-0.173l19.358,-3.993l19.358,-3.299c2.951,-0.521 5.837,-1.085 8.68,-1.736c2.821,-0.694 5.729,-1.172 8.681,-1.476l15.364,-1.215c4.688,-0.217 9.462,-0.304 14.323,-0.26c4.861,0.065 9.571,0.651 14.15,1.736c2.365,0.412 5.208,1.085 8.507,1.996c3.298,0.933 6.532,2.084 9.722,3.473c3.168,1.345 5.642,2.777 7.378,4.34c2.648,2.322 4.97,4.861 6.945,7.639c1.953,2.734 3.407,5.859 4.34,9.375c0.521,1.454 0.868,2.994 1.042,4.6c0.217,1.628 0.477,3.191 0.781,4.688l0.434,16.319l0.174,18.403c-0,4.167 -0.651,7.682 -1.91,10.504c-1.281,2.777 -3.19,5.794 -5.729,9.027Zm-47.83,-98.871l-15.191,-0l-21.962,2.604l-7.465,1.215l-18.577,3.82c-1.736,0.173 -3.537,0.412 -5.382,0.694c-1.801,0.239 -3.645,0.347 -5.555,0.347c-3.776,0 -7.465,-0.629 -11.111,-1.909c-3.603,-1.259 -7.27,-2.192 -11.025,-2.778c-2.213,-0.217 -4.123,-1.346 -5.729,-3.386c-1.562,-2.018 -2.843,-3.993 -3.819,-5.902c-1.346,-2.648 -2.235,-5.491 -2.691,-8.507c-0.478,-3.06 -0.695,-6.077 -0.695,-9.028c0,-1.215 0.022,-2.431 0.087,-3.646c0.044,-1.215 0.13,-2.344 0.261,-3.385c0.173,-0.912 0.303,-1.758 0.434,-2.518c0.108,-0.737 0.173,-1.519 0.173,-2.343c0,-0.912 -1.02,-2.127 -3.038,-3.646c-0.933,-0.63 -1.606,-1.584 -1.996,-2.865c-0.413,-1.324 -0.608,-2.517 -0.608,-3.559c-0,-3.125 1.128,-5.425 3.385,-6.944c2.301,-1.563 4.883,-2.344 7.726,-2.344c3.516,-0 6.467,0.673 8.854,1.997c2.431,1.345 5.729,3.559 9.896,6.684c4.167,-1.498 8.355,-2.908 12.587,-4.254l12.5,-4.08c3.581,-1.15 7.291,-2.17 11.111,-3.038c3.863,-0.911 7.639,-1.693 11.285,-2.344c2.647,-0.564 5.751,-1.063 9.288,-1.475c3.581,-0.391 7.205,-0.738 10.851,-1.042c3.645,-0.347 6.814,-0.564 9.548,-0.695c2.778,-0.173 4.644,-0.26 5.643,-0.26c5.49,0 11.219,0.911 17.187,2.691c6.011,1.736 11.306,3.971 15.885,6.684c4.558,2.669 8.377,6.12 11.459,10.33c3.125,4.232 4.687,9.093 4.687,14.583c0,1.91 -0.26,3.472 -0.781,4.688c-1.215,2.56 -2.04,4.253 -2.431,5.121c-0.412,0.868 -0.607,1.519 -0.607,1.91c-0,0.412 0.13,0.998 0.434,1.736c0.347,0.76 0.998,2.257 1.996,4.514c0.391,0.825 0.63,1.628 0.695,2.431c0.043,0.824 0.087,1.627 0.087,2.43c-0,3.364 -0.999,6.207 -2.952,8.507c-1.909,2.257 -4.644,3.385 -8.159,3.385c-1.867,0 -3.777,-0.217 -5.73,-0.694c-1.974,-0.456 -3.884,-1.042 -5.729,-1.736c-0.998,-0.391 -2.061,-0.738 -3.212,-1.042c-1.106,-0.347 -2.213,-0.607 -3.298,-0.781l-18.316,-2.17Zm-78.733,-13.715l35.938,-7.292l18.576,-2.17c2.257,-0.282 4.883,-0.608 7.899,-0.955c3.06,-0.347 4.992,-0.521 5.816,-0.521l3.646,0c0.912,-0.521 2.127,-1.389 3.646,-2.604c1.562,-1.215 2.973,-2.517 4.253,-3.906c1.259,-1.433 1.91,-2.691 1.91,-3.733c0,-1.606 -0.304,-2.604 -0.868,-2.951c-0.586,-0.348 -1.627,-0.521 -3.125,-0.521c-3.255,-0 -6.467,0.217 -9.635,0.607c-3.125,0.413 -6.25,0.825 -9.375,1.216l-16.754,4.687l-10.243,2.778l-16.927,2.865c-0.998,0.13 -1.888,0.173 -2.691,0.173l-2.778,0c-1.106,0 -2.322,0.087 -3.645,0.261c-1.346,0.13 -2.344,0.173 -3.039,0.173l-3.819,0c0.108,2.04 0.195,4.058 0.26,6.077c0.109,1.974 0.434,3.906 0.955,5.816Zm-6.51,62.586l8.507,-0.868l17.534,-4.253l2.865,-0.955l17.187,-4.253l12.848,-2.431l17.795,-1.389c0.694,-0.174 1.931,-0.108 3.732,0.174c1.78,0.303 3.668,0.607 5.643,0.955c1.953,0.303 3.472,0.651 4.514,1.041c1.215,0.586 2.387,1.215 3.559,1.91c1.15,0.651 2.344,1.302 3.559,1.996c-0,-0.694 0.022,-1.432 0.087,-2.256c0.043,-0.803 0.086,-1.606 0.086,-2.431c0,-2.018 -0.954,-3.472 -2.864,-4.34c-1.866,-0.868 -3.972,-1.346 -6.337,-1.476c-2.322,-0.174 -4.232,-0.26 -5.729,-0.26l-4.861,-0c-1.736,-0 -3.386,0.065 -4.948,0.173c-1.563,0.065 -3.277,0.217 -5.122,0.434l-19.357,3.038l-27.865,6.077c-3.364,0.824 -6.814,1.215 -10.33,1.215c-3.472,0 -6.64,-0.456 -9.462,-1.389c-0.303,1.454 -0.564,2.93 -0.781,4.427c-0.173,1.454 -0.26,3.082 -0.26,4.861Zm96.093,24.219c-3.645,-1.085 -7.161,-1.649 -10.503,-1.649l-9.635,-0c-3.95,-0 -7.184,0.217 -9.723,0.607l-17.187,2.778l-8.854,1.476l-14.497,3.212c-2.734,0.521 -5.512,0.998 -8.333,1.389c-2.778,0.412 -5.534,0.607 -8.247,0.607c-1.519,0 -2.951,-0.195 -4.34,-0.607c-1.389,-0.391 -2.843,-0.868 -4.34,-1.389c0.108,1.107 0.217,2.235 0.347,3.385c0.174,1.107 0.304,2.214 0.434,3.299c1.78,-0 4.015,-0.022 6.684,-0.087c2.713,-0.109 5.404,-0.217 8.073,-0.347c2.713,-0.109 4.861,-0.304 6.424,-0.608l18.229,-3.646l11.718,-2.43l17.362,-1.997l18.489,-1.041l6.858,-0c0.282,-0.521 0.477,-0.999 0.607,-1.476c0.174,-0.456 0.304,-0.955 0.434,-1.476Zm1.216,-15.191c0.108,-0.803 0.195,-1.562 0.26,-2.257c0.109,-0.738 0.174,-1.519 0.174,-2.344c-1.91,-0.694 -3.863,-1.258 -5.816,-1.736c-1.91,-0.455 -3.885,-0.781 -5.903,-0.955c-0.933,-0.108 -2.648,-0.195 -5.121,-0.26c-2.496,-0.043 -4.927,-0.087 -7.292,-0.087c-2.387,0 -3.885,0.065 -4.514,0.174l-20.052,3.212l-18.142,4.253l-13.542,3.212c-2.149,0.412 -4.254,0.781 -6.337,1.128c-2.083,0.348 -4.21,0.521 -6.337,0.521c-0.933,0 -1.801,-0.087 -2.604,-0.26c-0.825,-0.217 -1.628,-0.391 -2.43,-0.521l-0,4.253c-0,0.521 0.043,0.999 0.173,1.389c1.91,0 3.841,-0.086 5.816,-0.26c2.018,-0.217 3.993,-0.434 5.903,-0.608c1.606,-0.217 3.233,-0.564 4.861,-1.041c1.606,-0.456 3.234,-0.89 4.861,-1.302c5.078,-0.977 10.113,-1.997 15.104,-3.039l14.931,-3.211c4.687,-1.086 9.462,-1.954 14.323,-2.605c4.861,-0.694 9.57,-1.041 14.149,-1.041c2.648,-0 5.295,0.325 7.899,0.955c2.648,0.586 5.86,1.388 9.636,2.43Zm-69.618,42.361c-0.521,-0.108 -1.042,-0.217 -1.563,-0.347c-0.477,-0.174 -1.02,-0.26 -1.649,-0.26l-1.649,-0c-0.521,-0 -1.194,0.086 -1.997,0.26l-11.285,1.215c-3.125,0.239 -6.38,0.738 -9.722,1.476c-3.364,0.76 -5.035,1.997 -5.035,3.733c0,0.933 0.738,1.692 2.257,2.257c1.563,0.52 3.234,0.868 5.035,1.041c1.845,0.13 3.168,0.174 3.993,0.174c3.234,-0 6.988,-0.825 11.285,-2.517c4.34,-1.671 7.769,-4.015 10.33,-7.032Z" style="fill-rule:nonzero;"/></g></g></g><g><g><g><path d="M841.859,149.286c-0.304,-0.977 -1.086,-1.823 -2.344,-2.518c-1.281,-0.737 -2.735,-1.41 -4.34,-1.996c-1.042,-0.391 -2.171,-0.825 -3.386,-1.302c-1.215,-0.456 -2.387,-0.955 -3.472,-1.476c-1.736,-1.324 -2.952,-2.821 -3.646,-4.514c-0.651,-1.671 -0.955,-3.407 -0.955,-5.208c0,-2.951 0.955,-5.512 2.865,-7.726c1.953,-2.257 4.362,-4.014 7.205,-5.295c2.821,-1.259 5.577,-1.91 8.246,-1.91c4.731,0 9.288,1.172 13.629,3.473c4.383,2.257 7.856,5.36 10.416,9.288c2.257,-1.91 4.623,-3.863 7.118,-5.903c2.474,-2.018 5.339,-3.038 8.594,-3.038c3.125,-0 6.12,0.868 9.028,2.604c2.886,1.693 5.252,3.646 7.118,5.903c1.215,-2.539 2.821,-4.905 4.861,-7.118c2.018,-2.257 4.557,-3.386 7.639,-3.386c3.928,0 7.422,1.194 10.503,3.559c3.125,2.387 4.688,5.643 4.688,9.809c-0,1.736 -0.152,3.386 -0.434,4.948c-0.304,1.519 -0.434,3.169 -0.434,4.948c-0,0.825 0.022,1.606 0.087,2.344c0.108,0.694 0.217,1.454 0.347,2.257c5.252,-4.97 10.59,-9.939 15.972,-14.931c5.382,-4.969 11.068,-9.396 17.101,-13.281c5.664,-3.819 11.588,-5.729 17.795,-5.729c3.472,-0 6.944,0.586 10.417,1.736c3.515,1.172 6.792,2.691 9.809,4.601c2.257,1.345 4.535,3.168 6.857,5.468c2.366,2.257 4.362,4.688 5.99,7.292c1.606,2.604 2.43,5.339 2.43,8.16c0,2.561 -1.193,5.621 -3.559,9.201c-2.322,3.603 -5.251,7.335 -8.767,11.198c3.928,1.519 6.988,4.058 9.201,7.639c2.257,3.537 3.386,7.379 3.386,11.545c-0,2.952 -0.912,5.773 -2.691,8.42c-1.736,2.605 -4.232,3.907 -7.465,3.907c-1.867,-0 -3.95,-0.348 -6.25,-1.042c-2.149,-0.629 -4.341,-1.215 -6.598,-1.736c-2.213,-0.564 -4.427,-0.868 -6.684,-0.868c-2.843,-0 -5.729,0.043 -8.68,0.087c-2.952,0.065 -5.795,0.434 -8.507,1.128c0.694,1.215 1.324,2.387 1.91,3.472c0.629,1.042 1.215,2.127 1.736,3.212c1.085,-0.174 2.17,-0.282 3.211,-0.347c1.086,-0.044 2.105,-0.087 3.039,-0.087c4.448,0 9.027,0.781 13.715,2.344c4.731,1.519 8.724,3.906 11.979,7.205c3.299,3.298 4.948,7.595 4.948,12.847c0,3.125 -0.846,6.141 -2.517,9.028c-1.693,2.908 -4.254,4.34 -7.726,4.34c-2.431,-0 -4.839,-0.174 -7.205,-0.521c-2.322,-0.347 -4.644,-0.521 -6.944,-0.521c-1.736,0 -3.451,0.13 -5.122,0.347c-1.693,0.174 -3.342,0.608 -4.948,1.303l0,5.382c4.557,-0 9.202,0.347 13.889,1.041c4.731,0.695 9.115,2.17 13.108,4.427c3.928,2.149 7.335,4.926 10.243,8.334c2.886,3.363 4.34,7.378 4.34,12.066c0,1.627 -0.217,3.255 -0.608,4.861c-0.412,1.627 -1.215,2.951 -2.43,3.993c-3.364,3.125 -7.465,4.687 -12.327,4.687c-1.866,0 -3.71,-0.26 -5.555,-0.781c-1.801,-0.564 -3.646,-1.128 -5.556,-1.649c-1.215,-0.391 -2.495,-0.651 -3.819,-0.782c-1.346,-0.173 -2.669,-0.26 -3.993,-0.26c-0.695,0 -1.454,0.043 -2.257,0.087c-0.825,0.065 -1.563,0.087 -2.257,0.087c-0.13,3.537 -0.304,7.183 -0.521,10.937c-0.173,3.754 -1.345,7.118 -3.472,10.07c-1.736,2.539 -4.145,4.448 -7.205,5.729c-3.016,1.324 -6.076,1.996 -9.201,1.996c-3.082,0 -6.424,-0.521 -10.07,-1.562c-3.602,-0.999 -6.554,-2.561 -8.854,-4.688c-2.561,-2.322 -4.232,-5.013 -5.035,-8.073c-0.824,-3.016 -1.367,-6.098 -1.649,-9.288c-1.345,0.239 -2.778,0.499 -4.34,0.781c-1.519,0.304 -3.017,0.434 -4.514,0.434c-2.431,0 -5.035,-0.347 -7.813,-1.041c-2.734,-0.695 -5.165,-1.65 -7.291,-2.865c-0.999,1.389 -1.888,2.735 -2.691,3.993c-0.825,1.281 -1.606,2.583 -2.344,3.906c0.217,1.498 0.391,2.974 0.521,4.428c0.173,1.497 -0.087,2.973 -0.781,4.427c-0.825,1.779 -2.084,3.233 -3.82,4.34c-1.736,1.15 -3.559,1.736 -5.469,1.736c-2.04,0 -4.036,-0.13 -5.989,-0.347c-1.91,-0.174 -3.885,-0.261 -5.903,-0.261c-1.454,0 -3.733,0.109 -6.858,0.348c-3.081,0.282 -6.054,0.607 -8.941,0.954c-2.908,0.348 -4.904,0.521 -5.989,0.521c-5.903,0 -11.524,-1.823 -16.84,-5.468c-5.339,-3.646 -9.072,-8.16 -11.198,-13.542c-1.216,-3.169 -2.257,-6.467 -3.125,-9.896c-0.868,-3.472 -1.302,-6.944 -1.302,-10.417c-0,-5.664 0.781,-10.698 2.343,-15.104c1.606,-4.449 3.928,-8.962 6.945,-13.541c-0.825,-0.695 -1.606,-1.237 -2.344,-1.65c-0.76,-0.39 -1.476,-0.868 -2.17,-1.389c-3.082,-2.191 -4.601,-4.362 -4.601,-6.51c0,-1.606 0.543,-2.951 1.649,-3.993c1.433,-0.977 3.169,-2.018 5.209,-3.125c2.018,-1.15 4.101,-2.387 6.25,-3.733c1.085,-0.694 1.91,-1.584 2.43,-2.691c-1.345,-0.629 -2.495,-1.215 -3.472,-1.736c-0.933,-0.564 -2.062,-1.172 -3.385,-1.823c-1.346,-1.085 -2.93,-2.799 -4.775,-5.121c-1.801,-2.366 -2.691,-4.362 -2.691,-5.99c0,-1.497 0.825,-2.539 2.518,-3.125c1.671,-0.629 3.581,-0.998 5.729,-1.128c1.736,-1.085 3.581,-2.257 5.556,-3.473c1.953,-1.215 3.602,-2.278 4.947,-3.211c-2.257,-0.217 -4.492,-0.565 -6.684,-1.042c-2.148,-0.521 -4.296,-1.302 -6.423,-2.344c-2.04,-0.976 -4.058,-2.626 -6.077,-4.948c-2.04,-2.365 -3.038,-4.622 -3.038,-6.771c0,-2.43 1.172,-4.123 3.559,-5.121c2.366,-1.042 4.427,-1.758 6.163,-2.17l5.816,-5.816c2.019,-2.018 3.776,-4.102 5.296,-6.25Zm87.152,88.542c-7.248,0.412 -13.845,-0.304 -19.791,-2.171c-5.903,-1.909 -10.135,-5.664 -12.674,-11.284c-1.345,1.041 -2.756,1.953 -4.253,2.691c-1.454,0.759 -3.125,1.128 -5.035,1.128c-1.215,0 -3.082,-0.174 -5.556,-0.521c-2.495,-0.347 -4.492,-0.521 -5.989,-0.521c-5.209,0 -10.308,0.868 -15.278,2.605c-2.04,0.694 -3.82,1.627 -5.382,2.777c-1.563,1.107 -2.865,2.605 -3.906,4.514c-1.519,2.561 -2.93,5.99 -4.254,10.33c-1.345,4.297 -1.996,7.769 -1.996,10.417c1.736,-1.15 3.212,-2.886 4.427,-5.209c2.647,-5.078 6.272,-9.309 10.851,-12.673c4.622,-3.407 10.004,-5.122 16.145,-5.122c4.037,0 8.03,0.738 11.98,2.17c3.993,1.389 7.486,3.516 10.503,6.337c3.06,2.843 5.056,6.337 5.99,10.504c1.085,-0.391 2.17,-0.825 3.211,-1.302c1.085,-0.456 2.105,-0.977 3.039,-1.563c3.125,-1.042 6.163,-2.018 9.114,-2.951c2.952,-0.977 5.903,-2.084 8.854,-3.299l0,-6.857Zm-65.364,-34.462c2.43,-0.391 4.883,-0.782 7.378,-1.129c2.474,-0.347 4.992,-0.521 7.552,-0.521c4.275,0 8.334,1.194 12.153,3.559c3.863,2.322 6.554,5.599 8.073,9.809c5.208,-1.909 10.352,-3.776 15.451,-5.642c5.144,-1.91 10.352,-3.516 15.625,-4.861c-0.303,-1.085 -0.607,-2.083 -0.954,-2.951c-0.348,-0.868 -0.782,-1.758 -1.303,-2.691c-2.669,1.345 -5.816,1.996 -9.461,1.996c-3.125,0 -5.773,-0.195 -7.9,-0.607c-2.148,-0.391 -4.318,-1.129 -6.51,-2.171c-2.149,-1.085 -4.905,-2.647 -8.247,-4.687c-4.166,1.215 -8.463,2.387 -12.847,3.472c-4.34,1.042 -8.55,2.17 -12.587,3.386c-1.215,0.412 -2.322,0.846 -3.298,1.302c-0.999,0.477 -2.04,1.041 -3.125,1.736Zm-12.5,79.08c2.647,-0.912 5.403,-1.693 8.246,-2.344c2.821,-0.695 5.664,-1.324 8.507,-1.91c1.432,-1.215 3.429,-3.168 5.99,-5.903c2.604,-2.777 4.948,-5.664 7.031,-8.68c2.083,-3.06 3.125,-5.512 3.125,-7.379c0,-1.085 -0.608,-2.083 -1.823,-2.951c-1.215,-0.868 -2.582,-1.649 -4.08,-2.344c-0.412,-0.217 -0.824,-0.39 -1.215,-0.521c-0.412,-0.173 -0.825,-0.26 -1.215,-0.26c-0.76,-0 -1.454,0.499 -2.084,1.476c-0.586,0.933 -1.02,1.714 -1.302,2.343c-2.148,4.992 -4.579,9.028 -7.291,12.153c-2.67,3.082 -7.097,4.601 -13.282,4.601l-4.253,-0c0.282,4.166 1.497,8.073 3.646,11.719Zm2.778,-104.775c2.43,-1.041 4.904,-2.04 7.465,-3.038c2.604,-1.042 5.165,-1.823 7.725,-2.344c1.737,-1.909 3.82,-4.34 6.25,-7.291c2.431,-2.952 4.796,-5.947 7.119,-9.028c2.365,-3.125 4.166,-5.686 5.381,-7.726c0.803,-1.324 1.259,-2.734 1.389,-4.253c-0.238,-1.433 -0.911,-3.06 -1.996,-4.861c-1.107,-1.845 -2.583,-2.778 -4.427,-2.778c-0.521,-0 -1.129,0.564 -1.823,1.649c-0.695,1.042 -1.866,3.386 -3.472,7.031c-1.216,2.67 -2.474,5.252 -3.733,7.726c-1.28,2.496 -2.843,4.905 -4.688,7.205c-2.43,3.082 -5.034,6.228 -7.812,9.462c-2.734,3.255 -5.187,5.989 -7.378,8.246Zm107.638,-22.569c2.127,-1.91 4.688,-4.037 7.639,-6.424c2.952,-2.43 5.686,-4.709 8.247,-6.857c2.018,-1.606 3.385,-3.125 4.08,-4.514c-0.586,-1.324 -1.693,-2.604 -3.299,-3.82c-1.562,-1.215 -3.103,-1.823 -4.601,-1.823c-0.412,0 -1.562,0.847 -3.472,2.518c-1.866,1.692 -4.058,3.906 -6.597,6.684c-2.561,2.777 -5.208,5.772 -7.986,8.941c-2.778,3.125 -5.252,6.163 -7.379,9.114c4.341,-1.606 8.789,-2.886 13.368,-3.819Zm-68.836,16.927c1.432,0.998 2.625,2.04 3.559,3.125c0.976,1.042 1.866,2.3 2.691,3.733c0.911,-0.109 2.647,-0.782 5.208,-1.997c2.539,-1.215 5.121,-2.517 7.726,-3.906c2.647,-1.433 4.448,-2.431 5.382,-2.952c-2.67,-1.215 -5.252,-2.625 -7.726,-4.253c-2.496,-1.606 -4.753,-3.494 -6.771,-5.642c-1.736,2.039 -3.385,4.058 -4.948,6.076c-1.562,2.04 -3.277,3.971 -5.121,5.816Z" style="fill-rule:nonzero;"/></g></g></g><g><g><g><path d="M1077.49,206.879c-0.694,-0.695 -1.432,-1.303 -2.17,-1.823c-0.694,-0.521 -1.389,-1.064 -2.083,-1.65c-2.04,-1.844 -3.559,-4.101 -4.601,-6.771c-0.998,-2.712 -1.476,-5.425 -1.476,-8.159c0,-1.845 0.391,-3.82 1.216,-5.903c0.803,-2.083 1.758,-3.928 2.864,-5.556l9.462,-14.149c0.282,-0.521 0.434,-0.911 0.434,-1.215c0,-0.695 -0.434,-1.259 -1.302,-1.736c-0.868,-0.456 -2.604,-1.15 -5.208,-2.084c-1.346,-0.694 -2.561,-1.909 -3.646,-3.645c-1.042,-1.737 -1.563,-3.299 -1.563,-4.688c0,-2.127 0.825,-4.101 2.518,-5.903c1.671,-1.844 3.385,-3.233 5.121,-4.166c1.498,-0.803 3.125,-1.324 4.861,-1.563c1.737,-0.282 3.473,-0.434 5.209,-0.434c1.909,0 3.754,0.304 5.555,0.868c1.845,0.521 4.102,1.302 6.771,2.344c2.431,-3.472 5.252,-6.619 8.507,-9.462c3.234,-2.821 7.14,-4.253 11.719,-4.253c6.011,-0 11.675,2.04 17.014,6.076c5.317,4.058 9.592,8.485 12.847,13.281c1.085,-1.041 2.279,-1.909 3.559,-2.604c1.259,-0.694 2.713,-1.042 4.34,-1.042c1.736,0 3.733,0.565 5.99,1.65c2.3,1.107 4.123,2.17 5.469,3.212c1.215,0.933 2.343,1.953 3.385,3.038c1.085,1.107 2.127,2.17 3.125,3.212c1.432,-1.433 2.8,-2.822 4.08,-4.167c1.259,-1.389 2.452,-2.734 3.559,-4.08c3.472,-4.167 7.574,-7.248 12.326,-9.288c4.796,-2.018 9.896,-3.038 15.278,-3.038c4.34,-0 8.963,0.954 13.889,2.864c4.904,1.867 8.898,4.34 11.979,7.465c5.252,5.209 8.963,11.285 11.111,18.23c2.127,6.944 3.255,14.04 3.386,21.267l0.434,16.146l1.215,27.864l0.434,25.261l0.174,3.385l0.781,24.045l0.434,14.497l-1.649,4.861c-0.521,1.606 -1.389,3.038 -2.605,4.254c-1.736,2.018 -3.949,3.493 -6.597,4.427c-2.604,0.976 -5.252,1.475 -7.899,1.475c-2.322,0 -4.34,-0.26 -6.077,-0.781c-1.736,-0.477 -4.231,-1.367 -7.465,-2.691c-1.519,-0.694 -3.081,-1.085 -4.687,-1.128c-1.563,-0.065 -3.169,-0.087 -4.775,-0.087c-1.801,-0 -2.951,0.043 -3.472,0.173l-15.364,2.865c-3.776,0.803 -7.596,1.215 -11.459,1.215c-1.736,0 -3.515,-0.152 -5.295,-0.434c-1.736,-0.238 -3.429,-0.694 -5.035,-1.389c-1.454,-0.694 -3.276,-1.692 -5.468,-2.951c-2.149,-1.28 -3.733,-2.582 -4.775,-3.906c-0.694,-0.825 -1.475,-1.693 -2.343,-2.604c-0.868,-0.977 -1.519,-1.932 -1.91,-2.865c-0.521,-1.215 -1.107,-2.474 -1.736,-3.819c-0.586,-1.324 -0.955,-2.691 -1.129,-4.08c-0.238,-2.648 -0.434,-5.317 -0.607,-7.986c-0.131,-2.713 -0.174,-5.426 -0.174,-8.16l-0.608,-15.104l-0.607,-0c-2.04,1.627 -4.319,2.43 -6.858,2.43c-1.215,0 -2.344,-0.13 -3.385,-0.434l-2.084,-1.389c1.389,2.561 2.8,5.013 4.254,7.379c1.497,2.387 3.06,4.687 4.687,6.944c0.803,1.346 1.65,2.93 2.518,4.775c0.868,1.801 1.302,3.559 1.302,5.295c-0,2.322 -0.847,4.752 -2.518,7.291c-1.692,2.561 -3.819,3.82 -6.423,3.82c-1.172,-0 -2.474,-0.087 -3.906,-0.261c-1.389,-0.217 -2.583,-0.651 -3.559,-1.302c-1.454,-0.976 -2.757,-2.257 -3.907,-3.819c-1.172,-1.606 -2.148,-3.234 -2.951,-4.861l-5.208,-10.764c-1.107,-2.366 -2.322,-4.731 -3.646,-7.118c-1.346,-2.366 -2.409,-4.818 -3.212,-7.379c-0.933,0.695 -1.801,1.389 -2.604,2.084c-0.825,0.651 -1.78,1.215 -2.865,1.736c-0.304,0.173 -0.586,0.39 -0.868,0.607c-0.239,0.174 -0.477,0.391 -0.694,0.608c3.06,2.951 5.208,6.207 6.423,9.722c0.391,1.042 0.825,2.127 1.302,3.212c0.456,1.107 0.955,2.17 1.476,3.212l10.764,16.58c0.803,1.345 1.215,2.864 1.215,4.6c0,2.127 -0.933,3.776 -2.778,4.948c-1.801,1.151 -3.71,1.736 -5.729,1.736c-2.951,0 -5.902,-1.02 -8.854,-3.038c-2.951,-2.04 -5.382,-4.123 -7.292,-6.25c-1.345,-1.606 -2.647,-3.32 -3.906,-5.121c-1.28,-1.845 -2.474,-3.646 -3.559,-5.382c-1.736,-3.06 -3.038,-6.272 -3.906,-9.636c-0.868,-3.407 -1.649,-6.792 -2.344,-10.156c-0.13,-0.391 -0.304,-0.825 -0.521,-1.302c-0.173,-0.456 -0.412,-0.825 -0.694,-1.128c-2.951,-0.912 -5.686,-2.127 -8.16,-3.646c-2.495,-1.563 -4.948,-3.234 -7.378,-5.035c-2.04,-1.432 -3.711,-2.734 -5.035,-3.906c-1.345,-1.15 -2.561,-2.8 -3.646,-4.948c-0.933,-1.845 -1.736,-3.776 -2.43,-5.816c-0.695,-2.018 -1.042,-4.102 -1.042,-6.25c-0,-4.449 1.085,-8.637 3.299,-12.587c2.256,-3.993 5.143,-8.203 8.68,-12.674c0.217,-0.282 0.369,-0.542 0.434,-0.781c0.109,-0.282 0.217,-0.477 0.347,-0.607Zm-7.031,81.944l-2.257,-14.583c-0.13,-0.63 -0.586,-1.867 -1.389,-3.733c-0.824,-1.91 -1.367,-3.147 -1.649,-3.733c-0.13,-0.39 -0.174,-0.911 -0.174,-1.562c0,-1.389 0.391,-2.778 1.216,-4.167c0.803,-1.389 1.931,-2.083 3.385,-2.083c1.497,-0 2.778,0.26 3.819,0.781c1.086,0.521 2.257,1.259 3.473,2.17c0.803,0.586 2.213,1.736 4.253,3.473c2.018,1.736 3.234,3.103 3.646,4.079c1.432,2.561 2.691,4.905 3.733,7.032c1.085,2.148 2.192,4.644 3.298,7.465c1.216,3.255 2.908,6.228 5.122,8.941c2.257,2.669 4.557,5.317 6.944,7.986c0.977,1.085 1.476,2.648 1.476,4.687c-0,1.324 -0.326,2.908 -0.955,4.775c-0.586,1.91 -1.541,3.212 -2.865,3.906c-0.998,0.521 -2.235,0.825 -3.732,0.955c-1.454,0.174 -2.691,0.26 -3.733,0.26c-3.125,0 -6.076,-0.933 -8.854,-2.777c-2.734,-1.802 -5.165,-3.777 -7.292,-5.903c-1.909,-2.04 -3.428,-4.861 -4.514,-8.507c-1.041,-3.646 -2.039,-6.793 -2.951,-9.462Zm82.465,-74.74l0.261,-5.642l3.385,-38.281c0,-0.282 0.022,-0.716 0.087,-1.302c0.109,-0.63 0.174,-1.15 0.174,-1.563c-0,-2.821 -0.825,-5.469 -2.431,-7.899c0.109,0.586 0.174,1.193 0.174,1.823l-0,2.257c-0,2.843 -0.825,5.555 -2.431,8.16c-1.627,2.604 -3.364,4.861 -5.208,6.77l-13.108,13.108c0.912,0.694 2.192,1.779 3.82,3.212c1.606,1.389 3.168,2.778 4.687,4.166c1.563,1.389 2.691,2.583 3.386,3.559c1.323,1.737 2.56,3.625 3.732,5.643c1.15,2.04 2.301,4.036 3.472,5.989Zm-28.819,-2.951c-0.412,-1.497 -1.02,-2.821 -1.823,-3.993c-0.825,-1.15 -1.779,-2.257 -2.865,-3.299l-1.736,1.389l-11.545,10.33c-0.933,0.825 -2.322,2.04 -4.166,3.646c-1.802,1.562 -3.538,3.168 -5.209,4.774c-1.693,1.628 -2.864,2.995 -3.559,4.08c-0.521,0.933 -1.345,2.214 -2.43,3.82c-1.042,1.627 -1.563,2.994 -1.563,4.079c0,0.934 0.434,1.802 1.302,2.605c0.868,0.824 1.758,1.215 2.691,1.215c0.391,-0 1.606,-0.977 3.646,-2.952c2.018,-1.953 4.34,-4.253 6.944,-6.857c2.648,-2.604 5.057,-5.035 7.205,-7.292c2.127,-2.3 3.473,-3.819 3.993,-4.514c1.389,-1.497 2.908,-2.734 4.601,-3.732c1.671,-0.977 3.168,-2.084 4.514,-3.299Zm86.545,-13.194l0,4.253c1.085,-0.217 2.257,-0.391 3.472,-0.521c1.216,-0.173 2.344,-0.304 3.386,-0.434l1.041,-27.517l0,-5.816c0,-0.695 -0.13,-1.389 -0.347,-2.083c-0.173,-0.738 -0.738,-1.129 -1.649,-1.129c-1.519,0 -3.103,0.933 -4.774,2.778c-1.693,1.801 -2.865,3.212 -3.559,4.253c1.085,4.579 1.757,9.006 1.996,13.282c0.282,4.231 0.434,8.55 0.434,12.934Zm-30.642,82.986l0.607,0.173c1.085,-0.39 2.105,-0.738 3.039,-1.041c0.911,-0.348 1.844,-0.868 2.777,-1.563c-0.13,-4.275 -0.152,-8.529 -0.086,-12.76c0.043,-4.275 0.086,-8.507 0.086,-12.674l0,-5.469c-1.627,0.413 -2.951,0.912 -3.993,1.476c-0.521,0.239 -1.085,0.477 -1.649,0.695c-0.521,0.173 -1.129,0.412 -1.823,0.694c0.174,2.669 0.282,5.425 0.347,8.246c0.044,2.843 0.087,5.686 0.087,8.507l0.434,6.858c0.109,2.322 0.174,4.601 0.174,6.858Zm-2.257,-65.625l0.26,0.868c1.215,-0.282 2.344,-0.651 3.386,-1.129c1.085,-0.455 2.17,-0.976 3.211,-1.562l0.434,-4.601l0.434,-23.785l0,-3.298l-5.468,-0l-0.608,6.076l-1.215,18.403l-0.434,9.028Zm33.159,58.159l6.858,-1.996c-0.173,-3.125 -0.325,-6.011 -0.434,-8.681c-0.13,-2.712 -0.174,-5.143 -0.174,-7.291c0,-2.539 0.044,-5.078 0.174,-7.639c0.109,-2.539 0.174,-5.122 0.174,-7.726c-0.933,0.174 -1.91,0.391 -2.952,0.608c-0.998,0.173 -1.996,0.521 -3.038,1.041c-0.173,4.992 -0.434,10.309 -0.781,15.973c-0.304,5.62 -0.239,10.85 0.173,15.711Zm-101.562,-100.086c1.91,-1.736 3.754,-3.494 5.556,-5.296c1.844,-1.844 3.689,-3.58 5.555,-5.208c1.085,-0.911 2.604,-2.17 4.514,-3.732c1.953,-1.563 2.951,-2.995 2.951,-4.341c0,-1.606 -0.933,-3.081 -2.777,-4.427c-1.802,-1.324 -3.429,-1.996 -4.862,-1.996c-0.933,-0 -1.714,0.586 -2.343,1.736c-0.586,1.106 -1.02,1.996 -1.302,2.691l-6.25,16.319l-1.042,4.254Zm25.868,77.083c-0.412,-1.736 -0.825,-3.494 -1.215,-5.295c-0.413,-1.845 -1.172,-3.516 -2.257,-5.035c-1.215,1.215 -2.496,2.843 -3.82,4.861c0.521,0.413 1.042,0.781 1.563,1.129c0.564,0.347 1.128,0.738 1.649,1.128c0.695,0.521 1.411,1.085 2.17,1.649c0.738,0.521 1.389,1.042 1.91,1.563Z" style="fill-rule:nonzero;"/></g></g></g><g><g><clipPath id="_clip28"><path d="M551.194,292.556l5.013,0.131l-1.758,68.511l-5.035,-0.109l1.78,-68.533Z"/></clipPath><g clip-path="url(#_clip28)"><g><clipPath id="_clip29"><path d="M556.098,293.793c-1.671,51.606 -2.387,64.844 -3.884,66.602c-0.391,0.716 -1.65,-0.391 -1.65,-0.391l1.823,0.413c-0.173,-0.022 -1.476,0.672 -1.823,-0.413c-1.041,-2.191 2.04,-15.364 2.648,-24.674c0.868,-12.175 -0.651,-38.412 1.063,-41.602c0.391,-1.063 1.823,0.065 1.823,0.065"/></clipPath><g clip-path="url(#_clip29)"><path d="M545.334,279.167l18.62,0.477l-2.452,95.725l-18.62,-0.478l2.452,-95.724Z" style="fill:#fff;fill-rule:nonzero;"/></g></g></g></g></g><g><g><clipPath id="_clip30"><path d="M795.052,286.393l5.382,0.152l-1.888,73.611l-5.382,-0.13l1.888,-73.633Z"/></clipPath><g clip-path="url(#_clip30)"><g><clipPath id="_clip31"><path d="M800.347,287.717c-1.823,55.447 -2.582,69.683 -4.21,71.571c-0.412,0.76 -1.758,-0.434 -1.758,-0.434l1.953,0.434c-0.195,0 -1.584,0.738 -1.953,-0.434c-1.106,-2.344 2.192,-16.515 2.843,-26.519c0.933,-13.064 -0.694,-41.254 1.15,-44.661c0.434,-1.151 1.975,0.043 1.975,0.043"/></clipPath><g clip-path="url(#_clip31)"><path d="M788.78,272.005l19.987,0.521l-2.626,102.843l-20.008,-0.521l2.647,-102.843Z" style="fill:#fff;fill-rule:nonzero;"/></g></g></g></g></g></svg>