<?xml version="1.0" encoding="UTF-8" standalone="no"?><!DOCTYPE svg PUBLIC "-//W3C//DTD SVG 1.1//EN" "http://www.w3.org/Graphics/SVG/1.1/DTD/svg11.dtd"><svg width="100%" height="100%" viewBox="0 0 5692 388" version="1.1" xmlns="http://www.w3.org/2000/svg" xmlns:xlink="http://www.w3.org/1999/xlink" xml:space="preserve" xmlns:serif="http://www.serif.com/" style="fill-rule:evenodd;clip-rule:evenodd;stroke-linejoin:round;stroke-miterlimit:2;"><g><clipPath id="_clip1"><rect x="303.494" y="62.543" width="249.891" height="295.573"/></clipPath><g clip-path="url(#_clip1)"><path d="M780.078,63.043c0,-0 -728.125,-0.022 -728.233,-0.022c0.108,7.183 1.974,98.85 1.909,106.792c-0.152,21.897 -1.888,48.59 -2.994,70.465c-0.5,9.852 -8.312,93.251 -15.105,103.689c0.022,-0.022 125.868,15.864 249.067,7.509c2.908,-16.971 9.05,-34.289 11.502,-51.281c2.713,-19.466 6.272,-36.849 6.619,-56.488c0.564,-32.314 -1.129,-58.941 -1.15,-93.078c-0,-1.757 2.56,-1.909 2.756,-0.173c3.928,33.29 4.969,24.848 8.051,85.85c1.801,35.981 -2.843,77.127 -4.687,113.412c121.093,14.431 140.082,12.717 248.546,-3.19c-3.711,-36.155 -3.494,-69.358 -3.473,-105.512c0.109,-50.717 -2.278,-56.598 -0.564,-96.311c0.087,-1.801 1.215,-1.78 1.324,0.022c2.192,35.351 2.018,60.915 6.467,93.467c2.582,19.423 3.602,40.669 6.836,59.961c2.908,17.014 12.022,47.179 12.087,47.179c106.88,0 112.566,4.492 219.445,4.492c-7.747,-17.144 -14.735,-125.325 -15.126,-134.787c-0.282,-6.315 -3.798,-131.662 -3.277,-151.996" style="fill:#c40000;fill-rule:nonzero;"/></g></g><g><clipPath id="_clip2"><rect x="303.494" y="37.956" width="249.891" height="11.35"/></clipPath><g clip-path="url(#_clip2)"><path d="M836.892,48.98l-841.948,0l-0,-9.7l841.948,-0l0,9.7" style="fill:#d4983d;fill-rule:nonzero;"/></g></g><g><clipPath id="_clip3"><rect x="303.494" y="26.628" width="249.891" height="15.039"/></clipPath><g clip-path="url(#_clip3)"><path d="M836.892,41.146l-841.948,-0l-0,-13.13l841.948,0l0,13.13" style="fill:#d4983d;fill-rule:nonzero;"/></g></g><g><clipPath id="_clip4"><rect x="303.494" y="20.79" width="24.284" height="54.21"/></clipPath><g clip-path="url(#_clip4)"><path d="M323.155,72.005l-42.838,0l-0,-51.063l42.838,-0l0,51.063" style="fill:#c40000;fill-rule:nonzero;"/></g></g><g><path d="M551.541,72.005l-42.839,0l0,-51.063l42.839,-0l-0,51.063" style="fill:#c40000;fill-rule:nonzero;"/></g><g><path d="M548.893,67.904l-37.695,-0l-0,-46.962l37.695,-0l0,46.962" style="fill:#c40000;fill-rule:nonzero;"/></g><g><clipPath id="_clip5"><rect x="303.494" y="20.79" width="18.728" height="48.655"/></clipPath><g clip-path="url(#_clip5)"><path d="M320.486,67.904l-37.695,-0l-0,-46.962l37.695,-0l0,46.962" style="fill:#c40000;fill-rule:nonzero;"/></g></g><g><clipPath id="_clip6"><rect x="1037.89" y="62.543" width="245.443" height="295.573"/></clipPath><g clip-path="url(#_clip6)"><path d="M1264.65,63.043c0,-0 -728.125,-0.022 -728.233,-0.022c0.108,7.183 1.975,98.85 1.91,106.792c-0.152,21.897 -1.888,48.59 -2.995,70.465c-0.499,9.852 -8.312,93.251 -15.104,103.689c0.021,-0.022 125.868,15.864 249.067,7.509c2.908,-16.971 9.071,-34.289 11.501,-51.281c2.713,-19.466 6.272,-36.849 6.619,-56.488c0.564,-32.314 -1.128,-58.941 -1.15,-93.078c0,-1.757 2.561,-1.909 2.756,-0.173c3.928,33.29 4.991,24.848 8.051,85.85c1.802,35.981 -2.843,77.127 -4.687,113.412c121.094,14.431 140.104,12.717 248.546,-3.19c-3.711,-36.155 -3.494,-69.358 -3.472,-105.512c0.13,-50.717 -2.279,-56.598 -0.565,-96.311c0.087,-1.801 1.216,-1.78 1.346,0.022c2.17,35.351 1.996,60.915 6.467,93.467c2.561,19.423 3.581,40.669 6.814,59.961c2.908,17.014 12.023,47.179 12.088,47.179c106.879,0 112.565,4.492 219.444,4.492c-7.747,-17.144 -14.713,-125.325 -15.126,-134.787c-0.282,-6.315 -3.797,-131.662 -3.277,-151.996" style="fill:#c40000;fill-rule:nonzero;"/></g></g><g><clipPath id="_clip7"><rect x="1037.89" y="37.956" width="282.899" height="11.35"/></clipPath><g clip-path="url(#_clip7)"><path d="M1321.48,48.98l-841.948,0l-0,-9.7l841.948,-0l0,9.7" style="fill:#d4983d;fill-rule:nonzero;"/></g></g><g><clipPath id="_clip8"><rect x="1037.89" y="26.628" width="282.899" height="15.039"/></clipPath><g clip-path="url(#_clip8)"><path d="M1321.48,41.146l-841.948,-0l-0,-13.13l841.948,0l0,13.13" style="fill:#d4983d;fill-rule:nonzero;"/></g></g><g><path d="M1264.52,72.005l-42.838,0l-0,-51.063l42.838,-0l0,51.063" style="fill:#c40000;fill-rule:nonzero;"/></g><g><path d="M1261.89,67.904l-37.717,-0l0,-46.962l37.717,-0l0,46.962" style="fill:#c40000;fill-rule:nonzero;"/></g><g><clipPath id="_clip9"><rect x="39.692" y="62.543" width="268.49" height="295.573"/></clipPath><g clip-path="url(#_clip9)"><path d="M785.135,63.043c-0,-0 -728.147,-0.022 -728.256,-0.022c0.109,7.183 1.997,98.85 1.932,106.792c-0.152,21.897 -1.91,48.59 -3.017,70.465c-0.499,9.852 -8.29,93.251 -15.082,103.689c-0,-0.022 125.846,15.864 249.067,7.509c2.886,-16.971 9.049,-34.289 11.501,-51.281c2.691,-19.466 6.25,-36.849 6.598,-56.488c0.586,-32.314 -1.107,-58.941 -1.129,-93.078c0,-1.757 2.539,-1.909 2.756,-0.173c3.928,33.29 4.97,24.848 8.051,85.85c1.802,35.981 -2.842,77.127 -4.709,113.412c121.116,14.431 140.104,12.717 248.546,-3.19c-3.689,-36.155 -3.494,-69.358 -3.45,-105.512c0.108,-50.717 -2.279,-56.598 -0.565,-96.311c0.066,-1.801 1.216,-1.78 1.324,0.022c2.17,35.351 2.018,60.915 6.467,93.467c2.561,19.423 3.581,40.669 6.836,59.961c2.886,17.014 12.001,47.179 12.088,47.179c106.879,0 112.543,4.492 219.423,4.492c-7.726,-17.144 -14.714,-125.325 -15.126,-134.787c-0.261,-6.315 -3.798,-131.662 -3.255,-151.996" style="fill:#c40000;fill-rule:nonzero;"/></g></g><g><clipPath id="_clip10"><rect x="0" y="37.956" width="308.181" height="11.35"/></clipPath><g clip-path="url(#_clip10)"><path d="M841.949,48.98l-841.949,0l0,-9.7l841.949,-0l-0,9.7" style="fill:#d4983d;fill-rule:nonzero;"/></g></g><g><clipPath id="_clip11"><rect x="0" y="26.628" width="308.181" height="15.039"/></clipPath><g clip-path="url(#_clip11)"><path d="M841.949,41.146l-841.949,-0l0,-13.13l841.949,0l-0,13.13" style="fill:#d4983d;fill-rule:nonzero;"/></g></g><g><path d="M99.805,72.005l-42.839,0l0,-51.063l42.839,-0l-0,51.063" style="fill:#c40000;fill-rule:nonzero;"/></g><g><clipPath id="_clip12"><rect x="283.333" y="20.79" width="24.848" height="54.21"/></clipPath><g clip-path="url(#_clip12)"><path d="M328.19,72.005l-42.838,0l-0,-51.063l42.838,-0l0,51.063" style="fill:#c40000;fill-rule:nonzero;"/></g></g><g><path d="M97.135,67.904l-37.695,-0l0,-46.962l37.695,-0l0,46.962" style="fill:#c40000;fill-rule:nonzero;"/></g><g><clipPath id="_clip13"><rect x="283.333" y="20.79" width="24.848" height="48.655"/></clipPath><g clip-path="url(#_clip13)"><path d="M325.543,67.904l-37.696,-0l0,-46.962l37.696,-0l-0,46.962" style="fill:#c40000;fill-rule:nonzero;"/></g></g><g><clipPath id="_clip14"><rect x="547.266" y="62.543" width="249.87" height="295.573"/></clipPath><g clip-path="url(#_clip14)"><path d="M1023.85,63.043c-0,-0 -728.125,-0.022 -728.234,-0.022c0.109,7.183 1.975,98.85 1.91,106.792c-0.152,21.897 -1.888,48.59 -3.016,70.465c-0.478,9.852 -8.29,93.251 -15.083,103.689c0.022,-0.022 125.846,15.864 249.067,7.509c2.908,-16.971 9.049,-34.289 11.502,-51.281c2.691,-19.466 6.271,-36.849 6.619,-56.488c0.564,-32.314 -1.129,-58.941 -1.151,-93.078c0,-1.757 2.539,-1.909 2.756,-0.173c3.928,33.29 4.97,24.848 8.052,85.85c1.801,35.981 -2.843,77.127 -4.709,113.412c121.115,14.431 140.104,12.717 248.567,-3.19c-3.711,-36.155 -3.494,-69.358 -3.472,-105.512c0.108,-50.717 -2.279,-56.598 -0.564,-96.311c0.065,-1.801 1.215,-1.78 1.324,0.022c2.191,35.351 2.018,60.915 6.467,93.467c2.56,19.423 3.602,40.669 6.835,59.961c2.908,17.014 12.023,47.179 12.088,47.179c106.88,0 112.565,4.492 219.445,4.492c-7.748,-17.144 -14.736,-125.325 -15.126,-134.787c-0.282,-6.315 -3.798,-131.662 -3.277,-151.996" style="fill:#c40000;fill-rule:nonzero;"/></g></g><g><clipPath id="_clip15"><rect x="547.266" y="37.956" width="249.87" height="11.35"/></clipPath><g clip-path="url(#_clip15)"><path d="M1080.66,48.98l-841.949,0l0,-9.7l841.949,-0l0,9.7" style="fill:#d4983d;fill-rule:nonzero;"/></g></g><g><clipPath id="_clip16"><rect x="547.266" y="26.628" width="249.87" height="15.039"/></clipPath><g clip-path="url(#_clip16)"><path d="M1080.66,41.146l-841.949,-0l0,-13.13l841.949,0l0,13.13" style="fill:#d4983d;fill-rule:nonzero;"/></g></g><g><clipPath id="_clip17"><rect x="547.266" y="20.79" width="24.957" height="54.21"/></clipPath><g clip-path="url(#_clip17)"><path d="M566.905,72.005l-42.816,0l-0,-51.063l42.816,-0l0,51.063" style="fill:#c40000;fill-rule:nonzero;"/></g></g><g><path d="M795.313,72.005l-42.839,0l-0,-51.063l42.839,-0l-0,51.063" style="fill:#c40000;fill-rule:nonzero;"/></g><g><path d="M792.665,67.904l-37.695,-0l-0,-46.962l37.695,-0l-0,46.962" style="fill:#c40000;fill-rule:nonzero;"/></g><g><clipPath id="_clip18"><rect x="547.266" y="20.79" width="19.401" height="48.655"/></clipPath><g clip-path="url(#_clip18)"><path d="M564.258,67.904l-37.696,-0l0,-46.962l37.696,-0l-0,46.962" style="fill:#c40000;fill-rule:nonzero;"/></g></g><g><clipPath id="_clip19"><rect x="791.037" y="62.543" width="249.87" height="295.573"/></clipPath><g clip-path="url(#_clip19)"><path d="M1267.62,63.043c-0,-0 -728.147,-0.022 -728.234,-0.022c0.087,7.183 1.975,98.85 1.91,106.792c-0.152,21.897 -1.888,48.59 -3.017,70.465c-0.499,9.852 -8.29,93.251 -15.082,103.689c-0,-0.022 125.846,15.864 249.067,7.509c2.908,-16.971 9.049,-34.289 11.501,-51.281c2.691,-19.466 6.272,-36.849 6.619,-56.488c0.565,-32.314 -1.128,-58.941 -1.15,-93.078c0,-1.757 2.539,-1.909 2.756,-0.173c3.928,33.29 4.97,24.848 8.051,85.85c1.802,35.981 -2.842,77.127 -4.709,113.412c121.116,14.431 140.104,12.717 248.568,-3.19c-3.711,-36.155 -3.516,-69.358 -3.472,-105.512c0.108,-50.717 -2.279,-56.598 -0.565,-96.311c0.066,-1.801 1.216,-1.78 1.324,0.022c2.192,35.351 2.018,60.915 6.467,93.467c2.561,19.423 3.603,40.669 6.836,59.961c2.908,17.014 12.023,47.179 12.088,47.179c106.879,0 112.565,4.492 219.444,4.492c-7.747,-17.144 -14.735,-125.325 -15.147,-134.787c-0.261,-6.315 -3.776,-131.662 -3.255,-151.996" style="fill:#c40000;fill-rule:nonzero;"/></g></g><g><clipPath id="_clip20"><rect x="791.037" y="37.956" width="249.87" height="11.35"/></clipPath><g clip-path="url(#_clip20)"><path d="M1324.44,48.98l-841.949,0l-0,-9.7l841.949,-0l-0,9.7" style="fill:#d4983d;fill-rule:nonzero;"/></g></g><g><clipPath id="_clip21"><rect x="791.037" y="26.628" width="249.87" height="15.039"/></clipPath><g clip-path="url(#_clip21)"><path d="M1324.44,41.146l-841.949,-0l-0,-13.13l841.949,0l-0,13.13" style="fill:#d4983d;fill-rule:nonzero;"/></g></g><g><clipPath id="_clip22"><rect x="791.037" y="20.79" width="20.074" height="54.21"/></clipPath><g clip-path="url(#_clip22)"><path d="M810.677,72.005l-42.838,0l-0,-51.063l42.838,-0l0,51.063" style="fill:#c40000;fill-rule:nonzero;"/></g></g><g><path d="M1039.08,72.005l-42.838,0l-0,-51.063l42.838,-0l0,51.063" style="fill:#c40000;fill-rule:nonzero;"/></g><g><path d="M1036.44,67.904l-37.696,-0l0,-46.962l37.696,-0l-0,46.962" style="fill:#c40000;fill-rule:nonzero;"/></g><g><clipPath id="_clip23"><rect x="791.037" y="20.79" width="20.074" height="48.655"/></clipPath><g clip-path="url(#_clip23)"><path d="M808.03,67.904l-37.696,-0l0,-46.962l37.696,-0l-0,46.962" style="fill:#c40000;fill-rule:nonzero;"/></g></g><g><clipPath id="_clip24"><rect x="95.768" y="20.79" width="20.812" height="66.623"/></clipPath><g clip-path="url(#_clip24)"><rect x="97.244" y="-129.97" width="217.773" height="217.795" style="fill:#c40000;fill-rule:nonzero;"/><path d="M315.017,89.301l-217.773,0c-0.825,0 -1.476,-0.651 -1.476,-1.475l0,-217.796c0,-0.803 0.651,-1.454 1.476,-1.454l217.773,0c0.825,0 1.476,0.651 1.476,1.454l0,217.796c0,0.824 -0.651,1.475 -1.476,1.475Zm-216.319,-2.951l214.844,-0l-0,-214.844l-214.844,0l-0,214.844Z" style="fill:#c40000;fill-rule:nonzero;"/></g></g><g><clipPath id="_clip25"><rect x="318.012" y="20.79" width="20.812" height="66.623"/></clipPath><g clip-path="url(#_clip25)"><rect x="319.466" y="-129.97" width="217.795" height="217.795" style="fill:#c40000;fill-rule:nonzero;"/><path d="M537.261,89.301l-217.795,0c-0.825,0 -1.454,-0.651 -1.454,-1.475l0,-217.796c0,-0.803 0.629,-1.454 1.454,-1.454l217.795,0c0.825,0 1.476,0.651 1.476,1.454l-0,217.796c-0,0.824 -0.651,1.475 -1.476,1.475Zm-216.319,-2.951l214.844,-0l-0,-214.844l-214.844,0l-0,214.844Z" style="fill:#c40000;fill-rule:nonzero;"/></g></g><g><clipPath id="_clip26"><rect x="1034.25" y="20.79" width="20.833" height="66.623"/></clipPath><g clip-path="url(#_clip26)"><rect x="1035.72" y="-129.97" width="217.795" height="217.795" style="fill:#c40000;fill-rule:nonzero;"/><path d="M1253.52,89.301l-217.796,0c-0.824,0 -1.475,-0.651 -1.475,-1.475l-0,-217.796c-0,-0.803 0.651,-1.454 1.475,-1.454l217.796,0c0.824,0 1.454,0.651 1.454,1.454l-0,217.796c-0,0.824 -0.63,1.475 -1.454,1.475Zm-216.32,-2.951l214.844,-0l-0,-214.844l-214.844,0l0,214.844Z" style="fill:#c40000;fill-rule:nonzero;"/></g></g><g><clipPath id="_clip27"><rect x="1203.21" y="20.79" width="20.833" height="66.623"/></clipPath><g clip-path="url(#_clip27)"><rect x="1204.69" y="-129.97" width="217.795" height="217.795" style="fill:#c40000;fill-rule:nonzero;"/><path d="M1422.48,89.301l-217.795,0c-0.825,0 -1.476,-0.651 -1.476,-1.475l-0,-217.796c-0,-0.803 0.651,-1.454 1.476,-1.454l217.795,0c0.824,0 1.454,0.651 1.454,1.454l-0,217.796c-0,0.824 -0.63,1.475 -1.454,1.475Zm-216.32,-2.951l214.844,-0l-0,-214.844l-214.844,0l0,214.844Z" style="fill:#c40000;fill-rule:nonzero;"/></g></g><g><path d="M272.331,162.413c-0,-0.022 -0.022,-0.043 -0.044,-0.065c-1.193,-2.322 -2.908,-4.167 -5.165,-5.534c-2.235,-1.345 -4.665,-2.04 -7.291,-2.018l-59.744,0l-0,-4.709l65.191,-0l-5.035,-6.185c-4.861,-5.968 -10.308,-11.35 -16.384,-16.124c-6.055,-4.753 -12.566,-8.789 -19.532,-12.088c-6.966,-3.32 -14.192,-5.816 -21.723,-7.509c-7.53,-1.692 -15.126,-2.517 -22.851,-2.517c-57.249,0 -103.82,46.593 -103.82,103.841c0,9.267 1.215,18.381 3.646,27.344c0.26,1.02 0.868,1.779 1.78,2.3c0.911,0.521 1.866,0.651 2.886,0.369c0.998,-0.282 1.779,-0.868 2.278,-1.779c0.521,-0.912 0.651,-1.867 0.369,-2.887c-2.257,-8.29 -3.385,-16.753 -3.385,-25.347c-0,-53.081 43.186,-96.245 96.246,-96.245c11.979,-0.022 23.546,2.126 34.722,6.445c11.154,4.297 21.18,10.503 30.013,18.555c1.519,1.367 -110.048,8.593 -110.048,8.593l0,3.234l24.631,-0l0,4.709l-24.631,0l0,3.234c0,-0 10.07,-0.109 24.631,0.065l0,19.878c0,30.425 -24.761,55.165 -55.186,55.165c-0.76,-0.022 -1.411,0.239 -1.954,0.76c-0.564,0.542 -0.824,1.193 -0.824,1.953c-0,0.759 0.26,1.41 0.824,1.931c0.543,0.543 1.194,0.803 1.954,0.781c8.116,0 15.928,-1.562 23.415,-4.709c-0.911,0.825 -1.15,1.823 -0.694,2.973c0.434,1.15 1.28,1.715 2.517,1.715c22.765,-0 41.298,-27.17 41.298,-60.591l0,-19.661l0.499,-0l0,19.683c0,31.576 -8.746,55.165 -16.58,55.165c-0.738,0.022 -1.345,0.304 -1.866,0.825c-0.521,0.521 -0.76,1.15 -0.76,1.888c0,0.738 0.239,1.367 0.76,1.888c0.521,0.521 1.128,0.803 1.866,0.824c14.301,0 22.005,-31.228 22.005,-60.59l0,-19.553l0.521,0.022l0,77.409c0,0.738 0.261,1.389 0.782,1.909c0.542,0.521 1.171,0.803 1.931,0.803c0.738,0 1.367,-0.282 1.91,-0.803c0.521,-0.52 0.781,-1.171 0.781,-1.909l-0,-77.257l0.521,0.021l-0,19.358c-0,29.362 7.704,60.59 22.005,60.59c0.738,-0.021 1.345,-0.303 1.866,-0.824c0.521,-0.521 0.76,-1.15 0.76,-1.888c-0,-0.738 -0.239,-1.367 -0.76,-1.888c-0.521,-0.521 -1.128,-0.803 -1.866,-0.825c-7.834,0 -16.58,-23.589 -16.58,-55.165l0,-19.162l0.499,0.021l0,19.141c0,33.399 18.533,60.59 41.298,60.59c1.237,0 2.083,-0.564 2.539,-1.714c0.456,-1.172 0.217,-2.17 -0.694,-2.995c7.487,3.147 15.277,4.709 23.394,4.688c0.759,0.021 1.41,-0.217 1.953,-0.76c0.564,-0.521 0.825,-1.172 0.825,-1.931c-0,-0.782 -0.261,-1.411 -0.825,-1.953c-0.543,-0.521 -1.194,-0.782 -1.953,-0.76c-30.426,0 -55.187,-24.761 -55.187,-55.187l0,-18.619c26.085,1.345 52.083,4.014 61.415,9.223c12.782,7.161 14.54,26.15 14.54,40.95c-0,4.905 -0.369,9.788 -1.107,14.649c-0.738,4.839 -1.844,9.613 -3.32,14.301c-1.476,4.687 -3.277,9.223 -5.447,13.628c-2.17,4.406 -4.666,8.637 -7.487,12.652c-2.821,4.015 -5.925,7.813 -9.31,11.35c-3.407,3.559 -7.053,6.814 -10.938,9.809c-3.906,2.995 -8.007,5.664 -12.304,8.008c-4.319,2.365 -8.768,4.384 -13.39,6.055l-0.043,-0c-1.65,0.607 -2.995,1.627 -4.015,3.081c-1.02,1.454 -1.541,3.082 -1.541,4.861l0,1.997c0,0.911 -0.304,1.671 -0.955,2.3c-0.629,0.651 -1.389,0.955 -2.3,0.955l-48.199,0c-0.911,0 -1.671,-0.304 -2.3,-0.955c-0.651,-0.629 -0.955,-1.389 -0.955,-2.3l-0,-1.997c-0,-1.779 -0.521,-3.385 -1.541,-4.839c-1.02,-1.454 -2.365,-2.496 -4.015,-3.082l-0.065,-0.021c-11.285,-4.102 -21.441,-10.092 -30.469,-17.991c-9.027,-7.899 -16.297,-17.187 -21.853,-27.821c-1.128,-2.148 0.478,-4.731 2.908,-4.731l162.565,0c0.564,0 1.107,-0.13 1.628,-0.369c0.521,-0.26 0.955,-0.608 1.324,-1.042c0.347,-0.455 0.607,-0.954 0.737,-1.497c0.131,-0.564 0.131,-1.128 0.022,-1.693c-0.369,-1.757 -2.018,-2.994 -3.819,-2.994l-163.737,-0c-7.487,-0 -12.348,7.877 -8.985,14.561l0.044,0.109c5.816,11.501 13.498,21.571 23.09,30.208c9.592,8.637 20.399,15.234 32.465,19.813c1.389,0.543 2.105,1.541 2.105,3.039l0,1.432c0,1.302 0.261,2.539 0.738,3.733c0.499,1.193 1.215,2.256 2.127,3.168c0.911,0.911 1.953,1.628 3.168,2.105c1.194,0.499 2.431,0.76 3.733,0.76l50.369,-0c1.302,-0 2.539,-0.261 3.733,-0.76c1.193,-0.477 2.257,-1.194 3.168,-2.105c0.911,-0.912 1.606,-1.975 2.105,-3.168c0.499,-1.194 0.738,-2.431 0.738,-3.733l-0,-1.432c0.022,-1.498 0.716,-2.518 2.127,-3.039c3.385,-1.302 6.705,-2.756 9.939,-4.405c3.233,-1.649 6.38,-3.45 9.418,-5.425c3.06,-1.975 5.99,-4.102 8.811,-6.381c2.821,-2.3 5.534,-4.709 8.095,-7.269c2.56,-2.561 4.991,-5.252 7.291,-8.073c2.279,-2.822 4.406,-5.751 6.402,-8.789c1.975,-3.06 3.798,-6.185 5.447,-9.419c1.65,-3.233 3.125,-6.554 4.427,-9.939c1.302,-3.386 2.431,-6.836 3.364,-10.33c0.955,-3.516 1.714,-7.053 2.279,-10.634c0.586,-3.58 0.955,-7.183 1.15,-10.807c0.195,-3.624 0.195,-7.248 0.022,-10.894c-0.196,-3.624 -0.565,-7.227 -1.129,-10.807c-0.564,-3.581 -1.324,-7.14 -2.257,-10.634c-0.933,-3.516 -2.04,-6.966 -3.342,-10.352c-1.302,-3.385 -2.778,-6.705 -4.405,-9.939Zm-77.67,-7.617l-0.52,0l-0,-4.709l0.52,-0l0,4.709Zm-30.164,-4.709l0.499,-0l-0,4.709l-0.499,0l-0,-4.709Zm0.499,27.886c-0,30.425 -16.081,55.165 -35.873,55.165c-0.065,0 -0.152,0 -0.217,0.022c20.964,-9.549 35.591,-30.708 35.591,-55.187l-0,-19.792l0.499,0l-0,19.792Zm5.425,-23.177l0,-4.709l0.521,-0l-0,4.709l-0.521,0Zm5.924,0l0,-4.709l0.521,-0l0,4.709l-0.521,0Zm5.947,0l-0,-4.709l0.499,-0l-0,4.709l-0.499,0Zm5.924,0l0,-4.709l0.521,-0l-0,4.709l-0.521,0Zm42.036,78.364c-0.087,-0 -0.152,-0.022 -0.217,-0.022c-19.792,0 -35.894,-24.74 -35.894,-55.165l-0,-18.924l0.52,0.022l0,18.902c0,24.479 14.605,45.638 35.591,55.187Z" style="fill-rule:nonzero;"/></g><g><rect x="1264.8" y="27.669" width="4424.09" height="22.439" style="fill:#d4983d;fill-rule:nonzero;"/></g><g><g><g><path d="M499.459,209.342c-0.412,3.472 -1.801,5.881 -4.166,7.205c-2.388,1.28 -5.187,1.909 -8.421,1.909c-3.602,0 -7.161,-0.195 -10.677,-0.607c-3.776,-0.391 -7.465,-0.608 -11.111,-0.608c-10.373,0 -20.725,0.521 -31.076,1.563c-10.373,0.998 -20.573,2.56 -30.642,4.687c-5.274,0.933 -10.504,1.888 -15.712,2.865c-5.165,0.933 -10.417,1.389 -15.799,1.389c-4.167,-0 -8.116,-0.608 -11.805,-1.823c-3.711,-1.216 -6.901,-3.429 -9.549,-6.684c-2.148,-2.539 -3.212,-5.23 -3.212,-8.073c0,-1.498 0.478,-2.561 1.476,-3.212c0.976,-0.695 2.279,-1.237 3.906,-1.649l0.261,-0.608c-1.802,-0.911 -3.646,-1.845 -5.556,-2.778c-1.866,-0.976 -3.516,-2.127 -4.948,-3.472c-2.148,-1.91 -4.123,-4.622 -5.903,-8.16c-1.736,-3.58 -2.604,-6.857 -2.604,-9.809c0,-2.647 1.215,-4.253 3.646,-4.774c2.43,-0.564 4.557,-1.129 6.424,-1.649c0.976,-0.282 2.951,-1.259 5.902,-2.952c2.952,-1.671 6.359,-3.776 10.243,-6.337c3.928,-2.539 7.856,-5.143 11.806,-7.812c3.993,-2.713 7.509,-5.143 10.59,-7.292c3.125,-2.192 5.209,-3.754 6.25,-4.687c1.085,-0.695 2.127,-1.433 3.125,-2.257c1.042,-0.803 2.105,-1.519 3.212,-2.17c0.738,-0.565 1.91,-1.389 3.472,-2.431c1.563,-1.085 2.344,-1.91 2.344,-2.43c-0,-0.391 -0.217,-0.999 -0.608,-1.823c-0.412,-0.803 -0.607,-1.606 -0.607,-2.431c-0,-3.646 0.998,-6.619 3.038,-8.941c2.018,-2.365 4.557,-4.167 7.639,-5.382c3.125,-1.215 6.293,-1.866 9.548,-1.996c1.042,-0.174 1.91,-0.261 2.605,-0.261l1.996,0c0.912,0 2.018,0.13 3.299,0.347c1.258,0.174 2.864,0.413 4.774,0.695l3.212,0.434c1.085,0.13 2.105,0.325 3.038,0.608c1.215,0.412 2.344,0.781 3.385,1.128c1.086,0.304 2.257,0.781 3.473,1.476c0.911,0.521 1.866,1.193 2.864,1.996c1.042,0.825 1.91,1.563 2.604,2.257c1.606,1.867 2.691,3.516 3.212,4.948c0.521,1.389 1.064,3.299 1.65,5.729c0.108,0.413 0.564,0.825 1.388,1.216l18.143,9.114c4.861,2.387 9.744,5.078 14.67,8.073c4.904,2.951 9.657,6.055 14.236,9.288c2.127,1.346 4.471,3.017 7.031,5.035c2.539,2.04 4.297,3.776 5.295,5.208c1.737,2.561 3.256,5.426 4.601,8.594c1.324,3.19 1.997,6.315 1.997,9.375c-0,4.579 -1.454,8.811 -4.341,12.674c-2.908,3.819 -6.749,5.729 -11.545,5.729c-1.389,-0 -2.756,-0.022 -4.08,-0.087c-1.345,-0.108 -2.669,-0.217 -3.993,-0.347Zm-14.757,46.18l-0.173,0.434c2.257,1.737 4.383,3.212 6.423,4.427c2.019,1.216 4.102,2.995 6.25,5.296c2.952,3.081 5.513,6.597 7.726,10.59c2.257,3.95 3.385,8.138 3.385,12.587c0,5.902 -1.475,10.698 -4.427,14.409c-2.951,3.69 -7.617,5.556 -13.975,5.556c-1.867,-0 -3.907,-0.26 -6.163,-0.781c-2.214,-0.521 -4.124,-1.476 -5.73,-2.865c-1.345,-1.042 -2.691,-2.213 -4.08,-3.472c-1.345,-1.28 -2.322,-2.821 -2.951,-4.601c-1.107,-2.951 -2.062,-4.427 -2.864,-4.427c-0.521,0 -0.999,0.044 -1.389,0.174l-24.393,4.514l-25.26,5.989c-4.167,0.695 -8.203,1.259 -12.066,1.736c-3.82,0.456 -8.073,0.695 -12.761,0.695c-7.421,-0 -13.715,-0.608 -18.923,-1.823c-5.165,-1.215 -10.894,-3.776 -17.188,-7.639c-3.255,-2.04 -6.206,-4.731 -8.854,-8.073c-2.604,-3.342 -3.906,-7.053 -3.906,-11.111c-0,-3.06 0.868,-5.664 2.604,-7.813c1.78,-2.191 3.494,-4.427 5.122,-6.684c-0.999,-0.694 -1.975,-1.302 -2.952,-1.822c-0.998,-0.521 -2.04,-1.064 -3.125,-1.65c-2.322,-1.215 -4.297,-3.407 -5.903,-6.597c-1.562,-3.234 -2.343,-6.076 -2.343,-8.507c-0,-1.324 0.434,-2.604 1.302,-3.819c0.868,-1.216 1.953,-1.823 3.298,-1.823c1.498,-0 2.973,0.065 4.427,0.173c1.498,0.13 2.974,0.174 4.428,0.174c0.976,-0 3.342,-0.282 7.118,-0.868c3.754,-0.629 8.246,-1.411 13.454,-2.344c5.252,-0.911 10.591,-1.866 15.973,-2.864c5.382,-1.042 10.156,-1.954 14.323,-2.778c4.166,-0.803 7.053,-1.324 8.68,-1.563c4.037,-0.694 8.095,-1.237 12.153,-1.649c4.036,-0.391 8.073,-0.738 12.066,-1.042c3.342,-0.217 6.641,-0.477 9.896,-0.781c3.233,-0.282 6.467,-0.477 9.722,-0.608l15.538,-1.041c0.217,-0 0.478,0.065 0.781,0.173c0.283,0.065 0.543,0.087 0.782,0.087l0.868,0c1.844,0 3.689,-0.043 5.555,-0.173c1.91,-0.174 3.755,-0.261 5.556,-0.261c5.078,0 10.286,0.738 15.625,2.17c5.317,1.389 9.657,4.123 13.021,8.16c1.606,1.736 2.951,3.733 3.993,5.99c1.085,2.213 1.649,4.492 1.649,6.857c0,3.429 -1.454,6.228 -4.34,8.42c-2.908,2.214 -5.903,3.299 -9.028,3.299c-1.736,-0 -3.537,-0.109 -5.382,-0.347c-1.801,-0.282 -3.624,-0.63 -5.469,-1.042c-0.933,-0.282 -1.953,-0.477 -3.038,-0.608c-1.107,-0.108 -2.127,-0.26 -3.038,-0.434l-1.997,0Zm-101.562,-57.291c0.976,-0.109 2.387,-0.456 4.253,-1.042c1.91,-0.629 3.386,-1.085 4.427,-1.389c2.431,-0.911 4.536,-1.562 6.337,-1.91c1.845,-0.347 4.254,-0.976 7.205,-1.909c3.125,-1.216 6.771,-2.17 10.938,-2.865c4.166,-0.738 8.376,-1.345 12.673,-1.823c4.34,-0.521 8.095,-0.89 11.285,-1.128c4.34,-0.565 8.637,-0.912 12.934,-1.042l12.934,-0.434l-0.608,-0.608l-14.149,-8.68c-1.345,-0.912 -2.756,-1.823 -4.253,-2.691c-1.454,-0.868 -2.93,-1.606 -4.428,-2.257c-1.454,-0.695 -3.385,-1.649 -5.815,-2.865c-2.431,-1.215 -4.406,-1.823 -5.903,-1.823c-1.346,0 -2.648,0.326 -3.907,0.955c-1.28,0.586 -2.473,1.281 -3.559,2.084l-13.107,9.895l-1.389,1.216l-21.354,14.062c-0.586,0.304 -1.606,0.847 -3.038,1.65c-1.389,0.824 -1.954,1.54 -1.65,2.17l0.174,0.434Zm-8.854,80.295c1.215,0.694 2.691,1.042 4.427,1.042c2.951,-0 6.792,-0.652 11.545,-1.997c4.796,-1.324 9.635,-2.821 14.496,-4.514c4.862,-1.736 8.768,-3.06 11.719,-3.993c5.382,-1.736 10.938,-3.212 16.667,-4.427c5.729,-1.215 11.328,-2.17 16.84,-2.865c0.521,-0.108 0.977,-0.434 1.389,-0.954c-1.042,-2.019 -2.04,-3.429 -2.951,-4.254c-0.868,-0.803 -2.127,-1.215 -3.733,-1.215l-1.562,-0l-16.754,1.649l-15.972,1.997c-4.167,0.52 -8.485,1.801 -12.934,3.819c-4.406,2.04 -8.377,4.058 -11.893,6.076c-2.148,1.346 -4.21,2.757 -6.163,4.254c-1.909,1.454 -3.624,3.255 -5.121,5.382Z" style="fill-rule:nonzero;"/></g></g></g><g><g><g><path d="M750.694,277.137c1.432,0.933 2.886,1.866 4.34,2.778c1.497,0.868 2.799,1.975 3.906,3.298c1.085,1.216 2.084,2.648 2.952,4.254c0.868,1.606 1.302,3.233 1.302,4.861c-0,2.778 -0.738,5.49 -2.17,8.16c-1.389,2.712 -3.256,5.034 -5.556,6.944c-1.866,1.736 -4.145,2.865 -6.858,3.386c-2.669,0.564 -5.273,0.868 -7.812,0.868c-3.125,-0 -7.357,-0.825 -12.674,-2.431c-5.273,-1.628 -10.069,-3.863 -14.41,-6.684l-14.322,-7.465c-1.737,-0.695 -3.733,-1.606 -5.99,-2.691c-2.214,-1.042 -4.232,-1.563 -6.076,-1.563c-2.605,0 -5.556,0.912 -8.855,2.778c-3.298,1.91 -7.443,4.47 -12.413,7.726c-2.257,1.497 -5.62,2.799 -10.069,3.906c-4.471,1.15 -8.29,1.823 -11.459,1.996l-17.795,0.782l-4.427,-0.608c-3.125,-0.412 -6.684,-0.911 -10.677,-1.476c-3.949,-0.52 -7.617,-1.128 -11.024,-1.823c-3.429,-0.651 -5.946,-1.432 -7.552,-2.343c-3.125,-1.91 -5.86,-3.95 -8.16,-6.077c-2.257,-2.148 -3.385,-4.904 -3.385,-8.246c-0,-3.516 1.302,-6.424 3.906,-8.681c2.647,-2.3 5.859,-4.383 9.635,-6.25c-0.933,-1.909 -1.823,-3.754 -2.691,-5.555c-0.868,-1.845 -1.606,-3.776 -2.17,-5.816c-0.651,-2.648 -1.085,-5.339 -1.302,-8.073c-0.174,-2.778 -0.26,-5.512 -0.26,-8.247c-0,-3.233 0.282,-7.422 0.868,-12.587c0.629,-5.208 1.215,-10.156 1.736,-14.843c0.108,-1.085 0.26,-2.279 0.434,-3.559c0.217,-1.259 0.456,-2.431 0.694,-3.473c0.282,-1.085 0.434,-2.105 0.434,-3.038c0,-0.282 -0.152,-0.694 -0.434,-1.215c-0.238,-0.564 -0.824,-1.519 -1.736,-2.865c-0.824,-1.215 -1.215,-2.539 -1.215,-3.993c-0,-3.645 1.15,-6.185 3.472,-7.639c2.366,-1.497 5.165,-2.256 8.42,-2.256c2.713,-0 5.252,0.564 7.639,1.649c2.431,1.042 4.644,2.387 6.684,3.993c0.521,0.412 0.977,0.825 1.389,1.215c0.391,0.413 0.89,0.738 1.476,0.955l0.607,-0.174l19.358,-3.993l19.358,-3.298c2.951,-0.521 5.837,-1.085 8.68,-1.736c2.821,-0.695 5.729,-1.172 8.681,-1.476l15.364,-1.215c4.688,-0.217 9.462,-0.304 14.323,-0.261c4.861,0.065 9.571,0.651 14.15,1.736c2.365,0.413 5.208,1.085 8.507,1.997c3.298,0.933 6.532,2.083 9.722,3.472c3.168,1.346 5.642,2.778 7.378,4.34c2.648,2.322 4.97,4.862 6.945,7.639c1.953,2.735 3.407,5.86 4.34,9.375c0.521,1.454 0.868,2.995 1.042,4.601c0.217,1.628 0.477,3.19 0.781,4.687l0.434,16.32l0.174,18.403c-0,4.166 -0.651,7.682 -1.91,10.503c-1.281,2.778 -3.19,5.794 -5.729,9.028Zm-47.83,-98.872l-15.191,0l-21.962,2.605l-7.465,1.215l-18.577,3.819c-1.736,0.174 -3.537,0.413 -5.382,0.695c-1.801,0.238 -3.645,0.347 -5.555,0.347c-3.776,-0 -7.465,-0.629 -11.111,-1.91c-3.603,-1.258 -7.27,-2.192 -11.025,-2.778c-2.213,-0.217 -4.123,-1.345 -5.729,-3.385c-1.562,-2.018 -2.843,-3.993 -3.819,-5.903c-1.346,-2.647 -2.235,-5.49 -2.691,-8.507c-0.478,-3.06 -0.695,-6.076 -0.695,-9.027c0,-1.216 0.022,-2.431 0.087,-3.646c0.044,-1.216 0.13,-2.344 0.261,-3.386c0.173,-0.911 0.303,-1.757 0.434,-2.517c0.108,-0.738 0.173,-1.519 0.173,-2.344c0,-0.911 -1.02,-2.127 -3.038,-3.646c-0.933,-0.629 -1.606,-1.584 -1.996,-2.864c-0.413,-1.324 -0.608,-2.518 -0.608,-3.559c-0,-3.125 1.128,-5.426 3.385,-6.945c2.301,-1.562 4.883,-2.343 7.726,-2.343c3.516,-0 6.467,0.672 8.854,1.996c2.431,1.346 5.729,3.559 9.896,6.684c4.167,-1.497 8.355,-2.908 12.587,-4.253l12.5,-4.08c3.581,-1.15 7.291,-2.17 11.111,-3.038c3.863,-0.912 7.639,-1.693 11.285,-2.344c2.647,-0.564 5.751,-1.064 9.288,-1.476c3.581,-0.39 7.205,-0.738 10.851,-1.042c3.645,-0.347 6.814,-0.564 9.548,-0.694c2.778,-0.174 4.644,-0.26 5.643,-0.26c5.49,-0 11.219,0.911 17.187,2.691c6.011,1.736 11.306,3.971 15.885,6.684c4.558,2.669 8.377,6.119 11.459,10.329c3.125,4.232 4.687,9.093 4.687,14.584c0,1.91 -0.26,3.472 -0.781,4.687c-1.215,2.561 -2.04,4.254 -2.431,5.122c-0.412,0.868 -0.607,1.519 -0.607,1.91c-0,0.412 0.13,0.998 0.434,1.736c0.347,0.759 0.998,2.257 1.996,4.514c0.391,0.824 0.63,1.627 0.695,2.43c0.043,0.825 0.087,1.628 0.087,2.431c-0,3.363 -0.999,6.206 -2.952,8.507c-1.909,2.257 -4.644,3.385 -8.159,3.385c-1.867,0 -3.777,-0.217 -5.73,-0.694c-1.974,-0.456 -3.884,-1.042 -5.729,-1.737c-0.998,-0.39 -2.061,-0.737 -3.212,-1.041c-1.106,-0.347 -2.213,-0.608 -3.298,-0.781l-18.316,-2.171Zm-78.733,-13.715l35.938,-7.292l18.576,-2.17c2.257,-0.282 4.883,-0.607 7.899,-0.955c3.06,-0.347 4.992,-0.52 5.816,-0.52l3.646,-0c0.912,-0.521 2.127,-1.389 3.646,-2.605c1.562,-1.215 2.973,-2.517 4.253,-3.906c1.259,-1.432 1.91,-2.691 1.91,-3.732c0,-1.606 -0.304,-2.605 -0.868,-2.952c-0.586,-0.347 -1.627,-0.521 -3.125,-0.521c-3.255,0 -6.467,0.217 -9.635,0.608c-3.125,0.412 -6.25,0.825 -9.375,1.215l-16.754,4.688l-10.243,2.778l-16.927,2.864c-0.998,0.13 -1.888,0.174 -2.691,0.174l-2.778,-0c-1.106,-0 -2.322,0.087 -3.645,0.26c-1.346,0.13 -2.344,0.174 -3.039,0.174l-3.819,-0c0.108,2.04 0.195,4.058 0.26,6.076c0.109,1.975 0.434,3.906 0.955,5.816Zm-6.51,62.587l8.507,-0.868l17.534,-4.254l2.865,-0.954l17.187,-4.254l12.848,-2.43l17.795,-1.389c0.694,-0.174 1.931,-0.109 3.732,0.173c1.78,0.304 3.668,0.608 5.643,0.955c1.953,0.304 3.472,0.651 4.514,1.042c1.215,0.586 2.387,1.215 3.559,1.91c1.15,0.651 2.344,1.302 3.559,1.996c-0,-0.694 0.022,-1.432 0.087,-2.257c0.043,-0.803 0.086,-1.606 0.086,-2.43c0,-2.019 -0.954,-3.473 -2.864,-4.341c-1.866,-0.868 -3.972,-1.345 -6.337,-1.475c-2.322,-0.174 -4.232,-0.261 -5.729,-0.261l-4.861,0c-1.736,0 -3.386,0.065 -4.948,0.174c-1.563,0.065 -3.277,0.217 -5.122,0.434l-19.357,3.038l-27.865,6.076c-3.364,0.825 -6.814,1.216 -10.33,1.216c-3.472,-0 -6.64,-0.456 -9.462,-1.389c-0.303,1.454 -0.564,2.929 -0.781,4.427c-0.173,1.454 -0.26,3.081 -0.26,4.861Zm96.093,24.219c-3.645,-1.085 -7.161,-1.65 -10.503,-1.65l-9.635,0c-3.95,0 -7.184,0.217 -9.723,0.608l-17.187,2.778l-8.854,1.476l-14.497,3.211c-2.734,0.521 -5.512,0.999 -8.333,1.389c-2.778,0.413 -5.534,0.608 -8.247,0.608c-1.519,-0 -2.951,-0.195 -4.34,-0.608c-1.389,-0.39 -2.843,-0.868 -4.34,-1.389c0.108,1.107 0.217,2.236 0.347,3.386c0.174,1.107 0.304,2.213 0.434,3.298c1.78,0 4.015,-0.021 6.684,-0.086c2.713,-0.109 5.404,-0.217 8.073,-0.348c2.713,-0.108 4.861,-0.304 6.424,-0.607l18.229,-3.646l11.718,-2.431l17.362,-1.996l18.489,-1.042l6.858,0c0.282,-0.521 0.477,-0.998 0.607,-1.476c0.174,-0.455 0.304,-0.954 0.434,-1.475Zm1.216,-15.191c0.108,-0.803 0.195,-1.563 0.26,-2.257c0.109,-0.738 0.174,-1.519 0.174,-2.344c-1.91,-0.694 -3.863,-1.259 -5.816,-1.736c-1.91,-0.456 -3.885,-0.781 -5.903,-0.955c-0.933,-0.108 -2.648,-0.195 -5.121,-0.26c-2.496,-0.044 -4.927,-0.087 -7.292,-0.087c-2.387,-0 -3.885,0.065 -4.514,0.173l-20.052,3.212l-18.142,4.254l-13.542,3.212c-2.149,0.412 -4.254,0.781 -6.337,1.128c-2.083,0.347 -4.21,0.521 -6.337,0.521c-0.933,-0 -1.801,-0.087 -2.604,-0.261c-0.825,-0.217 -1.628,-0.39 -2.43,-0.52l-0,4.253c-0,0.521 0.043,0.998 0.173,1.389c1.91,-0 3.841,-0.087 5.816,-0.26c2.018,-0.217 3.993,-0.434 5.903,-0.608c1.606,-0.217 3.233,-0.564 4.861,-1.042c1.606,-0.455 3.234,-0.89 4.861,-1.302c5.078,-0.976 10.113,-1.996 15.104,-3.038l14.931,-3.212c4.687,-1.085 9.462,-1.953 14.323,-2.604c4.861,-0.694 9.57,-1.042 14.149,-1.042c2.648,0 5.295,0.326 7.899,0.955c2.648,0.586 5.86,1.389 9.636,2.431Zm-69.618,42.361c-0.521,-0.109 -1.042,-0.217 -1.563,-0.347c-0.477,-0.174 -1.02,-0.261 -1.649,-0.261l-1.649,0c-0.521,0 -1.194,0.087 -1.997,0.261l-11.285,1.215c-3.125,0.239 -6.38,0.738 -9.722,1.476c-3.364,0.759 -5.035,1.996 -5.035,3.732c0,0.933 0.738,1.693 2.257,2.257c1.563,0.521 3.234,0.868 5.035,1.042c1.845,0.13 3.168,0.173 3.993,0.173c3.234,0 6.988,-0.824 11.285,-2.517c4.34,-1.671 7.769,-4.015 10.33,-7.031Z" style="fill-rule:nonzero;"/></g></g></g><g><g><g><path d="M821.286,226.269c-0,-1.845 0.39,-3.038 1.215,-3.559c0.803,-0.564 1.931,-0.912 3.385,-1.042c0.695,-0.173 1.433,-0.477 2.257,-0.955c0.803,-0.455 1.411,-0.738 1.823,-0.868c3.581,-2.018 7.205,-3.949 10.851,-5.816c3.646,-1.909 7.335,-3.819 11.111,-5.729c8.095,-3.993 16.319,-8.029 24.653,-12.153c8.333,-4.101 16.601,-7.639 24.826,-10.59c7.227,-2.713 14.627,-4.774 22.222,-6.163c7.639,-1.432 15.365,-2.17 23.177,-2.17c7.119,-0 13.998,1.02 20.66,3.038c6.641,2.04 13.021,4.926 19.097,8.681c3.473,2.148 6.815,4.73 10.07,7.725c3.233,2.952 5.903,6.25 7.986,9.896c2.083,3.602 3.125,7.617 3.125,12.066c-0,5.382 -1.91,10.048 -5.729,13.976c-3.82,3.884 -8.507,5.816 -14.063,5.816c-3.363,-0 -6.944,-0.651 -10.764,-1.997c-3.819,-1.389 -7.595,-2.973 -11.284,-4.774c-3.711,-1.845 -7.118,-3.494 -10.243,-4.948c-1.346,-0.695 -2.756,-1.085 -4.254,-1.215c-1.454,-0.109 -2.93,-0.174 -4.427,-0.174c-3.646,0 -8.29,0.694 -13.889,2.083c-5.555,1.389 -11.068,3.017 -16.493,4.861c-5.447,1.802 -9.983,3.451 -13.628,4.948c-4.579,1.737 -9.506,3.625 -14.757,5.643c-5.209,2.04 -10.504,3.776 -15.886,5.208c-5.382,1.389 -10.568,2.083 -15.538,2.083c-4.579,0 -9.114,-0.781 -13.628,-2.343c-4.514,-1.563 -8.507,-3.755 -11.98,-6.598c-1.909,-1.432 -4.058,-3.645 -6.423,-6.597c-2.322,-2.995 -3.472,-5.772 -3.472,-8.333Z" style="fill-rule:nonzero;"/></g></g></g><g><g><g><path d="M1133.83,149.487c-0.173,0.13 -0.412,0.434 -0.694,0.954c-0.239,0.478 -0.348,0.825 -0.348,1.042l0,1.389c0,0.586 -0.065,0.998 -0.173,1.215c0.911,-0.108 1.996,-0.195 3.212,-0.26c1.215,-0.044 2.343,-0.087 3.385,-0.087c2.821,0 5.23,0.521 7.205,1.563c1.953,0.998 4.818,2.951 8.594,5.902c1.432,-2.3 3.06,-4.275 4.861,-5.902c1.844,-1.606 3.841,-3.082 5.989,-4.427c2.301,-1.433 4.341,-3.06 6.077,-4.862c-0.933,-1.432 -1.389,-2.821 -1.389,-4.166c-0,-3.125 1.324,-5.426 3.993,-6.945c2.713,-1.562 5.404,-2.343 8.073,-2.343c5.382,-0 9.635,1.54 12.76,4.6c1.042,1.107 1.932,2.301 2.691,3.559c0.738,1.281 1.129,2.474 1.129,3.559c-0,1.172 -0.239,2.409 -0.695,3.733c-0.477,1.28 -1.193,2.843 -2.17,4.687l0.608,0c5.143,-1.844 10.46,-3.754 15.972,-5.729c5.49,-1.953 11.068,-2.951 16.753,-2.951c2.648,-0 5.665,0.412 9.028,1.215c3.407,0.825 6.38,2.17 8.941,4.08c2.539,1.866 3.82,4.47 3.82,7.813c-0,2.322 -0.825,4.296 -2.431,5.902c-1.627,1.628 -3.559,2.431 -5.816,2.431c-1.801,-0 -3.602,-0.022 -5.382,-0.087c-1.801,-0.108 -3.646,-0.174 -5.555,-0.174c-8.334,0 -16.472,1.216 -24.393,3.646c-7.942,2.431 -15.798,5.013 -23.611,7.726c-1.91,0.521 -4.492,1.172 -7.726,1.91c-3.19,0.694 -5.533,1.041 -7.031,1.041c-2.04,0 -5.186,-1.258 -9.462,-3.819c-0.173,0.933 -0.412,1.91 -0.694,2.951c-0.239,0.999 -0.564,1.975 -0.955,2.952c-0.521,0.933 -1.389,2.061 -2.604,3.385c-1.215,1.346 -2.496,1.997 -3.819,1.997l-16.58,0.26l-2.17,0c-0.174,0.825 -0.261,1.628 -0.261,2.431l0,2.604c1.085,-0.109 2.17,-0.196 3.212,-0.261c1.085,-0.108 2.105,-0.173 3.038,-0.173l1.476,-0c0.911,-0 2.257,0.087 3.993,0.26c1.736,0.13 3.515,0.347 5.382,0.695c1.91,0.303 3.255,0.651 4.08,1.041c2.018,0.999 3.819,2.301 5.382,3.907c1.562,1.627 2.343,3.776 2.343,6.423c2.257,-0.391 4.471,-0.825 6.684,-1.302c2.257,-0.456 4.71,-0.89 7.379,-1.302c-1.454,-0.694 -3.017,-1.389 -4.688,-2.083c-1.692,-0.738 -2.929,-1.324 -3.732,-1.736c-0.933,-0.565 -2.149,-1.52 -3.646,-2.865c-1.519,-1.324 -2.257,-2.604 -2.257,-3.82c-0,-0.911 0.629,-1.844 1.91,-2.777c1.323,-0.977 2.3,-1.519 2.951,-1.65c1.085,-0.173 2.648,-0.347 4.688,-0.52c2.018,-0.217 3.754,-0.391 5.208,-0.521c2.127,-0.282 3.494,-0.478 4.08,-0.608l20.746,-6.858c1.324,-0.39 3.494,-0.911 6.511,-1.562c3.06,-0.694 6.25,-1.259 9.548,-1.736c3.299,-0.456 5.946,-0.695 7.986,-0.695c2.952,0 6.381,0.434 10.33,1.302c3.993,0.869 7.487,2.344 10.504,4.428c3.06,2.083 4.6,5.013 4.6,8.767c0,2.561 -1.02,4.991 -3.038,7.292c-2.04,2.257 -4.405,3.385 -7.118,3.385c-0.759,0 -1.714,-0.087 -2.864,-0.26c-1.172,-0.217 -2.344,-0.391 -3.559,-0.521c-2.04,-0.391 -3.711,-0.608 -5.035,-0.608l-17.795,0l-7.032,1.215c2.127,0.521 4.276,1.129 6.424,1.823l6.51,1.997c1.737,0.521 3.842,1.541 6.337,3.038c2.474,1.519 4.861,3.125 7.118,4.861c2.301,1.736 4.08,3.364 5.295,4.861c1.737,2.149 2.974,4.471 3.733,6.945c0.738,2.495 1.172,5.078 1.302,7.725l0.608,17.014c0.282,4.579 0.13,9.093 -0.434,13.542c-0.521,4.405 -1.801,8.42 -3.82,12.066c1.085,1.866 2.344,3.711 3.733,5.555c1.432,1.802 2.821,3.56 4.167,5.296c1.085,1.389 1.953,2.929 2.604,4.6c0.694,1.693 1.042,3.342 1.042,4.948c-0,4.818 -1.628,8.854 -4.862,12.153c-3.255,3.299 -7.118,5.816 -11.632,7.552c-4.513,1.78 -8.854,2.951 -13.02,3.472l-13.716,1.823c-1.736,0.109 -3.277,0.196 -4.6,0.261c-1.346,0.108 -2.605,0.173 -3.82,0.173c-4.861,0 -10.069,-0.477 -15.625,-1.389c-5.512,-0.868 -9.982,-2.126 -13.455,-3.732c-4.579,-2.257 -8.246,-5.187 -11.024,-8.768c-2.778,-3.515 -4.167,-7.986 -4.167,-13.368c0,-1.606 0.131,-3.211 0.434,-4.774c0.283,-1.562 0.543,-3.06 0.782,-4.514c-1.454,0.239 -2.952,0.521 -4.514,0.868c-1.563,0.347 -3.082,0.673 -4.514,0.955c-1.346,5.794 -3.733,10.395 -7.205,13.802c-3.429,3.429 -7.769,6.684 -13.021,9.809c-3.364,1.845 -7.074,3.603 -11.111,5.295c-3.993,1.671 -7.964,2.518 -11.892,2.518c-2.149,-0 -4.818,-0.434 -7.986,-1.302c-3.125,-0.868 -6.294,-2.127 -9.462,-3.733c-3.19,-1.628 -5.816,-3.537 -7.9,-5.729c-2.083,-2.214 -3.125,-4.644 -3.125,-7.379c0,-1.324 0.456,-2.17 1.389,-2.517c0.977,-0.347 2.388,-0.564 4.254,-0.695c2.018,-0.108 4.731,-0.802 8.16,-2.083c3.472,-1.324 6.814,-2.778 10.069,-4.34c3.234,-1.606 5.577,-3.125 7.031,-4.514c-2.669,-0.911 -5.1,-1.866 -7.291,-2.865c-2.149,-1.041 -4.145,-2.43 -5.99,-4.166c-2.604,-2.257 -4.384,-5.122 -5.295,-8.594c-0.933,-3.516 -1.346,-6.706 -1.215,-9.549l0.868,-17.361l1.389,-18.576c-0.521,-0.695 -1.086,-1.302 -1.65,-1.823l-1.562,-1.649c-1.801,-2.127 -2.908,-4.471 -3.299,-7.032c-4.579,-2.257 -7.769,-5.251 -9.548,-9.027c-1.802,-3.82 -2.691,-8.204 -2.691,-13.195c-0,-1.041 0.108,-2.474 0.347,-4.34c0.282,-1.91 0.477,-3.559 0.607,-4.948c0.283,-1.432 0.456,-3.299 0.521,-5.556c0.044,-2.3 0.087,-4.383 0.087,-6.25c0,-1.909 0.043,-3.689 0.174,-5.382c0.173,-1.671 0.455,-3.407 0.868,-5.208c0.108,-0.39 0.195,-0.803 0.26,-1.215c0.044,-0.391 0.087,-0.803 0.087,-1.215c-0,-0.803 -0.586,-2.388 -1.736,-4.775c-0.304,-0.694 -0.478,-1.237 -0.521,-1.649c-0.065,-0.391 -0.087,-0.803 -0.087,-1.215c0,-2.019 0.716,-3.516 2.17,-4.514c1.498,-1.042 3.234,-1.563 5.209,-1.563c2.018,0 4.123,0.304 6.336,0.868c9.245,-3.515 18.924,-6.185 28.994,-7.986c10.112,-1.844 20.312,-2.778 30.555,-2.778c2.778,0 5.664,0.174 8.681,0.521c3.06,0.348 5.599,1.281 7.639,2.778c2.018,1.454 3.038,3.95 3.038,7.465c-0,1.867 -0.586,3.429 -1.736,4.688c-1.172,1.28 -2.756,1.91 -4.775,1.91l-17.534,-0l-3.386,0.434Zm-17.969,120.659l0.348,1.476c0.39,0 0.803,0.043 1.215,0.087c0.391,0.065 0.89,0.087 1.476,0.087c3.472,-0.109 7.118,-0.543 10.937,-1.302c3.82,-0.738 7.639,-1.476 11.458,-2.171c2.257,-0.39 5.426,-0.976 9.549,-1.736c4.102,-0.803 8.442,-1.606 13.021,-2.43c4.557,-0.803 8.811,-1.563 12.76,-2.257c3.993,-0.695 6.988,-1.15 9.028,-1.389c2.3,-0.282 4.731,-0.521 7.292,-0.695c2.539,-0.217 4.948,-0.542 7.205,-0.954l-0,-6.684c-4.992,0.586 -9.267,1.193 -12.848,1.823c-3.537,0.585 -7.639,1.388 -12.326,2.43c-4.861,1.107 -10.048,2.17 -15.538,3.212c-5.512,0.998 -10.851,1.91 -16.059,2.778c-5.209,0.868 -9.809,1.562 -13.802,2.083c-2.04,0.304 -4.21,0.434 -6.511,0.434c-2.257,0 -4.557,-0.043 -6.857,-0.174l-0.348,5.382Zm1.389,-33.68c2.431,0.304 5.317,0.065 8.681,-0.695c3.342,-0.738 6.727,-1.671 10.156,-2.777c3.472,-1.151 6.337,-2.084 8.594,-2.778c2.018,-0.695 5.078,-1.498 9.201,-2.431c4.102,-0.911 8.507,-1.823 13.195,-2.691c4.731,-0.868 9.136,-1.671 13.194,-2.43c4.102,-0.738 7.248,-1.172 9.462,-1.302c1.845,-0.283 3.689,-0.478 5.555,-0.608c1.91,-0.174 3.733,-0.304 5.469,-0.434c0.174,-0.521 0.261,-1.063 0.261,-1.649c-0,-1.736 -0.348,-2.908 -1.042,-3.559c-4.058,0.13 -8.138,0.347 -12.24,0.694c-4.058,0.347 -8.051,0.912 -11.979,1.649c-4.991,0.999 -9.961,2.04 -14.93,3.125c-4.992,1.042 -9.961,2.236 -14.931,3.559c-3.364,0.934 -6.467,1.78 -9.288,2.518c-2.843,0.759 -5.946,1.606 -9.288,2.517c-0.413,0.174 -1.042,0.391 -1.91,0.608c-0.868,0.173 -1.519,0.26 -1.91,0.26c-2.148,0 -4.383,-0.195 -6.684,-0.607l0,1.215c0,0.521 0.087,1.519 0.261,2.951l0.173,2.865Zm-0.781,16.927c1.736,0.173 3.234,0.217 4.514,0.087c1.259,-0.174 2.561,-0.391 3.906,-0.695c5.556,-0.911 11.328,-2.04 17.361,-3.385c6.077,-1.324 12.327,-2.691 18.75,-4.08c2.821,-0.629 5.86,-1.324 9.115,-2.083c3.233,-0.738 6.272,-1.389 9.114,-1.91c1.845,-0.391 4.883,-0.89 9.115,-1.476c4.275,-0.629 8.203,-1.15 11.806,-1.562l-0,-5.209c-1.867,0.131 -3.863,0.326 -5.99,0.608c-2.148,0.239 -3.971,0.499 -5.469,0.781c-3.363,0.521 -6.727,1.02 -10.069,1.476c-3.364,0.477 -6.749,1.107 -10.156,1.91c-7.118,1.801 -14.237,3.537 -21.355,5.208c-7.118,1.693 -14.323,3.255 -21.614,4.688c-0.651,0.303 -1.346,0.477 -2.084,0.52c-0.759,0.065 -1.54,0.087 -2.343,0.087l-3.82,0l-0.781,5.035Zm106.51,29.861c0,-1.042 -0.151,-2.018 -0.434,-2.951c-0.238,-0.977 -0.607,-1.932 -1.128,-2.865c-1.519,-0.109 -3.038,-0.195 -4.601,-0.26c-1.519,-0.109 -3.016,-0.174 -4.514,-0.174c-2.842,-0 -6.033,0.217 -9.548,0.608c-3.472,0.412 -6.033,0.759 -7.639,1.041c-0.651,0.13 -1.367,0.174 -2.17,0.174l-2.257,-0c-0.13,1.215 -0.217,2.409 -0.261,3.559c-0.065,1.172 -0.086,2.257 -0.086,3.299c-0,1.519 0.13,2.691 0.434,3.559c0.347,0.868 1.171,1.302 2.517,1.302c1.497,-0 3.754,-0.261 6.771,-0.782c3.06,-0.52 6.163,-1.128 9.288,-1.823c3.168,-0.694 5.49,-1.237 6.944,-1.649c1.216,-0.39 2.388,-0.824 3.559,-1.302c1.151,-0.456 2.192,-1.042 3.125,-1.736Zm-128.559,-103.299c1.498,-0.282 3.386,-0.716 5.643,-1.302c2.3,-0.629 4.188,-0.998 5.642,-1.128l21.007,-2.778c1.606,-0.174 2.626,-0.781 3.038,-1.823c0.109,-0.282 0.196,-0.608 0.261,-0.955c0.108,-0.347 0.217,-0.629 0.347,-0.868c0.282,-0.694 0.434,-1.085 0.434,-1.215l-0,-0.434c-0,-0.521 -0.391,-0.825 -1.129,-0.955c-0.759,-0.174 -1.605,-0.26 -2.517,-0.26c-0.933,-0 -2.561,0.217 -4.861,0.607c-2.257,0.413 -3.993,0.76 -5.208,1.042l-16.407,3.646l-5.816,1.389c-0.13,0.824 -0.238,1.649 -0.347,2.517c-0.065,0.868 -0.087,1.714 -0.087,2.517Zm11.546,31.25c3.58,2.214 6.684,4.579 9.288,7.118l0.955,-0.434l18.576,-6.25l9.115,-2.43l-11.546,-0.174l-24.566,1.997l-1.822,0.173Zm-11.285,-49.392c1.15,-0.282 2.365,-0.543 3.646,-0.781c1.323,-0.282 2.604,-0.478 3.819,-0.608c0.217,-0.803 0.369,-1.606 0.434,-2.43c0.109,-0.803 0.217,-1.606 0.347,-2.431c-0.52,0 -1.085,0.043 -1.649,0.087c-0.521,0.065 -1.128,0.152 -1.823,0.26c-0.824,0.174 -1.606,0.304 -2.344,0.347c-0.694,0.066 -1.454,0.087 -2.257,0.087l-1.215,0c0.109,0.825 0.261,1.715 0.434,2.691c0.217,0.933 0.434,1.867 0.608,2.778Zm-1.649,36.719l7.031,-1.216c0.173,-0.694 0.282,-1.475 0.347,-2.343c0.043,-0.868 0.087,-1.606 0.087,-2.257c-1.215,-0 -2.474,0.152 -3.733,0.434c-1.28,0.239 -2.517,0.477 -3.732,0.694c-0.304,1.519 -0.304,3.082 -0,4.688Z" style="fill-rule:nonzero;"/></g></g></g><g><g><clipPath id="_clip28"><path d="M551.194,300.694l5.013,0.131l-1.758,68.533l-5.035,-0.131l1.78,-68.533Z"/></clipPath><g clip-path="url(#_clip28)"><g><clipPath id="_clip29"><path d="M556.098,301.931c-1.671,51.606 -2.387,64.866 -3.884,66.624c-0.391,0.694 -1.65,-0.413 -1.65,-0.413l1.823,0.413c-0.173,-0 -1.476,0.672 -1.823,-0.413c-1.041,-2.17 2.04,-15.364 2.648,-24.674c0.868,-12.175 -0.651,-38.412 1.063,-41.58c0.391,-1.063 1.823,0.043 1.823,0.043"/></clipPath><g clip-path="url(#_clip29)"><path d="M545.334,287.305l18.62,0.477l-2.452,95.725l-18.62,-0.477l2.452,-95.725Z" style="fill:#fff;fill-rule:nonzero;"/></g></g></g></g></g><g><g><clipPath id="_clip30"><path d="M795.052,277.886l5.382,0.152l-1.888,73.611l-5.382,-0.152l1.888,-73.611Z"/></clipPath><g clip-path="url(#_clip30)"><g><clipPath id="_clip31"><path d="M800.347,279.21c-1.823,55.447 -2.582,69.683 -4.21,71.571c-0.412,0.76 -1.758,-0.434 -1.758,-0.434l1.953,0.434c-0.195,0 -1.584,0.738 -1.953,-0.434c-1.106,-2.344 2.192,-16.515 2.843,-26.519c0.933,-13.086 -0.694,-41.254 1.15,-44.661c0.434,-1.151 1.975,0.043 1.975,0.043"/></clipPath><g clip-path="url(#_clip31)"><path d="M788.78,263.498l19.987,0.521l-2.626,102.843l-20.008,-0.521l2.647,-102.843Z" style="fill:#fff;fill-rule:nonzero;"/></g></g></g></g></g></svg>