<?xml version="1.0" encoding="UTF-8" standalone="no"?><!DOCTYPE svg PUBLIC "-//W3C//DTD SVG 1.1//EN" "http://www.w3.org/Graphics/SVG/1.1/DTD/svg11.dtd"><svg width="100%" height="100%" viewBox="0 0 5692 380" version="1.1" xmlns="http://www.w3.org/2000/svg" xmlns:xlink="http://www.w3.org/1999/xlink" xml:space="preserve" xmlns:serif="http://www.serif.com/" style="fill-rule:evenodd;clip-rule:evenodd;stroke-linejoin:round;stroke-miterlimit:2;"><g><clipPath id="_clip1"><rect x="303.494" y="60.135" width="249.891" height="295.573"/></clipPath><g clip-path="url(#_clip1)"><path d="M780.078,60.634c0,-0 -728.125,-0.022 -728.233,-0.022c0.108,7.183 1.974,98.85 1.909,106.793c-0.152,21.896 -1.888,48.589 -2.994,70.464c-0.5,9.831 -8.312,93.229 -15.105,103.689c0.022,-0.022 125.868,15.864 249.067,7.509c2.908,-16.971 9.05,-34.31 11.502,-51.281c2.713,-19.466 6.272,-36.849 6.619,-56.488c0.564,-32.314 -1.129,-58.941 -1.15,-93.078c-0,-1.757 2.56,-1.909 2.756,-0.173c3.928,33.29 4.969,24.848 8.051,85.829c1.801,36.002 -2.843,77.148 -4.687,113.433c121.093,14.431 140.082,12.717 248.546,-3.19c-3.711,-36.155 -3.494,-69.358 -3.473,-105.512c0.109,-50.716 -2.278,-56.597 -0.564,-96.311c0.087,-1.801 1.215,-1.78 1.324,0.022c2.192,35.351 2.018,60.916 6.467,93.468c2.582,19.422 3.602,40.668 6.836,59.961c2.908,17.013 12.022,47.178 12.087,47.178c106.88,0 112.566,4.493 219.445,4.493c-7.747,-17.145 -14.735,-125.348 -15.126,-134.788c-0.282,-6.315 -3.798,-131.662 -3.277,-151.996" style="fill:#c40000;fill-rule:nonzero;"/></g></g><g><clipPath id="_clip2"><rect x="303.494" y="36.111" width="249.891" height="10.786"/></clipPath><g clip-path="url(#_clip2)"><path d="M836.892,46.571l-841.948,0l-0,-9.7l841.948,-0l0,9.7" style="fill:#d4983d;fill-rule:nonzero;"/></g></g><g><clipPath id="_clip3"><rect x="303.494" y="25" width="249.891" height="14.323"/></clipPath><g clip-path="url(#_clip3)"><path d="M836.892,38.737l-841.948,-0l-0,-13.129l841.948,-0l0,13.129" style="fill:#d4983d;fill-rule:nonzero;"/></g></g><g><clipPath id="_clip4"><rect x="303.494" y="18.381" width="24.284" height="56.619"/></clipPath><g clip-path="url(#_clip4)"><path d="M323.155,69.596l-42.838,0l-0,-51.063l42.838,-0l0,51.063" style="fill:#c40000;fill-rule:nonzero;"/></g></g><g><path d="M551.541,69.596l-42.839,0l0,-51.063l42.839,-0l-0,51.063" style="fill:#c40000;fill-rule:nonzero;"/></g><g><path d="M548.893,65.495l-37.695,-0l-0,-46.962l37.695,-0l0,46.962" style="fill:#c40000;fill-rule:nonzero;"/></g><g><clipPath id="_clip5"><rect x="303.494" y="18.381" width="18.728" height="51.063"/></clipPath><g clip-path="url(#_clip5)"><path d="M320.486,65.495l-37.695,-0l-0,-46.962l37.695,-0l0,46.962" style="fill:#c40000;fill-rule:nonzero;"/></g></g><g><clipPath id="_clip6"><rect x="1037.89" y="60.135" width="245.443" height="295.573"/></clipPath><g clip-path="url(#_clip6)"><path d="M1264.65,60.634c0,-0 -728.125,-0.022 -728.233,-0.022c0.108,7.183 1.975,98.85 1.91,106.793c-0.152,21.896 -1.888,48.589 -2.995,70.464c-0.499,9.831 -8.312,93.229 -15.104,103.689c0.021,-0.022 125.868,15.864 249.067,7.509c2.908,-16.971 9.071,-34.31 11.501,-51.281c2.713,-19.466 6.272,-36.849 6.619,-56.488c0.564,-32.314 -1.128,-58.941 -1.15,-93.078c0,-1.757 2.561,-1.909 2.756,-0.173c3.928,33.29 4.991,24.848 8.051,85.829c1.802,36.002 -2.843,77.148 -4.687,113.433c121.094,14.431 140.104,12.717 248.546,-3.19c-3.711,-36.155 -3.494,-69.358 -3.472,-105.512c0.13,-50.716 -2.279,-56.597 -0.565,-96.311c0.087,-1.801 1.216,-1.78 1.346,0.022c2.17,35.351 1.996,60.916 6.467,93.468c2.561,19.422 3.581,40.668 6.814,59.961c2.908,17.013 12.023,47.178 12.088,47.178c106.879,0 112.565,4.493 219.444,4.493c-7.747,-17.145 -14.713,-125.348 -15.126,-134.788c-0.282,-6.315 -3.797,-131.662 -3.277,-151.996" style="fill:#c40000;fill-rule:nonzero;"/></g></g><g><clipPath id="_clip7"><rect x="1037.89" y="36.111" width="282.899" height="10.786"/></clipPath><g clip-path="url(#_clip7)"><path d="M1321.48,46.571l-841.948,0l-0,-9.7l841.948,-0l0,9.7" style="fill:#d4983d;fill-rule:nonzero;"/></g></g><g><clipPath id="_clip8"><rect x="1037.89" y="25" width="282.899" height="14.323"/></clipPath><g clip-path="url(#_clip8)"><path d="M1321.48,38.737l-841.948,-0l-0,-13.129l841.948,-0l0,13.129" style="fill:#d4983d;fill-rule:nonzero;"/></g></g><g><path d="M1264.52,69.596l-42.838,0l-0,-51.063l42.838,-0l0,51.063" style="fill:#c40000;fill-rule:nonzero;"/></g><g><path d="M1261.89,65.495l-37.717,-0l0,-46.962l37.717,-0l0,46.962" style="fill:#c40000;fill-rule:nonzero;"/></g><g><clipPath id="_clip9"><rect x="39.692" y="60.135" width="268.49" height="295.573"/></clipPath><g clip-path="url(#_clip9)"><path d="M785.135,60.634c-0,-0 -728.147,-0.022 -728.256,-0.022c0.109,7.183 1.997,98.85 1.932,106.793c-0.152,21.896 -1.91,48.589 -3.017,70.464c-0.499,9.831 -8.29,93.229 -15.082,103.689c-0,-0.022 125.846,15.864 249.067,7.509c2.886,-16.971 9.049,-34.31 11.501,-51.281c2.691,-19.466 6.25,-36.849 6.598,-56.488c0.586,-32.314 -1.107,-58.941 -1.129,-93.078c0,-1.757 2.539,-1.909 2.756,-0.173c3.928,33.29 4.97,24.848 8.051,85.829c1.802,36.002 -2.842,77.148 -4.709,113.433c121.116,14.431 140.104,12.717 248.546,-3.19c-3.689,-36.155 -3.494,-69.358 -3.45,-105.512c0.108,-50.716 -2.279,-56.597 -0.565,-96.311c0.066,-1.801 1.216,-1.78 1.324,0.022c2.17,35.351 2.018,60.916 6.467,93.468c2.561,19.422 3.581,40.668 6.836,59.961c2.886,17.013 12.001,47.178 12.088,47.178c106.879,0 112.543,4.493 219.423,4.493c-7.726,-17.145 -14.714,-125.348 -15.126,-134.788c-0.261,-6.315 -3.798,-131.662 -3.255,-151.996" style="fill:#c40000;fill-rule:nonzero;"/></g></g><g><clipPath id="_clip10"><rect x="0" y="36.111" width="308.181" height="10.786"/></clipPath><g clip-path="url(#_clip10)"><path d="M841.949,46.571l-841.949,0l0,-9.7l841.949,-0l-0,9.7" style="fill:#d4983d;fill-rule:nonzero;"/></g></g><g><clipPath id="_clip11"><rect x="0" y="25" width="308.181" height="14.323"/></clipPath><g clip-path="url(#_clip11)"><path d="M841.949,38.737l-841.949,-0l0,-13.129l841.949,-0l-0,13.129" style="fill:#d4983d;fill-rule:nonzero;"/></g></g><g><path d="M99.805,69.596l-42.839,0l0,-51.063l42.839,-0l-0,51.063" style="fill:#c40000;fill-rule:nonzero;"/></g><g><clipPath id="_clip12"><rect x="283.333" y="18.381" width="24.848" height="56.619"/></clipPath><g clip-path="url(#_clip12)"><path d="M328.19,69.596l-42.838,0l-0,-51.063l42.838,-0l0,51.063" style="fill:#c40000;fill-rule:nonzero;"/></g></g><g><path d="M97.135,65.495l-37.695,-0l0,-46.962l37.695,-0l0,46.962" style="fill:#c40000;fill-rule:nonzero;"/></g><g><clipPath id="_clip13"><rect x="283.333" y="18.381" width="24.848" height="51.063"/></clipPath><g clip-path="url(#_clip13)"><path d="M325.543,65.495l-37.696,-0l0,-46.962l37.696,-0l-0,46.962" style="fill:#c40000;fill-rule:nonzero;"/></g></g><g><clipPath id="_clip14"><rect x="547.266" y="60.135" width="249.87" height="295.573"/></clipPath><g clip-path="url(#_clip14)"><path d="M1023.85,60.634c-0,-0 -728.125,-0.022 -728.234,-0.022c0.109,7.183 1.975,98.85 1.91,106.793c-0.152,21.896 -1.888,48.589 -3.016,70.464c-0.478,9.831 -8.29,93.229 -15.083,103.689c0.022,-0.022 125.846,15.864 249.067,7.509c2.908,-16.971 9.049,-34.31 11.502,-51.281c2.691,-19.466 6.271,-36.849 6.619,-56.488c0.564,-32.314 -1.129,-58.941 -1.151,-93.078c0,-1.757 2.539,-1.909 2.756,-0.173c3.928,33.29 4.97,24.848 8.052,85.829c1.801,36.002 -2.843,77.148 -4.709,113.433c121.115,14.431 140.104,12.717 248.567,-3.19c-3.711,-36.155 -3.494,-69.358 -3.472,-105.512c0.108,-50.716 -2.279,-56.597 -0.564,-96.311c0.065,-1.801 1.215,-1.78 1.324,0.022c2.191,35.351 2.018,60.916 6.467,93.468c2.56,19.422 3.602,40.668 6.835,59.961c2.908,17.013 12.023,47.178 12.088,47.178c106.88,0 112.565,4.493 219.445,4.493c-7.748,-17.145 -14.736,-125.348 -15.126,-134.788c-0.282,-6.315 -3.798,-131.662 -3.277,-151.996" style="fill:#c40000;fill-rule:nonzero;"/></g></g><g><clipPath id="_clip15"><rect x="547.266" y="36.111" width="249.87" height="10.786"/></clipPath><g clip-path="url(#_clip15)"><path d="M1080.66,46.571l-841.949,0l0,-9.7l841.949,-0l0,9.7" style="fill:#d4983d;fill-rule:nonzero;"/></g></g><g><clipPath id="_clip16"><rect x="547.266" y="25" width="249.87" height="14.323"/></clipPath><g clip-path="url(#_clip16)"><path d="M1080.66,38.737l-841.949,-0l0,-13.129l841.949,-0l0,13.129" style="fill:#d4983d;fill-rule:nonzero;"/></g></g><g><clipPath id="_clip17"><rect x="547.266" y="18.381" width="24.957" height="56.619"/></clipPath><g clip-path="url(#_clip17)"><path d="M566.905,69.596l-42.816,0l-0,-51.063l42.816,-0l0,51.063" style="fill:#c40000;fill-rule:nonzero;"/></g></g><g><path d="M795.313,69.596l-42.839,0l-0,-51.063l42.839,-0l-0,51.063" style="fill:#c40000;fill-rule:nonzero;"/></g><g><path d="M792.665,65.495l-37.695,-0l-0,-46.962l37.695,-0l-0,46.962" style="fill:#c40000;fill-rule:nonzero;"/></g><g><clipPath id="_clip18"><rect x="547.266" y="18.381" width="19.401" height="51.063"/></clipPath><g clip-path="url(#_clip18)"><path d="M564.258,65.495l-37.696,-0l0,-46.962l37.696,-0l-0,46.962" style="fill:#c40000;fill-rule:nonzero;"/></g></g><g><clipPath id="_clip19"><rect x="791.037" y="60.135" width="249.87" height="295.573"/></clipPath><g clip-path="url(#_clip19)"><path d="M1267.62,60.634c-0,-0 -728.147,-0.022 -728.234,-0.022c0.087,7.183 1.975,98.85 1.91,106.793c-0.152,21.896 -1.888,48.589 -3.017,70.464c-0.499,9.831 -8.29,93.229 -15.082,103.689c-0,-0.022 125.846,15.864 249.067,7.509c2.908,-16.971 9.049,-34.31 11.501,-51.281c2.691,-19.466 6.272,-36.849 6.619,-56.488c0.565,-32.314 -1.128,-58.941 -1.15,-93.078c0,-1.757 2.539,-1.909 2.756,-0.173c3.928,33.29 4.97,24.848 8.051,85.829c1.802,36.002 -2.842,77.148 -4.709,113.433c121.116,14.431 140.104,12.717 248.568,-3.19c-3.711,-36.155 -3.516,-69.358 -3.472,-105.512c0.108,-50.716 -2.279,-56.597 -0.565,-96.311c0.066,-1.801 1.216,-1.78 1.324,0.022c2.192,35.351 2.018,60.916 6.467,93.468c2.561,19.422 3.603,40.668 6.836,59.961c2.908,17.013 12.023,47.178 12.088,47.178c106.879,0 112.565,4.493 219.444,4.493c-7.747,-17.145 -14.735,-125.348 -15.147,-134.788c-0.261,-6.315 -3.776,-131.662 -3.255,-151.996" style="fill:#c40000;fill-rule:nonzero;"/></g></g><g><clipPath id="_clip20"><rect x="791.037" y="36.111" width="249.87" height="10.786"/></clipPath><g clip-path="url(#_clip20)"><path d="M1324.44,46.571l-841.949,0l-0,-9.7l841.949,-0l-0,9.7" style="fill:#d4983d;fill-rule:nonzero;"/></g></g><g><clipPath id="_clip21"><rect x="791.037" y="25" width="249.87" height="14.323"/></clipPath><g clip-path="url(#_clip21)"><path d="M1324.44,38.737l-841.949,-0l-0,-13.129l841.949,-0l-0,13.129" style="fill:#d4983d;fill-rule:nonzero;"/></g></g><g><clipPath id="_clip22"><rect x="791.037" y="18.381" width="20.074" height="56.619"/></clipPath><g clip-path="url(#_clip22)"><path d="M810.677,69.596l-42.838,0l-0,-51.063l42.838,-0l0,51.063" style="fill:#c40000;fill-rule:nonzero;"/></g></g><g><path d="M1039.08,69.596l-42.838,0l-0,-51.063l42.838,-0l0,51.063" style="fill:#c40000;fill-rule:nonzero;"/></g><g><path d="M1036.44,65.495l-37.696,-0l0,-46.962l37.696,-0l-0,46.962" style="fill:#c40000;fill-rule:nonzero;"/></g><g><clipPath id="_clip23"><rect x="791.037" y="18.381" width="20.074" height="51.063"/></clipPath><g clip-path="url(#_clip23)"><path d="M808.03,65.495l-37.696,-0l0,-46.962l37.696,-0l-0,46.962" style="fill:#c40000;fill-rule:nonzero;"/></g></g><g><clipPath id="_clip24"><rect x="95.768" y="18.381" width="20.812" height="66.623"/></clipPath><g clip-path="url(#_clip24)"><rect x="97.244" y="-132.378" width="217.773" height="217.795" style="fill:#c40000;fill-rule:nonzero;"/><path d="M315.017,86.892l-217.773,0c-0.825,0 -1.476,-0.651 -1.476,-1.475l0,-217.795c0,-0.825 0.651,-1.454 1.476,-1.454l217.773,-0c0.825,-0 1.476,0.629 1.476,1.454l0,217.795c0,0.824 -0.651,1.475 -1.476,1.475Zm-216.319,-2.951l214.844,-0l-0,-214.844l-214.844,0l-0,214.844Z" style="fill:#c40000;fill-rule:nonzero;"/></g></g><g><clipPath id="_clip25"><rect x="318.012" y="18.381" width="20.812" height="66.623"/></clipPath><g clip-path="url(#_clip25)"><rect x="319.466" y="-132.378" width="217.795" height="217.795" style="fill:#c40000;fill-rule:nonzero;"/><path d="M537.261,86.892l-217.795,0c-0.825,0 -1.454,-0.651 -1.454,-1.475l0,-217.795c0,-0.825 0.629,-1.454 1.454,-1.454l217.795,-0c0.825,-0 1.476,0.629 1.476,1.454l-0,217.795c-0,0.824 -0.651,1.475 -1.476,1.475Zm-216.319,-2.951l214.844,-0l-0,-214.844l-214.844,0l-0,214.844Z" style="fill:#c40000;fill-rule:nonzero;"/></g></g><g><clipPath id="_clip26"><rect x="1034.25" y="18.381" width="20.833" height="66.623"/></clipPath><g clip-path="url(#_clip26)"><rect x="1035.72" y="-132.378" width="217.795" height="217.795" style="fill:#c40000;fill-rule:nonzero;"/><path d="M1253.52,86.892l-217.796,0c-0.824,0 -1.475,-0.651 -1.475,-1.475l-0,-217.795c-0,-0.825 0.651,-1.454 1.475,-1.454l217.796,-0c0.824,-0 1.454,0.629 1.454,1.454l-0,217.795c-0,0.824 -0.63,1.475 -1.454,1.475Zm-216.32,-2.951l214.844,-0l-0,-214.844l-214.844,0l0,214.844Z" style="fill:#c40000;fill-rule:nonzero;"/></g></g><g><clipPath id="_clip27"><rect x="1203.21" y="18.381" width="20.833" height="66.623"/></clipPath><g clip-path="url(#_clip27)"><rect x="1204.69" y="-132.378" width="217.795" height="217.795" style="fill:#c40000;fill-rule:nonzero;"/><path d="M1422.48,86.892l-217.795,0c-0.825,0 -1.476,-0.651 -1.476,-1.475l-0,-217.795c-0,-0.825 0.651,-1.454 1.476,-1.454l217.795,-0c0.824,-0 1.454,0.629 1.454,1.454l-0,217.795c-0,0.824 -0.63,1.475 -1.454,1.475Zm-216.32,-2.951l214.844,-0l-0,-214.844l-214.844,0l0,214.844Z" style="fill:#c40000;fill-rule:nonzero;"/></g></g><g><path d="M272.331,160.004c-0,-0.021 -0.022,-0.043 -0.044,-0.065c-1.193,-2.322 -2.908,-4.166 -5.165,-5.534c-2.235,-1.367 -4.665,-2.04 -7.291,-2.04l-59.744,0l-0,-4.687l65.191,-0l-5.035,-6.185c-4.861,-5.99 -10.308,-11.35 -16.384,-16.124c-6.055,-4.753 -12.566,-8.789 -19.532,-12.109c-6.966,-3.299 -14.192,-5.795 -21.723,-7.487c-7.53,-1.693 -15.126,-2.518 -22.851,-2.518c-57.249,0 -103.82,46.593 -103.82,103.841c0,9.267 1.215,18.381 3.646,27.344c0.26,0.998 0.868,1.78 1.78,2.3c0.911,0.521 1.866,0.63 2.886,0.369c0.998,-0.282 1.779,-0.868 2.278,-1.779c0.521,-0.912 0.651,-1.866 0.369,-2.886c-2.257,-8.312 -3.385,-16.754 -3.385,-25.348c-0,-53.081 43.186,-96.245 96.246,-96.245c11.979,-0.022 23.546,2.126 34.722,6.423c11.154,4.319 21.18,10.504 30.013,18.577c1.519,1.367 -110.048,8.593 -110.048,8.593l0,3.234l24.631,-0l0,4.687l-24.631,0l0,3.256c0,-0 10.07,-0.109 24.631,0.065l0,19.857c0,30.425 -24.761,55.186 -55.186,55.186c-0.76,-0.022 -1.411,0.239 -1.954,0.76c-0.564,0.542 -0.824,1.193 -0.824,1.953c-0,0.759 0.26,1.41 0.824,1.931c0.543,0.543 1.194,0.803 1.954,0.782c8.116,-0 15.928,-1.563 23.415,-4.71c-0.911,0.825 -1.15,1.823 -0.694,2.973c0.434,1.151 1.28,1.715 2.517,1.715c22.765,-0 41.298,-27.17 41.298,-60.59l0,-19.662l0.499,0l0,19.662c0,31.597 -8.746,55.186 -16.58,55.186c-0.738,0.022 -1.345,0.282 -1.866,0.825c-0.521,0.521 -0.76,1.15 -0.76,1.888c0,0.738 0.239,1.367 0.76,1.888c0.521,0.521 1.128,0.803 1.866,0.825c14.301,-0 22.005,-31.229 22.005,-60.612l0,-19.532l0.521,0.022l0,77.409c0,0.738 0.261,1.389 0.782,1.91c0.542,0.52 1.171,0.803 1.931,0.803c0.738,-0 1.367,-0.283 1.91,-0.803c0.521,-0.521 0.781,-1.172 0.781,-1.91l-0,-77.257l0.521,0.022l-0,19.336c-0,29.383 7.704,60.612 22.005,60.612c0.738,-0.022 1.345,-0.304 1.866,-0.825c0.521,-0.521 0.76,-1.15 0.76,-1.888c-0,-0.738 -0.239,-1.367 -0.76,-1.888c-0.521,-0.543 -1.128,-0.803 -1.866,-0.825c-7.834,0 -16.58,-23.589 -16.58,-55.186l0,-19.141l0.499,0.022l0,19.14c0,33.399 18.533,60.591 41.298,60.591c1.237,-0 2.083,-0.565 2.539,-1.737c0.456,-1.15 0.217,-2.148 -0.694,-2.973c7.487,3.147 15.277,4.71 23.394,4.688c0.759,0.022 1.41,-0.217 1.953,-0.76c0.564,-0.521 0.825,-1.172 0.825,-1.931c-0,-0.781 -0.261,-1.411 -0.825,-1.953c-0.543,-0.543 -1.194,-0.782 -1.953,-0.76c-30.426,0 -55.187,-24.761 -55.187,-55.186l0,-18.62c26.085,1.345 52.083,3.993 61.415,9.223c12.782,7.161 14.54,26.15 14.54,40.95c-0,4.905 -0.369,9.788 -1.107,14.649c-0.738,4.839 -1.844,9.614 -3.32,14.301c-1.476,4.688 -3.277,9.223 -5.447,13.628c-2.17,4.406 -4.666,8.616 -7.487,12.652c-2.821,4.015 -5.925,7.813 -9.31,11.35c-3.407,3.559 -7.053,6.814 -10.938,9.809c-3.906,2.973 -8.007,5.664 -12.304,8.008c-4.319,2.366 -8.768,4.384 -13.39,6.055l-0.043,-0c-1.65,0.607 -2.995,1.627 -4.015,3.081c-1.02,1.454 -1.541,3.082 -1.541,4.861l0,1.997c0,0.911 -0.304,1.671 -0.955,2.3c-0.629,0.63 -1.389,0.955 -2.3,0.955l-48.199,0c-0.911,0 -1.671,-0.325 -2.3,-0.955c-0.651,-0.629 -0.955,-1.389 -0.955,-2.3l-0,-2.018c-0,-1.758 -0.521,-3.386 -1.541,-4.818c-1.02,-1.454 -2.365,-2.496 -4.015,-3.103l-0.065,-0c-11.285,-4.102 -21.441,-10.091 -30.469,-17.991c-9.027,-7.899 -16.297,-17.187 -21.853,-27.821c-1.128,-2.148 0.478,-4.731 2.908,-4.731l162.565,0c0.564,0 1.107,-0.13 1.628,-0.369c0.521,-0.26 0.955,-0.607 1.324,-1.041c0.347,-0.456 0.607,-0.955 0.737,-1.519c0.131,-0.543 0.131,-1.107 0.022,-1.671c-0.369,-1.758 -2.018,-2.995 -3.819,-2.995l-163.737,-0c-7.487,-0 -12.348,7.877 -8.985,14.561l0.044,0.109c5.816,11.502 13.498,21.571 23.09,30.208c9.592,8.637 20.399,15.235 32.465,19.814c1.389,0.542 2.105,1.54 2.105,3.038l0,1.432c0,1.28 0.261,2.539 0.738,3.733c0.499,1.193 1.215,2.257 2.127,3.168c0.911,0.912 1.953,1.606 3.168,2.105c1.194,0.499 2.431,0.76 3.733,0.76l50.369,-0c1.302,-0 2.539,-0.261 3.733,-0.76c1.193,-0.477 2.257,-1.193 3.168,-2.105c0.911,-0.911 1.606,-1.975 2.105,-3.168c0.499,-1.194 0.738,-2.431 0.738,-3.733l-0,-1.432c0.022,-1.498 0.716,-2.518 2.127,-3.038c3.385,-1.303 6.705,-2.778 9.939,-4.406c3.233,-1.649 6.38,-3.45 9.418,-5.425c3.06,-1.975 5.99,-4.102 8.811,-6.402c2.821,-2.279 5.534,-4.688 8.095,-7.248c2.56,-2.583 4.991,-5.274 7.291,-8.073c2.279,-2.821 4.406,-5.751 6.402,-8.811c1.975,-3.038 3.798,-6.163 5.447,-9.397c1.65,-3.233 3.125,-6.554 4.427,-9.939c1.302,-3.385 2.431,-6.836 3.364,-10.33c0.955,-3.515 1.714,-7.053 2.279,-10.634c0.586,-3.58 0.955,-7.204 1.15,-10.828c0.195,-3.625 0.195,-7.249 0.022,-10.873c-0.196,-3.624 -0.565,-7.226 -1.129,-10.807c-0.564,-3.581 -1.324,-7.14 -2.257,-10.634c-0.933,-3.515 -2.04,-6.966 -3.342,-10.351c-1.302,-3.386 -2.778,-6.706 -4.405,-9.94Zm-77.67,-7.639l-0.52,0l-0,-4.687l0.52,-0l0,4.687Zm-30.164,-4.687l0.499,-0l-0,4.687l-0.499,0l-0,-4.687Zm0.499,27.865c-0,30.425 -16.081,55.186 -35.873,55.186l-0.217,0c20.964,-9.527 35.591,-30.686 35.591,-55.186l-0,-19.77l0.499,-0l-0,19.77Zm5.425,-23.178l0,-4.687l0.521,-0l-0,4.687l-0.521,0Zm5.924,0l0,-4.687l0.521,-0l0,4.687l-0.521,0Zm5.947,0l-0,-4.687l0.499,-0l-0,4.687l-0.499,0Zm5.924,0l0,-4.687l0.521,-0l-0,4.687l-0.521,0Zm42.036,78.364l-0.217,0c-19.792,0 -35.894,-24.761 -35.894,-55.186l-0,-18.902l0.52,0.021l0,18.881c0,24.5 14.605,45.659 35.591,55.186Z" style="fill-rule:nonzero;"/></g><g><rect x="1264.8" y="25.26" width="4424.09" height="22.439" style="fill:#d4983d;fill-rule:nonzero;"/></g><g><g><g><path d="M362.567,208.319l-0,-11.458c-1.346,0.412 -2.756,0.781 -4.254,1.128c-1.454,0.304 -2.929,0.434 -4.427,0.434c-2.56,0 -5.447,-0.629 -8.68,-1.91c-3.255,-1.258 -6.055,-3.038 -8.42,-5.295c-2.322,-2.3 -3.473,-4.948 -3.473,-7.899c0,-1.91 0.435,-3.255 1.303,-4.08c0.868,-0.803 2.105,-1.476 3.732,-1.996c4.449,-4.97 7.9,-8.811 10.33,-11.545c2.431,-2.778 4.557,-5.252 6.424,-7.466c1.909,-2.257 3.993,-4.904 6.25,-7.986l-0.174,-3.472c-0.825,-0.912 -1.866,-1.953 -3.125,-3.125c-1.28,-1.15 -3.082,-2.604 -5.382,-4.34c-1.454,-1.324 -2.821,-2.973 -4.08,-4.948c-1.28,-1.953 -1.909,-4.015 -1.909,-6.163c-0,-3.473 1.302,-6.467 3.906,-9.028c2.604,-2.604 5.577,-3.907 8.941,-3.907c2.018,0 4.6,0.521 7.725,1.563c3.169,0.998 5.925,2.3 8.247,3.906c1.497,0.933 2.799,2.127 3.906,3.559c1.15,1.389 2.735,3.646 4.775,6.771c1.909,-1.215 3.645,-1.823 5.208,-1.823c2.713,0 4.969,0.868 6.771,2.604c1.844,1.736 3.385,3.69 4.6,5.816c1.324,2.604 2.105,5.122 2.344,7.552c0.282,2.388 0.434,4.927 0.434,7.639c0,1.346 -0.26,2.908 -0.781,4.688c-0.521,1.736 -1.541,4.145 -3.038,7.205c-0.695,1.345 -1.736,3.103 -3.125,5.295c-1.389,2.148 -3.516,5.1 -6.337,8.854c-0,1.454 0.087,2.951 0.26,4.514c0.217,1.562 0.391,3.081 0.521,4.514c1.606,-1.216 3.169,-2.474 4.688,-3.82c1.562,-1.323 3.146,-2.539 4.774,-3.646c2.713,-3.58 4.991,-8.072 6.858,-13.454c1.909,-5.382 3.407,-10.243 4.513,-14.584c-1.801,-1.215 -3.515,-2.626 -5.121,-4.253c-1.628,-1.606 -2.431,-3.603 -2.431,-5.99c0,-2.712 1.085,-4.817 3.299,-6.337c2.257,-1.562 4.601,-2.343 7.031,-2.343c2.019,-0 3.993,0.412 5.903,1.215c1.953,0.825 4.557,2.148 7.813,3.993c4.861,-8.854 9.57,-14.931 14.149,-18.229c4.557,-3.299 9.939,-4.948 16.146,-4.948c5.902,-0 11.545,1.02 16.927,3.038c5.382,1.975 10.438,4.731 15.191,8.247c3.993,2.951 6.771,6.119 8.333,9.461c1.563,3.364 2.344,7.531 2.344,12.5c-0,1.52 -0.152,3.039 -0.434,4.601c-0.239,1.519 -0.564,2.952 -0.955,4.34c-1.107,3.473 -1.649,5.816 -1.649,7.032c3.754,-2.019 6.423,-3.256 7.986,-3.733c1.562,-0.456 2.712,-0.694 3.472,-0.694c1.606,-0 3.212,0.434 4.774,1.302c1.563,0.868 2.865,1.866 3.907,2.951c2.191,2.148 3.754,4.644 4.687,7.465c0.911,2.843 1.389,5.729 1.389,8.681c-0,3.776 -0.673,7.118 -1.997,10.069c-1.345,2.952 -4.383,5.99 -9.114,9.115c-1.736,1.215 -3.863,2.496 -6.337,3.819c-2.496,1.346 -4.861,2.67 -7.118,3.993c5.903,3.364 10.981,8.138 15.278,14.323c4.34,6.207 6.51,12.891 6.51,20.052c0,3.993 -0.846,7.856 -2.517,11.546c-1.693,3.71 -3.95,6.922 -6.771,9.635c3.06,2.951 5.816,6.055 8.246,9.288c2.431,3.19 3.646,7.075 3.646,11.632c0,4.731 -1.54,9.115 -4.6,13.108c-3.017,4.036 -7.075,6.076 -12.153,6.076c-1.519,0 -3.299,-0.347 -5.382,-1.042c-2.083,-0.651 -4.926,-2.126 -8.507,-4.427c-3.537,-2.257 -8.333,-5.816 -14.41,-10.677c-3.776,2.952 -7.639,5.382 -11.632,7.292l-10.33,4.601c-3.125,1.389 -6.901,2.539 -11.284,3.472c-4.341,0.911 -8.507,1.389 -12.5,1.389c-6.207,-0 -12.11,-1.693 -17.709,-5.035c-5.555,-3.364 -10.134,-7.791 -13.715,-13.281c-3.602,-5.556 -5.382,-11.415 -5.382,-17.622c0,-5.208 1.064,-9.418 3.212,-12.673c2.192,-3.234 5.577,-5.99 10.156,-8.247c-3.646,-2.192 -6.597,-4.644 -8.854,-7.378c-2.214,-2.778 -3.429,-6.294 -3.646,-10.591c-0.998,0.651 -1.975,1.346 -2.951,2.084c-0.998,0.759 -2.04,1.475 -3.125,2.17l-0,40.364c-0,5.1 -0.044,9.028 -0.087,11.806c-0.065,2.713 -0.152,4.731 -0.26,6.076c-0.066,1.389 -0.217,2.474 -0.434,3.299c-0.586,2.365 -2.04,4.384 -4.341,6.076c-2.257,1.736 -4.731,2.605 -7.378,2.605c-4.992,-0 -9.679,-1.628 -14.063,-4.862c-4.34,-3.255 -7.942,-6.814 -10.764,-10.677c-2.43,-3.515 -4.6,-8.029 -6.51,-13.541c-1.866,-5.491 -3.993,-12.761 -6.424,-21.789c-0.303,-1.388 -0.672,-2.777 -1.128,-4.166c-0.478,-1.389 -0.825,-2.626 -1.042,-3.733c-2.43,-3.06 -4.123,-5.599 -5.034,-7.639c-0.869,-2.018 -1.303,-3.993 -1.303,-5.902c0,-3.755 1.216,-5.903 3.646,-6.424c1.78,-0.391 2.952,-0.803 3.473,-1.215c3.233,-2.127 7.074,-4.623 11.545,-7.466c4.514,-2.821 8.181,-5.468 11.024,-7.899Zm70.052,-5.469c4.275,-1.736 8.637,-3.298 13.108,-4.687c4.448,-1.432 8.962,-2.821 13.541,-4.167c-0.13,-0.911 -0.347,-1.779 -0.694,-2.604c-0.347,-0.803 -0.673,-1.671 -0.955,-2.604c-0.521,-1.498 -0.825,-3.06 -0.868,-4.688c-0.065,-1.606 -0.087,-3.146 -0.087,-4.6c0,-2.952 0.261,-5.86 0.781,-8.768c0.521,-2.886 1.606,-6.271 3.299,-10.156c1.671,-3.928 4.34,-8.876 7.986,-14.844c0.695,-1.041 1.302,-2.192 1.823,-3.472c0.521,-1.259 0.781,-2.604 0.781,-3.993c0,-1.042 -1.172,-2.127 -3.472,-3.299c-2.257,-1.15 -4.253,-1.736 -5.99,-1.736c-1.345,0 -2.582,0.478 -3.732,1.389c-1.172,0.868 -1.953,1.78 -2.344,2.691l-2.778,6.424c-0.933,2.148 -2.083,4.991 -3.472,8.507c-0.521,1.345 -1.107,2.647 -1.736,3.906c-0.586,1.28 -1.02,2.604 -1.302,3.993c-1.042,5.512 -1.997,9.961 -2.865,13.368c-0.868,3.429 -1.801,6.641 -2.777,9.635c-0.934,3.364 -2.171,6.684 -3.733,9.983c-1.519,3.299 -3.017,6.554 -4.514,9.722Zm43.576,40.625c2.301,-1.909 4.167,-3.472 5.556,-4.687c1.432,-1.215 3.233,-2.691 5.382,-4.427c1.606,-1.324 2.647,-2.301 3.125,-2.952c0.456,-0.694 0.694,-1.389 0.694,-2.083c0,-1.215 -0.911,-2.365 -2.691,-3.472c-1.736,-1.15 -3.125,-1.736 -4.166,-1.736c-0.304,-0 -0.695,0.065 -1.216,0.173c-0.52,0.13 -1.193,0.521 -1.996,1.216c-2.843,2.256 -5.729,4.579 -8.681,6.944c-2.951,2.387 -6.206,4.774 -9.722,7.205c2.3,0.521 4.623,1.128 6.945,1.823c2.365,0.651 4.622,1.302 6.77,1.996Zm-36.284,21.962c-3.125,-0.629 -6.728,-1.302 -10.764,-1.996c-3.993,-0.695 -6.901,-1.042 -8.681,-1.042c-3.472,-0 -6.771,0.521 -9.896,1.562c-3.081,0.999 -4.6,2.236 -4.6,3.733c-0,1.736 1.237,3.125 3.732,4.167c2.474,0.998 5.599,1.475 9.375,1.475c2.019,0 4.449,-0.477 7.292,-1.475c2.821,-1.042 7.335,-3.169 13.542,-6.424Zm-21.007,-32.031c2.647,-1.78 5.078,-3.472 7.291,-5.035c2.257,-1.606 5.209,-3.733 8.855,-6.337c1.844,-1.323 3.754,-2.647 5.729,-3.993c1.953,-1.324 3.255,-2.192 3.906,-2.604c-4.167,0.412 -8.398,1.194 -12.674,2.344c-4.296,1.107 -7.79,2.409 -10.503,3.906c-4.058,2.149 -6.858,3.95 -8.42,5.382c-1.519,1.389 -2.257,2.214 -2.257,2.431c-0,0.412 0.542,1.302 1.649,2.691c1.15,1.345 2.344,1.996 3.559,1.996c1.085,0 2.04,-0.26 2.865,-0.781Zm-55.295,38.542l-0.174,-2.431l-0.608,-17.969l-0.434,-0.26c-0.933,0.173 -1.714,0.304 -2.343,0.347c-0.586,0.065 -1.216,0.174 -1.91,0.347c-0.695,0.13 -1.432,0.152 -2.17,0.087c-0.695,-0.108 -1.389,-0.217 -2.084,-0.347l-0.347,0.173l0,0.868c0,1.628 0.543,3.733 1.649,6.337c1.151,2.604 2.54,5.122 4.167,7.552c1.606,2.431 3.038,4.21 4.254,5.296Zm39.583,-54.688c1.845,-1.779 3.863,-3.342 6.076,-4.687c2.257,-1.324 4.514,-2.648 6.771,-3.994c-1.736,-0.694 -3.364,-1.605 -4.861,-2.777c-1.454,-1.15 -2.93,-2.257 -4.427,-3.299c-0.13,2.561 -0.477,5.078 -1.042,7.552c-0.521,2.496 -1.367,4.905 -2.517,7.205Z" style="fill-rule:nonzero;"/></g></g></g><g><g><g><path d="M609.808,136.27l1.216,-0.954c-0.999,-1.085 -1.823,-2.279 -2.518,-3.559c-0.651,-1.259 -0.955,-2.561 -0.955,-3.907c0,-2.3 0.955,-4.427 2.865,-6.337c1.845,-1.953 4.015,-3.342 6.51,-4.166c2.474,-0.803 5.078,-1.215 7.813,-1.215c3.472,-0 6.814,0.607 10.069,1.822c3.234,1.216 6.12,3.017 8.681,5.382c1.497,1.389 2.734,3.039 3.732,4.948c0.977,1.867 1.867,3.711 2.691,5.556c0.391,0.998 0.608,2.148 0.608,3.472c0,4.058 -0.911,7.162 -2.691,9.288c-1.801,2.149 -4.058,4.08 -6.771,5.816c-1.215,0.825 -2.387,1.541 -3.472,2.17c-1.042,0.586 -2.322,1.281 -3.819,2.084c0.564,0.521 1.128,1.041 1.649,1.562c0.521,0.478 1.063,0.955 1.649,1.476c1.606,1.454 2.886,3.168 3.82,5.121c0.911,1.975 1.584,4.037 1.996,6.164c2.127,0.412 4.189,0.933 6.163,1.562c1.953,0.586 3.863,1.432 5.73,2.518c1.215,-2.192 2.473,-4.254 3.819,-6.164c1.389,-1.953 2.734,-3.949 4.08,-5.989c-1.107,-0.521 -2.084,-0.955 -2.952,-1.302c-0.868,-0.348 -1.866,-0.716 -2.951,-1.129c-1.736,-0.629 -3.277,-1.779 -4.601,-3.472c-1.345,-1.736 -1.996,-3.516 -1.996,-5.382c-0,-2.127 0.803,-3.689 2.43,-4.687c1.606,-1.042 4.21,-1.91 7.813,-2.605l17.621,-7.812c-0.586,-0.977 -1.193,-2.105 -1.823,-3.386c-0.585,-1.258 -0.868,-2.517 -0.868,-3.732c0,-3.646 1.303,-6.511 3.907,-8.594c2.647,-2.083 5.816,-3.581 9.461,-4.514c3.646,-0.911 6.793,-1.389 9.462,-1.389c8.334,0 15.734,2.691 22.223,8.073c2.647,-0.173 5.23,-0.304 7.725,-0.434c2.474,-0.108 4.992,-0.173 7.552,-0.173c2.604,-0 5.643,0.434 9.115,1.302c3.516,0.868 6.879,2.126 10.069,3.732c3.234,1.628 5.664,3.516 7.292,5.643c1.324,1.736 2.344,3.211 3.038,4.427c0.695,1.215 1.042,2.777 1.042,4.687c-0,3.472 -0.781,6.25 -2.344,8.334c-1.562,2.083 -4.232,3.125 -7.986,3.125c-2.04,-0 -4.058,-0.261 -6.076,-0.782l-5.99,-1.649c-2.604,-0.629 -5.425,-1.128 -8.42,-1.476c-3.017,-0.347 -5.881,-0.521 -8.594,-0.521c-2.951,0 -5.903,0.239 -8.854,0.695c-2.951,0.477 -5.903,1.042 -8.854,1.736c-3.017,0.825 -6.641,1.801 -10.851,2.951c-4.232,1.107 -7.552,2.474 -9.983,4.08c-2.148,1.519 -3.949,3.516 -5.381,5.99c-1.389,2.496 -2.561,4.948 -3.473,7.378l-0.173,0.608l16.493,-7.899l2.604,-0.782l15.799,-5.902c2.126,-0.391 4.427,-0.825 6.857,-1.302c2.431,-0.456 5.838,-0.695 10.243,-0.695c2.821,0 6.207,0.412 10.156,1.215c3.994,0.825 7.075,2.171 9.289,4.08c3.168,2.561 5.837,5.534 7.986,8.941c2.192,3.429 3.298,7.292 3.298,11.632c0,1.628 -0.173,3.255 -0.52,4.861c-0.348,1.563 -0.999,3.038 -1.91,4.427c-1.519,2.257 -2.518,3.907 -3.038,4.948c-0.521,0.999 -0.782,1.628 -0.782,1.91c0,0.933 0.109,1.866 0.348,2.778c0.282,0.933 0.564,1.736 0.868,2.43c0.39,0.933 0.607,1.888 0.607,2.865c0,2.561 -1.02,4.47 -3.038,5.729c-2.04,1.28 -4.21,1.91 -6.51,1.91c-2.387,-0 -5.122,-0.304 -8.247,-0.955c-3.081,-0.695 -5.903,-1.237 -8.507,-1.649c-0.824,-0.174 -1.627,-0.261 -2.43,-0.261l-2.344,0c-6.38,0 -12.5,0.76 -18.403,2.257l-19.358,5.035c-1.627,0.412 -3.342,0.694 -5.121,0.868c-1.736,0.13 -3.385,0.174 -4.948,0.174c-4.579,-0 -8.637,-1.737 -12.153,-5.209c-3.472,-3.515 -6.423,-6.966 -8.854,-10.33c-2.561,2.149 -4.926,3.429 -7.118,3.82c-2.148,0.412 -4.904,0.824 -8.246,1.215c0.282,0.695 0.434,1.302 0.434,1.823l-0,4.601c3.754,1.215 7.248,3.038 10.503,5.468c0.629,-0.282 1.324,-0.477 2.083,-0.607c0.738,-0.109 1.519,-0.174 2.344,-0.174c3.342,0 6.532,0.955 9.549,2.865c3.06,1.866 5.251,4.318 6.597,7.378l0.955,-0.173l3.298,-0.782l15.712,-4.861c5.491,-1.736 11.025,-3.255 16.58,-4.6c5.599,-1.389 11.306,-2.084 17.101,-2.084c4.557,0 9.201,0.586 13.889,1.736c4.731,1.172 8.984,3.017 12.76,5.556c2.3,1.454 4.601,3.798 6.858,7.031c2.3,3.255 3.58,6.294 3.819,9.115l1.823,17.708l0.434,17.969c0,2.213 -0.13,4.557 -0.347,7.031c-0.174,2.496 -0.608,4.796 -1.302,6.945c-1.346,3.645 -3.733,6.423 -7.205,8.333c-3.429,1.953 -7.01,2.951 -10.764,2.951c-4.167,0 -8.073,-0.759 -11.719,-2.257c-3.602,-1.454 -7.161,-3.19 -10.677,-5.208c-3.081,-0 -6.163,-0.26 -9.288,-0.781c-1.215,-0.304 -2.474,-0.521 -3.733,-0.695c-1.28,-0.13 -2.582,-0.173 -3.906,-0.173c-1.345,-0 -2.691,0.021 -4.08,0.086c-1.345,0.109 -2.474,0.217 -3.385,0.348l-3.646,0.434c-1.215,0.108 -2.496,0.173 -3.819,0.173c-1.91,0 -4.08,-0.412 -6.511,-1.215c-2.387,-0.825 -4.167,-2.083 -5.382,-3.819c-0.824,-1.107 -1.345,-2.344 -1.562,-3.733c-0.174,-1.432 -0.326,-2.821 -0.434,-4.167c-0.174,-1.432 -0.304,-2.821 -0.348,-4.166c-0.065,-1.389 -0.086,-2.735 -0.086,-4.08c-0,-1.085 0.021,-2.604 0.086,-4.514c0.044,-1.953 0.217,-3.928 0.521,-5.903c0.282,-1.953 0.608,-3.32 0.955,-4.08c0.803,-1.497 2.214,-2.257 4.254,-2.257l3.038,0c0.694,0 1.259,-0.021 1.736,-0.087c0.456,-0.043 0.89,-0.173 1.302,-0.347c1.91,-0.911 3.689,-1.779 5.382,-2.604c1.671,-0.803 3.385,-1.606 5.121,-2.43c2.019,-1.042 4.189,-1.758 6.511,-2.171c2.365,-0.39 4.622,-0.607 6.771,-0.607c1.909,-0 3.754,0.347 5.555,1.041c1.845,0.651 3.429,1.476 4.775,2.518c3.233,2.43 4.861,5.881 4.861,10.33c-0,1.345 -0.13,2.756 -0.348,4.253c-0.173,1.454 -0.412,2.93 -0.694,4.427c0.694,0.304 1.324,0.586 1.91,0.868c0.629,0.239 1.215,0.347 1.736,0.347c0.282,0 0.694,-0.043 1.215,-0.173c0.521,-0.174 0.868,-0.868 1.042,-2.083c0.108,-1.324 0.195,-3.212 0.26,-5.643c0.044,-2.43 0.087,-4.774 0.087,-7.031l0,-5.642c0,-2.822 -1.085,-5.296 -3.212,-7.379c-2.148,-2.083 -4.644,-3.125 -7.465,-3.125c-2.951,0 -6.315,0.326 -10.069,0.955c-3.777,0.586 -7.205,1.389 -10.33,2.431l-12.066,4.687c-2.561,0.933 -5.209,1.476 -7.986,1.649c-2.778,0.131 -5.513,0.239 -8.16,0.348c-0.304,1.106 -0.564,2.213 -0.781,3.298c-0.174,1.042 -0.261,2.17 -0.261,3.386l0,18.316c0,2.43 0.109,4.904 0.347,7.378c0.283,2.496 0.434,4.991 0.434,7.552c0,2.995 -0.672,5.599 -1.996,7.813c-1.346,2.191 -3.776,3.298 -7.292,3.298c-2.561,0 -5.208,-0.651 -7.986,-1.91c-2.734,-1.28 -4.752,-3.038 -6.076,-5.295c-0.825,-1.519 -1.346,-3.103 -1.563,-4.774c-0.173,-1.693 -0.26,-3.385 -0.26,-5.121l-0,-5.469l2.17,-19.358l1.215,-8.333c-1.345,0.694 -3.016,1.041 -5.034,1.041c-1.867,0 -3.603,-0.26 -5.209,-0.781l0,16.927c0,2.431 0.044,4.905 0.174,7.379c0.108,2.495 0.173,5.013 0.173,7.552c0,6.076 -1.302,11.154 -3.906,15.278c-2.604,4.101 -7.292,6.163 -14.062,6.163c-3.776,-0 -7.335,-1.02 -10.677,-3.038c-3.364,-2.04 -5.795,-4.731 -7.292,-8.073c-0.76,-2.04 -1.215,-4.232 -1.389,-6.598c-0.13,-2.365 -0.174,-4.817 -0.174,-7.378c-4.687,0 -9.071,-1.063 -13.107,-3.212c-4.058,-2.127 -7.292,-5.121 -9.722,-8.941c-2.431,-3.863 -3.646,-8.203 -3.646,-13.021c-0,-4.166 1.562,-7.66 4.687,-10.503c1.042,-0.977 2.018,-1.931 2.952,-2.865c0.976,-0.911 1.866,-1.844 2.691,-2.777l9.635,-12.5l3.646,-5.469c-4.167,-1.215 -7.444,-2.279 -9.809,-3.212c-2.322,-0.977 -5.165,-2.951 -8.507,-5.903c-3.364,-3.233 -6.033,-7.487 -7.986,-12.76c-1.975,-5.317 -2.952,-10.265 -2.952,-14.844c0,-5.143 1.129,-10.004 3.386,-14.583c2.3,-4.558 5.23,-8.811 8.767,-12.761c3.581,-3.993 7.465,-7.66 11.632,-11.024c4.21,-3.342 8.203,-6.38 11.979,-9.115Zm88.368,50.695l-20.746,4.861l-0,0.608c-0,1.345 0.39,2.647 1.215,3.906c0.803,1.28 1.736,2.322 2.778,3.125c5.903,-1.91 11.892,-3.733 17.969,-5.469c6.076,-1.736 12.109,-3.147 18.142,-4.253c0.564,-0.521 1.649,-1.693 3.212,-3.559c1.606,-1.91 3.125,-3.776 4.514,-5.643c1.432,-1.909 2.17,-3.06 2.17,-3.472c-0,-0.282 -0.174,-0.521 -0.521,-0.694c-0.304,-0.217 -0.586,-0.348 -0.868,-0.348c-1.519,0 -3.429,0.565 -5.729,1.65c-2.257,1.041 -4.666,2.322 -7.205,3.819l-14.931,5.469Zm-102.691,0.608c2.127,-0.695 4.297,-1.563 6.511,-2.605c2.257,-1.085 4.449,-2.105 6.597,-3.038c0.217,-0.976 0.391,-2.213 0.521,-3.732c0.173,-1.563 0.26,-2.8 0.26,-3.733c-0.521,-0.391 -1.128,-1.15 -1.823,-2.257l-0.347,-0.781c-0.174,-0.282 -0.391,-0.565 -0.608,-0.868c-0.998,0.412 -2.647,1.345 -4.947,2.777c-2.257,1.389 -4.384,2.93 -6.337,4.601c-1.91,1.693 -2.865,3.082 -2.865,4.167c0,1.215 0.261,2.257 0.781,3.125c0.521,0.868 1.259,1.649 2.257,2.344Zm100.868,83.767l0.174,5.382c1.606,-0.109 3.32,-0.391 5.122,-0.868c1.844,-0.456 3.428,-1.15 4.774,-2.084c0.694,-0.976 1.497,-2.3 2.43,-3.993c0.977,-1.671 1.476,-2.821 1.476,-3.472c0,-0.564 -0.087,-1.215 -0.26,-1.91c-0.131,-0.737 -0.521,-1.128 -1.216,-1.128c-0.52,-0 -1.714,0.434 -3.559,1.302c-1.801,0.868 -3.559,1.823 -5.295,2.865c-1.736,0.998 -2.951,1.692 -3.646,2.083l0,1.823Z" style="fill-rule:nonzero;"/></g></g></g><g><g><g><path d="M841.859,150.854c-0.304,-0.977 -1.086,-1.823 -2.344,-2.518c-1.281,-0.737 -2.735,-1.41 -4.34,-1.996c-1.042,-0.391 -2.171,-0.825 -3.386,-1.302c-1.215,-0.456 -2.387,-0.955 -3.472,-1.476c-1.736,-1.324 -2.952,-2.821 -3.646,-4.514c-0.651,-1.671 -0.955,-3.407 -0.955,-5.208c0,-2.952 0.955,-5.512 2.865,-7.726c1.953,-2.257 4.362,-4.015 7.205,-5.295c2.821,-1.259 5.577,-1.91 8.246,-1.91c4.731,0 9.288,1.172 13.629,3.473c4.383,2.256 7.856,5.36 10.416,9.288c2.257,-1.91 4.623,-3.863 7.118,-5.903c2.474,-2.018 5.339,-3.038 8.594,-3.038c3.125,-0 6.12,0.868 9.028,2.604c2.886,1.693 5.252,3.646 7.118,5.903c1.215,-2.539 2.821,-4.905 4.861,-7.118c2.018,-2.257 4.557,-3.386 7.639,-3.386c3.928,0 7.422,1.194 10.503,3.559c3.125,2.387 4.688,5.643 4.688,9.809c-0,1.736 -0.152,3.386 -0.434,4.948c-0.304,1.519 -0.434,3.169 -0.434,4.948c-0,0.825 0.022,1.606 0.087,2.344c0.108,0.694 0.217,1.454 0.347,2.257c5.252,-4.97 10.59,-9.939 15.972,-14.931c5.382,-4.969 11.068,-9.396 17.101,-13.281c5.664,-3.819 11.588,-5.729 17.795,-5.729c3.472,-0 6.944,0.586 10.417,1.736c3.515,1.172 6.792,2.691 9.809,4.601c2.257,1.345 4.535,3.168 6.857,5.468c2.366,2.257 4.362,4.688 5.99,7.292c1.606,2.604 2.43,5.339 2.43,8.16c0,2.561 -1.193,5.62 -3.559,9.201c-2.322,3.603 -5.251,7.335 -8.767,11.198c3.928,1.519 6.988,4.058 9.201,7.639c2.257,3.537 3.386,7.378 3.386,11.545c-0,2.952 -0.912,5.773 -2.691,8.42c-1.736,2.604 -4.232,3.907 -7.465,3.907c-1.867,-0 -3.95,-0.348 -6.25,-1.042c-2.149,-0.629 -4.341,-1.215 -6.598,-1.736c-2.213,-0.564 -4.427,-0.868 -6.684,-0.868c-2.843,-0 -5.729,0.043 -8.68,0.086c-2.952,0.066 -5.795,0.435 -8.507,1.129c0.694,1.215 1.324,2.387 1.91,3.472c0.629,1.042 1.215,2.127 1.736,3.212c1.085,-0.174 2.17,-0.282 3.211,-0.347c1.086,-0.044 2.105,-0.087 3.039,-0.087c4.448,-0 9.027,0.781 13.715,2.344c4.731,1.519 8.724,3.906 11.979,7.205c3.299,3.298 4.948,7.595 4.948,12.847c0,3.125 -0.846,6.141 -2.517,9.028c-1.693,2.908 -4.254,4.34 -7.726,4.34c-2.431,-0 -4.839,-0.174 -7.205,-0.521c-2.322,-0.347 -4.644,-0.521 -6.944,-0.521c-1.736,0 -3.451,0.13 -5.122,0.347c-1.693,0.174 -3.342,0.608 -4.948,1.302l0,5.382c4.557,0 9.202,0.348 13.889,1.042c4.731,0.695 9.115,2.17 13.108,4.427c3.928,2.149 7.335,4.926 10.243,8.334c2.886,3.363 4.34,7.378 4.34,12.065c0,1.628 -0.217,3.256 -0.608,4.862c-0.412,1.627 -1.215,2.951 -2.43,3.993c-3.364,3.125 -7.465,4.687 -12.327,4.687c-1.866,0 -3.71,-0.26 -5.555,-0.781c-1.801,-0.564 -3.646,-1.129 -5.556,-1.649c-1.215,-0.391 -2.495,-0.651 -3.819,-0.782c-1.346,-0.173 -2.669,-0.26 -3.993,-0.26c-0.695,-0 -1.454,0.043 -2.257,0.087c-0.825,0.065 -1.563,0.087 -2.257,0.087c-0.13,3.537 -0.304,7.183 -0.521,10.937c-0.173,3.754 -1.345,7.118 -3.472,10.069c-1.736,2.54 -4.145,4.449 -7.205,5.73c-3.016,1.323 -6.076,1.996 -9.201,1.996c-3.082,0 -6.424,-0.521 -10.07,-1.562c-3.602,-0.999 -6.554,-2.561 -8.854,-4.688c-2.561,-2.322 -4.232,-5.013 -5.035,-8.073c-0.824,-3.016 -1.367,-6.098 -1.649,-9.288c-1.345,0.239 -2.778,0.499 -4.34,0.781c-1.519,0.304 -3.017,0.434 -4.514,0.434c-2.431,0 -5.035,-0.347 -7.813,-1.041c-2.734,-0.695 -5.165,-1.65 -7.291,-2.865c-0.999,1.389 -1.888,2.734 -2.691,3.993c-0.825,1.281 -1.606,2.583 -2.344,3.906c0.217,1.498 0.391,2.973 0.521,4.427c0.173,1.498 -0.087,2.974 -0.781,4.428c-0.825,1.779 -2.084,3.233 -3.82,4.34c-1.736,1.15 -3.559,1.736 -5.469,1.736c-2.04,-0 -4.036,-0.13 -5.989,-0.347c-1.91,-0.174 -3.885,-0.261 -5.903,-0.261c-1.454,0 -3.733,0.109 -6.858,0.348c-3.081,0.282 -6.054,0.607 -8.941,0.954c-2.908,0.348 -4.904,0.521 -5.989,0.521c-5.903,0 -11.524,-1.823 -16.84,-5.469c-5.339,-3.645 -9.072,-8.159 -11.198,-13.541c-1.216,-3.169 -2.257,-6.467 -3.125,-9.896c-0.868,-3.472 -1.302,-6.944 -1.302,-10.417c-0,-5.664 0.781,-10.698 2.343,-15.104c1.606,-4.449 3.928,-8.963 6.945,-13.542c-0.825,-0.694 -1.606,-1.236 -2.344,-1.649c-0.76,-0.39 -1.476,-0.868 -2.17,-1.389c-3.082,-2.192 -4.601,-4.362 -4.601,-6.51c0,-1.606 0.543,-2.952 1.649,-3.993c1.433,-0.977 3.169,-2.018 5.209,-3.125c2.018,-1.15 4.101,-2.387 6.25,-3.733c1.085,-0.694 1.91,-1.584 2.43,-2.691c-1.345,-0.629 -2.495,-1.215 -3.472,-1.736c-0.933,-0.564 -2.062,-1.172 -3.385,-1.823c-1.346,-1.085 -2.93,-2.799 -4.775,-5.121c-1.801,-2.366 -2.691,-4.362 -2.691,-5.99c0,-1.497 0.825,-2.539 2.518,-3.125c1.671,-0.629 3.581,-0.998 5.729,-1.128c1.736,-1.085 3.581,-2.257 5.556,-3.473c1.953,-1.215 3.602,-2.278 4.947,-3.211c-2.257,-0.217 -4.492,-0.565 -6.684,-1.042c-2.148,-0.521 -4.296,-1.302 -6.423,-2.344c-2.04,-0.976 -4.058,-2.626 -6.077,-4.948c-2.04,-2.365 -3.038,-4.622 -3.038,-6.771c0,-2.43 1.172,-4.123 3.559,-5.121c2.366,-1.042 4.427,-1.758 6.163,-2.17l5.816,-5.816c2.019,-2.018 3.776,-4.102 5.296,-6.25Zm87.152,88.541c-7.248,0.413 -13.845,-0.303 -19.791,-2.17c-5.903,-1.909 -10.135,-5.664 -12.674,-11.284c-1.345,1.041 -2.756,1.953 -4.253,2.691c-1.454,0.759 -3.125,1.128 -5.035,1.128c-1.215,0 -3.082,-0.174 -5.556,-0.521c-2.495,-0.347 -4.492,-0.521 -5.989,-0.521c-5.209,0 -10.308,0.868 -15.278,2.605c-2.04,0.694 -3.82,1.627 -5.382,2.777c-1.563,1.107 -2.865,2.604 -3.906,4.514c-1.519,2.561 -2.93,5.99 -4.254,10.33c-1.345,4.297 -1.996,7.769 -1.996,10.417c1.736,-1.15 3.212,-2.887 4.427,-5.209c2.647,-5.078 6.272,-9.31 10.851,-12.673c4.622,-3.407 10.004,-5.122 16.145,-5.122c4.037,0 8.03,0.738 11.98,2.17c3.993,1.389 7.486,3.516 10.503,6.337c3.06,2.843 5.056,6.337 5.99,10.504c1.085,-0.391 2.17,-0.825 3.211,-1.302c1.085,-0.456 2.105,-0.977 3.039,-1.563c3.125,-1.042 6.163,-2.018 9.114,-2.951c2.952,-0.977 5.903,-2.084 8.854,-3.299l0,-6.858Zm-65.364,-34.461c2.43,-0.391 4.883,-0.782 7.378,-1.129c2.474,-0.347 4.992,-0.521 7.552,-0.521c4.275,0 8.334,1.194 12.153,3.559c3.863,2.322 6.554,5.599 8.073,9.809c5.208,-1.909 10.352,-3.776 15.451,-5.642c5.144,-1.91 10.352,-3.516 15.625,-4.861c-0.303,-1.085 -0.607,-2.083 -0.954,-2.951c-0.348,-0.869 -0.782,-1.758 -1.303,-2.691c-2.669,1.345 -5.816,1.996 -9.461,1.996c-3.125,0 -5.773,-0.195 -7.9,-0.608c-2.148,-0.39 -4.318,-1.128 -6.51,-2.17c-2.149,-1.085 -4.905,-2.647 -8.247,-4.687c-4.166,1.215 -8.463,2.387 -12.847,3.472c-4.34,1.042 -8.55,2.17 -12.587,3.385c-1.215,0.413 -2.322,0.847 -3.298,1.303c-0.999,0.477 -2.04,1.041 -3.125,1.736Zm-12.5,79.079c2.647,-0.911 5.403,-1.692 8.246,-2.343c2.821,-0.695 5.664,-1.324 8.507,-1.91c1.432,-1.215 3.429,-3.168 5.99,-5.903c2.604,-2.778 4.948,-5.664 7.031,-8.68c2.083,-3.06 3.125,-5.512 3.125,-7.379c0,-1.085 -0.608,-2.083 -1.823,-2.951c-1.215,-0.868 -2.582,-1.649 -4.08,-2.344c-0.412,-0.217 -0.824,-0.391 -1.215,-0.521c-0.412,-0.173 -0.825,-0.26 -1.215,-0.26c-0.76,-0 -1.454,0.499 -2.084,1.476c-0.586,0.933 -1.02,1.714 -1.302,2.343c-2.148,4.992 -4.579,9.028 -7.291,12.153c-2.67,3.082 -7.097,4.601 -13.282,4.601l-4.253,-0c0.282,4.166 1.497,8.073 3.646,11.718Zm2.778,-104.774c2.43,-1.041 4.904,-2.04 7.465,-3.038c2.604,-1.042 5.165,-1.823 7.725,-2.344c1.737,-1.909 3.82,-4.34 6.25,-7.291c2.431,-2.952 4.796,-5.947 7.119,-9.028c2.365,-3.125 4.166,-5.686 5.381,-7.726c0.803,-1.324 1.259,-2.734 1.389,-4.253c-0.238,-1.433 -0.911,-3.06 -1.996,-4.861c-1.107,-1.845 -2.583,-2.778 -4.427,-2.778c-0.521,-0 -1.129,0.564 -1.823,1.649c-0.695,1.042 -1.866,3.385 -3.472,7.031c-1.216,2.67 -2.474,5.252 -3.733,7.726c-1.28,2.496 -2.843,4.905 -4.688,7.205c-2.43,3.081 -5.034,6.228 -7.812,9.462c-2.734,3.255 -5.187,5.989 -7.378,8.246Zm107.638,-22.569c2.127,-1.91 4.688,-4.037 7.639,-6.424c2.952,-2.43 5.686,-4.709 8.247,-6.858c2.018,-1.605 3.385,-3.125 4.08,-4.513c-0.586,-1.324 -1.693,-2.605 -3.299,-3.82c-1.562,-1.215 -3.103,-1.823 -4.601,-1.823c-0.412,0 -1.562,0.847 -3.472,2.518c-1.866,1.692 -4.058,3.906 -6.597,6.684c-2.561,2.777 -5.208,5.772 -7.986,8.941c-2.778,3.125 -5.252,6.163 -7.379,9.114c4.341,-1.606 8.789,-2.886 13.368,-3.819Zm-68.836,16.927c1.432,0.998 2.625,2.04 3.559,3.125c0.976,1.041 1.866,2.3 2.691,3.732c0.911,-0.108 2.647,-0.781 5.208,-1.996c2.539,-1.215 5.121,-2.517 7.726,-3.906c2.647,-1.433 4.448,-2.431 5.382,-2.952c-2.67,-1.215 -5.252,-2.626 -7.726,-4.253c-2.496,-1.606 -4.753,-3.494 -6.771,-5.643c-1.736,2.04 -3.385,4.059 -4.948,6.077c-1.562,2.04 -3.277,3.971 -5.121,5.816Z" style="fill-rule:nonzero;"/></g></g></g><g><g><g><path d="M1077.49,208.447c-0.694,-0.695 -1.432,-1.303 -2.17,-1.823c-0.694,-0.521 -1.389,-1.064 -2.083,-1.65c-2.04,-1.844 -3.559,-4.101 -4.601,-6.771c-0.998,-2.712 -1.476,-5.425 -1.476,-8.159c0,-1.845 0.391,-3.82 1.216,-5.903c0.803,-2.083 1.758,-3.928 2.864,-5.556l9.462,-14.149c0.282,-0.521 0.434,-0.911 0.434,-1.215c0,-0.695 -0.434,-1.259 -1.302,-1.736c-0.868,-0.456 -2.604,-1.15 -5.208,-2.084c-1.346,-0.694 -2.561,-1.909 -3.646,-3.645c-1.042,-1.737 -1.563,-3.299 -1.563,-4.688c0,-2.127 0.825,-4.102 2.518,-5.903c1.671,-1.844 3.385,-3.233 5.121,-4.166c1.498,-0.803 3.125,-1.324 4.861,-1.563c1.737,-0.282 3.473,-0.434 5.209,-0.434c1.909,0 3.754,0.304 5.555,0.868c1.845,0.521 4.102,1.302 6.771,2.344c2.431,-3.472 5.252,-6.619 8.507,-9.462c3.234,-2.821 7.14,-4.253 11.719,-4.253c6.011,-0 11.675,2.04 17.014,6.076c5.317,4.058 9.592,8.485 12.847,13.281c1.085,-1.041 2.279,-1.909 3.559,-2.604c1.259,-0.694 2.713,-1.042 4.34,-1.042c1.736,0 3.733,0.565 5.99,1.65c2.3,1.106 4.123,2.17 5.469,3.212c1.215,0.933 2.343,1.953 3.385,3.038c1.085,1.106 2.127,2.17 3.125,3.212c1.432,-1.433 2.8,-2.822 4.08,-4.167c1.259,-1.389 2.452,-2.735 3.559,-4.08c3.472,-4.167 7.574,-7.248 12.326,-9.288c4.796,-2.018 9.896,-3.038 15.278,-3.038c4.34,-0 8.963,0.954 13.889,2.864c4.904,1.867 8.898,4.34 11.979,7.465c5.252,5.209 8.963,11.285 11.111,18.23c2.127,6.944 3.255,14.04 3.386,21.267l0.434,16.146l1.215,27.864l0.434,25.261l0.174,3.385l0.781,24.045l0.434,14.497l-1.649,4.861c-0.521,1.606 -1.389,3.038 -2.605,4.253c-1.736,2.019 -3.949,3.494 -6.597,4.428c-2.604,0.976 -5.252,1.475 -7.899,1.475c-2.322,0 -4.34,-0.26 -6.077,-0.781c-1.736,-0.477 -4.231,-1.367 -7.465,-2.691c-1.519,-0.694 -3.081,-1.085 -4.687,-1.128c-1.563,-0.066 -3.169,-0.087 -4.775,-0.087c-1.801,-0 -2.951,0.043 -3.472,0.173l-15.364,2.865c-3.776,0.803 -7.596,1.215 -11.459,1.215c-1.736,0 -3.515,-0.152 -5.295,-0.434c-1.736,-0.239 -3.429,-0.694 -5.035,-1.389c-1.454,-0.694 -3.276,-1.692 -5.468,-2.951c-2.149,-1.28 -3.733,-2.583 -4.775,-3.906c-0.694,-0.825 -1.475,-1.693 -2.343,-2.604c-0.868,-0.977 -1.519,-1.932 -1.91,-2.865c-0.521,-1.215 -1.107,-2.474 -1.736,-3.82c-0.586,-1.323 -0.955,-2.69 -1.129,-4.079c-0.238,-2.648 -0.434,-5.317 -0.607,-7.986c-0.131,-2.713 -0.174,-5.426 -0.174,-8.16l-0.608,-15.104l-0.607,-0c-2.04,1.627 -4.319,2.43 -6.858,2.43c-1.215,0 -2.344,-0.13 -3.385,-0.434l-2.084,-1.389c1.389,2.561 2.8,5.013 4.254,7.379c1.497,2.387 3.06,4.687 4.687,6.944c0.803,1.346 1.65,2.93 2.518,4.774c0.868,1.802 1.302,3.56 1.302,5.296c-0,2.322 -0.847,4.752 -2.518,7.291c-1.692,2.561 -3.819,3.82 -6.423,3.82c-1.172,-0 -2.474,-0.087 -3.906,-0.261c-1.389,-0.217 -2.583,-0.651 -3.559,-1.302c-1.454,-0.976 -2.757,-2.257 -3.907,-3.819c-1.172,-1.606 -2.148,-3.234 -2.951,-4.861l-5.208,-10.764c-1.107,-2.366 -2.322,-4.731 -3.646,-7.118c-1.346,-2.366 -2.409,-4.818 -3.212,-7.379c-0.933,0.695 -1.801,1.389 -2.604,2.084c-0.825,0.651 -1.78,1.215 -2.865,1.736c-0.304,0.173 -0.586,0.39 -0.868,0.607c-0.239,0.174 -0.477,0.391 -0.694,0.608c3.06,2.951 5.208,6.207 6.423,9.722c0.391,1.042 0.825,2.127 1.302,3.212c0.456,1.107 0.955,2.17 1.476,3.212l10.764,16.58c0.803,1.345 1.215,2.864 1.215,4.6c0,2.127 -0.933,3.776 -2.778,4.948c-1.801,1.15 -3.71,1.736 -5.729,1.736c-2.951,0 -5.902,-1.02 -8.854,-3.038c-2.951,-2.04 -5.382,-4.123 -7.292,-6.25c-1.345,-1.606 -2.647,-3.32 -3.906,-5.121c-1.28,-1.845 -2.474,-3.646 -3.559,-5.382c-1.736,-3.06 -3.038,-6.272 -3.906,-9.636c-0.868,-3.407 -1.649,-6.792 -2.344,-10.156c-0.13,-0.391 -0.304,-0.825 -0.521,-1.302c-0.173,-0.456 -0.412,-0.825 -0.694,-1.128c-2.951,-0.912 -5.686,-2.127 -8.16,-3.646c-2.495,-1.563 -4.948,-3.234 -7.378,-5.035c-2.04,-1.432 -3.711,-2.734 -5.035,-3.906c-1.345,-1.15 -2.561,-2.8 -3.646,-4.948c-0.933,-1.845 -1.736,-3.776 -2.43,-5.816c-0.695,-2.018 -1.042,-4.102 -1.042,-6.25c-0,-4.449 1.085,-8.637 3.299,-12.587c2.256,-3.993 5.143,-8.203 8.68,-12.674c0.217,-0.282 0.369,-0.542 0.434,-0.781c0.109,-0.282 0.217,-0.477 0.347,-0.607Zm-7.031,81.944l-2.257,-14.583c-0.13,-0.63 -0.586,-1.867 -1.389,-3.733c-0.824,-1.91 -1.367,-3.147 -1.649,-3.733c-0.13,-0.39 -0.174,-0.911 -0.174,-1.562c0,-1.389 0.391,-2.778 1.216,-4.167c0.803,-1.389 1.931,-2.083 3.385,-2.083c1.497,-0 2.778,0.26 3.819,0.781c1.086,0.521 2.257,1.259 3.473,2.17c0.803,0.586 2.213,1.736 4.253,3.472c2.018,1.737 3.234,3.104 3.646,4.08c1.432,2.561 2.691,4.905 3.733,7.032c1.085,2.148 2.192,4.644 3.298,7.465c1.216,3.255 2.908,6.228 5.122,8.941c2.257,2.669 4.557,5.317 6.944,7.986c0.977,1.085 1.476,2.648 1.476,4.687c-0,1.324 -0.326,2.908 -0.955,4.775c-0.586,1.909 -1.541,3.212 -2.865,3.906c-0.998,0.521 -2.235,0.825 -3.732,0.955c-1.454,0.173 -2.691,0.26 -3.733,0.26c-3.125,0 -6.076,-0.933 -8.854,-2.778c-2.734,-1.801 -5.165,-3.776 -7.292,-5.902c-1.909,-2.04 -3.428,-4.861 -4.514,-8.507c-1.041,-3.646 -2.039,-6.793 -2.951,-9.462Zm82.465,-74.74l0.261,-5.642l3.385,-38.281c0,-0.282 0.022,-0.716 0.087,-1.302c0.109,-0.63 0.174,-1.15 0.174,-1.563c-0,-2.821 -0.825,-5.469 -2.431,-7.899c0.109,0.586 0.174,1.193 0.174,1.823l-0,2.257c-0,2.843 -0.825,5.555 -2.431,8.159c-1.627,2.605 -3.364,4.862 -5.208,6.771l-13.108,13.108c0.912,0.694 2.192,1.779 3.82,3.212c1.606,1.389 3.168,2.778 4.687,4.166c1.563,1.389 2.691,2.583 3.386,3.559c1.323,1.737 2.56,3.625 3.732,5.643c1.15,2.04 2.301,4.036 3.472,5.989Zm-28.819,-2.951c-0.412,-1.497 -1.02,-2.821 -1.823,-3.993c-0.825,-1.15 -1.779,-2.257 -2.865,-3.299l-1.736,1.389l-11.545,10.33c-0.933,0.825 -2.322,2.04 -4.166,3.646c-1.802,1.562 -3.538,3.168 -5.209,4.774c-1.693,1.628 -2.864,2.995 -3.559,4.08c-0.521,0.933 -1.345,2.214 -2.43,3.82c-1.042,1.627 -1.563,2.994 -1.563,4.079c0,0.934 0.434,1.802 1.302,2.605c0.868,0.824 1.758,1.215 2.691,1.215c0.391,-0 1.606,-0.977 3.646,-2.952c2.018,-1.953 4.34,-4.253 6.944,-6.857c2.648,-2.604 5.057,-5.035 7.205,-7.292c2.127,-2.3 3.473,-3.819 3.993,-4.514c1.389,-1.497 2.908,-2.734 4.601,-3.732c1.671,-0.977 3.168,-2.084 4.514,-3.299Zm86.545,-13.194l0,4.253c1.085,-0.217 2.257,-0.391 3.472,-0.521c1.216,-0.173 2.344,-0.304 3.386,-0.434l1.041,-27.517l0,-5.816c0,-0.695 -0.13,-1.389 -0.347,-2.084c-0.173,-0.737 -0.738,-1.128 -1.649,-1.128c-1.519,0 -3.103,0.933 -4.774,2.778c-1.693,1.801 -2.865,3.212 -3.559,4.253c1.085,4.579 1.757,9.006 1.996,13.282c0.282,4.231 0.434,8.55 0.434,12.934Zm-30.642,82.986l0.607,0.173c1.085,-0.39 2.105,-0.738 3.039,-1.041c0.911,-0.348 1.844,-0.868 2.777,-1.563c-0.13,-4.275 -0.152,-8.529 -0.086,-12.76c0.043,-4.275 0.086,-8.507 0.086,-12.674l0,-5.469c-1.627,0.413 -2.951,0.912 -3.993,1.476c-0.521,0.239 -1.085,0.477 -1.649,0.694c-0.521,0.174 -1.129,0.413 -1.823,0.695c0.174,2.669 0.282,5.425 0.347,8.246c0.044,2.843 0.087,5.686 0.087,8.507l0.434,6.858c0.109,2.322 0.174,4.601 0.174,6.858Zm-2.257,-65.625l0.26,0.868c1.215,-0.282 2.344,-0.651 3.386,-1.129c1.085,-0.455 2.17,-0.976 3.211,-1.562l0.434,-4.601l0.434,-23.785l0,-3.298l-5.468,-0l-0.608,6.076l-1.215,18.403l-0.434,9.028Zm33.159,58.159l6.858,-1.996c-0.173,-3.125 -0.325,-6.011 -0.434,-8.681c-0.13,-2.712 -0.174,-5.143 -0.174,-7.291c0,-2.539 0.044,-5.078 0.174,-7.639c0.109,-2.539 0.174,-5.122 0.174,-7.726c-0.933,0.174 -1.91,0.391 -2.952,0.608c-0.998,0.173 -1.996,0.521 -3.038,1.041c-0.173,4.992 -0.434,10.309 -0.781,15.973c-0.304,5.62 -0.239,10.85 0.173,15.711Zm-101.562,-100.086c1.91,-1.737 3.754,-3.494 5.556,-5.296c1.844,-1.844 3.689,-3.58 5.555,-5.208c1.085,-0.911 2.604,-2.17 4.514,-3.733c1.953,-1.562 2.951,-2.994 2.951,-4.34c0,-1.606 -0.933,-3.081 -2.777,-4.427c-1.802,-1.324 -3.429,-1.996 -4.862,-1.996c-0.933,-0 -1.714,0.586 -2.343,1.736c-0.586,1.106 -1.02,1.996 -1.302,2.691l-6.25,16.319l-1.042,4.254Zm25.868,77.083c-0.412,-1.736 -0.825,-3.494 -1.215,-5.295c-0.413,-1.845 -1.172,-3.516 -2.257,-5.035c-1.215,1.215 -2.496,2.843 -3.82,4.861c0.521,0.412 1.042,0.781 1.563,1.129c0.564,0.347 1.128,0.737 1.649,1.128c0.695,0.521 1.411,1.085 2.17,1.649c0.738,0.521 1.389,1.042 1.91,1.563Z" style="fill-rule:nonzero;"/></g></g></g></svg>