<?xml version="1.0" encoding="UTF-8" standalone="no"?><!DOCTYPE svg PUBLIC "-//W3C//DTD SVG 1.1//EN" "http://www.w3.org/Graphics/SVG/1.1/DTD/svg11.dtd"><svg width="100%" height="100%" viewBox="0 0 5692 380" version="1.1" xmlns="http://www.w3.org/2000/svg" xmlns:xlink="http://www.w3.org/1999/xlink" xml:space="preserve" xmlns:serif="http://www.serif.com/" style="fill-rule:evenodd;clip-rule:evenodd;stroke-linejoin:round;stroke-miterlimit:2;"><g><clipPath id="_clip1"><rect x="303.494" y="58.724" width="249.891" height="295.573"/></clipPath><g clip-path="url(#_clip1)"><path d="M780.078,59.223c0,0 -728.125,-0.022 -728.233,-0.022c0.108,7.184 1.974,98.872 1.909,106.793c-0.152,21.897 -1.888,48.589 -2.994,70.486c-0.5,9.831 -8.312,93.229 -15.105,103.668c0.022,-0.022 125.868,15.863 249.067,7.508c2.908,-16.97 9.05,-34.288 11.502,-51.28c2.713,-19.466 6.272,-36.849 6.619,-56.489c0.564,-32.313 -1.129,-58.941 -1.15,-93.077c-0,-1.758 2.56,-1.91 2.756,-0.174c3.928,33.29 4.969,24.87 8.051,85.851c1.801,36.003 -2.843,77.127 -4.687,113.411c121.093,14.454 140.082,12.717 248.546,-3.19c-3.711,-36.154 -3.494,-69.357 -3.473,-105.512c0.109,-50.694 -2.278,-56.597 -0.564,-96.311c0.087,-1.801 1.215,-1.779 1.324,0.022c2.192,35.352 2.018,60.938 6.467,93.468c2.582,19.423 3.602,40.668 6.836,59.983c2.908,16.992 12.022,47.157 12.087,47.157c106.88,-0 112.566,4.492 219.445,4.492c-7.747,-17.122 -14.735,-125.326 -15.126,-134.787c-0.282,-6.294 -3.798,-131.663 -3.277,-151.997" style="fill:#c40000;fill-rule:nonzero;"/></g></g><g><clipPath id="_clip2"><rect x="303.494" y="34.158" width="249.891" height="11.328"/></clipPath><g clip-path="url(#_clip2)"><path d="M836.892,45.182l-841.948,0l-0,-9.722l841.948,0l0,9.722" style="fill:#d4983d;fill-rule:nonzero;"/></g></g><g><clipPath id="_clip3"><rect x="303.494" y="22.808" width="249.891" height="15.126"/></clipPath><g clip-path="url(#_clip3)"><path d="M836.892,37.326l-841.948,0l-0,-13.129l841.948,0l0,13.129" style="fill:#d4983d;fill-rule:nonzero;"/></g></g><g><clipPath id="_clip4"><rect x="303.494" y="16.97" width="24.284" height="52.474"/></clipPath><g clip-path="url(#_clip4)"><path d="M323.155,68.186l-42.838,-0l-0,-51.042l42.838,0l0,51.042" style="fill:#c40000;fill-rule:nonzero;"/></g></g><g><path d="M551.541,68.186l-42.839,-0l0,-51.042l42.839,0l-0,51.042" style="fill:#c40000;fill-rule:nonzero;"/></g><g><path d="M548.893,64.106l-37.695,-0l-0,-46.962l37.695,0l0,46.962" style="fill:#c40000;fill-rule:nonzero;"/></g><g><clipPath id="_clip5"><rect x="303.494" y="16.97" width="18.728" height="52.474"/></clipPath><g clip-path="url(#_clip5)"><path d="M320.486,64.106l-37.695,-0l-0,-46.962l37.695,0l0,46.962" style="fill:#c40000;fill-rule:nonzero;"/></g></g><g><clipPath id="_clip6"><rect x="1037.89" y="58.724" width="245.443" height="295.573"/></clipPath><g clip-path="url(#_clip6)"><path d="M1264.65,59.223c0,0 -728.125,-0.022 -728.233,-0.022c0.108,7.184 1.975,98.872 1.91,106.793c-0.152,21.897 -1.888,48.589 -2.995,70.486c-0.499,9.831 -8.312,93.229 -15.104,103.668c0.021,-0.022 125.868,15.863 249.067,7.508c2.908,-16.97 9.071,-34.288 11.501,-51.28c2.713,-19.466 6.272,-36.849 6.619,-56.489c0.564,-32.313 -1.128,-58.941 -1.15,-93.077c0,-1.758 2.561,-1.91 2.756,-0.174c3.928,33.29 4.991,24.87 8.051,85.851c1.802,36.003 -2.843,77.127 -4.687,113.411c121.094,14.454 140.104,12.717 248.546,-3.19c-3.711,-36.154 -3.494,-69.357 -3.472,-105.512c0.13,-50.694 -2.279,-56.597 -0.565,-96.311c0.087,-1.801 1.216,-1.779 1.346,0.022c2.17,35.352 1.996,60.938 6.467,93.468c2.561,19.423 3.581,40.668 6.814,59.983c2.908,16.992 12.023,47.157 12.088,47.157c106.879,-0 112.565,4.492 219.444,4.492c-7.747,-17.122 -14.713,-125.326 -15.126,-134.787c-0.282,-6.294 -3.797,-131.663 -3.277,-151.997" style="fill:#c40000;fill-rule:nonzero;"/></g></g><g><clipPath id="_clip7"><rect x="1037.89" y="34.158" width="282.899" height="11.328"/></clipPath><g clip-path="url(#_clip7)"><path d="M1321.48,45.182l-841.948,0l-0,-9.722l841.948,0l0,9.722" style="fill:#d4983d;fill-rule:nonzero;"/></g></g><g><clipPath id="_clip8"><rect x="1037.89" y="22.808" width="282.899" height="15.126"/></clipPath><g clip-path="url(#_clip8)"><path d="M1321.48,37.326l-841.948,0l-0,-13.129l841.948,0l0,13.129" style="fill:#d4983d;fill-rule:nonzero;"/></g></g><g><path d="M1264.52,68.186l-42.838,-0l-0,-51.042l42.838,0l0,51.042" style="fill:#c40000;fill-rule:nonzero;"/></g><g><path d="M1261.89,64.106l-37.717,-0l0,-46.962l37.717,0l0,46.962" style="fill:#c40000;fill-rule:nonzero;"/></g><g><clipPath id="_clip9"><rect x="39.692" y="58.724" width="268.49" height="295.573"/></clipPath><g clip-path="url(#_clip9)"><path d="M785.135,59.223c-0,0 -728.147,-0.022 -728.256,-0.022c0.109,7.184 1.997,98.872 1.932,106.793c-0.152,21.897 -1.91,48.589 -3.017,70.486c-0.499,9.831 -8.29,93.229 -15.082,103.668c-0,-0.022 125.846,15.863 249.067,7.508c2.886,-16.97 9.049,-34.288 11.501,-51.28c2.691,-19.466 6.25,-36.849 6.598,-56.489c0.586,-32.313 -1.107,-58.941 -1.129,-93.077c0,-1.758 2.539,-1.91 2.756,-0.174c3.928,33.29 4.97,24.87 8.051,85.851c1.802,36.003 -2.842,77.127 -4.709,113.411c121.116,14.454 140.104,12.717 248.546,-3.19c-3.689,-36.154 -3.494,-69.357 -3.45,-105.512c0.108,-50.694 -2.279,-56.597 -0.565,-96.311c0.066,-1.801 1.216,-1.779 1.324,0.022c2.17,35.352 2.018,60.938 6.467,93.468c2.561,19.423 3.581,40.668 6.836,59.983c2.886,16.992 12.001,47.157 12.088,47.157c106.879,-0 112.543,4.492 219.423,4.492c-7.726,-17.122 -14.714,-125.326 -15.126,-134.787c-0.261,-6.294 -3.798,-131.663 -3.255,-151.997" style="fill:#c40000;fill-rule:nonzero;"/></g></g><g><clipPath id="_clip10"><rect x="0" y="34.158" width="308.181" height="11.328"/></clipPath><g clip-path="url(#_clip10)"><path d="M841.949,45.182l-841.949,0l0,-9.722l841.949,0l-0,9.722" style="fill:#d4983d;fill-rule:nonzero;"/></g></g><g><clipPath id="_clip11"><rect x="0" y="22.808" width="308.181" height="15.126"/></clipPath><g clip-path="url(#_clip11)"><path d="M841.949,37.326l-841.949,0l0,-13.129l841.949,0l-0,13.129" style="fill:#d4983d;fill-rule:nonzero;"/></g></g><g><path d="M99.805,68.186l-42.839,-0l0,-51.042l42.839,0l-0,51.042" style="fill:#c40000;fill-rule:nonzero;"/></g><g><clipPath id="_clip12"><rect x="283.333" y="16.97" width="24.848" height="52.474"/></clipPath><g clip-path="url(#_clip12)"><path d="M328.19,68.186l-42.838,-0l-0,-51.042l42.838,0l0,51.042" style="fill:#c40000;fill-rule:nonzero;"/></g></g><g><path d="M97.135,64.106l-37.695,-0l0,-46.962l37.695,0l0,46.962" style="fill:#c40000;fill-rule:nonzero;"/></g><g><clipPath id="_clip13"><rect x="283.333" y="16.97" width="24.848" height="52.474"/></clipPath><g clip-path="url(#_clip13)"><path d="M325.543,64.106l-37.696,-0l0,-46.962l37.696,0l-0,46.962" style="fill:#c40000;fill-rule:nonzero;"/></g></g><g><clipPath id="_clip14"><rect x="547.266" y="58.724" width="249.87" height="295.573"/></clipPath><g clip-path="url(#_clip14)"><path d="M1023.85,59.223c-0,0 -728.125,-0.022 -728.234,-0.022c0.109,7.184 1.975,98.872 1.91,106.793c-0.152,21.897 -1.888,48.589 -3.016,70.486c-0.478,9.831 -8.29,93.229 -15.083,103.668c0.022,-0.022 125.846,15.863 249.067,7.508c2.908,-16.97 9.049,-34.288 11.502,-51.28c2.691,-19.466 6.271,-36.849 6.619,-56.489c0.564,-32.313 -1.129,-58.941 -1.151,-93.077c0,-1.758 2.539,-1.91 2.756,-0.174c3.928,33.29 4.97,24.87 8.052,85.851c1.801,36.003 -2.843,77.127 -4.709,113.411c121.115,14.454 140.104,12.717 248.567,-3.19c-3.711,-36.154 -3.494,-69.357 -3.472,-105.512c0.108,-50.694 -2.279,-56.597 -0.564,-96.311c0.065,-1.801 1.215,-1.779 1.324,0.022c2.191,35.352 2.018,60.938 6.467,93.468c2.56,19.423 3.602,40.668 6.835,59.983c2.908,16.992 12.023,47.157 12.088,47.157c106.88,-0 112.565,4.492 219.445,4.492c-7.748,-17.122 -14.736,-125.326 -15.126,-134.787c-0.282,-6.294 -3.798,-131.663 -3.277,-151.997" style="fill:#c40000;fill-rule:nonzero;"/></g></g><g><clipPath id="_clip15"><rect x="547.266" y="34.158" width="249.87" height="11.328"/></clipPath><g clip-path="url(#_clip15)"><path d="M1080.66,45.182l-841.949,0l0,-9.722l841.949,0l0,9.722" style="fill:#d4983d;fill-rule:nonzero;"/></g></g><g><clipPath id="_clip16"><rect x="547.266" y="22.808" width="249.87" height="15.126"/></clipPath><g clip-path="url(#_clip16)"><path d="M1080.66,37.326l-841.949,0l0,-13.129l841.949,0l0,13.129" style="fill:#d4983d;fill-rule:nonzero;"/></g></g><g><clipPath id="_clip17"><rect x="547.266" y="16.97" width="24.957" height="52.474"/></clipPath><g clip-path="url(#_clip17)"><path d="M566.905,68.186l-42.816,-0l-0,-51.042l42.816,0l0,51.042" style="fill:#c40000;fill-rule:nonzero;"/></g></g><g><path d="M795.313,68.186l-42.839,-0l-0,-51.042l42.839,0l-0,51.042" style="fill:#c40000;fill-rule:nonzero;"/></g><g><path d="M792.665,64.106l-37.695,-0l-0,-46.962l37.695,0l-0,46.962" style="fill:#c40000;fill-rule:nonzero;"/></g><g><clipPath id="_clip18"><rect x="547.266" y="16.97" width="19.401" height="52.474"/></clipPath><g clip-path="url(#_clip18)"><path d="M564.258,64.106l-37.696,-0l0,-46.962l37.696,0l-0,46.962" style="fill:#c40000;fill-rule:nonzero;"/></g></g><g><clipPath id="_clip19"><rect x="791.037" y="58.724" width="249.87" height="295.573"/></clipPath><g clip-path="url(#_clip19)"><path d="M1267.62,59.223c-0,0 -728.147,-0.022 -728.234,-0.022c0.087,7.184 1.975,98.872 1.91,106.793c-0.152,21.897 -1.888,48.589 -3.017,70.486c-0.499,9.831 -8.29,93.229 -15.082,103.668c-0,-0.022 125.846,15.863 249.067,7.508c2.908,-16.97 9.049,-34.288 11.501,-51.28c2.691,-19.466 6.272,-36.849 6.619,-56.489c0.565,-32.313 -1.128,-58.941 -1.15,-93.077c0,-1.758 2.539,-1.91 2.756,-0.174c3.928,33.29 4.97,24.87 8.051,85.851c1.802,36.003 -2.842,77.127 -4.709,113.411c121.116,14.454 140.104,12.717 248.568,-3.19c-3.711,-36.154 -3.516,-69.357 -3.472,-105.512c0.108,-50.694 -2.279,-56.597 -0.565,-96.311c0.066,-1.801 1.216,-1.779 1.324,0.022c2.192,35.352 2.018,60.938 6.467,93.468c2.561,19.423 3.603,40.668 6.836,59.983c2.908,16.992 12.023,47.157 12.088,47.157c106.879,-0 112.565,4.492 219.444,4.492c-7.747,-17.122 -14.735,-125.326 -15.147,-134.787c-0.261,-6.294 -3.776,-131.663 -3.255,-151.997" style="fill:#c40000;fill-rule:nonzero;"/></g></g><g><clipPath id="_clip20"><rect x="791.037" y="34.158" width="249.87" height="11.328"/></clipPath><g clip-path="url(#_clip20)"><path d="M1324.44,45.182l-841.949,0l-0,-9.722l841.949,0l-0,9.722" style="fill:#d4983d;fill-rule:nonzero;"/></g></g><g><clipPath id="_clip21"><rect x="791.037" y="22.808" width="249.87" height="15.126"/></clipPath><g clip-path="url(#_clip21)"><path d="M1324.44,37.326l-841.949,0l-0,-13.129l841.949,0l-0,13.129" style="fill:#d4983d;fill-rule:nonzero;"/></g></g><g><clipPath id="_clip22"><rect x="791.037" y="16.97" width="20.074" height="52.474"/></clipPath><g clip-path="url(#_clip22)"><path d="M810.677,68.186l-42.838,-0l-0,-51.042l42.838,0l0,51.042" style="fill:#c40000;fill-rule:nonzero;"/></g></g><g><path d="M1039.08,68.186l-42.838,-0l-0,-51.042l42.838,0l0,51.042" style="fill:#c40000;fill-rule:nonzero;"/></g><g><path d="M1036.44,64.106l-37.696,-0l0,-46.962l37.696,0l-0,46.962" style="fill:#c40000;fill-rule:nonzero;"/></g><g><clipPath id="_clip23"><rect x="791.037" y="16.97" width="20.074" height="52.474"/></clipPath><g clip-path="url(#_clip23)"><path d="M808.03,64.106l-37.696,-0l0,-46.962l37.696,0l-0,46.962" style="fill:#c40000;fill-rule:nonzero;"/></g></g><g><clipPath id="_clip24"><rect x="95.768" y="16.97" width="20.812" height="66.623"/></clipPath><g clip-path="url(#_clip24)"><rect x="97.244" y="-133.767" width="217.773" height="217.773" style="fill:#c40000;fill-rule:nonzero;"/><path d="M315.017,85.482l-217.773,-0c-0.825,-0 -1.476,-0.651 -1.476,-1.476l0,-217.773c0,-0.825 0.651,-1.476 1.476,-1.476l217.773,-0c0.825,-0 1.476,0.651 1.476,1.476l0,217.773c0,0.825 -0.651,1.476 -1.476,1.476Zm-216.319,-2.952l214.844,0l-0,-214.843l-214.844,-0l-0,214.843Z" style="fill:#c40000;fill-rule:nonzero;"/></g></g><g><clipPath id="_clip25"><rect x="318.012" y="16.97" width="20.812" height="66.623"/></clipPath><g clip-path="url(#_clip25)"><rect x="319.466" y="-133.767" width="217.795" height="217.773" style="fill:#c40000;fill-rule:nonzero;"/><path d="M537.261,85.482l-217.795,-0c-0.825,-0 -1.454,-0.651 -1.454,-1.476l0,-217.773c0,-0.825 0.629,-1.476 1.454,-1.476l217.795,-0c0.825,-0 1.476,0.651 1.476,1.476l-0,217.773c-0,0.825 -0.651,1.476 -1.476,1.476Zm-216.319,-2.952l214.844,0l-0,-214.843l-214.844,-0l-0,214.843Z" style="fill:#c40000;fill-rule:nonzero;"/></g></g><g><clipPath id="_clip26"><rect x="1034.25" y="16.97" width="20.833" height="66.623"/></clipPath><g clip-path="url(#_clip26)"><rect x="1035.72" y="-133.767" width="217.795" height="217.773" style="fill:#c40000;fill-rule:nonzero;"/><path d="M1253.52,85.482l-217.796,-0c-0.824,-0 -1.475,-0.651 -1.475,-1.476l-0,-217.773c-0,-0.825 0.651,-1.476 1.475,-1.476l217.796,-0c0.824,-0 1.454,0.651 1.454,1.476l-0,217.773c-0,0.825 -0.63,1.476 -1.454,1.476Zm-216.32,-2.952l214.844,0l-0,-214.843l-214.844,-0l0,214.843Z" style="fill:#c40000;fill-rule:nonzero;"/></g></g><g><clipPath id="_clip27"><rect x="1203.21" y="16.97" width="20.833" height="66.623"/></clipPath><g clip-path="url(#_clip27)"><rect x="1204.69" y="-133.767" width="217.795" height="217.773" style="fill:#c40000;fill-rule:nonzero;"/><path d="M1422.48,85.482l-217.795,-0c-0.825,-0 -1.476,-0.651 -1.476,-1.476l-0,-217.773c-0,-0.825 0.651,-1.476 1.476,-1.476l217.795,-0c0.824,-0 1.454,0.651 1.454,1.476l-0,217.773c-0,0.825 -0.63,1.476 -1.454,1.476Zm-216.32,-2.952l214.844,0l-0,-214.843l-214.844,-0l0,214.843Z" style="fill:#c40000;fill-rule:nonzero;"/></g></g><g><path d="M272.331,158.594c-0,-0.022 -0.022,-0.044 -0.044,-0.065c-1.193,-2.322 -2.908,-4.167 -5.165,-5.534c-2.235,-1.346 -4.665,-2.018 -7.291,-2.018l-59.744,-0l-0,-4.688l65.191,0l-5.035,-6.207c-4.861,-5.967 -10.308,-11.349 -16.384,-16.102c-6.055,-4.774 -12.566,-8.811 -19.532,-12.109c-6.966,-3.321 -14.192,-5.816 -21.723,-7.509c-7.53,-1.671 -15.126,-2.517 -22.851,-2.496c-57.249,0 -103.82,46.571 -103.82,103.82c0,9.266 1.215,18.403 3.646,27.344c0.26,1.019 0.868,1.779 1.78,2.3c0.911,0.521 1.866,0.651 2.886,0.369c0.998,-0.282 1.779,-0.868 2.278,-1.78c0.521,-0.911 0.651,-1.866 0.369,-2.886c-2.257,-8.29 -3.385,-16.753 -3.385,-25.347c-0,-53.082 43.186,-96.246 96.246,-96.246c11.979,-0.022 23.546,2.127 34.722,6.445c11.154,4.319 21.18,10.504 30.013,18.577c1.519,1.345 -110.048,8.572 -110.048,8.572l0,3.255l24.631,0l0,4.688l-24.631,-0l0,3.255c0,-0 10.07,-0.13 24.631,0.043l0,19.879c0,30.425 -24.761,55.165 -55.186,55.165c-0.76,-0.022 -1.411,0.238 -1.954,0.759c-0.564,0.543 -0.824,1.194 -0.824,1.953c-0,0.76 0.26,1.411 0.824,1.953c0.543,0.521 1.194,0.782 1.954,0.76c8.116,-0 15.928,-1.563 23.415,-4.709c-0.911,0.846 -1.15,1.823 -0.694,2.973c0.434,1.15 1.28,1.736 2.517,1.736c22.765,-0 41.298,-27.192 41.298,-60.59l0,-19.684l0.499,0.022l0,19.662c0,31.575 -8.746,55.165 -16.58,55.165c-0.738,0.021 -1.345,0.303 -1.866,0.824c-0.521,0.521 -0.76,1.15 -0.76,1.888c0,0.738 0.239,1.367 0.76,1.888c0.521,0.521 1.128,0.803 1.866,0.825c14.301,-0 22.005,-31.228 22.005,-60.59l0,-19.532l0.521,0l0,77.409c0,0.76 0.261,1.389 0.782,1.91c0.542,0.543 1.171,0.803 1.931,0.803c0.738,-0 1.367,-0.26 1.91,-0.803c0.521,-0.521 0.781,-1.15 0.781,-1.91l-0,-77.235l0.521,0l-0,19.358c-0,29.362 7.704,60.59 22.005,60.59c0.738,-0.022 1.345,-0.304 1.866,-0.825c0.521,-0.521 0.76,-1.15 0.76,-1.888c-0,-0.738 -0.239,-1.367 -0.76,-1.888c-0.521,-0.521 -1.128,-0.803 -1.866,-0.824c-7.834,-0 -16.58,-23.59 -16.58,-55.165l0,-19.163l0.499,0.022l0,19.141c0,33.398 18.533,60.59 41.298,60.59c1.237,-0 2.083,-0.564 2.539,-1.714c0.456,-1.172 0.217,-2.149 -0.694,-2.995c7.487,3.146 15.277,4.709 23.394,4.709c0.759,0.022 1.41,-0.239 1.953,-0.781c0.564,-0.521 0.825,-1.172 0.825,-1.932c-0,-0.759 -0.261,-1.41 -0.825,-1.953c-0.543,-0.521 -1.194,-0.781 -1.953,-0.759c-30.426,-0 -55.187,-24.74 -55.187,-55.165l0,-18.642c26.085,1.346 52.083,4.015 61.415,9.223c12.782,7.162 14.54,26.15 14.54,40.951c-0,4.904 -0.369,9.787 -1.107,14.648c-0.738,4.861 -1.844,9.614 -3.32,14.301c-1.476,4.688 -3.277,9.245 -5.447,13.651c-2.17,4.405 -4.666,8.615 -7.487,12.63c-2.821,4.036 -5.925,7.812 -9.31,11.35c-3.407,3.559 -7.053,6.814 -10.938,9.809c-3.906,2.994 -8.007,5.664 -12.304,8.029c-4.319,2.344 -8.768,4.362 -13.39,6.033l-0.043,0c-1.65,0.608 -2.995,1.649 -4.015,3.103c-1.02,1.454 -1.541,3.06 -1.541,4.84l0,2.018c0,0.89 -0.304,1.649 -0.955,2.3c-0.629,0.63 -1.389,0.934 -2.3,0.934l-48.199,-0c-0.911,-0 -1.671,-0.304 -2.3,-0.934c-0.651,-0.651 -0.955,-1.41 -0.955,-2.3l-0,-2.018c-0,-1.78 -0.521,-3.386 -1.541,-4.84c-1.02,-1.454 -2.365,-2.474 -4.015,-3.081l-0.065,-0.022c-11.285,-4.08 -21.441,-10.091 -30.469,-17.99c-9.027,-7.9 -16.297,-17.166 -21.853,-27.821c-1.128,-2.149 0.478,-4.731 2.908,-4.731l162.565,-0c0.564,-0 1.107,-0.131 1.628,-0.369c0.521,-0.239 0.955,-0.586 1.324,-1.042c0.347,-0.434 0.607,-0.955 0.737,-1.497c0.131,-0.565 0.131,-1.129 0.022,-1.671c-0.369,-1.78 -2.018,-3.017 -3.819,-3.017l-163.737,0c-7.487,0 -12.348,7.878 -8.985,14.583l0.044,0.087c5.816,11.502 13.498,21.571 23.09,30.209c9.592,8.637 20.399,15.234 32.465,19.835c1.389,0.521 2.105,1.519 2.105,3.016l0,1.432c0,1.303 0.261,2.54 0.738,3.733c0.499,1.194 1.215,2.257 2.127,3.168c0.911,0.912 1.953,1.628 3.168,2.127c1.194,0.478 2.431,0.738 3.733,0.738l50.369,0c1.302,0 2.539,-0.26 3.733,-0.738c1.193,-0.499 2.257,-1.215 3.168,-2.127c0.911,-0.911 1.606,-1.974 2.105,-3.168c0.499,-1.193 0.738,-2.43 0.738,-3.733l-0,-1.432c0.022,-1.497 0.716,-2.495 2.127,-3.038c3.385,-1.302 6.705,-2.756 9.939,-4.405c3.233,-1.65 6.38,-3.451 9.418,-5.426c3.06,-1.975 5.99,-4.101 8.811,-6.38c2.821,-2.279 5.534,-4.709 8.095,-7.27c2.56,-2.561 4.991,-5.252 7.291,-8.073c2.279,-2.821 4.406,-5.751 6.402,-8.789c1.975,-3.038 3.798,-6.185 5.447,-9.418c1.65,-3.234 3.125,-6.532 4.427,-9.918c1.302,-3.407 2.431,-6.836 3.364,-10.351c0.955,-3.494 1.714,-7.053 2.279,-10.634c0.586,-3.581 0.955,-7.183 1.15,-10.807c0.195,-3.625 0.195,-7.249 0.022,-10.873c-0.196,-3.624 -0.565,-7.248 -1.129,-10.829c-0.564,-3.581 -1.324,-7.118 -2.257,-10.633c-0.933,-3.516 -2.04,-6.967 -3.342,-10.352c-1.302,-3.385 -2.778,-6.706 -4.405,-9.939Zm-77.67,-7.617l-0.52,-0l-0,-4.688l0.52,0l0,4.688Zm-30.164,-4.688l0.499,0l-0,4.688l-0.499,-0l-0,-4.688Zm0.499,27.865c-0,30.425 -16.081,55.165 -35.873,55.165c-0.065,-0 -0.152,-0 -0.217,0.021c20.964,-9.548 35.591,-30.707 35.591,-55.186l-0,-19.792l0.499,-0l-0,19.792Zm5.425,-23.177l0,-4.688l0.521,0l-0,4.688l-0.521,-0Zm5.924,-0l0,-4.688l0.521,0l0,4.688l-0.521,-0Zm5.947,-0l-0,-4.688l0.499,0l-0,4.688l-0.499,-0Zm5.924,-0l0,-4.688l0.521,0l-0,4.688l-0.521,-0Zm42.036,78.363c-0.087,0 -0.152,-0.021 -0.217,-0.021c-19.792,-0 -35.894,-24.74 -35.894,-55.165l-0,-18.924l0.52,0.022l0,18.902c0,24.479 14.605,45.638 35.591,55.186Z" style="fill-rule:nonzero;"/></g><g><rect x="1264.8" y="23.828" width="4424.09" height="22.461" style="fill:#d4983d;fill-rule:nonzero;"/></g><g><g><g><path d="M362.567,206.915l-0,-11.458c-1.346,0.412 -2.756,0.781 -4.254,1.128c-1.454,0.304 -2.929,0.434 -4.427,0.434c-2.56,0 -5.447,-0.629 -8.68,-1.91c-3.255,-1.258 -6.055,-3.038 -8.42,-5.295c-2.322,-2.3 -3.473,-4.948 -3.473,-7.899c0,-1.91 0.435,-3.255 1.303,-4.08c0.868,-0.803 2.105,-1.476 3.732,-1.997c4.449,-4.969 7.9,-8.81 10.33,-11.545c2.431,-2.777 4.557,-5.251 6.424,-7.465c1.909,-2.257 3.993,-4.904 6.25,-7.986l-0.174,-3.472c-0.825,-0.912 -1.866,-1.953 -3.125,-3.125c-1.28,-1.15 -3.082,-2.604 -5.382,-4.341c-1.454,-1.323 -2.821,-2.973 -4.08,-4.947c-1.28,-1.954 -1.909,-4.015 -1.909,-6.164c-0,-3.472 1.302,-6.467 3.906,-9.027c2.604,-2.605 5.577,-3.907 8.941,-3.907c2.018,0 4.6,0.521 7.725,1.563c3.169,0.998 5.925,2.3 8.247,3.906c1.497,0.933 2.799,2.127 3.906,3.559c1.15,1.389 2.735,3.646 4.775,6.771c1.909,-1.215 3.645,-1.823 5.208,-1.823c2.713,0 4.969,0.868 6.771,2.604c1.844,1.736 3.385,3.689 4.6,5.816c1.324,2.604 2.105,5.122 2.344,7.552c0.282,2.387 0.434,4.926 0.434,7.639c0,1.346 -0.26,2.908 -0.781,4.688c-0.521,1.736 -1.541,4.145 -3.038,7.204c-0.695,1.346 -1.736,3.104 -3.125,5.296c-1.389,2.148 -3.516,5.099 -6.337,8.854c-0,1.454 0.087,2.951 0.26,4.514c0.217,1.562 0.391,3.081 0.521,4.514c1.606,-1.216 3.169,-2.474 4.688,-3.82c1.562,-1.324 3.146,-2.539 4.774,-3.646c2.713,-3.58 4.991,-8.073 6.858,-13.455c1.909,-5.382 3.407,-10.243 4.513,-14.583c-1.801,-1.215 -3.515,-2.626 -5.121,-4.253c-1.628,-1.606 -2.431,-3.603 -2.431,-5.99c0,-2.713 1.085,-4.818 3.299,-6.337c2.257,-1.562 4.601,-2.344 7.031,-2.344c2.019,0 3.993,0.413 5.903,1.216c1.953,0.824 4.557,2.148 7.813,3.993c4.861,-8.854 9.57,-14.931 14.149,-18.229c4.557,-3.299 9.939,-4.948 16.146,-4.948c5.902,-0 11.545,1.02 16.927,3.038c5.382,1.975 10.438,4.731 15.191,8.246c3.993,2.952 6.771,6.12 8.333,9.462c1.563,3.364 2.344,7.531 2.344,12.5c-0,1.519 -0.152,3.038 -0.434,4.601c-0.239,1.519 -0.564,2.951 -0.955,4.34c-1.107,3.472 -1.649,5.816 -1.649,7.031c3.754,-2.018 6.423,-3.255 7.986,-3.732c1.562,-0.456 2.712,-0.695 3.472,-0.695c1.606,0 3.212,0.434 4.774,1.302c1.563,0.869 2.865,1.867 3.907,2.952c2.191,2.148 3.754,4.644 4.687,7.465c0.911,2.843 1.389,5.729 1.389,8.681c-0,3.776 -0.673,7.118 -1.997,10.069c-1.345,2.952 -4.383,5.99 -9.114,9.115c-1.736,1.215 -3.863,2.495 -6.337,3.819c-2.496,1.346 -4.861,2.669 -7.118,3.993c5.903,3.364 10.981,8.138 15.278,14.323c4.34,6.207 6.51,12.891 6.51,20.052c0,3.993 -0.846,7.856 -2.517,11.545c-1.693,3.711 -3.95,6.923 -6.771,9.636c3.06,2.951 5.816,6.054 8.246,9.288c2.431,3.19 3.646,7.075 3.646,11.632c0,4.731 -1.54,9.115 -4.6,13.108c-3.017,4.036 -7.075,6.076 -12.153,6.076c-1.519,-0 -3.299,-0.347 -5.382,-1.042c-2.083,-0.651 -4.926,-2.126 -8.507,-4.427c-3.537,-2.257 -8.333,-5.816 -14.41,-10.677c-3.776,2.952 -7.639,5.382 -11.632,7.292l-10.33,4.6c-3.125,1.389 -6.901,2.54 -11.284,3.473c-4.341,0.911 -8.507,1.389 -12.5,1.389c-6.207,-0 -12.11,-1.693 -17.709,-5.035c-5.555,-3.364 -10.134,-7.791 -13.715,-13.281c-3.602,-5.556 -5.382,-11.415 -5.382,-17.622c0,-5.208 1.064,-9.418 3.212,-12.674c2.192,-3.233 5.577,-5.989 10.156,-8.246c-3.646,-2.192 -6.597,-4.644 -8.854,-7.379c-2.214,-2.777 -3.429,-6.293 -3.646,-10.59c-0.998,0.651 -1.975,1.346 -2.951,2.084c-0.998,0.759 -2.04,1.475 -3.125,2.17l-0,40.364c-0,5.1 -0.044,9.028 -0.087,11.806c-0.065,2.712 -0.152,4.731 -0.26,6.076c-0.066,1.389 -0.217,2.474 -0.434,3.299c-0.586,2.365 -2.04,4.383 -4.341,6.076c-2.257,1.736 -4.731,2.604 -7.378,2.604c-4.992,0 -9.679,-1.627 -14.063,-4.861c-4.34,-3.255 -7.942,-6.814 -10.764,-10.677c-2.43,-3.515 -4.6,-8.029 -6.51,-13.541c-1.866,-5.491 -3.993,-12.761 -6.424,-21.789c-0.303,-1.389 -0.672,-2.777 -1.128,-4.166c-0.478,-1.389 -0.825,-2.626 -1.042,-3.733c-2.43,-3.06 -4.123,-5.599 -5.034,-7.639c-0.869,-2.018 -1.303,-3.993 -1.303,-5.903c0,-3.754 1.216,-5.902 3.646,-6.423c1.78,-0.391 2.952,-0.803 3.473,-1.216c3.233,-2.126 7.074,-4.622 11.545,-7.465c4.514,-2.821 8.181,-5.469 11.024,-7.899Zm70.052,-5.469c4.275,-1.736 8.637,-3.298 13.108,-4.687c4.448,-1.433 8.962,-2.822 13.541,-4.167c-0.13,-0.912 -0.347,-1.78 -0.694,-2.604c-0.347,-0.803 -0.673,-1.671 -0.955,-2.604c-0.521,-1.498 -0.825,-3.06 -0.868,-4.688c-0.065,-1.606 -0.087,-3.147 -0.087,-4.601c0,-2.951 0.261,-5.859 0.781,-8.767c0.521,-2.886 1.606,-6.272 3.299,-10.156c1.671,-3.928 4.34,-8.876 7.986,-14.844c0.695,-1.042 1.302,-2.192 1.823,-3.472c0.521,-1.259 0.781,-2.604 0.781,-3.993c0,-1.042 -1.172,-2.127 -3.472,-3.299c-2.257,-1.15 -4.253,-1.736 -5.99,-1.736c-1.345,0 -2.582,0.477 -3.732,1.389c-1.172,0.868 -1.953,1.779 -2.344,2.691l-2.778,6.424c-0.933,2.148 -2.083,4.991 -3.472,8.506c-0.521,1.346 -1.107,2.648 -1.736,3.907c-0.586,1.28 -1.02,2.604 -1.302,3.993c-1.042,5.512 -1.997,9.961 -2.865,13.368c-0.868,3.429 -1.801,6.64 -2.777,9.635c-0.934,3.364 -2.171,6.684 -3.733,9.983c-1.519,3.299 -3.017,6.554 -4.514,9.722Zm43.576,40.625c2.301,-1.91 4.167,-3.472 5.556,-4.687c1.432,-1.216 3.233,-2.691 5.382,-4.427c1.606,-1.324 2.647,-2.301 3.125,-2.952c0.456,-0.694 0.694,-1.389 0.694,-2.083c0,-1.215 -0.911,-2.366 -2.691,-3.472c-1.736,-1.151 -3.125,-1.737 -4.166,-1.737c-0.304,0 -0.695,0.066 -1.216,0.174c-0.52,0.13 -1.193,0.521 -1.996,1.215c-2.843,2.257 -5.729,4.579 -8.681,6.945c-2.951,2.387 -6.206,4.774 -9.722,7.205c2.3,0.521 4.623,1.128 6.945,1.823c2.365,0.651 4.622,1.302 6.77,1.996Zm-36.284,21.962c-3.125,-0.629 -6.728,-1.302 -10.764,-1.997c-3.993,-0.694 -6.901,-1.041 -8.681,-1.041c-3.472,-0 -6.771,0.521 -9.896,1.562c-3.081,0.998 -4.6,2.235 -4.6,3.733c-0,1.736 1.237,3.125 3.732,4.167c2.474,0.998 5.599,1.475 9.375,1.475c2.019,0 4.449,-0.477 7.292,-1.475c2.821,-1.042 7.335,-3.169 13.542,-6.424Zm-21.007,-32.031c2.647,-1.78 5.078,-3.473 7.291,-5.035c2.257,-1.606 5.209,-3.733 8.855,-6.337c1.844,-1.324 3.754,-2.647 5.729,-3.993c1.953,-1.324 3.255,-2.192 3.906,-2.604c-4.167,0.412 -8.398,1.194 -12.674,2.344c-4.296,1.106 -7.79,2.409 -10.503,3.906c-4.058,2.148 -6.858,3.95 -8.42,5.382c-1.519,1.389 -2.257,2.213 -2.257,2.43c-0,0.413 0.542,1.303 1.649,2.691c1.15,1.346 2.344,1.997 3.559,1.997c1.085,-0 2.04,-0.26 2.865,-0.781Zm-55.295,38.541l-0.174,-2.43l-0.608,-17.969l-0.434,-0.26c-0.933,0.173 -1.714,0.303 -2.343,0.347c-0.586,0.065 -1.216,0.173 -1.91,0.347c-0.695,0.13 -1.432,0.152 -2.17,0.087c-0.695,-0.109 -1.389,-0.217 -2.084,-0.347l-0.347,0.173l0,0.868c0,1.628 0.543,3.733 1.649,6.337c1.151,2.604 2.54,5.122 4.167,7.552c1.606,2.431 3.038,4.21 4.254,5.295Zm39.583,-54.687c1.845,-1.78 3.863,-3.342 6.076,-4.688c2.257,-1.323 4.514,-2.647 6.771,-3.993c-1.736,-0.694 -3.364,-1.606 -4.861,-2.777c-1.454,-1.151 -2.93,-2.257 -4.427,-3.299c-0.13,2.561 -0.477,5.078 -1.042,7.552c-0.521,2.496 -1.367,4.904 -2.517,7.205Z" style="fill-rule:nonzero;"/></g></g></g><g><g><g><path d="M609.808,134.866l1.216,-0.955c-0.999,-1.085 -1.823,-2.278 -2.518,-3.559c-0.651,-1.258 -0.955,-2.56 -0.955,-3.906c0,-2.3 0.955,-4.427 2.865,-6.337c1.845,-1.953 4.015,-3.342 6.51,-4.166c2.474,-0.803 5.078,-1.216 7.813,-1.216c3.472,0 6.814,0.608 10.069,1.823c3.234,1.216 6.12,3.017 8.681,5.382c1.497,1.389 2.734,3.038 3.732,4.948c0.977,1.866 1.867,3.711 2.691,5.556c0.391,0.998 0.608,2.148 0.608,3.472c0,4.058 -0.911,7.161 -2.691,9.288c-1.801,2.149 -4.058,4.08 -6.771,5.816c-1.215,0.825 -2.387,1.541 -3.472,2.17c-1.042,0.586 -2.322,1.281 -3.819,2.084c0.564,0.52 1.128,1.041 1.649,1.562c0.521,0.477 1.063,0.955 1.649,1.476c1.606,1.454 2.886,3.168 3.82,5.121c0.911,1.975 1.584,4.037 1.996,6.163c2.127,0.413 4.189,0.934 6.163,1.563c1.953,0.586 3.863,1.432 5.73,2.517c1.215,-2.192 2.473,-4.253 3.819,-6.163c1.389,-1.953 2.734,-3.95 4.08,-5.989c-1.107,-0.521 -2.084,-0.955 -2.952,-1.303c-0.868,-0.347 -1.866,-0.716 -2.951,-1.128c-1.736,-0.629 -3.277,-1.78 -4.601,-3.472c-1.345,-1.736 -1.996,-3.516 -1.996,-5.382c-0,-2.127 0.803,-3.689 2.43,-4.688c1.606,-1.041 4.21,-1.909 7.813,-2.604l17.621,-7.812c-0.586,-0.977 -1.193,-2.105 -1.823,-3.386c-0.585,-1.258 -0.868,-2.517 -0.868,-3.732c0,-3.646 1.303,-6.511 3.907,-8.594c2.647,-2.083 5.816,-3.581 9.461,-4.514c3.646,-0.911 6.793,-1.389 9.462,-1.389c8.334,0 15.734,2.691 22.223,8.073c2.647,-0.174 5.23,-0.304 7.725,-0.434c2.474,-0.109 4.992,-0.174 7.552,-0.174c2.604,0 5.643,0.434 9.115,1.302c3.516,0.869 6.879,2.127 10.069,3.733c3.234,1.628 5.664,3.516 7.292,5.642c1.324,1.737 2.344,3.212 3.038,4.428c0.695,1.215 1.042,2.777 1.042,4.687c-0,3.472 -0.781,6.25 -2.344,8.333c-1.562,2.084 -4.232,3.125 -7.986,3.125c-2.04,0 -4.058,-0.26 -6.076,-0.781l-5.99,-1.649c-2.604,-0.63 -5.425,-1.129 -8.42,-1.476c-3.017,-0.347 -5.881,-0.521 -8.594,-0.521c-2.951,0 -5.903,0.239 -8.854,0.695c-2.951,0.477 -5.903,1.041 -8.854,1.736c-3.017,0.824 -6.641,1.801 -10.851,2.951c-4.232,1.107 -7.552,2.474 -9.983,4.08c-2.148,1.519 -3.949,3.516 -5.381,5.99c-1.389,2.495 -2.561,4.948 -3.473,7.378l-0.173,0.608l16.493,-7.9l2.604,-0.781l15.799,-5.903c2.126,-0.39 4.427,-0.824 6.857,-1.302c2.431,-0.455 5.838,-0.694 10.243,-0.694c2.821,-0 6.207,0.412 10.156,1.215c3.994,0.825 7.075,2.17 9.289,4.08c3.168,2.561 5.837,5.534 7.986,8.941c2.192,3.429 3.298,7.292 3.298,11.632c0,1.628 -0.173,3.255 -0.52,4.861c-0.348,1.563 -0.999,3.038 -1.91,4.427c-1.519,2.257 -2.518,3.906 -3.038,4.948c-0.521,0.998 -0.782,1.628 -0.782,1.91c0,0.933 0.109,1.866 0.348,2.778c0.282,0.933 0.564,1.736 0.868,2.43c0.39,0.933 0.607,1.888 0.607,2.865c0,2.56 -1.02,4.47 -3.038,5.729c-2.04,1.28 -4.21,1.91 -6.51,1.91c-2.387,-0 -5.122,-0.304 -8.247,-0.955c-3.081,-0.695 -5.903,-1.237 -8.507,-1.65c-0.824,-0.173 -1.627,-0.26 -2.43,-0.26l-2.344,0c-6.38,0 -12.5,0.76 -18.403,2.257l-19.358,5.035c-1.627,0.412 -3.342,0.694 -5.121,0.868c-1.736,0.13 -3.385,0.173 -4.948,0.173c-4.579,0 -8.637,-1.736 -12.153,-5.208c-3.472,-3.516 -6.423,-6.966 -8.854,-10.33c-2.561,2.149 -4.926,3.429 -7.118,3.82c-2.148,0.412 -4.904,0.824 -8.246,1.215c0.282,0.694 0.434,1.302 0.434,1.823l-0,4.601c3.754,1.215 7.248,3.038 10.503,5.468c0.629,-0.282 1.324,-0.477 2.083,-0.607c0.738,-0.109 1.519,-0.174 2.344,-0.174c3.342,0 6.532,0.955 9.549,2.865c3.06,1.866 5.251,4.318 6.597,7.378l0.955,-0.174l3.298,-0.781l15.712,-4.861c5.491,-1.736 11.025,-3.255 16.58,-4.601c5.599,-1.388 11.306,-2.083 17.101,-2.083c4.557,0 9.201,0.586 13.889,1.736c4.731,1.172 8.984,3.017 12.76,5.556c2.3,1.454 4.601,3.797 6.858,7.031c2.3,3.255 3.58,6.293 3.819,9.115l1.823,17.708l0.434,17.969c0,2.213 -0.13,4.557 -0.347,7.031c-0.174,2.496 -0.608,4.796 -1.302,6.944c-1.346,3.646 -3.733,6.424 -7.205,8.334c-3.429,1.953 -7.01,2.951 -10.764,2.951c-4.167,0 -8.073,-0.759 -11.719,-2.257c-3.602,-1.454 -7.161,-3.19 -10.677,-5.208c-3.081,-0 -6.163,-0.261 -9.288,-0.781c-1.215,-0.304 -2.474,-0.521 -3.733,-0.695c-1.28,-0.13 -2.582,-0.174 -3.906,-0.174c-1.345,0 -2.691,0.022 -4.08,0.087c-1.345,0.109 -2.474,0.217 -3.385,0.348l-3.646,0.434c-1.215,0.108 -2.496,0.173 -3.819,0.173c-1.91,0 -4.08,-0.412 -6.511,-1.215c-2.387,-0.825 -4.167,-2.083 -5.382,-3.82c-0.824,-1.106 -1.345,-2.343 -1.562,-3.732c-0.174,-1.433 -0.326,-2.821 -0.434,-4.167c-0.174,-1.432 -0.304,-2.821 -0.348,-4.167c-0.065,-1.388 -0.086,-2.734 -0.086,-4.079c-0,-1.085 0.021,-2.605 0.086,-4.514c0.044,-1.953 0.217,-3.928 0.521,-5.903c0.282,-1.953 0.608,-3.32 0.955,-4.08c0.803,-1.497 2.214,-2.257 4.254,-2.257l3.038,0c0.694,0 1.259,-0.022 1.736,-0.087c0.456,-0.043 0.89,-0.173 1.302,-0.347c1.91,-0.911 3.689,-1.779 5.382,-2.604c1.671,-0.803 3.385,-1.606 5.121,-2.431c2.019,-1.041 4.189,-1.757 6.511,-2.17c2.365,-0.39 4.622,-0.607 6.771,-0.607c1.909,-0 3.754,0.347 5.555,1.041c1.845,0.651 3.429,1.476 4.775,2.518c3.233,2.43 4.861,5.881 4.861,10.329c-0,1.346 -0.13,2.757 -0.348,4.254c-0.173,1.454 -0.412,2.93 -0.694,4.427c0.694,0.304 1.324,0.586 1.91,0.868c0.629,0.239 1.215,0.347 1.736,0.347c0.282,0 0.694,-0.043 1.215,-0.173c0.521,-0.174 0.868,-0.868 1.042,-2.084c0.108,-1.323 0.195,-3.211 0.26,-5.642c0.044,-2.431 0.087,-4.774 0.087,-7.031l0,-5.643c0,-2.821 -1.085,-5.295 -3.212,-7.378c-2.148,-2.083 -4.644,-3.125 -7.465,-3.125c-2.951,-0 -6.315,0.325 -10.069,0.955c-3.777,0.586 -7.205,1.389 -10.33,2.43l-12.066,4.688c-2.561,0.933 -5.209,1.476 -7.986,1.649c-2.778,0.13 -5.513,0.239 -8.16,0.347c-0.304,1.107 -0.564,2.214 -0.781,3.299c-0.174,1.042 -0.261,2.17 -0.261,3.385l0,18.316c0,2.431 0.109,4.905 0.347,7.379c0.283,2.495 0.434,4.991 0.434,7.552c0,2.995 -0.672,5.599 -1.996,7.812c-1.346,2.192 -3.776,3.299 -7.292,3.299c-2.561,0 -5.208,-0.651 -7.986,-1.91c-2.734,-1.28 -4.752,-3.038 -6.076,-5.295c-0.825,-1.519 -1.346,-3.103 -1.563,-4.774c-0.173,-1.693 -0.26,-3.386 -0.26,-5.122l-0,-5.468l2.17,-19.358l1.215,-8.333c-1.345,0.694 -3.016,1.041 -5.034,1.041c-1.867,0 -3.603,-0.26 -5.209,-0.781l0,16.927c0,2.431 0.044,4.905 0.174,7.379c0.108,2.495 0.173,5.013 0.173,7.552c0,6.076 -1.302,11.154 -3.906,15.277c-2.604,4.102 -7.292,6.164 -14.062,6.164c-3.776,-0 -7.335,-1.02 -10.677,-3.039c-3.364,-2.039 -5.795,-4.73 -7.292,-8.072c-0.76,-2.04 -1.215,-4.232 -1.389,-6.598c-0.13,-2.365 -0.174,-4.817 -0.174,-7.378c-4.687,-0 -9.071,-1.064 -13.107,-3.212c-4.058,-2.127 -7.292,-5.121 -9.722,-8.941c-2.431,-3.863 -3.646,-8.203 -3.646,-13.021c-0,-4.166 1.562,-7.66 4.687,-10.503c1.042,-0.977 2.018,-1.932 2.952,-2.865c0.976,-0.911 1.866,-1.844 2.691,-2.778l9.635,-12.5l3.646,-5.468c-4.167,-1.216 -7.444,-2.279 -9.809,-3.212c-2.322,-0.977 -5.165,-2.952 -8.507,-5.903c-3.364,-3.233 -6.033,-7.487 -7.986,-12.76c-1.975,-5.317 -2.952,-10.265 -2.952,-14.844c0,-5.143 1.129,-10.004 3.386,-14.583c2.3,-4.558 5.23,-8.811 8.767,-12.761c3.581,-3.993 7.465,-7.66 11.632,-11.024c4.21,-3.342 8.203,-6.38 11.979,-9.115Zm88.368,50.695l-20.746,4.861l-0,0.607c-0,1.346 0.39,2.648 1.215,3.907c0.803,1.28 1.736,2.322 2.778,3.125c5.903,-1.91 11.892,-3.733 17.969,-5.469c6.076,-1.736 12.109,-3.147 18.142,-4.254c0.564,-0.52 1.649,-1.692 3.212,-3.559c1.606,-1.909 3.125,-3.776 4.514,-5.642c1.432,-1.91 2.17,-3.06 2.17,-3.472c-0,-0.282 -0.174,-0.521 -0.521,-0.695c-0.304,-0.217 -0.586,-0.347 -0.868,-0.347c-1.519,0 -3.429,0.564 -5.729,1.65c-2.257,1.041 -4.666,2.322 -7.205,3.819l-14.931,5.469Zm-102.691,0.607c2.127,-0.694 4.297,-1.562 6.511,-2.604c2.257,-1.085 4.449,-2.105 6.597,-3.038c0.217,-0.977 0.391,-2.214 0.521,-3.733c0.173,-1.562 0.26,-2.799 0.26,-3.732c-0.521,-0.391 -1.128,-1.15 -1.823,-2.257l-0.347,-0.781c-0.174,-0.283 -0.391,-0.565 -0.608,-0.869c-0.998,0.413 -2.647,1.346 -4.947,2.778c-2.257,1.389 -4.384,2.93 -6.337,4.601c-1.91,1.693 -2.865,3.082 -2.865,4.167c0,1.215 0.261,2.257 0.781,3.125c0.521,0.868 1.259,1.649 2.257,2.343Zm100.868,83.768l0.174,5.382c1.606,-0.109 3.32,-0.391 5.122,-0.868c1.844,-0.456 3.428,-1.151 4.774,-2.084c0.694,-0.976 1.497,-2.3 2.43,-3.993c0.977,-1.671 1.476,-2.821 1.476,-3.472c0,-0.564 -0.087,-1.215 -0.26,-1.91c-0.131,-0.738 -0.521,-1.128 -1.216,-1.128c-0.52,-0 -1.714,0.434 -3.559,1.302c-1.801,0.868 -3.559,1.823 -5.295,2.864c-1.736,0.999 -2.951,1.693 -3.646,2.084l0,1.823Z" style="fill-rule:nonzero;"/></g></g></g><g><g><g><path d="M821.286,222.453c-0,-1.845 0.39,-3.038 1.215,-3.559c0.803,-0.564 1.931,-0.911 3.385,-1.042c0.695,-0.173 1.433,-0.477 2.257,-0.954c0.803,-0.456 1.411,-0.738 1.823,-0.869c3.581,-2.018 7.205,-3.949 10.851,-5.816c3.646,-1.909 7.335,-3.819 11.111,-5.729c8.095,-3.993 16.319,-8.029 24.653,-12.152c8.333,-4.102 16.601,-7.639 24.826,-10.591c7.227,-2.712 14.627,-4.774 22.222,-6.163c7.639,-1.432 15.365,-2.17 23.177,-2.17c7.119,-0 13.998,1.02 20.66,3.038c6.641,2.04 13.021,4.926 19.097,8.681c3.473,2.148 6.815,4.731 10.07,7.725c3.233,2.952 5.903,6.25 7.986,9.896c2.083,3.603 3.125,7.617 3.125,12.066c-0,5.382 -1.91,10.048 -5.729,13.976c-3.82,3.884 -8.507,5.816 -14.063,5.816c-3.363,-0 -6.944,-0.651 -10.764,-1.997c-3.819,-1.389 -7.595,-2.973 -11.284,-4.774c-3.711,-1.845 -7.118,-3.494 -10.243,-4.948c-1.346,-0.694 -2.756,-1.085 -4.254,-1.215c-1.454,-0.109 -2.93,-0.174 -4.427,-0.174c-3.646,0 -8.29,0.695 -13.889,2.084c-5.555,1.388 -11.068,3.016 -16.493,4.861c-5.447,1.801 -9.983,3.45 -13.628,4.948c-4.579,1.736 -9.506,3.624 -14.757,5.642c-5.209,2.04 -10.504,3.776 -15.886,5.208c-5.382,1.389 -10.568,2.084 -15.538,2.084c-4.579,-0 -9.114,-0.782 -13.628,-2.344c-4.514,-1.563 -8.507,-3.754 -11.98,-6.597c-1.909,-1.433 -4.058,-3.646 -6.423,-6.598c-2.322,-2.994 -3.472,-5.772 -3.472,-8.333Z" style="fill-rule:nonzero;"/></g></g></g><g><g><g><path d="M1133.83,145.671c-0.173,0.13 -0.412,0.434 -0.694,0.955c-0.239,0.477 -0.348,0.824 -0.348,1.041l0,1.389c0,0.586 -0.065,0.998 -0.173,1.215c0.911,-0.108 1.996,-0.195 3.212,-0.26c1.215,-0.043 2.343,-0.087 3.385,-0.087c2.821,0 5.23,0.521 7.205,1.563c1.953,0.998 4.818,2.951 8.594,5.903c1.432,-2.301 3.06,-4.276 4.861,-5.903c1.844,-1.606 3.841,-3.082 5.989,-4.427c2.301,-1.433 4.341,-3.06 6.077,-4.861c-0.933,-1.433 -1.389,-2.822 -1.389,-4.167c-0,-3.125 1.324,-5.425 3.993,-6.945c2.713,-1.562 5.404,-2.343 8.073,-2.343c5.382,-0 9.635,1.54 12.76,4.6c1.042,1.107 1.932,2.301 2.691,3.559c0.738,1.281 1.129,2.474 1.129,3.559c-0,1.172 -0.239,2.409 -0.695,3.733c-0.477,1.28 -1.193,2.843 -2.17,4.688l0.608,-0c5.143,-1.845 10.46,-3.755 15.972,-5.73c5.49,-1.953 11.068,-2.951 16.753,-2.951c2.648,0 5.665,0.412 9.028,1.215c3.407,0.825 6.38,2.17 8.941,4.08c2.539,1.866 3.82,4.471 3.82,7.813c-0,2.322 -0.825,4.297 -2.431,5.902c-1.627,1.628 -3.559,2.431 -5.816,2.431c-1.801,-0 -3.602,-0.022 -5.382,-0.087c-1.801,-0.108 -3.646,-0.173 -5.555,-0.173c-8.334,-0 -16.472,1.215 -24.393,3.645c-7.942,2.431 -15.798,5.013 -23.611,7.726c-1.91,0.521 -4.492,1.172 -7.726,1.91c-3.19,0.694 -5.533,1.041 -7.031,1.041c-2.04,0 -5.186,-1.258 -9.462,-3.819c-0.173,0.933 -0.412,1.91 -0.694,2.951c-0.239,0.999 -0.564,1.975 -0.955,2.952c-0.521,0.933 -1.389,2.061 -2.604,3.385c-1.215,1.346 -2.496,1.997 -3.819,1.997l-16.58,0.26l-2.17,0c-0.174,0.825 -0.261,1.628 -0.261,2.431l0,2.604c1.085,-0.109 2.17,-0.195 3.212,-0.261c1.085,-0.108 2.105,-0.173 3.038,-0.173l1.476,-0c0.911,-0 2.257,0.087 3.993,0.26c1.736,0.131 3.515,0.348 5.382,0.695c1.91,0.304 3.255,0.651 4.08,1.041c2.018,0.999 3.819,2.301 5.382,3.907c1.562,1.627 2.343,3.776 2.343,6.423c2.257,-0.39 4.471,-0.824 6.684,-1.302c2.257,-0.456 4.71,-0.89 7.379,-1.302c-1.454,-0.694 -3.017,-1.389 -4.688,-2.083c-1.692,-0.738 -2.929,-1.324 -3.732,-1.736c-0.933,-0.565 -2.149,-1.519 -3.646,-2.865c-1.519,-1.324 -2.257,-2.604 -2.257,-3.819c-0,-0.912 0.629,-1.845 1.91,-2.778c1.323,-0.977 2.3,-1.519 2.951,-1.649c1.085,-0.174 2.648,-0.348 4.688,-0.521c2.018,-0.217 3.754,-0.391 5.208,-0.521c2.127,-0.282 3.494,-0.478 4.08,-0.608l20.746,-6.857c1.324,-0.391 3.494,-0.912 6.511,-1.563c3.06,-0.694 6.25,-1.259 9.548,-1.736c3.299,-0.456 5.946,-0.694 7.986,-0.694c2.952,-0 6.381,0.434 10.33,1.302c3.993,0.868 7.487,2.343 10.504,4.427c3.06,2.083 4.6,5.013 4.6,8.767c0,2.561 -1.02,4.991 -3.038,7.292c-2.04,2.257 -4.405,3.385 -7.118,3.385c-0.759,0 -1.714,-0.087 -2.864,-0.26c-1.172,-0.217 -2.344,-0.391 -3.559,-0.521c-2.04,-0.391 -3.711,-0.608 -5.035,-0.608l-17.795,0l-7.032,1.216c2.127,0.52 4.276,1.128 6.424,1.822l6.51,1.997c1.737,0.521 3.842,1.541 6.337,3.038c2.474,1.519 4.861,3.125 7.118,4.861c2.301,1.736 4.08,3.364 5.295,4.861c1.737,2.149 2.974,4.471 3.733,6.945c0.738,2.496 1.172,5.078 1.302,7.726l0.608,17.013c0.282,4.579 0.13,9.093 -0.434,13.542c-0.521,4.405 -1.801,8.42 -3.82,12.066c1.085,1.866 2.344,3.711 3.733,5.556c1.432,1.801 2.821,3.559 4.167,5.295c1.085,1.389 1.953,2.929 2.604,4.6c0.694,1.693 1.042,3.342 1.042,4.948c-0,4.818 -1.628,8.855 -4.862,12.153c-3.255,3.299 -7.118,5.816 -11.632,7.552c-4.513,1.78 -8.854,2.952 -13.02,3.472l-13.716,1.823c-1.736,0.109 -3.277,0.196 -4.6,0.261c-1.346,0.108 -2.605,0.173 -3.82,0.173c-4.861,0 -10.069,-0.477 -15.625,-1.388c-5.512,-0.869 -9.982,-2.127 -13.455,-3.733c-4.579,-2.257 -8.246,-5.187 -11.024,-8.767c-2.778,-3.516 -4.167,-7.987 -4.167,-13.369c0,-1.605 0.131,-3.211 0.434,-4.774c0.283,-1.562 0.543,-3.06 0.782,-4.514c-1.454,0.239 -2.952,0.521 -4.514,0.868c-1.563,0.348 -3.082,0.673 -4.514,0.955c-1.346,5.794 -3.733,10.395 -7.205,13.802c-3.429,3.429 -7.769,6.684 -13.021,9.809c-3.364,1.845 -7.074,3.603 -11.111,5.295c-3.993,1.671 -7.964,2.518 -11.892,2.518c-2.149,-0 -4.818,-0.434 -7.986,-1.302c-3.125,-0.868 -6.294,-2.127 -9.462,-3.733c-3.19,-1.628 -5.816,-3.537 -7.9,-5.729c-2.083,-2.214 -3.125,-4.644 -3.125,-7.379c0,-1.323 0.456,-2.17 1.389,-2.517c0.977,-0.347 2.388,-0.564 4.254,-0.694c2.018,-0.109 4.731,-0.803 8.16,-2.084c3.472,-1.323 6.814,-2.777 10.069,-4.34c3.234,-1.606 5.577,-3.125 7.031,-4.514c-2.669,-0.911 -5.1,-1.866 -7.291,-2.864c-2.149,-1.042 -4.145,-2.431 -5.99,-4.167c-2.604,-2.257 -4.384,-5.122 -5.295,-8.594c-0.933,-3.515 -1.346,-6.706 -1.215,-9.548l0.868,-17.362l1.389,-18.576c-0.521,-0.694 -1.086,-1.302 -1.65,-1.823l-1.562,-1.649c-1.801,-2.127 -2.908,-4.471 -3.299,-7.031c-4.579,-2.257 -7.769,-5.252 -9.548,-9.028c-1.802,-3.82 -2.691,-8.203 -2.691,-13.195c-0,-1.041 0.108,-2.474 0.347,-4.34c0.282,-1.91 0.477,-3.559 0.607,-4.948c0.283,-1.432 0.456,-3.298 0.521,-5.555c0.044,-2.301 0.087,-4.384 0.087,-6.25c0,-1.91 0.043,-3.69 0.174,-5.382c0.173,-1.671 0.455,-3.407 0.868,-5.209c0.108,-0.39 0.195,-0.803 0.26,-1.215c0.044,-0.391 0.087,-0.803 0.087,-1.215c-0,-0.803 -0.586,-2.387 -1.736,-4.775c-0.304,-0.694 -0.478,-1.237 -0.521,-1.649c-0.065,-0.39 -0.087,-0.803 -0.087,-1.215c0,-2.018 0.716,-3.516 2.17,-4.514c1.498,-1.042 3.234,-1.563 5.209,-1.563c2.018,0 4.123,0.304 6.336,0.869c9.245,-3.516 18.924,-6.185 28.994,-7.987c10.112,-1.844 20.312,-2.777 30.555,-2.777c2.778,-0 5.664,0.173 8.681,0.52c3.06,0.348 5.599,1.281 7.639,2.778c2.018,1.454 3.038,3.95 3.038,7.466c-0,1.866 -0.586,3.428 -1.736,4.687c-1.172,1.28 -2.756,1.91 -4.775,1.91l-17.534,-0l-3.386,0.434Zm-17.969,120.659l0.348,1.476c0.39,0 0.803,0.044 1.215,0.087c0.391,0.065 0.89,0.087 1.476,0.087c3.472,-0.109 7.118,-0.543 10.937,-1.302c3.82,-0.738 7.639,-1.476 11.458,-2.17c2.257,-0.391 5.426,-0.977 9.549,-1.737c4.102,-0.802 8.442,-1.605 13.021,-2.43c4.557,-0.803 8.811,-1.563 12.76,-2.257c3.993,-0.694 6.988,-1.15 9.028,-1.389c2.3,-0.282 4.731,-0.521 7.292,-0.694c2.539,-0.217 4.948,-0.543 7.205,-0.955l-0,-6.684c-4.992,0.586 -9.267,1.193 -12.848,1.823c-3.537,0.586 -7.639,1.389 -12.326,2.43c-4.861,1.107 -10.048,2.17 -15.538,3.212c-5.512,0.998 -10.851,1.91 -16.059,2.778c-5.209,0.868 -9.809,1.562 -13.802,2.083c-2.04,0.304 -4.21,0.434 -6.511,0.434c-2.257,0 -4.557,-0.043 -6.857,-0.173l-0.348,5.381Zm1.389,-33.68c2.431,0.304 5.317,0.065 8.681,-0.695c3.342,-0.737 6.727,-1.671 10.156,-2.777c3.472,-1.15 6.337,-2.084 8.594,-2.778c2.018,-0.695 5.078,-1.497 9.201,-2.431c4.102,-0.911 8.507,-1.823 13.195,-2.691c4.731,-0.868 9.136,-1.671 13.194,-2.43c4.102,-0.738 7.248,-1.172 9.462,-1.302c1.845,-0.282 3.689,-0.478 5.555,-0.608c1.91,-0.173 3.733,-0.304 5.469,-0.434c0.174,-0.521 0.261,-1.063 0.261,-1.649c-0,-1.736 -0.348,-2.908 -1.042,-3.559c-4.058,0.13 -8.138,0.347 -12.24,0.694c-4.058,0.347 -8.051,0.912 -11.979,1.65c-4.991,0.998 -9.961,2.039 -14.93,3.125c-4.992,1.041 -9.961,2.235 -14.931,3.559c-3.364,0.933 -6.467,1.779 -9.288,2.517c-2.843,0.759 -5.946,1.606 -9.288,2.517c-0.413,0.174 -1.042,0.391 -1.91,0.608c-0.868,0.174 -1.519,0.26 -1.91,0.26c-2.148,0 -4.383,-0.195 -6.684,-0.607l0,1.215c0,0.521 0.087,1.519 0.261,2.951l0.173,2.865Zm-0.781,16.927c1.736,0.174 3.234,0.217 4.514,0.087c1.259,-0.174 2.561,-0.391 3.906,-0.695c5.556,-0.911 11.328,-2.04 17.361,-3.385c6.077,-1.324 12.327,-2.691 18.75,-4.08c2.821,-0.629 5.86,-1.324 9.115,-2.083c3.233,-0.738 6.272,-1.389 9.114,-1.91c1.845,-0.391 4.883,-0.89 9.115,-1.476c4.275,-0.629 8.203,-1.15 11.806,-1.562l-0,-5.208c-1.867,0.13 -3.863,0.325 -5.99,0.607c-2.148,0.239 -3.971,0.499 -5.469,0.781c-3.363,0.521 -6.727,1.02 -10.069,1.476c-3.364,0.478 -6.749,1.107 -10.156,1.91c-7.118,1.801 -14.237,3.537 -21.355,5.208c-7.118,1.693 -14.323,3.255 -21.614,4.688c-0.651,0.303 -1.346,0.477 -2.084,0.52c-0.759,0.066 -1.54,0.087 -2.343,0.087l-3.82,0l-0.781,5.035Zm106.51,29.861c0,-1.042 -0.151,-2.018 -0.434,-2.951c-0.238,-0.977 -0.607,-1.932 -1.128,-2.865c-1.519,-0.108 -3.038,-0.195 -4.601,-0.26c-1.519,-0.109 -3.016,-0.174 -4.514,-0.174c-2.842,0 -6.033,0.217 -9.548,0.608c-3.472,0.412 -6.033,0.759 -7.639,1.041c-0.651,0.131 -1.367,0.174 -2.17,0.174l-2.257,0c-0.13,1.215 -0.217,2.409 -0.261,3.559c-0.065,1.172 -0.086,2.257 -0.086,3.299c-0,1.519 0.13,2.691 0.434,3.559c0.347,0.868 1.171,1.302 2.517,1.302c1.497,-0 3.754,-0.261 6.771,-0.781c3.06,-0.521 6.163,-1.129 9.288,-1.823c3.168,-0.695 5.49,-1.237 6.944,-1.65c1.216,-0.39 2.388,-0.824 3.559,-1.302c1.151,-0.455 2.192,-1.041 3.125,-1.736Zm-128.559,-103.298c1.498,-0.283 3.386,-0.717 5.643,-1.303c2.3,-0.629 4.188,-0.998 5.642,-1.128l21.007,-2.778c1.606,-0.173 2.626,-0.781 3.038,-1.823c0.109,-0.282 0.196,-0.607 0.261,-0.955c0.108,-0.347 0.217,-0.629 0.347,-0.868c0.282,-0.694 0.434,-1.085 0.434,-1.215l-0,-0.434c-0,-0.521 -0.391,-0.825 -1.129,-0.955c-0.759,-0.173 -1.605,-0.26 -2.517,-0.26c-0.933,-0 -2.561,0.217 -4.861,0.607c-2.257,0.413 -3.993,0.76 -5.208,1.042l-16.407,3.646l-5.816,1.389c-0.13,0.824 -0.238,1.649 -0.347,2.517c-0.065,0.868 -0.087,1.715 -0.087,2.518Zm11.546,31.25c3.58,2.213 6.684,4.579 9.288,7.118l0.955,-0.434l18.576,-6.25l9.115,-2.431l-11.546,-0.174l-24.566,1.997l-1.822,0.174Zm-11.285,-49.393c1.15,-0.282 2.365,-0.542 3.646,-0.781c1.323,-0.282 2.604,-0.478 3.819,-0.608c0.217,-0.803 0.369,-1.606 0.434,-2.43c0.109,-0.803 0.217,-1.606 0.347,-2.431c-0.52,0 -1.085,0.044 -1.649,0.087c-0.521,0.065 -1.128,0.152 -1.823,0.26c-0.824,0.174 -1.606,0.304 -2.344,0.348c-0.694,0.065 -1.454,0.086 -2.257,0.086l-1.215,0c0.109,0.825 0.261,1.715 0.434,2.691c0.217,0.934 0.434,1.867 0.608,2.778Zm-1.649,36.719l7.031,-1.215c0.173,-0.695 0.282,-1.476 0.347,-2.344c0.043,-0.868 0.087,-1.606 0.087,-2.257c-1.215,-0 -2.474,0.152 -3.733,0.434c-1.28,0.239 -2.517,0.477 -3.732,0.694c-0.304,1.52 -0.304,3.082 -0,4.688Z" style="fill-rule:nonzero;"/></g></g></g><g><g><clipPath id="_clip28"><path d="M551.194,280.23l5.013,0.13l-1.758,68.512l-5.035,-0.131l1.78,-68.511Z"/></clipPath><g clip-path="url(#_clip28)"><g><clipPath id="_clip29"><path d="M556.098,281.467c-1.671,51.606 -2.387,64.844 -3.884,66.602c-0.391,0.716 -1.65,-0.391 -1.65,-0.391l1.823,0.391c-0.173,-0 -1.476,0.694 -1.823,-0.391c-1.041,-2.192 2.04,-15.386 2.648,-24.696c0.868,-12.175 -0.651,-38.39 1.063,-41.58c0.391,-1.063 1.823,0.065 1.823,0.065"/></clipPath><g clip-path="url(#_clip29)"><path d="M545.334,266.84l18.62,0.478l-2.452,95.725l-18.62,-0.478l2.452,-95.725Z" style="fill:#fff;fill-rule:nonzero;"/></g></g></g></g></g><g><g><clipPath id="_clip30"><path d="M795.052,274.067l5.382,0.152l-1.888,73.611l-5.382,-0.152l1.888,-73.611Z"/></clipPath><g clip-path="url(#_clip30)"><g><clipPath id="_clip31"><path d="M800.347,275.391c-1.823,55.447 -2.582,69.683 -4.21,71.571c-0.412,0.759 -1.758,-0.434 -1.758,-0.434l1.953,0.434c-0.195,-0 -1.584,0.738 -1.953,-0.434c-1.106,-2.344 2.192,-16.515 2.843,-26.519c0.933,-13.065 -0.694,-41.255 1.15,-44.662c0.434,-1.15 1.975,0.044 1.975,0.044"/></clipPath><g clip-path="url(#_clip31)"><path d="M788.78,259.679l19.987,0.521l-2.626,102.843l-20.008,-0.521l2.647,-102.843Z" style="fill:#fff;fill-rule:nonzero;"/></g></g></g></g></g></svg>