<?xml version="1.0" encoding="UTF-8" standalone="no"?><!DOCTYPE svg PUBLIC "-//W3C//DTD SVG 1.1//EN" "http://www.w3.org/Graphics/SVG/1.1/DTD/svg11.dtd"><svg width="100%" height="100%" viewBox="0 0 5692 388" version="1.1" xmlns="http://www.w3.org/2000/svg" xmlns:xlink="http://www.w3.org/1999/xlink" xml:space="preserve" xmlns:serif="http://www.serif.com/" style="fill-rule:evenodd;clip-rule:evenodd;stroke-linejoin:round;stroke-miterlimit:2;"><g><clipPath id="_clip1"><rect x="303.494" y="64.453" width="249.891" height="295.573"/></clipPath><g clip-path="url(#_clip1)"><path d="M780.078,64.952c0,0 -728.125,-0.021 -728.233,-0.021c0.108,7.183 1.974,98.849 1.909,106.792c-0.152,21.897 -1.888,48.589 -2.994,70.464c-0.5,9.831 -8.312,93.23 -15.105,103.668c0.022,-0.022 125.868,15.885 249.067,7.509c2.908,-16.949 9.05,-34.288 11.502,-51.259c2.713,-19.466 6.272,-36.871 6.619,-56.489c0.564,-32.313 -1.129,-58.941 -1.15,-93.077c-0,-1.758 2.56,-1.931 2.756,-0.174c3.928,33.29 4.969,24.849 8.051,85.829c1.801,36.003 -2.843,77.149 -4.687,113.412c121.093,14.453 140.082,12.717 248.546,-3.168c-3.711,-36.155 -3.494,-69.358 -3.473,-105.534c0.109,-50.695 -2.278,-56.576 -0.564,-96.289c0.087,-1.802 1.215,-1.78 1.324,0.021c2.192,35.352 2.018,60.916 6.467,93.468c2.582,19.423 3.602,40.669 6.836,59.961c2.908,17.014 12.022,47.179 12.087,47.179c106.88,-0 112.566,4.492 219.445,4.492c-7.747,-17.144 -14.735,-125.347 -15.126,-134.787c-0.282,-6.315 -3.798,-131.684 -3.277,-151.997" style="fill:#c40000;fill-rule:nonzero;"/></g></g><g><clipPath id="_clip2"><rect x="303.494" y="39.865" width="249.891" height="11.35"/></clipPath><g clip-path="url(#_clip2)"><path d="M836.892,50.89l-841.948,-0l-0,-9.701l841.948,0l0,9.701" style="fill:#d4983d;fill-rule:nonzero;"/></g></g><g><clipPath id="_clip3"><rect x="303.494" y="28.516" width="249.891" height="15.126"/></clipPath><g clip-path="url(#_clip3)"><path d="M836.892,43.056l-841.948,-0l-0,-13.151l841.948,-0l0,13.151" style="fill:#d4983d;fill-rule:nonzero;"/></g></g><g><clipPath id="_clip4"><rect x="303.494" y="22.678" width="24.284" height="55.1"/></clipPath><g clip-path="url(#_clip4)"><path d="M323.155,73.915l-42.838,-0l-0,-51.063l42.838,-0l0,51.063" style="fill:#c40000;fill-rule:nonzero;"/></g></g><g><path d="M551.541,73.915l-42.839,-0l0,-51.063l42.839,-0l-0,51.063" style="fill:#c40000;fill-rule:nonzero;"/></g><g><path d="M548.893,69.813l-37.695,0l-0,-46.961l37.695,-0l0,46.961" style="fill:#c40000;fill-rule:nonzero;"/></g><g><clipPath id="_clip5"><rect x="303.494" y="22.678" width="18.728" height="49.544"/></clipPath><g clip-path="url(#_clip5)"><path d="M320.486,69.813l-37.695,0l-0,-46.961l37.695,-0l0,46.961" style="fill:#c40000;fill-rule:nonzero;"/></g></g><g><clipPath id="_clip6"><rect x="1037.89" y="64.453" width="245.443" height="295.573"/></clipPath><g clip-path="url(#_clip6)"><path d="M1264.65,64.952c0,0 -728.125,-0.021 -728.233,-0.021c0.108,7.183 1.975,98.849 1.91,106.792c-0.152,21.897 -1.888,48.589 -2.995,70.464c-0.499,9.831 -8.312,93.23 -15.104,103.668c0.021,-0.022 125.868,15.885 249.067,7.509c2.908,-16.949 9.071,-34.288 11.501,-51.259c2.713,-19.466 6.272,-36.871 6.619,-56.489c0.564,-32.313 -1.128,-58.941 -1.15,-93.077c0,-1.758 2.561,-1.931 2.756,-0.174c3.928,33.29 4.991,24.849 8.051,85.829c1.802,36.003 -2.843,77.149 -4.687,113.412c121.094,14.453 140.104,12.717 248.546,-3.168c-3.711,-36.155 -3.494,-69.358 -3.472,-105.534c0.13,-50.695 -2.279,-56.576 -0.565,-96.289c0.087,-1.802 1.216,-1.78 1.346,0.021c2.17,35.352 1.996,60.916 6.467,93.468c2.561,19.423 3.581,40.669 6.814,59.961c2.908,17.014 12.023,47.179 12.088,47.179c106.879,-0 112.565,4.492 219.444,4.492c-7.747,-17.144 -14.713,-125.347 -15.126,-134.787c-0.282,-6.315 -3.797,-131.684 -3.277,-151.997" style="fill:#c40000;fill-rule:nonzero;"/></g></g><g><clipPath id="_clip7"><rect x="1037.89" y="39.865" width="282.899" height="11.35"/></clipPath><g clip-path="url(#_clip7)"><path d="M1321.48,50.89l-841.948,-0l-0,-9.701l841.948,0l0,9.701" style="fill:#d4983d;fill-rule:nonzero;"/></g></g><g><clipPath id="_clip8"><rect x="1037.89" y="28.516" width="282.899" height="15.126"/></clipPath><g clip-path="url(#_clip8)"><path d="M1321.48,43.056l-841.948,-0l-0,-13.151l841.948,-0l0,13.151" style="fill:#d4983d;fill-rule:nonzero;"/></g></g><g><path d="M1264.52,73.915l-42.838,-0l-0,-51.063l42.838,-0l0,51.063" style="fill:#c40000;fill-rule:nonzero;"/></g><g><path d="M1261.89,69.813l-37.717,0l0,-46.961l37.717,-0l0,46.961" style="fill:#c40000;fill-rule:nonzero;"/></g><g><clipPath id="_clip9"><rect x="39.692" y="64.453" width="268.49" height="295.573"/></clipPath><g clip-path="url(#_clip9)"><path d="M785.135,64.952c-0,0 -728.147,-0.021 -728.256,-0.021c0.109,7.183 1.997,98.849 1.932,106.792c-0.152,21.897 -1.91,48.589 -3.017,70.464c-0.499,9.831 -8.29,93.23 -15.082,103.668c-0,-0.022 125.846,15.885 249.067,7.509c2.886,-16.949 9.049,-34.288 11.501,-51.259c2.691,-19.466 6.25,-36.871 6.598,-56.489c0.586,-32.313 -1.107,-58.941 -1.129,-93.077c0,-1.758 2.539,-1.931 2.756,-0.174c3.928,33.29 4.97,24.849 8.051,85.829c1.802,36.003 -2.842,77.149 -4.709,113.412c121.116,14.453 140.104,12.717 248.546,-3.168c-3.689,-36.155 -3.494,-69.358 -3.45,-105.534c0.108,-50.695 -2.279,-56.576 -0.565,-96.289c0.066,-1.802 1.216,-1.78 1.324,0.021c2.17,35.352 2.018,60.916 6.467,93.468c2.561,19.423 3.581,40.669 6.836,59.961c2.886,17.014 12.001,47.179 12.088,47.179c106.879,-0 112.543,4.492 219.423,4.492c-7.726,-17.144 -14.714,-125.347 -15.126,-134.787c-0.261,-6.315 -3.798,-131.684 -3.255,-151.997" style="fill:#c40000;fill-rule:nonzero;"/></g></g><g><clipPath id="_clip10"><rect x="0" y="39.865" width="308.181" height="11.35"/></clipPath><g clip-path="url(#_clip10)"><path d="M841.949,50.89l-841.949,-0l0,-9.701l841.949,0l-0,9.701" style="fill:#d4983d;fill-rule:nonzero;"/></g></g><g><clipPath id="_clip11"><rect x="0" y="28.516" width="308.181" height="15.126"/></clipPath><g clip-path="url(#_clip11)"><path d="M841.949,43.056l-841.949,-0l0,-13.151l841.949,-0l-0,13.151" style="fill:#d4983d;fill-rule:nonzero;"/></g></g><g><path d="M99.805,73.915l-42.839,-0l0,-51.063l42.839,-0l-0,51.063" style="fill:#c40000;fill-rule:nonzero;"/></g><g><clipPath id="_clip12"><rect x="283.333" y="22.678" width="24.848" height="55.1"/></clipPath><g clip-path="url(#_clip12)"><path d="M328.19,73.915l-42.838,-0l-0,-51.063l42.838,-0l0,51.063" style="fill:#c40000;fill-rule:nonzero;"/></g></g><g><path d="M97.135,69.813l-37.695,0l0,-46.961l37.695,-0l0,46.961" style="fill:#c40000;fill-rule:nonzero;"/></g><g><clipPath id="_clip13"><rect x="283.333" y="22.678" width="24.848" height="49.544"/></clipPath><g clip-path="url(#_clip13)"><path d="M325.543,69.813l-37.696,0l0,-46.961l37.696,-0l-0,46.961" style="fill:#c40000;fill-rule:nonzero;"/></g></g><g><clipPath id="_clip14"><rect x="547.266" y="64.453" width="249.87" height="295.573"/></clipPath><g clip-path="url(#_clip14)"><path d="M1023.85,64.952c-0,0 -728.125,-0.021 -728.234,-0.021c0.109,7.183 1.975,98.849 1.91,106.792c-0.152,21.897 -1.888,48.589 -3.016,70.464c-0.478,9.831 -8.29,93.23 -15.083,103.668c0.022,-0.022 125.846,15.885 249.067,7.509c2.908,-16.949 9.049,-34.288 11.502,-51.259c2.691,-19.466 6.271,-36.871 6.619,-56.489c0.564,-32.313 -1.129,-58.941 -1.151,-93.077c0,-1.758 2.539,-1.931 2.756,-0.174c3.928,33.29 4.97,24.849 8.052,85.829c1.801,36.003 -2.843,77.149 -4.709,113.412c121.115,14.453 140.104,12.717 248.567,-3.168c-3.711,-36.155 -3.494,-69.358 -3.472,-105.534c0.108,-50.695 -2.279,-56.576 -0.564,-96.289c0.065,-1.802 1.215,-1.78 1.324,0.021c2.191,35.352 2.018,60.916 6.467,93.468c2.56,19.423 3.602,40.669 6.835,59.961c2.908,17.014 12.023,47.179 12.088,47.179c106.88,-0 112.565,4.492 219.445,4.492c-7.748,-17.144 -14.736,-125.347 -15.126,-134.787c-0.282,-6.315 -3.798,-131.684 -3.277,-151.997" style="fill:#c40000;fill-rule:nonzero;"/></g></g><g><clipPath id="_clip15"><rect x="547.266" y="39.865" width="249.87" height="11.35"/></clipPath><g clip-path="url(#_clip15)"><path d="M1080.66,50.89l-841.949,-0l0,-9.701l841.949,0l0,9.701" style="fill:#d4983d;fill-rule:nonzero;"/></g></g><g><clipPath id="_clip16"><rect x="547.266" y="28.516" width="249.87" height="15.126"/></clipPath><g clip-path="url(#_clip16)"><path d="M1080.66,43.056l-841.949,-0l0,-13.151l841.949,-0l0,13.151" style="fill:#d4983d;fill-rule:nonzero;"/></g></g><g><clipPath id="_clip17"><rect x="547.266" y="22.678" width="24.957" height="55.1"/></clipPath><g clip-path="url(#_clip17)"><path d="M566.905,73.915l-42.816,-0l-0,-51.063l42.816,-0l0,51.063" style="fill:#c40000;fill-rule:nonzero;"/></g></g><g><path d="M795.313,73.915l-42.839,-0l-0,-51.063l42.839,-0l-0,51.063" style="fill:#c40000;fill-rule:nonzero;"/></g><g><path d="M792.665,69.813l-37.695,0l-0,-46.961l37.695,-0l-0,46.961" style="fill:#c40000;fill-rule:nonzero;"/></g><g><clipPath id="_clip18"><rect x="547.266" y="22.678" width="19.401" height="49.544"/></clipPath><g clip-path="url(#_clip18)"><path d="M564.258,69.813l-37.696,0l0,-46.961l37.696,-0l-0,46.961" style="fill:#c40000;fill-rule:nonzero;"/></g></g><g><clipPath id="_clip19"><rect x="791.037" y="64.453" width="249.87" height="295.573"/></clipPath><g clip-path="url(#_clip19)"><path d="M1267.62,64.952c-0,0 -728.147,-0.021 -728.234,-0.021c0.087,7.183 1.975,98.849 1.91,106.792c-0.152,21.897 -1.888,48.589 -3.017,70.464c-0.499,9.831 -8.29,93.23 -15.082,103.668c-0,-0.022 125.846,15.885 249.067,7.509c2.908,-16.949 9.049,-34.288 11.501,-51.259c2.691,-19.466 6.272,-36.871 6.619,-56.489c0.565,-32.313 -1.128,-58.941 -1.15,-93.077c0,-1.758 2.539,-1.931 2.756,-0.174c3.928,33.29 4.97,24.849 8.051,85.829c1.802,36.003 -2.842,77.149 -4.709,113.412c121.116,14.453 140.104,12.717 248.568,-3.168c-3.711,-36.155 -3.516,-69.358 -3.472,-105.534c0.108,-50.695 -2.279,-56.576 -0.565,-96.289c0.066,-1.802 1.216,-1.78 1.324,0.021c2.192,35.352 2.018,60.916 6.467,93.468c2.561,19.423 3.603,40.669 6.836,59.961c2.908,17.014 12.023,47.179 12.088,47.179c106.879,-0 112.565,4.492 219.444,4.492c-7.747,-17.144 -14.735,-125.347 -15.147,-134.787c-0.261,-6.315 -3.776,-131.684 -3.255,-151.997" style="fill:#c40000;fill-rule:nonzero;"/></g></g><g><clipPath id="_clip20"><rect x="791.037" y="39.865" width="249.87" height="11.35"/></clipPath><g clip-path="url(#_clip20)"><path d="M1324.44,50.89l-841.949,-0l-0,-9.701l841.949,0l-0,9.701" style="fill:#d4983d;fill-rule:nonzero;"/></g></g><g><clipPath id="_clip21"><rect x="791.037" y="28.516" width="249.87" height="15.126"/></clipPath><g clip-path="url(#_clip21)"><path d="M1324.44,43.056l-841.949,-0l-0,-13.151l841.949,-0l-0,13.151" style="fill:#d4983d;fill-rule:nonzero;"/></g></g><g><clipPath id="_clip22"><rect x="791.037" y="22.678" width="20.074" height="55.1"/></clipPath><g clip-path="url(#_clip22)"><path d="M810.677,73.915l-42.838,-0l-0,-51.063l42.838,-0l0,51.063" style="fill:#c40000;fill-rule:nonzero;"/></g></g><g><path d="M1039.08,73.915l-42.838,-0l-0,-51.063l42.838,-0l0,51.063" style="fill:#c40000;fill-rule:nonzero;"/></g><g><path d="M1036.44,69.813l-37.696,0l0,-46.961l37.696,-0l-0,46.961" style="fill:#c40000;fill-rule:nonzero;"/></g><g><clipPath id="_clip23"><rect x="791.037" y="22.678" width="20.074" height="49.544"/></clipPath><g clip-path="url(#_clip23)"><path d="M808.03,69.813l-37.696,0l0,-46.961l37.696,-0l-0,46.961" style="fill:#c40000;fill-rule:nonzero;"/></g></g><g><clipPath id="_clip24"><rect x="95.768" y="22.678" width="20.812" height="66.645"/></clipPath><g clip-path="url(#_clip24)"><rect x="97.244" y="-128.06" width="217.773" height="217.795" style="fill:#c40000;fill-rule:nonzero;"/><path d="M315.017,91.189l-217.773,0c-0.825,0 -1.476,-0.629 -1.476,-1.454l0,-217.795c0,-0.825 0.651,-1.476 1.476,-1.476l217.773,0c0.825,0 1.476,0.651 1.476,1.476l0,217.795c0,0.825 -0.651,1.454 -1.476,1.454Zm-216.319,-2.929l214.844,-0l-0,-214.844l-214.844,-0l-0,214.844Z" style="fill:#c40000;fill-rule:nonzero;"/></g></g><g><clipPath id="_clip25"><rect x="318.012" y="22.678" width="20.812" height="66.645"/></clipPath><g clip-path="url(#_clip25)"><rect x="319.466" y="-128.06" width="217.795" height="217.795" style="fill:#c40000;fill-rule:nonzero;"/><path d="M537.261,91.189l-217.795,0c-0.825,0 -1.454,-0.629 -1.454,-1.454l0,-217.795c0,-0.825 0.629,-1.476 1.454,-1.476l217.795,0c0.825,0 1.476,0.651 1.476,1.476l-0,217.795c-0,0.825 -0.651,1.454 -1.476,1.454Zm-216.319,-2.929l214.844,-0l-0,-214.844l-214.844,-0l-0,214.844Z" style="fill:#c40000;fill-rule:nonzero;"/></g></g><g><clipPath id="_clip26"><rect x="1034.25" y="22.678" width="20.833" height="66.645"/></clipPath><g clip-path="url(#_clip26)"><rect x="1035.72" y="-128.06" width="217.795" height="217.795" style="fill:#c40000;fill-rule:nonzero;"/><path d="M1253.52,91.189l-217.796,0c-0.824,0 -1.475,-0.629 -1.475,-1.454l-0,-217.795c-0,-0.825 0.651,-1.476 1.475,-1.476l217.796,0c0.824,0 1.454,0.651 1.454,1.476l-0,217.795c-0,0.825 -0.63,1.454 -1.454,1.454Zm-216.32,-2.929l214.844,-0l-0,-214.844l-214.844,-0l0,214.844Z" style="fill:#c40000;fill-rule:nonzero;"/></g></g><g><clipPath id="_clip27"><rect x="1203.21" y="22.678" width="20.833" height="66.645"/></clipPath><g clip-path="url(#_clip27)"><rect x="1204.69" y="-128.06" width="217.795" height="217.795" style="fill:#c40000;fill-rule:nonzero;"/><path d="M1422.48,91.189l-217.795,0c-0.825,0 -1.476,-0.629 -1.476,-1.454l-0,-217.795c-0,-0.825 0.651,-1.476 1.476,-1.476l217.795,0c0.824,0 1.454,0.651 1.454,1.476l-0,217.795c-0,0.825 -0.63,1.454 -1.454,1.454Zm-216.32,-2.929l214.844,-0l-0,-214.844l-214.844,-0l0,214.844Z" style="fill:#c40000;fill-rule:nonzero;"/></g></g><g><path d="M272.331,164.323c-0,-0.022 -0.022,-0.043 -0.044,-0.065c-1.193,-2.322 -2.908,-4.167 -5.165,-5.534c-2.235,-1.367 -4.665,-2.04 -7.291,-2.04l-59.744,0l-0,-4.687l65.191,-0l-5.035,-6.185c-4.861,-5.99 -10.308,-11.35 -16.384,-16.125c-6.055,-4.752 -12.566,-8.789 -19.532,-12.109c-6.966,-3.298 -14.192,-5.794 -21.723,-7.487c-7.53,-1.693 -15.126,-2.517 -22.851,-2.517c-57.249,-0 -103.82,46.593 -103.82,103.841c0,9.266 1.215,18.381 3.646,27.344c0.26,0.998 0.868,1.779 1.78,2.3c0.911,0.521 1.866,0.629 2.886,0.369c0.998,-0.282 1.779,-0.868 2.278,-1.78c0.521,-0.911 0.651,-1.888 0.369,-2.886c-2.257,-8.311 -3.385,-16.753 -3.385,-25.347c-0,-53.082 43.186,-96.246 96.246,-96.246c11.979,-0.021 23.546,2.105 34.722,6.424c11.154,4.318 21.18,10.503 30.013,18.576c1.519,1.367 -110.048,8.572 -110.048,8.572l0,3.256l24.631,-0l0,4.687l-24.631,0l0,3.255c0,0 10.07,-0.108 24.631,0.065l0,19.857c0,30.425 -24.761,55.187 -55.186,55.187c-0.76,-0.022 -1.411,0.238 -1.954,0.759c-0.564,0.543 -0.824,1.172 -0.824,1.953c-0,0.76 0.26,1.411 0.824,1.932c0.543,0.542 1.194,0.781 1.954,0.759c8.116,0.022 15.928,-1.54 23.415,-4.687c-0.911,0.825 -1.15,1.823 -0.694,2.973c0.434,1.15 1.28,1.714 2.517,1.714c22.765,0 41.298,-27.17 41.298,-60.59l0,-19.661l0.499,-0l0,19.661c0,31.576 -8.746,55.187 -16.58,55.187c-0.738,0.021 -1.345,0.282 -1.866,0.824c-0.521,0.521 -0.76,1.151 -0.76,1.888c0,0.717 0.239,1.346 0.76,1.888c0.521,0.521 1.128,0.782 1.866,0.803c14.301,0 22.005,-31.206 22.005,-60.59l0,-19.531l0.521,0.022l0,77.408c0,0.738 0.261,1.389 0.782,1.91c0.542,0.521 1.171,0.781 1.931,0.781c0.738,0 1.367,-0.26 1.91,-0.781c0.521,-0.521 0.781,-1.172 0.781,-1.91l-0,-77.257l0.521,0.022l-0,19.336c-0,29.384 7.704,60.59 22.005,60.59c0.738,-0.021 1.345,-0.282 1.866,-0.803c0.521,-0.542 0.76,-1.171 0.76,-1.888c-0,-0.737 -0.239,-1.367 -0.76,-1.888c-0.521,-0.542 -1.128,-0.803 -1.866,-0.824c-7.834,-0 -16.58,-23.611 -16.58,-55.187l0,-19.141l0.499,0.022l0,19.141c0,33.398 18.533,60.59 41.298,60.59c1.237,0 2.083,-0.564 2.539,-1.736c0.456,-1.15 0.217,-2.148 -0.694,-2.973c7.487,3.125 15.277,4.709 23.394,4.687c0.759,0.022 1.41,-0.238 1.953,-0.759c0.564,-0.543 0.825,-1.172 0.825,-1.953c-0,-0.76 -0.261,-1.411 -0.825,-1.932c-0.543,-0.542 -1.194,-0.781 -1.953,-0.759c-30.426,-0 -55.187,-24.762 -55.187,-55.187l0,-18.62c26.085,1.346 52.083,3.993 61.415,9.223c12.782,7.14 14.54,26.151 14.54,40.951c-0,4.904 -0.369,9.787 -1.107,14.627c-0.738,4.861 -1.844,9.635 -3.32,14.323c-1.476,4.687 -3.277,9.223 -5.447,13.628c-2.17,4.405 -4.666,8.616 -7.487,12.652c-2.821,4.015 -5.925,7.812 -9.31,11.35c-3.407,3.537 -7.053,6.814 -10.938,9.809c-3.906,2.973 -8.007,5.642 -12.304,8.008c-4.319,2.365 -8.768,4.383 -13.39,6.054l-0.043,0c-1.65,0.608 -2.995,1.628 -4.015,3.082c-1.02,1.454 -1.541,3.082 -1.541,4.839l0,2.019c0,0.889 -0.304,1.671 -0.955,2.3c-0.629,0.629 -1.389,0.955 -2.3,0.955l-48.199,-0c-0.911,-0 -1.671,-0.326 -2.3,-0.955c-0.651,-0.629 -0.955,-1.411 -0.955,-2.3l-0,-2.019c-0,-1.757 -0.521,-3.385 -1.541,-4.839c-1.02,-1.432 -2.365,-2.474 -4.015,-3.082l-0.065,0c-11.285,-4.101 -21.441,-10.091 -30.469,-17.99c-9.027,-7.921 -16.297,-17.188 -21.853,-27.821c-1.128,-2.149 0.478,-4.731 2.908,-4.731l162.565,-0c0.564,-0 1.107,-0.13 1.628,-0.369c0.521,-0.261 0.955,-0.608 1.324,-1.042c0.347,-0.456 0.607,-0.955 0.737,-1.519c0.131,-0.542 0.131,-1.107 0.022,-1.671c-0.369,-1.779 -2.018,-2.995 -3.819,-2.995l-163.737,0c-7.487,0 -12.348,7.878 -8.985,14.562l0.044,0.087c5.816,11.523 13.498,21.593 23.09,30.23c9.592,8.637 20.399,15.234 32.465,19.813c1.389,0.521 2.105,1.541 2.105,3.038l0,1.433c0,1.28 0.261,2.539 0.738,3.732c0.499,1.194 1.215,2.257 2.127,3.169c0.911,0.911 1.953,1.606 3.168,2.105c1.194,0.499 2.431,0.738 3.733,0.738l50.369,-0c1.302,-0 2.539,-0.239 3.733,-0.738c1.193,-0.499 2.257,-1.194 3.168,-2.105c0.911,-0.912 1.606,-1.975 2.105,-3.169c0.499,-1.193 0.738,-2.43 0.738,-3.732l-0,-1.433c0.022,-1.497 0.716,-2.517 2.127,-3.038c3.385,-1.302 6.705,-2.778 9.939,-4.405c3.233,-1.65 6.38,-3.472 9.418,-5.447c3.06,-1.953 5.99,-4.102 8.811,-6.381c2.821,-2.278 5.534,-4.687 8.095,-7.269c2.56,-2.561 4.991,-5.252 7.291,-8.073c2.279,-2.8 4.406,-5.73 6.402,-8.789c1.975,-3.039 3.798,-6.164 5.447,-9.397c1.65,-3.234 3.125,-6.554 4.427,-9.939c1.302,-3.386 2.431,-6.836 3.364,-10.33c0.955,-3.516 1.714,-7.053 2.279,-10.634c0.586,-3.602 0.955,-7.205 1.15,-10.829c0.195,-3.624 0.195,-7.248 0.022,-10.872c-0.196,-3.624 -0.565,-7.227 -1.129,-10.808c-0.564,-3.58 -1.324,-7.139 -2.257,-10.633c-0.933,-3.516 -2.04,-6.966 -3.342,-10.352c-1.302,-3.385 -2.778,-6.706 -4.405,-9.939Zm-77.67,-7.639l-0.52,0l-0,-4.687l0.52,-0l0,4.687Zm-30.164,-4.687l0.499,-0l-0,4.687l-0.499,0l-0,-4.687Zm0.499,27.864c-0,30.425 -16.081,55.187 -35.873,55.187l-0.217,-0c20.964,-9.527 35.591,-30.686 35.591,-55.187l-0,-19.77l0.499,0l-0,19.77Zm5.425,-23.177l0,-4.687l0.521,-0l-0,4.687l-0.521,0Zm5.924,0l0,-4.687l0.521,-0l0,4.687l-0.521,0Zm5.947,0l-0,-4.687l0.499,-0l-0,4.687l-0.499,0Zm5.924,0l0,-4.687l0.521,-0l-0,4.687l-0.521,0Zm42.036,78.364l-0.217,-0c-19.792,-0 -35.894,-24.762 -35.894,-55.187l-0,-18.902l0.52,0.022l0,18.88c0,24.501 14.605,45.66 35.591,55.187Z" style="fill-rule:nonzero;"/></g><g><rect x="1264.8" y="29.579" width="4424.09" height="22.439" style="fill:#d4983d;fill-rule:nonzero;"/></g><g><g><g><path d="M362.567,212.635l-0,-11.459c-1.346,0.413 -2.756,0.782 -4.254,1.129c-1.454,0.304 -2.929,0.434 -4.427,0.434c-2.56,-0 -5.447,-0.63 -8.68,-1.91c-3.255,-1.259 -6.055,-3.038 -8.42,-5.295c-2.322,-2.3 -3.473,-4.948 -3.473,-7.899c0,-1.91 0.435,-3.256 1.303,-4.08c0.868,-0.803 2.105,-1.476 3.732,-1.997c4.449,-4.969 7.9,-8.811 10.33,-11.545c2.431,-2.778 4.557,-5.252 6.424,-7.465c1.909,-2.257 3.993,-4.905 6.25,-7.986l-0.174,-3.473c-0.825,-0.911 -1.866,-1.953 -3.125,-3.125c-1.28,-1.15 -3.082,-2.604 -5.382,-4.34c-1.454,-1.324 -2.821,-2.973 -4.08,-4.948c-1.28,-1.953 -1.909,-4.014 -1.909,-6.163c-0,-3.472 1.302,-6.467 3.906,-9.028c2.604,-2.604 5.577,-3.906 8.941,-3.906c2.018,0 4.6,0.521 7.725,1.563c3.169,0.998 5.925,2.3 8.247,3.906c1.497,0.933 2.799,2.127 3.906,3.559c1.15,1.389 2.735,3.646 4.775,6.771c1.909,-1.216 3.645,-1.823 5.208,-1.823c2.713,-0 4.969,0.868 6.771,2.604c1.844,1.736 3.385,3.689 4.6,5.816c1.324,2.604 2.105,5.121 2.344,7.552c0.282,2.387 0.434,4.926 0.434,7.639c0,1.345 -0.26,2.908 -0.781,4.687c-0.521,1.736 -1.541,4.145 -3.038,7.205c-0.695,1.346 -1.736,3.104 -3.125,5.295c-1.389,2.149 -3.516,5.1 -6.337,8.855c-0,1.454 0.087,2.951 0.26,4.513c0.217,1.563 0.391,3.082 0.521,4.514c1.606,-1.215 3.169,-2.474 4.688,-3.819c1.562,-1.324 3.146,-2.539 4.774,-3.646c2.713,-3.581 4.991,-8.073 6.858,-13.455c1.909,-5.382 3.407,-10.243 4.513,-14.583c-1.801,-1.215 -3.515,-2.626 -5.121,-4.254c-1.628,-1.606 -2.431,-3.602 -2.431,-5.989c0,-2.713 1.085,-4.818 3.299,-6.337c2.257,-1.563 4.601,-2.344 7.031,-2.344c2.019,0 3.993,0.413 5.903,1.216c1.953,0.824 4.557,2.148 7.813,3.993c4.861,-8.855 9.57,-14.931 14.149,-18.23c4.557,-3.298 9.939,-4.948 16.146,-4.948c5.902,0 11.545,1.02 16.927,3.039c5.382,1.974 10.438,4.731 15.191,8.246c3.993,2.952 6.771,6.12 8.333,9.462c1.563,3.364 2.344,7.53 2.344,12.5c-0,1.519 -0.152,3.038 -0.434,4.601c-0.239,1.519 -0.564,2.951 -0.955,4.34c-1.107,3.472 -1.649,5.816 -1.649,7.031c3.754,-2.018 6.423,-3.255 7.986,-3.732c1.562,-0.456 2.712,-0.695 3.472,-0.695c1.606,0 3.212,0.434 4.774,1.302c1.563,0.868 2.865,1.867 3.907,2.952c2.191,2.148 3.754,4.644 4.687,7.465c0.911,2.843 1.389,5.729 1.389,8.68c-0,3.776 -0.673,7.119 -1.997,10.07c-1.345,2.951 -4.383,5.989 -9.114,9.114c-1.736,1.216 -3.863,2.496 -6.337,3.82c-2.496,1.345 -4.861,2.669 -7.118,3.993c5.903,3.364 10.981,8.138 15.278,14.323c4.34,6.206 6.51,12.891 6.51,20.052c0,3.993 -0.846,7.856 -2.517,11.545c-1.693,3.711 -3.95,6.923 -6.771,9.636c3.06,2.951 5.816,6.054 8.246,9.288c2.431,3.19 3.646,7.074 3.646,11.632c0,4.731 -1.54,9.114 -4.6,13.107c-3.017,4.037 -7.075,6.077 -12.153,6.077c-1.519,-0 -3.299,-0.348 -5.382,-1.042c-2.083,-0.651 -4.926,-2.127 -8.507,-4.427c-3.537,-2.257 -8.333,-5.816 -14.41,-10.677c-3.776,2.951 -7.639,5.382 -11.632,7.292l-10.33,4.6c-3.125,1.389 -6.901,2.539 -11.284,3.472c-4.341,0.912 -8.507,1.389 -12.5,1.389c-6.207,0 -12.11,-1.692 -17.709,-5.034c-5.555,-3.364 -10.134,-7.791 -13.715,-13.282c-3.602,-5.555 -5.382,-11.415 -5.382,-17.621c0,-5.208 1.064,-9.419 3.212,-12.674c2.192,-3.233 5.577,-5.989 10.156,-8.246c-3.646,-2.192 -6.597,-4.644 -8.854,-7.379c-2.214,-2.778 -3.429,-6.293 -3.646,-10.59c-0.998,0.651 -1.975,1.345 -2.951,2.083c-0.998,0.76 -2.04,1.476 -3.125,2.17l-0,40.365c-0,5.1 -0.044,9.028 -0.087,11.806c-0.065,2.712 -0.152,4.73 -0.26,6.076c-0.066,1.389 -0.217,2.474 -0.434,3.299c-0.586,2.365 -2.04,4.383 -4.341,6.076c-2.257,1.736 -4.731,2.604 -7.378,2.604c-4.992,0 -9.679,-1.627 -14.063,-4.861c-4.34,-3.255 -7.942,-6.814 -10.764,-10.677c-2.43,-3.516 -4.6,-8.03 -6.51,-13.542c-1.866,-5.49 -3.993,-12.76 -6.424,-21.788c-0.303,-1.389 -0.672,-2.778 -1.128,-4.167c-0.478,-1.388 -0.825,-2.625 -1.042,-3.732c-2.43,-3.06 -4.123,-5.599 -5.034,-7.639c-0.869,-2.018 -1.303,-3.993 -1.303,-5.903c0,-3.754 1.216,-5.903 3.646,-6.424c1.78,-0.39 2.952,-0.802 3.473,-1.215c3.233,-2.127 7.074,-4.622 11.545,-7.465c4.514,-2.821 8.181,-5.469 11.024,-7.899Zm70.052,-5.469c4.275,-1.736 8.637,-3.299 13.108,-4.688c4.448,-1.432 8.962,-2.821 13.541,-4.166c-0.13,-0.912 -0.347,-1.78 -0.694,-2.604c-0.347,-0.803 -0.673,-1.671 -0.955,-2.605c-0.521,-1.497 -0.825,-3.06 -0.868,-4.687c-0.065,-1.606 -0.087,-3.147 -0.087,-4.601c0,-2.951 0.261,-5.859 0.781,-8.767c0.521,-2.886 1.606,-6.272 3.299,-10.156c1.671,-3.928 4.34,-8.876 7.986,-14.844c0.695,-1.042 1.302,-2.192 1.823,-3.472c0.521,-1.259 0.781,-2.605 0.781,-3.993c0,-1.042 -1.172,-2.127 -3.472,-3.299c-2.257,-1.15 -4.253,-1.736 -5.99,-1.736c-1.345,-0 -2.582,0.477 -3.732,1.389c-1.172,0.868 -1.953,1.779 -2.344,2.691l-2.778,6.423c-0.933,2.149 -2.083,4.992 -3.472,8.507c-0.521,1.346 -1.107,2.648 -1.736,3.906c-0.586,1.281 -1.02,2.605 -1.302,3.994c-1.042,5.512 -1.997,9.96 -2.865,13.368c-0.868,3.428 -1.801,6.64 -2.777,9.635c-0.934,3.364 -2.171,6.684 -3.733,9.983c-1.519,3.298 -3.017,6.553 -4.514,9.722Zm43.576,40.625c2.301,-1.91 4.167,-3.472 5.556,-4.688c1.432,-1.215 3.233,-2.691 5.382,-4.427c1.606,-1.324 2.647,-2.3 3.125,-2.951c0.456,-0.695 0.694,-1.389 0.694,-2.083c0,-1.216 -0.911,-2.366 -2.691,-3.473c-1.736,-1.15 -3.125,-1.736 -4.166,-1.736c-0.304,0 -0.695,0.065 -1.216,0.174c-0.52,0.13 -1.193,0.521 -1.996,1.215c-2.843,2.257 -5.729,4.579 -8.681,6.945c-2.951,2.387 -6.206,4.774 -9.722,7.204c2.3,0.521 4.623,1.129 6.945,1.823c2.365,0.651 4.622,1.302 6.77,1.997Zm-36.284,21.962c-3.125,-0.63 -6.728,-1.302 -10.764,-1.997c-3.993,-0.694 -6.901,-1.042 -8.681,-1.042c-3.472,0 -6.771,0.521 -9.896,1.563c-3.081,0.998 -4.6,2.235 -4.6,3.733c-0,1.736 1.237,3.125 3.732,4.166c2.474,0.999 5.599,1.476 9.375,1.476c2.019,-0 4.449,-0.477 7.292,-1.476c2.821,-1.041 7.335,-3.168 13.542,-6.423Zm-21.007,-32.032c2.647,-1.779 5.078,-3.472 7.291,-5.034c2.257,-1.606 5.209,-3.733 8.855,-6.337c1.844,-1.324 3.754,-2.648 5.729,-3.993c1.953,-1.324 3.255,-2.192 3.906,-2.604c-4.167,0.412 -8.398,1.193 -12.674,2.343c-4.296,1.107 -7.79,2.409 -10.503,3.907c-4.058,2.148 -6.858,3.949 -8.42,5.382c-1.519,1.389 -2.257,2.213 -2.257,2.43c-0,0.412 0.542,1.302 1.649,2.691c1.15,1.346 2.344,1.997 3.559,1.997c1.085,-0 2.04,-0.261 2.865,-0.782Zm-55.295,38.542l-0.174,-2.43l-0.608,-17.969l-0.434,-0.261c-0.933,0.174 -1.714,0.304 -2.343,0.348c-0.586,0.065 -1.216,0.173 -1.91,0.347c-0.695,0.13 -1.432,0.152 -2.17,0.087c-0.695,-0.109 -1.389,-0.217 -2.084,-0.348l-0.347,0.174l0,0.868c0,1.628 0.543,3.733 1.649,6.337c1.151,2.604 2.54,5.121 4.167,7.552c1.606,2.431 3.038,4.21 4.254,5.295Zm39.583,-54.687c1.845,-1.78 3.863,-3.342 6.076,-4.688c2.257,-1.324 4.514,-2.647 6.771,-3.993c-1.736,-0.694 -3.364,-1.606 -4.861,-2.778c-1.454,-1.15 -2.93,-2.257 -4.427,-3.298c-0.13,2.56 -0.477,5.078 -1.042,7.552c-0.521,2.495 -1.367,4.904 -2.517,7.205Z" style="fill-rule:nonzero;"/></g></g></g><g><g><g><path d="M609.808,140.586l1.216,-0.955c-0.999,-1.085 -1.823,-2.279 -2.518,-3.559c-0.651,-1.259 -0.955,-2.561 -0.955,-3.906c0,-2.3 0.955,-4.427 2.865,-6.337c1.845,-1.953 4.015,-3.342 6.51,-4.167c2.474,-0.803 5.078,-1.215 7.813,-1.215c3.472,0 6.814,0.608 10.069,1.823c3.234,1.215 6.12,3.017 8.681,5.382c1.497,1.389 2.734,3.038 3.732,4.948c0.977,1.866 1.867,3.711 2.691,5.555c0.391,0.999 0.608,2.149 0.608,3.473c0,4.058 -0.911,7.161 -2.691,9.288c-1.801,2.148 -4.058,4.08 -6.771,5.816c-1.215,0.824 -2.387,1.541 -3.472,2.17c-1.042,0.586 -2.322,1.28 -3.819,2.083c0.564,0.521 1.128,1.042 1.649,1.563c0.521,0.477 1.063,0.955 1.649,1.476c1.606,1.453 2.886,3.168 3.82,5.121c0.911,1.975 1.584,4.036 1.996,6.163c2.127,0.413 4.189,0.933 6.163,1.563c1.953,0.586 3.863,1.432 5.73,2.517c1.215,-2.192 2.473,-4.253 3.819,-6.163c1.389,-1.953 2.734,-3.95 4.08,-5.99c-1.107,-0.521 -2.084,-0.955 -2.952,-1.302c-0.868,-0.347 -1.866,-0.716 -2.951,-1.128c-1.736,-0.63 -3.277,-1.78 -4.601,-3.472c-1.345,-1.737 -1.996,-3.516 -1.996,-5.382c-0,-2.127 0.803,-3.69 2.43,-4.688c1.606,-1.042 4.21,-1.91 7.813,-2.604l17.621,-7.813c-0.586,-0.976 -1.193,-2.105 -1.823,-3.385c-0.585,-1.259 -0.868,-2.517 -0.868,-3.733c0,-3.645 1.303,-6.51 3.907,-8.593c2.647,-2.084 5.816,-3.581 9.461,-4.514c3.646,-0.912 6.793,-1.389 9.462,-1.389c8.334,-0 15.734,2.691 22.223,8.073c2.647,-0.174 5.23,-0.304 7.725,-0.434c2.474,-0.109 4.992,-0.174 7.552,-0.174c2.604,0 5.643,0.434 9.115,1.302c3.516,0.868 6.879,2.127 10.069,3.733c3.234,1.627 5.664,3.515 7.292,5.642c1.324,1.736 2.344,3.212 3.038,4.427c0.695,1.216 1.042,2.778 1.042,4.688c-0,3.472 -0.781,6.25 -2.344,8.333c-1.562,2.083 -4.232,3.125 -7.986,3.125c-2.04,0 -4.058,-0.26 -6.076,-0.781l-5.99,-1.649c-2.604,-0.63 -5.425,-1.129 -8.42,-1.476c-3.017,-0.347 -5.881,-0.521 -8.594,-0.521c-2.951,0 -5.903,0.239 -8.854,0.694c-2.951,0.478 -5.903,1.042 -8.854,1.737c-3.017,0.824 -6.641,1.801 -10.851,2.951c-4.232,1.107 -7.552,2.474 -9.983,4.08c-2.148,1.519 -3.949,3.515 -5.381,5.989c-1.389,2.496 -2.561,4.948 -3.473,7.379l-0.173,0.608l16.493,-7.9l2.604,-0.781l15.799,-5.903c2.126,-0.39 4.427,-0.824 6.857,-1.302c2.431,-0.456 5.838,-0.694 10.243,-0.694c2.821,-0 6.207,0.412 10.156,1.215c3.994,0.825 7.075,2.17 9.289,4.08c3.168,2.561 5.837,5.534 7.986,8.941c2.192,3.429 3.298,7.291 3.298,11.632c0,1.627 -0.173,3.255 -0.52,4.861c-0.348,1.562 -0.999,3.038 -1.91,4.427c-1.519,2.257 -2.518,3.906 -3.038,4.948c-0.521,0.998 -0.782,1.627 -0.782,1.91c0,0.933 0.109,1.866 0.348,2.777c0.282,0.933 0.564,1.736 0.868,2.431c0.39,0.933 0.607,1.888 0.607,2.864c0,2.561 -1.02,4.471 -3.038,5.73c-2.04,1.28 -4.21,1.909 -6.51,1.909c-2.387,0 -5.122,-0.303 -8.247,-0.954c-3.081,-0.695 -5.903,-1.237 -8.507,-1.65c-0.824,-0.173 -1.627,-0.26 -2.43,-0.26l-2.344,-0c-6.38,-0 -12.5,0.759 -18.403,2.257l-19.358,5.034c-1.627,0.413 -3.342,0.695 -5.121,0.869c-1.736,0.13 -3.385,0.173 -4.948,0.173c-4.579,0 -8.637,-1.736 -12.153,-5.208c-3.472,-3.516 -6.423,-6.966 -8.854,-10.33c-2.561,2.148 -4.926,3.429 -7.118,3.819c-2.148,0.413 -4.904,0.825 -8.246,1.216c0.282,0.694 0.434,1.302 0.434,1.823l-0,4.6c3.754,1.216 7.248,3.038 10.503,5.469c0.629,-0.282 1.324,-0.477 2.083,-0.608c0.738,-0.108 1.519,-0.173 2.344,-0.173c3.342,-0 6.532,0.955 9.549,2.864c3.06,1.867 5.251,4.319 6.597,7.379l0.955,-0.174l3.298,-0.781l15.712,-4.861c5.491,-1.736 11.025,-3.255 16.58,-4.601c5.599,-1.389 11.306,-2.083 17.101,-2.083c4.557,-0 9.201,0.586 13.889,1.736c4.731,1.172 8.984,3.016 12.76,5.555c2.3,1.454 4.601,3.798 6.858,7.032c2.3,3.255 3.58,6.293 3.819,9.114l1.823,17.709l0.434,17.968c0,2.214 -0.13,4.558 -0.347,7.032c-0.174,2.495 -0.608,4.796 -1.302,6.944c-1.346,3.646 -3.733,6.424 -7.205,8.333c-3.429,1.954 -7.01,2.952 -10.764,2.952c-4.167,-0 -8.073,-0.76 -11.719,-2.257c-3.602,-1.454 -7.161,-3.19 -10.677,-5.208c-3.081,-0 -6.163,-0.261 -9.288,-0.782c-1.215,-0.304 -2.474,-0.521 -3.733,-0.694c-1.28,-0.13 -2.582,-0.174 -3.906,-0.174c-1.345,0 -2.691,0.022 -4.08,0.087c-1.345,0.109 -2.474,0.217 -3.385,0.347l-3.646,0.434c-1.215,0.109 -2.496,0.174 -3.819,0.174c-1.91,-0 -4.08,-0.412 -6.511,-1.215c-2.387,-0.825 -4.167,-2.084 -5.382,-3.82c-0.824,-1.107 -1.345,-2.344 -1.562,-3.732c-0.174,-1.433 -0.326,-2.822 -0.434,-4.167c-0.174,-1.432 -0.304,-2.821 -0.348,-4.167c-0.065,-1.389 -0.086,-2.734 -0.086,-4.08c-0,-1.085 0.021,-2.604 0.086,-4.514c0.044,-1.953 0.217,-3.928 0.521,-5.902c0.282,-1.953 0.608,-3.321 0.955,-4.08c0.803,-1.498 2.214,-2.257 4.254,-2.257l3.038,-0c0.694,-0 1.259,-0.022 1.736,-0.087c0.456,-0.043 0.89,-0.174 1.302,-0.347c1.91,-0.912 3.689,-1.78 5.382,-2.604c1.671,-0.803 3.385,-1.606 5.121,-2.431c2.019,-1.042 4.189,-1.758 6.511,-2.17c2.365,-0.391 4.622,-0.608 6.771,-0.608c1.909,0 3.754,0.348 5.555,1.042c1.845,0.651 3.429,1.476 4.775,2.517c3.233,2.431 4.861,5.881 4.861,10.33c-0,1.346 -0.13,2.756 -0.348,4.254c-0.173,1.454 -0.412,2.929 -0.694,4.427c0.694,0.304 1.324,0.586 1.91,0.868c0.629,0.239 1.215,0.347 1.736,0.347c0.282,0 0.694,-0.043 1.215,-0.174c0.521,-0.173 0.868,-0.868 1.042,-2.083c0.108,-1.324 0.195,-3.212 0.26,-5.642c0.044,-2.431 0.087,-4.775 0.087,-7.031l0,-5.643c0,-2.821 -1.085,-5.295 -3.212,-7.378c-2.148,-2.084 -4.644,-3.125 -7.465,-3.125c-2.951,-0 -6.315,0.325 -10.069,0.955c-3.777,0.585 -7.205,1.388 -10.33,2.43l-12.066,4.688c-2.561,0.933 -5.209,1.475 -7.986,1.649c-2.778,0.13 -5.513,0.239 -8.16,0.347c-0.304,1.107 -0.564,2.214 -0.781,3.299c-0.174,1.041 -0.261,2.17 -0.261,3.385l0,18.316c0,2.431 0.109,4.905 0.347,7.379c0.283,2.495 0.434,4.991 0.434,7.552c0,2.994 -0.672,5.599 -1.996,7.812c-1.346,2.192 -3.776,3.299 -7.292,3.299c-2.561,-0 -5.208,-0.651 -7.986,-1.91c-2.734,-1.28 -4.752,-3.038 -6.076,-5.295c-0.825,-1.519 -1.346,-3.103 -1.563,-4.774c-0.173,-1.693 -0.26,-3.386 -0.26,-5.122l-0,-5.469l2.17,-19.357l1.215,-8.334c-1.345,0.695 -3.016,1.042 -5.034,1.042c-1.867,0 -3.603,-0.26 -5.209,-0.781l0,16.927c0,2.43 0.044,4.904 0.174,7.378c0.108,2.496 0.173,5.013 0.173,7.552c0,6.077 -1.302,11.155 -3.906,15.278c-2.604,4.102 -7.292,6.163 -14.062,6.163c-3.776,0 -7.335,-1.02 -10.677,-3.038c-3.364,-2.04 -5.795,-4.731 -7.292,-8.073c-0.76,-2.04 -1.215,-4.231 -1.389,-6.597c-0.13,-2.365 -0.174,-4.818 -0.174,-7.378c-4.687,-0 -9.071,-1.064 -13.107,-3.212c-4.058,-2.127 -7.292,-5.122 -9.722,-8.941c-2.431,-3.863 -3.646,-8.203 -3.646,-13.021c-0,-4.167 1.562,-7.661 4.687,-10.503c1.042,-0.977 2.018,-1.932 2.952,-2.865c0.976,-0.912 1.866,-1.845 2.691,-2.778l9.635,-12.5l3.646,-5.469c-4.167,-1.215 -7.444,-2.278 -9.809,-3.211c-2.322,-0.977 -5.165,-2.952 -8.507,-5.903c-3.364,-3.234 -6.033,-7.487 -7.986,-12.761c-1.975,-5.316 -2.952,-10.264 -2.952,-14.843c0,-5.144 1.129,-10.005 3.386,-14.584c2.3,-4.557 5.23,-8.81 8.767,-12.76c3.581,-3.993 7.465,-7.661 11.632,-11.024c4.21,-3.342 8.203,-6.381 11.979,-9.115Zm88.368,50.694l-20.746,4.862l-0,0.607c-0,1.346 0.39,2.648 1.215,3.906c0.803,1.281 1.736,2.322 2.778,3.125c5.903,-1.909 11.892,-3.732 17.969,-5.468c6.076,-1.736 12.109,-3.147 18.142,-4.254c0.564,-0.521 1.649,-1.692 3.212,-3.559c1.606,-1.91 3.125,-3.776 4.514,-5.642c1.432,-1.91 2.17,-3.06 2.17,-3.472c-0,-0.283 -0.174,-0.521 -0.521,-0.695c-0.304,-0.217 -0.586,-0.347 -0.868,-0.347c-1.519,-0 -3.429,0.564 -5.729,1.649c-2.257,1.042 -4.666,2.322 -7.205,3.82l-14.931,5.468Zm-102.691,0.608c2.127,-0.694 4.297,-1.562 6.511,-2.604c2.257,-1.085 4.449,-2.105 6.597,-3.038c0.217,-0.977 0.391,-2.214 0.521,-3.733c0.173,-1.562 0.26,-2.799 0.26,-3.733c-0.521,-0.39 -1.128,-1.15 -1.823,-2.256l-0.347,-0.782c-0.174,-0.282 -0.391,-0.564 -0.608,-0.868c-0.998,0.413 -2.647,1.346 -4.947,2.778c-2.257,1.389 -4.384,2.93 -6.337,4.601c-1.91,1.692 -2.865,3.081 -2.865,4.166c0,1.216 0.261,2.257 0.781,3.125c0.521,0.868 1.259,1.65 2.257,2.344Zm100.868,83.767l0.174,5.382c1.606,-0.108 3.32,-0.39 5.122,-0.868c1.844,-0.455 3.428,-1.15 4.774,-2.083c0.694,-0.977 1.497,-2.3 2.43,-3.993c0.977,-1.671 1.476,-2.821 1.476,-3.472c0,-0.565 -0.087,-1.216 -0.26,-1.91c-0.131,-0.738 -0.521,-1.128 -1.216,-1.128c-0.52,-0 -1.714,0.434 -3.559,1.302c-1.801,0.868 -3.559,1.823 -5.295,2.864c-1.736,0.998 -2.951,1.693 -3.646,2.084l0,1.822Z" style="fill-rule:nonzero;"/></g></g></g><g><g><g><path d="M959.133,274.614c-0.825,0.13 -1.628,0.304 -2.431,0.521c-0.824,0.173 -1.627,0.412 -2.43,0.694c-0,2.257 0.021,4.579 0.087,6.945c0.043,2.387 0.086,4.687 0.086,6.944c0,3.754 -0.26,7.161 -0.781,10.243c-0.521,3.125 -2.669,4.688 -6.424,4.688c-3.125,-0 -5.338,-0.869 -6.597,-2.605c-1.28,-1.736 -2.061,-3.884 -2.343,-6.423c-0.239,-2.561 -0.348,-4.97 -0.348,-7.292l0,-5.208c0,-1.606 0.044,-3.234 0.174,-4.861c-0.933,-0 -1.91,0.043 -2.951,0.086c-0.999,0.066 -2.04,0.044 -3.125,-0.086l-0,10.677c-0,4.036 -0.044,6.944 -0.087,8.68c-0.065,1.736 -0.434,3.559 -1.129,5.469c-0.521,1.736 -1.389,3.125 -2.604,4.167c-1.215,1.085 -2.951,1.649 -5.208,1.649c-5.382,-0 -9.158,-1.78 -11.285,-5.295c-2.083,-3.472 -3.125,-7.552 -3.125,-12.24c0,-2.539 0.174,-5.056 0.521,-7.552c0.347,-2.474 0.651,-4.948 0.955,-7.378c-0.695,0.13 -1.454,0.173 -2.257,0.173c-3.082,0 -5.708,-1.215 -7.9,-3.646c-0.347,2.843 -1.02,5.469 -1.996,7.9c-0.933,2.43 -3.125,3.646 -6.597,3.646c-3.82,-0 -6.858,-1.563 -9.115,-4.688c-6.076,-8.333 -11.198,-17.318 -15.364,-26.996c-0.521,0.303 -0.999,0.607 -1.389,0.954c-0.413,0.304 -0.868,0.586 -1.389,0.869c2.018,3.884 3.928,7.812 5.729,11.805c1.779,3.95 3.95,7.682 6.51,11.198c2.301,2.951 3.907,5.273 4.775,6.944c0.868,1.693 1.302,3.473 1.302,5.382c-0,3.06 -0.76,5.578 -2.257,7.552c-1.454,1.954 -3.863,2.952 -7.205,2.952c-3.646,-0 -6.858,-1.042 -9.635,-3.125c-2.735,-2.083 -5.035,-4.731 -6.945,-7.899c-1.866,-3.169 -3.472,-6.25 -4.861,-9.202c-1.454,-3.342 -2.778,-6.771 -3.993,-10.243c-1.215,-3.516 -2.17,-7.031 -2.865,-10.503c-2.777,-0.283 -5.468,-0.825 -8.073,-1.65c-2.56,-0.803 -4.839,-2.213 -6.857,-4.253c-3.364,-3.342 -5.621,-7.422 -6.771,-12.24c-1.107,-4.861 -1.649,-9.57 -1.649,-14.149c-0,-4.34 0.477,-7.899 1.475,-10.677c1.042,-2.821 2.518,-5.469 4.427,-7.899c1.954,-2.431 4.297,-5.057 7.032,-7.9c-3.82,-2.126 -6.749,-4.47 -8.768,-7.031c-1.975,-2.539 -2.951,-6.12 -2.951,-10.764c-0,-1.953 0.456,-3.754 1.389,-5.382c0.911,-1.606 1.996,-3.168 3.212,-4.687c4.34,-5.382 7.378,-11.22 9.114,-17.535c-2.148,-1.215 -4.34,-2.691 -6.597,-4.427c-2.214,-1.736 -3.299,-4.08 -3.299,-7.031c0,-2.995 1.085,-5.144 3.299,-6.424c2.257,-1.259 4.644,-1.91 7.205,-1.91c2.127,0 4.101,0.304 5.903,0.868c1.844,0.521 3.494,1.519 4.948,2.952c1.605,-1.845 3.515,-3.863 5.729,-6.077c2.257,-2.257 4.687,-4.188 7.291,-5.816c2.648,-1.606 5.317,-2.43 7.986,-2.43c2.822,-0 5.773,0.651 8.855,1.91c3.125,1.28 5.75,2.864 7.899,4.774c1.215,0.933 2.3,1.996 3.299,3.212c1.041,1.215 2.083,2.387 3.125,3.472c2.43,2.561 4.448,4.948 6.076,7.205c1.606,2.213 2.691,5.251 3.212,9.114c0.39,2.843 0.607,4.992 0.607,6.424c0,2.213 -0.781,4.601 -2.343,7.205c-1.519,2.604 -3.451,5.208 -5.816,7.812c-2.322,2.561 -4.666,4.926 -7.032,7.118c-2.387,2.214 -4.383,3.993 -5.989,5.382c3.342,2.149 5.924,4.514 7.726,7.118c1.844,2.605 3.645,5.686 5.381,9.202c1.389,2.56 2.713,5.208 3.994,7.986c1.258,2.734 2.517,5.512 3.732,8.333c1.215,-7.921 2.561,-16.449 4.08,-25.607c1.563,-9.137 2.474,-17.622 2.778,-25.434c-0.521,-1.498 -1.042,-2.974 -1.563,-4.428c-0.477,-1.497 -0.694,-3.059 -0.694,-4.687c-0,-3.472 0.998,-6.011 3.038,-7.639c2.018,-1.606 4.709,-2.431 8.073,-2.431c2.3,0 4.384,0.478 6.25,1.389c1.215,-0.629 2.452,-1.323 3.733,-2.083c1.258,-0.738 2.517,-1.432 3.732,-2.083c-1.345,-1.91 -2.604,-3.581 -3.819,-5.035c-1.215,-1.497 -1.823,-3.516 -1.823,-6.076c-0,-4.731 1.91,-8.464 5.729,-11.198c3.863,-2.778 7.943,-4.167 12.24,-4.167c5.078,0 9.548,1.367 13.368,4.08c3.863,2.669 7.422,5.729 10.677,9.201c4.687,-0.217 9.505,0.087 14.496,0.955c4.97,0.868 9.288,2.93 12.934,6.163c1.736,1.454 3.646,3.538 5.729,6.25c2.084,2.67 3.842,5.447 5.296,8.334c1.497,2.908 2.257,5.555 2.257,7.986c-0,3.363 -0.651,6.749 -1.91,10.156c-1.281,3.364 -2.518,6.576 -3.733,9.635c0.977,1.216 1.693,2.431 2.17,3.646c0.456,1.216 0.695,2.561 0.695,3.993c-0,3.429 -0.998,6.229 -2.952,8.42c-1.974,2.214 -4.687,3.299 -8.159,3.299c-2.149,0 -4.254,-0.108 -6.337,-0.347c-2.083,-0.282 -4.232,-0.478 -6.424,-0.608c-1.454,-0.282 -2.929,-0.477 -4.427,-0.607c-1.454,-0.174 -2.93,-0.261 -4.427,-0.261c-4.058,0 -8.203,0.499 -12.413,1.476c-4.232,0.933 -9.028,2.127 -14.41,3.559c-1.91,0.586 -3.884,1.042 -5.903,1.389c-1.974,0.304 -4.058,0.434 -6.25,0.434l-1.215,-0c-0.239,2.04 -0.521,4.058 -0.868,6.076c-0.347,2.04 -0.651,4.058 -0.868,6.077c7.227,-3.125 14.692,-5.947 22.396,-8.507c7.747,-2.539 15.625,-3.82 23.611,-3.82c4.97,0 9.592,0.564 13.889,1.649c4.275,1.042 7.834,3.863 10.677,8.421c3.342,5.555 5.425,11.349 6.25,17.361c0.282,2.734 0.456,6.25 0.521,10.59c0.043,4.297 0.087,8.507 0.087,12.674l-0,10.85c-0,7.422 -0.152,13.585 -0.434,18.49c-0.239,4.904 -1.281,9.114 -3.125,12.587c-1.216,2.43 -2.93,4.101 -5.122,5.034c-2.148,0.977 -4.492,1.476 -7.031,1.476c-3.472,0 -6.749,-0.694 -9.809,-2.083c-3.017,-1.346 -5.729,-3.212 -8.16,-5.643c-0.825,2.301 -1.997,4.428 -3.559,6.337c-1.519,1.953 -3.689,2.952 -6.51,2.952c-2.561,-0 -4.406,-0.847 -5.556,-2.518c-1.172,-1.692 -1.736,-3.646 -1.736,-5.903c-0,-2.039 0.195,-4.079 0.608,-6.163c0.39,-2.083 0.868,-4.08 1.388,-5.989l0.261,-14.323Zm-135.07,-5.816c-1.041,-0.695 -1.974,-1.498 -2.777,-2.431c-0.825,-0.976 -1.216,-2.126 -1.216,-3.472c0,-1.845 0.651,-3.342 1.997,-4.514c1.324,-1.15 2.886,-1.736 4.687,-1.736c2.648,0 5.404,0.738 8.247,2.17c2.821,1.389 5.056,3.212 6.684,5.469c0.803,1.107 1.389,2.344 1.736,3.733c0.391,1.345 0.803,2.734 1.215,4.166c1.606,6.077 4.037,11.61 7.292,16.58c3.754,5.599 5.642,9.722 5.642,12.326c0,2.366 -0.846,4.362 -2.517,5.99c-1.693,1.606 -3.733,2.431 -6.163,2.431c-5.621,-0 -10.222,-2.127 -13.802,-6.337c-3.603,-4.232 -6.055,-8.833 -7.379,-13.802c-0.933,-3.342 -1.692,-6.858 -2.257,-10.504c-0.521,-3.646 -0.998,-6.988 -1.389,-10.069Zm112.414,-84.809c3.645,-2.257 6.879,-4.015 9.722,-5.295c2.821,-1.324 5.772,-2.214 8.854,-2.691c3.125,-0.456 6.771,-0.695 10.937,-0.695c0.803,-2.018 1.65,-3.993 2.518,-5.903c0.868,-1.953 1.91,-3.906 3.125,-5.816c0.521,-0.802 0.781,-1.519 0.781,-2.17c0,-0.803 -0.608,-1.215 -1.823,-1.215c-1.736,0 -3.537,0.391 -5.382,1.129c-1.801,0.694 -4.232,1.866 -7.291,3.472c-5.274,2.734 -10.591,4.904 -15.973,6.51c-1.454,0.521 -2.734,0.847 -3.819,0.955l-0,1.042c-0,1.736 -0.174,3.537 -0.521,5.382c-0.347,1.801 -0.738,3.559 -1.128,5.295Zm-72.657,18.75c-2.951,3.125 -5.794,6.38 -8.507,9.722c-2.669,3.364 -5.338,6.771 -7.986,10.243c-1.106,1.519 -2.235,3.255 -3.385,5.208c-1.107,1.91 -1.649,3.885 -1.649,5.903c-0,0.412 0.021,0.868 0.086,1.389c0.044,0.477 0.348,0.695 0.868,0.695c0.803,-0 2.301,-1.172 4.514,-3.56c2.257,-2.365 4.688,-5.208 7.292,-8.506c2.648,-3.299 5.056,-6.381 7.205,-9.289c2.127,-2.886 3.559,-4.796 4.253,-5.729c-0.412,-1.085 -0.824,-2.127 -1.215,-3.125c-0.412,-0.976 -0.911,-1.953 -1.476,-2.951Zm-8.68,-28.038c1.085,-1.433 2.257,-2.952 3.472,-4.514c1.215,-1.563 2.344,-3.06 3.385,-4.514c0.695,-0.977 1.324,-1.823 1.91,-2.518c0.629,-0.737 1.302,-1.519 1.997,-2.343c1.041,-1.216 2.04,-2.518 3.038,-3.907c1.042,-1.432 1.562,-3.038 1.562,-4.774c0,-1.497 -0.325,-2.886 -0.954,-4.167c-0.586,-1.258 -1.737,-1.909 -3.473,-1.909c-1.627,-0 -2.756,0.651 -3.385,1.909c-0.586,1.281 -1.02,2.93 -1.302,4.948c-0.13,0.934 -0.564,2.691 -1.302,5.296c-0.695,2.56 -1.519,5.338 -2.431,8.333c-0.868,3.016 -1.714,5.729 -2.517,8.16Zm42.014,86.371c-0,-4.557 0.195,-9.136 0.607,-13.715c-1.345,0.412 -2.691,0.607 -4.08,0.607c-3.776,0 -6.597,-1.041 -8.506,-3.125c-1.867,-2.083 -3.646,-4.6 -5.382,-7.552l-1.65,2.778c-0.521,0.998 -1.128,1.953 -1.823,2.865c4.449,1.215 8.42,3.624 11.893,7.205c3.515,3.537 6.51,7.183 8.941,10.937Zm40.972,-7.812c0.108,-2.431 0.108,-4.71 -0,-6.858c-0.825,-1.085 -1.28,-2.04 -1.389,-2.865c-2.843,0 -5.339,-0.26 -7.465,-0.781c0.629,1.454 1.15,3.017 1.562,4.688c0.391,1.692 0.803,3.342 1.216,4.948l-0,3.472c1.085,-0.564 2.126,-1.042 3.125,-1.389c1.041,-0.391 2.018,-0.803 2.951,-1.215Zm42.795,12.5c-0.694,0.412 -1.389,0.781 -2.083,1.128c-0.651,0.304 -1.302,0.586 -1.997,0.868l0,12.066c0.391,0.174 0.955,0.261 1.649,0.261c1.086,-0 1.758,-0.565 1.997,-1.737c0.282,-1.15 0.434,-2.604 0.434,-4.34l0,-8.246Zm-0.26,-23.611c0.173,-1.086 0.282,-2.192 0.347,-3.299c0.043,-1.15 0.087,-2.279 0.087,-3.386c-0,-1.605 -0.521,-2.43 -1.563,-2.43c-0.173,-0 -0.781,0.174 -1.823,0.521c-0.998,0.347 -1.801,0.651 -2.43,0.868l-1.823,0.868c1.432,1.866 2.3,4.145 2.604,6.858l4.601,-0Zm-21.355,3.211l0.174,-3.472c-0.412,-0.391 -0.781,-0.803 -1.128,-1.215c-0.304,-0.391 -0.586,-0.803 -0.868,-1.215c-0.825,0.173 -1.606,0.39 -2.344,0.607c-0.695,0.174 -1.454,0.326 -2.257,0.434c0.629,2.04 1.085,4.167 1.389,6.424c0.911,-0.217 1.779,-0.478 2.604,-0.781l2.43,-0.782Z" style="fill-rule:nonzero;"/></g></g></g><g><g><g><path d="M1085.13,266.061l0.608,-2.865c-0.651,-0.695 -1.367,-1.519 -2.17,-2.517c-0.825,-0.977 -1.216,-2.019 -1.216,-3.125c0,-0.695 0.196,-1.433 0.608,-2.257c0.391,-0.803 0.608,-1.411 0.608,-1.823c-0,-0.521 -0.304,-1.042 -0.868,-1.563c-0.825,-0.803 -1.454,-1.649 -1.91,-2.517c-0.477,-0.868 -0.955,-1.845 -1.476,-2.952c-0.933,-1.909 -1.519,-3.385 -1.736,-4.427c-0.173,-1.085 -0.217,-2.712 -0.087,-4.861l1.563,-24.218l1.823,-26.389c-0,-1.085 -0.217,-1.845 -0.608,-2.257c-1.345,-1.324 -2.604,-2.691 -3.819,-4.08c-1.216,-1.432 -2.431,-2.821 -3.646,-4.167c-0.521,-0.694 -0.933,-1.562 -1.215,-2.604c-0.239,-1.085 -0.348,-2.04 -0.348,-2.865c0,-2.018 0.456,-3.949 1.389,-5.816c0.912,-1.909 1.997,-3.515 3.212,-4.861c0.977,-1.085 2.018,-2.018 3.125,-2.777c1.15,-0.738 2.387,-1.433 3.733,-2.084c0.803,-0.521 1.584,-1.041 2.343,-1.562c0.738,-0.565 1.585,-1.129 2.518,-1.65c0.282,-0.282 0.434,-0.477 0.434,-0.607c-0,-0.391 -0.087,-0.825 -0.261,-1.302c-0.13,-0.521 -0.651,-1.693 -1.562,-3.559c-0.304,-0.521 -0.434,-1.129 -0.434,-1.823c-0,-2.821 1.41,-5.057 4.253,-6.684c2.822,-1.606 5.99,-2.735 9.462,-3.386c3.516,-0.694 6.294,-1.041 8.333,-1.041c2.54,-0 5.686,0.52 9.462,1.562c3.755,0.998 7.118,2.496 10.07,4.514c2.951,2.04 4.427,4.644 4.427,7.813c-0,2.604 -1.215,4.687 -3.646,6.25c-2.387,1.519 -4.579,2.604 -6.597,3.298l-18.577,5.642l-4.427,1.563c-1.389,0.694 -2.777,1.389 -4.166,2.083c-1.389,0.651 -2.431,1.715 -3.125,3.212l1.215,0.781l5.035,1.997l3.645,-1.389l16.32,-6.424l4.427,-1.996l17.622,-6.511c2.256,-0.911 3.385,-2.647 3.385,-5.208c-0,-0.564 -0.13,-1.345 -0.347,-2.344c-0.174,-1.041 -0.868,-2.626 -2.084,-4.774c-0.13,-0.217 -0.173,-0.629 -0.173,-1.215c-0,-1.845 0.651,-3.755 1.996,-5.729c1.324,-1.954 2.8,-3.212 4.427,-3.733c1.91,-0.694 4.362,-1.172 7.379,-1.476c3.06,-0.347 5.664,-0.521 7.812,-0.521c2.822,0 5.73,0.521 8.681,1.563c2.951,0.998 5.686,2.148 8.246,3.472c1.606,0.933 2.952,2.127 3.993,3.559c1.086,1.389 1.997,2.908 2.691,4.514l18.143,-2.604c2.712,-0.174 5.338,-0.304 7.899,-0.434c2.539,-0.109 5.078,-0.174 7.639,-0.174c2.951,0 6.445,0.586 10.503,1.736c4.037,1.107 7.596,2.865 10.678,5.296c3.125,2.43 4.687,5.533 4.687,9.288c0,1.345 -0.347,2.604 -1.042,3.819c-0.694,1.215 -1.519,2.387 -2.43,3.472c-0.695,0.825 -1.649,1.281 -2.865,1.389c-1.172,0.13 -2.235,0.174 -3.212,0.174c-2.148,-0 -4.34,-0.13 -6.597,-0.434c-2.213,-0.347 -4.427,-0.608 -6.684,-0.781c-0.304,-0.109 -0.694,-0.174 -1.215,-0.174l-19.184,1.215l-3.646,0.434c-1.215,0.131 -2.43,0.326 -3.646,0.608c-1.215,0.13 -2.257,0.26 -3.125,0.434c-0.868,0.13 -1.779,0.304 -2.691,0.521c-0.13,1.519 -0.13,2.995 0,4.427c2.127,-0.217 4.297,-0.478 6.511,-0.781c2.257,-0.282 4.448,-0.543 6.597,-0.782l19.358,-0.607c2.3,0.13 4.557,0.347 6.77,0.694c2.257,0.347 4.362,0.781 6.337,1.302c2.604,0.521 5.057,1.953 7.379,4.254c2.365,2.257 3.559,4.817 3.559,7.639c-0,1.909 -0.738,3.862 -2.17,5.816c-1.389,1.909 -3.364,2.821 -5.903,2.691l-13.716,-0.782c-6.488,-0.173 -12.825,0.044 -19.01,0.608l-14.496,2.17c-0.131,0 -0.326,0.087 -0.608,0.261c-0.304,0.13 -0.434,0.303 -0.434,0.52l-0,1.042c-0,0.412 0.022,0.825 0.087,1.215c0.108,0.413 0.173,0.825 0.173,1.216l0.782,-0l17.968,-2.257l15.973,-0.608c2.647,-0.217 5.685,0.087 9.114,0.955c3.472,0.868 6.185,2.17 8.16,3.906c1.497,1.389 2.474,2.583 2.951,3.559c0.456,0.998 0.695,2.496 0.695,4.514c-0,2.322 -1.129,4.145 -3.386,5.469c-1.345,0.694 -2.864,1.041 -4.6,1.041c-1.693,0 -3.256,0.217 -4.688,0.608l-17.795,0.347l-18.576,1.65c-0.934,0.13 -1.823,0.26 -2.691,0.434c-0.869,0.13 -1.715,0.325 -2.518,0.607c0.109,0.76 0.174,1.541 0.174,2.344c-0,0.825 0.087,1.714 0.26,2.691l1.129,0l19.618,-2.083c4.275,-0.391 7.747,-0.608 10.416,-0.608c2.713,0 5.404,0.13 8.073,0.347c2.713,0.174 6.098,0.413 10.157,0.695c2.712,0.13 5.338,1.562 7.899,4.34c2.539,2.778 3.819,5.512 3.819,8.16c0,1.345 -0.303,2.756 -0.868,4.253c-0.521,1.519 -1.302,2.583 -2.343,3.212c-0.934,0.586 -2.062,1.107 -3.386,1.562c-1.28,0.478 -2.17,0.695 -2.691,0.695l-1.215,-0c-0.521,-0 -1.736,-0.087 -3.646,-0.26l-13.108,-0.608l-17.968,-0.174c-7.249,-0.217 -14.497,0.326 -21.789,1.65c0.109,0.13 0.196,0.303 0.261,0.52c0.108,0.174 0.217,0.413 0.347,0.695c0.695,1.345 1.563,2.561 2.604,3.646l1.65,-0l19.791,-1.042l6.077,0l15.538,0.781c6.532,0.174 12.239,2.604 17.1,7.292c1.498,1.345 2.518,2.843 3.039,4.514c0.521,1.693 0.781,3.472 0.781,5.382c-0,2.148 -0.326,3.798 -0.955,4.948c-0.586,1.172 -1.606,2.343 -3.038,3.559c-1.628,1.345 -3.255,1.996 -4.861,1.996l-1.042,0c-0.412,0 -0.933,-0.087 -1.562,-0.26c-0.825,-0.109 -1.563,-0.174 -2.257,-0.174l-2.17,0c-0.695,0 -1.715,0.087 -3.039,0.261c-1.345,0.13 -1.996,0.325 -1.996,0.607c-0,0.239 0.781,1.129 2.344,2.691c1.605,1.563 3.255,3.169 4.947,4.775c1.671,1.562 2.713,2.56 3.125,2.951c2.019,1.91 3.603,4.427 4.775,7.552c1.15,3.082 1.736,5.946 1.736,8.594c-0,1.909 -0.347,4.08 -1.042,6.51c-0.651,2.431 -1.866,4.21 -3.646,5.382c-1.736,1.085 -3.776,1.91 -6.076,2.431c-2.257,0.564 -4.405,0.868 -6.424,0.868c-1.736,-0 -3.776,-0.261 -6.076,-0.782c-2.257,-0.477 -4.21,-1.215 -5.816,-2.256c-1.107,-0.825 -2.344,-2.409 -3.733,-4.775c-1.389,-2.387 -2.3,-4.232 -2.691,-5.555l-4.861,-16.32c-0.824,-1.736 -1.736,-3.732 -2.777,-5.989c-0.999,-2.301 -1.888,-3.95 -2.691,-4.948c-0.825,-1.042 -1.737,-1.563 -2.778,-1.563c-4.753,0 -7.9,0.152 -9.462,0.434c-1.519,0.239 -2.257,1.172 -2.257,2.778c0,0.412 0.022,0.846 0.087,1.302c0.043,0.478 0.13,1.042 0.26,1.736l0.434,20.573c0,0.521 -0.043,0.998 -0.087,1.476c-0.065,0.521 -0.043,1.042 0.087,1.562c-0.824,2.952 -1.627,5.295 -2.43,7.032c-0.825,1.736 -2.648,3.494 -5.469,5.295c-1.866,1.041 -3.733,1.909 -5.642,2.604c-1.867,0.694 -3.885,1.042 -6.077,1.042c-3.472,-0 -7.096,-0.261 -10.85,-0.782c-3.777,-0.477 -7.27,-1.367 -10.504,-2.691l-0.608,0l-23.437,-8.854c-2.257,-0.998 -4.601,-1.823 -7.031,-2.517c-2.431,-0.651 -4.927,-1.215 -7.466,-1.736c-0.412,0.521 -0.824,1.15 -1.215,1.909c-0.412,0.738 -0.825,1.433 -1.215,2.084c-1.736,2.712 -4.167,4.687 -7.292,5.903c-3.081,1.215 -6.163,1.822 -9.288,1.822c-2.387,0 -4.753,-0.607 -7.118,-1.822c-2.387,-1.216 -4.34,-2.778 -5.903,-4.688c-1.519,-1.866 -2.257,-3.733 -2.257,-5.642l0,-3.039c0,-1.432 0.109,-2.473 0.347,-3.125c0.283,-0.694 1.237,-2.256 2.865,-4.687c0.629,-0.977 1.15,-2.04 1.562,-3.212c0.391,-1.215 0.803,-2.517 1.216,-3.906c-2.778,-2.018 -5.426,-4.275 -7.9,-6.771c-2.495,-2.474 -3.732,-5.599 -3.732,-9.375c-0,-1.736 0.542,-2.951 1.649,-3.646c1.15,-0.738 2.474,-1.128 3.993,-1.128l3.212,-0c1.215,-0 2.452,-0.044 3.733,-0.174c1.258,-0.173 2.365,-0.521 3.298,-1.041Zm58.507,18.75l-5.208,0.607l-1.997,0.174l-13.715,1.649c-1.801,0.13 -3.255,0.26 -4.34,0.434c-1.042,0.13 -1.888,0.239 -2.518,0.347c-1.106,0.131 -1.823,0.586 -2.17,1.389c-0.347,0.825 -0.781,2.387 -1.302,4.688c-0.13,0.824 -0.477,1.692 -1.041,2.604l-0,0.434c-0,0.239 0.347,0.412 1.041,0.521c0.695,0.065 1.346,0.087 1.997,0.087l2.864,-0c3.646,0.412 7.314,0.781 11.025,1.128c3.689,0.304 7.421,0.391 11.198,0.26l1.388,0c1.498,0 2.388,-0.803 2.691,-2.43c0.348,-1.606 0.521,-3.494 0.521,-5.642l0,-4.428c0,-0.39 -0.152,-0.998 -0.434,-1.822Zm-36.892,-27.865c0.282,0.521 0.911,1.541 1.91,3.038c1.041,1.454 1.757,2.17 2.17,2.17c1.041,0 2.343,-0.087 3.906,-0.26c1.562,-0.217 2.865,-0.391 3.906,-0.521l22.83,-3.819l0.608,-0.434c-0.131,-0.912 -0.326,-1.845 -0.608,-2.778c-0.304,-0.977 -0.651,-1.932 -1.042,-2.865c-1.215,0.13 -2.408,0.239 -3.559,0.347c-1.106,0.065 -2.257,0.217 -3.472,0.434l-18.576,3.039c-1.346,0.173 -2.691,0.412 -4.08,0.694c-1.346,0.239 -2.669,0.564 -3.993,0.955Zm4.08,-42.969c0.521,0.13 0.998,0.217 1.475,0.261c0.456,0.065 0.955,0.086 1.476,0.086c0.977,0 2.865,-0.26 5.642,-0.781c2.822,-0.521 5.947,-1.172 9.375,-1.996c3.473,-0.803 6.619,-1.519 9.462,-2.171c2.821,-0.694 4.709,-1.237 5.643,-1.649c-0.174,-0.976 -0.261,-1.931 -0.261,-2.864l0,-2.431l-2.778,0.434l-19.01,4.254c-0.933,0.13 -1.866,0.303 -2.778,0.52c-0.933,0.174 -1.953,0.326 -3.038,0.434l-2.865,0.434c-0.933,0.131 -1.801,0.326 -2.604,0.608l0,1.042l0.261,3.819Zm-2.431,-30.295c0.629,1.346 1.15,2.734 1.563,4.167c0.39,1.389 0.803,2.843 1.215,4.34l20.399,-6.51c2.018,-0.63 4.08,-1.151 6.163,-1.563c2.084,-0.391 4.124,-1.085 6.164,-2.083l-0,-1.823c-0,-0.391 -0.152,-0.868 -0.434,-1.389l-0.174,-0.347c-0.694,0.238 -1.389,0.434 -2.083,0.607c-0.651,0.131 -1.433,0.304 -2.344,0.521l-17.014,3.299l-13.455,0.781Zm3.559,53.906l3.472,0c0.912,0 1.823,-0.021 2.691,-0.087c0.868,-0.108 1.693,-0.217 2.518,-0.347l19.184,-4.427c0.694,-0.108 1.302,-0.195 1.823,-0.26c0.564,-0.109 1.128,-0.282 1.649,-0.521c0.217,-0.695 0.391,-1.411 0.521,-2.17c0.173,-0.738 0.26,-1.433 0.26,-2.084c0,-0.282 -0.087,-0.629 -0.26,-1.041c-0.13,-0.391 -0.239,-0.651 -0.347,-0.781l-2.171,0.607l-15.538,3.82c-2.213,0.52 -4.579,0.868 -7.118,1.041c-2.561,0.13 -4.991,0.239 -7.291,0.348c-0,0.585 0.021,1.085 0.086,1.475c0.109,0.413 0.217,0.868 0.348,1.389c0.108,0.521 0.173,0.998 0.173,1.389l0,1.649Z" style="fill-rule:nonzero;"/></g></g></g></svg>