<?xml version="1.0" encoding="UTF-8" standalone="no"?><!DOCTYPE svg PUBLIC "-//W3C//DTD SVG 1.1//EN" "http://www.w3.org/Graphics/SVG/1.1/DTD/svg11.dtd"><svg width="100%" height="100%" viewBox="0 0 5692 384" version="1.1" xmlns="http://www.w3.org/2000/svg" xmlns:xlink="http://www.w3.org/1999/xlink" xml:space="preserve" xmlns:serif="http://www.serif.com/" style="fill-rule:evenodd;clip-rule:evenodd;stroke-linejoin:round;stroke-miterlimit:2;"><g><clipPath id="_clip1"><rect x="303.494" y="62.912" width="249.891" height="295.595"/></clipPath><g clip-path="url(#_clip1)"><path d="M780.078,63.433c0,0 -728.125,-0.022 -728.233,-0.022c0.108,7.162 1.974,98.85 1.909,106.793c-0.152,21.897 -1.888,48.589 -2.994,70.464c-0.5,9.831 -8.312,93.23 -15.105,103.668c0.022,-0.022 125.868,15.885 249.067,7.509c2.908,-16.949 9.05,-34.289 11.502,-51.281c2.713,-19.466 6.272,-36.849 6.619,-56.467c0.564,-32.313 -1.129,-58.941 -1.15,-93.099c-0,-1.758 2.56,-1.909 2.756,-0.173c3.928,33.29 4.969,24.869 8.051,85.85c1.801,36.003 -2.843,77.127 -4.687,113.412c121.093,14.453 140.082,12.717 248.546,-3.19c-3.711,-36.155 -3.494,-69.336 -3.473,-105.512c0.109,-50.695 -2.278,-56.598 -0.564,-96.29c0.087,-1.801 1.215,-1.779 1.324,0.022c2.192,35.33 2.018,60.916 6.467,93.446c2.582,19.445 3.602,40.69 6.836,59.983c2.908,16.992 12.022,47.157 12.087,47.157c106.88,0 112.566,4.514 219.445,4.514c-7.747,-17.144 -14.735,-125.347 -15.126,-134.809c-0.282,-6.293 -3.798,-131.662 -3.277,-151.975" style="fill:#c40000;fill-rule:nonzero;"/></g></g><g><clipPath id="_clip2"><rect x="303.494" y="38.346" width="249.891" height="11.328"/></clipPath><g clip-path="url(#_clip2)"><path d="M836.892,49.371l-841.948,-0l-0,-9.701l841.948,0l0,9.701" style="fill:#d4983d;fill-rule:nonzero;"/></g></g><g><clipPath id="_clip3"><rect x="303.494" y="26.997" width="249.891" height="14.67"/></clipPath><g clip-path="url(#_clip3)"><path d="M836.892,41.515l-841.948,-0l-0,-13.13l841.948,0l0,13.13" style="fill:#d4983d;fill-rule:nonzero;"/></g></g><g><clipPath id="_clip4"><rect x="303.494" y="21.159" width="24.284" height="53.841"/></clipPath><g clip-path="url(#_clip4)"><path d="M323.155,72.374l-42.838,0l-0,-51.042l42.838,0l0,51.042" style="fill:#c40000;fill-rule:nonzero;"/></g></g><g><path d="M551.541,72.374l-42.839,0l0,-51.042l42.839,0l-0,51.042" style="fill:#c40000;fill-rule:nonzero;"/></g><g><path d="M548.893,68.294l-37.695,0l-0,-46.962l37.695,0l0,46.962" style="fill:#c40000;fill-rule:nonzero;"/></g><g><clipPath id="_clip5"><rect x="303.494" y="21.159" width="18.728" height="48.286"/></clipPath><g clip-path="url(#_clip5)"><path d="M320.486,68.294l-37.695,0l-0,-46.962l37.695,0l0,46.962" style="fill:#c40000;fill-rule:nonzero;"/></g></g><g><clipPath id="_clip6"><rect x="1037.89" y="62.912" width="245.443" height="295.595"/></clipPath><g clip-path="url(#_clip6)"><path d="M1264.65,63.433c0,0 -728.125,-0.022 -728.233,-0.022c0.108,7.162 1.975,98.85 1.91,106.793c-0.152,21.897 -1.888,48.589 -2.995,70.464c-0.499,9.831 -8.312,93.23 -15.104,103.668c0.021,-0.022 125.868,15.885 249.067,7.509c2.908,-16.949 9.071,-34.289 11.501,-51.281c2.713,-19.466 6.272,-36.849 6.619,-56.467c0.564,-32.313 -1.128,-58.941 -1.15,-93.099c0,-1.758 2.561,-1.909 2.756,-0.173c3.928,33.29 4.991,24.869 8.051,85.85c1.802,36.003 -2.843,77.127 -4.687,113.412c121.094,14.453 140.104,12.717 248.546,-3.19c-3.711,-36.155 -3.494,-69.336 -3.472,-105.512c0.13,-50.695 -2.279,-56.598 -0.565,-96.29c0.087,-1.801 1.216,-1.779 1.346,0.022c2.17,35.33 1.996,60.916 6.467,93.446c2.561,19.445 3.581,40.69 6.814,59.983c2.908,16.992 12.023,47.157 12.088,47.157c106.879,0 112.565,4.514 219.444,4.514c-7.747,-17.144 -14.713,-125.347 -15.126,-134.809c-0.282,-6.293 -3.797,-131.662 -3.277,-151.975" style="fill:#c40000;fill-rule:nonzero;"/></g></g><g><clipPath id="_clip7"><rect x="1037.89" y="38.346" width="282.899" height="11.328"/></clipPath><g clip-path="url(#_clip7)"><path d="M1321.48,49.371l-841.948,-0l-0,-9.701l841.948,0l0,9.701" style="fill:#d4983d;fill-rule:nonzero;"/></g></g><g><clipPath id="_clip8"><rect x="1037.89" y="26.997" width="282.899" height="14.67"/></clipPath><g clip-path="url(#_clip8)"><path d="M1321.48,41.515l-841.948,-0l-0,-13.13l841.948,0l0,13.13" style="fill:#d4983d;fill-rule:nonzero;"/></g></g><g><path d="M1264.52,72.374l-42.838,0l-0,-51.042l42.838,0l0,51.042" style="fill:#c40000;fill-rule:nonzero;"/></g><g><path d="M1261.89,68.294l-37.717,0l0,-46.962l37.717,0l0,46.962" style="fill:#c40000;fill-rule:nonzero;"/></g><g><clipPath id="_clip9"><rect x="39.692" y="62.912" width="268.49" height="295.595"/></clipPath><g clip-path="url(#_clip9)"><path d="M785.135,63.433c-0,0 -728.147,-0.022 -728.256,-0.022c0.109,7.162 1.997,98.85 1.932,106.793c-0.152,21.897 -1.91,48.589 -3.017,70.464c-0.499,9.831 -8.29,93.23 -15.082,103.668c-0,-0.022 125.846,15.885 249.067,7.509c2.886,-16.949 9.049,-34.289 11.501,-51.281c2.691,-19.466 6.25,-36.849 6.598,-56.467c0.586,-32.313 -1.107,-58.941 -1.129,-93.099c0,-1.758 2.539,-1.909 2.756,-0.173c3.928,33.29 4.97,24.869 8.051,85.85c1.802,36.003 -2.842,77.127 -4.709,113.412c121.116,14.453 140.104,12.717 248.546,-3.19c-3.689,-36.155 -3.494,-69.336 -3.45,-105.512c0.108,-50.695 -2.279,-56.598 -0.565,-96.29c0.066,-1.801 1.216,-1.779 1.324,0.022c2.17,35.33 2.018,60.916 6.467,93.446c2.561,19.445 3.581,40.69 6.836,59.983c2.886,16.992 12.001,47.157 12.088,47.157c106.879,0 112.543,4.514 219.423,4.514c-7.726,-17.144 -14.714,-125.347 -15.126,-134.809c-0.261,-6.293 -3.798,-131.662 -3.255,-151.975" style="fill:#c40000;fill-rule:nonzero;"/></g></g><g><clipPath id="_clip10"><rect x="0" y="38.346" width="308.181" height="11.328"/></clipPath><g clip-path="url(#_clip10)"><path d="M841.949,49.371l-841.949,-0l0,-9.701l841.949,0l-0,9.701" style="fill:#d4983d;fill-rule:nonzero;"/></g></g><g><clipPath id="_clip11"><rect x="0" y="26.997" width="308.181" height="14.67"/></clipPath><g clip-path="url(#_clip11)"><path d="M841.949,41.515l-841.949,-0l0,-13.13l841.949,0l-0,13.13" style="fill:#d4983d;fill-rule:nonzero;"/></g></g><g><path d="M99.805,72.374l-42.839,0l0,-51.042l42.839,0l-0,51.042" style="fill:#c40000;fill-rule:nonzero;"/></g><g><clipPath id="_clip12"><rect x="283.333" y="21.159" width="24.848" height="53.841"/></clipPath><g clip-path="url(#_clip12)"><path d="M328.19,72.374l-42.838,0l-0,-51.042l42.838,0l0,51.042" style="fill:#c40000;fill-rule:nonzero;"/></g></g><g><path d="M97.135,68.294l-37.695,0l0,-46.962l37.695,0l0,46.962" style="fill:#c40000;fill-rule:nonzero;"/></g><g><clipPath id="_clip13"><rect x="283.333" y="21.159" width="24.848" height="48.286"/></clipPath><g clip-path="url(#_clip13)"><path d="M325.543,68.294l-37.696,0l0,-46.962l37.696,0l-0,46.962" style="fill:#c40000;fill-rule:nonzero;"/></g></g><g><clipPath id="_clip14"><rect x="547.266" y="62.912" width="249.87" height="295.595"/></clipPath><g clip-path="url(#_clip14)"><path d="M1023.85,63.433c-0,0 -728.125,-0.022 -728.234,-0.022c0.109,7.162 1.975,98.85 1.91,106.793c-0.152,21.897 -1.888,48.589 -3.016,70.464c-0.478,9.831 -8.29,93.23 -15.083,103.668c0.022,-0.022 125.846,15.885 249.067,7.509c2.908,-16.949 9.049,-34.289 11.502,-51.281c2.691,-19.466 6.271,-36.849 6.619,-56.467c0.564,-32.313 -1.129,-58.941 -1.151,-93.099c0,-1.758 2.539,-1.909 2.756,-0.173c3.928,33.29 4.97,24.869 8.052,85.85c1.801,36.003 -2.843,77.127 -4.709,113.412c121.115,14.453 140.104,12.717 248.567,-3.19c-3.711,-36.155 -3.494,-69.336 -3.472,-105.512c0.108,-50.695 -2.279,-56.598 -0.564,-96.29c0.065,-1.801 1.215,-1.779 1.324,0.022c2.191,35.33 2.018,60.916 6.467,93.446c2.56,19.445 3.602,40.69 6.835,59.983c2.908,16.992 12.023,47.157 12.088,47.157c106.88,0 112.565,4.514 219.445,4.514c-7.748,-17.144 -14.736,-125.347 -15.126,-134.809c-0.282,-6.293 -3.798,-131.662 -3.277,-151.975" style="fill:#c40000;fill-rule:nonzero;"/></g></g><g><clipPath id="_clip15"><rect x="547.266" y="38.346" width="249.87" height="11.328"/></clipPath><g clip-path="url(#_clip15)"><path d="M1080.66,49.371l-841.949,-0l0,-9.701l841.949,0l0,9.701" style="fill:#d4983d;fill-rule:nonzero;"/></g></g><g><clipPath id="_clip16"><rect x="547.266" y="26.997" width="249.87" height="14.67"/></clipPath><g clip-path="url(#_clip16)"><path d="M1080.66,41.515l-841.949,-0l0,-13.13l841.949,0l0,13.13" style="fill:#d4983d;fill-rule:nonzero;"/></g></g><g><clipPath id="_clip17"><rect x="547.266" y="21.159" width="24.957" height="53.841"/></clipPath><g clip-path="url(#_clip17)"><path d="M566.905,72.374l-42.816,0l-0,-51.042l42.816,0l0,51.042" style="fill:#c40000;fill-rule:nonzero;"/></g></g><g><path d="M795.313,72.374l-42.839,0l-0,-51.042l42.839,0l-0,51.042" style="fill:#c40000;fill-rule:nonzero;"/></g><g><path d="M792.665,68.294l-37.695,0l-0,-46.962l37.695,0l-0,46.962" style="fill:#c40000;fill-rule:nonzero;"/></g><g><clipPath id="_clip18"><rect x="547.266" y="21.159" width="19.401" height="48.286"/></clipPath><g clip-path="url(#_clip18)"><path d="M564.258,68.294l-37.696,0l0,-46.962l37.696,0l-0,46.962" style="fill:#c40000;fill-rule:nonzero;"/></g></g><g><clipPath id="_clip19"><rect x="791.037" y="62.912" width="249.87" height="295.595"/></clipPath><g clip-path="url(#_clip19)"><path d="M1267.62,63.433c-0,0 -728.147,-0.022 -728.234,-0.022c0.087,7.162 1.975,98.85 1.91,106.793c-0.152,21.897 -1.888,48.589 -3.017,70.464c-0.499,9.831 -8.29,93.23 -15.082,103.668c-0,-0.022 125.846,15.885 249.067,7.509c2.908,-16.949 9.049,-34.289 11.501,-51.281c2.691,-19.466 6.272,-36.849 6.619,-56.467c0.565,-32.313 -1.128,-58.941 -1.15,-93.099c0,-1.758 2.539,-1.909 2.756,-0.173c3.928,33.29 4.97,24.869 8.051,85.85c1.802,36.003 -2.842,77.127 -4.709,113.412c121.116,14.453 140.104,12.717 248.568,-3.19c-3.711,-36.155 -3.516,-69.336 -3.472,-105.512c0.108,-50.695 -2.279,-56.598 -0.565,-96.29c0.066,-1.801 1.216,-1.779 1.324,0.022c2.192,35.33 2.018,60.916 6.467,93.446c2.561,19.445 3.603,40.69 6.836,59.983c2.908,16.992 12.023,47.157 12.088,47.157c106.879,0 112.565,4.514 219.444,4.514c-7.747,-17.144 -14.735,-125.347 -15.147,-134.809c-0.261,-6.293 -3.776,-131.662 -3.255,-151.975" style="fill:#c40000;fill-rule:nonzero;"/></g></g><g><clipPath id="_clip20"><rect x="791.037" y="38.346" width="249.87" height="11.328"/></clipPath><g clip-path="url(#_clip20)"><path d="M1324.44,49.371l-841.949,-0l-0,-9.701l841.949,0l-0,9.701" style="fill:#d4983d;fill-rule:nonzero;"/></g></g><g><clipPath id="_clip21"><rect x="791.037" y="26.997" width="249.87" height="14.67"/></clipPath><g clip-path="url(#_clip21)"><path d="M1324.44,41.515l-841.949,-0l-0,-13.13l841.949,0l-0,13.13" style="fill:#d4983d;fill-rule:nonzero;"/></g></g><g><clipPath id="_clip22"><rect x="791.037" y="21.159" width="20.074" height="53.841"/></clipPath><g clip-path="url(#_clip22)"><path d="M810.677,72.374l-42.838,0l-0,-51.042l42.838,0l0,51.042" style="fill:#c40000;fill-rule:nonzero;"/></g></g><g><path d="M1039.08,72.374l-42.838,0l-0,-51.042l42.838,0l0,51.042" style="fill:#c40000;fill-rule:nonzero;"/></g><g><path d="M1036.44,68.294l-37.696,0l0,-46.962l37.696,0l-0,46.962" style="fill:#c40000;fill-rule:nonzero;"/></g><g><clipPath id="_clip23"><rect x="791.037" y="21.159" width="20.074" height="48.286"/></clipPath><g clip-path="url(#_clip23)"><path d="M808.03,68.294l-37.696,0l0,-46.962l37.696,0l-0,46.962" style="fill:#c40000;fill-rule:nonzero;"/></g></g><g><clipPath id="_clip24"><rect x="95.768" y="21.159" width="20.812" height="66.645"/></clipPath><g clip-path="url(#_clip24)"><rect x="97.244" y="-129.579" width="217.773" height="217.773" style="fill:#c40000;fill-rule:nonzero;"/><path d="M315.017,89.67l-217.773,0c-0.825,0 -1.476,-0.651 -1.476,-1.476l0,-217.773c0,-0.825 0.651,-1.476 1.476,-1.476l217.773,0c0.825,0 1.476,0.651 1.476,1.476l0,217.773c0,0.825 -0.651,1.476 -1.476,1.476Zm-216.319,-2.93l214.844,0l-0,-214.843l-214.844,-0l-0,214.843Z" style="fill:#c40000;fill-rule:nonzero;"/></g></g><g><clipPath id="_clip25"><rect x="318.012" y="21.159" width="20.812" height="66.645"/></clipPath><g clip-path="url(#_clip25)"><rect x="319.466" y="-129.579" width="217.795" height="217.773" style="fill:#c40000;fill-rule:nonzero;"/><path d="M537.261,89.67l-217.795,0c-0.825,0 -1.454,-0.651 -1.454,-1.476l0,-217.773c0,-0.825 0.629,-1.476 1.454,-1.476l217.795,0c0.825,0 1.476,0.651 1.476,1.476l-0,217.773c-0,0.825 -0.651,1.476 -1.476,1.476Zm-216.319,-2.93l214.844,0l-0,-214.843l-214.844,-0l-0,214.843Z" style="fill:#c40000;fill-rule:nonzero;"/></g></g><g><clipPath id="_clip26"><rect x="1034.25" y="21.159" width="20.833" height="66.645"/></clipPath><g clip-path="url(#_clip26)"><rect x="1035.72" y="-129.579" width="217.795" height="217.773" style="fill:#c40000;fill-rule:nonzero;"/><path d="M1253.52,89.67l-217.796,0c-0.824,0 -1.475,-0.651 -1.475,-1.476l-0,-217.773c-0,-0.825 0.651,-1.476 1.475,-1.476l217.796,0c0.824,0 1.454,0.651 1.454,1.476l-0,217.773c-0,0.825 -0.63,1.476 -1.454,1.476Zm-216.32,-2.93l214.844,0l-0,-214.843l-214.844,-0l0,214.843Z" style="fill:#c40000;fill-rule:nonzero;"/></g></g><g><clipPath id="_clip27"><rect x="1203.21" y="21.159" width="20.833" height="66.645"/></clipPath><g clip-path="url(#_clip27)"><rect x="1204.69" y="-129.579" width="217.795" height="217.773" style="fill:#c40000;fill-rule:nonzero;"/><path d="M1422.48,89.67l-217.795,0c-0.825,0 -1.476,-0.651 -1.476,-1.476l-0,-217.773c-0,-0.825 0.651,-1.476 1.476,-1.476l217.795,0c0.824,0 1.454,0.651 1.454,1.476l-0,217.773c-0,0.825 -0.63,1.476 -1.454,1.476Zm-216.32,-2.93l214.844,0l-0,-214.843l-214.844,-0l0,214.843Z" style="fill:#c40000;fill-rule:nonzero;"/></g></g><g><path d="M272.331,162.782c-0,0 -0.022,-0.022 -0.044,-0.043c-1.193,-2.344 -2.908,-4.189 -5.165,-5.534c-2.235,-1.367 -4.665,-2.04 -7.291,-2.04l-59.744,-0l-0,-4.688l65.191,0l-5.035,-6.184c-4.861,-5.99 -10.308,-11.372 -16.384,-16.125c-6.055,-4.774 -12.566,-8.81 -19.532,-12.109c-6.966,-3.299 -14.192,-5.816 -21.723,-7.487c-7.53,-1.693 -15.126,-2.539 -22.851,-2.517c-57.249,-0 -103.82,46.571 -103.82,103.819c0,9.288 1.215,18.403 3.646,27.344c0.26,1.02 0.868,1.779 1.78,2.3c0.911,0.521 1.866,0.651 2.886,0.369c0.998,-0.26 1.779,-0.868 2.278,-1.779c0.521,-0.912 0.651,-1.867 0.369,-2.887c-2.257,-8.29 -3.385,-16.731 -3.385,-25.347c-0,-53.06 43.186,-96.246 96.246,-96.246c11.979,-0.021 23.546,2.127 34.722,6.446c11.154,4.318 21.18,10.503 30.013,18.576c1.519,1.367 -110.048,8.572 -110.048,8.572l0,3.255l24.631,0l0,4.688l-24.631,-0l0,3.255c0,0 10.07,-0.13 24.631,0.044l0,19.878c0,30.425 -24.761,55.165 -55.186,55.165c-0.76,-0.022 -1.411,0.239 -1.954,0.781c-0.564,0.521 -0.824,1.172 -0.824,1.932c-0,0.759 0.26,1.41 0.824,1.953c0.543,0.521 1.194,0.781 1.954,0.759c8.116,0 15.928,-1.562 23.415,-4.709c-0.911,0.846 -1.15,1.823 -0.694,2.973c0.434,1.15 1.28,1.736 2.517,1.736c22.765,0 41.298,-27.192 41.298,-60.59l0,-19.683l0.499,0.022l0,19.661c0,31.576 -8.746,55.165 -16.58,55.165c-0.738,0.022 -1.345,0.304 -1.866,0.825c-0.521,0.52 -0.76,1.15 -0.76,1.888c0,0.737 0.239,1.367 0.76,1.888c0.521,0.542 1.128,0.803 1.866,0.824c14.301,0 22.005,-31.206 22.005,-60.59l0,-19.531l0.521,-0l0,77.409c0,0.759 0.261,1.389 0.782,1.931c0.542,0.521 1.171,0.781 1.931,0.781c0.738,0 1.367,-0.26 1.91,-0.781c0.521,-0.542 0.781,-1.172 0.781,-1.931l-0,-77.236l0.521,0.022l-0,19.336c-0,29.384 7.704,60.59 22.005,60.59c0.738,-0.021 1.345,-0.282 1.866,-0.824c0.521,-0.521 0.76,-1.151 0.76,-1.888c-0,-0.738 -0.239,-1.368 -0.76,-1.888c-0.521,-0.521 -1.128,-0.803 -1.866,-0.825c-7.834,-0 -16.58,-23.589 -16.58,-55.165l0,-19.162l0.499,0.021l0,19.141c0,33.42 18.533,60.59 41.298,60.59c1.237,0.022 2.083,-0.564 2.539,-1.714c0.456,-1.15 0.217,-2.149 -0.694,-2.995c7.487,3.147 15.277,4.709 23.394,4.709c0.759,0.022 1.41,-0.238 1.953,-0.759c0.564,-0.543 0.825,-1.194 0.825,-1.953c-0,-0.76 -0.261,-1.411 -0.825,-1.932c-0.543,-0.542 -1.194,-0.803 -1.953,-0.781c-30.426,-0 -55.187,-24.74 -55.187,-55.165l0,-18.62c26.085,1.324 52.083,3.993 61.415,9.223c12.782,7.14 14.54,26.15 14.54,40.929c-0,4.926 -0.369,9.787 -1.107,14.649c-0.738,4.861 -1.844,9.635 -3.32,14.322c-1.476,4.666 -3.277,9.224 -5.447,13.629c-2.17,4.405 -4.666,8.615 -7.487,12.63c-2.821,4.037 -5.925,7.813 -9.31,11.372c-3.407,3.537 -7.053,6.814 -10.938,9.787c-3.906,2.995 -8.007,5.664 -12.304,8.03c-4.319,2.365 -8.768,4.362 -13.39,6.054l-0.043,0c-1.65,0.586 -2.995,1.628 -4.015,3.082c-1.02,1.454 -1.541,3.06 -1.541,4.839l0,2.018c0,0.89 -0.304,1.65 -0.955,2.301c-0.629,0.629 -1.389,0.955 -2.3,0.955l-48.199,-0c-0.911,-0 -1.671,-0.326 -2.3,-0.955c-0.651,-0.651 -0.955,-1.411 -0.955,-2.301l-0,-2.018c-0,-1.779 -0.521,-3.385 -1.541,-4.839c-1.02,-1.454 -2.365,-2.474 -4.015,-3.082l-0.065,-0.021c-11.285,-4.08 -21.441,-10.07 -30.469,-17.991c-9.027,-7.899 -16.297,-17.166 -21.853,-27.821c-1.128,-2.149 0.478,-4.731 2.908,-4.731l162.565,-0c0.564,-0 1.107,-0.109 1.628,-0.369c0.521,-0.239 0.955,-0.586 1.324,-1.042c0.347,-0.434 0.607,-0.933 0.737,-1.497c0.131,-0.564 0.131,-1.107 0.022,-1.671c-0.369,-1.78 -2.018,-2.995 -3.819,-2.995l-163.737,0c-7.487,0 -12.348,7.878 -8.985,14.562l0.044,0.087c5.816,11.523 13.498,21.593 23.09,30.23c9.592,8.615 20.399,15.234 32.465,19.813c1.389,0.521 2.105,1.541 2.105,3.038l0,1.411c0,1.302 0.261,2.539 0.738,3.732c0.499,1.216 1.215,2.257 2.127,3.169c0.911,0.933 1.953,1.627 3.168,2.127c1.194,0.499 2.431,0.737 3.733,0.737l50.369,0c1.302,0 2.539,-0.238 3.733,-0.737c1.193,-0.5 2.257,-1.194 3.168,-2.127c0.911,-0.912 1.606,-1.953 2.105,-3.147c0.499,-1.193 0.738,-2.452 0.738,-3.732l-0,-1.433c0.022,-1.497 0.716,-2.517 2.127,-3.038c3.385,-1.302 6.705,-2.778 9.939,-4.427c3.233,-1.649 6.38,-3.451 9.418,-5.425c3.06,-1.975 5.99,-4.102 8.811,-6.381c2.821,-2.278 5.534,-4.709 8.095,-7.27c2.56,-2.56 4.991,-5.251 7.291,-8.072c2.279,-2.822 4.406,-5.751 6.402,-8.79c1.975,-3.038 3.798,-6.184 5.447,-9.418c1.65,-3.233 3.125,-6.532 4.427,-9.917c1.302,-3.386 2.431,-6.836 3.364,-10.352c0.955,-3.494 1.714,-7.053 2.279,-10.634c0.586,-3.58 0.955,-7.183 1.15,-10.807c0.195,-3.624 0.195,-7.248 0.022,-10.872c-0.196,-3.625 -0.565,-7.227 -1.129,-10.829c-0.564,-3.581 -1.324,-7.118 -2.257,-10.634c-0.933,-3.494 -2.04,-6.945 -3.342,-10.352c-1.302,-3.385 -2.778,-6.684 -4.405,-9.939Zm-77.67,-7.617l-0.52,-0l-0,-4.688l0.52,0l0,4.688Zm-30.164,-4.688l0.499,0l-0,4.688l-0.499,-0l-0,-4.688Zm0.499,27.865c-0,30.425 -16.081,55.165 -35.873,55.165c-0.065,-0 -0.152,-0 -0.217,0.022c20.964,-9.549 35.591,-30.708 35.591,-55.187l-0,-19.792l0.499,0l-0,19.792Zm5.425,-23.177l0,-4.688l0.521,0l-0,4.688l-0.521,-0Zm5.924,-0l0,-4.688l0.521,0l0,4.688l-0.521,-0Zm5.947,-0l-0,-4.688l0.499,0l-0,4.688l-0.499,-0Zm5.924,-0l0,-4.688l0.521,0l-0,4.688l-0.521,-0Zm42.036,78.364c-0.087,-0 -0.152,-0.022 -0.217,-0.022c-19.792,-0 -35.894,-24.74 -35.894,-55.165l-0,-18.924l0.52,0.044l0,18.88c0,24.479 14.605,45.638 35.591,55.187Z" style="fill-rule:nonzero;"/></g><g><rect x="1264.8" y="28.038" width="4424.09" height="22.439" style="fill:#d4983d;fill-rule:nonzero;"/></g><g><g><g><path d="M341.82,238.192c-0.173,-1.215 -0.26,-2.018 -0.26,-2.43l0,-0.608c0,-1.085 0.195,-2.105 0.608,-3.038c0.564,-1.085 1.345,-2.018 2.343,-2.778c1.042,-0.803 2.127,-1.215 3.299,-1.215c0.977,-0 1.997,0.173 3.038,0.521c1.085,0.303 2.908,1.041 5.469,2.257c1.497,-0.803 3.06,-1.476 4.687,-1.997c0.803,-0.282 1.585,-0.564 2.344,-0.868c0.803,-0.347 1.606,-0.716 2.431,-1.128c-0.13,-0.391 -0.391,-1.151 -0.782,-2.257c-0.412,-1.085 -0.868,-1.65 -1.388,-1.65c-0.413,0 -0.934,0.087 -1.563,0.261c-0.586,0.13 -1.085,0.238 -1.476,0.347c-2.04,0.412 -4.513,0.608 -7.465,0.608c-3.537,-0 -6.684,-0.651 -9.462,-1.997c-2.734,-1.324 -5.295,-3.255 -7.725,-5.816c-0.825,-0.803 -1.541,-1.693 -2.171,-2.691c-0.585,-1.042 -0.868,-2.17 -0.868,-3.385c0,-1.91 0.456,-3.386 1.389,-4.427c0.977,-1.085 1.932,-1.758 2.865,-1.997c0.976,-0.282 1.953,-0.608 2.951,-0.955c0.977,-0.347 1.953,-0.629 2.952,-0.868c0.629,-0.282 1.237,-0.542 1.823,-0.781c0.629,-0.282 0.954,-0.521 0.954,-0.695c0,-0.39 -0.672,-1.237 -1.996,-2.517c-1.346,-1.259 -2.3,-2.105 -2.865,-2.517c-1.562,-1.216 -3.168,-3.169 -4.774,-5.903c-1.628,-2.778 -2.431,-5.23 -2.431,-7.379c0,-3.342 0.825,-6.076 2.518,-8.159c1.671,-2.084 3.993,-3.668 6.944,-4.775c-2.669,-1.909 -4.904,-3.602 -6.684,-5.121c-1.736,-1.563 -2.604,-3.407 -2.604,-5.556c0,-1.497 0.434,-2.712 1.302,-3.645c0.868,-0.912 2.04,-1.997 3.559,-3.212c1.042,-0.977 2.192,-1.823 3.472,-2.518c1.324,-0.737 2.648,-1.475 3.993,-2.17c1.737,-0.803 3.581,-1.606 5.556,-2.43c1.953,-0.803 3.472,-1.476 4.514,-1.997c-1.215,-0.911 -2.257,-1.693 -3.125,-2.344c-0.868,-0.694 -1.866,-1.519 -2.951,-2.517c-0.651,-0.629 -1.281,-1.411 -1.91,-2.344c-0.586,-0.976 -0.868,-1.931 -0.868,-2.864c-0,-1.085 0.434,-2.257 1.302,-3.473c0.868,-1.215 2.17,-2.734 3.906,-4.6c1.91,-2.018 4.709,-3.472 8.42,-4.34c3.689,-0.869 6.814,-1.303 9.375,-1.303c3.342,0 6.901,0.565 10.677,1.65c3.755,1.041 6.706,2.235 8.854,3.559c0.695,0.412 1.672,1.02 2.952,1.823c1.259,0.824 2.192,1.215 2.778,1.215c0.911,-0 2.257,-0.195 3.993,-0.608c1.497,-0.282 3.125,-0.542 4.861,-0.781c1.736,-0.282 3.342,-0.434 4.861,-0.434c5.078,0 10.178,0.998 15.278,2.951c5.143,1.975 8.854,5.165 11.111,9.549c0.39,0.825 0.694,1.975 0.868,3.472c0.217,1.454 0.347,2.735 0.347,3.82c-0.651,3.255 -1.866,5.534 -3.646,6.857c-1.736,1.346 -3.884,2.149 -6.423,2.431c-2.431,0.13 -5.469,0.325 -9.115,0.608l-0.955,-0.174l1.389,1.562c3.646,1.628 6.945,4.471 9.896,8.507c0.911,-0.694 1.779,-1.389 2.604,-2.083c0.803,-0.738 1.606,-1.519 2.431,-2.344c2.126,-2.192 5.056,-4.362 8.767,-6.51c3.689,-2.127 7.596,-3.928 11.719,-5.382c4.101,-1.497 7.769,-2.257 11.024,-2.257l-0.26,-0.608c-0.933,-1.215 -2.04,-2.191 -3.299,-2.951c-1.28,-0.738 -2.669,-1.519 -4.167,-2.344c-1.345,-0.629 -2.387,-1.844 -3.125,-3.646c-0.759,-1.844 -1.128,-3.428 -1.128,-4.774c-0,-1.497 0.608,-2.886 1.823,-4.167c1.215,-1.258 2.365,-2.17 3.472,-2.691c2.127,-1.215 4.688,-2.105 7.639,-2.691c2.951,-0.629 5.642,-0.954 8.073,-0.954c6.988,-0 12.956,0.672 17.882,1.996c4.904,1.346 10.199,4.167 15.885,8.507c3.06,2.257 5.599,4.948 7.639,8.073c2.018,3.082 3.038,6.641 3.038,10.677c0,2.149 -0.672,3.971 -1.996,5.469c-0.998,0.933 -1.953,1.779 -2.865,2.517c-0.933,0.76 -1.953,1.346 -3.038,1.736c-2.257,0.825 -4.688,1.476 -7.292,1.997c-2.56,0.521 -5.099,0.781 -7.639,0.781l-15.104,0.26c-2.213,0 -5.36,0.413 -9.462,1.216c-4.058,0.759 -8.051,1.736 -11.979,2.951c-3.884,1.215 -6.771,2.518 -8.68,3.906c-0.239,0.131 -0.347,0.434 -0.347,0.955c-0,0.521 0.043,0.999 0.173,1.389c2.821,1.801 4.991,3.798 6.511,5.99c1.562,2.213 2.474,5.078 2.777,8.593l0.174,0.608c2.539,-1.085 4.991,-2.452 7.378,-4.08c2.366,-1.606 4.775,-3.081 7.205,-4.427c3.581,-2.257 7.509,-4.036 11.806,-5.382c4.34,-1.389 8.594,-2.083 12.76,-2.083c4.861,-0 9.549,1.02 14.063,3.038c4.514,2.04 8.203,4.926 11.111,8.681c2.886,3.776 4.34,8.29 4.34,13.541c0,1.216 -0.325,2.735 -0.955,4.514c-0.586,1.801 -1.215,2.995 -1.909,3.559c-2.04,1.346 -3.907,1.997 -5.643,1.997l-1.996,-0c-1.216,-0 -2.431,-0.087 -3.646,-0.261c-1.215,-0.217 -2.431,-0.347 -3.646,-0.347c-1.042,0 -2.431,0.174 -4.167,0.521c-1.692,0.347 -2.929,0.998 -3.732,1.91c1.606,0.933 3.125,1.953 4.514,3.038c1.432,1.042 2.625,2.322 3.559,3.819c1.497,1.736 2.951,4.427 4.34,8.073c1.432,3.646 2.17,6.597 2.17,8.854l-0.174,18.837l0.521,17.275c0.174,1.801 0.282,3.537 0.347,5.208c0.044,1.693 0.087,3.45 0.087,5.295c0,7.422 -1.823,13.477 -5.468,18.229c-3.603,4.796 -9.441,7.205 -17.535,7.205c-5.794,0 -10.764,-0.738 -14.931,-2.17c-4.166,-1.389 -8.897,-3.082 -14.149,-5.035c-2.431,-0.998 -4.579,-2.3 -6.424,-3.906c-2.148,2.192 -4.318,4.08 -6.51,5.642c-2.149,1.606 -4.905,2.431 -8.247,2.431c-1.736,-0 -3.45,-0.261 -5.121,-0.781c-1.693,-0.521 -3.277,-1.259 -4.774,-2.171c-1.628,-1.106 -3.082,-2.3 -4.341,-3.559c-1.28,-1.28 -2.647,-2.582 -4.08,-3.906c-1.519,0.738 -3.038,1.476 -4.6,2.17c-1.519,0.695 -3.169,1.042 -4.948,1.042c-2.843,-0 -5.209,-1.107 -7.118,-3.299c-1.867,-2.148 -2.908,-4.535 -3.125,-7.205l-1.476,-20.399c-0.13,-2.647 -0.304,-5.317 -0.521,-7.986c-0.173,-2.713 -0.586,-5.382 -1.215,-7.986c-1.215,-0 -2.517,0.347 -3.906,1.042l1.215,23.437l0.868,7.639c0.217,2.561 0.347,5.187 0.347,7.899c0,2.127 -0.173,4.558 -0.521,7.292c-0.303,2.778 -1.193,4.97 -2.691,6.597c-0.52,0.695 -1.193,1.259 -1.996,1.736c-0.825,0.456 -1.628,0.825 -2.431,1.129c-1.106,0.39 -2.257,0.629 -3.472,0.694c-1.215,0.044 -2.409,0.087 -3.559,0.087l-2.864,0c-1.346,0 -2.822,-0.304 -4.428,-0.868c-1.627,-0.521 -3.125,-1.194 -4.513,-1.997c-1.346,-0.824 -2.691,-1.801 -4.08,-2.951c-1.389,-1.107 -2.778,-2.213 -4.167,-3.299c-1.345,-0.824 -2.669,-1.649 -3.993,-2.517c-1.346,-0.868 -2.691,-1.779 -4.08,-2.691c-0.521,-0.304 -0.846,-0.499 -0.955,-0.608c-1.736,2.648 -3.277,4.471 -4.6,5.469c-1.281,1.042 -3.125,1.563 -5.556,1.563c-3.776,-0 -7.248,-1.194 -10.417,-3.559c-3.125,-2.322 -4.687,-5.447 -4.687,-9.375c-0,-0.63 0.022,-1.324 0.087,-2.084c0.043,-0.737 0.173,-1.389 0.347,-1.909l5.642,-15.712c0.391,-1.085 0.608,-1.91 0.608,-2.431c-0,-0.39 -0.434,-1.041 -1.302,-1.909c-0.868,-0.868 -1.867,-1.78 -2.952,-2.778c-1.345,-1.042 -2.43,-2.604 -3.298,-4.688c-0.868,-2.083 -1.302,-3.928 -1.302,-5.555c-0,-0.803 0.217,-2.018 0.694,-3.646c0.456,-1.606 0.955,-2.626 1.476,-3.038c1.085,-0.695 2.539,-1.433 4.34,-2.257c1.78,-0.803 3.386,-1.324 4.774,-1.563Zm119.271,21.962l0.347,7.292c0.695,0.412 1.237,0.607 1.65,0.607c1.085,0 2.17,-0.043 3.212,-0.173c1.085,-0.174 2.17,-0.261 3.211,-0.261l3.907,0c0.629,0 1.15,-0.021 1.562,-0.086c0.391,-0.044 0.89,-0.131 1.476,-0.261l-0.434,-18.403l-0.434,-4.253l-0,-18.75c-0,-1.736 -0.239,-3.494 -0.695,-5.295c-0.477,-1.845 -1.866,-2.778 -4.166,-2.778c-0.933,-0 -2.474,0.434 -4.601,1.302c-2.148,0.868 -3.429,1.649 -3.819,2.344c-0.174,0.239 -0.304,0.824 -0.348,1.736c-0.065,0.868 -0.087,1.91 -0.087,3.125c0,1.975 -0.26,3.971 -0.781,5.989l0.347,20.053l-0.347,7.812Zm-33.333,-37.934c0.174,-0.282 0.304,-1.345 0.434,-3.212c0.108,-1.909 0.26,-3.819 0.434,-5.729c0.217,-1.953 0.347,-2.995 0.347,-3.125l-0.434,0.174c-0.521,0.303 -1.128,0.586 -1.823,0.868c-0.651,0.238 -1.302,0.347 -1.996,0.347c-2.149,-0 -4.254,-0.043 -6.337,-0.174c-2.083,-0.173 -4.21,-0.26 -6.337,-0.26c-2.561,-0 -5.642,0.391 -9.288,1.128c-3.646,0.76 -6.597,1.867 -8.854,3.299c0.108,0.998 0.434,2.083 0.955,3.299c2.539,-0.565 5.078,-1.064 7.638,-1.476c2.605,-0.391 5.165,-0.608 7.726,-0.608c3.863,0 6.988,0.413 9.375,1.216c2.366,0.824 5.078,2.235 8.16,4.253Zm-36.892,-56.51c-2.843,-0 -5.274,1.171 -7.292,3.472c-1.736,1.736 -3.103,3.798 -4.08,6.163c-0.933,2.322 -1.866,4.644 -2.778,6.944c-0.13,0.521 -0.347,1.02 -0.694,1.476c-0.347,0.478 -0.673,0.998 -0.955,1.563c-0.412,0.651 -0.608,1.106 -0.608,1.389c0,0.303 0.196,0.434 0.608,0.434c0.282,-0 0.868,-0.261 1.736,-0.782c0.868,-0.564 1.845,-1.258 2.951,-2.083c2.127,-1.497 4.428,-3.32 6.858,-5.469c2.431,-2.126 4.536,-4.123 6.337,-5.989c1.845,-1.91 2.778,-3.125 2.778,-3.646c-0,-1.085 -0.586,-1.932 -1.736,-2.518c-1.172,-0.629 -2.214,-0.954 -3.125,-0.954Zm36.284,102.777c0.282,-0.803 0.456,-2.278 0.521,-4.427c0.044,-2.192 0.087,-4.166 0.087,-5.902l-0,-4.862c-0,-1.432 -0.13,-2.908 -0.347,-4.427c-0.174,-1.497 -0.391,-2.973 -0.608,-4.427c-1.107,0.521 -2.734,1.02 -4.861,1.476c-2.148,0.477 -3.971,0.846 -5.469,1.128c0.695,0.695 1.302,1.368 1.823,1.997c0.521,0.586 1.063,1.194 1.649,1.823c0.63,0.694 1.237,1.779 1.823,3.212c0.63,1.389 1.216,2.821 1.736,4.253c0.565,1.389 1.151,2.995 1.737,4.774c0.629,1.802 1.258,3.603 1.909,5.382Zm-66.58,3.993c2.648,0.521 4.427,0.912 5.296,1.129c0.911,0.174 1.432,0.26 1.562,0.26c0.391,-2.257 0.629,-4.514 0.694,-6.77c0.044,-2.301 0.087,-4.623 0.087,-6.945c0,-1.215 -0.217,-2.083 -0.607,-2.604c-2.431,0.13 -4.514,0.998 -6.25,2.604c-0.131,0.933 -0.261,2.17 -0.434,3.733c-0.131,1.562 -0.239,4.427 -0.348,8.593Zm-12.5,-101.128c1.737,1.519 3.256,3.19 4.601,5.035c1.389,1.801 2.648,3.624 3.82,5.468c1.388,-1.605 2.734,-3.732 4.079,-6.336c1.324,-2.605 2.279,-4.861 2.865,-6.771c-0.586,-0 -1.454,0.043 -2.604,0.087c-1.107,0.065 -1.953,0.173 -2.518,0.347c-1.345,0.13 -2.842,0.39 -4.513,0.781c-1.693,0.412 -3.386,0.825 -5.122,1.215l-0.608,0.174Zm82.552,19.01c0.391,-1.085 0.738,-2.191 1.042,-3.298c0.347,-1.15 0.521,-2.127 0.521,-2.952c-0,-0.694 -0.412,-1.562 -1.215,-2.604c-0.825,-1.085 -1.628,-1.996 -2.431,-2.691l-0.521,-0.347c-0.412,0.933 -0.759,1.649 -1.041,2.17c-0.304,0.521 -0.565,0.998 -0.782,1.389c-0.412,0.825 -0.607,1.519 -0.607,2.083c-0,0.413 0.456,1.085 1.389,1.997c0.52,0.521 1.15,1.215 1.909,2.083c0.738,0.868 1.324,1.606 1.736,2.17Z" style="fill-rule:nonzero;"/></g></g></g><g><g><g><path d="M600.086,202.428c-2.951,-0.629 -5.36,-1.085 -7.205,-1.389c-1.801,-0.282 -4.123,-1.345 -6.944,-3.211c-2.149,-1.498 -3.993,-3.559 -5.556,-6.164c-1.519,-2.604 -2.257,-5.251 -2.257,-7.986c0,-2.257 0.608,-3.776 1.823,-4.6c1.215,-0.803 2.952,-1.606 5.208,-2.431l13.976,-9.288l4.601,-2.431c0.108,-2.126 0.26,-4.21 0.434,-6.25c0.217,-2.018 0.347,-4.101 0.347,-6.25c0,-0.976 -0.043,-1.909 -0.087,-2.777c-0.065,-0.868 -0.152,-1.758 -0.26,-2.691c-1.91,-1.498 -3.798,-3.299 -5.642,-5.382c-1.802,-2.084 -2.691,-4.384 -2.691,-6.945c-0,-2.018 0.803,-3.841 2.43,-5.469c1.606,-1.605 3.494,-2.886 5.642,-3.819c2.192,-0.911 4.167,-1.389 5.903,-1.389c4.275,0 8.442,1.172 12.5,3.472c4.037,2.257 7.14,5.122 9.288,8.594c1.042,1.628 1.65,3.429 1.823,5.382c0.217,1.975 0.348,3.885 0.348,5.729l-0,5.295c-0,0.934 0.086,1.802 0.26,2.605c1.042,-0 2.105,-0.022 3.212,-0.087c1.085,-0.044 2.105,-0.087 3.038,-0.087c3.863,-0 7.465,0.868 10.764,2.604c3.298,1.736 5.903,4.34 7.812,7.813c0.217,-2.257 0.391,-4.471 0.521,-6.684c0.174,-2.257 0.261,-4.449 0.261,-6.598c-0,-0.282 -0.044,-0.629 -0.087,-1.041c-0.065,-0.391 -0.239,-0.716 -0.521,-0.955c-1.107,-0.977 -2.062,-1.91 -2.865,-2.778c-0.759,-0.868 -1.627,-1.823 -2.604,-2.865c-1.627,-1.909 -2.43,-3.776 -2.43,-5.642c-0,-2.995 1.172,-5.49 3.559,-7.465c2.365,-2.018 4.969,-3.038 7.812,-3.038c3.169,-0 6.012,0.911 8.507,2.691c2.474,1.801 5.23,4.123 8.247,6.944c1.844,-1.215 3.646,-2.539 5.382,-3.993c1.779,-1.497 3.559,-2.908 5.295,-4.253c4.275,-3.516 9.136,-6.185 14.583,-7.987c5.425,-1.779 10.938,-2.691 16.493,-2.691c4.167,0 8.29,0.608 12.413,1.823c4.102,1.216 7.683,3.212 10.764,5.99c1.498,1.215 2.908,2.474 4.254,3.733c1.324,1.28 2.604,2.669 3.819,4.166c3.928,4.471 6.445,8.811 7.552,13.021c1.15,4.232 2.084,9.115 2.778,14.67l0.955,33.854l0.26,28.039c0,2.842 -0.173,5.642 -0.521,8.42c-0.347,2.777 -1.258,5.251 -2.691,7.378c-0.998,1.454 -2.213,2.496 -3.645,3.125c-1.389,0.586 -2.952,1.215 -4.688,1.91l-0.781,0.347c1.736,5.274 3.494,9.527 5.295,12.761c1.845,3.255 4.644,6.901 8.42,10.937c2.127,2.148 3.494,4.774 4.08,7.899c0.629,3.082 0.998,6.077 1.129,9.028c-0.239,5.599 -2.04,9.918 -5.382,12.934c-3.364,3.06 -7.466,5.122 -12.327,6.163c-4.861,1.085 -9.635,1.65 -14.323,1.65c-5.555,-0 -11.415,-0.76 -17.534,-2.257c-6.077,-1.454 -11.09,-4.406 -15.018,-8.854c-2.148,-2.67 -3.602,-5.708 -4.34,-9.115c-0.695,-3.472 -1.042,-6.879 -1.042,-10.243c0,-4.275 0.347,-7.943 1.042,-11.024c0.738,-3.125 1.519,-6.706 2.344,-10.764c-1.628,0.521 -3.256,0.781 -4.861,0.781c-1.628,-0 -3.299,0.152 -5.035,0.434c-0.933,0.13 -1.823,0.347 -2.691,0.694c-0.868,0.348 -1.801,0.521 -2.778,0.521c-1.172,0 -2.04,-0.043 -2.604,-0.173c2.018,2.56 3.733,5.186 5.121,7.899c1.433,2.669 2.171,5.686 2.171,9.028c-0,2.843 -0.434,5.968 -1.303,9.375c-0.868,3.429 -2.126,6.64 -3.732,9.722c-1.628,3.125 -3.516,5.642 -5.643,7.552c-1.388,1.324 -2.951,2.431 -4.687,3.299c-1.736,0.868 -3.472,1.649 -5.208,2.343c-0.695,0.283 -1.519,0.478 -2.431,0.608c-0.933,0.109 -1.888,0.174 -2.864,0.174l-1.997,-0c-3.776,-0 -7.183,-0.521 -10.243,-1.563c-3.017,-0.998 -6.055,-2.669 -9.115,-5.035c-0.933,-0.694 -1.953,-1.692 -3.038,-2.951c-1.107,-1.28 -1.649,-2.517 -1.649,-3.733c-0,-1.627 2.018,-3.255 6.076,-4.861c4.861,-2.018 8.963,-4.904 12.327,-8.68c0.694,-0.695 1.606,-2.105 2.777,-4.254c1.216,-2.126 2.366,-4.253 3.473,-6.337c1.085,-2.083 1.649,-3.32 1.649,-3.732c-0,-0.282 -0.955,-1.693 -2.865,-4.254c-0.52,-0.629 -0.781,-1.497 -0.781,-2.604c0,-0.911 0.195,-1.779 0.608,-2.604c0.629,-1.215 1.085,-2.105 1.389,-2.691c0.282,-0.629 0.629,-1.345 1.041,-2.17c-0.998,-1.085 -1.823,-1.932 -2.517,-2.517c-0.651,-0.63 -1.28,-1.411 -1.91,-2.344c-0.998,-1.324 -1.736,-2.561 -2.257,-3.733c-0.521,-1.15 -1.085,-3.32 -1.649,-6.51c-0.13,-1.498 -0.326,-2.518 -0.608,-3.038c-1.215,-0.174 -2.43,-0.283 -3.646,-0.348c-1.171,-0.043 -2.343,-0.086 -3.559,-0.086c-2.322,-0 -4.817,0.347 -7.465,1.041c1.432,2.04 2.995,4.058 4.688,6.077c1.671,1.974 3.211,4.123 4.6,6.423c1.606,2.843 2.995,5.881 4.167,9.115c1.215,3.19 1.823,6.467 1.823,9.809c-0,4.752 -1.432,8.919 -4.254,12.5c-2.777,3.537 -6.662,5.295 -11.631,5.295c-1.802,-0 -3.646,-0.109 -5.556,-0.347c-1.866,-0.282 -3.451,-1.129 -4.774,-2.518c-1.454,-1.432 -2.67,-2.951 -3.646,-4.514c-0.933,-1.562 -1.866,-4.014 -2.778,-7.378c-0.174,-0.911 -0.521,-1.78 -1.042,-2.604l-1.562,-2.431c-0.586,3.125 -1.606,6.814 -3.038,11.025c-1.389,4.231 -3.255,8.398 -5.556,12.5c-2.257,4.101 -4.948,7.508 -8.073,10.243c-3.081,2.777 -6.488,4.166 -10.243,4.166c-3.472,0 -6.749,-0.933 -9.809,-2.777c-3.016,-1.802 -5.447,-4.08 -7.292,-6.858c-0.824,-1.107 -1.54,-2.517 -2.17,-4.254c-0.586,-1.736 -0.868,-3.298 -0.868,-4.687c0,-2.257 0.716,-4.362 2.17,-6.337c1.498,-1.953 2.865,-3.819 4.08,-5.555c2.648,-4.037 5.035,-8.247 7.118,-12.587c2.084,-4.384 3.82,-8.941 5.209,-13.629c-3.125,-0.911 -5.686,-1.758 -7.639,-2.517c-1.91,-0.738 -4.232,-2.279 -6.945,-4.601c-1.454,-1.15 -2.908,-2.734 -4.34,-4.774c-1.389,-2.018 -2.083,-4.037 -2.083,-6.076c-0,-3.343 1.519,-5.578 4.6,-6.685c0.565,-0.217 1.737,-0.802 3.473,-1.736c1.736,-0.976 3.754,-2.126 6.076,-3.472c2.366,-1.324 4.622,-2.561 6.771,-3.732c2.192,-1.151 3.906,-1.997 5.121,-2.518c0,-1.085 0.022,-2.105 0.087,-3.038c0.044,-0.912 0.087,-1.866 0.087,-2.865Zm86.198,-32.465c1.432,-0.803 2.951,-1.693 4.514,-2.691c1.562,-1.042 3.081,-2.018 4.601,-2.951c2.647,-1.736 5.837,-3.472 9.548,-5.209c3.689,-1.779 7.075,-2.691 10.156,-2.691c2.713,0 4.883,0.413 6.511,1.216c1.606,0.824 3.646,1.627 6.076,2.43c0.109,-0.694 0.261,-2.213 0.434,-4.6c0.217,-2.431 0.261,-4.731 0.087,-6.945c-0.13,-2.257 -0.586,-3.385 -1.389,-3.385c-0.521,-0 -1.823,0.347 -3.906,1.041c-2.083,0.651 -4.167,1.368 -6.25,2.171c-2.083,0.824 -3.537,1.432 -4.34,1.822c-1.628,0.521 -3.863,1.389 -6.684,2.605c-2.843,1.215 -4.992,2.322 -6.424,3.298c-2.561,1.736 -4.688,2.843 -6.424,3.299c-1.692,0.477 -4.058,0.846 -7.118,1.128c0.109,1.454 0.196,2.995 0.261,4.601c0.108,1.628 0.217,3.255 0.347,4.861Zm55.903,77.517l-4.688,0c-1.454,0 -2.929,0.217 -4.427,0.608c-0.933,3.603 -1.519,7.248 -1.736,10.938c-0.174,3.711 -0.412,7.53 -0.694,11.458c0.173,0.825 0.542,1.367 1.128,1.649c0.629,0.239 1.259,0.347 1.91,0.347c1.215,0 2.908,-0.173 5.121,-0.52c2.257,-0.348 3.841,-0.782 4.775,-1.302c0.911,-0.695 1.41,-1.693 1.475,-3.039c0.109,-1.323 0.174,-2.452 0.174,-3.385c-0,-2.821 -0.347,-5.664 -1.042,-8.507c-0.651,-2.821 -1.302,-5.577 -1.996,-8.247Zm-55.903,-18.576l2.604,0c1.91,0 3.82,-0.434 5.729,-1.302c1.953,-0.868 3.82,-1.649 5.556,-2.344c4.34,-1.606 8.702,-2.908 13.107,-3.906c4.449,-1.042 8.855,-2.018 13.195,-2.951c-0,-0.803 -0.065,-1.606 -0.174,-2.431c-0.065,-0.803 -0.087,-1.606 -0.087,-2.431c-0.651,0.304 -1.649,0.435 -3.038,0.435c-2.56,-0 -5.62,0.412 -9.201,1.215c-3.537,0.824 -6.511,1.736 -8.941,2.778c-2.148,0.998 -4.34,1.736 -6.597,2.257c-2.214,0.52 -4.427,0.781 -6.684,0.781l-1.823,-0c-0.695,-0 -1.367,-0.044 -1.997,-0.174l-2.43,0l0.173,3.212l0.608,4.861Zm-0.434,-29.861c1.215,-0 2.279,-0.195 3.212,-0.608c2.995,-1.497 5.946,-2.973 8.854,-4.427c2.886,-1.497 5.859,-2.712 8.941,-3.646c0.803,-0.282 1.584,-0.542 2.344,-0.781c0.737,-0.282 1.519,-0.521 2.343,-0.694c1.042,-0.217 2.127,-0.369 3.299,-0.434c1.15,-0.044 2.192,-0.087 3.125,-0.087c1.497,-0 2.951,0.065 4.34,0.173c1.389,0.131 2.778,0.326 4.167,0.608c-0,-0.694 0.022,-1.389 0.087,-2.083c0.043,-0.738 0.087,-1.411 0.087,-1.997c-0,-0.39 -0.044,-0.738 -0.087,-1.041c-0.065,-0.348 -0.087,-0.717 -0.087,-1.129c-1.107,-0.173 -2.257,-0.304 -3.472,-0.434c-1.216,-0.108 -2.431,-0.174 -3.646,-0.174c-1.042,0 -2.235,0.044 -3.559,0.087c-1.281,0.065 -2.387,0.304 -3.299,0.695l-13.541,5.642c-1.346,0.521 -2.822,1.042 -4.428,1.563c-1.627,0.477 -3.168,0.694 -4.6,0.694c-0.586,0 -1.216,-0.022 -1.91,-0.087c-0.651,-0.108 -1.28,-0.173 -1.91,-0.173c-0.173,0.412 -0.26,0.824 -0.26,1.215l-0,1.476c-0,0.412 0.022,0.781 0.087,1.128c0.108,0.304 0.173,0.651 0.173,1.042c0.109,0.586 0.131,1.128 0.087,1.649c-0.065,0.521 -0.173,1.129 -0.347,1.823Zm-53.646,0.781c1.845,-0.911 3.863,-1.649 6.076,-2.17c2.257,-0.564 4.449,-0.868 6.598,-0.868c2.3,0 4.47,0.347 6.51,1.042c2.018,0.651 3.906,1.519 5.642,2.604c0.391,-0.803 0.63,-1.606 0.695,-2.431c0.043,-0.803 0.087,-1.606 0.087,-2.43l-0,-6.25c-1.454,1.345 -3.386,1.996 -5.816,1.996l-5.295,0c-2.257,0 -4.644,0.391 -7.118,1.129c-2.496,0.759 -4.84,1.692 -7.032,2.778l-0.347,4.6Z" style="fill-rule:nonzero;"/></g></g></g><g><g><g><path d="M850.105,211.109l0,-11.458c-1.345,0.412 -2.756,0.781 -4.253,1.128c-1.454,0.304 -2.93,0.434 -4.427,0.434c-2.561,0 -5.448,-0.629 -8.681,-1.91c-3.255,-1.258 -6.055,-3.038 -8.42,-5.295c-2.322,-2.3 -3.472,-4.948 -3.472,-7.899c-0,-1.91 0.434,-3.255 1.302,-4.08c0.868,-0.803 2.105,-1.476 3.732,-1.996c4.449,-4.97 7.9,-8.811 10.33,-11.546c2.431,-2.777 4.557,-5.251 6.424,-7.465c1.91,-2.257 3.993,-4.904 6.25,-7.986l-0.174,-3.472c-0.824,-0.912 -1.866,-1.953 -3.125,-3.125c-1.28,-1.15 -3.081,-2.604 -5.382,-4.34c-1.454,-1.324 -2.821,-2.974 -4.08,-4.948c-1.28,-1.954 -1.909,-4.015 -1.909,-6.164c-0,-3.472 1.302,-6.467 3.906,-9.027c2.604,-2.605 5.577,-3.907 8.941,-3.907c2.018,0 4.601,0.521 7.726,1.563c3.168,0.998 5.924,2.3 8.246,3.906c1.497,0.933 2.8,2.127 3.906,3.559c1.151,1.389 2.735,3.646 4.775,6.771c1.909,-1.215 3.645,-1.823 5.208,-1.823c2.713,0 4.97,0.868 6.771,2.604c1.844,1.736 3.385,3.689 4.601,5.816c1.323,2.604 2.105,5.122 2.343,7.552c0.282,2.387 0.434,4.927 0.434,7.639c0,1.346 -0.26,2.908 -0.781,4.688c-0.521,1.736 -1.541,4.145 -3.038,7.205c-0.695,1.345 -1.736,3.103 -3.125,5.295c-1.389,2.148 -3.516,5.1 -6.337,8.854c0,1.454 0.087,2.951 0.26,4.514c0.217,1.562 0.391,3.081 0.521,4.514c1.606,-1.216 3.169,-2.474 4.688,-3.82c1.562,-1.324 3.146,-2.539 4.774,-3.646c2.713,-3.58 4.991,-8.073 6.858,-13.455c1.909,-5.381 3.407,-10.243 4.514,-14.583c-1.802,-1.215 -3.516,-2.626 -5.122,-4.253c-1.628,-1.606 -2.43,-3.603 -2.43,-5.99c-0,-2.713 1.085,-4.818 3.298,-6.337c2.257,-1.562 4.601,-2.343 7.031,-2.343c2.019,-0 3.993,0.412 5.903,1.215c1.953,0.824 4.557,2.148 7.813,3.993c4.861,-8.854 9.57,-14.931 14.149,-18.229c4.557,-3.299 9.939,-4.948 16.146,-4.948c5.903,-0 11.545,1.02 16.927,3.038c5.382,1.975 10.438,4.731 15.191,8.247c3.993,2.951 6.771,6.119 8.333,9.461c1.563,3.364 2.344,7.531 2.344,12.5c-0,1.519 -0.152,3.039 -0.434,4.601c-0.239,1.519 -0.564,2.951 -0.955,4.34c-1.107,3.473 -1.649,5.816 -1.649,7.032c3.754,-2.019 6.423,-3.256 7.986,-3.733c1.562,-0.456 2.713,-0.695 3.472,-0.695c1.606,0 3.212,0.434 4.774,1.303c1.563,0.868 2.865,1.866 3.907,2.951c2.191,2.148 3.754,4.644 4.687,7.465c0.912,2.843 1.389,5.729 1.389,8.681c0,3.776 -0.673,7.118 -1.996,10.069c-1.346,2.952 -4.384,5.99 -9.115,9.115c-1.736,1.215 -3.863,2.495 -6.337,3.819c-2.496,1.346 -4.861,2.67 -7.118,3.993c5.903,3.364 10.981,8.138 15.278,14.323c4.34,6.207 6.51,12.891 6.51,20.052c0,3.993 -0.846,7.856 -2.517,11.545c-1.693,3.711 -3.95,6.923 -6.771,9.636c3.06,2.951 5.816,6.055 8.247,9.288c2.43,3.19 3.645,7.075 3.645,11.632c0,4.731 -1.54,9.115 -4.6,13.108c-3.017,4.036 -7.075,6.076 -12.153,6.076c-1.519,0 -3.299,-0.347 -5.382,-1.042c-2.083,-0.651 -4.926,-2.126 -8.507,-4.427c-3.537,-2.257 -8.333,-5.816 -14.41,-10.677c-3.776,2.952 -7.639,5.382 -11.632,7.292l-10.329,4.601c-3.125,1.388 -6.901,2.539 -11.285,3.472c-4.34,0.911 -8.507,1.389 -12.5,1.389c-6.207,-0 -12.11,-1.693 -17.709,-5.035c-5.555,-3.364 -10.134,-7.791 -13.715,-13.281c-3.602,-5.556 -5.382,-11.415 -5.382,-17.622c0,-5.208 1.064,-9.418 3.212,-12.673c2.192,-3.234 5.577,-5.99 10.156,-8.247c-3.646,-2.192 -6.597,-4.644 -8.854,-7.378c-2.213,-2.778 -3.429,-6.294 -3.646,-10.591c-0.998,0.651 -1.975,1.346 -2.951,2.084c-0.998,0.759 -2.04,1.475 -3.125,2.17l-0,40.364c-0,5.1 -0.043,9.028 -0.087,11.806c-0.065,2.713 -0.152,4.731 -0.26,6.076c-0.065,1.389 -0.217,2.474 -0.434,3.299c-0.586,2.365 -2.04,4.384 -4.341,6.076c-2.257,1.736 -4.73,2.604 -7.378,2.604c-4.991,0 -9.679,-1.627 -14.063,-4.861c-4.34,-3.255 -7.942,-6.814 -10.763,-10.677c-2.431,-3.515 -4.601,-8.029 -6.511,-13.541c-1.866,-5.491 -3.993,-12.761 -6.423,-21.789c-0.304,-1.389 -0.673,-2.777 -1.129,-4.166c-0.477,-1.389 -0.825,-2.626 -1.042,-3.733c-2.43,-3.06 -4.123,-5.599 -5.034,-7.639c-0.868,-2.018 -1.302,-3.993 -1.302,-5.903c-0,-3.754 1.215,-5.902 3.645,-6.423c1.78,-0.391 2.952,-0.803 3.473,-1.215c3.233,-2.127 7.074,-4.623 11.545,-7.466c4.514,-2.821 8.181,-5.469 11.024,-7.899Zm70.052,-5.469c4.275,-1.736 8.637,-3.298 13.108,-4.687c4.449,-1.433 8.962,-2.822 13.541,-4.167c-0.13,-0.911 -0.347,-1.78 -0.694,-2.604c-0.347,-0.803 -0.673,-1.671 -0.955,-2.604c-0.521,-1.498 -0.824,-3.06 -0.868,-4.688c-0.065,-1.606 -0.087,-3.147 -0.087,-4.601c0,-2.951 0.261,-5.859 0.782,-8.767c0.52,-2.886 1.605,-6.272 3.298,-10.156c1.671,-3.928 4.34,-8.876 7.986,-14.844c0.695,-1.042 1.302,-2.192 1.823,-3.472c0.521,-1.259 0.781,-2.604 0.781,-3.993c0,-1.042 -1.171,-2.127 -3.472,-3.299c-2.257,-1.15 -4.253,-1.736 -5.989,-1.736c-1.346,0 -2.583,0.478 -3.733,1.389c-1.172,0.868 -1.953,1.78 -2.344,2.691l-2.778,6.424c-0.933,2.148 -2.083,4.991 -3.472,8.507c-0.521,1.345 -1.107,2.647 -1.736,3.906c-0.586,1.28 -1.02,2.604 -1.302,3.993c-1.042,5.512 -1.996,9.961 -2.865,13.368c-0.868,3.429 -1.801,6.641 -2.777,9.635c-0.933,3.364 -2.17,6.684 -3.733,9.983c-1.519,3.299 -3.016,6.554 -4.514,9.722Zm43.577,40.625c2.3,-1.91 4.166,-3.472 5.555,-4.687c1.432,-1.216 3.234,-2.691 5.382,-4.427c1.606,-1.324 2.648,-2.301 3.125,-2.952c0.456,-0.694 0.694,-1.389 0.694,-2.083c0,-1.215 -0.911,-2.366 -2.69,-3.472c-1.737,-1.151 -3.125,-1.736 -4.167,-1.736c-0.304,-0 -0.695,0.065 -1.215,0.173c-0.521,0.13 -1.194,0.521 -1.997,1.215c-2.843,2.257 -5.729,4.579 -8.681,6.945c-2.951,2.387 -6.206,4.774 -9.722,7.205c2.301,0.521 4.623,1.128 6.945,1.823c2.365,0.651 4.622,1.302 6.771,1.996Zm-36.285,21.962c-3.125,-0.629 -6.728,-1.302 -10.764,-1.997c-3.993,-0.694 -6.901,-1.041 -8.681,-1.041c-3.472,-0 -6.77,0.521 -9.895,1.562c-3.082,0.999 -4.601,2.236 -4.601,3.733c-0,1.736 1.237,3.125 3.732,4.167c2.474,0.998 5.599,1.475 9.375,1.475c2.019,0 4.449,-0.477 7.292,-1.475c2.821,-1.042 7.335,-3.169 13.542,-6.424Zm-21.007,-32.031c2.647,-1.78 5.078,-3.472 7.292,-5.035c2.256,-1.606 5.208,-3.733 8.854,-6.337c1.844,-1.324 3.754,-2.647 5.729,-3.993c1.953,-1.324 3.255,-2.192 3.906,-2.604c-4.167,0.412 -8.398,1.194 -12.673,2.344c-4.297,1.107 -7.791,2.409 -10.504,3.906c-4.058,2.148 -6.858,3.95 -8.42,5.382c-1.519,1.389 -2.257,2.213 -2.257,2.43c-0,0.413 0.542,1.303 1.649,2.691c1.15,1.346 2.344,1.997 3.559,1.997c1.085,-0 2.04,-0.26 2.865,-0.781Zm-55.295,38.541l-0.174,-2.43l-0.608,-17.969l-0.434,-0.26c-0.933,0.173 -1.714,0.303 -2.343,0.347c-0.586,0.065 -1.216,0.174 -1.91,0.347c-0.694,0.13 -1.432,0.152 -2.17,0.087c-0.695,-0.109 -1.389,-0.217 -2.083,-0.347l-0.348,0.173l0,0.868c0,1.628 0.543,3.733 1.65,6.337c1.15,2.604 2.539,5.122 4.166,7.552c1.606,2.431 3.038,4.21 4.254,5.295Zm39.583,-54.687c1.845,-1.78 3.863,-3.342 6.076,-4.688c2.257,-1.323 4.514,-2.647 6.771,-3.993c-1.736,-0.694 -3.363,-1.606 -4.861,-2.777c-1.454,-1.151 -2.93,-2.257 -4.427,-3.299c-0.13,2.561 -0.477,5.078 -1.042,7.552c-0.52,2.496 -1.367,4.905 -2.517,7.205Z" style="fill-rule:nonzero;"/></g></g></g><g><g><g><path d="M1097.28,151.861l1.215,-0.954c-0.998,-1.086 -1.823,-2.279 -2.517,-3.559c-0.651,-1.259 -0.955,-2.561 -0.955,-3.907c0,-2.3 0.955,-4.427 2.865,-6.337c1.844,-1.953 4.014,-3.342 6.51,-4.166c2.474,-0.803 5.078,-1.215 7.813,-1.215c3.472,-0 6.814,0.607 10.069,1.822c3.234,1.216 6.12,3.017 8.681,5.382c1.497,1.389 2.734,3.039 3.732,4.948c0.977,1.867 1.867,3.711 2.691,5.556c0.391,0.998 0.608,2.148 0.608,3.472c-0,4.058 -0.912,7.162 -2.691,9.288c-1.801,2.149 -4.058,4.08 -6.771,5.816c-1.215,0.825 -2.387,1.541 -3.472,2.17c-1.042,0.586 -2.322,1.281 -3.82,2.084c0.565,0.521 1.129,1.041 1.65,1.562c0.52,0.478 1.063,0.955 1.649,1.476c1.606,1.454 2.886,3.168 3.819,5.121c0.912,1.975 1.585,4.037 1.997,6.164c2.127,0.412 4.188,0.933 6.163,1.562c1.953,0.586 3.863,1.432 5.729,2.517c1.216,-2.191 2.474,-4.253 3.82,-6.163c1.389,-1.953 2.734,-3.949 4.08,-5.989c-1.107,-0.521 -2.084,-0.955 -2.952,-1.302c-0.868,-0.348 -1.866,-0.717 -2.951,-1.129c-1.736,-0.629 -3.277,-1.779 -4.601,-3.472c-1.345,-1.736 -1.996,-3.516 -1.996,-5.382c-0,-2.127 0.803,-3.689 2.43,-4.688c1.606,-1.041 4.21,-1.909 7.813,-2.604l17.621,-7.812c-0.586,-0.977 -1.193,-2.105 -1.823,-3.386c-0.586,-1.258 -0.868,-2.517 -0.868,-3.732c0,-3.646 1.302,-6.511 3.906,-8.594c2.648,-2.083 5.816,-3.581 9.462,-4.514c3.646,-0.911 6.793,-1.389 9.462,-1.389c8.333,0 15.734,2.691 22.222,8.073c2.648,-0.173 5.23,-0.304 7.726,-0.434c2.474,-0.108 4.991,-0.173 7.552,-0.173c2.604,-0 5.642,0.434 9.115,1.302c3.515,0.868 6.879,2.126 10.069,3.732c3.234,1.628 5.664,3.516 7.292,5.643c1.324,1.736 2.344,3.211 3.038,4.427c0.694,1.215 1.042,2.777 1.042,4.687c-0,3.472 -0.782,6.25 -2.344,8.334c-1.563,2.083 -4.232,3.125 -7.986,3.125c-2.04,-0 -4.058,-0.261 -6.077,-0.782l-5.989,-1.649c-2.604,-0.629 -5.426,-1.129 -8.42,-1.476c-3.017,-0.347 -5.881,-0.521 -8.594,-0.521c-2.951,0 -5.903,0.239 -8.854,0.695c-2.952,0.477 -5.903,1.042 -8.854,1.736c-3.017,0.825 -6.641,1.801 -10.851,2.951c-4.232,1.107 -7.552,2.474 -9.983,4.08c-2.148,1.519 -3.949,3.516 -5.382,5.99c-1.389,2.495 -2.56,4.948 -3.472,7.378l-0.174,0.608l16.494,-7.899l2.604,-0.782l15.798,-5.902c2.127,-0.391 4.427,-0.825 6.858,-1.302c2.43,-0.456 5.838,-0.695 10.243,-0.695c2.821,0 6.207,0.412 10.156,1.215c3.993,0.825 7.075,2.17 9.288,4.08c3.169,2.561 5.838,5.534 7.987,8.941c2.191,3.429 3.298,7.292 3.298,11.632c0,1.628 -0.173,3.255 -0.521,4.861c-0.347,1.563 -0.998,3.038 -1.909,4.427c-1.519,2.257 -2.518,3.907 -3.039,4.948c-0.52,0.998 -0.781,1.628 -0.781,1.91c0,0.933 0.109,1.866 0.347,2.778c0.283,0.933 0.565,1.736 0.868,2.43c0.391,0.933 0.608,1.888 0.608,2.865c0,2.561 -1.02,4.47 -3.038,5.729c-2.04,1.28 -4.21,1.91 -6.511,1.91c-2.387,-0 -5.121,-0.304 -8.246,-0.955c-3.082,-0.695 -5.903,-1.237 -8.507,-1.649c-0.825,-0.174 -1.628,-0.261 -2.431,-0.261l-2.343,0c-6.381,0 -12.5,0.76 -18.403,2.257l-19.358,5.035c-1.627,0.412 -3.342,0.694 -5.121,0.868c-1.736,0.13 -3.386,0.174 -4.948,0.174c-4.579,-0 -8.637,-1.737 -12.153,-5.209c-3.472,-3.515 -6.424,-6.966 -8.854,-10.33c-2.561,2.149 -4.926,3.429 -7.118,3.82c-2.149,0.412 -4.905,0.824 -8.247,1.215c0.282,0.694 0.434,1.302 0.434,1.823l0,4.601c3.755,1.215 7.249,3.038 10.504,5.468c0.629,-0.282 1.324,-0.477 2.083,-0.607c0.738,-0.109 1.519,-0.174 2.344,-0.174c3.342,0 6.532,0.955 9.548,2.865c3.06,1.866 5.252,4.318 6.598,7.378l0.955,-0.173l3.298,-0.782l15.712,-4.861c5.49,-1.736 11.024,-3.255 16.58,-4.6c5.599,-1.389 11.306,-2.084 17.101,-2.084c4.557,0 9.201,0.586 13.888,1.736c4.731,1.172 8.985,3.017 12.761,5.556c2.3,1.454 4.601,3.798 6.857,7.031c2.301,3.255 3.581,6.294 3.82,9.115l1.823,17.708l0.434,17.969c-0,2.213 -0.13,4.557 -0.347,7.031c-0.174,2.496 -0.608,4.796 -1.302,6.944c-1.346,3.646 -3.733,6.424 -7.205,8.334c-3.429,1.953 -7.01,2.951 -10.764,2.951c-4.167,0 -8.073,-0.759 -11.719,-2.257c-3.602,-1.454 -7.161,-3.19 -10.677,-5.208c-3.082,-0 -6.163,-0.26 -9.288,-0.781c-1.215,-0.304 -2.474,-0.521 -3.733,-0.695c-1.28,-0.13 -2.582,-0.173 -3.906,-0.173c-1.346,-0 -2.691,0.021 -4.08,0.086c-1.345,0.109 -2.474,0.217 -3.385,0.348l-3.646,0.434c-1.215,0.108 -2.496,0.173 -3.82,0.173c-1.909,0 -4.08,-0.412 -6.51,-1.215c-2.387,-0.825 -4.167,-2.083 -5.382,-3.819c-0.825,-1.107 -1.345,-2.344 -1.563,-3.733c-0.173,-1.432 -0.325,-2.821 -0.434,-4.167c-0.173,-1.432 -0.303,-2.821 -0.347,-4.166c-0.065,-1.389 -0.087,-2.735 -0.087,-4.08c0,-1.085 0.022,-2.604 0.087,-4.514c0.044,-1.953 0.217,-3.928 0.521,-5.903c0.282,-1.953 0.608,-3.32 0.955,-4.08c0.803,-1.497 2.213,-2.257 4.253,-2.257l3.039,0c0.694,0 1.258,-0.021 1.736,-0.087c0.455,-0.043 0.889,-0.173 1.302,-0.347c1.91,-0.911 3.689,-1.779 5.382,-2.604c1.671,-0.803 3.385,-1.606 5.121,-2.43c2.019,-1.042 4.189,-1.758 6.511,-2.171c2.365,-0.39 4.622,-0.607 6.771,-0.607c1.909,-0 3.754,0.347 5.555,1.041c1.845,0.651 3.429,1.476 4.774,2.518c3.234,2.43 4.861,5.881 4.861,10.33c0,1.345 -0.13,2.756 -0.347,4.253c-0.173,1.454 -0.412,2.93 -0.694,4.427c0.694,0.304 1.324,0.586 1.91,0.868c0.629,0.239 1.215,0.347 1.736,0.347c0.282,0 0.694,-0.043 1.215,-0.173c0.521,-0.174 0.868,-0.868 1.042,-2.083c0.108,-1.324 0.195,-3.212 0.26,-5.643c0.043,-2.43 0.087,-4.774 0.087,-7.031l-0,-5.642c-0,-2.822 -1.085,-5.296 -3.212,-7.379c-2.148,-2.083 -4.644,-3.125 -7.465,-3.125c-2.952,0 -6.315,0.326 -10.07,0.955c-3.776,0.586 -7.205,1.389 -10.33,2.43l-12.066,4.688c-2.56,0.933 -5.208,1.476 -7.986,1.649c-2.777,0.13 -5.512,0.239 -8.159,0.348c-0.304,1.106 -0.565,2.213 -0.782,3.298c-0.173,1.042 -0.26,2.17 -0.26,3.386l-0,18.316c-0,2.43 0.108,4.904 0.347,7.378c0.282,2.496 0.434,4.991 0.434,7.552c0,2.995 -0.673,5.599 -1.996,7.813c-1.346,2.191 -3.776,3.298 -7.292,3.298c-2.561,0 -5.208,-0.651 -7.986,-1.91c-2.734,-1.28 -4.753,-3.038 -6.076,-5.295c-0.825,-1.519 -1.346,-3.103 -1.563,-4.774c-0.174,-1.693 -0.26,-3.385 -0.26,-5.122l-0,-5.468l2.17,-19.358l1.215,-8.333c-1.345,0.694 -3.016,1.041 -5.035,1.041c-1.866,0 -3.602,-0.26 -5.208,-0.781l-0,16.927c-0,2.431 0.043,4.905 0.174,7.379c0.108,2.495 0.173,5.013 0.173,7.552c0,6.076 -1.302,11.154 -3.906,15.278c-2.604,4.101 -7.292,6.163 -14.063,6.163c-3.776,-0 -7.335,-1.02 -10.677,-3.038c-3.363,-2.04 -5.794,-4.731 -7.291,-8.073c-0.76,-2.04 -1.216,-4.232 -1.389,-6.598c-0.13,-2.365 -0.174,-4.817 -0.174,-7.378c-4.687,-0 -9.071,-1.063 -13.107,-3.212c-4.059,-2.127 -7.292,-5.121 -9.723,-8.941c-2.43,-3.863 -3.646,-8.203 -3.646,-13.021c0,-4.166 1.563,-7.66 4.688,-10.503c1.042,-0.977 2.018,-1.932 2.951,-2.865c0.977,-0.911 1.867,-1.844 2.691,-2.777l9.636,-12.5l3.646,-5.469c-4.167,-1.215 -7.444,-2.279 -9.809,-3.212c-2.322,-0.977 -5.165,-2.951 -8.507,-5.903c-3.364,-3.233 -6.033,-7.487 -7.986,-12.76c-1.975,-5.317 -2.952,-10.265 -2.952,-14.844c0,-5.143 1.129,-10.004 3.386,-14.583c2.3,-4.558 5.23,-8.811 8.767,-12.761c3.581,-3.993 7.465,-7.66 11.632,-11.024c4.21,-3.342 8.203,-6.38 11.979,-9.115Zm88.368,50.695l-20.746,4.861l-0,0.608c-0,1.345 0.39,2.647 1.215,3.906c0.803,1.28 1.736,2.322 2.778,3.125c5.902,-1.91 11.892,-3.733 17.968,-5.469c6.077,-1.736 12.11,-3.147 18.143,-4.253c0.564,-0.521 1.649,-1.693 3.212,-3.559c1.605,-1.91 3.125,-3.776 4.513,-5.643c1.433,-1.909 2.171,-3.06 2.171,-3.472c-0,-0.282 -0.174,-0.521 -0.521,-0.694c-0.304,-0.217 -0.586,-0.348 -0.868,-0.348c-1.519,0 -3.429,0.565 -5.73,1.65c-2.256,1.041 -4.665,2.322 -7.204,3.819l-14.931,5.469Zm-102.691,0.607c2.127,-0.694 4.297,-1.562 6.511,-2.604c2.256,-1.085 4.448,-2.105 6.597,-3.038c0.217,-0.976 0.39,-2.213 0.521,-3.733c0.173,-1.562 0.26,-2.799 0.26,-3.732c-0.521,-0.391 -1.128,-1.15 -1.823,-2.257l-0.347,-0.781c-0.174,-0.282 -0.391,-0.565 -0.608,-0.868c-0.998,0.412 -2.647,1.345 -4.948,2.777c-2.257,1.389 -4.383,2.93 -6.337,4.601c-1.909,1.693 -2.864,3.082 -2.864,4.167c-0,1.215 0.26,2.257 0.781,3.125c0.521,0.868 1.259,1.649 2.257,2.343Zm100.868,83.768l0.174,5.382c1.606,-0.109 3.32,-0.391 5.121,-0.868c1.845,-0.456 3.429,-1.15 4.775,-2.084c0.694,-0.976 1.497,-2.3 2.43,-3.993c0.977,-1.671 1.476,-2.821 1.476,-3.472c-0,-0.564 -0.087,-1.215 -0.261,-1.91c-0.13,-0.737 -0.52,-1.128 -1.215,-1.128c-0.521,-0 -1.714,0.434 -3.559,1.302c-1.801,0.868 -3.559,1.823 -5.295,2.865c-1.736,0.998 -2.951,1.692 -3.646,2.083l0,1.823Z" style="fill-rule:nonzero;"/></g></g></g></svg>