<?xml version="1.0" encoding="UTF-8" standalone="no"?><!DOCTYPE svg PUBLIC "-//W3C//DTD SVG 1.1//EN" "http://www.w3.org/Graphics/SVG/1.1/DTD/svg11.dtd"><svg width="100%" height="100%" viewBox="0 0 5692 392" version="1.1" xmlns="http://www.w3.org/2000/svg" xmlns:xlink="http://www.w3.org/1999/xlink" xml:space="preserve" xmlns:serif="http://www.serif.com/" style="fill-rule:evenodd;clip-rule:evenodd;stroke-linejoin:round;stroke-miterlimit:2;"><g><clipPath id="_clip1"><rect x="303.494" y="68.186" width="249.891" height="295.595"/></clipPath><g clip-path="url(#_clip1)"><path d="M780.078,68.707c0,-0 -728.125,-0.022 -728.233,-0.022c0.108,7.183 1.974,98.85 1.909,106.792c-0.152,21.897 -1.888,48.59 -2.994,70.465c-0.5,9.831 -8.312,93.229 -15.105,103.667c0.022,-0.021 125.868,15.886 249.067,7.509c2.908,-16.949 9.05,-34.288 11.502,-51.28c2.713,-19.445 6.272,-36.849 6.619,-56.467c0.564,-32.314 -1.129,-58.941 -1.15,-93.099c-0,-1.758 2.56,-1.91 2.756,-0.152c3.928,33.268 4.969,24.848 8.051,85.829c1.801,36.002 -2.843,77.148 -4.687,113.411c121.093,14.453 140.082,12.717 248.546,-3.19c-3.711,-36.154 -3.494,-69.336 -3.473,-105.512c0.109,-50.694 -2.278,-56.597 -0.564,-96.289c0.087,-1.801 1.215,-1.78 1.324,0.022c2.192,35.329 2.018,60.915 6.467,93.468c2.582,19.422 3.602,40.668 6.836,59.96c2.908,17.014 12.022,47.179 12.087,47.179c106.88,0 112.566,4.492 219.445,4.492c-7.747,-17.144 -14.735,-125.347 -15.126,-134.787c-0.282,-6.315 -3.798,-131.684 -3.277,-151.996" style="fill:#c40000;fill-rule:nonzero;"/></g></g><g><clipPath id="_clip2"><rect x="303.494" y="44.444" width="249.891" height="10.525"/></clipPath><g clip-path="url(#_clip2)"><path d="M836.892,54.644l-841.948,0l-0,-9.7l841.948,-0l0,9.7" style="fill:#d4983d;fill-rule:nonzero;"/></g></g><g><clipPath id="_clip3"><rect x="303.494" y="33.333" width="249.891" height="14.063"/></clipPath><g clip-path="url(#_clip3)"><path d="M836.892,46.81l-841.948,-0l-0,-13.151l841.948,-0l0,13.151" style="fill:#d4983d;fill-rule:nonzero;"/></g></g><g><clipPath id="_clip4"><rect x="303.494" y="26.432" width="24.284" height="51.345"/></clipPath><g clip-path="url(#_clip4)"><path d="M323.155,77.669l-42.838,0l-0,-51.063l42.838,-0l0,51.063" style="fill:#c40000;fill-rule:nonzero;"/></g></g><g><path d="M551.541,77.669l-42.839,0l0,-51.063l42.839,-0l-0,51.063" style="fill:#c40000;fill-rule:nonzero;"/></g><g><path d="M548.893,73.568l-37.695,-0l-0,-46.962l37.695,-0l0,46.962" style="fill:#c40000;fill-rule:nonzero;"/></g><g><clipPath id="_clip5"><rect x="303.494" y="26.432" width="18.728" height="51.345"/></clipPath><g clip-path="url(#_clip5)"><path d="M320.486,73.568l-37.695,-0l-0,-46.962l37.695,-0l0,46.962" style="fill:#c40000;fill-rule:nonzero;"/></g></g><g><clipPath id="_clip6"><rect x="547.266" y="68.186" width="249.87" height="295.595"/></clipPath><g clip-path="url(#_clip6)"><path d="M1023.85,68.707c-0,-0 -728.125,-0.022 -728.234,-0.022c0.109,7.183 1.975,98.85 1.91,106.792c-0.152,21.897 -1.888,48.59 -3.016,70.465c-0.478,9.831 -8.29,93.229 -15.083,103.667c0.022,-0.021 125.846,15.886 249.067,7.509c2.908,-16.949 9.049,-34.288 11.502,-51.28c2.691,-19.445 6.271,-36.849 6.619,-56.467c0.564,-32.314 -1.129,-58.941 -1.151,-93.099c0,-1.758 2.539,-1.91 2.756,-0.152c3.928,33.268 4.97,24.848 8.052,85.829c1.801,36.002 -2.843,77.148 -4.709,113.411c121.115,14.453 140.104,12.717 248.567,-3.19c-3.711,-36.154 -3.494,-69.336 -3.472,-105.512c0.108,-50.694 -2.279,-56.597 -0.564,-96.289c0.065,-1.801 1.215,-1.78 1.324,0.022c2.191,35.329 2.018,60.915 6.467,93.468c2.56,19.422 3.602,40.668 6.835,59.96c2.908,17.014 12.023,47.179 12.088,47.179c106.88,0 112.565,4.492 219.445,4.492c-7.748,-17.144 -14.736,-125.347 -15.126,-134.787c-0.282,-6.315 -3.798,-131.684 -3.277,-151.996" style="fill:#c40000;fill-rule:nonzero;"/></g></g><g><clipPath id="_clip7"><rect x="547.266" y="44.444" width="249.87" height="10.525"/></clipPath><g clip-path="url(#_clip7)"><path d="M1080.66,54.644l-841.949,0l0,-9.7l841.949,-0l0,9.7" style="fill:#d4983d;fill-rule:nonzero;"/></g></g><g><clipPath id="_clip8"><rect x="547.266" y="33.333" width="249.87" height="14.063"/></clipPath><g clip-path="url(#_clip8)"><path d="M1080.66,46.81l-841.949,-0l0,-13.151l841.949,-0l0,13.151" style="fill:#d4983d;fill-rule:nonzero;"/></g></g><g><clipPath id="_clip9"><rect x="547.266" y="26.432" width="24.957" height="51.345"/></clipPath><g clip-path="url(#_clip9)"><path d="M566.905,77.669l-42.816,0l-0,-51.063l42.816,-0l0,51.063" style="fill:#c40000;fill-rule:nonzero;"/></g></g><g><path d="M795.313,77.669l-42.839,0l-0,-51.063l42.839,-0l-0,51.063" style="fill:#c40000;fill-rule:nonzero;"/></g><g><path d="M792.665,73.568l-37.695,-0l-0,-46.962l37.695,-0l-0,46.962" style="fill:#c40000;fill-rule:nonzero;"/></g><g><clipPath id="_clip10"><rect x="547.266" y="26.432" width="19.401" height="51.345"/></clipPath><g clip-path="url(#_clip10)"><path d="M564.258,73.568l-37.696,-0l0,-46.962l37.696,-0l-0,46.962" style="fill:#c40000;fill-rule:nonzero;"/></g></g><g><clipPath id="_clip11"><rect x="791.037" y="68.186" width="249.87" height="295.595"/></clipPath><g clip-path="url(#_clip11)"><path d="M1267.62,68.707c-0,-0 -728.147,-0.022 -728.234,-0.022c0.087,7.183 1.975,98.85 1.91,106.792c-0.152,21.897 -1.888,48.59 -3.017,70.465c-0.499,9.831 -8.29,93.229 -15.082,103.667c-0,-0.021 125.846,15.886 249.067,7.509c2.908,-16.949 9.049,-34.288 11.501,-51.28c2.691,-19.445 6.272,-36.849 6.619,-56.467c0.565,-32.314 -1.128,-58.941 -1.15,-93.099c0,-1.758 2.539,-1.91 2.756,-0.152c3.928,33.268 4.97,24.848 8.051,85.829c1.802,36.002 -2.842,77.148 -4.709,113.411c121.116,14.453 140.104,12.717 248.568,-3.19c-3.711,-36.154 -3.516,-69.336 -3.472,-105.512c0.108,-50.694 -2.279,-56.597 -0.565,-96.289c0.066,-1.801 1.216,-1.78 1.324,0.022c2.192,35.329 2.018,60.915 6.467,93.468c2.561,19.422 3.603,40.668 6.836,59.96c2.908,17.014 12.023,47.179 12.088,47.179c106.879,0 112.565,4.492 219.444,4.492c-7.747,-17.144 -14.735,-125.347 -15.147,-134.787c-0.261,-6.315 -3.776,-131.684 -3.255,-151.996" style="fill:#c40000;fill-rule:nonzero;"/></g></g><g><clipPath id="_clip12"><rect x="791.037" y="44.444" width="249.87" height="10.525"/></clipPath><g clip-path="url(#_clip12)"><path d="M1324.44,54.644l-841.949,0l-0,-9.7l841.949,-0l-0,9.7" style="fill:#d4983d;fill-rule:nonzero;"/></g></g><g><clipPath id="_clip13"><rect x="791.037" y="33.333" width="249.87" height="14.063"/></clipPath><g clip-path="url(#_clip13)"><path d="M1324.44,46.81l-841.949,-0l-0,-13.151l841.949,-0l-0,13.151" style="fill:#d4983d;fill-rule:nonzero;"/></g></g><g><clipPath id="_clip14"><rect x="791.037" y="26.432" width="20.074" height="51.345"/></clipPath><g clip-path="url(#_clip14)"><path d="M810.677,77.669l-42.838,0l-0,-51.063l42.838,-0l0,51.063" style="fill:#c40000;fill-rule:nonzero;"/></g></g><g><path d="M1039.08,77.669l-42.838,0l-0,-51.063l42.838,-0l0,51.063" style="fill:#c40000;fill-rule:nonzero;"/></g><g><path d="M1036.44,73.568l-37.696,-0l0,-46.962l37.696,-0l-0,46.962" style="fill:#c40000;fill-rule:nonzero;"/></g><g><clipPath id="_clip15"><rect x="791.037" y="26.432" width="20.074" height="51.345"/></clipPath><g clip-path="url(#_clip15)"><path d="M808.03,73.568l-37.696,-0l0,-46.962l37.696,-0l-0,46.962" style="fill:#c40000;fill-rule:nonzero;"/></g></g><g><clipPath id="_clip16"><rect x="1524.39" y="68.186" width="246.94" height="295.595"/></clipPath><g clip-path="url(#_clip16)"><path d="M1751.15,68.707c0,-0 -728.125,-0.022 -728.233,-0.022c0.108,7.183 1.974,98.85 1.909,106.792c-0.152,21.897 -1.888,48.59 -3.016,70.465c-0.478,9.831 -8.29,93.229 -15.083,103.667c0.022,-0.021 125.847,15.886 249.067,7.509c2.908,-16.949 9.05,-34.288 11.502,-51.28c2.691,-19.445 6.272,-36.849 6.619,-56.467c0.564,-32.314 -1.129,-58.941 -1.15,-93.099c-0,-1.758 2.539,-1.91 2.756,-0.152c3.928,33.268 4.969,24.848 8.051,85.829c1.801,36.002 -2.843,77.148 -4.709,113.411c121.115,14.453 140.104,12.717 248.568,-3.19c-3.711,-36.154 -3.494,-69.336 -3.473,-105.512c0.109,-50.694 -2.278,-56.597 -0.564,-96.289c0.065,-1.801 1.215,-1.78 1.324,0.022c2.192,35.329 2.018,60.915 6.467,93.468c2.561,19.422 3.602,40.668 6.836,59.96c2.908,17.014 12.022,47.179 12.088,47.179c106.879,0 112.565,4.492 219.444,4.492c-7.747,-17.144 -14.735,-125.347 -15.126,-134.787c-0.282,-6.315 -3.798,-131.684 -3.277,-151.996" style="fill:#c40000;fill-rule:nonzero;"/></g></g><g><clipPath id="_clip17"><rect x="1524.39" y="44.444" width="282.878" height="10.525"/></clipPath><g clip-path="url(#_clip17)"><path d="M1807.96,54.644l-841.948,0l-0,-9.7l841.948,-0l0,9.7" style="fill:#d4983d;fill-rule:nonzero;"/></g></g><g><clipPath id="_clip18"><rect x="1524.39" y="33.333" width="282.878" height="14.063"/></clipPath><g clip-path="url(#_clip18)"><path d="M1807.96,46.81l-841.948,-0l-0,-13.151l841.948,-0l0,13.151" style="fill:#d4983d;fill-rule:nonzero;"/></g></g><g><path d="M1751,77.669l-42.817,0l0,-51.063l42.817,-0l0,51.063" style="fill:#c40000;fill-rule:nonzero;"/></g><g><path d="M1748.37,73.568l-37.695,-0l0,-46.962l37.695,-0l0,46.962" style="fill:#c40000;fill-rule:nonzero;"/></g><g><clipPath id="_clip19"><rect x="39.692" y="68.186" width="268.49" height="295.595"/></clipPath><g clip-path="url(#_clip19)"><path d="M785.135,68.707c-0,-0 -728.147,-0.022 -728.256,-0.022c0.109,7.183 1.997,98.85 1.932,106.792c-0.152,21.897 -1.91,48.59 -3.017,70.465c-0.499,9.831 -8.29,93.229 -15.082,103.667c-0,-0.021 125.846,15.886 249.067,7.509c2.886,-16.949 9.049,-34.288 11.501,-51.28c2.691,-19.445 6.25,-36.849 6.598,-56.467c0.586,-32.314 -1.107,-58.941 -1.129,-93.099c0,-1.758 2.539,-1.91 2.756,-0.152c3.928,33.268 4.97,24.848 8.051,85.829c1.802,36.002 -2.842,77.148 -4.709,113.411c121.116,14.453 140.104,12.717 248.546,-3.19c-3.689,-36.154 -3.494,-69.336 -3.45,-105.512c0.108,-50.694 -2.279,-56.597 -0.565,-96.289c0.066,-1.801 1.216,-1.78 1.324,0.022c2.17,35.329 2.018,60.915 6.467,93.468c2.561,19.422 3.581,40.668 6.836,59.96c2.886,17.014 12.001,47.179 12.088,47.179c106.879,0 112.543,4.492 219.423,4.492c-7.726,-17.144 -14.714,-125.347 -15.126,-134.787c-0.261,-6.315 -3.798,-131.684 -3.255,-151.996" style="fill:#c40000;fill-rule:nonzero;"/></g></g><g><clipPath id="_clip20"><rect x="0" y="44.444" width="308.181" height="10.525"/></clipPath><g clip-path="url(#_clip20)"><path d="M841.949,54.644l-841.949,0l0,-9.7l841.949,-0l-0,9.7" style="fill:#d4983d;fill-rule:nonzero;"/></g></g><g><clipPath id="_clip21"><rect x="0" y="33.333" width="308.181" height="14.063"/></clipPath><g clip-path="url(#_clip21)"><path d="M841.949,46.81l-841.949,-0l0,-13.151l841.949,-0l-0,13.151" style="fill:#d4983d;fill-rule:nonzero;"/></g></g><g><path d="M99.805,77.669l-42.839,0l0,-51.063l42.839,-0l-0,51.063" style="fill:#c40000;fill-rule:nonzero;"/></g><g><clipPath id="_clip22"><rect x="283.333" y="26.432" width="24.848" height="51.345"/></clipPath><g clip-path="url(#_clip22)"><path d="M328.19,77.669l-42.838,0l-0,-51.063l42.838,-0l0,51.063" style="fill:#c40000;fill-rule:nonzero;"/></g></g><g><path d="M97.135,73.568l-37.695,-0l0,-46.962l37.695,-0l0,46.962" style="fill:#c40000;fill-rule:nonzero;"/></g><g><clipPath id="_clip23"><rect x="283.333" y="26.432" width="24.848" height="51.345"/></clipPath><g clip-path="url(#_clip23)"><path d="M325.543,73.568l-37.696,-0l0,-46.962l37.696,-0l-0,46.962" style="fill:#c40000;fill-rule:nonzero;"/></g></g><g><clipPath id="_clip24"><rect x="1034.74" y="68.186" width="249.87" height="295.595"/></clipPath><g clip-path="url(#_clip24)"><path d="M1511.33,68.707c0,-0 -728.147,-0.022 -728.233,-0.022c0.086,7.183 1.974,98.85 1.909,106.792c-0.152,21.897 -1.888,48.59 -3.016,70.465c-0.499,9.831 -8.29,93.229 -15.083,103.667c0,-0.021 125.847,15.886 249.067,7.509c2.908,-16.949 9.05,-34.288 11.502,-51.28c2.691,-19.445 6.272,-36.849 6.619,-56.467c0.564,-32.314 -1.129,-58.941 -1.15,-93.099c-0,-1.758 2.539,-1.91 2.756,-0.152c3.928,33.268 4.969,24.848 8.051,85.829c1.801,36.002 -2.843,77.148 -4.709,113.411c121.115,14.453 140.104,12.717 248.568,-3.19c-3.711,-36.154 -3.516,-69.336 -3.473,-105.512c0.109,-50.694 -2.278,-56.597 -0.564,-96.289c0.065,-1.801 1.215,-1.78 1.324,0.022c2.192,35.329 2.018,60.915 6.467,93.468c2.561,19.422 3.602,40.668 6.836,59.96c2.908,17.014 12.022,47.179 12.087,47.179c106.88,0 112.566,4.492 219.445,4.492c-7.747,-17.144 -14.735,-125.347 -15.126,-134.787c-0.282,-6.315 -3.798,-131.684 -3.277,-151.996" style="fill:#c40000;fill-rule:nonzero;"/></g></g><g><clipPath id="_clip25"><rect x="1034.74" y="44.444" width="249.87" height="10.525"/></clipPath><g clip-path="url(#_clip25)"><path d="M1568.14,54.644l-841.948,0l-0,-9.7l841.948,-0l0,9.7" style="fill:#d4983d;fill-rule:nonzero;"/></g></g><g><clipPath id="_clip26"><rect x="1034.74" y="33.333" width="249.87" height="14.063"/></clipPath><g clip-path="url(#_clip26)"><path d="M1568.14,46.81l-841.948,-0l-0,-13.151l841.948,-0l0,13.151" style="fill:#d4983d;fill-rule:nonzero;"/></g></g><g><clipPath id="_clip27"><rect x="1034.74" y="26.432" width="20.812" height="51.345"/></clipPath><g clip-path="url(#_clip27)"><path d="M1054.38,77.669l-42.839,0l0,-51.063l42.839,-0l-0,51.063" style="fill:#c40000;fill-rule:nonzero;"/></g></g><g><path d="M1282.79,77.669l-42.839,0l0,-51.063l42.839,-0l-0,51.063" style="fill:#c40000;fill-rule:nonzero;"/><path d="M1280.14,73.568l-37.695,-0l-0,-46.962l37.695,-0l0,46.962" style="fill:#c40000;fill-rule:nonzero;"/></g><g><clipPath id="_clip28"><rect x="1034.74" y="26.432" width="20.812" height="51.345"/></clipPath><g clip-path="url(#_clip28)"><path d="M1051.74,73.568l-37.695,-0l-0,-46.962l37.695,-0l0,46.962" style="fill:#c40000;fill-rule:nonzero;"/></g></g><g><clipPath id="_clip29"><rect x="1278.12" y="68.186" width="249.87" height="295.595"/></clipPath><g clip-path="url(#_clip29)"><path d="M1754.71,68.707c0,-0 -728.147,-0.022 -728.255,-0.022c0.108,7.183 1.997,98.85 1.931,106.792c-0.151,21.897 -1.909,48.59 -3.016,70.465c-0.499,9.831 -8.29,93.229 -15.083,103.667c0,-0.021 125.847,15.886 249.067,7.509c2.887,-16.949 9.05,-34.288 11.48,-51.28c2.713,-19.445 6.272,-36.849 6.619,-56.467c0.586,-32.314 -1.107,-58.941 -1.128,-93.099c-0,-1.758 2.539,-1.91 2.756,-0.152c3.928,33.268 4.969,24.848 8.029,85.829c1.823,36.002 -2.843,77.148 -4.687,113.411c121.115,14.453 140.104,12.717 248.546,-3.19c-3.689,-36.154 -3.494,-69.336 -3.472,-105.512c0.13,-50.694 -2.257,-56.597 -0.543,-96.289c0.065,-1.801 1.215,-1.78 1.324,0.022c2.17,35.329 2.018,60.915 6.467,93.468c2.561,19.422 3.581,40.668 6.836,59.96c2.886,17.014 12.001,47.179 12.088,47.179c106.879,0 112.543,4.492 219.422,4.492c-7.747,-17.144 -14.713,-125.347 -15.126,-134.787c-0.26,-6.315 -3.797,-131.684 -3.255,-151.996" style="fill:#c40000;fill-rule:nonzero;"/></g></g><g><clipPath id="_clip30"><rect x="1278.12" y="44.444" width="249.87" height="10.525"/></clipPath><g clip-path="url(#_clip30)"><path d="M1811.52,54.644l-841.948,0l-0,-9.7l841.948,-0l0,9.7" style="fill:#d4983d;fill-rule:nonzero;"/></g></g><g><clipPath id="_clip31"><rect x="1278.12" y="33.333" width="249.87" height="14.063"/></clipPath><g clip-path="url(#_clip31)"><path d="M1811.52,46.81l-841.948,-0l-0,-13.151l841.948,-0l0,13.151" style="fill:#d4983d;fill-rule:nonzero;"/></g></g><g><clipPath id="_clip32"><rect x="1278.12" y="26.432" width="21.875" height="51.345"/></clipPath><g clip-path="url(#_clip32)"><path d="M1297.77,77.669l-42.839,0l0,-51.063l42.839,-0l-0,51.063" style="fill:#c40000;fill-rule:nonzero;"/></g></g><g><path d="M1526.17,77.669l-42.839,0l0,-51.063l42.839,-0l-0,51.063" style="fill:#c40000;fill-rule:nonzero;"/><path d="M1523.52,73.568l-37.695,-0l-0,-46.962l37.695,-0l0,46.962" style="fill:#c40000;fill-rule:nonzero;"/></g><g><clipPath id="_clip33"><rect x="1278.12" y="26.432" width="21.875" height="51.345"/></clipPath><g clip-path="url(#_clip33)"><path d="M1295.12,73.568l-37.695,-0l-0,-46.962l37.695,-0l0,46.962" style="fill:#c40000;fill-rule:nonzero;"/></g></g><g><clipPath id="_clip34"><rect x="95.768" y="26.432" width="20.812" height="66.645"/></clipPath><g clip-path="url(#_clip34)"><rect x="97.244" y="-124.306" width="217.773" height="217.773" style="fill:#c40000;fill-rule:nonzero;"/><path d="M315.017,94.944l-217.773,-0c-0.825,-0 -1.476,-0.651 -1.476,-1.476l0,-217.774c0,-0.824 0.651,-1.475 1.476,-1.475l217.773,-0c0.825,-0 1.476,0.651 1.476,1.475l0,217.774c0,0.825 -0.651,1.476 -1.476,1.476Zm-216.319,-2.93l214.844,-0l-0,-214.844l-214.844,0l-0,214.844Z" style="fill:#c40000;fill-rule:nonzero;"/></g></g><g><clipPath id="_clip35"><rect x="318.012" y="26.432" width="20.812" height="66.645"/></clipPath><g clip-path="url(#_clip35)"><rect x="319.466" y="-124.306" width="217.795" height="217.773" style="fill:#c40000;fill-rule:nonzero;"/><path d="M537.261,94.944l-217.795,-0c-0.825,-0 -1.454,-0.651 -1.454,-1.476l0,-217.774c0,-0.824 0.629,-1.475 1.454,-1.475l217.795,-0c0.825,-0 1.476,0.651 1.476,1.475l-0,217.774c-0,0.825 -0.651,1.476 -1.476,1.476Zm-216.319,-2.93l214.844,-0l-0,-214.844l-214.844,0l-0,214.844Z" style="fill:#c40000;fill-rule:nonzero;"/></g></g><g><clipPath id="_clip36"><rect x="1522.22" y="26.432" width="19.358" height="66.645"/></clipPath><g clip-path="url(#_clip36)"><rect x="1522.22" y="-124.306" width="217.773" height="217.773" style="fill:#c40000;fill-rule:nonzero;"/></g></g><g><clipPath id="_clip37"><rect x="1520.75" y="26.432" width="20.833" height="66.645"/></clipPath><g clip-path="url(#_clip37)"><path d="M1740,94.944l-217.774,-0c-0.824,-0 -1.475,-0.651 -1.475,-1.476l-0,-217.774c-0,-0.824 0.651,-1.475 1.475,-1.475l217.774,-0c0.824,-0 1.475,0.651 1.475,1.475l0,217.774c0,0.825 -0.651,1.476 -1.475,1.476Zm-216.298,-2.93l214.844,-0l-0,-214.844l-214.844,0l-0,214.844Z" style="fill:#c40000;fill-rule:nonzero;"/></g></g><g><clipPath id="_clip38"><rect x="1689.71" y="26.432" width="20.833" height="66.645"/></clipPath><g clip-path="url(#_clip38)"><rect x="1691.19" y="-124.306" width="217.773" height="217.773" style="fill:#c40000;fill-rule:nonzero;"/><path d="M1908.96,94.944l-217.774,-0c-0.824,-0 -1.475,-0.651 -1.475,-1.476l-0,-217.774c-0,-0.824 0.651,-1.475 1.475,-1.475l217.774,-0c0.824,-0 1.475,0.651 1.475,1.475l0,217.774c0,0.825 -0.651,1.476 -1.475,1.476Zm-216.298,-2.93l214.844,-0l-0,-214.844l-214.844,0l-0,214.844Z" style="fill:#c40000;fill-rule:nonzero;"/></g></g><g><path d="M272.331,168.077c-0,-0.021 -0.022,-0.043 -0.044,-0.065c-1.193,-2.322 -2.908,-4.167 -5.165,-5.534c-2.235,-1.367 -4.665,-2.04 -7.291,-2.04l-59.744,0l-0,-4.687l65.191,-0l-5.035,-6.185c-4.861,-5.99 -10.308,-11.372 -16.384,-16.124c-6.055,-4.774 -12.566,-8.789 -19.532,-12.11c-6.966,-3.298 -14.192,-5.794 -21.723,-7.487c-7.53,-1.692 -15.126,-2.539 -22.851,-2.517c-57.249,0 -103.82,46.571 -103.82,103.82c0,9.288 1.215,18.402 3.646,27.343c0.26,1.02 0.868,1.78 1.78,2.301c0.911,0.52 1.866,0.651 2.886,0.369c0.998,-0.261 1.779,-0.868 2.278,-1.78c0.521,-0.89 0.651,-1.866 0.369,-2.865c-2.257,-8.311 -3.385,-16.753 -3.385,-25.368c-0,-53.06 43.186,-96.246 96.246,-96.246c11.979,-0.022 23.546,2.127 34.722,6.445c11.154,4.319 21.18,10.504 30.013,18.577c1.519,1.367 -110.048,8.572 -110.048,8.572l0,3.255l24.631,-0l0,4.687l-24.631,0l0,3.256c0,-0 10.07,-0.131 24.631,0.065l0,19.856c0,30.426 -24.761,55.187 -55.186,55.187c-0.76,-0.022 -1.411,0.217 -1.954,0.76c-0.564,0.52 -0.824,1.172 -0.824,1.931c-0,0.781 0.26,1.411 0.824,1.953c0.543,0.521 1.194,0.781 1.954,0.76c8.116,0.021 15.928,-1.563 23.415,-4.709c-0.911,0.846 -1.15,1.844 -0.694,2.994c0.434,1.15 1.28,1.715 2.517,1.715c22.765,-0 41.298,-27.192 41.298,-60.591l0,-19.683l0.499,0.022l0,19.661c0,31.576 -8.746,55.187 -16.58,55.187c-0.738,0.022 -1.345,0.282 -1.866,0.803c-0.521,0.543 -0.76,1.172 -0.76,1.888c0,0.738 0.239,1.367 0.76,1.888c0.521,0.543 1.128,0.803 1.866,0.825c14.301,-0 22.005,-31.207 22.005,-60.591l0,-19.531l0.521,0.022l0,77.387c0,0.76 0.261,1.389 0.782,1.931c0.542,0.521 1.171,0.782 1.931,0.782c0.738,-0 1.367,-0.261 1.91,-0.782c0.521,-0.542 0.781,-1.171 0.781,-1.931l-0,-77.235l0.521,0.022l-0,19.335c-0,29.384 7.704,60.591 22.005,60.591c0.738,-0.022 1.345,-0.282 1.866,-0.825c0.521,-0.521 0.76,-1.15 0.76,-1.888c-0,-0.716 -0.239,-1.345 -0.76,-1.888c-0.521,-0.521 -1.128,-0.781 -1.866,-0.803c-7.834,0 -16.58,-23.611 -16.58,-55.187l0,-19.162l0.499,0.022l0,19.14c0,33.421 18.533,60.591 41.298,60.591c1.237,0.021 2.083,-0.565 2.539,-1.715c0.456,-1.15 0.217,-2.148 -0.694,-2.994c7.487,3.146 15.277,4.709 23.394,4.709c0.759,0.021 1.41,-0.239 1.953,-0.76c0.564,-0.542 0.825,-1.193 0.825,-1.953c-0,-0.759 -0.261,-1.411 -0.825,-1.931c-0.543,-0.543 -1.194,-0.803 -1.953,-0.782c-30.426,0 -55.187,-24.739 -55.187,-55.165l0,-18.619c26.085,1.345 52.083,3.993 61.415,9.223c12.782,7.14 14.54,26.15 14.54,40.929c-0,4.926 -0.369,9.809 -1.107,14.648c-0.738,4.861 -1.844,9.635 -3.32,14.323c-1.476,4.687 -3.277,9.223 -5.447,13.628c-2.17,4.406 -4.666,8.616 -7.487,12.652c-2.821,4.015 -5.925,7.791 -9.31,11.35c-3.407,3.537 -7.053,6.814 -10.938,9.787c-3.906,2.995 -8.007,5.665 -12.304,8.03c-4.319,2.365 -8.768,4.384 -13.39,6.055l-0.043,-0c-1.65,0.607 -2.995,1.627 -4.015,3.081c-1.02,1.454 -1.541,3.06 -1.541,4.84l0,2.018c0,0.89 -0.304,1.671 -0.955,2.3c-0.629,0.63 -1.389,0.955 -2.3,0.955l-48.199,0c-0.911,0 -1.671,-0.325 -2.3,-0.955c-0.651,-0.629 -0.955,-1.41 -0.955,-2.3l-0,-2.018c-0,-1.78 -0.521,-3.386 -1.541,-4.84c-1.02,-1.454 -2.365,-2.474 -4.015,-3.081l-0.065,-0.022c-11.285,-4.08 -21.441,-10.069 -30.469,-17.99c-9.027,-7.9 -16.297,-17.166 -21.853,-27.8c-1.128,-2.17 0.478,-4.731 2.908,-4.731l162.565,0c0.564,-0.022 1.107,-0.13 1.628,-0.39c0.521,-0.239 0.955,-0.586 1.324,-1.042c0.347,-0.434 0.607,-0.933 0.737,-1.498c0.131,-0.564 0.131,-1.106 0.022,-1.671c-0.369,-1.779 -2.018,-2.994 -3.819,-2.994l-163.737,-0c-7.487,-0 -12.348,7.877 -8.985,14.561l0.044,0.087c5.816,11.524 13.498,21.593 23.09,30.23c9.592,8.616 20.399,15.234 32.465,19.813c1.389,0.521 2.105,1.541 2.105,3.039l0,1.432c0,1.28 0.261,2.539 0.738,3.733c0.499,1.193 1.215,2.235 2.127,3.168c0.911,0.911 1.953,1.606 3.168,2.105c1.194,0.499 2.431,0.738 3.733,0.738l50.369,-0c1.302,-0 2.539,-0.239 3.733,-0.738c1.193,-0.499 2.257,-1.194 3.168,-2.105c0.911,-0.933 1.606,-1.975 2.105,-3.168c0.499,-1.194 0.738,-2.453 0.738,-3.733l-0,-1.432c0.022,-1.498 0.716,-2.518 2.127,-3.039c3.385,-1.302 6.705,-2.777 9.939,-4.427c3.233,-1.627 6.38,-3.45 9.418,-5.425c3.06,-1.975 5.99,-4.102 8.811,-6.38c2.821,-2.279 5.534,-4.709 8.095,-7.27c2.56,-2.561 4.991,-5.252 7.291,-8.073c2.279,-2.821 4.406,-5.751 6.402,-8.789c1.975,-3.038 3.798,-6.185 5.447,-9.419c1.65,-3.211 3.125,-6.532 4.427,-9.917c1.302,-3.385 2.431,-6.836 3.364,-10.33c0.955,-3.516 1.714,-7.053 2.279,-10.655c0.586,-3.581 0.955,-7.183 1.15,-10.808c0.195,-3.624 0.195,-7.248 0.022,-10.872c-0.196,-3.624 -0.565,-7.227 -1.129,-10.807c-0.564,-3.603 -1.324,-7.14 -2.257,-10.656c-0.933,-3.494 -2.04,-6.944 -3.342,-10.33c-1.302,-3.407 -2.778,-6.705 -4.405,-9.939Zm-77.67,-7.639l-0.52,0l-0,-4.687l0.52,-0l0,4.687Zm-30.164,-4.687l0.499,-0l-0,4.687l-0.499,0l-0,-4.687Zm0.499,27.864c-0,30.426 -16.081,55.187 -35.873,55.187l-0.217,0c20.964,-9.549 35.591,-30.686 35.591,-55.187l-0,-19.791l0.499,-0l-0,19.791Zm5.425,-23.177l0,-4.687l0.521,-0l-0,4.687l-0.521,0Zm5.924,0l0,-4.687l0.521,-0l0,4.687l-0.521,0Zm5.947,0l-0,-4.687l0.499,-0l-0,4.687l-0.499,0Zm5.924,0l0,-4.687l0.521,-0l-0,4.687l-0.521,0Zm42.036,78.364l-0.217,0c-19.792,0 -35.894,-24.761 -35.894,-55.187l-0,-18.901l0.52,0.021l0,18.88c0,24.501 14.605,45.638 35.591,55.187Z" style="fill-rule:nonzero;"/></g><g><clipPath id="_clip39"><rect x="1751.3" y="33.312" width="3937.59" height="22.439"/></clipPath><g clip-path="url(#_clip39)"><rect x="1751.3" y="33.312" width="4424.09" height="22.439" style="fill:#d4983d;fill-rule:nonzero;"/></g></g><g><g><g><path d="M341.82,243.468c-0.173,-1.215 -0.26,-2.018 -0.26,-2.43l0,-0.608c0,-1.085 0.195,-2.105 0.608,-3.038c0.564,-1.085 1.345,-2.018 2.343,-2.778c1.042,-0.803 2.127,-1.215 3.299,-1.215c0.977,-0 1.997,0.173 3.038,0.521c1.085,0.303 2.908,1.041 5.469,2.257c1.497,-0.803 3.06,-1.476 4.687,-1.997c0.803,-0.282 1.585,-0.564 2.344,-0.868c0.803,-0.347 1.606,-0.716 2.431,-1.128c-0.13,-0.391 -0.391,-1.151 -0.782,-2.257c-0.412,-1.085 -0.868,-1.65 -1.388,-1.65c-0.413,0 -0.934,0.087 -1.563,0.261c-0.586,0.13 -1.085,0.238 -1.476,0.347c-2.04,0.412 -4.513,0.608 -7.465,0.608c-3.537,-0 -6.684,-0.651 -9.462,-1.997c-2.734,-1.324 -5.295,-3.255 -7.725,-5.816c-0.825,-0.803 -1.541,-1.693 -2.171,-2.691c-0.585,-1.042 -0.868,-2.17 -0.868,-3.385c0,-1.91 0.456,-3.386 1.389,-4.427c0.977,-1.085 1.932,-1.758 2.865,-1.997c0.976,-0.282 1.953,-0.608 2.951,-0.955c0.977,-0.347 1.953,-0.629 2.952,-0.868c0.629,-0.282 1.237,-0.542 1.823,-0.781c0.629,-0.282 0.954,-0.521 0.954,-0.695c0,-0.39 -0.672,-1.237 -1.996,-2.517c-1.346,-1.259 -2.3,-2.105 -2.865,-2.517c-1.562,-1.216 -3.168,-3.169 -4.774,-5.903c-1.628,-2.778 -2.431,-5.23 -2.431,-7.378c0,-3.343 0.825,-6.077 2.518,-8.16c1.671,-2.084 3.993,-3.668 6.944,-4.775c-2.669,-1.909 -4.904,-3.602 -6.684,-5.121c-1.736,-1.563 -2.604,-3.407 -2.604,-5.556c0,-1.497 0.434,-2.712 1.302,-3.645c0.868,-0.912 2.04,-1.997 3.559,-3.212c1.042,-0.977 2.192,-1.823 3.472,-2.518c1.324,-0.737 2.648,-1.475 3.993,-2.17c1.737,-0.803 3.581,-1.606 5.556,-2.43c1.953,-0.803 3.472,-1.476 4.514,-1.997c-1.215,-0.911 -2.257,-1.693 -3.125,-2.344c-0.868,-0.694 -1.866,-1.519 -2.951,-2.517c-0.651,-0.629 -1.281,-1.411 -1.91,-2.344c-0.586,-0.976 -0.868,-1.931 -0.868,-2.864c-0,-1.085 0.434,-2.257 1.302,-3.472c0.868,-1.216 2.17,-2.735 3.906,-4.601c1.91,-2.018 4.709,-3.472 8.42,-4.34c3.689,-0.869 6.814,-1.303 9.375,-1.303c3.342,0 6.901,0.565 10.677,1.65c3.755,1.041 6.706,2.235 8.854,3.559c0.695,0.412 1.672,1.02 2.952,1.823c1.259,0.824 2.192,1.215 2.778,1.215c0.911,-0 2.257,-0.195 3.993,-0.608c1.497,-0.282 3.125,-0.542 4.861,-0.781c1.736,-0.282 3.342,-0.434 4.861,-0.434c5.078,0 10.178,0.998 15.278,2.951c5.143,1.975 8.854,5.165 11.111,9.549c0.39,0.825 0.694,1.975 0.868,3.472c0.217,1.454 0.347,2.735 0.347,3.82c-0.651,3.255 -1.866,5.534 -3.646,6.857c-1.736,1.346 -3.884,2.149 -6.423,2.431c-2.431,0.13 -5.469,0.325 -9.115,0.608l-0.955,-0.174l1.389,1.562c3.646,1.628 6.945,4.471 9.896,8.507c0.911,-0.694 1.779,-1.388 2.604,-2.083c0.803,-0.738 1.606,-1.519 2.431,-2.344c2.126,-2.192 5.056,-4.362 8.767,-6.51c3.689,-2.127 7.596,-3.928 11.719,-5.382c4.101,-1.497 7.769,-2.257 11.024,-2.257l-0.26,-0.608c-0.933,-1.215 -2.04,-2.191 -3.299,-2.951c-1.28,-0.738 -2.669,-1.519 -4.167,-2.344c-1.345,-0.629 -2.387,-1.844 -3.125,-3.646c-0.759,-1.844 -1.128,-3.428 -1.128,-4.774c-0,-1.497 0.608,-2.886 1.823,-4.167c1.215,-1.258 2.365,-2.17 3.472,-2.691c2.127,-1.215 4.688,-2.105 7.639,-2.691c2.951,-0.629 5.642,-0.954 8.073,-0.954c6.988,-0 12.956,0.672 17.882,1.996c4.904,1.346 10.199,4.167 15.885,8.507c3.06,2.257 5.599,4.948 7.639,8.073c2.018,3.082 3.038,6.641 3.038,10.677c0,2.149 -0.672,3.971 -1.996,5.469c-0.998,0.933 -1.953,1.779 -2.865,2.517c-0.933,0.76 -1.953,1.346 -3.038,1.736c-2.257,0.825 -4.688,1.476 -7.292,1.997c-2.56,0.521 -5.099,0.781 -7.639,0.781l-15.104,0.261c-2.213,-0 -5.36,0.412 -9.462,1.215c-4.058,0.759 -8.051,1.736 -11.979,2.951c-3.884,1.215 -6.771,2.518 -8.68,3.906c-0.239,0.131 -0.347,0.434 -0.347,0.955c-0,0.521 0.043,0.999 0.173,1.389c2.821,1.801 4.991,3.798 6.511,5.99c1.562,2.213 2.474,5.078 2.777,8.594l0.174,0.607c2.539,-1.085 4.991,-2.452 7.378,-4.08c2.366,-1.606 4.775,-3.081 7.205,-4.427c3.581,-2.257 7.509,-4.036 11.806,-5.382c4.34,-1.389 8.594,-2.083 12.76,-2.083c4.861,-0 9.549,1.02 14.063,3.038c4.514,2.04 8.203,4.926 11.111,8.681c2.886,3.776 4.34,8.29 4.34,13.541c0,1.216 -0.325,2.735 -0.955,4.514c-0.586,1.801 -1.215,2.995 -1.909,3.559c-2.04,1.346 -3.907,1.997 -5.643,1.997l-1.996,-0c-1.216,-0 -2.431,-0.087 -3.646,-0.261c-1.215,-0.217 -2.431,-0.347 -3.646,-0.347c-1.042,0 -2.431,0.174 -4.167,0.521c-1.692,0.347 -2.929,0.998 -3.732,1.91c1.606,0.933 3.125,1.953 4.514,3.038c1.432,1.042 2.625,2.322 3.559,3.819c1.497,1.736 2.951,4.427 4.34,8.073c1.432,3.646 2.17,6.597 2.17,8.854l-0.174,18.837l0.521,17.275c0.174,1.801 0.282,3.537 0.347,5.208c0.044,1.693 0.087,3.45 0.087,5.295c0,7.422 -1.823,13.477 -5.468,18.229c-3.603,4.796 -9.441,7.205 -17.535,7.205c-5.794,0 -10.764,-0.738 -14.931,-2.17c-4.166,-1.389 -8.897,-3.082 -14.149,-5.035c-2.431,-0.998 -4.579,-2.3 -6.424,-3.906c-2.148,2.192 -4.318,4.08 -6.51,5.642c-2.149,1.606 -4.905,2.431 -8.247,2.431c-1.736,-0 -3.45,-0.261 -5.121,-0.781c-1.693,-0.521 -3.277,-1.259 -4.774,-2.171c-1.628,-1.106 -3.082,-2.3 -4.341,-3.559c-1.28,-1.28 -2.647,-2.582 -4.08,-3.906c-1.519,0.738 -3.038,1.476 -4.6,2.17c-1.519,0.695 -3.169,1.042 -4.948,1.042c-2.843,-0 -5.209,-1.107 -7.118,-3.299c-1.867,-2.148 -2.908,-4.535 -3.125,-7.204l-1.476,-20.4c-0.13,-2.647 -0.304,-5.317 -0.521,-7.986c-0.173,-2.713 -0.586,-5.382 -1.215,-7.986c-1.215,-0 -2.517,0.347 -3.906,1.042l1.215,23.437l0.868,7.639c0.217,2.561 0.347,5.187 0.347,7.899c0,2.127 -0.173,4.558 -0.521,7.292c-0.303,2.778 -1.193,4.97 -2.691,6.597c-0.52,0.695 -1.193,1.259 -1.996,1.736c-0.825,0.456 -1.628,0.825 -2.431,1.129c-1.106,0.39 -2.257,0.629 -3.472,0.694c-1.215,0.044 -2.409,0.087 -3.559,0.087l-2.864,0c-1.346,0 -2.822,-0.304 -4.428,-0.868c-1.627,-0.521 -3.125,-1.194 -4.513,-1.997c-1.346,-0.824 -2.691,-1.801 -4.08,-2.951c-1.389,-1.107 -2.778,-2.213 -4.167,-3.299c-1.345,-0.824 -2.669,-1.649 -3.993,-2.517c-1.346,-0.868 -2.691,-1.779 -4.08,-2.691c-0.521,-0.304 -0.846,-0.499 -0.955,-0.607c-1.736,2.647 -3.277,4.47 -4.6,5.468c-1.281,1.042 -3.125,1.563 -5.556,1.563c-3.776,-0 -7.248,-1.194 -10.417,-3.559c-3.125,-2.322 -4.687,-5.447 -4.687,-9.375c-0,-0.63 0.022,-1.324 0.087,-2.084c0.043,-0.737 0.173,-1.388 0.347,-1.909l5.642,-15.712c0.391,-1.085 0.608,-1.91 0.608,-2.431c-0,-0.39 -0.434,-1.041 -1.302,-1.909c-0.868,-0.868 -1.867,-1.78 -2.952,-2.778c-1.345,-1.042 -2.43,-2.604 -3.298,-4.688c-0.868,-2.083 -1.302,-3.928 -1.302,-5.555c-0,-0.803 0.217,-2.018 0.694,-3.646c0.456,-1.606 0.955,-2.626 1.476,-3.038c1.085,-0.695 2.539,-1.433 4.34,-2.257c1.78,-0.803 3.386,-1.324 4.774,-1.563Zm119.271,21.962l0.347,7.292c0.695,0.412 1.237,0.607 1.65,0.607c1.085,0 2.17,-0.043 3.212,-0.173c1.085,-0.174 2.17,-0.261 3.211,-0.261l3.907,0c0.629,0 1.15,-0.021 1.562,-0.086c0.391,-0.044 0.89,-0.131 1.476,-0.261l-0.434,-18.403l-0.434,-4.253l-0,-18.75c-0,-1.736 -0.239,-3.494 -0.695,-5.295c-0.477,-1.845 -1.866,-2.778 -4.166,-2.778c-0.933,-0 -2.474,0.434 -4.601,1.302c-2.148,0.868 -3.429,1.649 -3.819,2.344c-0.174,0.239 -0.304,0.824 -0.348,1.736c-0.065,0.868 -0.087,1.91 -0.087,3.125c0,1.975 -0.26,3.971 -0.781,5.99l0.347,20.052l-0.347,7.812Zm-33.333,-37.934c0.174,-0.282 0.304,-1.345 0.434,-3.212c0.108,-1.909 0.26,-3.819 0.434,-5.729c0.217,-1.953 0.347,-2.995 0.347,-3.125l-0.434,0.174c-0.521,0.304 -1.128,0.586 -1.823,0.868c-0.651,0.238 -1.302,0.347 -1.996,0.347c-2.149,-0 -4.254,-0.043 -6.337,-0.174c-2.083,-0.173 -4.21,-0.26 -6.337,-0.26c-2.561,-0 -5.642,0.391 -9.288,1.128c-3.646,0.76 -6.597,1.867 -8.854,3.299c0.108,0.998 0.434,2.083 0.955,3.299c2.539,-0.565 5.078,-1.064 7.638,-1.476c2.605,-0.391 5.165,-0.608 7.726,-0.608c3.863,0 6.988,0.413 9.375,1.216c2.366,0.824 5.078,2.235 8.16,4.253Zm-36.892,-56.51c-2.843,-0 -5.274,1.172 -7.292,3.472c-1.736,1.736 -3.103,3.798 -4.08,6.163c-0.933,2.322 -1.866,4.644 -2.778,6.945c-0.13,0.52 -0.347,1.019 -0.694,1.475c-0.347,0.478 -0.673,0.998 -0.955,1.563c-0.412,0.651 -0.608,1.106 -0.608,1.389c0,0.303 0.196,0.434 0.608,0.434c0.282,-0 0.868,-0.261 1.736,-0.782c0.868,-0.564 1.845,-1.258 2.951,-2.083c2.127,-1.497 4.428,-3.32 6.858,-5.469c2.431,-2.126 4.536,-4.123 6.337,-5.989c1.845,-1.91 2.778,-3.125 2.778,-3.646c-0,-1.085 -0.586,-1.932 -1.736,-2.517c-1.172,-0.63 -2.214,-0.955 -3.125,-0.955Zm36.284,102.777c0.282,-0.803 0.456,-2.278 0.521,-4.427c0.044,-2.192 0.087,-4.166 0.087,-5.902l-0,-4.862c-0,-1.432 -0.13,-2.908 -0.347,-4.427c-0.174,-1.497 -0.391,-2.973 -0.608,-4.427c-1.107,0.521 -2.734,1.02 -4.861,1.476c-2.148,0.477 -3.971,0.846 -5.469,1.128c0.695,0.695 1.302,1.368 1.823,1.997c0.521,0.586 1.063,1.194 1.649,1.823c0.63,0.694 1.237,1.779 1.823,3.212c0.63,1.389 1.216,2.821 1.736,4.253c0.565,1.389 1.151,2.995 1.737,4.774c0.629,1.802 1.258,3.603 1.909,5.382Zm-66.58,3.993c2.648,0.521 4.427,0.912 5.296,1.129c0.911,0.174 1.432,0.26 1.562,0.26c0.391,-2.257 0.629,-4.514 0.694,-6.77c0.044,-2.301 0.087,-4.623 0.087,-6.945c0,-1.215 -0.217,-2.083 -0.607,-2.604c-2.431,0.13 -4.514,0.998 -6.25,2.604c-0.131,0.933 -0.261,2.17 -0.434,3.733c-0.131,1.562 -0.239,4.427 -0.348,8.593Zm-12.5,-101.128c1.737,1.519 3.256,3.19 4.601,5.035c1.389,1.801 2.648,3.624 3.82,5.468c1.388,-1.605 2.734,-3.732 4.079,-6.336c1.324,-2.604 2.279,-4.861 2.865,-6.771c-0.586,-0 -1.454,0.043 -2.604,0.087c-1.107,0.065 -1.953,0.173 -2.518,0.347c-1.345,0.13 -2.842,0.39 -4.513,0.781c-1.693,0.412 -3.386,0.825 -5.122,1.215l-0.608,0.174Zm82.552,19.01c0.391,-1.085 0.738,-2.191 1.042,-3.298c0.347,-1.15 0.521,-2.127 0.521,-2.952c-0,-0.694 -0.412,-1.562 -1.215,-2.604c-0.825,-1.085 -1.628,-1.996 -2.431,-2.691l-0.521,-0.347c-0.412,0.933 -0.759,1.649 -1.041,2.17c-0.304,0.521 -0.565,0.998 -0.782,1.389c-0.412,0.825 -0.607,1.519 -0.607,2.083c-0,0.413 0.456,1.085 1.389,1.997c0.52,0.521 1.15,1.215 1.909,2.083c0.738,0.868 1.324,1.606 1.736,2.17Z" style="fill-rule:nonzero;"/></g></g></g><g><g><g><path d="M600.086,207.704c-2.951,-0.629 -5.36,-1.085 -7.205,-1.388c-1.801,-0.283 -4.123,-1.346 -6.944,-3.212c-2.149,-1.498 -3.993,-3.559 -5.556,-6.163c-1.519,-2.605 -2.257,-5.252 -2.257,-7.987c0,-2.257 0.608,-3.776 1.823,-4.6c1.215,-0.803 2.952,-1.606 5.208,-2.431l13.976,-9.288l4.601,-2.431c0.108,-2.126 0.26,-4.21 0.434,-6.25c0.217,-2.018 0.347,-4.101 0.347,-6.25c0,-0.976 -0.043,-1.909 -0.087,-2.777c-0.065,-0.868 -0.152,-1.758 -0.26,-2.691c-1.91,-1.498 -3.798,-3.299 -5.642,-5.382c-1.802,-2.084 -2.691,-4.384 -2.691,-6.945c-0,-2.018 0.803,-3.841 2.43,-5.468c1.606,-1.606 3.494,-2.887 5.642,-3.82c2.192,-0.911 4.167,-1.389 5.903,-1.389c4.275,0 8.442,1.172 12.5,3.472c4.037,2.257 7.14,5.122 9.288,8.594c1.042,1.628 1.65,3.429 1.823,5.382c0.217,1.975 0.348,3.885 0.348,5.729l-0,5.295c-0,0.934 0.086,1.802 0.26,2.605c1.042,-0 2.105,-0.022 3.212,-0.087c1.085,-0.044 2.105,-0.087 3.038,-0.087c3.863,-0 7.465,0.868 10.764,2.604c3.298,1.736 5.903,4.34 7.812,7.813c0.217,-2.257 0.391,-4.471 0.521,-6.684c0.174,-2.257 0.261,-4.449 0.261,-6.598c-0,-0.282 -0.044,-0.629 -0.087,-1.041c-0.065,-0.391 -0.239,-0.716 -0.521,-0.955c-1.107,-0.977 -2.062,-1.91 -2.865,-2.778c-0.759,-0.868 -1.627,-1.823 -2.604,-2.865c-1.627,-1.909 -2.43,-3.776 -2.43,-5.642c-0,-2.995 1.172,-5.49 3.559,-7.465c2.365,-2.018 4.969,-3.038 7.812,-3.038c3.169,-0 6.012,0.911 8.507,2.691c2.474,1.801 5.23,4.123 8.247,6.944c1.844,-1.215 3.646,-2.539 5.382,-3.993c1.779,-1.497 3.559,-2.908 5.295,-4.253c4.275,-3.516 9.136,-6.185 14.583,-7.987c5.425,-1.779 10.938,-2.691 16.493,-2.691c4.167,0 8.29,0.608 12.413,1.823c4.102,1.216 7.683,3.212 10.764,5.99c1.498,1.215 2.908,2.474 4.254,3.733c1.324,1.28 2.604,2.669 3.819,4.166c3.928,4.471 6.445,8.811 7.552,13.021c1.15,4.232 2.084,9.115 2.778,14.67l0.955,33.854l0.26,28.039c0,2.842 -0.173,5.642 -0.521,8.42c-0.347,2.778 -1.258,5.251 -2.691,7.378c-0.998,1.454 -2.213,2.496 -3.645,3.125c-1.389,0.586 -2.952,1.215 -4.688,1.91l-0.781,0.347c1.736,5.274 3.494,9.527 5.295,12.761c1.845,3.255 4.644,6.901 8.42,10.937c2.127,2.148 3.494,4.774 4.08,7.899c0.629,3.082 0.998,6.077 1.129,9.028c-0.239,5.599 -2.04,9.918 -5.382,12.934c-3.364,3.06 -7.466,5.122 -12.327,6.163c-4.861,1.085 -9.635,1.65 -14.323,1.65c-5.555,-0 -11.415,-0.76 -17.534,-2.257c-6.077,-1.454 -11.09,-4.406 -15.018,-8.854c-2.148,-2.67 -3.602,-5.708 -4.34,-9.115c-0.695,-3.472 -1.042,-6.879 -1.042,-10.243c0,-4.275 0.347,-7.943 1.042,-11.024c0.738,-3.125 1.519,-6.706 2.344,-10.764c-1.628,0.521 -3.256,0.781 -4.861,0.781c-1.628,-0 -3.299,0.152 -5.035,0.434c-0.933,0.13 -1.823,0.347 -2.691,0.694c-0.868,0.348 -1.801,0.521 -2.778,0.521c-1.172,0 -2.04,-0.043 -2.604,-0.173c2.018,2.56 3.733,5.186 5.121,7.899c1.433,2.669 2.171,5.686 2.171,9.028c-0,2.843 -0.434,5.968 -1.303,9.375c-0.868,3.429 -2.126,6.64 -3.732,9.722c-1.628,3.125 -3.516,5.642 -5.643,7.552c-1.388,1.324 -2.951,2.431 -4.687,3.299c-1.736,0.868 -3.472,1.649 -5.208,2.343c-0.695,0.283 -1.519,0.478 -2.431,0.608c-0.933,0.109 -1.888,0.174 -2.864,0.174l-1.997,-0c-3.776,-0 -7.183,-0.521 -10.243,-1.563c-3.017,-0.998 -6.055,-2.669 -9.115,-5.035c-0.933,-0.694 -1.953,-1.692 -3.038,-2.951c-1.107,-1.28 -1.649,-2.517 -1.649,-3.733c-0,-1.627 2.018,-3.255 6.076,-4.861c4.861,-2.018 8.963,-4.904 12.327,-8.68c0.694,-0.695 1.606,-2.105 2.777,-4.254c1.216,-2.126 2.366,-4.253 3.473,-6.337c1.085,-2.083 1.649,-3.32 1.649,-3.732c-0,-0.282 -0.955,-1.693 -2.865,-4.254c-0.52,-0.629 -0.781,-1.497 -0.781,-2.604c0,-0.911 0.195,-1.779 0.608,-2.604c0.629,-1.215 1.085,-2.105 1.389,-2.691c0.282,-0.629 0.629,-1.345 1.041,-2.17c-0.998,-1.085 -1.823,-1.932 -2.517,-2.517c-0.651,-0.63 -1.28,-1.411 -1.91,-2.344c-0.998,-1.324 -1.736,-2.561 -2.257,-3.733c-0.521,-1.15 -1.085,-3.32 -1.649,-6.51c-0.13,-1.498 -0.326,-2.518 -0.608,-3.038c-1.215,-0.174 -2.43,-0.283 -3.646,-0.348c-1.171,-0.043 -2.343,-0.086 -3.559,-0.086c-2.322,-0 -4.817,0.347 -7.465,1.041c1.432,2.04 2.995,4.058 4.688,6.077c1.671,1.974 3.211,4.123 4.6,6.423c1.606,2.843 2.995,5.881 4.167,9.115c1.215,3.19 1.823,6.467 1.823,9.809c-0,4.752 -1.432,8.919 -4.254,12.5c-2.777,3.537 -6.662,5.295 -11.631,5.295c-1.802,-0 -3.646,-0.109 -5.556,-0.347c-1.866,-0.282 -3.451,-1.129 -4.774,-2.518c-1.454,-1.432 -2.67,-2.951 -3.646,-4.514c-0.933,-1.562 -1.866,-4.014 -2.778,-7.378c-0.174,-0.911 -0.521,-1.78 -1.042,-2.604l-1.562,-2.431c-0.586,3.125 -1.606,6.815 -3.038,11.025c-1.389,4.231 -3.255,8.398 -5.556,12.5c-2.257,4.101 -4.948,7.508 -8.073,10.243c-3.081,2.777 -6.488,4.166 -10.243,4.166c-3.472,0 -6.749,-0.933 -9.809,-2.777c-3.016,-1.802 -5.447,-4.08 -7.292,-6.858c-0.824,-1.107 -1.54,-2.517 -2.17,-4.254c-0.586,-1.736 -0.868,-3.298 -0.868,-4.687c0,-2.257 0.716,-4.362 2.17,-6.337c1.498,-1.953 2.865,-3.819 4.08,-5.555c2.648,-4.037 5.035,-8.247 7.118,-12.587c2.084,-4.384 3.82,-8.941 5.209,-13.629c-3.125,-0.911 -5.686,-1.758 -7.639,-2.517c-1.91,-0.738 -4.232,-2.279 -6.945,-4.601c-1.454,-1.15 -2.908,-2.734 -4.34,-4.774c-1.389,-2.018 -2.083,-4.037 -2.083,-6.076c-0,-3.342 1.519,-5.578 4.6,-6.684c0.565,-0.218 1.737,-0.803 3.473,-1.737c1.736,-0.976 3.754,-2.126 6.076,-3.472c2.366,-1.324 4.622,-2.561 6.771,-3.732c2.192,-1.151 3.906,-1.997 5.121,-2.518c0,-1.085 0.022,-2.105 0.087,-3.038c0.044,-0.911 0.087,-1.866 0.087,-2.865Zm86.198,-32.465c1.432,-0.803 2.951,-1.693 4.514,-2.691c1.562,-1.042 3.081,-2.018 4.601,-2.951c2.647,-1.736 5.837,-3.472 9.548,-5.209c3.689,-1.779 7.075,-2.691 10.156,-2.691c2.713,0 4.883,0.413 6.511,1.216c1.606,0.824 3.646,1.627 6.076,2.43c0.109,-0.694 0.261,-2.213 0.434,-4.6c0.217,-2.431 0.261,-4.731 0.087,-6.945c-0.13,-2.257 -0.586,-3.385 -1.389,-3.385c-0.521,-0 -1.823,0.347 -3.906,1.041c-2.083,0.651 -4.167,1.368 -6.25,2.171c-2.083,0.824 -3.537,1.432 -4.34,1.822c-1.628,0.521 -3.863,1.389 -6.684,2.605c-2.843,1.215 -4.992,2.322 -6.424,3.298c-2.561,1.736 -4.688,2.843 -6.424,3.299c-1.692,0.477 -4.058,0.846 -7.118,1.128c0.109,1.454 0.196,2.995 0.261,4.601c0.108,1.628 0.217,3.255 0.347,4.861Zm55.903,77.517l-4.688,0c-1.454,0 -2.929,0.217 -4.427,0.608c-0.933,3.603 -1.519,7.248 -1.736,10.938c-0.174,3.711 -0.412,7.53 -0.694,11.458c0.173,0.825 0.542,1.367 1.128,1.649c0.629,0.239 1.259,0.347 1.91,0.347c1.215,0 2.908,-0.173 5.121,-0.52c2.257,-0.348 3.841,-0.782 4.775,-1.302c0.911,-0.695 1.41,-1.693 1.475,-3.039c0.109,-1.323 0.174,-2.452 0.174,-3.385c-0,-2.821 -0.347,-5.664 -1.042,-8.507c-0.651,-2.821 -1.302,-5.577 -1.996,-8.247Zm-55.903,-18.576l2.604,0c1.91,0 3.82,-0.434 5.729,-1.302c1.953,-0.868 3.82,-1.649 5.556,-2.344c4.34,-1.606 8.702,-2.908 13.107,-3.906c4.449,-1.042 8.855,-2.018 13.195,-2.951c-0,-0.803 -0.065,-1.606 -0.174,-2.431c-0.065,-0.803 -0.087,-1.606 -0.087,-2.43c-0.651,0.303 -1.649,0.434 -3.038,0.434c-2.56,-0 -5.62,0.412 -9.201,1.215c-3.537,0.824 -6.511,1.736 -8.941,2.778c-2.148,0.998 -4.34,1.736 -6.597,2.257c-2.214,0.52 -4.427,0.781 -6.684,0.781l-1.823,-0c-0.695,-0 -1.367,-0.044 -1.997,-0.174l-2.43,0l0.173,3.212l0.608,4.861Zm-0.434,-29.861c1.215,-0 2.279,-0.195 3.212,-0.608c2.995,-1.497 5.946,-2.973 8.854,-4.427c2.886,-1.497 5.859,-2.712 8.941,-3.646c0.803,-0.282 1.584,-0.542 2.344,-0.781c0.737,-0.282 1.519,-0.521 2.343,-0.694c1.042,-0.217 2.127,-0.369 3.299,-0.434c1.15,-0.044 2.192,-0.087 3.125,-0.087c1.497,-0 2.951,0.065 4.34,0.174c1.389,0.13 2.778,0.325 4.167,0.607c-0,-0.694 0.022,-1.389 0.087,-2.083c0.043,-0.738 0.087,-1.411 0.087,-1.997c-0,-0.39 -0.044,-0.738 -0.087,-1.041c-0.065,-0.348 -0.087,-0.717 -0.087,-1.129c-1.107,-0.173 -2.257,-0.304 -3.472,-0.434c-1.216,-0.108 -2.431,-0.173 -3.646,-0.173c-1.042,-0 -2.235,0.043 -3.559,0.086c-1.281,0.065 -2.387,0.304 -3.299,0.695l-13.541,5.642c-1.346,0.521 -2.822,1.042 -4.428,1.563c-1.627,0.477 -3.168,0.694 -4.6,0.694c-0.586,0 -1.216,-0.022 -1.91,-0.087c-0.651,-0.108 -1.28,-0.173 -1.91,-0.173c-0.173,0.412 -0.26,0.824 -0.26,1.215l-0,1.476c-0,0.412 0.022,0.781 0.087,1.128c0.108,0.304 0.173,0.651 0.173,1.042c0.109,0.586 0.131,1.128 0.087,1.649c-0.065,0.521 -0.173,1.129 -0.347,1.823Zm-53.646,0.781c1.845,-0.911 3.863,-1.649 6.076,-2.17c2.257,-0.564 4.449,-0.868 6.598,-0.868c2.3,0 4.47,0.347 6.51,1.042c2.018,0.651 3.906,1.519 5.642,2.604c0.391,-0.803 0.63,-1.606 0.695,-2.431c0.043,-0.803 0.087,-1.606 0.087,-2.43l-0,-6.25c-1.454,1.345 -3.386,1.996 -5.816,1.996l-5.295,0c-2.257,0 -4.644,0.391 -7.118,1.129c-2.496,0.759 -4.84,1.692 -7.032,2.778l-0.347,4.6Z" style="fill-rule:nonzero;"/></g></g></g><g><g><g><path d="M986.997,214.996c-0.412,3.472 -1.801,5.881 -4.166,7.205c-2.387,1.28 -5.187,1.91 -8.42,1.91c-3.603,-0 -7.162,-0.196 -10.677,-0.608c-3.777,-0.391 -7.466,-0.608 -11.112,-0.608c-10.373,0 -20.724,0.521 -31.076,1.563c-10.373,0.998 -20.573,2.561 -30.642,4.687c-5.274,0.934 -10.504,1.888 -15.712,2.865c-5.165,0.933 -10.417,1.389 -15.799,1.389c-4.166,-0 -8.116,-0.608 -11.805,-1.823c-3.711,-1.215 -6.901,-3.429 -9.549,-6.684c-2.148,-2.539 -3.212,-5.23 -3.212,-8.073c0,-1.497 0.478,-2.561 1.476,-3.212c0.977,-0.694 2.279,-1.237 3.906,-1.649l0.261,-0.608c-1.802,-0.911 -3.646,-1.844 -5.556,-2.778c-1.866,-0.976 -3.516,-2.126 -4.948,-3.472c-2.148,-1.909 -4.123,-4.622 -5.903,-8.159c-1.736,-3.581 -2.604,-6.858 -2.604,-9.81c0,-2.647 1.216,-4.253 3.646,-4.774c2.431,-0.564 4.557,-1.128 6.424,-1.649c0.976,-0.282 2.951,-1.259 5.902,-2.952c2.952,-1.671 6.359,-3.776 10.244,-6.336c3.927,-2.539 7.855,-5.144 11.805,-7.813c3.993,-2.713 7.509,-5.143 10.59,-7.291c3.125,-2.192 5.209,-3.755 6.25,-4.688c1.085,-0.694 2.127,-1.432 3.125,-2.257c1.042,-0.803 2.105,-1.519 3.212,-2.17c0.738,-0.564 1.91,-1.389 3.472,-2.431c1.563,-1.085 2.344,-1.909 2.344,-2.43c0,-0.391 -0.217,-0.998 -0.608,-1.823c-0.412,-0.803 -0.607,-1.606 -0.607,-2.431c-0,-3.645 0.998,-6.619 3.038,-8.941c2.018,-2.365 4.557,-4.166 7.639,-5.382c3.125,-1.215 6.293,-1.866 9.549,-1.996c1.041,-0.174 1.909,-0.261 2.604,-0.261l1.996,0c0.912,0 2.018,0.131 3.299,0.348c1.259,0.173 2.864,0.412 4.774,0.694l3.212,0.434c1.085,0.13 2.105,0.326 3.038,0.608c1.215,0.412 2.344,0.781 3.386,1.128c1.085,0.304 2.257,0.782 3.472,1.476c0.911,0.521 1.866,1.194 2.864,1.997c1.042,0.824 1.91,1.562 2.605,2.256c1.605,1.867 2.691,3.516 3.211,4.948c0.521,1.389 1.064,3.299 1.65,5.73c0.108,0.412 0.564,0.824 1.389,1.215l18.142,9.114c4.861,2.388 9.744,5.079 14.67,8.073c4.905,2.952 9.657,6.055 14.236,9.289c2.127,1.345 4.471,3.016 7.031,5.034c2.539,2.04 4.297,3.776 5.296,5.209c1.736,2.56 3.255,5.425 4.6,8.593c1.324,3.19 1.997,6.315 1.997,9.375c-0,4.579 -1.454,8.811 -4.341,12.674c-2.908,3.819 -6.749,5.729 -11.545,5.729c-1.389,0 -2.756,-0.022 -4.08,-0.087c-1.345,-0.108 -2.669,-0.217 -3.993,-0.347Zm-14.757,46.181l-0.173,0.434c2.257,1.736 4.384,3.211 6.423,4.427c2.019,1.215 4.102,2.995 6.25,5.295c2.952,3.081 5.513,6.597 7.726,10.59c2.257,3.95 3.386,8.138 3.386,12.587c-0,5.903 -1.476,10.699 -4.427,14.41c-2.952,3.689 -7.618,5.555 -13.976,5.555c-1.866,0 -3.906,-0.26 -6.163,-0.781c-2.214,-0.521 -4.124,-1.476 -5.73,-2.865c-1.345,-1.041 -2.691,-2.213 -4.079,-3.472c-1.346,-1.28 -2.322,-2.821 -2.952,-4.601c-1.107,-2.951 -2.061,-4.427 -2.864,-4.427c-0.521,0 -0.999,0.044 -1.389,0.174l-24.393,4.514l-25.26,5.989c-4.167,0.695 -8.203,1.259 -12.066,1.737c-3.819,0.455 -8.073,0.694 -12.76,0.694c-7.422,0 -13.716,-0.608 -18.924,-1.823c-5.165,-1.215 -10.894,-3.776 -17.188,-7.639c-3.255,-2.04 -6.206,-4.731 -8.854,-8.073c-2.604,-3.342 -3.906,-7.053 -3.906,-11.111c0,-3.06 0.868,-5.664 2.604,-7.812c1.78,-2.192 3.494,-4.427 5.122,-6.684c-0.999,-0.695 -1.975,-1.302 -2.952,-1.823c-0.998,-0.521 -2.04,-1.064 -3.125,-1.65c-2.322,-1.215 -4.297,-3.407 -5.902,-6.597c-1.563,-3.233 -2.344,-6.076 -2.344,-8.507c-0,-1.324 0.434,-2.604 1.302,-3.819c0.868,-1.215 1.953,-1.823 3.299,-1.823c1.497,-0 2.973,0.065 4.427,0.174c1.497,0.13 2.973,0.173 4.427,0.173c0.976,0 3.342,-0.282 7.118,-0.868c3.754,-0.629 8.246,-1.411 13.455,-2.344c5.251,-0.911 10.59,-1.866 15.972,-2.864c5.382,-1.042 10.156,-1.953 14.323,-2.778c4.166,-0.803 7.053,-1.324 8.68,-1.563c4.037,-0.694 8.095,-1.237 12.153,-1.649c4.037,-0.39 8.073,-0.738 12.066,-1.041c3.342,-0.218 6.641,-0.478 9.896,-0.782c3.233,-0.282 6.467,-0.477 9.722,-0.607l15.538,-1.042c0.217,-0 0.478,0.065 0.782,0.174c0.282,0.065 0.542,0.086 0.781,0.086l0.868,0c1.844,0 3.689,-0.043 5.555,-0.173c1.91,-0.174 3.755,-0.261 5.556,-0.261c5.078,0 10.286,0.738 15.625,2.17c5.317,1.389 9.657,4.124 13.021,8.16c1.606,1.736 2.951,3.733 3.993,5.99c1.085,2.213 1.649,4.492 1.649,6.857c0,3.429 -1.454,6.229 -4.34,8.421c-2.908,2.213 -5.903,3.298 -9.028,3.298c-1.736,0 -3.537,-0.108 -5.382,-0.347c-1.801,-0.282 -3.624,-0.629 -5.469,-1.042c-0.933,-0.282 -1.953,-0.477 -3.038,-0.607c-1.107,-0.109 -2.127,-0.261 -3.038,-0.434l-1.997,-0Zm-101.562,-57.292c0.977,-0.109 2.387,-0.456 4.253,-1.042c1.91,-0.629 3.386,-1.085 4.428,-1.389c2.43,-0.911 4.535,-1.562 6.336,-1.909c1.845,-0.348 4.254,-0.977 7.205,-1.91c3.125,-1.215 6.771,-2.17 10.938,-2.865c4.166,-0.737 8.376,-1.345 12.673,-1.823c4.341,-0.52 8.095,-0.889 11.285,-1.128c4.34,-0.564 8.637,-0.911 12.934,-1.042l12.934,-0.434l-0.608,-0.607l-14.149,-8.681c-1.345,-0.911 -2.756,-1.823 -4.253,-2.691c-1.454,-0.868 -2.93,-1.606 -4.427,-2.257c-1.454,-0.694 -3.386,-1.649 -5.816,-2.864c-2.431,-1.216 -4.406,-1.823 -5.903,-1.823c-1.346,-0 -2.648,0.325 -3.906,0.955c-1.281,0.585 -2.474,1.28 -3.559,2.083l-13.108,9.896l-1.389,1.215l-21.354,14.062c-0.586,0.304 -1.606,0.847 -3.038,1.65c-1.389,0.824 -1.953,1.541 -1.65,2.17l0.174,0.434Zm-8.854,80.295c1.215,0.695 2.691,1.042 4.427,1.042c2.951,-0 6.792,-0.651 11.545,-1.997c4.796,-1.324 9.635,-2.821 14.497,-4.514c4.861,-1.736 8.767,-3.06 11.718,-3.993c5.382,-1.736 10.938,-3.212 16.667,-4.427c5.729,-1.215 11.328,-2.17 16.84,-2.864c0.521,-0.109 0.977,-0.434 1.389,-0.955c-1.042,-2.018 -2.04,-3.429 -2.951,-4.254c-0.868,-0.803 -2.127,-1.215 -3.733,-1.215l-1.562,0l-16.754,1.649l-15.972,1.997c-4.167,0.521 -8.485,1.801 -12.934,3.819c-4.405,2.04 -8.377,4.058 -11.892,6.077c-2.149,1.345 -4.211,2.756 -6.164,4.253c-1.909,1.454 -3.624,3.255 -5.121,5.382Z" style="fill-rule:nonzero;"/></g></g></g><g><g><g><path d="M1579.09,156.356l0.434,-0.781c0,-0.282 -0.347,-0.89 -1.041,-1.823c-1.346,-1.78 -1.997,-3.603 -1.997,-5.469c0,-2.951 1.15,-5.143 3.472,-6.597c2.366,-1.497 5.057,-2.517 8.073,-3.038c3.06,-0.565 5.664,-0.868 7.813,-0.868c2.3,-0 4.861,0.564 7.639,1.649c2.821,1.042 5.295,2.582 7.378,4.601c2.084,2.04 3.125,4.383 3.125,7.031c0,0.586 0.022,1.107 0.087,1.562c0.109,0.478 0.217,0.955 0.347,1.476c2.821,1.107 6.098,2.93 9.809,5.469c3.689,2.561 6.988,5.425 9.896,8.594c2.886,3.19 4.34,6.315 4.34,9.375l0,2.257c0,0.824 -0.086,1.692 -0.26,2.604c1.085,-0.521 2.517,-0.782 4.253,-0.782l2.257,0c0.912,0 1.65,-0.086 2.171,-0.26l24.045,-6.858l18.142,-3.993c2.821,-0.564 4.688,-0.889 5.556,-0.955c0.868,-0.043 1.497,-0.086 1.909,-0.086c0.803,-0 1.758,0.152 2.865,0.434l0.434,-0.434c-0,-0.282 0.022,-0.716 0.087,-1.302c0.043,-0.63 0.086,-1.216 0.086,-1.737c0,-1.844 -0.824,-2.777 -2.43,-2.777c-1.346,-0 -2.496,0.043 -3.472,0.087c-0.933,0.065 -2.127,0.303 -3.559,0.694l-15.365,4.253l-17.187,4.862c-0.521,0.13 -1.107,0.217 -1.737,0.26c-0.585,0.065 -1.215,0.087 -1.909,0.087c-9.267,-0 -13.889,-4.427 -13.889,-13.281c-0,-1.216 0.347,-2.626 1.042,-4.254l19.184,-8.854c5.49,-2.604 11.328,-5.035 17.534,-7.292c6.185,-2.3 12.435,-3.472 18.75,-3.472c5.252,-0 10.46,0.911 15.625,2.691c5.209,1.736 9.896,4.297 14.063,7.639c1.844,1.345 3.429,3.19 4.774,5.555c1.389,2.388 2.431,4.645 3.125,6.771c0.738,2.149 1.129,3.776 1.129,4.861l-0,21.789c-0,3.602 -0.391,7.161 -1.129,10.677c2.648,2.148 5.035,4.21 7.118,6.163c2.083,1.975 3.125,5.252 3.125,9.809c0,2.148 -0.564,4.47 -1.649,6.944c-1.042,2.496 -2.648,4.145 -4.774,4.948c-1.628,0.651 -3.994,1.042 -7.119,1.215c1.606,1.867 3.06,3.711 4.341,5.556c1.258,1.801 2.387,3.906 3.385,6.337c1.042,2.43 1.736,4.948 2.084,7.552c0.347,2.604 0.52,5.273 0.52,7.986c0,4.471 -1.367,8.485 -4.08,12.066c-1.215,1.519 -2.842,3.017 -4.861,4.514c-1.974,1.454 -3.862,2.778 -5.642,3.993c3.819,3.776 6.814,7.943 9.028,12.5c2.192,4.579 3.298,9.635 3.298,15.191c0,2.148 -0.217,4.47 -0.607,6.944c-0.413,2.474 -1.433,4.536 -3.038,6.164c-3.082,2.821 -6.641,4.253 -10.678,4.253c-2.148,0 -4.34,-0.738 -6.597,-2.17c-2.213,-1.389 -3.711,-3.19 -4.514,-5.382l-5.989,-16.493l-1.042,-2.257l-1.215,17.795c-0.13,2.951 -0.521,5.295 -1.215,7.031c-0.695,1.736 -2.388,3.342 -5.035,4.861c-1.736,0.912 -3.559,1.606 -5.469,2.084c-1.866,0.521 -3.733,0.781 -5.642,0.781c-4.167,0 -8.03,-1.042 -11.545,-3.125c-3.473,-2.083 -5.209,-5.556 -5.209,-10.417c0,-2.734 0.196,-5.382 0.608,-7.986c0.391,-2.604 0.651,-5.208 0.781,-7.812c-1.345,2.843 -2.778,6.054 -4.34,9.635c-1.519,3.581 -3.451,6.641 -5.816,9.202c-2.387,2.539 -5.512,3.819 -9.375,3.819c-4.991,0 -9.158,-1.975 -12.5,-5.903c-3.364,-3.884 -5.99,-7.899 -7.899,-12.066l-0.434,0.434c-1.867,1.454 -3.776,2.995 -5.73,4.601c-1.974,1.628 -4.079,3.038 -6.336,4.253l-13.716,7.032c-0.933,0.564 -2.517,1.215 -4.774,1.909c-2.214,0.738 -4.427,1.411 -6.684,1.997c-2.214,0.629 -3.971,1.085 -5.295,1.389c-1.91,0.39 -3.863,0.738 -5.816,1.042c-1.91,0.347 -3.885,0.52 -5.903,0.52c-3.646,0 -7.443,-0.651 -11.371,-1.909c-3.885,-1.281 -7.184,-3.277 -9.896,-5.99c-2.67,-2.669 -3.993,-6.228 -3.993,-10.677c-0,-2.127 0.607,-3.494 1.823,-4.08c1.215,-0.629 4.188,-1.41 8.941,-2.344c-1.389,-0.694 -2.67,-1.497 -3.82,-2.43c-1.107,-0.912 -1.996,-2.127 -2.691,-3.646c-1.042,-2.821 -1.953,-5.599 -2.691,-8.333c-0.759,-2.778 -1.128,-5.643 -1.128,-8.594c-0,-3.754 0.455,-7.661 1.389,-11.719c0.976,-4.036 3.342,-6.944 7.118,-8.68l-0.868,-0.174c-3.364,-1.497 -5.99,-3.754 -7.9,-6.771c-1.866,-2.995 -2.777,-6.337 -2.777,-9.983c-0,-1.323 0.217,-2.56 0.694,-3.732c0.456,-1.15 1.432,-1.736 2.951,-1.736c0.695,-0 1.324,0.043 1.91,0.087c0.629,0.065 1.215,0.086 1.736,0.086c1.432,0 3.386,-0.195 5.816,-0.607c2.431,-0.391 4.883,-0.868 7.379,-1.389c2.474,-0.521 4.383,-1.042 5.729,-1.563c-0,-0.564 -0.044,-1.063 -0.087,-1.475c-0.065,-0.391 -0.239,-0.868 -0.521,-1.389c-3.364,-0 -6.923,-0.651 -10.677,-1.997c-3.776,-1.324 -6.923,-3.385 -9.462,-6.163c-2.56,-2.778 -3.819,-6.098 -3.819,-9.983c-0,-1.909 0.521,-3.146 1.562,-3.732c1.085,-0.63 2.908,-1.216 5.469,-1.736l1.823,-0.608c0.803,-0.282 1.476,-0.477 1.997,-0.608c-3.473,-1.497 -6.815,-3.428 -9.983,-5.816c-3.125,-2.43 -4.688,-5.816 -4.688,-10.156c0,-3.581 0.89,-6.206 2.691,-7.899c1.78,-1.736 4.514,-3.581 8.16,-5.556c3.928,-2.192 7.422,-4.687 10.504,-7.465c3.059,-2.821 6.206,-5.664 9.461,-8.507Zm47.657,36.892c3.754,1.802 6.011,3.711 6.77,5.73c0.738,1.974 1.52,4.774 2.344,8.42l2.344,-0c0.803,-0 1.345,0.065 1.649,0.173c0.695,0.174 1.563,0.478 2.604,0.868c1.085,0.413 1.693,0.608 1.823,0.608c0.695,0 1.845,-0.195 3.473,-0.608l17.708,-5.034l2.257,-0.608l18.142,-5.035c1.736,-0.39 3.429,-0.803 5.122,-1.215c1.736,-0.391 3.472,-0.89 5.208,-1.476c0.217,-0.629 0.347,-1.302 0.347,-1.996l0,-1.997l-0.781,-0.607l-3.038,0.173l-16.754,4.254c-1.345,0.412 -3.559,1.106 -6.684,2.083c-3.081,0.933 -6.033,1.78 -8.854,2.517c-2.843,0.695 -4.731,1.042 -5.642,1.042c-1.346,0 -2.691,-0.174 -4.08,-0.521c-1.346,-0.347 -2.669,-0.564 -3.993,-0.694c-1.454,-0.282 -2.93,-0.781 -4.427,-1.476c-1.519,-0.738 -2.778,-1.584 -3.82,-2.517c-2.148,-1.78 -3.298,-3.95 -3.472,-6.511c-1.627,0.999 -2.93,1.823 -3.906,2.518c-0.998,0.651 -2.431,1.28 -4.34,1.909Zm-19.358,27.865l0.347,3.646l0.261,0.607c2.257,-0.694 4.861,-1.171 7.812,-1.475c2.995,-0.347 5.382,-0.521 7.118,-0.521c3.646,-0 6.901,0.868 9.809,2.604c2.886,1.736 5.404,3.971 7.552,6.684c2.257,-0.564 3.776,-0.89 4.601,-0.955c0.803,-0.043 1.476,-0.087 1.996,-0.087c2.995,0 6.033,0.413 9.115,1.216c3.125,0.824 5.859,1.779 8.247,2.864c1.606,0.651 3.125,1.519 4.513,2.604c1.433,1.042 2.908,2.127 4.428,3.212l0.347,-0.173l0.607,-7.9l-2.777,-1.996c-0.586,-0.803 -1.129,-1.476 -1.65,-1.997c-0.13,-0.282 -0.347,-0.542 -0.694,-0.781c-0.347,-0.282 -0.673,-0.434 -0.955,-0.434c-0.239,0 -0.564,0.043 -0.955,0.087c-0.412,0.065 -0.868,0.152 -1.389,0.26c-0.998,0.174 -2.3,0.326 -3.906,0.434c-1.562,0.131 -3.038,0.174 -4.427,0.174c-2.561,-0 -5.122,-0.282 -7.726,-0.868c-2.604,-0.629 -5.078,-1.671 -7.378,-3.125c-1.91,-1.215 -3.689,-2.648 -5.295,-4.34c-1.563,-1.671 -3.104,-3.408 -4.601,-5.209c-0.933,0.586 -1.823,1.085 -2.691,1.476c-0.868,0.412 -1.866,0.673 -2.951,0.781l-19.358,1.215l-0,1.997Zm50.26,62.153l11.893,-14.063c1.432,-1.606 2.365,-2.821 2.778,-3.646c0.39,-0.803 0.607,-1.671 0.607,-2.604l0,-2.864l-2.17,0.781l-12.934,9.288c-0.825,0.586 -1.866,1.454 -3.125,2.604c-1.28,1.107 -1.91,2.214 -1.91,3.299c0,1.345 0.478,2.734 1.476,4.167c1.042,1.388 2.17,2.408 3.385,3.038Zm-70.833,-88.195l17.101,-3.819l9.288,-0.955l1.042,0.174l-12.327,-10.677l-0.607,-0.608l-14.497,15.885Zm111.806,29.254c2.539,2.213 4.253,3.971 5.121,5.295c0.868,1.345 2.04,3.364 3.559,6.076c0.391,-0.39 0.738,-0.803 1.042,-1.215c0.347,-0.391 0.651,-0.803 0.955,-1.215c3.233,-4.449 7.248,-7.748 12.066,-9.896c-1.216,-0.521 -2.431,-0.825 -3.646,-0.955c-1.172,-0.174 -2.431,-0.26 -3.82,-0.26c-2.669,-0 -5.273,0.173 -7.812,0.52c-2.561,0.304 -5.187,0.738 -7.899,1.303l0.434,0.347Zm9.288,33.941l0.347,2.257l0.26,0.955c1.845,-1.606 4.08,-3.668 6.684,-6.164c2.648,-2.474 4.862,-4.948 6.598,-7.378c0.694,-0.738 1.085,-1.497 1.215,-2.257c0.108,-0.738 0.174,-1.519 0.174,-2.344c-0,-0.694 -0.131,-1.497 -0.348,-2.43c-0.173,-0.912 -0.586,-1.389 -1.215,-1.389c-1.107,-0 -2.734,1.692 -4.861,5.034l-5.295,6.424c-1.346,1.801 -2.518,4.232 -3.559,7.292Zm-70.052,13.541c0.803,-1.085 1.562,-2.278 2.257,-3.559c0.738,-1.258 1.519,-2.56 2.343,-3.906c1.085,-1.91 3.125,-4.384 6.077,-7.465c-0.933,-0.282 -2.149,-0.608 -3.646,-0.955c-1.454,-0.347 -2.734,-0.629 -3.819,-0.868c-1.107,-0.391 -1.975,-0.456 -2.605,-0.174c0.109,0.521 0.174,1.042 0.174,1.563l-0,1.649c-0,0.825 -0.152,1.997 -0.434,3.559c-0.239,1.519 -0.695,2.821 -1.389,3.906c-0.933,1.737 -1.975,3.451 -3.125,5.122c-1.172,1.693 -2.344,3.277 -3.559,4.774c1.389,-0.39 2.734,-0.976 4.08,-1.736c1.324,-0.738 2.539,-1.389 3.646,-1.91Zm-64.757,0l4.427,-5.902l-0,-3.386c-0,-1.085 0.022,-2.105 0.087,-3.038c0.043,-0.911 0.086,-1.866 0.086,-2.865c-1.345,0.174 -2.604,0.261 -3.819,0.261c-1.215,-0 -2.496,0.065 -3.819,0.173l-0.434,0c0.694,2.561 1.302,5.035 1.822,7.466l1.65,7.291Zm34.896,3.82c0.911,-0.912 2.105,-2.366 3.559,-4.34c1.497,-1.954 2.864,-3.993 4.079,-6.077c1.216,-2.083 1.823,-3.646 1.823,-4.687c0,-0.565 -0.347,-1.172 -1.041,-1.823c-0.933,0.521 -2.322,1.519 -4.167,2.951c-1.801,1.389 -3.103,2.604 -3.906,3.646c-0.13,0.304 -0.261,1.454 -0.434,3.472c-0.13,2.04 -0.304,4.058 -0.521,6.077l0.608,0.781Zm-37.587,21.007c1.606,-0.564 2.973,-1.129 4.08,-1.649c1.323,-0.63 2.105,-1.129 2.343,-1.476c0.283,-0.347 0.434,-0.868 0.434,-1.563l0,-8.42c-1.627,1.346 -2.647,2.387 -3.038,3.125c-0.412,0.695 -0.933,1.997 -1.562,3.906c-0.695,2.149 -1.454,4.167 -2.257,6.077Zm38.194,-43.229l0.347,-0.348c0.977,-0.694 1.91,-1.432 2.778,-2.257c0.868,-0.802 1.693,-1.475 2.518,-1.996c0.803,-0.694 1.649,-1.302 2.517,-1.823c0.868,-0.521 1.693,-1.063 2.517,-1.649c-1.106,-0 -2.517,0.087 -4.253,0.26c-1.736,0.13 -3.364,0.434 -4.861,0.955c-1.042,0.412 -1.563,1.085 -1.563,1.997l0,4.861Z" style="fill-rule:nonzero;"/></g></g></g><g><g><clipPath id="_clip40"><path d="M551.975,290.299l4.21,0.109l-1.736,67.513l-4.21,-0.108l1.736,-67.514Z"/></clipPath><g clip-path="url(#_clip40)"><g><clipPath id="_clip41"><path d="M556.098,290.929c-1.671,51.606 -2.387,64.865 -3.884,66.623c-0.391,0.695 -1.65,-0.412 -1.65,-0.412l1.823,0.412c-0.173,0 -1.476,0.673 -1.823,-0.412c-1.041,-2.17 2.04,-15.365 2.648,-24.675c0.868,-12.174 -0.651,-38.411 1.063,-41.58c0.391,-1.063 1.823,0.044 1.823,0.044"/></clipPath><g clip-path="url(#_clip41)"><path d="M545.334,276.302l18.62,0.478l-2.452,95.724l-18.62,-0.477l2.452,-95.725Z" style="fill:#fff;fill-rule:nonzero;"/></g></g></g></g></g><g><g><clipPath id="_clip42"><path d="M795.898,284.201l4.536,0.109l-1.866,72.526l-4.536,-0.13l1.866,-72.505Z"/></clipPath><g clip-path="url(#_clip42)"><g><clipPath id="_clip43"><path d="M800.347,284.852c-1.823,55.447 -2.582,69.705 -4.21,71.572c-0.412,0.759 -1.758,-0.413 -1.758,-0.413l1.953,0.434c-0.195,-0.021 -1.584,0.716 -1.953,-0.434c-1.106,-2.343 2.192,-16.514 2.843,-26.519c0.933,-13.086 -0.694,-41.254 1.15,-44.683c0.434,-1.15 1.975,0.043 1.975,0.043"/></clipPath><g clip-path="url(#_clip43)"><path d="M788.78,269.141l19.987,0.52l-2.626,102.843l-20.008,-0.52l2.647,-102.843Z" style="fill:#fff;fill-rule:nonzero;"/></g></g></g></g></g><g><g><g><path d="M1238.17,282.791c1.433,0.933 2.887,1.867 4.341,2.778c1.497,0.868 2.799,1.975 3.906,3.299c1.085,1.215 2.083,2.647 2.951,4.253c0.868,1.606 1.302,3.234 1.302,4.861c0,2.778 -0.737,5.491 -2.17,8.16c-1.389,2.713 -3.255,5.035 -5.555,6.944c-1.867,1.736 -4.145,2.865 -6.858,3.386c-2.669,0.564 -5.273,0.868 -7.812,0.868c-3.125,-0 -7.357,-0.825 -12.674,-2.431c-5.273,-1.627 -10.069,-3.863 -14.41,-6.684l-14.323,-7.465c-1.736,-0.694 -3.732,-1.606 -5.989,-2.691c-2.214,-1.042 -4.232,-1.563 -6.077,-1.563c-2.604,0 -5.555,0.912 -8.854,2.778c-3.298,1.91 -7.443,4.471 -12.413,7.726c-2.257,1.497 -5.621,2.799 -10.069,3.906c-4.471,1.15 -8.29,1.823 -11.459,1.997l-17.795,0.781l-4.427,-0.608c-3.125,-0.412 -6.684,-0.911 -10.677,-1.475c-3.95,-0.521 -7.617,-1.129 -11.024,-1.823c-3.429,-0.651 -5.947,-1.433 -7.552,-2.344c-3.125,-1.91 -5.86,-3.95 -8.16,-6.076c-2.257,-2.149 -3.386,-4.905 -3.386,-8.247c0,-3.516 1.302,-6.424 3.907,-8.68c2.647,-2.301 5.859,-4.384 9.635,-6.25c-0.933,-1.91 -1.823,-3.755 -2.691,-5.556c-0.868,-1.845 -1.606,-3.776 -2.17,-5.816c-0.651,-2.648 -1.085,-5.339 -1.302,-8.073c-0.174,-2.778 -0.261,-5.512 -0.261,-8.246c0,-3.234 0.283,-7.422 0.869,-12.587c0.629,-5.209 1.215,-10.157 1.736,-14.844c0.108,-1.085 0.26,-2.279 0.434,-3.559c0.217,-1.259 0.455,-2.431 0.694,-3.472c0.282,-1.085 0.434,-2.105 0.434,-3.038c0,-0.283 -0.152,-0.695 -0.434,-1.216c-0.239,-0.564 -0.825,-1.519 -1.736,-2.864c-0.825,-1.216 -1.215,-2.539 -1.215,-3.993c-0,-3.646 1.15,-6.185 3.472,-7.639c2.365,-1.498 5.165,-2.257 8.42,-2.257c2.713,-0 5.252,0.564 7.639,1.649c2.431,1.042 4.644,2.387 6.684,3.993c0.521,0.412 0.977,0.825 1.389,1.215c0.391,0.413 0.89,0.738 1.476,0.955l0.607,-0.173l19.358,-3.993l19.357,-3.299c2.952,-0.521 5.838,-1.085 8.681,-1.736c2.821,-0.695 5.729,-1.172 8.681,-1.476l15.364,-1.215c4.688,-0.217 9.462,-0.304 14.323,-0.26c4.861,0.065 9.57,0.651 14.149,1.736c2.366,0.412 5.209,1.085 8.507,1.996c3.299,0.933 6.532,2.083 9.723,3.472c3.168,1.346 5.642,2.778 7.378,4.341c2.648,2.322 4.97,4.861 6.944,7.639c1.954,2.734 3.408,5.859 4.341,9.375c0.521,1.454 0.868,2.994 1.041,4.6c0.217,1.628 0.478,3.19 0.782,4.688l0.434,16.319l0.173,18.403c0,4.167 -0.651,7.682 -1.909,10.503c-1.281,2.778 -3.19,5.795 -5.73,9.028Zm-47.829,-98.871l-15.191,-0l-21.962,2.604l-7.465,1.215l-18.577,3.82c-1.736,0.173 -3.537,0.412 -5.382,0.694c-1.801,0.239 -3.646,0.347 -5.555,0.347c-3.776,0 -7.466,-0.629 -11.111,-1.909c-3.603,-1.259 -7.27,-2.192 -11.025,-2.778c-2.213,-0.217 -4.123,-1.346 -5.729,-3.386c-1.562,-2.018 -2.843,-3.993 -3.819,-5.902c-1.346,-2.648 -2.236,-5.491 -2.691,-8.507c-0.478,-3.06 -0.695,-6.077 -0.695,-9.028c0,-1.215 0.022,-2.431 0.087,-3.646c0.043,-1.215 0.13,-2.344 0.26,-3.385c0.174,-0.912 0.304,-1.758 0.434,-2.518c0.109,-0.738 0.174,-1.519 0.174,-2.344c0,-0.911 -1.02,-2.126 -3.038,-3.645c-0.933,-0.63 -1.606,-1.585 -1.997,-2.865c-0.412,-1.324 -0.607,-2.517 -0.607,-3.559c-0,-3.125 1.128,-5.425 3.385,-6.944c2.3,-1.563 4.883,-2.344 7.726,-2.344c3.515,-0 6.467,0.673 8.854,1.996c2.431,1.346 5.729,3.559 9.896,6.684c4.166,-1.497 8.355,-2.908 12.587,-4.253l12.5,-4.08c3.58,-1.15 7.291,-2.17 11.111,-3.038c3.863,-0.912 7.639,-1.693 11.284,-2.344c2.648,-0.564 5.751,-1.063 9.289,-1.476c3.58,-0.39 7.204,-0.737 10.85,-1.041c3.646,-0.347 6.815,-0.565 9.549,-0.695c2.778,-0.173 4.644,-0.26 5.642,-0.26c5.491,-0 11.22,0.911 17.188,2.691c6.011,1.736 11.306,3.971 15.885,6.684c4.558,2.669 8.377,6.12 11.459,10.33c3.125,4.231 4.687,9.093 4.687,14.583c0,1.91 -0.26,3.472 -0.781,4.688c-1.215,2.56 -2.04,4.253 -2.431,5.121c-0.412,0.868 -0.607,1.519 -0.607,1.91c-0,0.412 0.13,0.998 0.434,1.736c0.347,0.759 0.998,2.257 1.996,4.514c0.391,0.824 0.63,1.627 0.695,2.43c0.043,0.825 0.086,1.628 0.086,2.431c0,3.364 -0.998,6.207 -2.951,8.507c-1.91,2.257 -4.644,3.385 -8.16,3.385c-1.866,0 -3.776,-0.217 -5.729,-0.694c-1.975,-0.456 -3.884,-1.042 -5.729,-1.736c-0.998,-0.391 -2.062,-0.738 -3.212,-1.042c-1.107,-0.347 -2.213,-0.608 -3.298,-0.781l-18.316,-2.17Zm-78.733,-13.716l35.937,-7.291l18.577,-2.17c2.257,-0.283 4.883,-0.608 7.899,-0.955c3.06,-0.347 4.991,-0.521 5.816,-0.521l3.646,-0c0.911,-0.521 2.127,-1.389 3.646,-2.604c1.562,-1.216 2.973,-2.518 4.253,-3.907c1.259,-1.432 1.91,-2.69 1.91,-3.732c-0,-1.606 -0.304,-2.604 -0.868,-2.952c-0.586,-0.347 -1.628,-0.52 -3.125,-0.52c-3.255,-0 -6.467,0.217 -9.636,0.607c-3.125,0.413 -6.25,0.825 -9.375,1.216l-16.753,4.687l-10.243,2.778l-16.927,2.864c-0.998,0.131 -1.888,0.174 -2.691,0.174l-2.778,0c-1.107,0 -2.322,0.087 -3.646,0.26c-1.345,0.131 -2.343,0.174 -3.038,0.174l-3.819,0c0.108,2.04 0.195,4.058 0.26,6.076c0.109,1.975 0.434,3.907 0.955,5.816Zm-6.51,62.587l8.506,-0.868l17.535,-4.253l2.865,-0.955l17.187,-4.254l12.847,-2.43l17.796,-1.389c0.694,-0.174 1.931,-0.109 3.732,0.174c1.78,0.303 3.668,0.607 5.643,0.954c1.953,0.304 3.472,0.651 4.514,1.042c1.215,0.586 2.387,1.215 3.559,1.91c1.15,0.651 2.343,1.302 3.559,1.996c-0,-0.694 0.021,-1.432 0.086,-2.257c0.044,-0.803 0.087,-1.606 0.087,-2.43c0,-2.018 -0.955,-3.472 -2.864,-4.34c-1.867,-0.869 -3.972,-1.346 -6.337,-1.476c-2.322,-0.174 -4.232,-0.261 -5.729,-0.261l-4.861,0c-1.737,0 -3.386,0.065 -4.948,0.174c-1.563,0.065 -3.277,0.217 -5.122,0.434l-19.358,3.038l-27.864,6.077c-3.364,0.824 -6.814,1.215 -10.33,1.215c-3.472,-0 -6.641,-0.456 -9.462,-1.389c-0.304,1.454 -0.564,2.93 -0.781,4.427c-0.174,1.454 -0.26,3.082 -0.26,4.861Zm96.093,24.219c-3.646,-1.085 -7.161,-1.649 -10.503,-1.649l-9.636,-0c-3.949,-0 -7.183,0.217 -9.722,0.607l-17.187,2.778l-8.855,1.476l-14.496,3.212c-2.734,0.52 -5.512,0.998 -8.333,1.388c-2.778,0.413 -5.534,0.608 -8.247,0.608c-1.519,0 -2.951,-0.195 -4.34,-0.608c-1.389,-0.39 -2.843,-0.868 -4.34,-1.388c0.108,1.106 0.217,2.235 0.347,3.385c0.173,1.107 0.304,2.214 0.434,3.299c1.779,-0 4.015,-0.022 6.684,-0.087c2.713,-0.109 5.403,-0.217 8.073,-0.347c2.712,-0.109 4.861,-0.304 6.423,-0.608l18.23,-3.646l11.718,-2.43l17.361,-1.997l18.49,-1.042l6.858,0c0.282,-0.52 0.477,-0.998 0.607,-1.475c0.174,-0.456 0.304,-0.955 0.434,-1.476Zm1.216,-15.191c0.108,-0.803 0.195,-1.563 0.26,-2.257c0.108,-0.738 0.174,-1.519 0.174,-2.344c-1.91,-0.694 -3.863,-1.258 -5.816,-1.736c-1.91,-0.456 -3.885,-0.781 -5.903,-0.955c-0.933,-0.108 -2.648,-0.195 -5.122,-0.26c-2.495,-0.044 -4.926,-0.087 -7.291,-0.087c-2.388,0 -3.885,0.065 -4.514,0.174l-20.052,3.212l-18.143,4.253l-13.541,3.212c-2.149,0.412 -4.254,0.781 -6.337,1.128c-2.084,0.347 -4.21,0.521 -6.337,0.521c-0.933,0 -1.801,-0.087 -2.604,-0.26c-0.825,-0.217 -1.628,-0.391 -2.431,-0.521l0,4.253c0,0.521 0.044,0.999 0.174,1.389c1.91,0 3.841,-0.087 5.816,-0.26c2.018,-0.217 3.993,-0.434 5.903,-0.608c1.606,-0.217 3.233,-0.564 4.861,-1.042c1.606,-0.455 3.233,-0.889 4.861,-1.302c5.078,-0.976 10.113,-1.996 15.104,-3.038l14.931,-3.212c4.687,-1.085 9.461,-1.953 14.323,-2.604c4.861,-0.694 9.57,-1.041 14.149,-1.041c2.647,-0 5.295,0.325 7.899,0.954c2.648,0.586 5.86,1.389 9.636,2.431Zm-69.619,42.361c-0.52,-0.108 -1.041,-0.217 -1.562,-0.347c-0.477,-0.174 -1.02,-0.261 -1.649,-0.261l-1.65,0c-0.52,0 -1.193,0.087 -1.996,0.261l-11.285,1.215c-3.125,0.239 -6.38,0.738 -9.722,1.476c-3.364,0.759 -5.035,1.996 -5.035,3.732c0,0.934 0.738,1.693 2.257,2.257c1.563,0.521 3.234,0.868 5.035,1.042c1.844,0.13 3.168,0.174 3.993,0.174c3.233,-0 6.988,-0.825 11.285,-2.518c4.34,-1.671 7.769,-4.014 10.329,-7.031Z" style="fill-rule:nonzero;"/></g></g></g><g><g><clipPath id="_clip44"><path d="M1039.61,284.201l4.536,0.109l-1.867,72.526l-4.535,-0.13l1.866,-72.505Z"/></clipPath><g clip-path="url(#_clip44)"><g><clipPath id="_clip45"><path d="M1044.05,284.852c-1.823,55.447 -2.583,69.705 -4.21,71.572c-0.413,0.759 -1.758,-0.413 -1.758,-0.413l1.953,0.434c-0.195,-0.021 -1.584,0.716 -1.953,-0.434c-1.107,-2.343 2.192,-16.514 2.843,-26.519c0.933,-13.086 -0.695,-41.254 1.15,-44.683c0.434,-1.15 1.975,0.043 1.975,0.043"/></clipPath><g clip-path="url(#_clip45)"><path d="M1032.49,269.141l19.987,0.52l-2.626,102.843l-20.009,-0.52l2.648,-102.843Z" style="fill:#fff;fill-rule:nonzero;"/></g></g></g></g></g><g><g><g><path d="M1336.41,181.923c-2.322,-0.564 -4.84,-1.15 -7.552,-1.736c-2.67,-0.629 -5.339,-1.215 -7.987,-1.736c-2.56,-0.629 -4.991,-1.78 -7.291,-3.472c-2.257,-1.736 -3.386,-4.08 -3.386,-7.032c0,-3.862 1.65,-6.879 4.948,-9.027c3.299,-2.192 7.335,-3.299 12.153,-3.299c6.467,0 12.674,1.302 18.576,3.906c5.903,2.561 11.285,5.903 16.146,10.07c6.988,-3.516 13.802,-7.249 20.4,-11.198c6.597,-3.993 12.977,-8.116 19.184,-12.413l-1.216,-1.389c-0.52,-0.391 -1.128,-0.608 -1.823,-0.608c-0.52,0 -1.388,0.239 -2.604,0.695c-1.215,0.477 -3.212,1.432 -5.989,2.864c-2.735,1.389 -6.728,3.624 -11.979,6.684c-3.538,2.04 -6.402,3.429 -8.594,4.167c-2.214,0.759 -4.319,1.128 -6.337,1.128c-2.148,0 -4.731,-0.347 -7.726,-1.041c-2.951,-0.695 -5.881,-1.736 -8.767,-3.125c-2.908,-1.389 -5.339,-3.082 -7.292,-5.122c-1.909,-2.018 -2.864,-4.384 -2.864,-7.118c-0,-2.539 1.128,-4.253 3.385,-5.121c2.3,-0.869 4.471,-1.303 6.51,-1.303c0.391,0 1.237,0.087 2.518,0.261c1.259,0.13 2.17,0.173 2.691,0.173c0.564,0 1.606,-0.347 3.125,-1.041c1.562,-0.695 4.774,-2.17 9.635,-4.427c2.018,-1.085 3.993,-2.084 5.903,-2.952c1.953,-0.868 3.819,-1.649 5.556,-2.343c5.555,-2.257 10.329,-3.842 14.322,-4.775c4.037,-0.976 7.553,-1.475 10.504,-1.475c3.754,-0 7.921,0.954 12.5,2.864c4.557,1.866 8.507,4.427 11.806,7.726c3.298,3.298 4.947,7.118 4.947,11.458c0,2.04 -0.325,3.906 -0.954,5.643c-0.586,1.736 -1.737,3.819 -3.473,6.25l7.118,2.43c1.606,-2.3 2.952,-4.34 3.993,-6.076c0.391,-0.695 0.717,-1.302 0.955,-1.823c0.282,-0.521 0.63,-1.129 1.042,-1.823c0.564,-0.912 0.651,-1.78 0.26,-2.604c-2.56,-1.91 -3.819,-4.189 -3.819,-6.858c-0,-2.3 0.955,-4.101 2.865,-5.382c1.953,-1.259 4.014,-1.91 6.163,-1.91c3.515,0 6.727,0.934 9.635,2.778c2.886,1.801 5.404,3.972 7.552,6.511c2.127,-0.283 4.015,-0.434 5.643,-0.434c3.059,-0 6.011,0.477 8.854,1.388c2.821,0.869 5.403,2.236 7.725,4.08c2.127,1.736 3.95,3.907 5.469,6.511c1.563,2.561 2.344,5.251 2.344,8.073c-0,2.951 -0.76,5.642 -2.257,8.073c-1.454,2.387 -3.255,4.513 -5.382,6.423c3.06,2.04 5.816,4.601 8.247,7.726c2.43,3.081 3.645,6.554 3.645,10.417c0,3.776 -1.02,6.835 -3.038,9.201c-2.04,2.387 -4.774,3.971 -8.246,4.774c-0,2.561 -0.413,4.601 -1.216,6.163c-0.824,1.52 -2.777,2.257 -5.902,2.257c-1.454,0 -3.125,-0.086 -5.035,-0.26c-1.866,-0.217 -3.342,-0.391 -4.427,-0.521c-3.776,-0.694 -7.704,-1.15 -11.806,-1.389c-4.123,-0.282 -8.203,-0.434 -12.239,-0.434c-9.158,0 -19.249,0.781 -30.295,2.344c-11.003,1.562 -21.919,3.624 -32.726,6.163c-10.829,2.561 -20.703,5.295 -29.601,8.247c-2.561,1.736 -4.232,4.08 -5.035,7.031c1.737,0.174 3.603,0.087 5.643,-0.26c2.018,-0.348 4.709,-0.977 8.073,-1.91c1.085,-0.282 2.452,-0.651 4.08,-1.129c1.606,-0.455 3.689,-0.955 6.25,-1.475c13.585,-3.342 26.671,-6.207 39.236,-8.594c12.543,-2.366 25.369,-3.559 38.455,-3.559c4.557,-0 8.789,0.325 12.673,0.955c3.928,0.586 7.639,2.148 11.111,4.687c3.516,2.431 6.424,5.643 8.681,9.636c2.3,3.949 3.472,8.073 3.472,12.413c0,7.639 -2.908,13.845 -8.68,18.576c1.432,2.561 2.17,5.035 2.17,7.466c-0,2.148 -0.413,4.231 -1.216,6.25c3.928,1.041 7.509,3.168 10.764,6.336c3.234,3.19 4.861,6.923 4.861,11.198c0,2.952 -1.302,5.99 -3.906,9.115c-2.561,3.168 -6.575,4.774 -12.066,4.774c-1.627,0 -3.711,-0.26 -6.25,-0.781c-2.561,-0.521 -4.579,-0.998 -6.076,-1.389c-4.579,-1.107 -9.853,-1.975 -15.799,-2.604c-5.903,-0.586 -12.825,-0.868 -20.746,-0.868c-3.364,-0 -7.531,0.087 -12.5,0.26c-4.992,0.217 -10.048,0.543 -15.191,0.955c-5.1,0.391 -9.527,0.803 -13.282,1.215c-2.257,0.282 -5.208,0.63 -8.854,1.042c-3.646,0.391 -6.988,0.716 -9.982,0.955c-3.017,0.282 -4.862,0.477 -5.556,0.607c-2.843,0.283 -5.382,0.521 -7.639,0.695c-2.213,0.217 -4.427,0.347 -6.684,0.347c-3.537,0 -7.161,-0.347 -10.851,-1.042c-3.711,-0.651 -6.944,-1.714 -9.722,-3.211c-3.537,-1.867 -5.968,-3.907 -7.291,-6.164c-1.346,-2.213 -1.997,-3.971 -1.997,-5.295c0,-2.712 1.411,-4.08 4.253,-4.08l3.56,0c1.909,0 3.667,-0.195 5.295,-0.607c-3.95,-4.275 -5.903,-8.594 -5.903,-12.934c-0,-2.539 0.564,-4.471 1.736,-5.816c1.15,-1.324 2.604,-2.344 4.34,-3.038c-2.56,-3.342 -4.687,-6.945 -6.423,-10.764c-1.736,-3.863 -2.605,-7.9 -2.605,-12.066c0,-7.639 2.735,-14.41 8.247,-20.313c-2.951,-1.779 -5.273,-3.407 -6.944,-4.861c-1.693,-1.497 -2.518,-3.385 -2.518,-5.642c0,-1.606 0.391,-2.821 1.215,-3.646c-2.43,-0.694 -4.687,-1.649 -6.77,-2.865c-2.084,-1.215 -3.95,-2.691 -5.556,-4.427c-1.215,-1.432 -2.322,-3.146 -3.299,-5.121c-0.933,-1.953 -1.388,-3.82 -1.388,-5.556c-0,-1.085 0.52,-1.866 1.562,-2.344c1.085,-0.455 3.82,-0.824 8.16,-1.128c2.647,-0.217 6.206,-0.955 10.677,-2.17c4.449,-1.215 8.355,-2.886 11.719,-5.035Zm9.461,64.323c0,2.734 0.456,4.926 1.389,6.597c0.977,1.693 2.474,3.19 4.514,4.514c4.384,-0.629 8.811,-1.345 13.281,-2.17c7.509,-1.497 13.803,-2.734 18.837,-3.733c5.078,-1.041 9.592,-1.953 13.542,-2.777c3.993,-0.803 8.116,-1.606 12.413,-2.431c4.731,-0.911 9.592,-1.606 14.583,-2.083c4.97,-0.456 9.94,-0.782 14.931,-0.955c1.736,-1.042 2.865,-1.866 3.385,-2.517c0.521,-0.695 0.782,-1.324 0.782,-1.91c-0,-1.324 -1.953,-1.997 -5.816,-1.997c-7.01,0 -14.019,0.586 -21.007,1.736c-7.01,1.172 -14.019,2.474 -21.007,3.907c-2.952,0.694 -5.946,1.432 -8.941,2.17c-3.017,0.694 -6.033,1.389 -9.028,2.083c-2.951,0.695 -5.599,1.194 -7.899,1.476c-2.257,0.238 -4.992,0.347 -8.16,0.347c-2.734,0 -5.165,-0.109 -7.292,-0.347c-2.148,-0.282 -4.991,-0.912 -8.507,-1.91Zm94.098,-58.333c-4.992,-2.257 -10.07,-4.297 -15.278,-6.163c-5.165,-1.91 -10.373,-3.733 -15.625,-5.469c-3.95,3.884 -8.16,7.508 -12.674,10.85c-4.47,3.364 -9.114,6.402 -13.975,9.115c5.251,-1.085 10.243,-2.083 14.93,-2.951c4.688,-0.868 9.31,-1.65 13.889,-2.344c4.731,-0.629 9.57,-1.215 14.497,-1.736c4.904,-0.564 9.657,-0.998 14.236,-1.302Zm-2.865,81.597c-1.736,-2.127 -3.819,-3.212 -6.25,-3.212c-2.561,0 -5.599,0.304 -9.114,0.868c-3.473,0.586 -6.902,1.346 -10.244,2.257c-3.363,0.868 -6.315,1.78 -8.854,2.691c-3.537,1.215 -6.988,2.583 -10.33,4.08c-3.363,1.454 -6.597,3.255 -9.722,5.382l14.931,-1.997c4.969,-0.694 9.939,-1.497 14.93,-2.43c3.928,-1.845 7.986,-3.386 12.153,-4.601c4.167,-1.215 8.333,-2.213 12.5,-3.038Zm-87.76,3.385c0.629,0.999 1.757,2.496 3.385,4.514c1.606,1.975 3.082,2.952 4.427,2.952c2.301,-0 4.796,-0.608 7.465,-1.823c2.713,-1.216 5.317,-2.648 7.813,-4.341c2.474,-1.671 4.536,-3.233 6.163,-4.687c-4.991,0.651 -9.896,1.302 -14.757,1.996c-4.861,0.695 -9.7,1.172 -14.496,1.389Zm103.472,-111.371c1.497,0.521 3.472,1.128 5.903,1.823c0.803,-0.695 1.736,-1.433 2.777,-2.257c1.086,-0.803 2.105,-1.476 3.039,-1.997c1.909,-1.324 2.994,-2.213 3.298,-2.691c0.347,-0.521 0.456,-1.302 0.347,-2.343c-1.041,-0.391 -2.061,-0.977 -3.038,-1.737c-0.933,-0.737 -1.801,-1.584 -2.604,-2.517c-2.148,3.364 -3.798,5.773 -4.948,7.205c-1.172,1.389 -2.756,2.908 -4.774,4.514Z" style="fill-rule:nonzero;"/></g></g></g><g><g><clipPath id="_clip46"><path d="M1282.96,284.201l4.536,0.109l-1.866,72.526l-4.536,-0.13l1.866,-72.505Z"/></clipPath><g clip-path="url(#_clip46)"><g><clipPath id="_clip47"><path d="M1287.41,284.852c-1.801,55.447 -2.561,69.705 -4.188,71.572c-0.412,0.759 -1.758,-0.413 -1.758,-0.413l1.953,0.434c-0.195,-0.021 -1.584,0.716 -1.953,-0.434c-1.107,-2.343 2.192,-16.514 2.843,-26.519c0.933,-13.086 -0.695,-41.254 1.15,-44.683c0.412,-1.15 1.953,0.043 1.953,0.043"/></clipPath><g clip-path="url(#_clip47)"><path d="M1275.85,269.141l20.009,0.52l-2.648,102.843l-20.008,-0.52l2.647,-102.843Z" style="fill:#fff;fill-rule:nonzero;"/></g></g></g></g></g></svg>