<?xml version="1.0" encoding="UTF-8" standalone="no"?><!DOCTYPE svg PUBLIC "-//W3C//DTD SVG 1.1//EN" "http://www.w3.org/Graphics/SVG/1.1/DTD/svg11.dtd"><svg width="100%" height="100%" viewBox="0 0 5692 396" version="1.1" xmlns="http://www.w3.org/2000/svg" xmlns:xlink="http://www.w3.org/1999/xlink" xml:space="preserve" xmlns:serif="http://www.serif.com/" style="fill-rule:evenodd;clip-rule:evenodd;stroke-linejoin:round;stroke-miterlimit:2;"><g><clipPath id="_clip1"><rect x="303.494" y="72.092" width="249.891" height="295.595"/></clipPath><g clip-path="url(#_clip1)"><path d="M780.078,72.613c0,-0 -728.125,-0.022 -728.233,-0.022c0.108,7.162 1.974,98.85 1.909,106.793c-0.152,21.875 -1.888,48.589 -2.994,70.464c-0.5,9.831 -8.312,93.229 -15.105,103.668c0.022,-0.022 125.868,15.885 249.067,7.508c2.908,-16.948 9.05,-34.288 11.502,-51.28c2.713,-19.466 6.272,-36.849 6.619,-56.467c0.564,-32.313 -1.129,-58.941 -1.15,-93.099c-0,-1.758 2.56,-1.91 2.756,-0.174c3.928,33.29 4.969,24.87 8.051,85.851c1.801,36.003 -2.843,77.127 -4.687,113.411c121.093,14.454 140.082,12.718 248.546,-3.19c-3.711,-36.154 -3.494,-69.336 -3.473,-105.512c0.109,-50.694 -2.278,-56.597 -0.564,-96.289c0.087,-1.801 1.215,-1.779 1.324,0.022c2.192,35.33 2.018,60.916 6.467,93.446c2.582,19.444 3.602,40.69 6.836,59.983c2.908,16.992 12.022,47.157 12.087,47.157c106.88,-0 112.566,4.514 219.445,4.514c-7.747,-17.144 -14.735,-125.348 -15.126,-134.809c-0.282,-6.294 -3.798,-131.663 -3.277,-151.975" style="fill:#c40000;fill-rule:nonzero;"/></g></g><g><clipPath id="_clip2"><rect x="303.494" y="47.526" width="249.891" height="11.328"/></clipPath><g clip-path="url(#_clip2)"><path d="M836.892,58.55l-841.948,0l-0,-9.7l841.948,-0l0,9.7" style="fill:#d4983d;fill-rule:nonzero;"/></g></g><g><clipPath id="_clip3"><rect x="303.494" y="36.176" width="249.891" height="15.126"/></clipPath><g clip-path="url(#_clip3)"><path d="M836.892,50.694l-841.948,0l-0,-13.129l841.948,0l0,13.129" style="fill:#d4983d;fill-rule:nonzero;"/></g></g><g><clipPath id="_clip4"><rect x="303.494" y="30.339" width="24.284" height="54.384"/></clipPath><g clip-path="url(#_clip4)"><path d="M323.155,81.554l-42.838,-0l-0,-51.042l42.838,0l0,51.042" style="fill:#c40000;fill-rule:nonzero;"/></g></g><g><path d="M551.541,81.554l-42.839,-0l0,-51.042l42.839,0l-0,51.042" style="fill:#c40000;fill-rule:nonzero;"/></g><g><path d="M548.893,77.474l-37.695,-0l-0,-46.962l37.695,0l0,46.962" style="fill:#c40000;fill-rule:nonzero;"/></g><g><clipPath id="_clip5"><rect x="303.494" y="30.339" width="18.728" height="48.828"/></clipPath><g clip-path="url(#_clip5)"><path d="M320.486,77.474l-37.695,-0l-0,-46.962l37.695,0l0,46.962" style="fill:#c40000;fill-rule:nonzero;"/></g></g><g><clipPath id="_clip6"><rect x="1037.89" y="72.092" width="245.443" height="295.595"/></clipPath><g clip-path="url(#_clip6)"><path d="M1264.65,72.613c0,-0 -728.125,-0.022 -728.233,-0.022c0.108,7.162 1.975,98.85 1.91,106.793c-0.152,21.875 -1.888,48.589 -2.995,70.464c-0.499,9.831 -8.312,93.229 -15.104,103.668c0.021,-0.022 125.868,15.885 249.067,7.508c2.908,-16.948 9.071,-34.288 11.501,-51.28c2.713,-19.466 6.272,-36.849 6.619,-56.467c0.564,-32.313 -1.128,-58.941 -1.15,-93.099c0,-1.758 2.561,-1.91 2.756,-0.174c3.928,33.29 4.991,24.87 8.051,85.851c1.802,36.003 -2.843,77.127 -4.687,113.411c121.094,14.454 140.104,12.718 248.546,-3.19c-3.711,-36.154 -3.494,-69.336 -3.472,-105.512c0.13,-50.694 -2.279,-56.597 -0.565,-96.289c0.087,-1.801 1.216,-1.779 1.346,0.022c2.17,35.33 1.996,60.916 6.467,93.446c2.561,19.444 3.581,40.69 6.814,59.983c2.908,16.992 12.023,47.157 12.088,47.157c106.879,-0 112.565,4.514 219.444,4.514c-7.747,-17.144 -14.713,-125.348 -15.126,-134.809c-0.282,-6.294 -3.797,-131.663 -3.277,-151.975" style="fill:#c40000;fill-rule:nonzero;"/></g></g><g><clipPath id="_clip7"><rect x="1037.89" y="47.526" width="282.899" height="11.328"/></clipPath><g clip-path="url(#_clip7)"><path d="M1321.48,58.55l-841.948,0l-0,-9.7l841.948,-0l0,9.7" style="fill:#d4983d;fill-rule:nonzero;"/></g></g><g><clipPath id="_clip8"><rect x="1037.89" y="36.176" width="282.899" height="15.126"/></clipPath><g clip-path="url(#_clip8)"><path d="M1321.48,50.694l-841.948,0l-0,-13.129l841.948,0l0,13.129" style="fill:#d4983d;fill-rule:nonzero;"/></g></g><g><path d="M1264.52,81.554l-42.838,-0l-0,-51.042l42.838,0l0,51.042" style="fill:#c40000;fill-rule:nonzero;"/></g><g><path d="M1261.89,77.474l-37.717,-0l0,-46.962l37.717,0l0,46.962" style="fill:#c40000;fill-rule:nonzero;"/></g><g><clipPath id="_clip9"><rect x="39.692" y="72.092" width="268.49" height="295.595"/></clipPath><g clip-path="url(#_clip9)"><path d="M785.135,72.613c-0,-0 -728.147,-0.022 -728.256,-0.022c0.109,7.162 1.997,98.85 1.932,106.793c-0.152,21.875 -1.91,48.589 -3.017,70.464c-0.499,9.831 -8.29,93.229 -15.082,103.668c-0,-0.022 125.846,15.885 249.067,7.508c2.886,-16.948 9.049,-34.288 11.501,-51.28c2.691,-19.466 6.25,-36.849 6.598,-56.467c0.586,-32.313 -1.107,-58.941 -1.129,-93.099c0,-1.758 2.539,-1.91 2.756,-0.174c3.928,33.29 4.97,24.87 8.051,85.851c1.802,36.003 -2.842,77.127 -4.709,113.411c121.116,14.454 140.104,12.718 248.546,-3.19c-3.689,-36.154 -3.494,-69.336 -3.45,-105.512c0.108,-50.694 -2.279,-56.597 -0.565,-96.289c0.066,-1.801 1.216,-1.779 1.324,0.022c2.17,35.33 2.018,60.916 6.467,93.446c2.561,19.444 3.581,40.69 6.836,59.983c2.886,16.992 12.001,47.157 12.088,47.157c106.879,-0 112.543,4.514 219.423,4.514c-7.726,-17.144 -14.714,-125.348 -15.126,-134.809c-0.261,-6.294 -3.798,-131.663 -3.255,-151.975" style="fill:#c40000;fill-rule:nonzero;"/></g></g><g><clipPath id="_clip10"><rect x="0" y="47.526" width="308.181" height="11.328"/></clipPath><g clip-path="url(#_clip10)"><path d="M841.949,58.55l-841.949,0l0,-9.7l841.949,-0l-0,9.7" style="fill:#d4983d;fill-rule:nonzero;"/></g></g><g><clipPath id="_clip11"><rect x="0" y="36.176" width="308.181" height="15.126"/></clipPath><g clip-path="url(#_clip11)"><path d="M841.949,50.694l-841.949,0l0,-13.129l841.949,0l-0,13.129" style="fill:#d4983d;fill-rule:nonzero;"/></g></g><g><path d="M99.805,81.554l-42.839,-0l0,-51.042l42.839,0l-0,51.042" style="fill:#c40000;fill-rule:nonzero;"/></g><g><clipPath id="_clip12"><rect x="283.333" y="30.339" width="24.848" height="54.384"/></clipPath><g clip-path="url(#_clip12)"><path d="M328.19,81.554l-42.838,-0l-0,-51.042l42.838,0l0,51.042" style="fill:#c40000;fill-rule:nonzero;"/></g></g><g><path d="M97.135,77.474l-37.695,-0l0,-46.962l37.695,0l0,46.962" style="fill:#c40000;fill-rule:nonzero;"/></g><g><clipPath id="_clip13"><rect x="283.333" y="30.339" width="24.848" height="48.828"/></clipPath><g clip-path="url(#_clip13)"><path d="M325.543,77.474l-37.696,-0l0,-46.962l37.696,0l-0,46.962" style="fill:#c40000;fill-rule:nonzero;"/></g></g><g><clipPath id="_clip14"><rect x="547.266" y="72.092" width="249.87" height="295.595"/></clipPath><g clip-path="url(#_clip14)"><path d="M1023.85,72.613c-0,-0 -728.125,-0.022 -728.234,-0.022c0.109,7.162 1.975,98.85 1.91,106.793c-0.152,21.875 -1.888,48.589 -3.016,70.464c-0.478,9.831 -8.29,93.229 -15.083,103.668c0.022,-0.022 125.846,15.885 249.067,7.508c2.908,-16.948 9.049,-34.288 11.502,-51.28c2.691,-19.466 6.271,-36.849 6.619,-56.467c0.564,-32.313 -1.129,-58.941 -1.151,-93.099c0,-1.758 2.539,-1.91 2.756,-0.174c3.928,33.29 4.97,24.87 8.052,85.851c1.801,36.003 -2.843,77.127 -4.709,113.411c121.115,14.454 140.104,12.718 248.567,-3.19c-3.711,-36.154 -3.494,-69.336 -3.472,-105.512c0.108,-50.694 -2.279,-56.597 -0.564,-96.289c0.065,-1.801 1.215,-1.779 1.324,0.022c2.191,35.33 2.018,60.916 6.467,93.446c2.56,19.444 3.602,40.69 6.835,59.983c2.908,16.992 12.023,47.157 12.088,47.157c106.88,-0 112.565,4.514 219.445,4.514c-7.748,-17.144 -14.736,-125.348 -15.126,-134.809c-0.282,-6.294 -3.798,-131.663 -3.277,-151.975" style="fill:#c40000;fill-rule:nonzero;"/></g></g><g><clipPath id="_clip15"><rect x="547.266" y="47.526" width="249.87" height="11.328"/></clipPath><g clip-path="url(#_clip15)"><path d="M1080.66,58.55l-841.949,0l0,-9.7l841.949,-0l0,9.7" style="fill:#d4983d;fill-rule:nonzero;"/></g></g><g><clipPath id="_clip16"><rect x="547.266" y="36.176" width="249.87" height="15.126"/></clipPath><g clip-path="url(#_clip16)"><path d="M1080.66,50.694l-841.949,0l0,-13.129l841.949,0l0,13.129" style="fill:#d4983d;fill-rule:nonzero;"/></g></g><g><clipPath id="_clip17"><rect x="547.266" y="30.339" width="24.957" height="54.384"/></clipPath><g clip-path="url(#_clip17)"><path d="M566.905,81.554l-42.816,-0l-0,-51.042l42.816,0l0,51.042" style="fill:#c40000;fill-rule:nonzero;"/></g></g><g><path d="M795.313,81.554l-42.839,-0l-0,-51.042l42.839,0l-0,51.042" style="fill:#c40000;fill-rule:nonzero;"/></g><g><path d="M792.665,77.474l-37.695,-0l-0,-46.962l37.695,0l-0,46.962" style="fill:#c40000;fill-rule:nonzero;"/></g><g><clipPath id="_clip18"><rect x="547.266" y="30.339" width="19.401" height="48.828"/></clipPath><g clip-path="url(#_clip18)"><path d="M564.258,77.474l-37.696,-0l0,-46.962l37.696,0l-0,46.962" style="fill:#c40000;fill-rule:nonzero;"/></g></g><g><clipPath id="_clip19"><rect x="791.037" y="72.092" width="249.87" height="295.595"/></clipPath><g clip-path="url(#_clip19)"><path d="M1267.62,72.613c-0,-0 -728.147,-0.022 -728.234,-0.022c0.087,7.162 1.975,98.85 1.91,106.793c-0.152,21.875 -1.888,48.589 -3.017,70.464c-0.499,9.831 -8.29,93.229 -15.082,103.668c-0,-0.022 125.846,15.885 249.067,7.508c2.908,-16.948 9.049,-34.288 11.501,-51.28c2.691,-19.466 6.272,-36.849 6.619,-56.467c0.565,-32.313 -1.128,-58.941 -1.15,-93.099c0,-1.758 2.539,-1.91 2.756,-0.174c3.928,33.29 4.97,24.87 8.051,85.851c1.802,36.003 -2.842,77.127 -4.709,113.411c121.116,14.454 140.104,12.718 248.568,-3.19c-3.711,-36.154 -3.516,-69.336 -3.472,-105.512c0.108,-50.694 -2.279,-56.597 -0.565,-96.289c0.066,-1.801 1.216,-1.779 1.324,0.022c2.192,35.33 2.018,60.916 6.467,93.446c2.561,19.444 3.603,40.69 6.836,59.983c2.908,16.992 12.023,47.157 12.088,47.157c106.879,-0 112.565,4.514 219.444,4.514c-7.747,-17.144 -14.735,-125.348 -15.147,-134.809c-0.261,-6.294 -3.776,-131.663 -3.255,-151.975" style="fill:#c40000;fill-rule:nonzero;"/></g></g><g><clipPath id="_clip20"><rect x="791.037" y="47.526" width="249.87" height="11.328"/></clipPath><g clip-path="url(#_clip20)"><path d="M1324.44,58.55l-841.949,0l-0,-9.7l841.949,-0l-0,9.7" style="fill:#d4983d;fill-rule:nonzero;"/></g></g><g><clipPath id="_clip21"><rect x="791.037" y="36.176" width="249.87" height="15.126"/></clipPath><g clip-path="url(#_clip21)"><path d="M1324.44,50.694l-841.949,0l-0,-13.129l841.949,0l-0,13.129" style="fill:#d4983d;fill-rule:nonzero;"/></g></g><g><clipPath id="_clip22"><rect x="791.037" y="30.339" width="20.074" height="54.384"/></clipPath><g clip-path="url(#_clip22)"><path d="M810.677,81.554l-42.838,-0l-0,-51.042l42.838,0l0,51.042" style="fill:#c40000;fill-rule:nonzero;"/></g></g><g><path d="M1039.08,81.554l-42.838,-0l-0,-51.042l42.838,0l0,51.042" style="fill:#c40000;fill-rule:nonzero;"/></g><g><path d="M1036.44,77.474l-37.696,-0l0,-46.962l37.696,0l-0,46.962" style="fill:#c40000;fill-rule:nonzero;"/></g><g><clipPath id="_clip23"><rect x="791.037" y="30.339" width="20.074" height="48.828"/></clipPath><g clip-path="url(#_clip23)"><path d="M808.03,77.474l-37.696,-0l0,-46.962l37.696,0l-0,46.962" style="fill:#c40000;fill-rule:nonzero;"/></g></g><g><clipPath id="_clip24"><rect x="95.768" y="30.339" width="20.812" height="66.645"/></clipPath><g clip-path="url(#_clip24)"><rect x="97.244" y="-120.399" width="217.773" height="217.773" style="fill:#c40000;fill-rule:nonzero;"/><path d="M315.017,98.85l-217.773,-0c-0.825,-0 -1.476,-0.651 -1.476,-1.476l0,-217.773c0,-0.825 0.651,-1.476 1.476,-1.476l217.773,-0c0.825,-0 1.476,0.651 1.476,1.476l0,217.773c0,0.825 -0.651,1.476 -1.476,1.476Zm-216.319,-2.93l214.844,0l-0,-214.844l-214.844,0l-0,214.844Z" style="fill:#c40000;fill-rule:nonzero;"/></g></g><g><clipPath id="_clip25"><rect x="318.012" y="30.339" width="20.812" height="66.645"/></clipPath><g clip-path="url(#_clip25)"><rect x="319.466" y="-120.399" width="217.795" height="217.773" style="fill:#c40000;fill-rule:nonzero;"/><path d="M537.261,98.85l-217.795,-0c-0.825,-0 -1.454,-0.651 -1.454,-1.476l0,-217.773c0,-0.825 0.629,-1.476 1.454,-1.476l217.795,-0c0.825,-0 1.476,0.651 1.476,1.476l-0,217.773c-0,0.825 -0.651,1.476 -1.476,1.476Zm-216.319,-2.93l214.844,0l-0,-214.844l-214.844,0l-0,214.844Z" style="fill:#c40000;fill-rule:nonzero;"/></g></g><g><clipPath id="_clip26"><rect x="1034.25" y="30.339" width="20.833" height="66.645"/></clipPath><g clip-path="url(#_clip26)"><rect x="1035.72" y="-120.399" width="217.795" height="217.773" style="fill:#c40000;fill-rule:nonzero;"/><path d="M1253.52,98.85l-217.796,-0c-0.824,-0 -1.475,-0.651 -1.475,-1.476l-0,-217.773c-0,-0.825 0.651,-1.476 1.475,-1.476l217.796,-0c0.824,-0 1.454,0.651 1.454,1.476l-0,217.773c-0,0.825 -0.63,1.476 -1.454,1.476Zm-216.32,-2.93l214.844,0l-0,-214.844l-214.844,0l0,214.844Z" style="fill:#c40000;fill-rule:nonzero;"/></g></g><g><clipPath id="_clip27"><rect x="1203.21" y="30.339" width="20.833" height="66.645"/></clipPath><g clip-path="url(#_clip27)"><rect x="1204.69" y="-120.399" width="217.795" height="217.773" style="fill:#c40000;fill-rule:nonzero;"/><path d="M1422.48,98.85l-217.795,-0c-0.825,-0 -1.476,-0.651 -1.476,-1.476l-0,-217.773c-0,-0.825 0.651,-1.476 1.476,-1.476l217.795,-0c0.824,-0 1.454,0.651 1.454,1.476l-0,217.773c-0,0.825 -0.63,1.476 -1.454,1.476Zm-216.32,-2.93l214.844,0l-0,-214.844l-214.844,0l0,214.844Z" style="fill:#c40000;fill-rule:nonzero;"/></g></g><g><path d="M272.331,171.962c-0,-0 -0.022,-0.022 -0.044,-0.044c-1.193,-2.343 -2.908,-4.188 -5.165,-5.533c-2.235,-1.368 -4.665,-2.04 -7.291,-2.04l-59.744,-0l-0,-4.688l65.191,0l-5.035,-6.185c-4.861,-5.989 -10.308,-11.371 -16.384,-16.124c-6.055,-4.774 -12.566,-8.811 -19.532,-12.109c-6.966,-3.299 -14.192,-5.816 -21.723,-7.487c-7.53,-1.693 -15.126,-2.539 -22.851,-2.518c-57.249,0 -103.82,46.572 -103.82,103.82c0,9.288 1.215,18.403 3.646,27.344c0.26,1.02 0.868,1.779 1.78,2.3c0.911,0.521 1.866,0.651 2.886,0.369c0.998,-0.261 1.779,-0.868 2.278,-1.78c0.521,-0.911 0.651,-1.866 0.369,-2.886c-2.257,-8.29 -3.385,-16.732 -3.385,-25.347c-0,-53.06 43.186,-96.246 96.246,-96.246c11.979,-0.022 23.546,2.127 34.722,6.445c11.154,4.319 21.18,10.504 30.013,18.577c1.519,1.367 -110.048,8.572 -110.048,8.572l0,3.255l24.631,0l0,4.688l-24.631,-0l0,3.255c0,-0 10.07,-0.13 24.631,0.065l0,19.857c0,30.425 -24.761,55.165 -55.186,55.165c-0.76,-0.022 -1.411,0.238 -1.954,0.781c-0.564,0.521 -0.824,1.172 -0.824,1.931c-0,0.76 0.26,1.411 0.824,1.953c0.543,0.521 1.194,0.782 1.954,0.76c8.116,-0 15.928,-1.563 23.415,-4.709c-0.911,0.846 -1.15,1.844 -0.694,2.973c0.434,1.15 1.28,1.736 2.517,1.736c22.765,-0 41.298,-27.192 41.298,-60.59l0,-19.683l0.499,0.021l0,19.662c0,31.575 -8.746,55.165 -16.58,55.165c-0.738,0.021 -1.345,0.303 -1.866,0.824c-0.521,0.521 -0.76,1.15 -0.76,1.888c0,0.738 0.239,1.367 0.76,1.888c0.521,0.543 1.128,0.803 1.866,0.825c14.301,-0 22.005,-31.207 22.005,-60.59l0,-19.532l0.521,0l0,77.409c0,0.76 0.261,1.389 0.782,1.932c0.542,0.521 1.171,0.781 1.931,0.781c0.738,-0 1.367,-0.26 1.91,-0.781c0.521,-0.543 0.781,-1.172 0.781,-1.932l-0,-77.235l0.521,0.022l-0,19.336c-0,29.383 7.704,60.59 22.005,60.59c0.738,-0.022 1.345,-0.282 1.866,-0.825c0.521,-0.521 0.76,-1.15 0.76,-1.888c-0,-0.738 -0.239,-1.367 -0.76,-1.888c-0.521,-0.521 -1.128,-0.803 -1.866,-0.824c-7.834,-0 -16.58,-23.59 -16.58,-55.165l0,-19.163l0.499,0.022l0,19.141c0,33.42 18.533,60.59 41.298,60.59c1.237,0.022 2.083,-0.564 2.539,-1.714c0.456,-1.151 0.217,-2.149 -0.694,-2.995c7.487,3.146 15.277,4.709 23.394,4.709c0.759,0.022 1.41,-0.239 1.953,-0.76c0.564,-0.542 0.825,-1.193 0.825,-1.953c-0,-0.759 -0.261,-1.41 -0.825,-1.931c-0.543,-0.543 -1.194,-0.803 -1.953,-0.781c-30.426,-0 -55.187,-24.74 -55.187,-55.165l0,-18.62c26.085,1.324 52.083,3.993 61.415,9.223c12.782,7.14 14.54,26.15 14.54,40.929c-0,4.926 -0.369,9.787 -1.107,14.648c-0.738,4.861 -1.844,9.636 -3.32,14.323c-1.476,4.666 -3.277,9.223 -5.447,13.629c-2.17,4.405 -4.666,8.615 -7.487,12.63c-2.821,4.036 -5.925,7.812 -9.31,11.371c-3.407,3.538 -7.053,6.815 -10.938,9.788c-3.906,2.994 -8.007,5.664 -12.304,8.029c-4.319,2.366 -8.768,4.362 -13.39,6.055l-0.043,-0c-1.65,0.586 -2.995,1.628 -4.015,3.082c-1.02,1.453 -1.541,3.059 -1.541,4.839l0,2.018c0,0.89 -0.304,1.649 -0.955,2.3c-0.629,0.63 -1.389,0.955 -2.3,0.955l-48.199,0c-0.911,0 -1.671,-0.325 -2.3,-0.955c-0.651,-0.651 -0.955,-1.41 -0.955,-2.3l-0,-2.018c-0,-1.78 -0.521,-3.386 -1.541,-4.839c-1.02,-1.454 -2.365,-2.474 -4.015,-3.082l-0.065,-0.022c-11.285,-4.08 -21.441,-10.069 -30.469,-17.99c-9.027,-7.9 -16.297,-17.166 -21.853,-27.821c-1.128,-2.149 0.478,-4.731 2.908,-4.731l162.565,-0c0.564,-0 1.107,-0.109 1.628,-0.369c0.521,-0.239 0.955,-0.586 1.324,-1.042c0.347,-0.434 0.607,-0.933 0.737,-1.497c0.131,-0.565 0.131,-1.107 0.022,-1.671c-0.369,-1.78 -2.018,-2.995 -3.819,-2.995l-163.737,-0c-7.487,-0 -12.348,7.877 -8.985,14.562l0.044,0.086c5.816,11.524 13.498,21.593 23.09,30.23c9.592,8.616 20.399,15.235 32.465,19.814c1.389,0.521 2.105,1.541 2.105,3.038l0,1.411c0,1.302 0.261,2.539 0.738,3.732c0.499,1.215 1.215,2.257 2.127,3.169c0.911,0.933 1.953,1.627 3.168,2.126c1.194,0.499 2.431,0.738 3.733,0.738l50.369,0c1.302,0 2.539,-0.239 3.733,-0.738c1.193,-0.499 2.257,-1.193 3.168,-2.126c0.911,-0.912 1.606,-1.954 2.105,-3.147c0.499,-1.194 0.738,-2.452 0.738,-3.733l-0,-1.432c0.022,-1.497 0.716,-2.517 2.127,-3.038c3.385,-1.302 6.705,-2.778 9.939,-4.427c3.233,-1.65 6.38,-3.451 9.418,-5.426c3.06,-1.975 5.99,-4.101 8.811,-6.38c2.821,-2.279 5.534,-4.709 8.095,-7.27c2.56,-2.561 4.991,-5.252 7.291,-8.073c2.279,-2.821 4.406,-5.751 6.402,-8.789c1.975,-3.038 3.798,-6.185 5.447,-9.418c1.65,-3.234 3.125,-6.532 4.427,-9.918c1.302,-3.385 2.431,-6.836 3.364,-10.351c0.955,-3.494 1.714,-7.032 2.279,-10.634c0.586,-3.581 0.955,-7.183 1.15,-10.807c0.195,-3.624 0.195,-7.249 0.022,-10.873c-0.196,-3.624 -0.565,-7.226 -1.129,-10.829c-0.564,-3.58 -1.324,-7.118 -2.257,-10.633c-0.933,-3.494 -2.04,-6.945 -3.342,-10.352c-1.302,-3.385 -2.778,-6.684 -4.405,-9.939Zm-77.67,-7.617l-0.52,-0l-0,-4.688l0.52,0l0,4.688Zm-30.164,-4.688l0.499,0l-0,4.688l-0.499,-0l-0,-4.688Zm0.499,27.865c-0,30.425 -16.081,55.165 -35.873,55.165c-0.065,-0 -0.152,-0 -0.217,0.021c20.964,-9.548 35.591,-30.707 35.591,-55.186l-0,-19.792l0.499,0l-0,19.792Zm5.425,-23.177l0,-4.688l0.521,0l-0,4.688l-0.521,-0Zm5.924,-0l0,-4.688l0.521,0l0,4.688l-0.521,-0Zm5.947,-0l-0,-4.688l0.499,0l-0,4.688l-0.499,-0Zm5.924,-0l0,-4.688l0.521,0l-0,4.688l-0.521,-0Zm42.036,78.363c-0.087,0 -0.152,-0.021 -0.217,-0.021c-19.792,-0 -35.894,-24.74 -35.894,-55.165l-0,-18.902l0.52,0.021l0,18.881c0,24.479 14.605,45.638 35.591,55.186Z" style="fill-rule:nonzero;"/></g><g><rect x="1264.8" y="37.24" width="4424.09" height="22.418" style="fill:#d4983d;fill-rule:nonzero;"/></g><g><g><g><path d="M390.866,210.219c2.951,1.91 5.729,4.232 8.333,6.944c2.647,2.67 3.993,5.947 3.993,9.809c-0,4.688 -1.259,9.028 -3.733,13.021c-2.495,3.993 -5.165,7.726 -7.986,11.198l-0.607,0.608l-0,38.541c0.108,1.628 0.195,3.256 0.26,4.862c0.043,1.627 0.087,3.233 0.087,4.861c-0,4.969 -0.868,9.027 -2.604,12.152c-1.737,3.169 -5.513,4.775 -11.285,4.775c-5.686,-0 -9.874,-1.346 -12.587,-3.993c-2.669,-2.604 -4.405,-5.99 -5.208,-10.157c-0.825,-4.166 -1.281,-8.528 -1.389,-13.107l-0,-9.722c-0.521,0.173 -0.998,0.26 -1.389,0.26l-1.649,0c-6.207,0 -11.502,-1.866 -15.886,-5.642c-4.34,-3.755 -6.51,-8.811 -6.51,-15.191c-0,-3.234 0.868,-5.903 2.604,-7.986c1.78,-2.084 3.754,-4.102 5.903,-6.077c1.844,-1.779 3.646,-3.646 5.382,-5.555c1.779,-1.954 3.559,-3.95 5.295,-5.99c1.085,-1.324 2.3,-2.778 3.646,-4.34c1.323,-1.563 2.343,-2.648 3.038,-3.299l0.608,-0.607c-3.125,-0.283 -6.164,-0.825 -9.115,-1.65c-2.951,-0.803 -5.794,-2.127 -8.507,-3.993c-2.778,-2.018 -4.991,-4.687 -6.597,-7.986c-1.628,-3.299 -2.431,-6.706 -2.431,-10.243c0,-3.168 0.695,-5.599 2.084,-7.292c1.432,-1.736 3.428,-3.385 5.989,-4.948c4.037,-2.604 7.227,-4.774 9.549,-6.51c2.365,-1.736 5.034,-3.95 7.986,-6.684l2.604,-2.431l0,-7.204l0.26,-5.035c-1.215,-1.389 -2.517,-2.691 -3.906,-3.906c-2.257,-2.257 -4.166,-4.341 -5.729,-6.25c-1.562,-1.954 -2.344,-4.102 -2.344,-6.424c0,-4.167 1.78,-7.4 5.382,-9.722c3.581,-2.366 7.162,-3.559 10.764,-3.559c3.928,-0 7.682,0.824 11.285,2.43c3.646,1.563 6.619,3.907 8.941,7.032c1.736,2.43 2.973,5.013 3.732,7.725c0.738,2.669 1.237,5.469 1.476,8.42c5.382,1.042 9.223,3.798 11.545,8.247c2.952,-3.754 6.511,-6.901 10.677,-9.462c4.167,-2.539 8.551,-4.796 13.195,-6.771c4.687,-1.953 9.158,-3.754 13.455,-5.382c-0.695,-1.041 -1.042,-2.17 -1.042,-3.385c-0,-2.431 1.128,-4.471 3.385,-6.163c2.301,-1.671 4.948,-2.908 7.9,-3.733c2.995,-0.803 5.425,-1.215 7.291,-1.215c4.861,-0 9.245,1.02 13.195,3.038c3.993,2.04 7.552,4.774 10.677,8.246c7.509,2.149 14.41,4.428 20.66,6.858c6.25,2.431 11.284,5.382 15.104,8.854c3.863,3.429 5.816,7.726 5.816,12.934c-0,5.556 -2.301,9.809 -6.858,12.761c0.521,0.933 0.912,1.975 1.215,3.125c0.348,1.172 0.521,2.257 0.521,3.298c0,3.776 -1.541,6.815 -4.6,9.115c-3.082,2.257 -6.381,3.385 -9.896,3.385c-0.933,0 -2.409,-0.108 -4.427,-0.347c-2.04,-0.282 -3.798,-0.564 -5.296,-0.868c-0.933,-0.217 -2.408,-0.434 -4.427,-0.608c-2.04,-0.217 -3.515,-0.347 -4.427,-0.347c-1.041,0 -2.148,0.044 -3.298,0.087c-1.172,0.065 -2.301,0.152 -3.386,0.26l-0.781,0.261c0.391,0.933 0.803,1.953 1.215,3.038c0.391,1.042 0.651,2.127 0.782,3.212l0.607,-0c1.91,-0.391 3.776,-0.608 5.643,-0.608c4.34,0 8.615,0.434 12.847,1.302c4.21,0.868 8.094,2.67 11.632,5.382c3.342,2.387 6.076,5.426 8.159,9.115c2.084,3.711 3.125,7.639 3.125,11.805c0,1.519 -0.303,2.995 -0.868,4.427c-0.52,1.389 -1.106,2.757 -1.736,4.08c-1.215,2.149 -1.996,3.711 -2.343,4.688c-0.348,0.933 -0.521,1.801 -0.521,2.604c-0,0.412 0.087,0.825 0.26,1.215c0.217,0.413 0.434,0.825 0.608,1.216l0.955,2.43c0.52,1.042 0.824,2.17 0.954,3.386c0.174,1.215 0.261,2.387 0.261,3.472c-0,3.993 -1.367,7.378 -4.08,10.156c-2.669,2.778 -6.033,4.167 -10.069,4.167c-3.082,-0 -6.033,-0.391 -8.855,-1.216l0.434,0.348l2.605,1.475c2.821,1.454 5.837,3.603 9.027,6.424c3.234,2.843 5.99,5.946 8.247,9.288c2.3,3.364 3.472,6.814 3.472,10.33c0,4.275 -1.367,8.203 -4.08,11.806c-2.669,3.645 -6.293,5.468 -10.85,5.468c-4.688,0 -9.072,-1.172 -13.108,-3.472c-4.058,-2.257 -7.682,-5.078 -10.851,-8.42l-2.43,-2.431l-2.431,-2.604l-12.76,-12.673l-0.347,0.607c-2.149,4.406 -5.035,8.724 -8.681,12.934c-3.646,4.275 -7.791,7.748 -12.413,10.417c-4.644,2.713 -9.636,4.08 -15.018,4.08c-4.579,-0 -9.114,-0.999 -13.628,-2.952c-4.514,-1.974 -8.333,-4.687 -11.458,-8.159c-0.934,-1.107 -1.736,-2.322 -2.431,-3.646c-0.651,-1.346 -0.955,-2.669 -0.955,-3.993c0,-2.539 1.15,-4.558 3.472,-6.077c2.366,-1.497 4.514,-2.712 6.424,-3.645c7.118,-3.473 13.303,-7.835 18.576,-13.108c-2.604,-0.803 -5.013,-1.823 -7.204,-3.038c-2.214,-1.216 -4.211,-2.887 -5.99,-5.035c-2.951,-3.646 -5.165,-7.769 -6.597,-12.413c-1.389,-4.623 -2.084,-9.223 -2.084,-13.802c0,-7.4 1.606,-14.019 4.862,-19.879c3.233,-5.837 7.074,-11.588 11.545,-17.274l0.607,-0.608c-2.148,-0.911 -4.427,-2.083 -6.857,-3.472c-2.431,-1.432 -4.493,-3.212 -6.164,-5.295c-1.692,-2.083 -2.517,-4.471 -2.517,-7.205c0,-1.324 0.521,-2.539 1.563,-3.646c-1.867,-1.215 -3.386,-2.734 -4.601,-4.6l-0,0.781c-0.695,4.579 -2.083,8.398 -4.167,11.458c-2.083,3.017 -4.47,6.25 -7.118,9.722l-0.607,0.608l-0,8.507Zm87.76,-38.542c-0.521,-0.282 -1.02,-0.521 -1.476,-0.694c-0.477,-0.217 -1.041,-0.456 -1.736,-0.695l-1.823,-0.868c-0.933,-0.39 -1.801,-0.803 -2.604,-1.215c-0.825,-0.391 -1.562,-0.868 -2.257,-1.389c-1.454,-1.042 -2.756,-1.823 -3.906,-2.344c-1.172,-0.564 -2.3,-0.868 -3.386,-0.868c-1.562,0 -3.559,1.02 -5.989,3.039c-2.561,2.039 -5.035,3.993 -7.465,5.902c-2.431,1.867 -5.013,3.711 -7.726,5.556l0.868,-0l7.639,-1.389l28.819,-5.035l1.042,0Zm-3.212,74.306l2.431,-0.261c2.647,-0.217 4.362,-0.542 5.121,-0.954c0.738,-0.391 1.324,-1.151 1.736,-2.257c0.391,-1.085 0.738,-2.127 1.042,-3.125c0.347,-0.977 0.911,-2.822 1.736,-5.556c0.695,-2.3 1.042,-3.733 1.042,-4.253c-0,-1.216 -0.673,-1.823 -1.997,-1.823c-0.586,-0 -1.215,0.086 -1.909,0.26c-0.651,0.13 -1.281,0.326 -1.91,0.608l-3.906,0.955l-1.389,0.607l-0,0.781l-0.434,2.691l-1.563,11.459l0,0.868Zm-47.83,-6.684c1.042,3.646 2.453,7.357 4.254,11.111l8.073,-1.042l0.173,-0.607l1.823,-8.681l0,-0.781l-0.781,-0c-1.107,0.13 -2.235,0.217 -3.385,0.26c-1.107,0.065 -2.257,0.087 -3.473,0.087l-3.038,0l-2.43,-0.174l-1.216,-0.173Zm13.282,-35.504l-1.823,0.174l-0.608,0.608c-1.975,2.257 -3.819,4.6 -5.556,7.031c-1.692,2.43 -3.19,5.013 -4.513,7.726c2.43,-1.389 4.904,-2.605 7.465,-3.646c2.539,-1.085 5.165,-1.953 7.899,-2.604c-0.13,-1.389 -0.325,-2.713 -0.607,-3.994c-0.304,-1.258 -0.565,-2.56 -0.782,-3.906c-0.586,-0.39 -1.085,-0.868 -1.475,-1.389Z" style="fill-rule:nonzero;"/></g></g></g><g><g><g><path d="M641.232,170.896l-0.347,0.174c-3.776,1.106 -7.639,1.866 -11.632,2.257c-3.95,0.347 -7.878,0.52 -11.806,0.52c-4.297,0 -8.68,-0.455 -13.194,-1.388c-4.514,-0.912 -8.464,-2.952 -11.806,-6.077c-1.345,-1.324 -2.474,-2.886 -3.385,-4.687c-0.868,-1.845 -1.302,-3.69 -1.302,-5.556c-0,-1.91 1.475,-3.147 4.427,-3.733c2.995,-0.629 6.098,-0.954 9.288,-0.954c2.43,-0 4.709,-0.196 6.858,-0.608l33.333,-8.42l0.781,-0.261c-1.627,-1.15 -2.864,-2.17 -3.733,-3.038c-0.868,-0.911 -1.302,-1.996 -1.302,-3.212c0,-2.539 0.999,-4.687 3.039,-6.423c2.018,-1.736 4.101,-2.952 6.25,-3.646c1.606,-0.629 3.342,-0.998 5.208,-1.129c1.91,-0.173 3.733,-0.26 5.469,-0.26c5.946,0 10.72,0.738 14.323,2.17c3.645,1.389 7.899,3.624 12.76,6.684c0.282,0 0.434,0.065 0.434,0.174c2.018,-0.347 4.362,-0.716 7.031,-1.129c2.713,-0.39 5.057,-0.607 7.032,-0.607l15.798,-0c4.557,0.521 8.768,0.933 12.587,1.215c3.819,0.239 7.574,0.781 11.285,1.649c3.689,0.868 7.639,2.518 11.805,4.948c2.821,1.736 5.057,3.95 6.684,6.597c1.606,2.605 2.431,5.599 2.431,8.941c-0,0.999 -0.13,2.127 -0.347,3.386c-0.174,1.28 -0.825,2.235 -1.91,2.864c-1.215,0.825 -2.474,1.519 -3.733,2.084c-1.28,0.521 -2.647,0.781 -4.08,0.781c-2.734,-0 -5.946,-0.521 -9.635,-1.563c-3.711,-1.085 -6.901,-1.996 -9.549,-2.69c-2.04,-0.283 -4.058,-0.478 -6.076,-0.608c-2.04,-0.109 -4.058,-0.174 -6.076,-0.174c-1.346,0 -2.735,-0.021 -4.167,-0.087c-1.389,-0.108 -2.756,-0.021 -4.08,0.261l-15.712,1.389l-4.253,0.434c-0,0.521 -0.065,1.041 -0.174,1.562c-0.065,0.478 -0.087,0.912 -0.087,1.302c0,0.934 0.087,1.606 0.261,1.997l15.885,-1.215c6.771,-0.695 13.564,-0.521 20.399,0.52c6.88,0.999 13.217,3.451 19.011,7.379c4.275,2.951 7.943,6.033 11.024,9.201c3.125,3.125 5.751,7.032 7.9,11.719c0.802,1.91 1.497,3.885 2.083,5.903c0.629,2.04 0.955,4.123 0.955,6.25c-0,3.884 -1.042,7.118 -3.125,9.722c-2.084,2.561 -4.775,4.427 -8.073,5.642c-3.299,1.172 -6.684,1.737 -10.156,1.737c-2.149,-0 -4.406,-0.131 -6.771,-0.434c-2.387,-0.348 -4.644,-0.977 -6.771,-1.91c-0.521,-0.282 -1.042,-0.543 -1.563,-0.781c-0.477,-0.283 -1.02,-0.521 -1.649,-0.695c-0.412,0.586 -0.651,1.367 -0.694,2.344c-0.065,0.998 -0.174,1.823 -0.348,2.517c0,0.413 -0.13,1.02 -0.347,1.823c3.06,1.736 5.816,3.19 8.247,4.34c2.43,1.172 4.709,2.561 6.857,4.167c2.127,1.628 4.427,3.906 6.858,6.858c2.257,2.951 4.167,6.054 5.729,9.288c1.563,3.19 2.344,6.749 2.344,10.677c-0,7.248 -3.255,12.63 -9.722,16.146c4.34,2.257 8.181,4.948 11.545,8.073c3.342,3.081 5.035,7.378 5.035,12.934c-0,2.257 -0.239,4.21 -0.695,5.903c-0.477,1.671 -1.454,3.472 -2.951,5.381c-1.628,1.845 -3.451,3.473 -5.469,4.862c-1.975,1.432 -4.319,2.17 -7.031,2.17c-4.297,-0 -7.943,-1.172 -10.938,-3.472c-2.951,-2.257 -5.772,-4.862 -8.42,-7.813c-1.736,-1.91 -3.646,-3.885 -5.729,-5.903c-2.083,-1.953 -4.232,-3.689 -6.424,-5.208l-9.027,-6.858c-1.389,-0.911 -2.518,-1.758 -3.386,-2.517c-0.868,-0.738 -1.302,-1.519 -1.302,-2.344c0,-2.257 0.781,-3.993 2.344,-5.208c1.562,-1.215 3.407,-2.04 5.555,-2.518c2.127,-0.455 4.08,-0.694 5.816,-0.694c1.389,0 2.713,0.043 3.993,0.087c1.259,0.065 2.561,0.152 3.907,0.26l1.215,0.261c-1.215,-1.085 -2.257,-2.17 -3.125,-3.212c-0.868,-1.085 -1.78,-2.301 -2.691,-3.646c-0.174,-0.282 -0.434,-0.543 -0.781,-0.781c-0.304,-0.282 -0.586,-0.564 -0.868,-0.868l-21.615,5.468l-6.25,1.997l0.608,0.434c0.694,0.933 1.389,1.953 2.083,3.038c0.738,1.042 1.215,2.17 1.389,3.386l0.608,19.618c0.217,6.944 -1.303,12.022 -4.601,15.277c-3.299,3.234 -8.464,4.862 -15.452,4.862c-1.736,-0 -3.602,-0.131 -5.555,-0.348c-1.91,-0.173 -3.776,-0.477 -5.556,-0.868l-16.666,-3.819l-20.226,-5.469l-10.938,-3.385c-2.387,2.647 -4.427,4.687 -6.163,6.076c-1.692,1.432 -3.559,2.431 -5.642,2.951c-2.083,0.565 -5.013,0.869 -8.767,0.869c-2.149,-0 -4.341,-0.782 -6.598,-2.344c-2.213,-1.563 -4.058,-3.472 -5.555,-5.729c-1.454,-2.214 -2.17,-4.384 -2.17,-6.511c-0,-3.472 1.345,-6.011 4.079,-7.639c1.216,-0.803 2.366,-1.823 3.473,-3.038c1.15,-1.215 2.192,-2.43 3.125,-3.646c-1.172,-1.324 -1.953,-2.387 -2.344,-3.212c-0.412,-0.803 -0.608,-1.475 -0.608,-1.996c0,-0.695 0.196,-1.411 0.608,-2.17c0.391,-0.738 0.977,-1.693 1.736,-2.865c-0.521,-0.694 -1.172,-1.345 -1.91,-1.996c-0.694,-0.695 -1.389,-1.324 -2.083,-1.91c-0.933,-0.803 -1.736,-2.3 -2.431,-4.514c-0.694,-2.192 -1.041,-3.906 -1.041,-5.121c-0,-1.91 0.955,-4.211 2.864,-6.945c1.91,-2.778 3.581,-4.622 5.035,-5.555c0.695,-0.391 1.042,-0.89 1.042,-1.476c-0.998,-1.042 -1.91,-2.279 -2.778,-3.733c-0.868,-1.497 -1.302,-3.06 -1.302,-4.687c-0,-1.216 0.434,-2.301 1.302,-3.299c0.868,-1.042 2.105,-2.213 3.733,-3.559c-4.167,-1.389 -7.726,-3.32 -10.677,-5.816c-2.952,-2.474 -4.428,-6.207 -4.428,-11.198c0,-1.215 0.174,-2.387 0.521,-3.559c0.348,-1.215 0.912,-2.973 1.736,-5.295c0.217,-0.694 0.717,-2.279 1.476,-4.774c0.738,-2.474 1.432,-4.97 2.083,-7.466c0.695,-2.474 1.042,-3.993 1.042,-4.513c0,-0.391 -0.217,-0.89 -0.608,-1.476c-0.412,-0.63 -1.128,-1.563 -2.17,-2.778c-0.694,-0.911 -1.041,-1.845 -1.041,-2.778c-0,-1.085 0.195,-2.257 0.607,-3.472c0.391,-1.215 0.868,-2.279 1.389,-3.212c0.695,-1.085 1.736,-1.736 3.125,-1.909c1.432,-0.217 2.626,-0.348 3.559,-0.348c2.257,0 4.644,0.391 7.205,1.129c2.604,0.759 4.514,2.148 5.729,4.166c0.217,0.521 0.608,1.172 1.129,1.91c0.564,0.76 1.128,1.129 1.649,1.129c0.282,-0.174 1.736,-0.543 4.34,-1.129c2.648,-0.629 5.751,-1.302 9.288,-1.996c3.581,-0.738 6.815,-1.389 9.723,-1.91c2.886,-0.564 4.644,-0.912 5.295,-1.042c1.215,-0.282 2.105,-0.694 2.691,-1.215c1.844,-0.694 3.233,-1.346 4.166,-1.997c0,-1.323 -0.217,-2.604 -0.607,-3.819Zm68.229,74.045c-2.561,-2.3 -4.557,-4.796 -5.99,-7.465l-4.513,1.562l-16.494,5.296l-23.263,6.857l-34.115,9.115c-0.825,0.13 -2.409,0.564 -4.774,1.302c-2.322,0.694 -4.601,1.432 -6.858,2.17c-2.213,0.759 -3.559,1.28 -4.08,1.562c-0.521,0.131 -0.781,0.521 -0.781,1.216c-0,0.412 0.543,0.933 1.649,1.562c1.15,0.586 2.387,1.107 3.733,1.563c1.389,0.477 2.279,0.694 2.691,0.694c0.217,0 1.845,-0.39 4.861,-1.215c3.06,-0.803 6.944,-1.866 11.632,-3.212c4.731,-1.389 9.809,-2.821 15.191,-4.34c5.382,-1.563 10.547,-3.06 15.538,-4.514c4.97,-1.497 9.245,-2.778 12.847,-3.82c3.646,-1.085 6.077,-1.779 7.292,-2.083c3.516,-1.085 7.747,-2.279 12.674,-3.559c4.904,-1.259 9.158,-2.17 12.76,-2.691Zm-108.16,-18.142c1.606,-0.695 3.299,-1.498 5.035,-2.431c1.736,-0.976 3.299,-1.931 4.688,-2.864c-0.586,-0.63 -1.107,-1.346 -1.563,-2.17c-0.477,-0.803 -0.694,-1.693 -0.694,-2.691c-0,-2.778 1.237,-4.645 3.732,-5.643c2.474,-1.041 4.796,-1.562 6.945,-1.562c1.909,-0 3.667,0.325 5.295,0.955c1.606,0.585 3.233,1.345 4.861,2.256c1.953,-1.323 3.906,-2.799 5.816,-4.427c1.91,-1.606 3.733,-3.233 5.469,-4.861l-2.865,0.608l-3.385,0.434l-14.931,1.562c-4.34,0.413 -8.724,0.087 -13.108,-0.954l-1.041,-0.434c-0.413,3.255 -0.825,5.881 -1.216,7.899l-1.215,6.25c-0.412,2.148 -1.02,4.839 -1.823,8.073Zm49.219,-2.257l36.198,-14.497l6.424,-2.43c-5.274,-2.713 -8.92,-4.08 -10.938,-4.08c-0.825,-0 -1.649,0.174 -2.517,0.521c-0.868,0.347 -1.628,0.738 -2.257,1.128l-14.323,8.854c-2.214,1.346 -4.21,2.756 -5.99,4.254c-1.801,1.519 -3.602,3.19 -5.382,5.035l-1.215,1.215Zm-29.427,61.805c0.694,1.867 1.085,3.603 1.215,5.209c0.521,0.521 1.129,0.781 1.823,0.781l3.82,-0c1.323,-0 2.452,0.065 3.385,0.174c0.977,0.065 2.127,0.086 3.472,0.086l8.073,0c0.391,0 0.89,0.044 1.476,0.087c0.629,0.065 1.15,0.087 1.562,0.087c0.521,0 0.868,-0.13 1.042,-0.434c0.391,-1.042 0.629,-2.691 0.694,-4.948c0.044,-2.3 0.022,-4.08 -0.086,-5.295l-23.091,3.385l-3.559,0.434l0.174,0.434Zm86.806,-93.923c1.844,1.215 3.602,2.43 5.295,3.646c1.671,1.215 3.407,2.43 5.208,3.645c2.539,-0.282 4.97,-0.889 7.292,-1.822c2.365,-0.912 4.709,-1.78 7.031,-2.605c-0,-0.39 -0.065,-0.868 -0.174,-1.389c-0.065,-0.564 -0.217,-0.976 -0.434,-1.215c-0.304,-0.39 -1.041,-0.738 -2.257,-1.041c-1.215,-0.283 -2.083,-0.434 -2.604,-0.434l-17.969,1.041l-1.388,0.174Z" style="fill-rule:nonzero;"/></g></g></g><g><g><g><path d="M853.925,145.809c1.909,-2.647 3.754,-5.121 5.555,-7.378c1.845,-2.301 4.037,-4.471 6.597,-6.511c1.736,-1.215 3.668,-2.213 5.816,-3.038c2.192,-0.803 4.362,-1.215 6.511,-1.215c2.018,-0 4.34,0.412 6.944,1.215c2.604,0.825 4.774,1.78 6.511,2.865c2.994,1.562 5.946,3.732 8.854,6.51c2.886,2.778 5.208,5.599 6.944,8.42c1.606,2.257 2.908,5.035 3.906,8.334c1.042,3.298 1.563,6.38 1.563,9.201c-0,0.933 -0.065,1.91 -0.174,2.951c-0.065,0.999 -0.087,2.04 -0.087,3.125l2.257,-0.868l12.327,-6.423l6.25,-3.473c0.108,-1.736 0.13,-3.559 0.087,-5.468c-0.065,-1.953 -0.174,-3.907 -0.348,-5.816c-2.387,-2.018 -4.166,-3.776 -5.382,-5.295c-1.215,-1.563 -1.822,-3.212 -1.822,-4.948c-0,-2.713 0.911,-4.97 2.777,-6.771c1.91,-1.845 4.167,-3.255 6.771,-4.254c2.648,-1.041 5.057,-1.562 7.205,-1.562c3.06,-0 6.207,0.521 9.462,1.562c3.233,0.999 5.924,2.648 8.073,4.948c1.324,1.216 2.474,2.561 3.472,3.993c1.432,1.802 2.452,3.603 3.038,5.382c0.629,1.802 1.215,3.907 1.736,6.337c1.389,-0.217 2.778,-0.391 4.167,-0.521c1.389,-0.173 2.778,-0.26 4.167,-0.26c3.862,-0 8.268,0.586 13.194,1.736c4.905,1.107 8.854,2.865 11.806,5.295c2.257,2.04 4.253,4.471 5.989,7.292c1.78,2.843 2.691,5.881 2.691,9.114c0,1.346 -0.152,2.756 -0.434,4.254c-0.239,1.454 -0.759,2.778 -1.562,3.993c-1.107,1.91 -2.648,3.125 -4.601,3.646c-1.91,0.521 -3.885,0.781 -5.903,0.781c-0.694,-0 -1.801,-0.043 -3.298,-0.174c-1.454,-0.173 -3.603,-0.52 -6.424,-1.041c-0.933,-0.217 -2.214,-0.348 -3.82,-0.348l-14.496,0c-0.174,3.473 -0.174,7.032 -0,10.678l3.212,-0c5.382,-0 10.677,0.737 15.885,2.17c5.252,1.389 9.853,4.036 13.802,7.899c2.127,2.04 3.668,3.971 4.601,5.816c0.911,1.801 1.389,4.167 1.389,7.118c-0,3.364 -1.302,6.402 -3.906,9.115c-2.605,2.669 -5.686,3.993 -9.202,3.993c-0.933,-0 -2.409,-0.196 -4.427,-0.608c-2.04,-0.391 -4.253,-0.868 -6.684,-1.389c-1.628,-0.39 -3.082,-0.694 -4.34,-0.868c-1.281,-0.217 -2.127,-0.347 -2.518,-0.347c-0.824,-0 -2.3,0.065 -4.427,0.173c-2.148,0.131 -4.297,0.326 -6.423,0.608c-2.149,0.304 -3.624,0.564 -4.427,0.781l-12.761,4.427c-4.058,1.389 -7.335,2.757 -9.809,4.08c-2.495,1.346 -4.948,3.885 -7.378,7.639c-1.346,2.214 -2.322,4.21 -2.952,5.99c-0.586,1.801 -1.128,4.058 -1.649,6.771c2.821,-1.085 5.925,-2.778 9.288,-5.035c3.342,-2.3 6.511,-4.536 9.462,-6.684c1.736,-1.324 3.993,-2.626 6.771,-3.906c2.778,-1.259 5.23,-2.192 7.378,-2.778c2.127,-0.629 4.297,-1.042 6.511,-1.215c2.257,-0.217 4.449,-0.348 6.597,-0.348c3.342,0 6.597,0.391 9.722,1.129c3.169,0.694 6.272,1.996 9.288,3.906c3.342,2.04 6.706,4.601 10.07,7.726c3.342,3.081 5.686,6.684 7.031,10.85c0.564,1.737 0.955,3.559 1.129,5.469c0.217,1.867 0.347,3.733 0.347,5.643c-0,2.387 -0.174,4.47 -0.521,6.25c-0.347,1.736 -1.042,3.537 -2.083,5.382c-0.999,1.801 -2.605,4.166 -4.861,7.118c1.041,1.627 1.866,3.342 2.517,5.121c0.694,1.801 1.042,3.646 1.042,5.556c-0,1.736 -0.239,3.428 -0.695,5.121c-0.477,1.671 -1.302,3.06 -2.517,4.167c-1.628,1.432 -3.472,2.647 -5.556,3.646c-2.083,1.041 -4.253,1.562 -6.51,1.562c-1.628,0 -4.861,-0.607 -9.722,-1.823c-1.867,-0.521 -4.384,-0.824 -7.553,-0.868c-3.19,-0.065 -5.707,-0.087 -7.552,-0.087c-3.537,0 -7.074,0.196 -10.59,0.608c-3.472,0.391 -6.944,0.911 -10.417,1.563c-2.951,0.39 -6.054,0.607 -9.288,0.607c-3.363,0 -6.293,-0.564 -8.767,-1.649c-2.496,-1.042 -5.1,-2.648 -7.813,-4.774c-4.817,-4.297 -8.572,-9.397 -11.284,-15.365c-1.107,0.586 -2.301,1.107 -3.559,1.562c-1.281,0.478 -2.518,0.695 -3.733,0.695c-3.472,-0 -6.576,-1.063 -9.288,-3.212c-2.669,-2.192 -5.013,-4.904 -7.031,-8.16c-2.04,-3.298 -3.69,-6.727 -4.948,-10.329c-1.281,-3.581 -2.322,-6.858 -3.125,-9.809c-0.413,-1.606 -0.955,-3.125 -1.65,-4.514c-0.651,-1.433 -1.432,-2.822 -2.343,-4.167c-1.628,0.933 -3.256,1.91 -4.862,2.951c-1.627,0.999 -3.255,2.04 -4.861,3.125c2.019,2.04 3.559,3.798 4.601,5.295c1.085,1.454 2.083,2.952 2.951,4.514c0.869,1.519 1.91,3.559 3.125,6.164l7.466,12.239c0.911,1.389 1.866,3.364 2.864,5.903c1.042,2.561 1.563,4.622 1.563,6.25c-0,2.647 -1.172,4.622 -3.472,5.903c-2.257,1.323 -4.514,1.996 -6.771,1.996c-2.149,0 -4.08,-0.564 -5.816,-1.649c-1.693,-1.107 -3.255,-2.387 -4.688,-3.82c-1.909,-1.909 -3.863,-4.6 -5.816,-8.072c-1.909,-3.516 -3.125,-6.294 -3.646,-8.334l-4.079,-14.93c-0.413,-1.324 -0.955,-2.539 -1.65,-3.646c-0.651,-1.15 -1.302,-2.279 -1.996,-3.386c-0.521,-0.39 -1.78,-0.781 -3.733,-1.128c-1.91,-0.347 -3.212,-0.564 -3.906,-0.694c-2.843,-0.63 -5.881,-2.127 -9.115,-4.514c-3.255,-2.366 -5.642,-4.688 -7.205,-6.945c-3.016,-4.166 -4.513,-9.028 -4.513,-14.583c-0,-5.903 1.475,-11.328 4.427,-16.32c2.994,-4.969 6.64,-9.331 10.937,-13.107c-3.255,-1.91 -5.859,-3.906 -7.812,-5.99c-1.91,-2.083 -2.865,-5.143 -2.865,-9.201c0,-0.217 0.109,-0.977 0.347,-2.257c0.282,-1.259 0.608,-2.561 0.955,-3.906c0.347,-1.389 0.629,-2.279 0.868,-2.691l7.9,-11.111c1.497,-2.019 2.604,-3.69 3.298,-5.035c0.738,-1.324 1.129,-2.648 1.129,-3.993c-0,-1.389 -0.651,-2.279 -1.91,-2.691c-1.281,-0.391 -2.995,-0.651 -5.122,-0.781c-1.736,-0.283 -3.428,-1.129 -5.034,-2.518c-1.628,-1.389 -2.431,-3.081 -2.431,-5.121c0,-2.301 0.803,-4.384 2.431,-6.25c1.606,-1.91 3.58,-3.407 5.902,-4.514c2.366,-1.15 4.558,-1.736 6.598,-1.736c2.647,-0 5.165,0.586 7.552,1.736c2.365,1.107 4.47,2.517 6.337,4.253Zm-30.035,126.736c-0,-3.863 1.823,-5.816 5.469,-5.816c3.862,0 6.987,0.999 9.375,2.952c2.365,1.909 4.21,4.383 5.555,7.378c1.324,2.778 2.626,5.36 3.906,7.726c1.259,2.387 2.561,4.839 3.907,7.378c0.803,1.519 1.692,3.169 2.691,4.948c1.041,1.78 2.039,3.429 3.038,4.948c0.217,0.521 0.521,1.064 0.868,1.65c0.347,0.629 0.564,1.302 0.694,1.996c0.521,1.432 0.782,3.168 0.782,5.208c-0,0.912 -0.174,1.867 -0.521,2.865c-0.304,1.042 -0.999,1.845 -2.084,2.431c-2.257,0.911 -4.948,1.388 -8.073,1.388c-2.43,0 -4.861,-0.933 -7.291,-2.777c-2.387,-1.802 -4.558,-4.145 -6.511,-7.032c-1.974,-2.908 -3.602,-5.859 -4.861,-8.854c-1.28,-2.995 -1.975,-5.729 -2.083,-8.16c-0.174,-2.018 -0.261,-3.819 -0.261,-5.381c0,-1.563 -0.065,-2.735 -0.173,-3.559c-0.13,-1.042 -0.478,-1.997 -1.042,-2.865c-0.521,-0.868 -1.389,-2.105 -2.604,-3.733c-0.521,-0.694 -0.781,-1.584 -0.781,-2.691Zm103.559,0.261c-0.174,0.238 -0.261,0.759 -0.261,1.562c0,6.771 2.431,12.37 7.292,16.754c2.431,-0.63 4.97,-1.302 7.639,-1.997c2.713,-0.694 5.295,-1.302 7.726,-1.823c1.844,-0.521 3.667,-0.955 5.468,-1.302c1.845,-0.347 3.928,-0.716 6.25,-1.128c0.803,-0.63 2.192,-1.953 4.167,-3.993c2.018,-2.019 4.102,-4.276 6.25,-6.771c2.192,-2.474 4.102,-4.796 5.729,-6.945c1.606,-2.191 2.431,-3.689 2.431,-4.514c-0,-1.323 -0.825,-2.3 -2.431,-2.951c-1.627,-0.694 -2.995,-1.042 -4.08,-1.042c-1.345,0 -2.951,0.782 -4.861,2.344c-1.866,1.519 -3.342,2.756 -4.427,3.733c-1.736,1.454 -3.971,2.995 -6.684,4.601c-2.669,1.627 -5.36,2.994 -8.073,4.079c-2.669,1.042 -5.013,1.563 -7.031,1.563c-1.736,-0 -4.145,-0.217 -7.205,-0.695c-3.016,-0.455 -5.642,-0.954 -7.899,-1.475Zm-22.049,-61.372c0.695,-0.282 1.324,-0.542 1.91,-0.781c0.629,-0.282 1.215,-0.434 1.736,-0.434c0.694,-0 1.324,0.087 1.91,0.26c0.629,0.131 1.215,0.304 1.736,0.521l13.281,-7.205c1.606,-0.976 3.32,-1.866 5.122,-2.691c0.217,-1.215 0.369,-2.452 0.434,-3.732c0.108,-1.259 0.217,-2.561 0.347,-3.907l-6.25,0c-3.364,0 -6.836,-0.824 -10.417,-2.517c-3.602,-1.671 -6.51,-3.733 -8.767,-6.163c-0.825,-0.803 -1.476,-1.671 -1.997,-2.604l-1.649,-2.865l-6.076,6.077c-2.04,2.039 -4.167,4.058 -6.424,6.076c3.342,2.669 6.272,5.707 8.767,9.115c2.474,3.363 4.601,6.987 6.337,10.85Zm-29.08,-8.68l-0.955,0.607l-2.256,1.823l-11.893,9.288c-3.472,2.843 -6.12,5.122 -7.899,6.858c-1.736,1.736 -3.82,4.036 -6.25,6.858c-0.521,0.694 -1.02,1.475 -1.476,2.343c-0.477,0.868 -0.694,1.78 -0.694,2.691c-0,2.149 1.128,3.212 3.385,3.212c1.085,0 2.105,-0.39 3.038,-1.215c4.449,-4.167 8.876,-8.29 13.282,-12.413c4.448,-4.102 8.962,-8.16 13.541,-12.153c0.282,-0.174 0.63,-0.456 1.042,-0.868c-0.412,-1.215 -0.912,-2.366 -1.476,-3.472c-0.521,-1.15 -0.998,-2.344 -1.389,-3.559Zm-12.673,-26.216c1.324,-1.085 2.452,-2.105 3.385,-3.038c0.977,-0.911 2.127,-2.127 3.472,-3.646c0.391,-0.39 1.324,-1.258 2.778,-2.604c1.498,-1.324 3.125,-2.799 4.861,-4.427c3.407,-2.995 5.122,-5.642 5.122,-7.899c-0,-2.127 -0.933,-3.906 -2.778,-5.295c-1.801,-1.433 -3.711,-2.17 -5.729,-2.17c-1.519,-0 -2.583,0.585 -3.212,1.736c-0.586,1.106 -1.085,2.821 -1.476,5.121l-4.6,15.365l-1.823,6.857Zm42.014,92.796c0.39,-4.037 1.171,-8.073 2.343,-12.066l-0.52,-0.608c-1.107,0.412 -2.257,0.759 -3.473,1.042c-1.215,0.238 -2.647,0.347 -4.253,0.347c-0.521,-0 -1.02,-0.022 -1.476,-0.087c-0.477,-0.043 -0.998,-0.087 -1.562,-0.087c1.606,1.628 3.298,3.776 5.034,6.424c0.565,0.824 1.216,1.714 1.91,2.691c0.738,0.933 1.411,1.714 1.997,2.344Zm7.465,-26.389c0.911,-1.085 1.736,-2.171 2.43,-3.212c0.738,-1.085 1.476,-2.192 2.171,-3.299c0.803,-1.215 1.757,-2.344 2.864,-3.385c-2.734,-1.389 -5.772,-2.279 -9.114,-2.691c0.52,2.04 0.868,4.145 1.041,6.337c0.217,2.148 0.434,4.231 0.608,6.25Zm-19.792,10.85c-0.304,-2.018 -0.694,-3.863 -1.215,-5.555c-0.521,-1.671 -1.389,-3.776 -2.604,-6.337c-1.389,0.825 -2.691,1.649 -3.906,2.517c-1.216,0.868 -2.409,1.78 -3.559,2.691c1.15,0.174 2.56,0.738 4.253,1.65c1.736,0.933 4.08,2.604 7.031,5.034Z" style="fill-rule:nonzero;"/></g></g></g><g><g><g><path d="M1085.39,260.954l-0,-1.389c-0,-1.736 0.303,-3.082 0.955,-4.08c0.52,-0.803 1.323,-1.562 2.43,-2.257c1.085,-0.738 2.257,-1.128 3.472,-1.128c0.912,-0 2.279,0.173 4.08,0.521c1.845,0.303 3.082,0.737 3.733,1.302c0.282,0.13 0.868,0.564 1.736,1.302c0.868,0.759 1.497,1.128 1.91,1.128l19.01,-4.687l1.997,-0.434c1.085,-0.217 2.126,-0.456 3.125,-0.695c0.976,-0.282 1.953,-0.521 2.951,-0.694c0.217,-0.217 0.347,-0.543 0.347,-0.955c0,-0.803 -0.065,-1.476 -0.173,-1.997c-0.131,-0.564 -0.174,-1.323 -0.174,-2.256c-1.801,0.13 -3.602,0.325 -5.382,0.607c-1.801,0.239 -3.646,0.434 -5.556,0.608l-10.503,0.607c-1.042,0.131 -1.866,0.174 -2.431,0.174l-1.562,0c-4.167,0 -8.333,-0.998 -12.5,-3.038c-4.167,-2.018 -7.27,-5.035 -9.288,-9.028c-0.999,-1.91 -1.736,-4.536 -2.257,-7.899c-0.521,-3.342 -0.933,-6.966 -1.215,-10.851c-0.304,-3.928 -0.478,-7.661 -0.521,-11.198c-0.065,-3.581 -0.087,-6.532 -0.087,-8.854c-0,-3.472 0.022,-6.944 0.087,-10.417c0.043,-3.515 0.282,-6.966 0.694,-10.33c0.282,-1.497 0.478,-2.908 0.608,-4.253c0.173,-1.324 0.173,-2.691 -0,-4.08c-1.563,-1.432 -3.255,-2.799 -5.035,-4.08c-1.736,-1.258 -2.604,-3.125 -2.604,-5.555c-0,-1.91 0.477,-3.342 1.476,-4.341c1.041,-1.041 2.365,-2.17 3.993,-3.385c1.041,-0.391 2.04,-0.608 3.038,-0.608c2.821,0 5.599,0.695 8.333,2.084c2.778,1.345 5.23,2.864 7.379,4.6c1.323,1.107 2.452,2.388 3.385,3.82c0.977,1.389 1.931,2.821 2.865,4.253c0.39,0.695 0.737,1.454 1.041,2.257l0.782,2.431c0.694,-0 1.258,-0.13 1.736,-0.434c0.455,-0.282 0.889,-0.543 1.302,-0.781l18.403,-10.157c4.166,-2.257 8.81,-4.514 13.975,-6.771c5.209,-2.3 10.091,-4.123 14.67,-5.468c5.382,-1.498 10.808,-2.713 16.32,-3.646c5.49,-0.977 11.024,-1.476 16.58,-1.476c6.185,0 12.087,1.085 17.708,3.212c5.664,2.083 10.981,4.926 15.972,8.507c1.845,1.389 3.733,2.951 5.643,4.687c1.909,1.737 3.385,3.625 4.427,5.643c1.323,2.561 2.43,5.186 3.298,7.899c0.912,2.669 1.389,5.425 1.389,8.247l0,0.434c0,0.347 0.022,0.737 0.087,1.128c0.043,0.412 0.13,0.912 0.26,1.476l0.261,21.962c-0,2.04 0.043,4.058 0.173,6.076c0.109,2.04 0.174,4.058 0.174,6.076c0,4.688 -1.172,8.898 -3.472,12.587c-2.257,3.711 -6.142,5.556 -11.632,5.556c-2.322,-0 -4.666,-0.044 -7.031,-0.174c-2.322,-0.173 -4.644,-0.173 -6.945,0l-19.965,1.215c-1.042,0.131 -2.127,0.304 -3.212,0.521c-1.107,0.174 -2.17,0.391 -3.212,0.608c-1.909,0.412 -3.45,0.694 -4.6,0.868c-1.107,0.13 -1.997,0.325 -2.691,0.608c-0.239,0.238 -0.348,0.954 -0.348,2.17c0,0.824 0.022,1.606 0.087,2.343c0.044,0.76 0.13,1.454 0.261,2.084c1.215,-0.109 2.343,-0.261 3.385,-0.434c1.085,-0.217 2.344,-0.391 3.733,-0.521c1.15,-0.282 2.343,-0.521 3.559,-0.694c1.215,-0.218 2.365,-0.391 3.472,-0.521l5.642,-0.434l17.361,-0.608l1.823,0c3.473,0 7.422,0.174 11.893,0.521c4.448,0.347 8.767,1.128 12.934,2.344c4.166,1.215 7.595,3.19 10.33,5.902c2.777,2.67 4.166,6.381 4.166,11.111c0,4.688 -1.866,7.987 -5.555,9.896c-3.711,1.867 -7.552,2.778 -11.545,2.778c-1.389,0 -2.757,-0.087 -4.08,-0.26c-1.346,-0.217 -2.756,-0.348 -4.254,-0.348l-3.212,0c0.803,0.521 1.585,1.172 2.344,1.91c0.738,0.76 1.519,1.454 2.344,2.084c2.365,1.736 4.861,4.21 7.465,7.378c2.648,3.19 4.861,6.055 6.597,8.594c0.565,0.651 1.172,1.866 1.823,3.646c0.695,1.736 1.302,3.537 1.823,5.382c0.564,1.801 0.868,3.168 0.868,4.079c0,2.561 -0.152,4.992 -0.434,7.292c-0.304,2.365 -1.258,4.644 -2.864,6.858c-0.934,1.041 -1.91,1.909 -2.952,2.604c-0.998,0.694 -2.148,1.302 -3.472,1.823c-2.431,1.324 -4.601,2.083 -6.51,2.257c-1.867,0.217 -4.145,0.347 -6.858,0.347c-2.387,-0 -4.688,-0.391 -6.944,-1.129c-2.214,-0.759 -4.254,-1.801 -6.164,-3.125c-3.081,-2.256 -5.36,-5.36 -6.857,-9.288c-1.042,-3.472 -2.084,-6.64 -3.125,-9.548c-0.999,-2.887 -2.236,-6.012 -3.733,-9.375c-0.651,-1.736 -1.714,-4.08 -3.212,-7.032c-1.519,-2.994 -3.103,-5.837 -4.774,-8.507c-1.693,-2.712 -3.125,-4.34 -4.34,-4.861c-1.346,0 -2.865,0.087 -4.601,0.261c-1.736,0.13 -3.168,0.499 -4.253,1.128c-0,1.346 0.043,2.691 0.173,4.08c0.174,1.346 0.261,2.821 0.261,4.427l0.173,25c0,1.736 -0.152,3.841 -0.434,6.337c-0.239,2.474 -0.955,4.47 -2.17,5.99c-4.753,6.076 -11.198,9.114 -19.358,9.114c-2.951,0 -5.382,-0.173 -7.291,-0.521c-1.91,-0.347 -3.798,-0.781 -5.643,-1.302l-15.711,-5.295c-2.735,-0.933 -6.12,-2.43 -10.157,-4.514c-3.993,-2.083 -7.161,-4.08 -9.462,-5.989c-1.345,2.126 -2.821,4.383 -4.427,6.77c-1.627,2.366 -3.255,4.276 -4.861,5.73c-1.107,0.976 -2.322,1.779 -3.646,2.43c-1.345,0.695 -2.756,1.042 -4.253,1.042c-0.933,-0 -2.648,-0.174 -5.122,-0.521c-2.495,-0.347 -4.21,-0.651 -5.121,-0.868c-2.561,-0.998 -4.84,-2.604 -6.858,-4.861c-1.519,-1.736 -2.734,-3.733 -3.646,-5.99c-0.933,-2.213 -1.388,-4.47 -1.388,-6.771c-0,-1.736 0.651,-3.667 1.996,-5.816l1.997,-3.211l9.114,-15.365c0.391,-0.694 0.716,-1.411 0.955,-2.17c-1.215,-0.695 -2.474,-1.346 -3.733,-1.997c-1.28,-0.694 -2.647,-1.519 -4.079,-2.517c-2.214,-1.432 -3.95,-3.212 -5.209,-5.295c-1.28,-2.083 -1.91,-4.123 -1.91,-6.163c0,-1.324 0.478,-2.366 1.476,-3.125c1.042,-0.738 2.17,-1.129 3.386,-1.129c0.803,0 1.606,0.087 2.43,0.261c0.803,0.13 1.563,0.303 2.257,0.52c1.215,-0.217 2.648,-0.542 4.34,-0.954c1.671,-0.391 3.125,-0.738 4.341,-1.042Zm47.222,40.538l-0.434,-21.18c-2.431,0.173 -5.1,0.52 -7.986,1.041c-2.908,0.521 -5.469,1.129 -7.726,1.823l-1.215,3.82c-0.586,1.736 -1.281,3.559 -2.084,5.468c-0.824,1.867 -1.345,3.733 -1.562,5.643c0.629,0.521 1.345,0.911 2.17,1.128c0.803,0.174 1.563,0.413 2.257,0.695c0.911,0.238 2.3,0.52 4.167,0.868c1.909,0.347 3.841,0.651 5.816,0.868c1.953,0.173 3.342,0.26 4.166,0.26c0.391,0 0.803,-0.022 1.216,-0.087c0.39,-0.043 0.803,-0.173 1.215,-0.347Zm37.934,-125.087c1.042,-0.108 1.953,-0.217 2.778,-0.347c0.803,-0.173 1.671,-0.304 2.604,-0.434c3.515,-0.803 7.161,-1.259 10.937,-1.389c3.755,-0.173 7.466,-0.26 11.111,-0.26c0,-0.803 0.022,-1.65 0.087,-2.518c0.044,-0.868 0.087,-1.757 0.087,-2.691l0,-1.475c0,-0.391 -0.065,-0.868 -0.174,-1.389c-2.842,-0 -5.729,0.173 -8.68,0.521c-2.951,0.347 -5.859,0.781 -8.681,1.302c-4.166,0.824 -6.987,1.454 -8.42,1.91c-1.389,0.477 -2.083,1.302 -2.083,2.517c-0,0.521 0.022,1.085 0.087,1.649c0.043,0.521 0.086,1.042 0.086,1.563l0.261,1.041Zm-64.236,15.539l0.607,5.642l17.969,-7.292c3.516,-1.324 5.556,-2.192 6.077,-2.604l-0,-3.646c-0.131,0 -0.5,0.13 -1.129,0.347c-0.586,0.174 -1.215,0.413 -1.91,0.695c-1.454,0.304 -3.277,0.586 -5.468,0.868c-2.149,0.239 -4.08,0.347 -5.816,0.347c-1.736,0 -3.516,-0.173 -5.295,-0.521c-1.737,-0.347 -3.429,-0.911 -5.035,-1.736l-0,7.9Zm66.406,19.357c0.391,0.13 0.868,0.174 1.389,0.174c0.564,-0 1.15,-0.022 1.736,-0.087c0.629,-0.043 1.215,-0.13 1.736,-0.26c1.498,-0.283 2.865,-0.543 4.08,-0.782c1.215,-0.282 2.474,-0.477 3.819,-0.607l8.073,-1.65c0.803,-0.108 1.216,-0.52 1.216,-1.215l-0,-3.819c-0,-0.803 -0.304,-1.302 -0.868,-1.476c-0.521,-0.217 -1.65,-0.195 -3.386,0.087l-14.149,2.344c-1.454,0.303 -2.474,0.585 -3.038,0.868c-0.521,0.238 -0.782,0.694 -0.782,1.388c0,0.521 0.022,1.107 0.087,1.737c0.044,0.586 0.087,1.28 0.087,2.083l0,1.215Zm-62.153,15.972c2.301,-0.39 4.449,-0.976 6.424,-1.736c2.018,-0.738 4.123,-1.432 6.337,-2.083c1.215,-0.391 2.452,-0.738 3.732,-1.042c1.259,-0.282 2.518,-0.694 3.733,-1.215l-0,-1.997c-0,-1.215 -0.152,-1.822 -0.434,-1.822c-1.215,-0 -2.409,0.151 -3.559,0.434c-1.107,0.238 -2.214,0.347 -3.299,0.347c-2.148,-0 -4.253,-0.217 -6.337,-0.695c-2.083,-0.455 -4.21,-1.041 -6.336,-1.736c-0.304,-0.108 -0.673,-0.195 -1.129,-0.26c-0.477,-0.044 -0.846,-0.174 -1.128,-0.347c-0,0.694 0.087,1.909 0.26,3.645c0.217,1.737 0.521,3.473 0.868,5.209c0.347,1.692 0.63,2.778 0.868,3.298Z" style="fill-rule:nonzero;"/></g></g></g></svg>