<?xml version="1.0" encoding="UTF-8" standalone="no"?><!DOCTYPE svg PUBLIC "-//W3C//DTD SVG 1.1//EN" "http://www.w3.org/Graphics/SVG/1.1/DTD/svg11.dtd"><svg width="100%" height="100%" viewBox="0 0 5692 380" version="1.1" xmlns="http://www.w3.org/2000/svg" xmlns:xlink="http://www.w3.org/1999/xlink" xml:space="preserve" xmlns:serif="http://www.serif.com/" style="fill-rule:evenodd;clip-rule:evenodd;stroke-linejoin:round;stroke-miterlimit:2;"><g><g><clipPath id="_clip1"><path d="M551.194,36.979l5.013,0.13l-1.758,68.512l-5.035,-0.131l1.78,-68.511Z"/></clipPath><g clip-path="url(#_clip1)"><g><clipPath id="_clip2"><path d="M556.098,38.194c-1.671,51.606 -2.387,64.866 -3.884,66.624c-0.391,0.694 -1.65,-0.413 -1.65,-0.413l1.823,0.413c-0.173,-0 -1.476,0.672 -1.823,-0.413c-1.041,-2.17 2.04,-15.364 2.648,-24.674c0.868,-12.175 -0.651,-38.39 1.063,-41.58c0.391,-1.063 1.823,0.043 1.823,0.043"/></clipPath><g clip-path="url(#_clip2)"><path d="M545.334,23.568l18.62,0.477l-2.452,95.725l-18.62,-0.477l2.452,-95.725Z" style="fill:#fff;fill-rule:nonzero;"/></g></g></g></g></g><g><g><clipPath id="_clip3"><path d="M795.052,30.816l5.382,0.13l-1.888,73.633l-5.382,-0.152l1.888,-73.611Z"/></clipPath><g clip-path="url(#_clip3)"><g><clipPath id="_clip4"><path d="M800.347,32.14c-1.823,55.447 -2.582,69.683 -4.21,71.571c-0.412,0.759 -1.758,-0.434 -1.758,-0.434l1.953,0.434c-0.195,-0 -1.584,0.716 -1.953,-0.434c-1.106,-2.344 2.192,-16.515 2.843,-26.519c0.933,-13.086 -0.694,-41.255 1.15,-44.683c0.434,-1.129 1.975,0.065 1.975,0.065"/></clipPath><g clip-path="url(#_clip4)"><path d="M788.78,16.428l19.987,0.499l-2.626,102.843l-20.008,-0.499l2.647,-102.843Z" style="fill:#fff;fill-rule:nonzero;"/></g></g></g></g></g><g><clipPath id="_clip5"><rect x="303.494" y="58.181" width="249.891" height="295.573"/></clipPath><g clip-path="url(#_clip5)"><path d="M780.078,58.681c0,-0 -728.125,-0.022 -728.233,-0.022c0.108,7.183 1.974,98.85 1.909,106.792c-0.152,21.897 -1.888,48.59 -2.994,70.465c-0.5,9.831 -8.312,93.229 -15.105,103.689c0.022,-0.022 125.868,15.864 249.067,7.509c2.908,-16.971 9.05,-34.31 11.502,-51.281c2.713,-19.466 6.272,-36.849 6.619,-56.488c0.564,-32.314 -1.129,-58.941 -1.15,-93.078c-0,-1.757 2.56,-1.909 2.756,-0.173c3.928,33.29 4.969,24.848 8.051,85.85c1.801,35.981 -2.843,77.127 -4.687,113.412c121.093,14.431 140.082,12.717 248.546,-3.19c-3.711,-36.155 -3.494,-69.358 -3.473,-105.512c0.109,-50.716 -2.278,-56.598 -0.564,-96.311c0.087,-1.801 1.215,-1.78 1.324,0.022c2.192,35.351 2.018,60.915 6.467,93.467c2.582,19.423 3.602,40.669 6.836,59.961c2.908,17.014 12.022,47.179 12.087,47.179c106.88,0 112.566,4.492 219.445,4.492c-7.747,-17.144 -14.735,-125.347 -15.126,-134.787c-0.282,-6.315 -3.798,-131.662 -3.277,-151.996" style="fill:#c40000;fill-rule:nonzero;"/></g></g><g><clipPath id="_clip6"><rect x="303.494" y="33.594" width="249.891" height="11.35"/></clipPath><g clip-path="url(#_clip6)"><path d="M836.892,44.618l-841.948,0l-0,-9.7l841.948,-0l0,9.7" style="fill:#d4983d;fill-rule:nonzero;"/></g></g><g><clipPath id="_clip7"><rect x="303.494" y="22.266" width="249.891" height="15.104"/></clipPath><g clip-path="url(#_clip7)"><path d="M836.892,36.784l-841.948,-0l-0,-13.129l841.948,-0l0,13.129" style="fill:#d4983d;fill-rule:nonzero;"/></g></g><g><clipPath id="_clip8"><rect x="303.494" y="16.428" width="24.284" height="54.405"/></clipPath><g clip-path="url(#_clip8)"><path d="M323.155,67.643l-42.838,0l-0,-51.063l42.838,-0l0,51.063" style="fill:#c40000;fill-rule:nonzero;"/></g></g><g><path d="M551.541,67.643l-42.839,0l0,-51.063l42.839,-0l-0,51.063" style="fill:#c40000;fill-rule:nonzero;"/></g><g><path d="M548.893,63.542l-37.695,-0l-0,-46.962l37.695,-0l0,46.962" style="fill:#c40000;fill-rule:nonzero;"/></g><g><clipPath id="_clip9"><rect x="303.494" y="16.428" width="18.728" height="48.85"/></clipPath><g clip-path="url(#_clip9)"><path d="M320.486,63.542l-37.695,-0l-0,-46.962l37.695,-0l0,46.962" style="fill:#c40000;fill-rule:nonzero;"/></g></g><g><clipPath id="_clip10"><rect x="1037.89" y="58.181" width="245.443" height="295.573"/></clipPath><g clip-path="url(#_clip10)"><path d="M1264.65,58.681c0,-0 -728.125,-0.022 -728.233,-0.022c0.108,7.183 1.975,98.85 1.91,106.792c-0.152,21.897 -1.888,48.59 -2.995,70.465c-0.499,9.831 -8.312,93.229 -15.104,103.689c0.021,-0.022 125.868,15.864 249.067,7.509c2.908,-16.971 9.071,-34.31 11.501,-51.281c2.713,-19.466 6.272,-36.849 6.619,-56.488c0.564,-32.314 -1.128,-58.941 -1.15,-93.078c0,-1.757 2.561,-1.909 2.756,-0.173c3.928,33.29 4.991,24.848 8.051,85.85c1.802,35.981 -2.843,77.127 -4.687,113.412c121.094,14.431 140.104,12.717 248.546,-3.19c-3.711,-36.155 -3.494,-69.358 -3.472,-105.512c0.13,-50.716 -2.279,-56.598 -0.565,-96.311c0.087,-1.801 1.216,-1.78 1.346,0.022c2.17,35.351 1.996,60.915 6.467,93.467c2.561,19.423 3.581,40.669 6.814,59.961c2.908,17.014 12.023,47.179 12.088,47.179c106.879,0 112.565,4.492 219.444,4.492c-7.747,-17.144 -14.713,-125.347 -15.126,-134.787c-0.282,-6.315 -3.797,-131.662 -3.277,-151.996" style="fill:#c40000;fill-rule:nonzero;"/></g></g><g><clipPath id="_clip11"><rect x="1037.89" y="33.594" width="282.899" height="11.35"/></clipPath><g clip-path="url(#_clip11)"><path d="M1321.48,44.618l-841.948,0l-0,-9.7l841.948,-0l0,9.7" style="fill:#d4983d;fill-rule:nonzero;"/></g></g><g><clipPath id="_clip12"><rect x="1037.89" y="22.266" width="282.899" height="15.104"/></clipPath><g clip-path="url(#_clip12)"><path d="M1321.48,36.784l-841.948,-0l-0,-13.129l841.948,-0l0,13.129" style="fill:#d4983d;fill-rule:nonzero;"/></g></g><g><path d="M1264.52,67.643l-42.838,0l-0,-51.063l42.838,-0l0,51.063" style="fill:#c40000;fill-rule:nonzero;"/></g><g><path d="M1261.89,63.542l-37.717,-0l0,-46.962l37.717,-0l0,46.962" style="fill:#c40000;fill-rule:nonzero;"/></g><g><clipPath id="_clip13"><rect x="39.692" y="58.181" width="268.49" height="295.573"/></clipPath><g clip-path="url(#_clip13)"><path d="M785.135,58.681c-0,-0 -728.147,-0.022 -728.256,-0.022c0.109,7.183 1.997,98.85 1.932,106.792c-0.152,21.897 -1.91,48.59 -3.017,70.465c-0.499,9.831 -8.29,93.229 -15.082,103.689c-0,-0.022 125.846,15.864 249.067,7.509c2.886,-16.971 9.049,-34.31 11.501,-51.281c2.691,-19.466 6.25,-36.849 6.598,-56.488c0.586,-32.314 -1.107,-58.941 -1.129,-93.078c0,-1.757 2.539,-1.909 2.756,-0.173c3.928,33.29 4.97,24.848 8.051,85.85c1.802,35.981 -2.842,77.127 -4.709,113.412c121.116,14.431 140.104,12.717 248.546,-3.19c-3.689,-36.155 -3.494,-69.358 -3.45,-105.512c0.108,-50.716 -2.279,-56.598 -0.565,-96.311c0.066,-1.801 1.216,-1.78 1.324,0.022c2.17,35.351 2.018,60.915 6.467,93.467c2.561,19.423 3.581,40.669 6.836,59.961c2.886,17.014 12.001,47.179 12.088,47.179c106.879,0 112.543,4.492 219.423,4.492c-7.726,-17.144 -14.714,-125.347 -15.126,-134.787c-0.261,-6.315 -3.798,-131.662 -3.255,-151.996" style="fill:#c40000;fill-rule:nonzero;"/></g></g><g><clipPath id="_clip14"><rect x="0" y="33.594" width="308.181" height="11.35"/></clipPath><g clip-path="url(#_clip14)"><path d="M841.949,44.618l-841.949,0l0,-9.7l841.949,-0l-0,9.7" style="fill:#d4983d;fill-rule:nonzero;"/></g></g><g><clipPath id="_clip15"><rect x="0" y="22.266" width="308.181" height="15.104"/></clipPath><g clip-path="url(#_clip15)"><path d="M841.949,36.784l-841.949,-0l0,-13.129l841.949,-0l-0,13.129" style="fill:#d4983d;fill-rule:nonzero;"/></g></g><g><path d="M99.805,67.643l-42.839,0l0,-51.063l42.839,-0l-0,51.063" style="fill:#c40000;fill-rule:nonzero;"/></g><g><clipPath id="_clip16"><rect x="283.333" y="16.428" width="24.848" height="54.405"/></clipPath><g clip-path="url(#_clip16)"><path d="M328.19,67.643l-42.838,0l-0,-51.063l42.838,-0l0,51.063" style="fill:#c40000;fill-rule:nonzero;"/></g></g><g><path d="M97.135,63.542l-37.695,-0l0,-46.962l37.695,-0l0,46.962" style="fill:#c40000;fill-rule:nonzero;"/></g><g><clipPath id="_clip17"><rect x="283.333" y="16.428" width="24.848" height="48.85"/></clipPath><g clip-path="url(#_clip17)"><path d="M325.543,63.542l-37.696,-0l0,-46.962l37.696,-0l-0,46.962" style="fill:#c40000;fill-rule:nonzero;"/></g></g><g><clipPath id="_clip18"><rect x="547.266" y="58.181" width="249.87" height="295.573"/></clipPath><g clip-path="url(#_clip18)"><path d="M1023.85,58.681c-0,-0 -728.125,-0.022 -728.234,-0.022c0.109,7.183 1.975,98.85 1.91,106.792c-0.152,21.897 -1.888,48.59 -3.016,70.465c-0.478,9.831 -8.29,93.229 -15.083,103.689c0.022,-0.022 125.846,15.864 249.067,7.509c2.908,-16.971 9.049,-34.31 11.502,-51.281c2.691,-19.466 6.271,-36.849 6.619,-56.488c0.564,-32.314 -1.129,-58.941 -1.151,-93.078c0,-1.757 2.539,-1.909 2.756,-0.173c3.928,33.29 4.97,24.848 8.052,85.85c1.801,35.981 -2.843,77.127 -4.709,113.412c121.115,14.431 140.104,12.717 248.567,-3.19c-3.711,-36.155 -3.494,-69.358 -3.472,-105.512c0.108,-50.716 -2.279,-56.598 -0.564,-96.311c0.065,-1.801 1.215,-1.78 1.324,0.022c2.191,35.351 2.018,60.915 6.467,93.467c2.56,19.423 3.602,40.669 6.835,59.961c2.908,17.014 12.023,47.179 12.088,47.179c106.88,0 112.565,4.492 219.445,4.492c-7.748,-17.144 -14.736,-125.347 -15.126,-134.787c-0.282,-6.315 -3.798,-131.662 -3.277,-151.996" style="fill:#c40000;fill-rule:nonzero;"/></g></g><g><clipPath id="_clip19"><rect x="547.266" y="33.594" width="249.87" height="11.35"/></clipPath><g clip-path="url(#_clip19)"><path d="M1080.66,44.618l-841.949,0l0,-9.7l841.949,-0l0,9.7" style="fill:#d4983d;fill-rule:nonzero;"/></g></g><g><clipPath id="_clip20"><rect x="547.266" y="22.266" width="249.87" height="15.104"/></clipPath><g clip-path="url(#_clip20)"><path d="M1080.66,36.784l-841.949,-0l0,-13.129l841.949,-0l0,13.129" style="fill:#d4983d;fill-rule:nonzero;"/></g></g><g><clipPath id="_clip21"><rect x="547.266" y="16.428" width="24.957" height="54.405"/></clipPath><g clip-path="url(#_clip21)"><path d="M566.905,67.643l-42.816,0l-0,-51.063l42.816,-0l0,51.063" style="fill:#c40000;fill-rule:nonzero;"/></g></g><g><path d="M795.313,67.643l-42.839,0l-0,-51.063l42.839,-0l-0,51.063" style="fill:#c40000;fill-rule:nonzero;"/></g><g><path d="M792.665,63.542l-37.695,-0l-0,-46.962l37.695,-0l-0,46.962" style="fill:#c40000;fill-rule:nonzero;"/></g><g><clipPath id="_clip22"><rect x="547.266" y="16.428" width="19.401" height="48.85"/></clipPath><g clip-path="url(#_clip22)"><path d="M564.258,63.542l-37.696,-0l0,-46.962l37.696,-0l-0,46.962" style="fill:#c40000;fill-rule:nonzero;"/></g></g><g><clipPath id="_clip23"><rect x="791.037" y="58.181" width="249.87" height="295.573"/></clipPath><g clip-path="url(#_clip23)"><path d="M1267.62,58.681c-0,-0 -728.147,-0.022 -728.234,-0.022c0.087,7.183 1.975,98.85 1.91,106.792c-0.152,21.897 -1.888,48.59 -3.017,70.465c-0.499,9.831 -8.29,93.229 -15.082,103.689c-0,-0.022 125.846,15.864 249.067,7.509c2.908,-16.971 9.049,-34.31 11.501,-51.281c2.691,-19.466 6.272,-36.849 6.619,-56.488c0.565,-32.314 -1.128,-58.941 -1.15,-93.078c0,-1.757 2.539,-1.909 2.756,-0.173c3.928,33.29 4.97,24.848 8.051,85.85c1.802,35.981 -2.842,77.127 -4.709,113.412c121.116,14.431 140.104,12.717 248.568,-3.19c-3.711,-36.155 -3.516,-69.358 -3.472,-105.512c0.108,-50.716 -2.279,-56.598 -0.565,-96.311c0.066,-1.801 1.216,-1.78 1.324,0.022c2.192,35.351 2.018,60.915 6.467,93.467c2.561,19.423 3.603,40.669 6.836,59.961c2.908,17.014 12.023,47.179 12.088,47.179c106.879,0 112.565,4.492 219.444,4.492c-7.747,-17.144 -14.735,-125.347 -15.147,-134.787c-0.261,-6.315 -3.776,-131.662 -3.255,-151.996" style="fill:#c40000;fill-rule:nonzero;"/></g></g><g><clipPath id="_clip24"><rect x="791.037" y="33.594" width="249.87" height="11.35"/></clipPath><g clip-path="url(#_clip24)"><path d="M1324.44,44.618l-841.949,0l-0,-9.7l841.949,-0l-0,9.7" style="fill:#d4983d;fill-rule:nonzero;"/></g></g><g><clipPath id="_clip25"><rect x="791.037" y="22.266" width="249.87" height="15.104"/></clipPath><g clip-path="url(#_clip25)"><path d="M1324.44,36.784l-841.949,-0l-0,-13.129l841.949,-0l-0,13.129" style="fill:#d4983d;fill-rule:nonzero;"/></g></g><g><clipPath id="_clip26"><rect x="791.037" y="16.428" width="20.074" height="54.405"/></clipPath><g clip-path="url(#_clip26)"><path d="M810.677,67.643l-42.838,0l-0,-51.063l42.838,-0l0,51.063" style="fill:#c40000;fill-rule:nonzero;"/></g></g><g><path d="M1039.08,67.643l-42.838,0l-0,-51.063l42.838,-0l0,51.063" style="fill:#c40000;fill-rule:nonzero;"/></g><g><path d="M1036.44,63.542l-37.696,-0l0,-46.962l37.696,-0l-0,46.962" style="fill:#c40000;fill-rule:nonzero;"/></g><g><clipPath id="_clip27"><rect x="791.037" y="16.428" width="20.074" height="48.85"/></clipPath><g clip-path="url(#_clip27)"><path d="M808.03,63.542l-37.696,-0l0,-46.962l37.696,-0l-0,46.962" style="fill:#c40000;fill-rule:nonzero;"/></g></g><g><clipPath id="_clip28"><rect x="95.768" y="16.428" width="20.812" height="66.623"/></clipPath><g clip-path="url(#_clip28)"><rect x="97.244" y="-134.332" width="217.773" height="217.795" style="fill:#c40000;fill-rule:nonzero;"/><path d="M315.017,84.939l-217.773,0c-0.825,0 -1.476,-0.651 -1.476,-1.475l0,-217.796c0,-0.824 0.651,-1.454 1.476,-1.454l217.773,0c0.825,0 1.476,0.63 1.476,1.454l0,217.796c0,0.824 -0.651,1.475 -1.476,1.475Zm-216.319,-2.951l214.844,-0l-0,-214.844l-214.844,0l-0,214.844Z" style="fill:#c40000;fill-rule:nonzero;"/></g></g><g><clipPath id="_clip29"><rect x="318.012" y="16.428" width="20.812" height="66.623"/></clipPath><g clip-path="url(#_clip29)"><rect x="319.466" y="-134.332" width="217.795" height="217.795" style="fill:#c40000;fill-rule:nonzero;"/><path d="M537.261,84.939l-217.795,0c-0.825,0 -1.454,-0.651 -1.454,-1.475l0,-217.796c0,-0.824 0.629,-1.454 1.454,-1.454l217.795,0c0.825,0 1.476,0.63 1.476,1.454l-0,217.796c-0,0.824 -0.651,1.475 -1.476,1.475Zm-216.319,-2.951l214.844,-0l-0,-214.844l-214.844,0l-0,214.844Z" style="fill:#c40000;fill-rule:nonzero;"/></g></g><g><clipPath id="_clip30"><rect x="1034.25" y="16.428" width="20.833" height="66.623"/></clipPath><g clip-path="url(#_clip30)"><rect x="1035.72" y="-134.332" width="217.795" height="217.795" style="fill:#c40000;fill-rule:nonzero;"/><path d="M1253.52,84.939l-217.796,0c-0.824,0 -1.475,-0.651 -1.475,-1.475l-0,-217.796c-0,-0.824 0.651,-1.454 1.475,-1.454l217.796,0c0.824,0 1.454,0.63 1.454,1.454l-0,217.796c-0,0.824 -0.63,1.475 -1.454,1.475Zm-216.32,-2.951l214.844,-0l-0,-214.844l-214.844,0l0,214.844Z" style="fill:#c40000;fill-rule:nonzero;"/></g></g><g><clipPath id="_clip31"><rect x="1203.21" y="16.428" width="20.833" height="66.623"/></clipPath><g clip-path="url(#_clip31)"><rect x="1204.69" y="-134.332" width="217.795" height="217.795" style="fill:#c40000;fill-rule:nonzero;"/><path d="M1422.48,84.939l-217.795,0c-0.825,0 -1.476,-0.651 -1.476,-1.475l-0,-217.796c-0,-0.824 0.651,-1.454 1.476,-1.454l217.795,0c0.824,0 1.454,0.63 1.454,1.454l-0,217.796c-0,0.824 -0.63,1.475 -1.454,1.475Zm-216.32,-2.951l214.844,-0l-0,-214.844l-214.844,0l0,214.844Z" style="fill:#c40000;fill-rule:nonzero;"/></g></g><g><path d="M272.331,158.051c-0,-0.021 -0.022,-0.043 -0.044,-0.065c-1.193,-2.322 -2.908,-4.167 -5.165,-5.534c-2.235,-1.345 -4.665,-2.04 -7.291,-2.04l-59.744,0l-0,-4.687l65.191,-0l-5.035,-6.185c-4.861,-5.99 -10.308,-11.35 -16.384,-16.124c-6.055,-4.753 -12.566,-8.789 -19.532,-12.11c-6.966,-3.298 -14.192,-5.794 -21.723,-7.487c-7.53,-1.692 -15.126,-2.517 -22.851,-2.517c-57.249,0 -103.82,46.593 -103.82,103.841c0,9.267 1.215,18.381 3.646,27.344c0.26,0.998 0.868,1.779 1.78,2.3c0.911,0.521 1.866,0.63 2.886,0.369c0.998,-0.282 1.779,-0.868 2.278,-1.779c0.521,-0.912 0.651,-1.867 0.369,-2.887c-2.257,-8.311 -3.385,-16.753 -3.385,-25.347c-0,-53.081 43.186,-96.245 96.246,-96.245c11.979,-0.022 23.546,2.126 34.722,6.423c11.154,4.319 21.18,10.525 30.013,18.577c1.519,1.367 -110.048,8.593 -110.048,8.593l0,3.234l24.631,-0l0,4.687l-24.631,0l0,3.256c0,-0 10.07,-0.109 24.631,0.065l0,19.856c0,30.426 -24.761,55.187 -55.186,55.187c-0.76,-0.022 -1.411,0.239 -1.954,0.76c-0.564,0.542 -0.824,1.193 -0.824,1.953c-0,0.759 0.26,1.41 0.824,1.931c0.543,0.543 1.194,0.803 1.954,0.781c8.116,0 15.928,-1.562 23.415,-4.709c-0.911,0.825 -1.15,1.823 -0.694,2.973c0.434,1.15 1.28,1.715 2.517,1.715c22.765,-0 41.298,-27.17 41.298,-60.591l0,-19.661l0.499,-0l0,19.661c0,31.598 -8.746,55.187 -16.58,55.187c-0.738,0.022 -1.345,0.282 -1.866,0.825c-0.521,0.521 -0.76,1.15 -0.76,1.888c0,0.738 0.239,1.367 0.76,1.888c0.521,0.521 1.128,0.803 1.866,0.824c14.301,0 22.005,-31.228 22.005,-60.612l0,-19.531l0.521,0.022l0,77.409c0,0.738 0.261,1.389 0.782,1.909c0.542,0.521 1.171,0.803 1.931,0.803c0.738,0 1.367,-0.282 1.91,-0.803c0.521,-0.52 0.781,-1.171 0.781,-1.909l-0,-77.257l0.521,0.021l-0,19.336c-0,29.384 7.704,60.612 22.005,60.612c0.738,-0.021 1.345,-0.303 1.866,-0.824c0.521,-0.521 0.76,-1.15 0.76,-1.888c-0,-0.738 -0.239,-1.367 -0.76,-1.888c-0.521,-0.543 -1.128,-0.803 -1.866,-0.825c-7.834,0 -16.58,-23.589 -16.58,-55.187l0,-19.14l0.499,0.021l0,19.141c0,33.399 18.533,60.59 41.298,60.59c1.237,0 2.083,-0.564 2.539,-1.714c0.456,-1.172 0.217,-2.17 -0.694,-2.995c7.487,3.147 15.277,4.709 23.394,4.688c0.759,0.021 1.41,-0.217 1.953,-0.76c0.564,-0.521 0.825,-1.172 0.825,-1.931c-0,-0.782 -0.261,-1.411 -0.825,-1.953c-0.543,-0.521 -1.194,-0.782 -1.953,-0.76c-30.426,0 -55.187,-24.761 -55.187,-55.187l0,-18.619c26.085,1.345 52.083,3.993 61.415,9.223c12.782,7.161 14.54,26.15 14.54,40.95c-0,4.905 -0.369,9.788 -1.107,14.649c-0.738,4.839 -1.844,9.613 -3.32,14.301c-1.476,4.687 -3.277,9.223 -5.447,13.628c-2.17,4.406 -4.666,8.616 -7.487,12.652c-2.821,4.015 -5.925,7.813 -9.31,11.35c-3.407,3.559 -7.053,6.814 -10.938,9.809c-3.906,2.973 -8.007,5.664 -12.304,8.008c-4.319,2.365 -8.768,4.384 -13.39,6.055l-0.043,-0c-1.65,0.607 -2.995,1.627 -4.015,3.081c-1.02,1.454 -1.541,3.082 -1.541,4.861l0,1.997c0,0.911 -0.304,1.671 -0.955,2.3c-0.629,0.63 -1.389,0.955 -2.3,0.955l-48.199,0c-0.911,0 -1.671,-0.325 -2.3,-0.955c-0.651,-0.629 -0.955,-1.389 -0.955,-2.3l-0,-1.997c-0,-1.779 -0.521,-3.407 -1.541,-4.839c-1.02,-1.454 -2.365,-2.496 -4.015,-3.082l-0.065,-0.021c-11.285,-4.102 -21.441,-10.092 -30.469,-17.991c-9.027,-7.899 -16.297,-17.187 -21.853,-27.821c-1.128,-2.148 0.478,-4.731 2.908,-4.731l162.565,0c0.564,0 1.107,-0.13 1.628,-0.369c0.521,-0.26 0.955,-0.607 1.324,-1.042c0.347,-0.455 0.607,-0.954 0.737,-1.497c0.131,-0.564 0.131,-1.128 0.022,-1.693c-0.369,-1.757 -2.018,-2.994 -3.819,-2.994l-163.737,-0c-7.487,-0 -12.348,7.877 -8.985,14.561l0.044,0.109c5.816,11.501 13.498,21.571 23.09,30.208c9.592,8.637 20.399,15.234 32.465,19.813c1.389,0.543 2.105,1.541 2.105,3.039l0,1.432c0,1.302 0.261,2.539 0.738,3.733c0.499,1.193 1.215,2.257 2.127,3.168c0.911,0.911 1.953,1.628 3.168,2.105c1.194,0.499 2.431,0.76 3.733,0.76l50.369,-0c1.302,-0 2.539,-0.261 3.733,-0.76c1.193,-0.477 2.257,-1.194 3.168,-2.105c0.911,-0.911 1.606,-1.975 2.105,-3.168c0.499,-1.194 0.738,-2.431 0.738,-3.733l-0,-1.432c0.022,-1.498 0.716,-2.518 2.127,-3.039c3.385,-1.302 6.705,-2.777 9.939,-4.405c3.233,-1.649 6.38,-3.45 9.418,-5.425c3.06,-1.975 5.99,-4.102 8.811,-6.381c2.821,-2.3 5.534,-4.709 8.095,-7.269c2.56,-2.583 4.991,-5.274 7.291,-8.073c2.279,-2.822 4.406,-5.751 6.402,-8.789c1.975,-3.06 3.798,-6.185 5.447,-9.419c1.65,-3.233 3.125,-6.554 4.427,-9.939c1.302,-3.386 2.431,-6.836 3.364,-10.33c0.955,-3.516 1.714,-7.053 2.279,-10.634c0.586,-3.58 0.955,-7.183 1.15,-10.829c0.195,-3.624 0.195,-7.248 0.022,-10.872c-0.196,-3.624 -0.565,-7.227 -1.129,-10.807c-0.564,-3.581 -1.324,-7.14 -2.257,-10.634c-0.933,-3.516 -2.04,-6.966 -3.342,-10.352c-1.302,-3.385 -2.778,-6.705 -4.405,-9.939Zm-77.67,-7.639l-0.52,0l-0,-4.687l0.52,-0l0,4.687Zm-30.164,-4.687l0.499,-0l-0,4.687l-0.499,0l-0,-4.687Zm0.499,27.864c-0,30.426 -16.081,55.187 -35.873,55.187l-0.217,0c20.964,-9.527 35.591,-30.686 35.591,-55.187l-0,-19.77l0.499,0l-0,19.77Zm5.425,-23.177l0,-4.687l0.521,-0l-0,4.687l-0.521,0Zm5.924,0l0,-4.687l0.521,-0l0,4.687l-0.521,0Zm5.947,0l-0,-4.687l0.499,-0l-0,4.687l-0.499,0Zm5.924,0l0,-4.687l0.521,-0l-0,4.687l-0.521,0Zm42.036,78.364l-0.217,0c-19.792,0 -35.894,-24.761 -35.894,-55.187l-0,-18.902l0.52,0.022l0,18.88c0,24.501 14.605,45.66 35.591,55.187Z" style="fill-rule:nonzero;"/></g><g><rect x="1264.8" y="23.307" width="4424.09" height="22.439" style="fill:#d4983d;fill-rule:nonzero;"/></g><g><g><g><path d="M353.713,155.933c-2.735,-1.324 -5.599,-2.973 -8.594,-4.948c-3.016,-1.953 -5.556,-4.275 -7.639,-6.945c-2.083,-2.712 -3.125,-5.816 -3.125,-9.288c0,-4.449 1.671,-8.268 5.035,-11.458c3.342,-3.234 7.248,-4.861 11.719,-4.861c4.166,-0 8.29,1.085 12.413,3.212c4.101,2.148 7.834,4.991 11.198,8.507c3.342,3.472 6.033,7.291 8.073,11.458c2.018,4.167 3.038,8.29 3.038,12.326c-0,3.646 -1.172,7.162 -3.472,10.504c-2.257,3.363 -5.361,5.034 -9.289,5.034c-1.345,0 -2.604,-0.195 -3.819,-0.607c-1.346,-0.564 -2.3,-0.912 -2.865,-1.042c-0.52,-0.108 -0.998,-0.173 -1.389,-0.173c-0.933,-0 -2.3,0.52 -4.079,1.562c-1.736,0.998 -2.605,2.083 -2.605,3.299c0,1.215 0.652,2.126 1.997,2.691c1.389,0.586 2.886,0.998 4.514,1.215c1.606,0.173 2.886,0.412 3.819,0.694c2.431,0.413 4.861,1.194 7.292,2.344c2.431,1.172 4.557,2.474 6.424,3.906c1.909,1.628 3.255,3.603 4.079,5.903c0.803,2.257 1.216,4.666 1.216,7.205c-0,3.646 -0.673,6.293 -1.997,7.899c-1.28,1.628 -3.125,2.648 -5.555,3.038c-2.387,0.413 -5.339,0.738 -8.855,0.955c-1.866,0.174 -4.123,1.042 -6.77,2.604c-2.605,1.52 -4.905,3.386 -6.858,5.643c-1.91,2.213 -2.865,4.318 -2.865,6.337c0,0.933 0.261,1.823 0.782,2.691c0.521,0.868 1.323,1.302 2.43,1.302c0.521,-0 0.999,-0.13 1.476,-0.434c0.456,-0.348 0.89,-0.651 1.302,-0.955c2.431,-2.257 5.49,-4.623 9.201,-7.118c3.69,-2.474 7.292,-3.733 10.764,-3.733c2.301,0 4.384,0.608 6.25,1.823c1.91,1.172 3.603,2.561 5.122,4.167c0.217,-7.639 0.607,-15.321 1.128,-23.091c0.565,-7.747 1.259,-15.451 2.084,-23.09c0.39,-3.646 0.737,-7.313 1.041,-11.024c0.348,-3.689 0.608,-7.422 0.782,-11.198c-2.149,-1.736 -3.994,-3.733 -5.556,-5.99c-1.563,-2.3 -2.344,-4.948 -2.344,-7.899c0,-4.036 1.519,-7.726 4.601,-11.024c3.125,-3.299 6.771,-4.948 10.937,-4.948c2.431,-0 4.514,0.564 6.25,1.649c1.737,1.042 3.299,2.517 4.688,4.427c5.599,-2.821 11.48,-5.664 17.621,-8.507c6.12,-2.821 12.37,-5.165 18.75,-7.031c6.424,-1.91 12.783,-2.865 19.098,-2.865c7.921,0 15.494,1.628 22.743,4.862c7.291,3.255 13.107,8.289 17.448,15.104c2.647,4.34 4.362,9.114 5.121,14.323c0.738,5.165 1.129,10.286 1.129,15.364c-0,6.207 -0.348,11.459 -1.042,15.799c-0.651,4.297 -3.125,7.769 -7.465,10.416c3.754,2.843 6.684,5.621 8.767,8.334c2.083,2.669 3.125,6.163 3.125,10.503c0,3.603 -1.454,6.381 -4.34,8.334c-2.908,1.974 -6.228,3.363 -9.983,4.166c-3.776,0.825 -6.988,1.346 -9.635,1.563c3.168,2.734 6.358,5.62 9.548,8.68c3.169,3.017 5.838,6.142 7.986,9.375c2.127,3.19 3.212,6.598 3.212,10.243c0,3.473 -0.998,6.207 -2.951,8.16c-1.91,1.975 -4.384,3.364 -7.379,4.167c-2.951,0.824 -5.816,1.215 -8.593,1.215c-4.471,0 -8.42,-0.825 -11.893,-2.517c-3.429,-1.671 -6.337,-3.82 -8.767,-6.424c-1.736,-1.845 -3.602,-4.47 -5.556,-7.899c-1.909,-3.472 -3.732,-6.619 -5.468,-9.462c0.108,1.107 0.217,2.257 0.347,3.472c0.173,1.215 0.26,2.344 0.26,3.386c0,4.644 -1.02,8.485 -3.038,11.545c-2.04,3.081 -5.121,5.707 -9.288,7.899c-2.04,0.933 -4.601,1.975 -7.726,3.125c-3.081,1.107 -6.206,2.062 -9.375,2.865c-3.125,0.824 -5.859,1.432 -8.16,1.823c2.301,0.824 4.645,1.345 7.032,1.562c2.43,0.174 4.861,0.26 7.291,0.26l5.296,0c7.226,0 14.453,-0.13 21.701,-0.434c7.292,-0.347 14.496,-0.911 21.615,-1.736c2.712,-0.282 5.338,-0.694 7.899,-1.215l7.726,-1.649c0.737,-0.282 1.519,-0.478 2.343,-0.608c0.803,-0.108 1.606,-0.173 2.431,-0.173c2.539,-0 4.383,0.781 5.555,2.343c1.151,1.519 1.932,3.364 2.344,5.556c0.391,2.148 0.608,4.232 0.608,6.25c-0,5.903 -1.367,10.612 -4.08,14.149c-2.669,3.581 -6.163,6.25 -10.504,7.986c-4.296,1.78 -8.919,2.973 -13.888,3.559c-4.992,0.565 -9.809,0.868 -14.497,0.868c-7.01,0 -14.236,-0.347 -21.701,-1.041c-7.466,-0.651 -14.822,-1.888 -22.049,-3.733c-7.183,-1.801 -13.867,-4.492 -20.052,-8.073c-1.346,-0.825 -2.778,-1.628 -4.34,-2.43c-1.563,-0.825 -3.169,-1.216 -4.775,-1.216c-0.933,0 -1.627,0.217 -2.083,0.695c-0.477,0.455 -0.955,1.041 -1.476,1.736c-0.998,1.606 -2.647,3.472 -4.948,5.555c-2.257,2.084 -4.21,3.646 -5.816,4.688c-2.04,1.215 -4.296,2.04 -6.77,2.517c-2.496,0.456 -4.862,0.695 -7.118,0.695c-4.167,-0 -8.551,-0.673 -13.108,-1.997c-4.579,-1.345 -8.898,-3.255 -12.934,-5.729c-4.058,-2.496 -7.335,-5.621 -9.809,-9.375c-2.496,-3.754 -3.733,-8.073 -3.733,-12.934c0,-4.861 0.912,-9.462 2.778,-13.802c1.91,-4.384 4.34,-8.464 7.292,-12.24c-3.364,-2.43 -5.99,-5.49 -7.9,-9.201c-1.866,-3.689 -2.777,-7.639 -2.777,-11.806c-0,-4.687 0.911,-9.158 2.777,-13.455c1.91,-4.34 4.731,-7.834 8.507,-10.503c-3.993,-2.018 -7.508,-4.644 -10.503,-7.899c-2.952,-3.234 -4.427,-7.205 -4.427,-11.893c-0,-6.293 2.04,-11.74 6.163,-16.319c4.101,-4.622 8.594,-8.464 13.455,-11.545Zm21.354,124.305c1.606,-1.736 3.147,-3.646 4.601,-5.729c1.497,-2.083 2.951,-4.08 4.34,-5.989c1.606,-2.431 3.754,-4.21 6.424,-5.382c2.712,-1.216 5.468,-1.823 8.246,-1.823c1.085,-0 2.105,0.043 3.038,0.087c0.977,0.065 1.932,0.151 2.865,0.26c-2.952,-2.127 -5.36,-4.471 -7.205,-7.031c-1.801,-2.539 -3.103,-5.686 -3.906,-9.462c-1.519,2.387 -3.299,4.557 -5.382,6.51c-2.084,1.975 -4.21,3.885 -6.337,5.729c-1.346,1.216 -3.168,3.039 -5.469,5.469c-2.257,2.431 -4.318,4.992 -6.163,7.639c-1.801,2.604 -2.691,4.84 -2.691,6.684c0,1.389 0.456,2.474 1.389,3.212c0.977,0.694 2.127,1.042 3.472,1.042c1.042,-0 1.953,-0.391 2.778,-1.216Zm73.871,-52.083c-0.933,0.174 -1.801,0.26 -2.604,0.26l-2.43,0c-1.736,0 -4.167,-0.13 -7.292,-0.434c-3.082,-0.282 -5.859,-0.954 -8.333,-1.996c-2.496,-1.085 -3.733,-2.908 -3.733,-5.469c0,-1.324 0.564,-2.257 1.736,-2.778c1.15,-0.564 2.257,-0.911 3.299,-1.041c3.928,-0.695 7.856,-1.519 11.805,-2.518c3.993,-1.041 7.856,-2.17 11.632,-3.385c-0.412,-0.629 -0.824,-1.237 -1.215,-1.823c-0.412,-0.629 -0.825,-1.215 -1.215,-1.736c-2.843,0.759 -5.729,1.28 -8.681,1.562c-2.951,0.304 -5.989,0.434 -9.114,0.434c-1.736,0 -3.538,-0.043 -5.382,-0.173c-1.802,-0.174 -3.559,-0.456 -5.295,-0.868c-0.131,3.125 -0.326,6.293 -0.608,9.462c-0.304,3.125 -0.434,6.228 -0.434,9.288c-0,1.801 0.195,3.797 0.608,5.989c0.39,2.214 1.757,3.299 4.079,3.299c1.845,-0 4.254,-0.456 7.205,-1.389c2.995,-0.911 5.99,-2.018 8.941,-3.299c2.952,-1.258 5.295,-2.387 7.031,-3.385Zm-24.565,-62.5c4.275,-3.407 8.94,-6.359 13.975,-8.854c5.035,-2.474 9.983,-4.796 14.844,-6.945c2.713,-1.323 5.425,-2.43 8.16,-3.298c2.777,-0.868 5.685,-1.302 8.767,-1.302c1.78,-0 3.472,0.173 5.035,0.521c1.606,0.303 3.168,0.933 4.687,1.909c0.109,-1.085 0.217,-2.126 0.347,-3.125c0.174,-1.041 0.261,-2.083 0.261,-3.125c-0,-1.497 -0.781,-2.474 -2.344,-2.951c-1.519,-0.456 -2.864,-0.695 -4.08,-0.695c-3.776,0 -7.639,0.934 -11.632,2.778c-3.993,1.801 -7.725,3.472 -11.198,5.035c-4.166,2.04 -8.398,3.863 -12.673,5.469c-4.232,1.627 -8.746,2.43 -13.542,2.43c0,2.04 -0.087,4.058 -0.26,6.077l-0.348,6.076Zm-1.041,23.003c3.233,-0.173 6.358,-0.737 9.375,-1.736c2.995,-1.041 6.206,-2.278 9.635,-3.732c5.599,-2.713 10.764,-5.035 15.452,-6.945c4.731,-1.953 9.809,-4.014 15.191,-6.163c1.909,-0.694 3.168,-1.497 3.819,-2.43c0.695,-0.912 1.085,-2.474 1.215,-4.688c-2.669,0.586 -5.338,1.432 -7.986,2.517c-2.604,1.042 -5.186,2.171 -7.725,3.386c-1.91,0.933 -4.059,1.91 -6.424,2.951c-2.322,0.998 -4.644,2.04 -6.945,3.125c-2.43,0.933 -4.752,1.736 -6.944,2.431c-2.214,0.651 -4.167,0.955 -5.903,0.955c-4.47,-0 -8.507,-0.868 -12.153,-2.605c-0.13,2.149 -0.173,4.297 -0.173,6.424c-0,2.148 -0.152,4.319 -0.434,6.51Zm54.514,5.816c0.629,0.695 1.324,1.454 2.083,2.257c0.738,0.825 1.476,1.541 2.17,2.171c1.606,-0.912 3.299,-1.737 5.035,-2.431l5.208,-1.997c0.803,-0.282 1.216,-0.824 1.216,-1.649c-0,-0.629 -0.261,-1.215 -0.782,-1.736l-1.649,-1.649c-2.148,0.933 -4.34,1.823 -6.597,2.691c-2.214,0.868 -4.427,1.649 -6.684,2.343Z" style="fill-rule:nonzero;"/></g></g></g><g><g><g><path d="M743.228,204.978c-0.412,3.472 -1.801,5.881 -4.166,7.205c-2.387,1.28 -5.187,1.909 -8.42,1.909c-3.603,0 -7.162,-0.195 -10.678,-0.607c-3.776,-0.391 -7.465,-0.608 -11.111,-0.608c-10.373,0 -20.724,0.521 -31.076,1.563c-10.373,0.998 -20.573,2.56 -30.642,4.687c-5.274,0.933 -10.504,1.888 -15.712,2.865c-5.165,0.933 -10.417,1.389 -15.799,1.389c-4.166,-0 -8.116,-0.608 -11.805,-1.823c-3.711,-1.216 -6.901,-3.429 -9.549,-6.684c-2.148,-2.539 -3.212,-5.23 -3.212,-8.073c0,-1.498 0.478,-2.561 1.476,-3.212c0.976,-0.694 2.279,-1.237 3.906,-1.649l0.261,-0.608c-1.802,-0.911 -3.646,-1.845 -5.556,-2.778c-1.866,-0.976 -3.516,-2.126 -4.948,-3.472c-2.148,-1.91 -4.123,-4.622 -5.903,-8.16c-1.736,-3.58 -2.604,-6.857 -2.604,-9.809c0,-2.647 1.215,-4.253 3.646,-4.774c2.431,-0.564 4.557,-1.128 6.424,-1.649c0.976,-0.282 2.951,-1.259 5.902,-2.952c2.952,-1.671 6.359,-3.776 10.243,-6.336c3.928,-2.54 7.856,-5.144 11.806,-7.813c3.993,-2.713 7.509,-5.143 10.59,-7.292c3.125,-2.191 5.209,-3.754 6.25,-4.687c1.085,-0.695 2.127,-1.432 3.125,-2.257c1.042,-0.803 2.105,-1.519 3.212,-2.17c0.738,-0.564 1.91,-1.389 3.472,-2.431c1.563,-1.085 2.344,-1.91 2.344,-2.43c0,-0.391 -0.217,-0.999 -0.608,-1.823c-0.412,-0.803 -0.607,-1.606 -0.607,-2.431c-0,-3.646 0.998,-6.619 3.038,-8.941c2.018,-2.365 4.557,-4.166 7.639,-5.382c3.125,-1.215 6.293,-1.866 9.548,-1.996c1.042,-0.174 1.91,-0.261 2.605,-0.261l1.996,0c0.912,0 2.018,0.131 3.299,0.348c1.258,0.173 2.864,0.412 4.774,0.694l3.212,0.434c1.085,0.13 2.105,0.326 3.038,0.608c1.215,0.412 2.344,0.781 3.386,1.128c1.085,0.304 2.256,0.781 3.472,1.476c0.911,0.521 1.866,1.193 2.864,1.996c1.042,0.825 1.91,1.563 2.604,2.257c1.606,1.867 2.691,3.516 3.212,4.948c0.521,1.389 1.064,3.299 1.65,5.729c0.108,0.413 0.564,0.825 1.388,1.216l18.143,9.114c4.861,2.387 9.744,5.078 14.67,8.073c4.905,2.952 9.657,6.055 14.236,9.288c2.127,1.346 4.471,3.017 7.031,5.035c2.539,2.04 4.297,3.776 5.295,5.208c1.737,2.561 3.256,5.426 4.601,8.594c1.324,3.19 1.997,6.315 1.997,9.375c-0,4.579 -1.454,8.811 -4.341,12.674c-2.908,3.819 -6.749,5.729 -11.545,5.729c-1.389,-0 -2.756,-0.022 -4.08,-0.087c-1.345,-0.108 -2.669,-0.217 -3.993,-0.347Zm-14.757,46.18l-0.173,0.434c2.257,1.737 4.384,3.212 6.423,4.428c2.019,1.215 4.102,2.994 6.25,5.295c2.952,3.081 5.513,6.597 7.726,10.59c2.257,3.95 3.386,8.138 3.386,12.587c-0,5.903 -1.476,10.699 -4.428,14.41c-2.951,3.689 -7.617,5.555 -13.975,5.555c-1.867,0 -3.906,-0.26 -6.163,-0.781c-2.214,-0.521 -4.124,-1.476 -5.73,-2.865c-1.345,-1.041 -2.691,-2.213 -4.079,-3.472c-1.346,-1.28 -2.322,-2.821 -2.952,-4.601c-1.107,-2.951 -2.061,-4.427 -2.864,-4.427c-0.521,0 -0.999,0.044 -1.389,0.174l-24.393,4.514l-25.26,5.989c-4.167,0.695 -8.203,1.259 -12.066,1.736c-3.82,0.456 -8.073,0.695 -12.76,0.695c-7.422,-0 -13.716,-0.608 -18.924,-1.823c-5.165,-1.215 -10.894,-3.776 -17.188,-7.639c-3.255,-2.04 -6.206,-4.731 -8.854,-8.073c-2.604,-3.342 -3.906,-7.053 -3.906,-11.111c-0,-3.06 0.868,-5.664 2.604,-7.812c1.78,-2.192 3.494,-4.428 5.122,-6.684c-0.999,-0.695 -1.975,-1.303 -2.952,-1.823c-0.998,-0.521 -2.04,-1.064 -3.125,-1.65c-2.322,-1.215 -4.297,-3.407 -5.902,-6.597c-1.563,-3.233 -2.344,-6.076 -2.344,-8.507c-0,-1.324 0.434,-2.604 1.302,-3.819c0.868,-1.216 1.953,-1.823 3.298,-1.823c1.498,-0 2.974,0.065 4.428,0.173c1.497,0.131 2.973,0.174 4.427,0.174c0.976,-0 3.342,-0.282 7.118,-0.868c3.754,-0.629 8.246,-1.411 13.455,-2.344c5.251,-0.911 10.59,-1.866 15.972,-2.864c5.382,-1.042 10.156,-1.954 14.323,-2.778c4.166,-0.803 7.053,-1.324 8.68,-1.563c4.037,-0.694 8.095,-1.237 12.153,-1.649c4.036,-0.391 8.073,-0.738 12.066,-1.042c3.342,-0.217 6.641,-0.477 9.896,-0.781c3.233,-0.282 6.467,-0.477 9.722,-0.608l15.538,-1.041c0.217,-0 0.478,0.065 0.781,0.173c0.283,0.066 0.543,0.087 0.782,0.087l0.868,0c1.844,0 3.689,-0.043 5.555,-0.173c1.91,-0.174 3.755,-0.261 5.556,-0.261c5.078,0 10.286,0.738 15.625,2.17c5.317,1.389 9.657,4.124 13.021,8.16c1.606,1.736 2.951,3.733 3.993,5.99c1.085,2.213 1.649,4.492 1.649,6.857c0,3.429 -1.454,6.229 -4.34,8.42c-2.908,2.214 -5.903,3.299 -9.028,3.299c-1.736,0 -3.537,-0.108 -5.382,-0.347c-1.801,-0.282 -3.624,-0.63 -5.469,-1.042c-0.933,-0.282 -1.953,-0.477 -3.038,-0.608c-1.107,-0.108 -2.127,-0.26 -3.038,-0.434l-1.997,0Zm-101.562,-57.291c0.977,-0.109 2.387,-0.456 4.253,-1.042c1.91,-0.629 3.386,-1.085 4.427,-1.389c2.431,-0.911 4.536,-1.562 6.337,-1.909c1.845,-0.348 4.254,-0.977 7.205,-1.91c3.125,-1.215 6.771,-2.17 10.938,-2.865c4.166,-0.738 8.376,-1.345 12.673,-1.823c4.341,-0.521 8.095,-0.889 11.285,-1.128c4.34,-0.564 8.637,-0.912 12.934,-1.042l12.934,-0.434l-0.608,-0.608l-14.149,-8.68c-1.345,-0.912 -2.756,-1.823 -4.253,-2.691c-1.454,-0.868 -2.93,-1.606 -4.427,-2.257c-1.454,-0.694 -3.386,-1.649 -5.816,-2.865c-2.431,-1.215 -4.406,-1.822 -5.903,-1.822c-1.346,-0 -2.648,0.325 -3.906,0.954c-1.281,0.586 -2.474,1.281 -3.559,2.084l-13.108,9.896l-1.389,1.215l-21.354,14.062c-0.586,0.304 -1.606,0.847 -3.038,1.65c-1.389,0.824 -1.953,1.54 -1.65,2.17l0.174,0.434Zm-8.854,80.295c1.215,0.694 2.691,1.042 4.427,1.042c2.951,-0 6.792,-0.651 11.545,-1.997c4.796,-1.324 9.635,-2.821 14.497,-4.514c4.861,-1.736 8.767,-3.06 11.718,-3.993c5.382,-1.736 10.938,-3.212 16.667,-4.427c5.729,-1.215 11.328,-2.17 16.84,-2.865c0.521,-0.108 0.977,-0.434 1.389,-0.954c-1.042,-2.019 -2.04,-3.429 -2.951,-4.254c-0.868,-0.803 -2.127,-1.215 -3.733,-1.215l-1.562,-0l-16.754,1.649l-15.972,1.997c-4.167,0.521 -8.485,1.801 -12.934,3.819c-4.406,2.04 -8.377,4.058 -11.893,6.077c-2.148,1.345 -4.21,2.756 -6.163,4.253c-1.909,1.454 -3.624,3.255 -5.121,5.382Z" style="fill-rule:nonzero;"/></g></g></g><g><g><g><path d="M839.602,179.37c-2.431,-0.803 -5.013,-1.909 -7.726,-3.298c-2.669,-1.433 -4.991,-3.256 -6.945,-5.469c-1.909,-2.257 -2.864,-4.796 -2.864,-7.639c-0,-2.018 0.955,-3.602 2.864,-4.774c1.845,-1.389 3.494,-2.908 4.948,-4.601c1.498,-1.671 3.147,-3.233 4.948,-4.687c2.366,-2.301 4.818,-4.558 7.379,-6.771c2.604,-2.257 5.121,-4.514 7.552,-6.771c2.647,-2.713 5.729,-5.122 9.201,-7.205c3.516,-2.083 6.966,-3.776 10.33,-5.122c2.539,-1.085 5.122,-1.844 7.726,-2.256c2.647,-0.391 5.252,-0.608 7.812,-0.608c4.449,-0 8.594,1.432 12.413,4.253c3.82,2.843 6.337,6.424 7.553,10.764c3.125,0.521 5.924,1.541 8.42,3.038c2.474,1.454 4.6,3.516 6.337,6.164c0.108,0.303 0.455,0.694 1.041,1.215c0.521,-0.391 1.411,-1.042 2.691,-1.91c1.259,-0.868 2.474,-1.758 3.646,-2.691c1.15,-0.911 1.736,-1.671 1.736,-2.257c0,-0.803 -0.304,-1.475 -0.868,-1.996c-0.521,-0.521 -1.866,-1.172 -3.993,-1.997c-1.736,-0.694 -3.364,-1.844 -4.861,-3.472c-1.519,-1.606 -2.257,-3.494 -2.257,-5.642c-0,-3.06 1.085,-5.469 3.299,-7.205c2.256,-1.78 4.861,-3.038 7.812,-3.733c2.951,-0.738 5.642,-1.128 8.073,-1.128c3.928,-0 7.747,0.672 11.458,1.996c3.69,1.346 6.815,3.472 9.375,6.424c2.127,-1.042 4.341,-1.845 6.598,-2.431c2.3,-0.629 4.687,-0.955 7.118,-0.955c2.257,0 4.969,0.434 8.159,1.302c3.169,0.869 6.272,1.954 9.288,3.212c2.995,1.281 5.317,2.67 6.945,4.167c1.736,1.454 3.494,2.995 5.295,4.601c1.845,1.627 3.429,3.385 4.774,5.295c1.498,2.148 2.887,4.666 4.167,7.552c1.259,2.908 1.91,5.772 1.91,8.594c-0,1.627 -0.326,3.819 -0.955,6.597c-0.586,2.734 -1.454,5.36 -2.604,7.899c-1.107,2.561 -2.409,4.384 -3.907,5.469c-1.345,0.933 -2.864,1.736 -4.6,2.43c-1.736,0.651 -3.429,0.955 -5.035,0.955c-1.91,0 -3.798,-0.087 -5.642,-0.26c-1.802,-0.217 -3.624,-0.456 -5.469,-0.695c-0,1.346 0.043,2.648 0.174,3.907c0.108,1.28 0.173,2.604 0.173,3.993c1.498,-0.282 2.995,-0.521 4.514,-0.695c1.563,-0.217 3.082,-0.347 4.601,-0.347c3.646,0 6.944,1.085 9.896,3.212c2.951,2.148 4.427,5.252 4.427,9.288c-0,3.125 -0.76,5.469 -2.257,7.031c-1.454,1.519 -3.299,2.583 -5.556,3.212c-2.213,0.586 -4.579,1.085 -7.118,1.476c-1.345,0.13 -2.756,0.39 -4.253,0.781c-1.454,0.412 -3.082,0.868 -4.861,1.389c-0,0.998 0.021,1.91 0.086,2.778c0.109,0.868 0.174,1.779 0.174,2.691c1.432,-0.521 2.886,-0.955 4.34,-1.302c1.498,-0.348 2.995,-0.521 4.514,-0.521c3.472,-0 6.532,1.215 9.202,3.646c2.712,2.43 4.079,5.382 4.079,8.854c0,3.125 -1.692,5.252 -5.034,6.337c-0.934,0.238 -2.474,0.564 -4.601,0.954c-2.148,0.413 -4.34,0.825 -6.597,1.216c-2.214,0.412 -3.907,0.759 -5.122,1.041c-0.13,0 -0.347,0.066 -0.694,0.174c-0.347,0.13 -0.586,0.174 -0.695,0.174c0,0.824 0.022,1.627 0.087,2.43c0.044,0.825 0.13,1.628 0.261,2.431c1.909,-0.63 3.515,-1.085 4.861,-1.389c1.323,-0.282 2.474,-0.434 3.472,-0.434c2.018,-0 4.123,0.26 6.337,0.781c2.192,0.478 3.993,1.432 5.382,2.865c2.539,2.843 3.819,6.076 3.819,9.722c0,2.43 -0.911,4.601 -2.691,6.51c-1.736,1.867 -3.95,2.778 -6.597,2.778l-0.781,0c-2.214,0 -4.471,0.174 -6.771,0.521c-2.257,0.304 -4.406,0.651 -6.424,1.042l0.261,4.427c0.911,-0.109 1.779,-0.196 2.604,-0.261c0.803,-0.043 1.671,-0.087 2.604,-0.087c5.49,0 10.156,1.65 13.976,4.948c3.862,3.299 5.816,7.552 5.816,12.761c-0,4.166 -1.085,7.378 -3.212,9.635c-2.149,2.301 -4.427,3.472 -6.858,3.472c-2.561,0 -4.818,-0.217 -6.771,-0.607c-1.975,-0.347 -4.166,-1.02 -6.597,-1.997c-1.042,-0.521 -2.213,-0.759 -3.472,-0.694c-1.281,0.043 -2.517,0.217 -3.733,0.521l-18.837,4.427c-2.951,0.694 -5.881,1.258 -8.767,1.736c-2.908,0.456 -5.816,0.694 -8.767,0.694c-4.297,0 -8.377,-0.499 -12.24,-1.475c-3.819,-0.934 -7.357,-2.865 -10.59,-5.816c-1.866,-1.867 -3.733,-4.124 -5.643,-6.771c-1.866,-2.604 -2.734,-5.23 -2.604,-7.9l1.65,-27.083l0.607,-12.934l0.608,-13.108c0.108,-1.605 0.174,-3.233 0.174,-4.861l-0,-4.6c-1.52,-0.391 -3.039,-0.716 -4.601,-0.955c-1.519,-0.282 -3.017,-0.521 -4.514,-0.695c2.018,4.167 3.038,8.681 3.038,13.542c0,7.01 -0.825,13.325 -2.43,18.924c-1.628,5.555 -3.516,11.545 -5.643,17.968c2.301,1.802 4.167,3.95 5.556,6.424c1.432,2.496 2.17,5.208 2.17,8.16c-0,6.185 -1.541,10.286 -4.601,12.326c-3.016,2.018 -7.27,3.038 -12.76,3.038c-0.413,0 -0.912,-0.065 -1.476,-0.173c-0.521,-0.065 -1.736,-0.348 -3.646,-0.868c-0.521,-0.131 -1.02,-0.239 -1.475,-0.348c-0.478,-0.065 -0.955,-0.086 -1.476,-0.086c-1.628,-0 -3.95,0.173 -6.945,0.52c-2.951,0.348 -5.946,0.782 -8.941,1.303c-3.016,0.52 -5.533,0.976 -7.552,1.388c-0.412,0.174 -0.824,0.261 -1.215,0.261l-1.215,-0c-4.167,-0 -8.485,-0.847 -12.934,-2.518c-4.471,-1.692 -7.682,-4.492 -9.636,-8.42c-0.998,-2.018 -1.866,-4.731 -2.604,-8.159c-0.694,-3.408 -1.041,-6.272 -1.041,-8.594l-0,-11.111c-2.431,-2.366 -4.775,-5.035 -7.032,-7.986c-2.213,-2.995 -3.298,-6.337 -3.298,-9.983c-0,-1.324 0.086,-2.452 0.26,-3.385c0.217,-0.912 0.651,-2.171 1.302,-3.733c0.695,-1.563 1.78,-3.863 3.299,-6.945c1.215,-2.43 2.647,-5.815 4.34,-10.156c1.671,-4.383 3.255,-8.767 4.774,-13.107c1.563,-4.384 2.691,-7.813 3.386,-10.243c0.694,-2.301 1.324,-4.601 1.91,-6.858c0.629,-2.3 1.063,-4.601 1.302,-6.858Zm10.329,75.695l0,15.538l9.115,-4.688c1.736,-0.803 2.908,-1.323 3.559,-1.562c2.713,-3.928 5.165,-7.943 7.379,-12.066c2.256,-4.102 4.253,-8.355 5.989,-12.76c0.521,-1.389 1.15,-3.646 1.91,-6.771c0.738,-3.169 1.432,-6.272 2.083,-9.289c0.695,-3.059 1.042,-4.991 1.042,-5.815c-0,-1.042 -0.13,-2.192 -0.347,-3.473c-0.174,-1.258 -1.02,-1.909 -2.518,-1.909c-0.521,-0 -1.258,0.759 -2.17,2.257c-0.933,1.454 -1.953,3.298 -3.038,5.555l-8.854,20.573c-1.801,3.95 -3.451,7.118 -4.948,9.549c-1.454,2.43 -4.514,4.058 -9.202,4.861Zm21.789,-63.629c1.497,-1.041 3.211,-1.953 5.121,-2.778c1.953,-0.802 3.559,-1.215 4.774,-1.215c1.433,0 3.256,0.478 5.469,1.389c2.257,0.933 4.362,2.04 6.337,3.299c1.953,1.28 3.255,2.604 3.906,3.993l3.646,-3.299c1.215,-1.042 2.474,-2.17 3.82,-3.385c-2.561,-1.085 -4.601,-2.257 -6.164,-3.473c-1.519,-1.215 -3.016,-2.994 -4.514,-5.381c-1.106,-1.91 -1.779,-3.95 -1.996,-6.164c-0.174,-2.257 0.022,-4.383 0.608,-6.423l5.034,-16.32c-2.843,1.346 -5.121,2.496 -6.857,3.473c-1.736,0.933 -3.364,1.909 -4.861,2.951c-1.52,0.998 -3.256,2.409 -5.209,4.253l-0.607,2.257l-4.862,15.104c-1.106,3.364 -2.17,6.815 -3.211,10.33l-0.434,1.389Zm88.368,-38.107c1.606,-0 3.298,0.173 5.034,0.52c1.78,0.304 3.494,0.738 5.122,1.303c0.629,-0.283 1.823,-0.955 3.559,-1.997c1.78,-1.085 3.472,-2.17 5.035,-3.212c1.606,-1.085 2.56,-1.779 2.864,-2.083c0.521,-0.695 0.782,-1.758 0.782,-3.212c-0,-0.803 -0.174,-1.432 -0.521,-1.91c-0.304,-0.455 -1.107,-1.172 -2.431,-2.17c-1.215,-0.911 -1.975,-1.432 -2.257,-1.562c-0.304,-0.174 -0.564,-0.261 -0.781,-0.261c-0.412,0 -1.259,0.673 -2.517,1.997c-1.281,1.28 -2.583,2.604 -3.907,3.993c-1.28,1.389 -2.126,2.3 -2.517,2.691c-1.042,1.107 -2.257,2.127 -3.646,3.038c-1.345,0.933 -2.604,1.888 -3.819,2.865Zm-21.788,43.576c1.909,-1.085 3.754,-2.192 5.555,-3.299c1.845,-1.15 3.646,-2.278 5.382,-3.385l0.347,-10.504c-0.412,-0.217 -0.781,-0.477 -1.128,-0.781c-0.304,-0.282 -0.651,-0.542 -1.042,-0.781c-1.519,2.431 -3.016,4.818 -4.514,7.118c-1.454,2.257 -3.038,4.514 -4.774,6.771l0.174,4.861Zm-24.566,-18.576c1.215,0.52 2.105,0.477 2.691,-0.174c0.564,-0.694 1.475,-2.04 2.69,-4.08c0.977,-1.324 1.954,-2.691 2.952,-4.08c1.042,-1.432 1.823,-2.821 2.344,-4.166c-1.346,-0.283 -2.735,-0.63 -4.167,-1.042c-1.389,-0.391 -2.843,-0.803 -4.34,-1.215c-0.131,0.998 -0.413,2.43 -0.868,4.34c-0.478,1.866 -0.847,3.689 -1.129,5.469c-0.304,1.801 -0.434,3.038 -0.434,3.732l0.261,1.216Zm22.743,101.128c2.191,-0.391 4.275,-0.911 6.25,-1.562c2.018,-0.695 4.036,-1.52 6.076,-2.518l-0.608,-6.25c-1.736,0.586 -3.45,1.085 -5.121,1.476c-1.693,0.412 -3.386,0.608 -5.122,0.608l-1.041,-0c-0.131,1.345 -0.239,2.734 -0.348,4.166c-0.065,1.389 -0.086,2.756 -0.086,4.08Zm0.434,-25c1.215,-0.564 3.125,-1.389 5.729,-2.43c2.647,-1.086 4.557,-1.997 5.729,-2.691l-0,-3.994c-0,-0.694 -0.065,-1.302 -0.174,-1.822c-1.736,0.694 -3.472,1.171 -5.208,1.388l-5.295,0.869c-0.13,1.345 -0.326,2.756 -0.608,4.253c-0.238,1.454 -0.304,2.93 -0.173,4.427Zm0.173,-23.611c2.018,-0.803 4.037,-1.649 6.077,-2.517c2.018,-0.912 4.036,-1.693 6.076,-2.344c-0.174,-0.977 -0.26,-1.91 -0.26,-2.778c-0,-0.868 -0.131,-1.758 -0.348,-2.691c-1.736,0.412 -3.559,0.846 -5.468,1.302c-1.91,0.478 -3.798,0.695 -5.643,0.695c-0.13,1.345 -0.238,2.691 -0.347,4.079c-0.065,1.346 -0.087,2.757 -0.087,4.254Z" style="fill-rule:nonzero;"/></g></g></g><g><g><g><path d="M1151.54,149.376c0.912,-0.282 1.823,-0.478 2.691,-0.608c0.912,-0.173 1.78,-0.26 2.605,-0.26l1.823,-0c0.52,-0 1.041,0.087 1.562,0.26c2.539,-1.497 4.991,-2.973 7.379,-4.427c2.365,-1.497 4.774,-2.973 7.204,-4.427c5.773,-3.646 11.676,-6.858 17.709,-9.635c6.076,-2.778 12.804,-4.167 20.225,-4.167c6.815,-0 13.412,1.91 19.792,5.729c6.424,3.776 11.307,8.594 14.67,14.497c1.91,3.472 3.299,7.248 4.167,11.284c0.868,4.059 1.302,8.117 1.302,12.153c-0,4.297 -0.304,9.419 -0.868,15.365c-0.521,5.903 -1.28,11.718 -2.257,17.448c-0.998,5.685 -2.387,10.547 -4.167,14.583c-1.866,4.297 -4.427,7.726 -7.725,10.33c-3.299,2.561 -7.379,3.819 -12.24,3.819c-1.345,0 -2.734,-0.087 -4.167,-0.26c-1.389,-0.217 -2.843,-0.434 -4.34,-0.608c0.695,1.91 1.215,3.863 1.563,5.816c0.347,1.91 0.564,3.885 0.694,5.903c1.497,-1.845 3.082,-3.299 4.774,-4.34c1.671,-1.085 3.733,-1.65 6.164,-1.65c4.687,0 8.68,1.259 11.979,3.733c3.298,2.496 5.989,5.686 8.073,9.549c2.083,3.884 3.602,8.029 4.6,12.413c1.042,4.405 1.563,8.55 1.563,12.413c-0,2.431 -0.174,5.122 -0.521,8.073c-0.347,2.951 -1.042,5.859 -2.083,8.681c-0.999,2.842 -2.431,5.164 -4.341,6.944c-1.866,1.845 -4.318,2.778 -7.378,2.778c-0.825,-0 -1.649,-0.152 -2.517,-0.434c-0.869,-0.304 -1.715,-0.565 -2.518,-0.782c-1.801,4.167 -3.602,7.336 -5.382,9.549c-1.801,2.192 -4.058,3.689 -6.771,4.514c-2.669,0.803 -6.293,1.215 -10.85,1.215c-3.538,0 -7.422,-0.434 -11.632,-1.302c-4.232,-0.868 -8.247,-2.3 -12.066,-4.253c-3.776,-1.91 -6.728,-4.427 -8.854,-7.552c-2.952,-4.167 -4.818,-8.963 -5.556,-14.41c-0.694,-5.425 -1.042,-10.59 -1.042,-15.452c0,-2.43 0.174,-5.512 0.521,-9.288c0.391,-3.754 0.89,-7.508 1.476,-11.284c0.108,-0.695 0.217,-1.693 0.347,-3.039c0.174,-1.323 0.261,-2.126 0.261,-2.43c-0,-0.63 -0.066,-1.302 -0.174,-1.997c-0.065,-0.694 -0.152,-1.302 -0.26,-1.823c-2.149,-0.694 -3.863,-1.519 -5.122,-2.517c-1.28,-1.042 -2.214,-2.626 -2.778,-4.774c-1.041,0.173 -2.17,0.325 -3.385,0.434c-1.215,0.13 -2.387,0.173 -3.472,0.173c-1.216,0 -2.474,-0.13 -3.733,-0.434c-1.28,-0.347 -3.038,-0.911 -5.295,-1.736l-2.431,-1.649c-0.824,-0.521 -1.562,-1.063 -2.257,-1.649c-0.521,1.801 -1.519,3.645 -2.951,5.555c-1.389,1.866 -3.168,2.778 -5.295,2.778l-23.785,-0.26c-1.801,-0 -3.993,0.477 -6.597,1.388c-2.604,0.868 -4.731,1.628 -6.337,2.257c-3.95,1.802 -7.248,4.232 -9.896,7.292c-2.322,2.843 -4.08,5.968 -5.295,9.375c-1.172,3.429 -1.888,6.944 -2.17,10.59c1.736,-1.041 3.255,-2.43 4.601,-4.166c1.388,-1.78 2.734,-3.494 4.079,-5.122c3.473,-4.275 7.9,-7.943 13.282,-11.024c5.382,-3.125 10.894,-4.688 16.58,-4.688c3.472,0 6.814,0.868 10.069,2.604c3.234,1.737 5.99,3.82 8.247,6.25c2.3,2.431 4.123,5.187 5.468,8.247c1.389,3.016 2.539,6.055 3.473,9.115c0.39,-2.431 0.868,-4.818 1.388,-7.205c0.521,-2.431 0.977,-4.796 1.389,-7.118c-1.454,-2.127 -2.474,-3.733 -3.038,-4.775c-0.521,-1.085 -0.781,-2.257 -0.781,-3.472c-0,-2.127 0.651,-3.689 1.996,-4.687c1.389,-1.042 2.995,-1.563 4.861,-1.563c3.646,0 6.554,1.628 8.768,4.861c2.257,3.19 3.385,6.402 3.385,9.636c0,1.345 -0.152,3.819 -0.434,7.465c-0.304,3.646 -0.651,6.944 -1.041,9.896c-0.131,1.215 -0.217,2.474 -0.261,3.732c-0.065,1.281 -0.087,2.518 -0.087,3.733c0,4.471 0.131,8.984 0.434,13.542c0.348,4.557 0.868,9.071 1.563,13.541c0.108,0.391 0.173,0.803 0.173,1.216l0,1.128c0,1.606 -0.759,2.691 -2.256,3.212c-1.454,0.564 -2.843,0.868 -4.167,0.868c-3.472,-0 -6.402,-1.042 -8.767,-3.125c-2.388,-2.083 -4.297,-4.601 -5.73,-7.552c-0.586,2.539 -1.649,4.818 -3.211,6.858c-1.52,2.018 -3.82,3.038 -6.945,3.038c-2.669,-0 -5.425,-0.217 -8.246,-0.608c-0.825,-0.174 -1.65,-0.304 -2.518,-0.347c-0.868,-0.065 -1.779,-0.087 -2.691,-0.087c-1.801,0 -3.515,0.13 -5.121,0.434l-5.382,0.608c-2.431,0.217 -4.861,0.434 -7.292,0.607c-2.43,0.217 -4.318,0.348 -5.642,0.348c-1.346,-0 -2.995,-0.152 -4.948,-0.434c-1.975,-0.239 -4.644,-0.695 -7.986,-1.389c-3.082,-0.521 -5.903,-1.867 -8.507,-3.993c-4.579,-3.776 -7.813,-8.724 -9.722,-14.844c-1.867,-6.12 -2.778,-12.001 -2.778,-17.622c-0,-2.712 0.217,-5.403 0.694,-8.073c0.521,-2.712 1.476,-5.837 2.865,-9.375c1.389,-3.58 3.494,-7.855 6.337,-12.847c-3.776,-2.3 -6.25,-4.08 -7.466,-5.295c-1.215,-1.215 -1.823,-2.539 -1.823,-3.993c0,-1.324 0.521,-2.431 1.563,-3.299c1.085,-0.911 2.539,-1.779 4.34,-2.604l5.382,-5.382c2.192,-2.192 4.167,-4.21 5.903,-6.076c-0.933,-0.109 -1.888,-0.261 -2.865,-0.434c-0.933,-0.217 -1.953,-0.434 -3.038,-0.608c-2.257,-0.521 -4.427,-1.302 -6.51,-2.344c-2.084,-1.085 -3.69,-2.191 -4.775,-3.298c-0.933,-1.042 -1.519,-1.953 -1.736,-2.778c-0.173,-0.803 -0.26,-1.562 -0.26,-2.257c-0,-2.951 0.868,-4.818 2.604,-5.642c1.736,-0.803 3.689,-1.411 5.903,-1.823l3.212,-1.997c1.041,-0.694 1.953,-1.497 2.777,-2.43c-2.387,-1.085 -4.991,-2.452 -7.812,-4.08c-2.843,-1.606 -5.274,-3.494 -7.292,-5.642c-2.04,-2.127 -3.038,-4.471 -3.038,-7.032c0,-2.126 0.998,-3.906 3.038,-5.295c0.391,-0.39 1.216,-0.607 2.431,-0.607l3.385,-0c0.695,-0 1.693,-0.717 3.038,-2.171c1.389,-1.497 3.559,-3.993 6.511,-7.465c1.606,-2.018 3.407,-4.036 5.382,-6.076c-1.736,-1.216 -3.451,-2.366 -5.122,-3.472c-1.692,-1.151 -3.646,-2.431 -5.903,-3.82c-2.039,-1.324 -3.732,-2.908 -5.121,-4.774c-1.346,-1.91 -1.997,-4.124 -1.997,-6.684c0,-3.342 0.868,-5.925 2.605,-7.726c1.779,-1.845 4.036,-3.082 6.77,-3.733c2.778,-0.694 5.513,-1.041 8.247,-1.041c5.49,-0 10.178,1.041 14.062,3.125c3.928,2.083 7.683,5.078 11.285,8.941c3.125,-2.648 5.751,-4.514 7.899,-5.556c2.127,-1.085 4.623,-1.649 7.466,-1.649c6.076,-0 11.024,1.888 14.843,5.642c3.82,3.776 6.945,8.138 9.375,13.108Zm47.223,23.611c3.342,0.521 6.293,1.628 8.854,3.299c2.604,1.692 3.906,4.492 3.906,8.42c0,4.579 -1.541,7.769 -4.601,9.548c-3.016,1.802 -6.467,2.691 -10.329,2.691c-0.825,0 -1.628,-0.021 -2.431,-0.087c-0.825,-0.043 -1.628,-0.086 -2.431,-0.086c-0.52,1.519 -1.128,3.081 -1.822,4.687c-0.695,1.628 -1.368,3.103 -1.997,4.427c2.648,0.413 5.208,0.608 7.639,0.608c3.06,-0 6.272,-0.261 9.635,-0.781c3.407,-0.565 5.99,-2.279 7.726,-5.122c2.539,-3.993 4.622,-9.223 6.25,-15.712c1.606,-6.467 3.038,-12.456 4.253,-17.968c0.391,-1.606 0.803,-3.733 1.216,-6.337c0.39,-2.648 0.607,-4.297 0.607,-4.948c0,-1.085 -0.325,-2.04 -0.954,-2.865c-0.586,-0.803 -1.476,-1.215 -2.691,-1.215c-0.521,-0 -1.389,0.26 -2.605,0.781c-1.215,0.478 -3.276,1.541 -6.163,3.212c-2.908,1.693 -7.183,4.34 -12.847,7.986c-0.239,3.364 -0.651,6.511 -1.215,9.462Zm-57.292,44.01c1.324,-1.497 3.147,-2.799 5.469,-3.906c1.844,-2.647 3.581,-5.338 5.208,-8.073c1.606,-2.778 3.234,-5.577 4.861,-8.42c-1.519,-1.91 -2.864,-3.754 -4.08,-5.555c-1.171,-1.78 -1.736,-3.907 -1.736,-6.337c0,-1.91 0.304,-3.993 0.955,-6.25c2.3,-0.977 4.623,-1.78 6.945,-2.431c2.365,-0.694 4.709,-1.302 7.031,-1.823l0.955,-3.472c-2.431,-0.803 -4.666,-1.606 -6.684,-2.431c-1.975,-0.802 -3.972,-1.736 -5.99,-2.777c-1.801,3.472 -3.516,6.336 -5.121,8.593c-1.563,2.214 -3.516,4.775 -5.816,7.726c-0.825,0.933 -1.433,1.997 -1.823,3.212c1.909,2.43 3.125,4.297 3.645,5.555c0.521,1.281 0.782,2.735 0.782,4.341c-0,3.776 -1.194,7.009 -3.559,9.722c-1.801,1.866 -3.863,3.103 -6.163,3.733c-2.257,0.586 -4.731,0.868 -7.379,0.868c-1.519,-0 -3.038,-0.022 -4.601,-0.087c-1.519,-0.044 -2.951,-0.087 -4.34,-0.087c-5.382,0 -9.874,0.846 -13.455,2.517c-3.537,1.693 -7.248,4.297 -11.111,7.813c4.557,-1.606 9.201,-2.865 13.889,-3.733c4.731,-0.911 9.505,-1.389 14.323,-1.389c3.125,0 6.12,0.261 9.028,0.782c2.886,0.477 5.816,1.106 8.767,1.909Zm-53.733,67.361c0.391,2.04 1.259,4.211 2.605,6.511c1.388,2.257 3.146,3.537 5.295,3.819c5.251,-1.215 10.33,-2.691 15.191,-4.427c3.472,-3.646 6.293,-7.291 8.507,-10.937c2.257,-3.646 4.383,-7.856 6.423,-12.674c-0.412,-0.803 -0.911,-1.584 -1.475,-2.344c-0.521,-0.737 -1.259,-1.128 -2.171,-1.128c-0.824,-0 -2.126,0.911 -3.906,2.691c-1.736,1.736 -3.515,3.711 -5.295,5.903c-1.801,2.213 -3.299,4.166 -4.514,5.902c-1.801,2.214 -3.884,4.08 -6.25,5.643c-2.322,1.519 -4.948,2.257 -7.899,2.257c-2.04,-0 -4.21,-0.391 -6.511,-1.216Zm19.445,-101.736l4.427,-1.215c1.432,-0.391 2.648,-1.063 3.646,-1.996c2.018,-1.737 3.949,-3.473 5.816,-5.209c1.909,-1.736 3.732,-3.494 5.468,-5.295c1.845,-1.845 3.668,-3.754 5.469,-5.729c1.845,-1.953 3.581,-4.015 5.209,-6.163c0.108,-2.018 -0.174,-4.102 -0.868,-6.25c-0.652,-2.127 -1.628,-3.212 -2.952,-3.212c-0.521,-0 -0.998,0.217 -1.389,0.608c-0.173,-0 -0.781,0.846 -1.823,2.517c-0.998,1.693 -2.04,3.45 -3.125,5.295c-1.041,1.801 -1.692,2.951 -1.909,3.472c-0.695,1.216 -2.04,3.017 -3.993,5.382c-1.91,2.322 -3.885,4.666 -5.903,7.031c-2.04,2.388 -3.646,4.232 -4.861,5.556l-1.997,2.431c-0.694,0.824 -1.107,1.736 -1.215,2.777Zm109.114,84.375c-0.52,2.735 -2.257,4.08 -5.208,4.08c-2.257,0 -4.492,-0.607 -6.684,-1.823c-2.148,-1.215 -4.145,-2.43 -5.99,-3.646l0,3.646c0,4.167 0.695,7.444 2.084,9.809c1.389,2.322 4.166,3.473 8.333,3.473c3.646,-0 6.033,-0.651 7.205,-1.997c1.15,-1.324 1.736,-3.668 1.736,-7.031c0,-2.431 -0.499,-4.601 -1.476,-6.511Zm-37.5,-40.104l1.65,0.174c3.472,0.521 6.12,1.432 7.986,2.691c1.91,1.28 4.123,3.277 6.684,5.989c0.694,-2.539 1.497,-4.6 2.43,-6.163c0.977,-1.562 2.735,-2.734 5.296,-3.559c-3.364,-1.042 -6.489,-2.474 -9.375,-4.34c-2.908,-1.91 -5.773,-3.863 -8.594,-5.903c-0.933,2.149 -1.91,4.08 -2.952,5.816c-0.998,1.736 -2.039,3.516 -3.125,5.295Zm42.362,29.427c2.539,2.952 4.427,5.447 5.642,7.466c1.215,2.039 2.713,4.73 4.514,8.072c0.39,-1.497 0.607,-2.821 0.607,-3.993c0,-2.3 -0.173,-4.622 -0.52,-6.944c-0.348,-2.365 -1.085,-4.557 -2.171,-6.597c-0.412,-0.695 -1.085,-1.671 -1.996,-2.952c-0.933,-1.258 -1.953,-1.909 -3.038,-1.909c-0.933,-0 -1.628,0.998 -2.084,2.951c-0.477,1.91 -0.781,3.212 -0.954,3.906Zm-79.688,35.764c1.845,0.825 3.255,1.606 4.254,2.344c1.041,0.694 2.17,1.866 3.385,3.472c0.174,-6.185 0.781,-12.326 1.823,-18.403c-0.521,0.586 -1.606,1.715 -3.212,3.386c-1.628,1.692 -3.168,3.363 -4.601,5.035c-1.389,1.692 -1.953,2.929 -1.649,3.732l0,0.434Z" style="fill-rule:nonzero;"/></g></g></g><g><g><clipPath id="_clip32"><path d="M551.194,279.688l5.013,0.13l-1.758,68.511l-5.035,-0.13l1.78,-68.511Z"/></clipPath><g clip-path="url(#_clip32)"><g><clipPath id="_clip33"><path d="M556.098,280.903c-1.671,51.606 -2.387,64.865 -3.884,66.623c-0.391,0.716 -1.65,-0.412 -1.65,-0.412l1.823,0.412c-0.173,0 -1.476,0.673 -1.823,-0.412c-1.041,-2.17 2.04,-15.365 2.648,-24.675c0.868,-12.174 -0.651,-38.39 1.063,-41.58c0.391,-1.063 1.823,0.044 1.823,0.044"/></clipPath><g clip-path="url(#_clip33)"><path d="M545.334,266.276l18.62,0.477l-2.452,95.725l-18.62,-0.477l2.452,-95.725Z" style="fill:#fff;fill-rule:nonzero;"/></g></g></g></g></g><g><g><clipPath id="_clip34"><path d="M795.052,273.524l5.382,0.131l-1.888,73.632l-5.382,-0.152l1.888,-73.611Z"/></clipPath><g clip-path="url(#_clip34)"><g><clipPath id="_clip35"><path d="M800.347,274.848c-1.823,55.447 -2.582,69.683 -4.21,71.571c-0.412,0.76 -1.758,-0.434 -1.758,-0.434l1.953,0.434c-0.195,0 -1.584,0.738 -1.953,-0.434c-1.106,-2.344 2.192,-16.515 2.843,-26.519c0.933,-13.086 -0.694,-41.254 1.15,-44.683c0.434,-1.128 1.975,0.065 1.975,0.065"/></clipPath><g clip-path="url(#_clip35)"><path d="M788.78,259.136l19.987,0.499l-2.626,102.843l-20.008,-0.499l2.647,-102.843Z" style="fill:#fff;fill-rule:nonzero;"/></g></g></g></g></g></svg>