<?xml version="1.0" encoding="UTF-8" standalone="no"?><!DOCTYPE svg PUBLIC "-//W3C//DTD SVG 1.1//EN" "http://www.w3.org/Graphics/SVG/1.1/DTD/svg11.dtd"><svg width="100%" height="100%" viewBox="0 0 5692 380" version="1.1" xmlns="http://www.w3.org/2000/svg" xmlns:xlink="http://www.w3.org/1999/xlink" xml:space="preserve" xmlns:serif="http://www.serif.com/" style="fill-rule:evenodd;clip-rule:evenodd;stroke-linejoin:round;stroke-miterlimit:2;"><g><clipPath id="_clip1"><rect x="303.494" y="59.657" width="249.891" height="295.595"/></clipPath><g clip-path="url(#_clip1)"><path d="M780.078,60.178c0,-0 -728.125,-0.022 -728.233,-0.022c0.108,7.162 1.974,98.85 1.909,106.793c-0.152,21.896 -1.888,48.589 -2.994,70.464c-0.5,9.831 -8.312,93.229 -15.105,103.668c0.022,-0.022 125.868,15.885 249.067,7.508c2.908,-16.948 9.05,-34.288 11.502,-51.28c2.713,-19.466 6.272,-36.849 6.619,-56.467c0.564,-32.313 -1.129,-58.941 -1.15,-93.099c-0,-1.758 2.56,-1.91 2.756,-0.174c3.928,33.29 4.969,24.87 8.051,85.851c1.801,36.003 -2.843,77.149 -4.687,113.412c121.093,14.453 140.082,12.717 248.546,-3.191c-3.711,-36.154 -3.494,-69.335 -3.473,-105.512c0.109,-50.694 -2.278,-56.597 -0.564,-96.289c0.087,-1.801 1.215,-1.779 1.324,0.022c2.192,35.33 2.018,60.916 6.467,93.468c2.582,19.423 3.602,40.668 6.836,59.961c2.908,16.992 12.022,47.157 12.087,47.157c106.88,-0 112.566,4.514 219.445,4.514c-7.747,-17.144 -14.735,-125.347 -15.126,-134.809c-0.282,-6.294 -3.798,-131.663 -3.277,-151.975" style="fill:#c40000;fill-rule:nonzero;"/></g></g><g><clipPath id="_clip2"><rect x="303.494" y="36.111" width="249.891" height="10.33"/></clipPath><g clip-path="url(#_clip2)"><path d="M836.892,46.115l-841.948,0l-0,-9.7l841.948,-0l0,9.7" style="fill:#d4983d;fill-rule:nonzero;"/></g></g><g><clipPath id="_clip3"><rect x="303.494" y="25" width="249.891" height="13.867"/></clipPath><g clip-path="url(#_clip3)"><path d="M836.892,38.281l-841.948,0l-0,-13.151l841.948,0l0,13.151" style="fill:#d4983d;fill-rule:nonzero;"/></g></g><g><clipPath id="_clip4"><rect x="303.494" y="17.904" width="24.284" height="51.541"/></clipPath><g clip-path="url(#_clip4)"><path d="M323.155,69.119l-42.838,-0l-0,-51.042l42.838,0l0,51.042" style="fill:#c40000;fill-rule:nonzero;"/></g></g><g><path d="M551.541,69.119l-42.839,-0l0,-51.042l42.839,0l-0,51.042" style="fill:#c40000;fill-rule:nonzero;"/></g><g><path d="M548.893,65.039l-37.695,0l-0,-46.962l37.695,0l0,46.962" style="fill:#c40000;fill-rule:nonzero;"/></g><g><clipPath id="_clip5"><rect x="303.494" y="17.904" width="18.728" height="51.541"/></clipPath><g clip-path="url(#_clip5)"><path d="M320.486,65.039l-37.695,0l-0,-46.962l37.695,0l0,46.962" style="fill:#c40000;fill-rule:nonzero;"/></g></g><g><clipPath id="_clip6"><rect x="547.266" y="59.657" width="249.87" height="295.595"/></clipPath><g clip-path="url(#_clip6)"><path d="M1023.85,60.178c-0,-0 -728.125,-0.022 -728.234,-0.022c0.109,7.162 1.975,98.85 1.91,106.793c-0.152,21.896 -1.888,48.589 -3.016,70.464c-0.478,9.831 -8.29,93.229 -15.083,103.668c0.022,-0.022 125.846,15.885 249.067,7.508c2.908,-16.948 9.049,-34.288 11.502,-51.28c2.691,-19.466 6.271,-36.849 6.619,-56.467c0.564,-32.313 -1.129,-58.941 -1.151,-93.099c0,-1.758 2.539,-1.91 2.756,-0.174c3.928,33.29 4.97,24.87 8.052,85.851c1.801,36.003 -2.843,77.149 -4.709,113.412c121.115,14.453 140.104,12.717 248.567,-3.191c-3.711,-36.154 -3.494,-69.335 -3.472,-105.512c0.108,-50.694 -2.279,-56.597 -0.564,-96.289c0.065,-1.801 1.215,-1.779 1.324,0.022c2.191,35.33 2.018,60.916 6.467,93.468c2.56,19.423 3.602,40.668 6.835,59.961c2.908,16.992 12.023,47.157 12.088,47.157c106.88,-0 112.565,4.514 219.445,4.514c-7.748,-17.144 -14.736,-125.347 -15.126,-134.809c-0.282,-6.294 -3.798,-131.663 -3.277,-151.975" style="fill:#c40000;fill-rule:nonzero;"/></g></g><g><clipPath id="_clip7"><rect x="547.266" y="36.111" width="249.87" height="10.33"/></clipPath><g clip-path="url(#_clip7)"><path d="M1080.66,46.115l-841.949,0l0,-9.7l841.949,-0l0,9.7" style="fill:#d4983d;fill-rule:nonzero;"/></g></g><g><clipPath id="_clip8"><rect x="547.266" y="25" width="249.87" height="13.867"/></clipPath><g clip-path="url(#_clip8)"><path d="M1080.66,38.281l-841.949,0l0,-13.151l841.949,0l0,13.151" style="fill:#d4983d;fill-rule:nonzero;"/></g></g><g><clipPath id="_clip9"><rect x="547.266" y="17.904" width="24.957" height="51.541"/></clipPath><g clip-path="url(#_clip9)"><path d="M566.905,69.119l-42.816,-0l-0,-51.042l42.816,0l0,51.042" style="fill:#c40000;fill-rule:nonzero;"/></g></g><g><path d="M795.313,69.119l-42.839,-0l-0,-51.042l42.839,0l-0,51.042" style="fill:#c40000;fill-rule:nonzero;"/></g><g><path d="M792.665,65.039l-37.695,0l-0,-46.962l37.695,0l-0,46.962" style="fill:#c40000;fill-rule:nonzero;"/></g><g><clipPath id="_clip10"><rect x="547.266" y="17.904" width="19.401" height="51.541"/></clipPath><g clip-path="url(#_clip10)"><path d="M564.258,65.039l-37.696,0l0,-46.962l37.696,0l-0,46.962" style="fill:#c40000;fill-rule:nonzero;"/></g></g><g><clipPath id="_clip11"><rect x="791.037" y="59.657" width="249.87" height="295.595"/></clipPath><g clip-path="url(#_clip11)"><path d="M1267.62,60.178c-0,-0 -728.147,-0.022 -728.234,-0.022c0.087,7.162 1.975,98.85 1.91,106.793c-0.152,21.896 -1.888,48.589 -3.017,70.464c-0.499,9.831 -8.29,93.229 -15.082,103.668c-0,-0.022 125.846,15.885 249.067,7.508c2.908,-16.948 9.049,-34.288 11.501,-51.28c2.691,-19.466 6.272,-36.849 6.619,-56.467c0.565,-32.313 -1.128,-58.941 -1.15,-93.099c0,-1.758 2.539,-1.91 2.756,-0.174c3.928,33.29 4.97,24.87 8.051,85.851c1.802,36.003 -2.842,77.149 -4.709,113.412c121.116,14.453 140.104,12.717 248.568,-3.191c-3.711,-36.154 -3.516,-69.335 -3.472,-105.512c0.108,-50.694 -2.279,-56.597 -0.565,-96.289c0.066,-1.801 1.216,-1.779 1.324,0.022c2.192,35.33 2.018,60.916 6.467,93.468c2.561,19.423 3.603,40.668 6.836,59.961c2.908,16.992 12.023,47.157 12.088,47.157c106.879,-0 112.565,4.514 219.444,4.514c-7.747,-17.144 -14.735,-125.347 -15.147,-134.809c-0.261,-6.294 -3.776,-131.663 -3.255,-151.975" style="fill:#c40000;fill-rule:nonzero;"/></g></g><g><clipPath id="_clip12"><rect x="791.037" y="36.111" width="249.87" height="10.33"/></clipPath><g clip-path="url(#_clip12)"><path d="M1324.44,46.115l-841.949,0l-0,-9.7l841.949,-0l-0,9.7" style="fill:#d4983d;fill-rule:nonzero;"/></g></g><g><clipPath id="_clip13"><rect x="791.037" y="25" width="249.87" height="13.867"/></clipPath><g clip-path="url(#_clip13)"><path d="M1324.44,38.281l-841.949,0l-0,-13.151l841.949,0l-0,13.151" style="fill:#d4983d;fill-rule:nonzero;"/></g></g><g><clipPath id="_clip14"><rect x="791.037" y="17.904" width="20.074" height="51.541"/></clipPath><g clip-path="url(#_clip14)"><path d="M810.677,69.119l-42.838,-0l-0,-51.042l42.838,0l0,51.042" style="fill:#c40000;fill-rule:nonzero;"/></g></g><g><path d="M1039.08,69.119l-42.838,-0l-0,-51.042l42.838,0l0,51.042" style="fill:#c40000;fill-rule:nonzero;"/></g><g><path d="M1036.44,65.039l-37.696,0l0,-46.962l37.696,0l-0,46.962" style="fill:#c40000;fill-rule:nonzero;"/></g><g><clipPath id="_clip15"><rect x="791.037" y="17.904" width="20.074" height="51.541"/></clipPath><g clip-path="url(#_clip15)"><path d="M808.03,65.039l-37.696,0l0,-46.962l37.696,0l-0,46.962" style="fill:#c40000;fill-rule:nonzero;"/></g></g><g><clipPath id="_clip16"><rect x="1524.39" y="59.657" width="246.94" height="295.595"/></clipPath><g clip-path="url(#_clip16)"><path d="M1751.15,60.178c0,-0 -728.125,-0.022 -728.233,-0.022c0.108,7.162 1.974,98.85 1.909,106.793c-0.152,21.896 -1.888,48.589 -3.016,70.464c-0.478,9.831 -8.29,93.229 -15.083,103.668c0.022,-0.022 125.847,15.885 249.067,7.508c2.908,-16.948 9.05,-34.288 11.502,-51.28c2.691,-19.466 6.272,-36.849 6.619,-56.467c0.564,-32.313 -1.129,-58.941 -1.15,-93.099c-0,-1.758 2.539,-1.91 2.756,-0.174c3.928,33.29 4.969,24.87 8.051,85.851c1.801,36.003 -2.843,77.149 -4.709,113.412c121.115,14.453 140.104,12.717 248.568,-3.191c-3.711,-36.154 -3.494,-69.335 -3.473,-105.512c0.109,-50.694 -2.278,-56.597 -0.564,-96.289c0.065,-1.801 1.215,-1.779 1.324,0.022c2.192,35.33 2.018,60.916 6.467,93.468c2.561,19.423 3.602,40.668 6.836,59.961c2.908,16.992 12.022,47.157 12.088,47.157c106.879,-0 112.565,4.514 219.444,4.514c-7.747,-17.144 -14.735,-125.347 -15.126,-134.809c-0.282,-6.294 -3.798,-131.663 -3.277,-151.975" style="fill:#c40000;fill-rule:nonzero;"/></g></g><g><clipPath id="_clip17"><rect x="1524.39" y="36.111" width="282.878" height="10.33"/></clipPath><g clip-path="url(#_clip17)"><path d="M1807.96,46.115l-841.948,0l-0,-9.7l841.948,-0l0,9.7" style="fill:#d4983d;fill-rule:nonzero;"/></g></g><g><clipPath id="_clip18"><rect x="1524.39" y="25" width="282.878" height="13.867"/></clipPath><g clip-path="url(#_clip18)"><path d="M1807.96,38.281l-841.948,0l-0,-13.151l841.948,0l0,13.151" style="fill:#d4983d;fill-rule:nonzero;"/></g></g><g><path d="M1751,69.119l-42.817,-0l0,-51.042l42.817,0l0,51.042" style="fill:#c40000;fill-rule:nonzero;"/></g><g><path d="M1748.37,65.039l-37.695,0l0,-46.962l37.695,0l0,46.962" style="fill:#c40000;fill-rule:nonzero;"/></g><g><clipPath id="_clip19"><rect x="39.692" y="59.657" width="268.49" height="295.595"/></clipPath><g clip-path="url(#_clip19)"><path d="M785.135,60.178c-0,-0 -728.147,-0.022 -728.256,-0.022c0.109,7.162 1.997,98.85 1.932,106.793c-0.152,21.896 -1.91,48.589 -3.017,70.464c-0.499,9.831 -8.29,93.229 -15.082,103.668c-0,-0.022 125.846,15.885 249.067,7.508c2.886,-16.948 9.049,-34.288 11.501,-51.28c2.691,-19.466 6.25,-36.849 6.598,-56.467c0.586,-32.313 -1.107,-58.941 -1.129,-93.099c0,-1.758 2.539,-1.91 2.756,-0.174c3.928,33.29 4.97,24.87 8.051,85.851c1.802,36.003 -2.842,77.149 -4.709,113.412c121.116,14.453 140.104,12.717 248.546,-3.191c-3.689,-36.154 -3.494,-69.335 -3.45,-105.512c0.108,-50.694 -2.279,-56.597 -0.565,-96.289c0.066,-1.801 1.216,-1.779 1.324,0.022c2.17,35.33 2.018,60.916 6.467,93.468c2.561,19.423 3.581,40.668 6.836,59.961c2.886,16.992 12.001,47.157 12.088,47.157c106.879,-0 112.543,4.514 219.423,4.514c-7.726,-17.144 -14.714,-125.347 -15.126,-134.809c-0.261,-6.294 -3.798,-131.663 -3.255,-151.975" style="fill:#c40000;fill-rule:nonzero;"/></g></g><g><clipPath id="_clip20"><rect x="0" y="36.111" width="308.181" height="10.33"/></clipPath><g clip-path="url(#_clip20)"><path d="M841.949,46.115l-841.949,0l0,-9.7l841.949,-0l-0,9.7" style="fill:#d4983d;fill-rule:nonzero;"/></g></g><g><clipPath id="_clip21"><rect x="0" y="25" width="308.181" height="13.867"/></clipPath><g clip-path="url(#_clip21)"><path d="M841.949,38.281l-841.949,0l0,-13.151l841.949,0l-0,13.151" style="fill:#d4983d;fill-rule:nonzero;"/></g></g><g><path d="M99.805,69.119l-42.839,-0l0,-51.042l42.839,0l-0,51.042" style="fill:#c40000;fill-rule:nonzero;"/></g><g><clipPath id="_clip22"><rect x="283.333" y="17.904" width="24.848" height="51.541"/></clipPath><g clip-path="url(#_clip22)"><path d="M328.19,69.119l-42.838,-0l-0,-51.042l42.838,0l0,51.042" style="fill:#c40000;fill-rule:nonzero;"/></g></g><g><path d="M97.135,65.039l-37.695,0l0,-46.962l37.695,0l0,46.962" style="fill:#c40000;fill-rule:nonzero;"/></g><g><clipPath id="_clip23"><rect x="283.333" y="17.904" width="24.848" height="51.541"/></clipPath><g clip-path="url(#_clip23)"><path d="M325.543,65.039l-37.696,0l0,-46.962l37.696,0l-0,46.962" style="fill:#c40000;fill-rule:nonzero;"/></g></g><g><clipPath id="_clip24"><rect x="1034.74" y="59.657" width="249.87" height="295.595"/></clipPath><g clip-path="url(#_clip24)"><path d="M1511.33,60.178c0,-0 -728.147,-0.022 -728.233,-0.022c0.086,7.162 1.974,98.85 1.909,106.793c-0.152,21.896 -1.888,48.589 -3.016,70.464c-0.499,9.831 -8.29,93.229 -15.083,103.668c0,-0.022 125.847,15.885 249.067,7.508c2.908,-16.948 9.05,-34.288 11.502,-51.28c2.691,-19.466 6.272,-36.849 6.619,-56.467c0.564,-32.313 -1.129,-58.941 -1.15,-93.099c-0,-1.758 2.539,-1.91 2.756,-0.174c3.928,33.29 4.969,24.87 8.051,85.851c1.801,36.003 -2.843,77.149 -4.709,113.412c121.115,14.453 140.104,12.717 248.568,-3.191c-3.711,-36.154 -3.516,-69.335 -3.473,-105.512c0.109,-50.694 -2.278,-56.597 -0.564,-96.289c0.065,-1.801 1.215,-1.779 1.324,0.022c2.192,35.33 2.018,60.916 6.467,93.468c2.561,19.423 3.602,40.668 6.836,59.961c2.908,16.992 12.022,47.157 12.087,47.157c106.88,-0 112.566,4.514 219.445,4.514c-7.747,-17.144 -14.735,-125.347 -15.126,-134.809c-0.282,-6.294 -3.798,-131.663 -3.277,-151.975" style="fill:#c40000;fill-rule:nonzero;"/></g></g><g><clipPath id="_clip25"><rect x="1034.74" y="36.111" width="249.87" height="10.33"/></clipPath><g clip-path="url(#_clip25)"><path d="M1568.14,46.115l-841.948,0l-0,-9.7l841.948,-0l0,9.7" style="fill:#d4983d;fill-rule:nonzero;"/></g></g><g><clipPath id="_clip26"><rect x="1034.74" y="25" width="249.87" height="13.867"/></clipPath><g clip-path="url(#_clip26)"><path d="M1568.14,38.281l-841.948,0l-0,-13.151l841.948,0l0,13.151" style="fill:#d4983d;fill-rule:nonzero;"/></g></g><g><clipPath id="_clip27"><rect x="1034.74" y="17.904" width="20.812" height="51.541"/></clipPath><g clip-path="url(#_clip27)"><path d="M1054.38,69.119l-42.839,-0l0,-51.042l42.839,0l-0,51.042" style="fill:#c40000;fill-rule:nonzero;"/></g></g><g><path d="M1282.79,69.119l-42.839,-0l0,-51.042l42.839,0l-0,51.042" style="fill:#c40000;fill-rule:nonzero;"/><path d="M1280.14,65.039l-37.695,0l-0,-46.962l37.695,0l0,46.962" style="fill:#c40000;fill-rule:nonzero;"/></g><g><clipPath id="_clip28"><rect x="1034.74" y="17.904" width="20.812" height="51.541"/></clipPath><g clip-path="url(#_clip28)"><path d="M1051.74,65.039l-37.695,0l-0,-46.962l37.695,0l0,46.962" style="fill:#c40000;fill-rule:nonzero;"/></g></g><g><clipPath id="_clip29"><rect x="1278.12" y="59.657" width="249.87" height="295.595"/></clipPath><g clip-path="url(#_clip29)"><path d="M1754.71,60.178c0,-0 -728.147,-0.022 -728.255,-0.022c0.108,7.162 1.997,98.85 1.931,106.793c-0.151,21.896 -1.909,48.589 -3.016,70.464c-0.499,9.831 -8.29,93.229 -15.083,103.668c0,-0.022 125.847,15.885 249.067,7.508c2.887,-16.948 9.05,-34.288 11.48,-51.28c2.713,-19.466 6.272,-36.849 6.619,-56.467c0.586,-32.313 -1.107,-58.941 -1.128,-93.099c-0,-1.758 2.539,-1.91 2.756,-0.174c3.928,33.29 4.969,24.87 8.029,85.851c1.823,36.003 -2.843,77.149 -4.687,113.412c121.115,14.453 140.104,12.717 248.546,-3.191c-3.689,-36.154 -3.494,-69.335 -3.472,-105.512c0.13,-50.694 -2.257,-56.597 -0.543,-96.289c0.065,-1.801 1.215,-1.779 1.324,0.022c2.17,35.33 2.018,60.916 6.467,93.468c2.561,19.423 3.581,40.668 6.836,59.961c2.886,16.992 12.001,47.157 12.088,47.157c106.879,-0 112.543,4.514 219.422,4.514c-7.747,-17.144 -14.713,-125.347 -15.126,-134.809c-0.26,-6.294 -3.797,-131.663 -3.255,-151.975" style="fill:#c40000;fill-rule:nonzero;"/></g></g><g><clipPath id="_clip30"><rect x="1278.12" y="36.111" width="249.87" height="10.33"/></clipPath><g clip-path="url(#_clip30)"><path d="M1811.52,46.115l-841.948,0l-0,-9.7l841.948,-0l0,9.7" style="fill:#d4983d;fill-rule:nonzero;"/></g></g><g><clipPath id="_clip31"><rect x="1278.12" y="25" width="249.87" height="13.867"/></clipPath><g clip-path="url(#_clip31)"><path d="M1811.52,38.281l-841.948,0l-0,-13.151l841.948,0l0,13.151" style="fill:#d4983d;fill-rule:nonzero;"/></g></g><g><clipPath id="_clip32"><rect x="1278.12" y="17.904" width="21.875" height="51.541"/></clipPath><g clip-path="url(#_clip32)"><path d="M1297.77,69.119l-42.839,-0l0,-51.042l42.839,0l-0,51.042" style="fill:#c40000;fill-rule:nonzero;"/></g></g><g><path d="M1526.17,69.119l-42.839,-0l0,-51.042l42.839,0l-0,51.042" style="fill:#c40000;fill-rule:nonzero;"/><path d="M1523.52,65.039l-37.695,0l-0,-46.962l37.695,0l0,46.962" style="fill:#c40000;fill-rule:nonzero;"/></g><g><clipPath id="_clip33"><rect x="1278.12" y="17.904" width="21.875" height="51.541"/></clipPath><g clip-path="url(#_clip33)"><path d="M1295.12,65.039l-37.695,0l-0,-46.962l37.695,0l0,46.962" style="fill:#c40000;fill-rule:nonzero;"/></g></g><g><clipPath id="_clip34"><rect x="95.768" y="17.904" width="20.812" height="66.645"/></clipPath><g clip-path="url(#_clip34)"><rect x="97.244" y="-132.834" width="217.773" height="217.773" style="fill:#c40000;fill-rule:nonzero;"/><path d="M315.017,86.415l-217.773,-0c-0.825,-0 -1.476,-0.651 -1.476,-1.476l0,-217.773c0,-0.825 0.651,-1.476 1.476,-1.476l217.773,0c0.825,0 1.476,0.651 1.476,1.476l0,217.773c0,0.825 -0.651,1.476 -1.476,1.476Zm-216.319,-2.93l214.844,0l-0,-214.844l-214.844,0l-0,214.844Z" style="fill:#c40000;fill-rule:nonzero;"/></g></g><g><clipPath id="_clip35"><rect x="318.012" y="17.904" width="20.812" height="66.645"/></clipPath><g clip-path="url(#_clip35)"><rect x="319.466" y="-132.834" width="217.795" height="217.773" style="fill:#c40000;fill-rule:nonzero;"/><path d="M537.261,86.415l-217.795,-0c-0.825,-0 -1.454,-0.651 -1.454,-1.476l0,-217.773c0,-0.825 0.629,-1.476 1.454,-1.476l217.795,0c0.825,0 1.476,0.651 1.476,1.476l-0,217.773c-0,0.825 -0.651,1.476 -1.476,1.476Zm-216.319,-2.93l214.844,0l-0,-214.844l-214.844,0l-0,214.844Z" style="fill:#c40000;fill-rule:nonzero;"/></g></g><g><clipPath id="_clip36"><rect x="1522.22" y="17.904" width="19.358" height="66.645"/></clipPath><g clip-path="url(#_clip36)"><rect x="1522.22" y="-132.834" width="217.773" height="217.773" style="fill:#c40000;fill-rule:nonzero;"/></g></g><g><clipPath id="_clip37"><rect x="1520.75" y="17.904" width="20.833" height="66.645"/></clipPath><g clip-path="url(#_clip37)"><path d="M1740,86.415l-217.774,-0c-0.824,-0 -1.475,-0.651 -1.475,-1.476l-0,-217.773c-0,-0.825 0.651,-1.476 1.475,-1.476l217.774,0c0.824,0 1.475,0.651 1.475,1.476l0,217.773c0,0.825 -0.651,1.476 -1.475,1.476Zm-216.298,-2.93l214.844,0l-0,-214.844l-214.844,0l-0,214.844Z" style="fill:#c40000;fill-rule:nonzero;"/></g></g><g><clipPath id="_clip38"><rect x="1689.71" y="17.904" width="20.833" height="66.645"/></clipPath><g clip-path="url(#_clip38)"><rect x="1691.19" y="-132.834" width="217.773" height="217.773" style="fill:#c40000;fill-rule:nonzero;"/><path d="M1908.96,86.415l-217.774,-0c-0.824,-0 -1.475,-0.651 -1.475,-1.476l-0,-217.773c-0,-0.825 0.651,-1.476 1.475,-1.476l217.774,0c0.824,0 1.475,0.651 1.475,1.476l0,217.773c0,0.825 -0.651,1.476 -1.475,1.476Zm-216.298,-2.93l214.844,0l-0,-214.844l-214.844,0l-0,214.844Z" style="fill:#c40000;fill-rule:nonzero;"/></g></g><g><path d="M272.331,159.527c-0,-0 -0.022,-0.022 -0.044,-0.043c-1.193,-2.344 -2.908,-4.189 -5.165,-5.534c-2.235,-1.368 -4.665,-2.04 -7.291,-2.04l-59.744,-0l-0,-4.688l65.191,0l-5.035,-6.185c-4.861,-5.989 -10.308,-11.371 -16.384,-16.124c-6.055,-4.774 -12.566,-8.811 -19.532,-12.109c-6.966,-3.299 -14.192,-5.794 -21.723,-7.487c-7.53,-1.693 -15.126,-2.539 -22.851,-2.518c-57.249,0 -103.82,46.572 -103.82,103.82c0,9.288 1.215,18.403 3.646,27.344c0.26,1.02 0.868,1.779 1.78,2.3c0.911,0.521 1.866,0.651 2.886,0.369c0.998,-0.26 1.779,-0.868 2.278,-1.78c0.521,-0.911 0.651,-1.866 0.369,-2.864c-2.257,-8.312 -3.385,-16.754 -3.385,-25.369c-0,-53.06 43.186,-96.246 96.246,-96.246c11.979,-0.021 23.546,2.127 34.722,6.446c11.154,4.318 21.18,10.503 30.013,18.576c1.519,1.367 -110.048,8.572 -110.048,8.572l0,3.255l24.631,0l0,4.688l-24.631,-0l0,3.255c0,-0 10.07,-0.13 24.631,0.065l0,19.857c0,30.425 -24.761,55.186 -55.186,55.186c-0.76,-0.021 -1.411,0.217 -1.954,0.76c-0.564,0.521 -0.824,1.172 -0.824,1.931c-0,0.782 0.26,1.411 0.824,1.954c0.543,0.52 1.194,0.781 1.954,0.759c8.116,0.022 15.928,-1.562 23.415,-4.709c-0.911,0.846 -1.15,1.844 -0.694,2.995c0.434,1.15 1.28,1.714 2.517,1.714c22.765,0 41.298,-27.192 41.298,-60.59l0,-19.683l0.499,0.021l0,19.662c0,31.575 -8.746,55.186 -16.58,55.186c-0.738,0 -1.345,0.283 -1.866,0.803c-0.521,0.543 -0.76,1.172 -0.76,1.888c0,0.738 0.239,1.368 0.76,1.888c0.521,0.543 1.128,0.803 1.866,0.825c14.301,0 22.005,-31.207 22.005,-60.59l0,-19.531l0.521,0.021l0,77.387c0,0.76 0.261,1.389 0.782,1.932c0.542,0.521 1.171,0.781 1.931,0.781c0.738,0 1.367,-0.26 1.91,-0.781c0.521,-0.543 0.781,-1.172 0.781,-1.932l-0,-77.235l0.521,0.022l-0,19.336c-0,29.383 7.704,60.59 22.005,60.59c0.738,-0.022 1.345,-0.282 1.866,-0.825c0.521,-0.52 0.76,-1.15 0.76,-1.888c-0,-0.716 -0.239,-1.345 -0.76,-1.888c-0.521,-0.52 -1.128,-0.803 -1.866,-0.803c-7.834,0 -16.58,-23.611 -16.58,-55.186l0,-19.163l0.499,0.022l0,19.141c0,33.42 18.533,60.59 41.298,60.59c1.237,0.022 2.083,-0.564 2.539,-1.714c0.456,-1.151 0.217,-2.149 -0.694,-2.995c7.487,3.147 15.277,4.709 23.394,4.709c0.759,0.022 1.41,-0.239 1.953,-0.759c0.564,-0.543 0.825,-1.194 0.825,-1.954c-0,-0.759 -0.261,-1.41 -0.825,-1.931c-0.543,-0.543 -1.194,-0.803 -1.953,-0.781c-30.426,-0 -55.187,-24.74 -55.187,-55.165l0,-18.62c26.085,1.324 52.083,3.993 61.415,9.223c12.782,7.14 14.54,26.15 14.54,40.929c-0,4.926 -0.369,9.809 -1.107,14.648c-0.738,4.861 -1.844,9.636 -3.32,14.323c-1.476,4.666 -3.277,9.223 -5.447,13.629c-2.17,4.405 -4.666,8.615 -7.487,12.63c-2.821,4.036 -5.925,7.812 -9.31,11.371c-3.407,3.538 -7.053,6.815 -10.938,9.788c-3.906,2.995 -8.007,5.664 -12.304,8.029c-4.319,2.366 -8.768,4.362 -13.39,6.055l-0.043,0c-1.65,0.586 -2.995,1.628 -4.015,3.082c-1.02,1.454 -1.541,3.06 -1.541,4.839l0,2.018c0,0.89 -0.304,1.671 -0.955,2.301c-0.629,0.629 -1.389,0.954 -2.3,0.954l-48.199,0c-0.911,0 -1.671,-0.325 -2.3,-0.954c-0.651,-0.63 -0.955,-1.411 -0.955,-2.301l-0,-2.018c-0,-1.779 -0.521,-3.385 -1.541,-4.839c-1.02,-1.454 -2.365,-2.474 -4.015,-3.082l-0.065,-0.022c-11.285,-4.08 -21.441,-10.069 -30.469,-17.99c-9.027,-7.899 -16.297,-17.166 -21.853,-27.821c-1.128,-2.149 0.478,-4.731 2.908,-4.731l162.565,-0c0.564,-0 1.107,-0.109 1.628,-0.369c0.521,-0.239 0.955,-0.586 1.324,-1.042c0.347,-0.434 0.607,-0.933 0.737,-1.497c0.131,-0.564 0.131,-1.107 0.022,-1.671c-0.369,-1.78 -2.018,-2.995 -3.819,-2.995l-163.737,-0c-7.487,-0 -12.348,7.878 -8.985,14.562l0.044,0.086c5.816,11.524 13.498,21.593 23.09,30.23c9.592,8.616 20.399,15.235 32.465,19.814c1.389,0.521 2.105,1.541 2.105,3.038l0,1.432c0,1.281 0.261,2.518 0.738,3.733c0.499,1.194 1.215,2.235 2.127,3.147c0.911,0.933 1.953,1.627 3.168,2.126c1.194,0.5 2.431,0.738 3.733,0.738l50.369,0c1.302,0 2.539,-0.238 3.733,-0.738c1.193,-0.499 2.257,-1.193 3.168,-2.105c0.911,-0.933 1.606,-1.974 2.105,-3.168c0.499,-1.194 0.738,-2.452 0.738,-3.733l-0,-1.432c0.022,-1.497 0.716,-2.517 2.127,-3.038c3.385,-1.302 6.705,-2.778 9.939,-4.427c3.233,-1.65 6.38,-3.451 9.418,-5.426c3.06,-1.974 5.99,-4.101 8.811,-6.38c2.821,-2.278 5.534,-4.709 8.095,-7.27c2.56,-2.561 4.991,-5.252 7.291,-8.073c2.279,-2.821 4.406,-5.751 6.402,-8.789c1.975,-3.038 3.798,-6.185 5.447,-9.418c1.65,-3.234 3.125,-6.532 4.427,-9.918c1.302,-3.385 2.431,-6.836 3.364,-10.351c0.955,-3.494 1.714,-7.032 2.279,-10.634c0.586,-3.581 0.955,-7.183 1.15,-10.807c0.195,-3.624 0.195,-7.248 0.022,-10.873c-0.196,-3.624 -0.565,-7.226 -1.129,-10.807c-0.564,-3.602 -1.324,-7.14 -2.257,-10.655c-0.933,-3.494 -2.04,-6.945 -3.342,-10.352c-1.302,-3.385 -2.778,-6.684 -4.405,-9.939Zm-77.67,-7.617l-0.52,-0l-0,-4.688l0.52,0l0,4.688Zm-30.164,-4.688l0.499,0l-0,4.688l-0.499,-0l-0,-4.688Zm0.499,27.865c-0,30.425 -16.081,55.186 -35.873,55.186l-0.217,0c20.964,-9.548 35.591,-30.685 35.591,-55.186l-0,-19.792l0.499,0l-0,19.792Zm5.425,-23.177l0,-4.688l0.521,0l-0,4.688l-0.521,-0Zm5.924,-0l0,-4.688l0.521,0l0,4.688l-0.521,-0Zm5.947,-0l-0,-4.688l0.499,0l-0,4.688l-0.499,-0Zm5.924,-0l0,-4.688l0.521,0l-0,4.688l-0.521,-0Zm42.036,78.363l-0.217,0c-19.792,0 -35.894,-24.761 -35.894,-55.186l-0,-18.902l0.52,0.022l0,18.88c0,24.501 14.605,45.638 35.591,55.186Z" style="fill-rule:nonzero;"/></g><g><clipPath id="_clip39"><rect x="1751.3" y="24.783" width="3937.59" height="22.439"/></clipPath><g clip-path="url(#_clip39)"><rect x="1751.3" y="24.783" width="4424.09" height="22.439" style="fill:#d4983d;fill-rule:nonzero;"/></g></g><g><g><g><path d="M353.713,157.421c-2.735,-1.324 -5.599,-2.973 -8.594,-4.948c-3.016,-1.953 -5.556,-4.275 -7.639,-6.945c-2.083,-2.712 -3.125,-5.816 -3.125,-9.288c0,-4.449 1.671,-8.268 5.035,-11.458c3.342,-3.234 7.248,-4.861 11.719,-4.861c4.166,-0 8.29,1.085 12.413,3.212c4.101,2.148 7.834,4.991 11.198,8.507c3.342,3.472 6.033,7.291 8.073,11.458c2.018,4.167 3.038,8.29 3.038,12.326c-0,3.646 -1.172,7.162 -3.472,10.504c-2.257,3.363 -5.361,5.034 -9.289,5.034c-1.345,0 -2.604,-0.195 -3.819,-0.607c-1.346,-0.564 -2.3,-0.912 -2.865,-1.042c-0.52,-0.108 -0.998,-0.173 -1.389,-0.173c-0.933,-0 -2.3,0.52 -4.079,1.562c-1.736,0.998 -2.605,2.083 -2.605,3.299c0,1.215 0.652,2.126 1.997,2.691c1.389,0.586 2.886,0.998 4.514,1.215c1.606,0.174 2.886,0.412 3.819,0.694c2.431,0.413 4.861,1.194 7.292,2.344c2.431,1.172 4.557,2.474 6.424,3.906c1.909,1.628 3.255,3.603 4.079,5.903c0.803,2.257 1.216,4.666 1.216,7.205c-0,3.646 -0.673,6.293 -1.997,7.899c-1.28,1.628 -3.125,2.648 -5.555,3.039c-2.387,0.412 -5.339,0.737 -8.855,0.954c-1.866,0.174 -4.123,1.042 -6.77,2.605c-2.605,1.519 -4.905,3.385 -6.858,5.642c-1.91,2.213 -2.865,4.318 -2.865,6.337c0,0.933 0.261,1.823 0.782,2.691c0.521,0.868 1.323,1.302 2.43,1.302c0.521,-0 0.999,-0.13 1.476,-0.434c0.456,-0.347 0.89,-0.651 1.302,-0.955c2.431,-2.257 5.49,-4.623 9.201,-7.118c3.69,-2.474 7.292,-3.733 10.764,-3.733c2.301,0 4.384,0.608 6.25,1.823c1.91,1.172 3.603,2.561 5.122,4.167c0.217,-7.639 0.607,-15.321 1.128,-23.091c0.565,-7.747 1.259,-15.451 2.084,-23.09c0.39,-3.646 0.737,-7.313 1.041,-11.024c0.348,-3.689 0.608,-7.422 0.782,-11.198c-2.149,-1.736 -3.994,-3.733 -5.556,-5.99c-1.563,-2.3 -2.344,-4.948 -2.344,-7.899c0,-4.036 1.519,-7.726 4.601,-11.024c3.125,-3.299 6.771,-4.948 10.937,-4.948c2.431,-0 4.514,0.564 6.25,1.649c1.737,1.042 3.299,2.518 4.688,4.427c5.599,-2.821 11.48,-5.664 17.621,-8.507c6.12,-2.821 12.37,-5.165 18.75,-7.031c6.424,-1.91 12.783,-2.865 19.098,-2.865c7.921,0 15.494,1.628 22.743,4.862c7.291,3.255 13.107,8.29 17.448,15.104c2.647,4.34 4.362,9.114 5.121,14.323c0.738,5.165 1.129,10.286 1.129,15.364c-0,6.207 -0.348,11.459 -1.042,15.799c-0.651,4.297 -3.125,7.769 -7.465,10.417c3.754,2.842 6.684,5.62 8.767,8.333c2.083,2.669 3.125,6.163 3.125,10.503c0,3.603 -1.454,6.381 -4.34,8.334c-2.908,1.975 -6.228,3.363 -9.983,4.166c-3.776,0.825 -6.988,1.346 -9.635,1.563c3.168,2.734 6.358,5.621 9.548,8.68c3.169,3.017 5.838,6.142 7.986,9.375c2.127,3.191 3.212,6.598 3.212,10.243c0,3.473 -0.998,6.207 -2.951,8.16c-1.91,1.975 -4.384,3.364 -7.379,4.167c-2.951,0.825 -5.816,1.215 -8.593,1.215c-4.471,0 -8.42,-0.825 -11.893,-2.517c-3.429,-1.671 -6.337,-3.82 -8.767,-6.424c-1.736,-1.844 -3.602,-4.47 -5.556,-7.899c-1.909,-3.472 -3.732,-6.619 -5.468,-9.462c0.108,1.107 0.217,2.257 0.347,3.472c0.173,1.216 0.26,2.344 0.26,3.386c0,4.644 -1.02,8.485 -3.038,11.545c-2.04,3.081 -5.121,5.707 -9.288,7.899c-2.04,0.933 -4.601,1.975 -7.726,3.125c-3.081,1.107 -6.206,2.062 -9.375,2.865c-3.125,0.824 -5.859,1.432 -8.16,1.823c2.301,0.824 4.645,1.345 7.032,1.562c2.43,0.174 4.861,0.261 7.291,0.261l5.296,-0c7.226,-0 14.453,-0.131 21.701,-0.434c7.292,-0.348 14.496,-0.912 21.615,-1.737c2.712,-0.282 5.338,-0.694 7.899,-1.215l7.726,-1.649c0.737,-0.282 1.519,-0.478 2.343,-0.608c0.803,-0.108 1.606,-0.173 2.431,-0.173c2.539,-0 4.383,0.781 5.555,2.343c1.151,1.519 1.932,3.364 2.344,5.556c0.391,2.148 0.608,4.232 0.608,6.25c-0,5.903 -1.367,10.612 -4.08,14.149c-2.669,3.581 -6.163,6.25 -10.504,7.986c-4.296,1.78 -8.919,2.973 -13.888,3.559c-4.992,0.565 -9.809,0.868 -14.497,0.868c-7.01,0 -14.236,-0.347 -21.701,-1.041c-7.466,-0.651 -14.822,-1.888 -22.049,-3.733c-7.183,-1.801 -13.867,-4.492 -20.052,-8.073c-1.346,-0.824 -2.778,-1.627 -4.34,-2.43c-1.563,-0.825 -3.169,-1.216 -4.775,-1.216c-0.933,0 -1.627,0.217 -2.083,0.695c-0.477,0.455 -0.955,1.041 -1.476,1.736c-0.998,1.606 -2.647,3.472 -4.948,5.555c-2.257,2.084 -4.21,3.646 -5.816,4.688c-2.04,1.215 -4.296,2.04 -6.77,2.517c-2.496,0.456 -4.862,0.695 -7.118,0.695c-4.167,-0 -8.551,-0.673 -13.108,-1.997c-4.579,-1.345 -8.898,-3.255 -12.934,-5.729c-4.058,-2.496 -7.335,-5.621 -9.809,-9.375c-2.496,-3.754 -3.733,-8.073 -3.733,-12.934c0,-4.861 0.912,-9.462 2.778,-13.802c1.91,-4.384 4.34,-8.464 7.292,-12.24c-3.364,-2.43 -5.99,-5.49 -7.9,-9.201c-1.866,-3.689 -2.777,-7.639 -2.777,-11.806c-0,-4.687 0.911,-9.158 2.777,-13.454c1.91,-4.341 4.731,-7.835 8.507,-10.504c-3.993,-2.018 -7.508,-4.644 -10.503,-7.899c-2.952,-3.234 -4.427,-7.205 -4.427,-11.893c-0,-6.293 2.04,-11.74 6.163,-16.319c4.101,-4.622 8.594,-8.464 13.455,-11.545Zm21.354,124.305c1.606,-1.736 3.147,-3.645 4.601,-5.729c1.497,-2.083 2.951,-4.08 4.34,-5.989c1.606,-2.431 3.754,-4.21 6.424,-5.382c2.712,-1.216 5.468,-1.823 8.246,-1.823c1.085,-0 2.105,0.043 3.038,0.087c0.977,0.065 1.932,0.151 2.865,0.26c-2.952,-2.127 -5.36,-4.47 -7.205,-7.031c-1.801,-2.539 -3.103,-5.686 -3.906,-9.462c-1.519,2.387 -3.299,4.557 -5.382,6.51c-2.084,1.975 -4.21,3.885 -6.337,5.73c-1.346,1.215 -3.168,3.038 -5.469,5.468c-2.257,2.431 -4.318,4.992 -6.163,7.639c-1.801,2.604 -2.691,4.84 -2.691,6.684c0,1.389 0.456,2.474 1.389,3.212c0.977,0.694 2.127,1.042 3.472,1.042c1.042,-0 1.953,-0.391 2.778,-1.216Zm73.871,-52.083c-0.933,0.174 -1.801,0.26 -2.604,0.26l-2.43,0c-1.736,0 -4.167,-0.13 -7.292,-0.434c-3.082,-0.282 -5.859,-0.954 -8.333,-1.996c-2.496,-1.085 -3.733,-2.908 -3.733,-5.469c0,-1.324 0.564,-2.257 1.736,-2.778c1.15,-0.564 2.257,-0.911 3.299,-1.041c3.928,-0.695 7.856,-1.519 11.805,-2.518c3.993,-1.041 7.856,-2.17 11.632,-3.385c-0.412,-0.629 -0.824,-1.237 -1.215,-1.823c-0.412,-0.629 -0.825,-1.215 -1.215,-1.736c-2.843,0.759 -5.729,1.28 -8.681,1.562c-2.951,0.304 -5.989,0.434 -9.114,0.434c-1.736,0 -3.538,-0.043 -5.382,-0.173c-1.802,-0.174 -3.559,-0.456 -5.295,-0.868c-0.131,3.125 -0.326,6.293 -0.608,9.462c-0.304,3.125 -0.434,6.228 -0.434,9.288c-0,1.801 0.195,3.798 0.608,5.989c0.39,2.214 1.757,3.299 4.079,3.299c1.845,-0 4.254,-0.456 7.205,-1.389c2.995,-0.911 5.99,-2.018 8.941,-3.299c2.952,-1.258 5.295,-2.387 7.031,-3.385Zm-24.565,-62.5c4.275,-3.407 8.94,-6.358 13.975,-8.854c5.035,-2.474 9.983,-4.796 14.844,-6.945c2.713,-1.323 5.425,-2.43 8.16,-3.298c2.777,-0.868 5.685,-1.302 8.767,-1.302c1.78,-0 3.472,0.173 5.035,0.521c1.606,0.303 3.168,0.933 4.687,1.909c0.109,-1.085 0.217,-2.126 0.347,-3.125c0.174,-1.041 0.261,-2.083 0.261,-3.125c-0,-1.497 -0.781,-2.474 -2.344,-2.951c-1.519,-0.456 -2.864,-0.695 -4.08,-0.695c-3.776,0 -7.639,0.934 -11.632,2.778c-3.993,1.801 -7.725,3.472 -11.198,5.035c-4.166,2.04 -8.398,3.863 -12.673,5.469c-4.232,1.627 -8.746,2.43 -13.542,2.43c0,2.04 -0.087,4.058 -0.26,6.077l-0.348,6.076Zm-1.041,23.004c3.233,-0.174 6.358,-0.738 9.375,-1.737c2.995,-1.041 6.206,-2.278 9.635,-3.732c5.599,-2.713 10.764,-5.035 15.452,-6.945c4.731,-1.953 9.809,-4.014 15.191,-6.163c1.909,-0.694 3.168,-1.497 3.819,-2.43c0.695,-0.912 1.085,-2.474 1.215,-4.688c-2.669,0.586 -5.338,1.432 -7.986,2.517c-2.604,1.042 -5.186,2.171 -7.725,3.386c-1.91,0.933 -4.059,1.91 -6.424,2.951c-2.322,0.999 -4.644,2.04 -6.945,3.125c-2.43,0.933 -4.752,1.736 -6.944,2.431c-2.214,0.651 -4.167,0.955 -5.903,0.955c-4.47,-0 -8.507,-0.868 -12.153,-2.605c-0.13,2.149 -0.173,4.297 -0.173,6.424c-0,2.149 -0.152,4.319 -0.434,6.511Zm54.514,5.815c0.629,0.695 1.324,1.454 2.083,2.257c0.738,0.825 1.476,1.541 2.17,2.171c1.606,-0.912 3.299,-1.737 5.035,-2.431l5.208,-1.997c0.803,-0.282 1.216,-0.824 1.216,-1.649c-0,-0.629 -0.261,-1.215 -0.782,-1.736l-1.649,-1.649c-2.148,0.933 -4.34,1.823 -6.597,2.691c-2.214,0.868 -4.427,1.649 -6.684,2.343Z" style="fill-rule:nonzero;"/></g></g></g><g><g><g><path d="M743.228,206.466c-0.412,3.472 -1.801,5.881 -4.166,7.205c-2.387,1.28 -5.187,1.91 -8.42,1.91c-3.603,-0 -7.162,-0.196 -10.678,-0.608c-3.776,-0.391 -7.465,-0.608 -11.111,-0.608c-10.373,0 -20.724,0.521 -31.076,1.563c-10.373,0.998 -20.573,2.561 -30.642,4.687c-5.274,0.933 -10.504,1.888 -15.712,2.865c-5.165,0.933 -10.417,1.389 -15.799,1.389c-4.166,-0 -8.116,-0.608 -11.805,-1.823c-3.711,-1.215 -6.901,-3.429 -9.549,-6.684c-2.148,-2.539 -3.212,-5.23 -3.212,-8.073c0,-1.498 0.478,-2.561 1.476,-3.212c0.976,-0.694 2.279,-1.237 3.906,-1.649l0.261,-0.608c-1.802,-0.911 -3.646,-1.844 -5.556,-2.778c-1.866,-0.976 -3.516,-2.126 -4.948,-3.472c-2.148,-1.91 -4.123,-4.622 -5.903,-8.16c-1.736,-3.58 -2.604,-6.857 -2.604,-9.809c0,-2.647 1.215,-4.253 3.646,-4.774c2.431,-0.564 4.557,-1.128 6.424,-1.649c0.976,-0.282 2.951,-1.259 5.902,-2.952c2.952,-1.671 6.359,-3.776 10.243,-6.336c3.928,-2.539 7.856,-5.144 11.806,-7.813c3.993,-2.713 7.509,-5.143 10.59,-7.292c3.125,-2.191 5.209,-3.754 6.25,-4.687c1.085,-0.695 2.127,-1.432 3.125,-2.257c1.042,-0.803 2.105,-1.519 3.212,-2.17c0.738,-0.564 1.91,-1.389 3.472,-2.431c1.563,-1.085 2.344,-1.909 2.344,-2.43c0,-0.391 -0.217,-0.999 -0.608,-1.823c-0.412,-0.803 -0.607,-1.606 -0.607,-2.431c-0,-3.646 0.998,-6.619 3.038,-8.941c2.018,-2.365 4.557,-4.166 7.639,-5.382c3.125,-1.215 6.293,-1.866 9.548,-1.996c1.042,-0.174 1.91,-0.261 2.605,-0.261l1.996,0c0.912,0 2.018,0.131 3.299,0.348c1.258,0.173 2.864,0.412 4.774,0.694l3.212,0.434c1.085,0.13 2.105,0.326 3.038,0.608c1.215,0.412 2.344,0.781 3.386,1.128c1.085,0.304 2.256,0.781 3.472,1.476c0.911,0.521 1.866,1.193 2.864,1.996c1.042,0.825 1.91,1.563 2.604,2.257c1.606,1.867 2.691,3.516 3.212,4.948c0.521,1.389 1.064,3.299 1.65,5.729c0.108,0.413 0.564,0.825 1.388,1.216l18.143,9.114c4.861,2.387 9.744,5.078 14.67,8.073c4.905,2.952 9.657,6.055 14.236,9.288c2.127,1.346 4.471,3.017 7.031,5.035c2.539,2.04 4.297,3.776 5.295,5.208c1.737,2.561 3.256,5.426 4.601,8.594c1.324,3.19 1.997,6.315 1.997,9.375c-0,4.579 -1.454,8.811 -4.341,12.674c-2.908,3.819 -6.749,5.729 -11.545,5.729c-1.389,-0 -2.756,-0.022 -4.08,-0.087c-1.345,-0.108 -2.669,-0.217 -3.993,-0.347Zm-14.757,46.181l-0.173,0.434c2.257,1.736 4.384,3.211 6.423,4.427c2.019,1.215 4.102,2.994 6.25,5.295c2.952,3.081 5.513,6.597 7.726,10.59c2.257,3.95 3.386,8.138 3.386,12.587c-0,5.903 -1.476,10.699 -4.428,14.41c-2.951,3.689 -7.617,5.555 -13.975,5.555c-1.867,0 -3.906,-0.26 -6.163,-0.781c-2.214,-0.521 -4.124,-1.476 -5.73,-2.865c-1.345,-1.041 -2.691,-2.213 -4.079,-3.472c-1.346,-1.28 -2.322,-2.821 -2.952,-4.601c-1.107,-2.951 -2.061,-4.427 -2.864,-4.427c-0.521,0 -0.999,0.044 -1.389,0.174l-24.393,4.514l-25.26,5.989c-4.167,0.695 -8.203,1.259 -12.066,1.736c-3.82,0.456 -8.073,0.695 -12.76,0.695c-7.422,-0 -13.716,-0.608 -18.924,-1.823c-5.165,-1.215 -10.894,-3.776 -17.188,-7.639c-3.255,-2.04 -6.206,-4.731 -8.854,-8.073c-2.604,-3.342 -3.906,-7.053 -3.906,-11.111c-0,-3.06 0.868,-5.664 2.604,-7.812c1.78,-2.192 3.494,-4.427 5.122,-6.684c-0.999,-0.695 -1.975,-1.303 -2.952,-1.823c-0.998,-0.521 -2.04,-1.064 -3.125,-1.65c-2.322,-1.215 -4.297,-3.407 -5.902,-6.597c-1.563,-3.233 -2.344,-6.076 -2.344,-8.507c-0,-1.324 0.434,-2.604 1.302,-3.819c0.868,-1.216 1.953,-1.823 3.298,-1.823c1.498,-0 2.974,0.065 4.428,0.173c1.497,0.131 2.973,0.174 4.427,0.174c0.976,0 3.342,-0.282 7.118,-0.868c3.754,-0.629 8.246,-1.411 13.455,-2.344c5.251,-0.911 10.59,-1.866 15.972,-2.864c5.382,-1.042 10.156,-1.953 14.323,-2.778c4.166,-0.803 7.053,-1.324 8.68,-1.563c4.037,-0.694 8.095,-1.237 12.153,-1.649c4.036,-0.391 8.073,-0.738 12.066,-1.042c3.342,-0.217 6.641,-0.477 9.896,-0.781c3.233,-0.282 6.467,-0.477 9.722,-0.607l15.538,-1.042c0.217,-0 0.478,0.065 0.781,0.173c0.283,0.066 0.543,0.087 0.782,0.087l0.868,0c1.844,0 3.689,-0.043 5.555,-0.173c1.91,-0.174 3.755,-0.261 5.556,-0.261c5.078,0 10.286,0.738 15.625,2.17c5.317,1.389 9.657,4.124 13.021,8.16c1.606,1.736 2.951,3.733 3.993,5.99c1.085,2.213 1.649,4.492 1.649,6.857c0,3.429 -1.454,6.229 -4.34,8.42c-2.908,2.214 -5.903,3.299 -9.028,3.299c-1.736,0 -3.537,-0.108 -5.382,-0.347c-1.801,-0.282 -3.624,-0.629 -5.469,-1.042c-0.933,-0.282 -1.953,-0.477 -3.038,-0.607c-1.107,-0.109 -2.127,-0.261 -3.038,-0.434l-1.997,-0Zm-101.562,-57.292c0.977,-0.109 2.387,-0.456 4.253,-1.042c1.91,-0.629 3.386,-1.085 4.427,-1.389c2.431,-0.911 4.536,-1.562 6.337,-1.909c1.845,-0.348 4.254,-0.977 7.205,-1.91c3.125,-1.215 6.771,-2.17 10.938,-2.865c4.166,-0.738 8.376,-1.345 12.673,-1.823c4.341,-0.52 8.095,-0.889 11.285,-1.128c4.34,-0.564 8.637,-0.912 12.934,-1.042l12.934,-0.434l-0.608,-0.607l-14.149,-8.681c-1.345,-0.911 -2.756,-1.823 -4.253,-2.691c-1.454,-0.868 -2.93,-1.606 -4.427,-2.257c-1.454,-0.694 -3.386,-1.649 -5.816,-2.865c-2.431,-1.215 -4.406,-1.822 -5.903,-1.822c-1.346,-0 -2.648,0.325 -3.906,0.954c-1.281,0.586 -2.474,1.281 -3.559,2.084l-13.108,9.896l-1.389,1.215l-21.354,14.062c-0.586,0.304 -1.606,0.847 -3.038,1.65c-1.389,0.824 -1.953,1.54 -1.65,2.17l0.174,0.434Zm-8.854,80.295c1.215,0.694 2.691,1.042 4.427,1.042c2.951,-0 6.792,-0.651 11.545,-1.997c4.796,-1.324 9.635,-2.821 14.497,-4.514c4.861,-1.736 8.767,-3.06 11.718,-3.993c5.382,-1.736 10.938,-3.212 16.667,-4.427c5.729,-1.215 11.328,-2.17 16.84,-2.864c0.521,-0.109 0.977,-0.435 1.389,-0.955c-1.042,-2.019 -2.04,-3.429 -2.951,-4.254c-0.868,-0.803 -2.127,-1.215 -3.733,-1.215l-1.562,-0l-16.754,1.649l-15.972,1.997c-4.167,0.521 -8.485,1.801 -12.934,3.819c-4.406,2.04 -8.377,4.058 -11.893,6.077c-2.148,1.345 -4.21,2.756 -6.163,4.253c-1.909,1.454 -3.624,3.255 -5.121,5.382Z" style="fill-rule:nonzero;"/></g></g></g><g><g><g><path d="M856.963,142.924c1.085,-1.389 2.083,-2.799 2.951,-4.253c0.868,-1.498 1.758,-2.908 2.691,-4.254c2.018,-3.125 4.991,-5.577 8.941,-7.378c3.993,-1.78 7.813,-2.691 11.458,-2.691c4.97,-0 9.028,1.259 12.153,3.733c3.169,2.495 5.86,5.62 8.073,9.375c2.257,3.776 4.254,7.595 5.99,11.458l0.434,-0.781c0.521,-1.324 1.063,-2.648 1.649,-3.993c0.629,-1.389 1.432,-2.539 2.431,-3.473c2.539,-2.539 5.555,-3.819 9.027,-3.819c1.085,-0 2.279,0.174 3.559,0.521c1.259,0.304 2.366,0.651 3.299,1.041c0.174,0 0.304,0.066 0.434,0.174c0.108,0.065 0.26,0.087 0.434,0.087c1.563,-2.713 2.886,-5.122 3.993,-7.205c1.085,-2.083 2.908,-4.123 5.469,-6.163c2.43,-2.018 4.969,-3.559 7.639,-4.601c2.712,-1.085 5.664,-1.649 8.854,-1.649c3.125,-0 6.163,0.434 9.114,1.302c2.952,0.868 5.686,2.257 8.247,4.167c1.497,1.106 2.995,2.343 4.514,3.732c1.562,1.389 2.821,2.908 3.819,4.514c1.736,2.734 3.06,5.013 3.993,6.858c0.977,1.801 1.78,3.711 2.431,5.729c0.694,1.975 1.237,4.579 1.649,7.812c0.391,2.735 0.998,4.753 1.823,6.077c0.803,1.345 1.866,3.168 3.212,5.468l6.684,15.539l0.781,3.038l5.035,17.101c1.215,4.166 2.083,8.42 2.604,12.76c0.564,4.297 0.868,8.572 0.868,12.847c0,2.431 -0.26,5.013 -0.781,7.726c-0.478,2.669 -1.432,5.013 -2.865,7.031c-0.998,1.346 -2.126,2.669 -3.385,3.993c-1.28,1.281 -2.431,2.518 -3.472,3.733c-0.586,0.651 -1.302,1.259 -2.17,1.823c-0.868,0.521 -1.715,0.998 -2.518,1.389c-2.148,1.041 -4.253,1.779 -6.337,2.17c-2.083,0.412 -4.296,0.607 -6.597,0.607c-4.166,0 -8.463,-0.282 -12.847,-0.868c-4.34,-0.629 -8.051,-2.625 -11.111,-5.989c-2.952,-3.06 -5.208,-6.728 -6.771,-11.025c-1.562,-4.34 -2.344,-8.593 -2.344,-12.76c0,-3.928 0.109,-7.834 0.347,-11.719c0.283,-3.863 0.717,-7.769 1.303,-11.718l3.385,-21.181l4.427,-19.358c0.695,-2.3 1.15,-4.123 1.389,-5.468c0.282,-1.324 0.434,-2.453 0.434,-3.386c-0,-0.976 -0.239,-2.083 -0.694,-3.298c-0.478,-1.216 -1.303,-1.823 -2.518,-1.823c-0.521,-0 -0.911,0.173 -1.128,0.521c-0.174,0.347 -0.413,0.737 -0.695,1.128c-0.238,1.215 -0.694,2.865 -1.389,4.948c-0.694,2.083 -1.302,3.971 -1.823,5.642c-0.52,1.693 -0.868,2.67 -1.041,2.952c-0.651,1.866 -1.693,3.45 -3.125,4.774c-1.389,1.28 -3.038,2.322 -4.948,3.125l0.26,10.243l-0.868,18.142c-0.13,6.077 -0.521,12.023 -1.215,17.796c-0.651,5.794 -2.04,11.631 -4.167,17.534c-0.304,0.695 -0.998,1.888 -2.083,3.559c-1.042,1.693 -2.17,3.299 -3.385,4.861c-1.216,1.519 -2.171,2.561 -2.865,3.125l-1.997,1.563c-0.694,0.586 -1.519,0.998 -2.43,1.215c2.3,1.107 4.644,2.127 7.031,3.038l7.292,2.865c1.085,0.412 2.3,0.825 3.646,1.215l16.927,4.427c1.085,0.131 2.192,0.261 3.298,0.434c1.15,0.131 2.279,0.304 3.386,0.521c1.497,0.412 3.038,0.673 4.6,0.781c1.606,0.066 3.234,0.087 4.862,0.087l3.906,0c2.778,0 5.469,-0.195 8.073,-0.607c1.844,-0.283 3.667,-0.63 5.468,-1.042c1.845,-0.391 3.646,-0.608 5.382,-0.608c2.301,0 4.601,0.695 6.858,2.084c2.3,1.345 4.188,3.081 5.642,5.208c1.498,2.148 2.257,4.384 2.257,6.684c0,3.993 -1.02,7.986 -3.038,11.979c-2.04,3.928 -4.861,6.901 -8.507,8.941c-2.951,1.78 -6.489,3.06 -10.59,3.82c-4.123,0.802 -8.29,1.302 -12.5,1.475c-4.232,0.217 -8.116,0.347 -11.632,0.347l-4.427,0c-1.628,0 -3.168,-0.065 -4.601,-0.173l-15.364,-1.823l-4.601,-0.955l-15.538,-5.295c-1.628,-0.933 -3.342,-1.714 -5.122,-2.344c-1.736,-0.586 -3.429,-1.345 -5.035,-2.257c-2.951,-1.606 -5.881,-3.32 -8.767,-5.121c-2.908,-1.845 -5.772,-3.733 -8.594,-5.643c-1.454,-1.041 -2.929,-2.17 -4.427,-3.385c-1.454,-1.215 -2.929,-2.474 -4.427,-3.82c-0.933,1.454 -1.779,3.104 -2.517,4.948c-0.76,1.802 -1.454,3.516 -2.083,5.122c-1.216,2.951 -3.125,6.12 -5.73,9.462c-2.56,3.342 -5.099,6.12 -7.639,8.333c-1.736,1.432 -4.296,2.539 -7.638,3.299c-3.364,0.738 -6.207,1.128 -8.507,1.128c-4.992,0 -9.679,-1.562 -14.063,-4.687c-4.34,-3.082 -7.791,-6.771 -10.33,-11.111c-1.345,-2.257 -2.257,-4.862 -2.778,-7.813c-0.477,-2.951 -0.694,-5.99 -0.694,-9.115c0,-2.951 0.195,-6.38 0.608,-10.329c0.39,-3.993 0.889,-7.401 1.475,-10.243c0.109,-1.086 0.109,-2.04 0,-2.865c0.521,-0.629 1.042,-0.89 1.563,-0.781c0.521,0.13 1.063,0.325 1.649,0.607c2.257,2.322 4.362,4.297 6.337,5.903c1.953,1.563 3.819,2.344 5.556,2.344c1.432,-0 2.994,-0.304 4.687,-0.955c1.736,-0.694 3.06,-1.649 3.993,-2.865c1.606,-2.018 3.147,-4.535 4.601,-7.552c1.497,-2.994 2.517,-5.772 3.038,-8.333c-0.825,-1.497 -1.693,-2.973 -2.604,-4.427c-0.933,-1.497 -1.953,-2.865 -3.038,-4.08c-1.867,3.776 -3.798,6.923 -5.816,9.462c-2.04,2.561 -4.731,3.819 -8.073,3.819c-4.058,0 -7.617,-1.345 -10.677,-4.08c-3.017,-2.777 -5.339,-6.119 -6.945,-10.069c-1.562,-3.993 -2.344,-7.747 -2.344,-11.285c0,-1.432 0.261,-2.864 0.782,-4.253c0.521,-1.432 1.041,-2.821 1.562,-4.167c0.977,-2.018 1.78,-4.101 2.431,-6.25c0.694,-2.192 1.302,-4.362 1.823,-6.51c0.282,-0.63 0.868,-2.214 1.736,-4.775c0.868,-2.604 1.866,-5.555 3.038,-8.854c1.15,-3.298 2.3,-6.597 3.472,-9.896c1.215,-3.298 2.214,-6.011 3.038,-8.159c0.174,-0.217 0.261,-0.478 0.261,-0.782c-0,-0.52 -0.434,-1.237 -1.302,-2.17c-0.868,-0.976 -1.867,-1.996 -2.952,-3.038c-1.345,-1.389 -1.996,-3.147 -1.996,-5.295c-0,-3.342 1.562,-5.859 4.687,-7.552c3.169,-1.671 6.25,-2.517 9.202,-2.517c2.539,-0 4.796,0.564 6.771,1.649c1.953,1.042 3.862,2.322 5.729,3.819Zm14.583,48.611l0.608,-1.041l5.642,-18.924c1.215,-4.036 2.539,-8.355 3.993,-12.934c1.497,-4.557 2.257,-8.941 2.257,-13.108c0,-0.802 -0.217,-1.671 -0.608,-2.604c-0.412,-0.976 -1.171,-1.475 -2.257,-1.475c-0.824,-0 -1.822,0.911 -3.038,2.691c-1.215,1.736 -2.474,3.819 -3.732,6.25c-1.281,2.387 -2.388,4.665 -3.299,6.857c-0.933,2.149 -1.606,3.624 -1.997,4.427c-1.627,3.776 -2.821,6.923 -3.559,9.462c-0.759,2.561 -1.649,5.794 -2.691,9.722c0.109,0.521 0.369,0.999 0.782,1.389c0.39,0.413 0.738,0.825 1.041,1.215c1.216,1.346 2.344,2.691 3.386,4.08c1.085,1.346 2.257,2.67 3.472,3.993Zm34.115,42.014c-0.304,-1.909 -0.76,-3.906 -1.389,-5.989c-0.586,-2.084 -0.868,-4.124 -0.868,-6.163c-0,-0.803 0.108,-1.585 0.347,-2.344c0.282,-0.738 0.564,-1.433 0.868,-2.084l2.431,-4.253c0.52,-0.911 0.911,-1.78 1.215,-2.604c0.39,-1.085 0.803,-2.105 1.215,-3.038c0.391,-0.912 0.912,-2.279 1.563,-4.08l2.864,-16.754l2.17,-17.882c0.282,-2.712 0.109,-4.991 -0.521,-6.857c-0.585,-1.91 -2.148,-3.473 -4.687,-4.688l-0,9.288c-0,2.952 -0.347,5.903 -1.042,8.855c-0.651,2.951 -1.367,5.859 -2.17,8.68l-5.903,24.479c-0.238,1.346 -0.672,3.125 -1.302,5.382c-0.586,2.214 -1.172,4.384 -1.736,6.511c-0.521,2.148 -0.781,3.819 -0.781,5.034c-0,1.346 0.716,2.735 2.17,4.167c1.497,1.389 3.342,2.843 5.556,4.34Zm83.333,-58.159l-0.26,0.434c-0.521,0.933 -0.934,2.647 -1.216,5.121c-0.238,2.496 -0.412,4.254 -0.521,5.295l-0.868,17.014c0,0.933 0.022,2.474 0.087,4.601c0.109,2.148 0.282,4.145 0.521,5.989c0.282,1.802 0.781,2.691 1.476,2.691c0.738,0 1.475,-0.39 2.17,-1.215l1.389,-1.996c0.694,-1.085 1.085,-2.301 1.215,-3.646c0.174,-1.324 0.26,-2.648 0.26,-3.993c0,-5.144 -0.26,-9.484 -0.781,-13.021c-0.477,-3.581 -1.172,-7.856 -2.083,-12.847c-0.13,-0.695 -0.326,-1.411 -0.608,-2.17c-0.304,-0.803 -0.564,-1.563 -0.781,-2.257Z" style="fill-rule:nonzero;"/></g></g></g><g><g><g><path d="M1636.21,225.343c-5.512,0 -10.026,-0.217 -13.541,-0.694c-3.472,-0.521 -6.684,-1.649 -9.636,-3.385c-2.843,-1.737 -5.62,-4.08 -8.333,-7.032c-2.669,-2.951 -3.993,-6.163 -3.993,-9.635c-0,-3.516 1.736,-5.925 5.208,-7.205c3.516,-1.259 7.986,-2.04 13.368,-2.344c5.078,-2.126 9.484,-4.08 13.195,-5.816c3.689,-1.779 7.074,-3.58 10.156,-5.382c3.125,-1.779 6.38,-3.841 9.809,-6.163c3.472,-2.3 7.487,-4.948 12.066,-7.899c3.342,-2.127 6.793,-4.167 10.33,-6.077c3.581,-1.953 7.14,-3.906 10.677,-5.816c0.217,-2.018 -0.412,-3.472 -1.91,-4.34c-1.454,-0.868 -3.385,-1.302 -5.816,-1.302c-2.56,0 -4.948,0.434 -7.205,1.302c-2.213,0.868 -4.318,1.91 -6.336,3.125l-17.969,10.504l-15.104,9.722c-3.473,2.148 -7.444,3.884 -11.893,5.208c-4.47,1.346 -8.767,1.997 -12.934,1.997c-4.47,-0 -8.984,-0.651 -13.541,-1.997c-4.579,-1.324 -8.659,-3.255 -12.24,-5.816c-2.04,-1.497 -3.863,-3.298 -5.469,-5.382c-1.627,-2.083 -2.43,-4.383 -2.43,-6.944c-0,-2.127 0.716,-3.993 2.17,-5.556c1.497,-1.562 3.32,-2.343 5.469,-2.343c0.694,-0 1.562,0.13 2.604,0.347c1.085,0.173 2.105,0.412 3.038,0.694l1.823,0.434c1.606,-0.694 3.906,-1.758 6.858,-3.212c2.951,-1.497 6.119,-3.125 9.548,-4.861c3.472,-1.779 6.728,-3.494 9.809,-5.121l7.552,-3.559c6.706,-3.516 14.193,-6.728 22.483,-9.636c8.268,-2.886 16.167,-4.34 23.698,-4.34c5.49,0 11.285,1.02 17.361,3.038c6.076,2.04 11.719,4.905 16.927,8.594c5.252,3.711 9.549,8.073 12.847,13.108c3.299,5.034 4.948,10.655 4.948,16.84c0,7.943 -3.168,14.193 -9.462,18.75c-3.645,2.561 -7.443,4.948 -11.371,7.205c-3.885,2.213 -7.791,4.47 -11.719,6.771c-3.19,1.866 -6.424,3.776 -9.722,5.729c-3.299,1.975 -6.641,3.884 -9.983,5.729c4.796,4.058 8.898,9.093 12.327,15.104c3.472,5.968 6.098,12.24 7.899,18.837c1.845,6.597 2.778,12.999 2.778,19.184c-0,6.597 -1.302,13.021 -3.907,19.271c-2.56,6.25 -5.967,11.936 -10.243,17.014c-4.861,5.772 -10.047,9.852 -15.538,12.239c-5.512,2.366 -11.957,3.559 -19.357,3.559c-8.334,0 -16.125,-1.801 -23.351,-5.382c-7.183,-3.602 -13.195,-8.897 -18.056,-15.885c-0.933,-1.432 -1.909,-2.886 -2.951,-4.34c-0.998,-1.498 -2.04,-2.952 -3.125,-4.341l-9.896,-11.892c-0.933,-1.215 -2.235,-2.886 -3.906,-5.035c-1.693,-2.126 -3.212,-4.34 -4.601,-6.597c-1.345,-2.3 -1.996,-4.21 -1.996,-5.729c-0,-1.042 0.455,-1.563 1.389,-1.563c0.976,0 2.343,0.521 4.079,1.563c1.736,0.998 4.514,2.821 8.334,5.469c5.078,3.776 11.024,6.488 17.795,8.159c6.814,1.693 13.542,2.518 20.139,2.518c7.508,-0 12.695,-2.018 15.538,-6.077c2.821,-4.101 4.253,-9.809 4.253,-17.1c0,-4.688 -0.52,-9.484 -1.562,-14.41c-0.998,-4.905 -3.451,-8.854 -7.379,-11.806Z" style="fill-rule:nonzero;"/></g></g></g><g><g><clipPath id="_clip40"><path d="M551.975,281.771l4.21,0.108l-1.736,67.513l-4.21,-0.108l1.736,-67.513Z"/></clipPath><g clip-path="url(#_clip40)"><g><clipPath id="_clip41"><path d="M556.098,282.4c-1.671,51.606 -2.387,64.866 -3.884,66.602c-0.391,0.716 -1.65,-0.391 -1.65,-0.391l1.823,0.412c-0.173,-0.021 -1.476,0.673 -1.823,-0.412c-1.041,-2.17 2.04,-15.364 2.648,-24.674c0.868,-12.175 -0.651,-38.412 1.063,-41.58c0.391,-1.064 1.823,0.043 1.823,0.043"/></clipPath><g clip-path="url(#_clip41)"><path d="M545.334,267.773l18.62,0.478l-2.452,95.725l-18.62,-0.478l2.452,-95.725Z" style="fill:#fff;fill-rule:nonzero;"/></g></g></g></g></g><g><g><clipPath id="_clip42"><path d="M795.898,275.651l4.536,0.13l-1.866,72.526l-4.536,-0.13l1.866,-72.526Z"/></clipPath><g clip-path="url(#_clip42)"><g><clipPath id="_clip43"><path d="M800.347,276.324c-1.823,55.447 -2.582,69.683 -4.21,71.571c-0.412,0.76 -1.758,-0.434 -1.758,-0.434l1.953,0.456c-0.195,-0.022 -1.584,0.716 -1.953,-0.456c-1.106,-2.322 2.192,-16.515 2.843,-26.497c0.933,-13.086 -0.694,-41.255 1.15,-44.684c0.434,-1.15 1.975,0.044 1.975,0.044"/></clipPath><g clip-path="url(#_clip43)"><path d="M788.78,260.612l19.987,0.521l-2.626,102.843l-20.008,-0.521l2.647,-102.843Z" style="fill:#fff;fill-rule:nonzero;"/></g></g></g></g></g><g><g><g><path d="M1063.52,212.282c0.694,-0.803 1.345,-1.432 1.996,-1.91c0.695,-0.456 1.432,-0.955 2.257,-1.475l16.406,-11.112c1.606,-1.085 2.8,-1.931 3.559,-2.517c0.803,-0.629 1.302,-1.215 1.476,-1.736c0.109,-0.391 0.174,-1.129 0.174,-2.17l-0,-4.514c-0,-0.803 0.043,-1.866 0.173,-3.212c0.174,-1.042 0.261,-1.845 0.261,-2.43l-0,-0.955c-0,-1.085 -0.217,-2.04 -0.608,-2.865c-0.412,-0.803 -1.562,-2.083 -3.472,-3.819c-3.364,-0.282 -6.294,-0.63 -8.767,-1.042c-2.496,-0.391 -5.165,-1.584 -7.987,-3.559c-1.215,-0.977 -2.235,-2.083 -3.038,-3.299c-0.824,-1.215 -1.215,-2.539 -1.215,-3.993c-0,-0.694 0.13,-1.323 0.434,-1.909c0.282,-0.63 0.542,-1.216 0.781,-1.737c1.085,-0.282 1.932,-0.694 2.518,-1.215c0.629,-0.521 1.302,-1.172 1.996,-1.996l10.851,-9.896c1.085,-0.912 2.604,-2.192 4.514,-3.82c1.953,-1.606 4.014,-3.211 6.163,-4.774c2.127,-1.562 3.95,-2.799 5.469,-3.733c4.275,-2.647 8.073,-4.687 11.371,-6.076c3.299,-1.432 6.641,-2.17 10.07,-2.17c5.729,-0 10.807,1.606 15.277,4.774c0.391,-5.208 3.082,-7.812 8.073,-7.812c3.646,-0 6.988,0.933 10.07,2.777c1.497,0.999 2.561,2.084 3.212,3.299c0.694,1.172 1.388,2.648 2.083,4.427c0.521,1.346 0.976,1.997 1.389,1.997c0.282,-0 1.172,-0.369 2.691,-1.129c1.562,-0.738 2.734,-1.324 3.559,-1.736l15.972,-7.031c2.648,-1.085 5.469,-2.105 8.42,-3.038c2.995,-0.912 5.773,-1.585 8.333,-1.997c2.257,-0.39 4.514,-0.716 6.771,-0.955c2.301,-0.282 4.623,-0.434 6.945,-0.434c5.078,0 9.917,1.129 14.496,3.386c2.713,1.345 5.404,2.821 8.073,4.427c2.713,1.627 4.992,3.711 6.858,6.25c2.712,3.429 4.904,7.205 6.597,11.371c1.671,4.167 2.561,8.551 2.691,13.108l0.434,26.042c0,3.081 0.043,6.163 0.174,9.288c0.173,3.081 0.26,6.163 0.26,9.288c0,7.248 -1.172,12.63 -3.472,16.146c-2.257,3.472 -7.379,5.208 -15.365,5.208c-1.975,0 -3.819,-0.173 -5.555,-0.521c-1.693,-0.347 -3.451,-0.781 -5.295,-1.302c-1.107,-0.282 -2.214,-0.521 -3.299,-0.694c-1.042,-0.217 -1.714,-0.347 -1.997,-0.347c-0.759,-0 -1.888,0.217 -3.385,0.607c-1.519,0.413 -2.778,0.912 -3.819,1.476c-0.174,0.521 -0.261,1.128 -0.261,1.823l0,2.17c0,0.521 0.022,1.042 0.087,1.562c0.108,0.478 0.174,0.955 0.174,1.476l8.68,-0.607c3.342,-0.109 5.686,-0.174 7.031,-0.174c4.97,-0 9.549,0.564 13.716,1.649c4.166,1.042 7.205,3.038 9.114,5.99c0.63,1.107 1.172,2.517 1.65,4.253c0.52,1.736 0.781,3.212 0.781,4.427c-0,2.735 -0.825,5.078 -2.431,7.032c-1.627,1.909 -3.906,2.864 -6.857,2.864c-0.934,0 -2.648,-0.108 -5.122,-0.347c-2.496,-0.282 -4.687,-0.521 -6.597,-0.694c-0.825,-0.109 -1.649,-0.196 -2.518,-0.261c-0.868,-0.043 -1.714,-0.087 -2.517,-0.087c-1.519,0 -3.016,0.044 -4.514,0.087c-1.454,0.065 -2.691,0.152 -3.732,0.261c-1.802,0.173 -3.017,0.39 -3.646,0.607c-0.586,0.174 -0.868,0.586 -0.868,1.215c-0,1.91 0.195,3.885 0.607,5.903l0.434,0.174l17.969,-0c1.606,-0 3.299,0.217 5.035,0.607c1.736,0.413 3.342,0.869 4.861,1.389c1.845,0.586 3.516,1.454 5.035,2.605c1.497,1.106 2.908,2.213 4.253,3.298c1.845,1.454 3.234,3.19 4.167,5.208c0.976,2.04 1.476,3.994 1.476,5.903c-0,4.167 -0.76,7.227 -2.257,9.202c-1.454,2.018 -2.93,3.168 -4.428,3.472c-0.933,0.108 -1.953,0.217 -3.038,0.347c-1.041,0.174 -2.257,0.391 -3.646,0.695l-17.534,-2.084l-10.243,-0.347l-23.438,1.823l-17.535,2.604c-3.949,0.521 -7.552,0.998 -10.85,1.476c-3.299,0.521 -5.556,0.781 -6.771,0.781c-4.579,-0 -8.746,-1.02 -12.5,-3.038c-3.776,-2.04 -6.576,-5.469 -8.42,-10.33l-0.608,-1.649l-1.042,1.215l-0.434,0.26l-12.066,8.247c-1.215,0.803 -3.19,1.866 -5.902,3.212c-2.67,1.389 -5.252,2.604 -7.726,3.645c-2.496,1.086 -4.297,1.65 -5.382,1.65c-0.825,-0 -2.127,-0.087 -3.906,-0.261c-1.801,-0.13 -3.038,-0.238 -3.733,-0.347c-2.951,-0.586 -5.36,-1.259 -7.205,-1.996c-1.801,-0.695 -3.863,-1.997 -6.163,-3.907c-4.687,-3.884 -8.637,-8.593 -11.805,-14.149c-3.125,-5.599 -4.688,-11.502 -4.688,-17.708c0,-2.018 0.304,-4.08 0.955,-6.163c0.694,-2.084 1.389,-3.994 2.083,-5.73c1.042,-2.712 2.453,-5.056 4.254,-7.031c1.844,-2.018 3.776,-4.036 5.816,-6.076c0.803,-0.803 1.823,-1.78 3.038,-2.952c1.215,-1.15 2.083,-1.844 2.604,-2.083c0.391,-0.282 0.803,-0.521 1.215,-0.694c0.391,-0.217 0.651,-0.543 0.782,-0.955l-0.348,-0.608c-2.843,-0.694 -5.859,-1.606 -9.027,-2.778c-3.125,-1.215 -5.795,-3.038 -7.987,-5.468c-2.148,-2.431 -3.363,-5.599 -3.645,-9.549Zm72.482,-28.82l0,-0.607l0.174,-17.535c-0,-1.497 0.022,-2.951 0.087,-4.34c0.108,-1.432 0.021,-2.821 -0.261,-4.167c-0.521,0 -0.998,-0.022 -1.389,-0.087c-0.412,-0.043 -0.868,-0.086 -1.388,-0.086c-1.216,-0 -2.843,0.325 -4.862,0.954c-2.04,0.586 -3.993,1.476 -5.902,2.691c-0.934,0.651 -1.802,1.281 -2.605,1.91c-0.824,0.586 -1.215,1.02 -1.215,1.302c0,0.13 0.195,0.391 0.608,0.781c0.521,0.521 1.345,1.737 2.517,3.646c1.15,1.867 1.867,3.733 2.17,5.643c0.391,2.669 0.803,4.383 1.216,5.121c0.39,0.76 1.258,1.346 2.604,1.736c0.803,0.131 2.105,0.521 3.906,1.216c1.845,0.694 3.299,1.302 4.34,1.822Zm-10.243,59.289l0,1.215c1.433,-0.911 3.06,-2.018 4.861,-3.299c1.845,-1.258 3.321,-2.365 4.427,-3.298c1.737,-1.498 3.429,-2.995 5.122,-4.514c1.671,-1.563 2.517,-2.691 2.517,-3.386c0,-0.282 -0.26,-0.629 -0.781,-1.041c-0.694,-0.521 -1.562,-1.411 -2.604,-2.691c-0.998,-1.259 -1.736,-2.452 -2.257,-3.559c-0.998,-2.018 -1.476,-4.362 -1.476,-7.031c0,-0.283 -0.043,-0.652 -0.087,-1.129c-0.065,-0.456 -0.347,-0.694 -0.868,-0.694c-0.13,-0 -0.672,0.325 -1.649,0.954c-0.933,0.586 -1.953,1.259 -3.038,1.997c-1.042,0.76 -1.78,1.259 -2.17,1.476c-1.216,0.824 -1.823,1.779 -1.823,2.864l-0.174,22.136Zm17.882,30.295c1.389,0.586 2.604,0.868 3.646,0.868c0.694,-0 2.365,-0.261 5.035,-0.781c2.712,-0.565 5.599,-1.237 8.68,-1.997c3.125,-0.738 5.404,-1.324 6.858,-1.736c1.085,-0.217 1.649,-0.543 1.649,-0.955c0,-0.976 -0.087,-2.127 -0.26,-3.472c-0.13,-1.324 -0.087,-2.257 0.087,-2.778c-2.04,0.521 -3.863,0.955 -5.469,1.302c-1.628,0.347 -2.908,0.521 -3.82,0.521c-2.842,0 -4.839,-0.043 -5.989,-0.174c-1.172,-0.173 -2.604,-0.716 -4.34,-1.649c-0.521,1.346 -1.368,3.038 -2.518,5.122c-1.172,2.083 -2.344,3.797 -3.559,5.121l0,0.608Zm6.684,-31.077l17.535,-5.208c0.803,-0.282 1.215,-0.629 1.215,-1.042l0,-1.041c0,-0.391 -0.065,-0.868 -0.173,-1.389c-0.131,-0.803 -0.174,-1.519 -0.174,-2.17l-0,-1.65c-2.561,0.413 -5.122,0.217 -7.726,-0.607c-0.933,0.824 -1.996,1.606 -3.212,2.344c-1.215,0.759 -2.56,1.128 -3.993,1.128c-0.824,0 -1.627,-0.022 -2.43,-0.087c-0.825,-0.108 -2.648,-0.434 -5.469,-0.955l0.608,1.65c0.282,0.52 0.542,1.172 0.781,1.909c0.282,0.695 0.477,1.606 0.608,2.691c0.282,0.934 0.607,1.888 0.955,2.865c0.347,0.933 0.824,1.454 1.475,1.562Zm-58.507,27.865c-0.933,-2.018 -1.389,-3.299 -1.389,-3.819c0,-1.085 0.022,-2.561 0.087,-4.428c0.044,-1.909 0.087,-3.732 0.087,-5.468l-0,-3.038c-0,-0.695 -0.412,-1.042 -1.215,-1.042c-0.933,-0 -1.91,0.586 -2.952,1.736c-0.998,1.172 -1.974,2.344 -2.951,3.559c-0.933,1.215 -1.628,2.496 -2.083,3.819c-0.478,1.346 -0.695,2.409 -0.695,3.212c0,0.825 0.391,1.91 1.215,3.299c0.803,1.345 1.693,2.561 2.691,3.646c1.042,1.041 1.823,1.562 2.344,1.562c0.391,0 1.129,-0.369 2.17,-1.128c1.085,-0.738 1.997,-1.389 2.691,-1.91Zm113.455,-116.059c2.778,0.304 5.057,0.608 6.858,0.955c1.844,0.304 3.429,0.781 4.774,1.476c0.282,-1.324 0.456,-2.626 0.521,-3.907c0.043,-1.258 0.087,-2.604 0.087,-3.993c-0,-0.911 -0.13,-1.779 -0.348,-2.604c-0.173,-0.803 -0.585,-1.215 -1.215,-1.215c-0.304,-0 -1.193,0.173 -2.691,0.521c-1.454,0.347 -2.951,0.759 -4.514,1.215c-1.519,0.477 -2.604,0.911 -3.298,1.302c-0.521,0.304 -0.738,1.302 -0.608,3.038l0.434,3.212Zm-44.01,15.538c1.432,-0.39 2.973,-1.041 4.6,-1.91c1.606,-0.868 3.234,-1.757 4.862,-2.691l0.173,-5.902l-0.955,-0.174c-0.824,-0.282 -2.322,-0.629 -4.514,-1.042c-2.148,-0.39 -3.537,-0.607 -4.166,-0.607c-0.586,-0 -0.868,1.172 -0.868,3.472c-0,1.454 0.043,2.93 0.173,4.427c0.174,1.519 0.391,2.995 0.695,4.427Zm54.514,15.191c-0.825,0 -1.628,0.217 -2.431,0.608c-4.167,0.933 -6.25,1.801 -6.25,2.604l0,4.427c0,1.454 0.369,2.17 1.129,2.17c0.976,0 2.517,-0.108 4.6,-0.347c2.084,-0.282 3.125,-0.477 3.125,-0.608l0,-0.434c0,-0.521 -0.043,-1.041 -0.087,-1.562c-0.065,-0.564 -0.086,-0.977 -0.086,-1.215c-0,-0.977 0.021,-1.932 0.086,-2.865c0.044,-0.912 0.022,-1.845 -0.086,-2.778Zm-52.952,19.531c0.695,-0.282 1.324,-0.542 1.91,-0.781c0.629,-0.282 1.411,-0.629 2.344,-1.042c0.521,-0.282 1.063,-0.542 1.649,-0.781c0.629,-0.282 1.237,-0.542 1.823,-0.781c0.217,-1.389 0.347,-2.604 0.347,-3.646c0,-1.215 -0.065,-2.105 -0.173,-2.691l-8.247,-0.781c-0.174,0.304 -0.26,0.651 -0.26,1.042l-0,0.954c-0,1.52 0.021,2.822 0.086,3.907c0.109,1.041 0.283,2.582 0.521,4.6Z" style="fill-rule:nonzero;"/></g></g></g><g><g><clipPath id="_clip44"><path d="M1039.61,275.651l4.536,0.13l-1.867,72.526l-4.535,-0.13l1.866,-72.526Z"/></clipPath><g clip-path="url(#_clip44)"><g><clipPath id="_clip45"><path d="M1044.05,276.324c-1.823,55.447 -2.583,69.683 -4.21,71.571c-0.413,0.76 -1.758,-0.434 -1.758,-0.434l1.953,0.456c-0.195,-0.022 -1.584,0.716 -1.953,-0.456c-1.107,-2.322 2.192,-16.515 2.843,-26.497c0.933,-13.086 -0.695,-41.255 1.15,-44.684c0.434,-1.15 1.975,0.044 1.975,0.044"/></clipPath><g clip-path="url(#_clip45)"><path d="M1032.49,260.612l19.987,0.521l-2.626,102.843l-20.009,-0.521l2.648,-102.843Z" style="fill:#fff;fill-rule:nonzero;"/></g></g></g></g></g><g><g><g><path d="M1341.87,259.157c-0.998,-1.215 -1.736,-2.474 -2.257,-3.82c-0.52,-1.388 -0.998,-2.799 -1.388,-4.253c-3.646,-0.803 -7.097,-1.823 -10.33,-3.038c-3.255,-1.215 -5.903,-3.038 -7.986,-5.469c-2.084,-2.43 -3.125,-5.729 -3.125,-9.896c-0,-3.342 0.976,-6.358 2.951,-9.028c1.953,-2.712 4.167,-5.143 6.597,-7.291c-1.801,-1.085 -3.602,-2.366 -5.382,-3.82c-1.801,-1.497 -2.691,-3.255 -2.691,-5.295c0,-2.257 1.259,-4.188 3.82,-5.816c-2.843,-3.125 -4.905,-5.772 -6.163,-7.986c-1.281,-2.192 -1.91,-4.861 -1.91,-7.986c-0,-3.863 0.694,-8.55 2.083,-14.062c1.432,-5.556 2.778,-10.808 3.993,-15.799c-1.215,-1.606 -2.235,-3.06 -3.038,-4.34c-0.825,-1.259 -1.215,-2.453 -1.215,-3.559c-0,-2.648 0.911,-4.71 2.778,-6.164c1.909,-1.497 4.188,-2.257 6.857,-2.257c4.449,0 8.377,1.281 11.806,3.82c3.472,2.561 6.076,5.794 7.812,9.722c3.472,-0.694 7.075,-1.649 10.851,-2.864c3.819,-1.216 7.205,-2.691 10.156,-4.428c-0.586,-0.802 -1.259,-1.519 -1.996,-2.17c-0.695,-0.694 -1.389,-1.323 -2.084,-1.909c-1.041,-1.042 -1.823,-2.279 -2.343,-3.733c-0.478,-1.497 -0.695,-2.995 -0.695,-4.514c0,-4.167 1.389,-7.509 4.167,-10.069c2.778,-2.539 6.098,-4.384 9.982,-5.556c3.863,-1.15 7.574,-1.736 11.112,-1.736c11.154,-0 20.572,3.776 28.211,11.285c4.341,-1.216 8.616,-2.301 12.848,-3.299c4.21,-1.042 8.55,-1.562 13.02,-1.562c5.382,-0 11.242,0.998 17.622,2.951c6.424,1.975 12.522,4.774 18.316,8.42c5.772,3.603 10.525,7.943 14.236,13.021c3.689,5.035 5.556,10.72 5.556,17.014c-0,3.364 -0.782,6.38 -2.344,9.028c-1.563,2.604 -3.472,5.034 -5.729,7.291c0.911,1.216 1.671,2.431 2.257,3.646c0.629,1.215 0.954,2.583 0.954,4.08c0,3.082 -0.911,5.382 -2.691,6.944c-1.736,1.563 -4.079,2.344 -7.031,2.344c-2.778,0 -5.62,-0.13 -8.507,-0.434c-2.908,-0.282 -5.859,-0.434 -8.854,-0.434c-8.051,0 -16.102,0.217 -24.132,0.608c-7.986,0.412 -15.95,1.172 -23.871,2.257c-9.679,1.519 -19.315,3.45 -28.907,5.816c-9.548,2.322 -18.902,5.099 -28.038,8.333c-2.778,0.933 -5.881,2.04 -9.288,3.299c-3.364,1.28 -6.293,2.734 -8.767,4.34c-2.496,1.627 -3.733,3.298 -3.733,5.035c-0,0.933 0.369,1.54 1.128,1.823c0.738,0.303 1.433,0.434 2.084,0.434c0.564,-0 2.344,-0.391 5.295,-1.216c2.951,-0.803 6.293,-1.736 10.069,-2.778c3.755,-1.085 7.335,-2.126 10.764,-3.125c3.472,-1.041 5.925,-1.757 7.379,-2.17c13.997,-4.166 28.342,-7.725 43.055,-10.677c14.757,-2.995 29.08,-4.514 42.969,-4.514c3.472,0 7.335,0.304 11.632,0.868c4.34,0.521 8.464,1.563 12.413,3.125c3.993,1.52 7.292,3.69 9.896,6.511c2.648,2.843 3.993,6.554 3.993,11.111c0,3.255 -0.738,5.816 -2.17,7.726c-1.389,1.866 -3.82,2.777 -7.292,2.777c-1.107,0 -3.038,-0.282 -5.816,-0.868c-2.734,-0.629 -5.165,-1.215 -7.291,-1.736c1.432,2.843 2.994,5.621 4.687,8.334c1.671,2.669 3.472,5.273 5.382,7.812c2.648,3.472 5.035,7.183 7.118,11.111c2.083,3.885 3.125,8.203 3.125,12.934c0,6.315 -1.736,11.372 -5.208,15.191c-3.472,3.82 -7.9,6.706 -13.281,8.681c-5.382,1.953 -11.068,3.233 -17.014,3.819c-5.903,0.63 -11.198,0.955 -15.886,0.955c-3.819,0 -7.639,-0.304 -11.458,-0.868c-3.82,-0.521 -7.509,-1.128 -11.024,-1.823c-2.561,-0.521 -4.927,-1.259 -7.118,-2.17c-2.214,-0.933 -4.406,-2.083 -6.598,-3.472c-2.257,-1.454 -4.405,-3.19 -6.423,-5.209c-2.04,-2.04 -3.863,-4.101 -5.469,-6.25c-3.255,-4.036 -4.861,-8.615 -4.861,-13.715c-0,-3.515 0.282,-6.944 0.868,-10.243c0.629,-3.299 1.345,-6.619 2.17,-9.983c-0.933,-1.041 -1.693,-2.018 -2.257,-2.951c-0.521,-0.977 -1.042,-2.018 -1.562,-3.125c-6.598,2.431 -13.412,4.254 -20.4,5.469c4.731,4.991 7.118,10.655 7.118,17.014c0,4.991 -0.607,9.548 -1.823,13.715c-1.215,4.167 -3.45,8.181 -6.684,12.066c-3.255,3.754 -7.118,6.51 -11.632,8.246c-4.513,1.78 -9.179,2.691 -13.975,2.691c-2.735,0 -5.795,-0.477 -9.202,-1.388c-3.428,-0.869 -6.749,-2.171 -9.982,-3.907c-3.255,-1.736 -5.946,-3.863 -8.073,-6.337c-2.149,-2.495 -3.212,-5.338 -3.212,-8.593c0,-1.845 0.564,-3.147 1.736,-3.907c1.215,-0.737 3.516,-1.323 6.945,-1.736c0.803,-0.108 2.257,-0.824 4.34,-2.17c2.083,-1.389 4.362,-2.973 6.857,-4.774c2.474,-1.78 4.775,-3.559 6.858,-5.295c2.083,-1.78 3.516,-3.147 4.34,-4.08Zm101.65,-92.448c1.085,-0.694 2.626,-1.562 4.6,-2.604c1.954,-1.085 3.69,-2.344 5.209,-3.733c1.562,-1.432 2.343,-2.821 2.343,-4.166c0,-1.91 -0.846,-3.212 -2.517,-3.907c-1.693,-0.738 -3.277,-1.128 -4.774,-1.128c-2.431,-0 -5.643,0.564 -9.636,1.649c-3.949,1.042 -8.116,2.344 -12.5,3.906c-4.34,1.563 -8.507,3.104 -12.5,4.601c-3.949,1.454 -7.183,2.648 -9.722,3.559c-4.47,1.628 -9.765,3.429 -15.885,5.382c-6.142,1.91 -12.196,3.602 -18.143,5.035c-5.967,1.389 -11.111,2.083 -15.451,2.083c-2.04,0 -4.253,-0.304 -6.684,-0.955c0.174,0.76 0.26,1.541 0.26,2.344l0,2.431c0,1.388 -0.086,2.756 -0.26,4.079c-0.13,1.346 -0.239,2.756 -0.347,4.254c4.687,-1.78 9.548,-3.255 14.583,-4.427c5.078,-1.215 10.113,-2.518 15.104,-3.906c10.981,-2.648 22.005,-5.23 33.073,-7.726c11.046,-2.474 22.136,-4.731 33.247,-6.771Zm-15.538,67.361c2.604,2.735 3.906,5.816 3.906,9.288c-0,1.802 -0.304,4.341 -0.868,7.639c-0.521,3.299 -0.999,6.294 -1.389,8.941c-0.13,0.413 -0.174,1.085 -0.174,1.997c0,1.389 0.63,2.474 1.91,3.212c1.259,0.694 2.561,1.041 3.906,1.041c1.498,0 3.407,-0.217 5.729,-0.694c2.366,-0.456 4.71,-0.999 7.032,-1.65c2.365,-0.694 4.166,-1.388 5.382,-2.083c1.909,-1.085 3.059,-2.474 3.472,-4.167c0.39,-1.671 0.607,-3.428 0.607,-5.295l0,-3.646c0,-3.233 -0.238,-6.38 -0.694,-9.461c-0.477,-3.125 -1.389,-6.164 -2.778,-9.115c-4.405,-0.108 -8.767,0.26 -13.107,1.129c-4.297,0.868 -8.594,1.822 -12.934,2.864Z" style="fill-rule:nonzero;"/></g></g></g><g><g><clipPath id="_clip46"><path d="M1282.96,275.651l4.536,0.13l-1.866,72.526l-4.536,-0.13l1.866,-72.526Z"/></clipPath><g clip-path="url(#_clip46)"><g><clipPath id="_clip47"><path d="M1287.41,276.324c-1.801,55.447 -2.561,69.683 -4.188,71.571c-0.412,0.76 -1.758,-0.434 -1.758,-0.434l1.953,0.456c-0.195,-0.022 -1.584,0.716 -1.953,-0.456c-1.107,-2.322 2.192,-16.515 2.843,-26.497c0.933,-13.086 -0.695,-41.255 1.15,-44.684c0.412,-1.15 1.953,0.044 1.953,0.044"/></clipPath><g clip-path="url(#_clip47)"><path d="M1275.85,260.612l20.009,0.521l-2.648,102.843l-20.008,-0.521l2.647,-102.843Z" style="fill:#fff;fill-rule:nonzero;"/></g></g></g></g></g></svg>