<?xml version="1.0" encoding="UTF-8" standalone="no"?><!DOCTYPE svg PUBLIC "-//W3C//DTD SVG 1.1//EN" "http://www.w3.org/Graphics/SVG/1.1/DTD/svg11.dtd"><svg width="100%" height="100%" viewBox="0 0 3305 2963" version="1.1" xmlns="http://www.w3.org/2000/svg" xmlns:xlink="http://www.w3.org/1999/xlink" xml:space="preserve" xmlns:serif="http://www.serif.com/" style="fill-rule:evenodd;clip-rule:evenodd;stroke-linejoin:round;stroke-miterlimit:2;"><g><g><clipPath id="_clip1"><path d="M1699.88,133.393l1504.53,2613.18c10.273,17.859 10.252,39.836 -0.043,57.674c-10.317,17.816 -29.347,28.805 -49.959,28.805l-3008.66,0c-20.59,0 -39.62,-10.989 -49.937,-28.805c-10.317,-17.838 -10.338,-39.815 -0.043,-57.674l1504.53,-2613.18c10.252,-17.816 29.239,-28.804 49.786,-28.804c20.547,-0 39.533,10.988 49.807,28.804Z"/></clipPath><g clip-path="url(#_clip1)"><rect x="45.949" y="46.914" width="3210.6" height="2786.14" style="fill:#ffde00;fill-rule:nonzero;"/></g></g></g><g><path d="M1456.04,174.184c-174.736,305.583 -606.396,1070.18 -953.225,1684.59l-458.861,812.171c-41.311,72.695 -25.879,130.196 -13.048,157.982c26.009,56.266 81.538,84.355 124.799,91.941l8.713,1.474l2961.2,0.087l-6.199,-0.217c46.448,2.839 108.11,-13.893 141.813,-69.335c21.544,-35.567 37.041,-96.103 -12.007,-182.149l-916.813,-1602.45l-507.346,-886.36c-63.548,-111.145 -137.283,-134.531 -187.936,-134.531c-49.46,-0 -121.028,21.977 -181.021,126.793l-0.087,0l0.021,0Zm-772.701,1789.84c346.763,-614.2 778.207,-1378.51 952.683,-1683.6l2.081,-3.316c2.232,3.403 4.399,6.524 6.914,10.967l507.476,886.534c-0,0 809.678,1415.32 878.948,1536.3l-2770.12,-0.065l421.972,-746.823"/></g><path d="M1649.55,2557.49c89.709,0 162.404,-75.274 162.404,-168.126c0,-92.786 -72.695,-168.06 -162.404,-168.06c-89.839,-0 -162.533,75.274 -162.533,168.06c-0,92.852 72.694,168.126 162.533,168.126"/><path d="M1649.55,910.43c129.611,0 248.689,122.632 234.665,242.858l-110.992,845.613c-10.816,73.865 -55.378,127.942 -123.673,127.942c-68.294,0 -113.008,-54.077 -123.672,-127.942l-111.058,-845.613c-14.088,-120.226 105.055,-242.858 234.73,-242.858"/></svg>